<?xml version="1.0" encoding="utf-8" standalone="no"?>
<!DOCTYPE svg PUBLIC "-//W3C//DTD SVG 1.1//EN"
  "http://www.w3.org/Graphics/SVG/1.1/DTD/svg11.dtd">
<!-- Created with matplotlib (https://matplotlib.org/) -->
<svg height="432pt" version="1.1" viewBox="0 0 504 432" width="504pt" xmlns="http://www.w3.org/2000/svg" xmlns:xlink="http://www.w3.org/1999/xlink">
 <metadata>
  <rdf:RDF xmlns:cc="http://creativecommons.org/ns#" xmlns:dc="http://purl.org/dc/elements/1.1/" xmlns:rdf="http://www.w3.org/1999/02/22-rdf-syntax-ns#">
   <cc:Work>
    <dc:type rdf:resource="http://purl.org/dc/dcmitype/StillImage"/>
    <dc:date>2021-06-10T11:09:10.084712</dc:date>
    <dc:format>image/svg+xml</dc:format>
    <dc:creator>
     <cc:Agent>
      <dc:title>Matplotlib v3.3.3, https://matplotlib.org/</dc:title>
     </cc:Agent>
    </dc:creator>
   </cc:Work>
  </rdf:RDF>
 </metadata>
 <defs>
  <style type="text/css">*{stroke-linecap:butt;stroke-linejoin:round;}</style>
 </defs>
 <g id="figure_1">
  <g id="patch_1">
   <path d="M 0 432 
L 504 432 
L 504 0 
L 0 0 
z
" style="fill:none;"/>
  </g>
  <g id="axes_1">
   <g id="patch_2">
    <path d="M 63 378 
L 453.6 378 
L 453.6 51.84 
L 63 51.84 
z
" style="fill:#eaeaf2;"/>
   </g>
   <g id="matplotlib.axis_1">
    <g id="xtick_1">
     <g id="line2d_1">
      <path clip-path="url(#pd5c2324c31)" d="M 139.936364 378 
L 139.936364 51.84 
" style="fill:none;stroke:#ffffff;stroke-linecap:round;"/>
     </g>
     <g id="text_1">
      <!-- Not churned -->
      <g style="fill:#262626;" transform="translate(109.975973 395.373594)scale(0.11 -0.11)">
       <defs>
        <path d="M 7.625 0 
L 7.625 71.578125 
L 17.328125 71.578125 
L 54.9375 15.375 
L 54.9375 71.578125 
L 64.015625 71.578125 
L 64.015625 0 
L 54.296875 0 
L 16.703125 56.25 
L 16.703125 0 
z
" id="ArialMT-78"/>
        <path d="M 3.328125 25.921875 
Q 3.328125 40.328125 11.328125 47.265625 
Q 18.015625 53.03125 27.640625 53.03125 
Q 38.328125 53.03125 45.109375 46.015625 
Q 51.90625 39.015625 51.90625 26.65625 
Q 51.90625 16.65625 48.90625 10.90625 
Q 45.90625 5.171875 40.15625 2 
Q 34.421875 -1.171875 27.640625 -1.171875 
Q 16.75 -1.171875 10.03125 5.8125 
Q 3.328125 12.796875 3.328125 25.921875 
z
M 12.359375 25.921875 
Q 12.359375 15.96875 16.703125 11.015625 
Q 21.046875 6.0625 27.640625 6.0625 
Q 34.1875 6.0625 38.53125 11.03125 
Q 42.875 16.015625 42.875 26.21875 
Q 42.875 35.84375 38.5 40.796875 
Q 34.125 45.75 27.640625 45.75 
Q 21.046875 45.75 16.703125 40.8125 
Q 12.359375 35.890625 12.359375 25.921875 
z
" id="ArialMT-111"/>
        <path d="M 25.78125 7.859375 
L 27.046875 0.09375 
Q 23.34375 -0.6875 20.40625 -0.6875 
Q 15.625 -0.6875 12.984375 0.828125 
Q 10.359375 2.34375 9.28125 4.8125 
Q 8.203125 7.28125 8.203125 15.1875 
L 8.203125 45.015625 
L 1.765625 45.015625 
L 1.765625 51.859375 
L 8.203125 51.859375 
L 8.203125 64.703125 
L 16.9375 69.96875 
L 16.9375 51.859375 
L 25.78125 51.859375 
L 25.78125 45.015625 
L 16.9375 45.015625 
L 16.9375 14.703125 
Q 16.9375 10.9375 17.40625 9.859375 
Q 17.875 8.796875 18.921875 8.15625 
Q 19.96875 7.515625 21.921875 7.515625 
Q 23.390625 7.515625 25.78125 7.859375 
z
" id="ArialMT-116"/>
        <path id="ArialMT-32"/>
        <path d="M 40.4375 19 
L 49.078125 17.875 
Q 47.65625 8.9375 41.8125 3.875 
Q 35.984375 -1.171875 27.484375 -1.171875 
Q 16.84375 -1.171875 10.375 5.78125 
Q 3.90625 12.75 3.90625 25.734375 
Q 3.90625 34.125 6.6875 40.421875 
Q 9.46875 46.734375 15.15625 49.875 
Q 20.84375 53.03125 27.546875 53.03125 
Q 35.984375 53.03125 41.359375 48.75 
Q 46.734375 44.484375 48.25 36.625 
L 39.703125 35.296875 
Q 38.484375 40.53125 35.375 43.15625 
Q 32.28125 45.796875 27.875 45.796875 
Q 21.234375 45.796875 17.078125 41.03125 
Q 12.9375 36.28125 12.9375 25.984375 
Q 12.9375 15.53125 16.9375 10.796875 
Q 20.953125 6.0625 27.390625 6.0625 
Q 32.5625 6.0625 36.03125 9.234375 
Q 39.5 12.40625 40.4375 19 
z
" id="ArialMT-99"/>
        <path d="M 6.59375 0 
L 6.59375 71.578125 
L 15.375 71.578125 
L 15.375 45.90625 
Q 21.53125 53.03125 30.90625 53.03125 
Q 36.671875 53.03125 40.921875 50.75 
Q 45.171875 48.484375 47 44.484375 
Q 48.828125 40.484375 48.828125 32.859375 
L 48.828125 0 
L 40.046875 0 
L 40.046875 32.859375 
Q 40.046875 39.453125 37.1875 42.453125 
Q 34.328125 45.453125 29.109375 45.453125 
Q 25.203125 45.453125 21.75 43.421875 
Q 18.3125 41.40625 16.84375 37.9375 
Q 15.375 34.46875 15.375 28.375 
L 15.375 0 
z
" id="ArialMT-104"/>
        <path d="M 40.578125 0 
L 40.578125 7.625 
Q 34.515625 -1.171875 24.125 -1.171875 
Q 19.53125 -1.171875 15.546875 0.578125 
Q 11.578125 2.34375 9.640625 5 
Q 7.71875 7.671875 6.9375 11.53125 
Q 6.390625 14.109375 6.390625 19.734375 
L 6.390625 51.859375 
L 15.1875 51.859375 
L 15.1875 23.09375 
Q 15.1875 16.21875 15.71875 13.8125 
Q 16.546875 10.359375 19.234375 8.375 
Q 21.921875 6.390625 25.875 6.390625 
Q 29.828125 6.390625 33.296875 8.421875 
Q 36.765625 10.453125 38.203125 13.9375 
Q 39.65625 17.4375 39.65625 24.078125 
L 39.65625 51.859375 
L 48.4375 51.859375 
L 48.4375 0 
z
" id="ArialMT-117"/>
        <path d="M 6.5 0 
L 6.5 51.859375 
L 14.40625 51.859375 
L 14.40625 44 
Q 17.4375 49.515625 20 51.265625 
Q 22.5625 53.03125 25.640625 53.03125 
Q 30.078125 53.03125 34.671875 50.203125 
L 31.640625 42.046875 
Q 28.421875 43.953125 25.203125 43.953125 
Q 22.3125 43.953125 20.015625 42.21875 
Q 17.71875 40.484375 16.75 37.40625 
Q 15.28125 32.71875 15.28125 27.15625 
L 15.28125 0 
z
" id="ArialMT-114"/>
        <path d="M 6.59375 0 
L 6.59375 51.859375 
L 14.5 51.859375 
L 14.5 44.484375 
Q 20.21875 53.03125 31 53.03125 
Q 35.6875 53.03125 39.625 51.34375 
Q 43.5625 49.65625 45.515625 46.921875 
Q 47.46875 44.1875 48.25 40.4375 
Q 48.734375 37.984375 48.734375 31.890625 
L 48.734375 0 
L 39.9375 0 
L 39.9375 31.546875 
Q 39.9375 36.921875 38.90625 39.578125 
Q 37.890625 42.234375 35.28125 43.8125 
Q 32.671875 45.40625 29.15625 45.40625 
Q 23.53125 45.40625 19.453125 41.84375 
Q 15.375 38.28125 15.375 28.328125 
L 15.375 0 
z
" id="ArialMT-110"/>
        <path d="M 42.09375 16.703125 
L 51.171875 15.578125 
Q 49.03125 7.625 43.21875 3.21875 
Q 37.40625 -1.171875 28.375 -1.171875 
Q 17 -1.171875 10.328125 5.828125 
Q 3.65625 12.84375 3.65625 25.484375 
Q 3.65625 38.578125 10.390625 45.796875 
Q 17.140625 53.03125 27.875 53.03125 
Q 38.28125 53.03125 44.875 45.953125 
Q 51.46875 38.875 51.46875 26.03125 
Q 51.46875 25.25 51.421875 23.6875 
L 12.75 23.6875 
Q 13.234375 15.140625 17.578125 10.59375 
Q 21.921875 6.0625 28.421875 6.0625 
Q 33.25 6.0625 36.671875 8.59375 
Q 40.09375 11.140625 42.09375 16.703125 
z
M 13.234375 30.90625 
L 42.1875 30.90625 
Q 41.609375 37.453125 38.875 40.71875 
Q 34.671875 45.796875 27.984375 45.796875 
Q 21.921875 45.796875 17.796875 41.75 
Q 13.671875 37.703125 13.234375 30.90625 
z
" id="ArialMT-101"/>
        <path d="M 40.234375 0 
L 40.234375 6.546875 
Q 35.296875 -1.171875 25.734375 -1.171875 
Q 19.53125 -1.171875 14.328125 2.25 
Q 9.125 5.671875 6.265625 11.796875 
Q 3.421875 17.921875 3.421875 25.875 
Q 3.421875 33.640625 6 39.96875 
Q 8.59375 46.296875 13.765625 49.65625 
Q 18.953125 53.03125 25.34375 53.03125 
Q 30.03125 53.03125 33.6875 51.046875 
Q 37.359375 49.078125 39.65625 45.90625 
L 39.65625 71.578125 
L 48.390625 71.578125 
L 48.390625 0 
z
M 12.453125 25.875 
Q 12.453125 15.921875 16.640625 10.984375 
Q 20.84375 6.0625 26.5625 6.0625 
Q 32.328125 6.0625 36.34375 10.765625 
Q 40.375 15.484375 40.375 25.140625 
Q 40.375 35.796875 36.265625 40.765625 
Q 32.171875 45.75 26.171875 45.75 
Q 20.3125 45.75 16.375 40.96875 
Q 12.453125 36.1875 12.453125 25.875 
z
" id="ArialMT-100"/>
       </defs>
       <use xlink:href="#ArialMT-78"/>
       <use x="72.216797" xlink:href="#ArialMT-111"/>
       <use x="127.832031" xlink:href="#ArialMT-116"/>
       <use x="155.615234" xlink:href="#ArialMT-32"/>
       <use x="183.398438" xlink:href="#ArialMT-99"/>
       <use x="233.398438" xlink:href="#ArialMT-104"/>
       <use x="289.013672" xlink:href="#ArialMT-117"/>
       <use x="344.628906" xlink:href="#ArialMT-114"/>
       <use x="377.929688" xlink:href="#ArialMT-110"/>
       <use x="433.544922" xlink:href="#ArialMT-101"/>
       <use x="489.160156" xlink:href="#ArialMT-100"/>
      </g>
     </g>
    </g>
    <g id="xtick_2">
     <g id="line2d_2">
      <path clip-path="url(#pd5c2324c31)" d="M 376.663636 378 
L 376.663636 51.84 
" style="fill:none;stroke:#ffffff;stroke-linecap:round;"/>
     </g>
     <g id="text_2">
      <!-- Churned -->
      <g style="fill:#262626;" transform="translate(355.567699 395.373594)scale(0.11 -0.11)">
       <defs>
        <path d="M 58.796875 25.09375 
L 68.265625 22.703125 
Q 65.28125 11.03125 57.546875 4.90625 
Q 49.8125 -1.21875 38.625 -1.21875 
Q 27.046875 -1.21875 19.796875 3.484375 
Q 12.546875 8.203125 8.765625 17.140625 
Q 4.984375 26.078125 4.984375 36.328125 
Q 4.984375 47.515625 9.25 55.828125 
Q 13.53125 64.15625 21.40625 68.46875 
Q 29.296875 72.796875 38.765625 72.796875 
Q 49.515625 72.796875 56.828125 67.328125 
Q 64.15625 61.859375 67.046875 51.953125 
L 57.71875 49.75 
Q 55.21875 57.5625 50.484375 61.125 
Q 45.75 64.703125 38.578125 64.703125 
Q 30.328125 64.703125 24.78125 60.734375 
Q 19.234375 56.78125 16.984375 50.109375 
Q 14.75 43.453125 14.75 36.375 
Q 14.75 27.25 17.40625 20.4375 
Q 20.0625 13.625 25.671875 10.25 
Q 31.296875 6.890625 37.84375 6.890625 
Q 45.796875 6.890625 51.3125 11.46875 
Q 56.84375 16.0625 58.796875 25.09375 
z
" id="ArialMT-67"/>
       </defs>
       <use xlink:href="#ArialMT-67"/>
       <use x="72.216797" xlink:href="#ArialMT-104"/>
       <use x="127.832031" xlink:href="#ArialMT-117"/>
       <use x="183.447266" xlink:href="#ArialMT-114"/>
       <use x="216.748047" xlink:href="#ArialMT-110"/>
       <use x="272.363281" xlink:href="#ArialMT-101"/>
       <use x="327.978516" xlink:href="#ArialMT-100"/>
      </g>
     </g>
    </g>
    <g id="text_3">
     <!-- Churn -->
     <g style="fill:#262626;" transform="translate(240.6375 416.149219)scale(0.12 -0.12)">
      <defs>
       <path d="M 53.078125 26.3125 
L 67.09375 21.875 
Q 63.875 10.15625 56.375 4.46875 
Q 48.875 -1.21875 37.359375 -1.21875 
Q 23.09375 -1.21875 13.90625 8.515625 
Q 4.734375 18.265625 4.734375 35.15625 
Q 4.734375 53.03125 13.953125 62.90625 
Q 23.1875 72.796875 38.234375 72.796875 
Q 51.375 72.796875 59.578125 65.046875 
Q 64.453125 60.453125 66.890625 51.859375 
L 52.59375 48.4375 
Q 51.3125 54 47.28125 57.21875 
Q 43.265625 60.453125 37.5 60.453125 
Q 29.546875 60.453125 24.578125 54.734375 
Q 19.625 49.03125 19.625 36.234375 
Q 19.625 22.65625 24.5 16.890625 
Q 29.390625 11.140625 37.203125 11.140625 
Q 42.96875 11.140625 47.109375 14.796875 
Q 51.265625 18.453125 53.078125 26.3125 
z
" id="Arial-BoldMT-67"/>
       <path d="M 20.84375 71.578125 
L 20.84375 45.265625 
Q 27.484375 53.03125 36.71875 53.03125 
Q 41.453125 53.03125 45.265625 51.265625 
Q 49.078125 49.515625 51 46.78125 
Q 52.9375 44.046875 53.640625 40.71875 
Q 54.34375 37.40625 54.34375 30.421875 
L 54.34375 0 
L 40.625 0 
L 40.625 27.390625 
Q 40.625 35.546875 39.84375 37.734375 
Q 39.0625 39.9375 37.078125 41.234375 
Q 35.109375 42.53125 32.125 42.53125 
Q 28.71875 42.53125 26.03125 40.859375 
Q 23.34375 39.203125 22.09375 35.859375 
Q 20.84375 32.515625 20.84375 25.984375 
L 20.84375 0 
L 7.125 0 
L 7.125 71.578125 
z
" id="Arial-BoldMT-104"/>
       <path d="M 41.3125 0 
L 41.3125 7.765625 
Q 38.484375 3.609375 33.859375 1.21875 
Q 29.25 -1.171875 24.125 -1.171875 
Q 18.890625 -1.171875 14.734375 1.125 
Q 10.59375 3.421875 8.734375 7.5625 
Q 6.890625 11.71875 6.890625 19.046875 
L 6.890625 51.859375 
L 20.609375 51.859375 
L 20.609375 28.03125 
Q 20.609375 17.09375 21.359375 14.625 
Q 22.125 12.15625 24.125 10.71875 
Q 26.125 9.28125 29.203125 9.28125 
Q 32.71875 9.28125 35.5 11.203125 
Q 38.28125 13.140625 39.296875 15.984375 
Q 40.328125 18.84375 40.328125 29.984375 
L 40.328125 51.859375 
L 54.046875 51.859375 
L 54.046875 0 
z
" id="Arial-BoldMT-117"/>
       <path d="M 20.3125 0 
L 6.59375 0 
L 6.59375 51.859375 
L 19.34375 51.859375 
L 19.34375 44.484375 
Q 22.609375 49.703125 25.21875 51.359375 
Q 27.828125 53.03125 31.15625 53.03125 
Q 35.84375 53.03125 40.1875 50.4375 
L 35.9375 38.484375 
Q 32.46875 40.71875 29.5 40.71875 
Q 26.609375 40.71875 24.609375 39.125 
Q 22.609375 37.546875 21.453125 33.390625 
Q 20.3125 29.25 20.3125 16.015625 
z
" id="Arial-BoldMT-114"/>
       <path d="M 54.34375 0 
L 40.625 0 
L 40.625 26.46875 
Q 40.625 34.859375 39.75 37.328125 
Q 38.875 39.796875 36.890625 41.15625 
Q 34.90625 42.53125 32.125 42.53125 
Q 28.5625 42.53125 25.734375 40.578125 
Q 22.90625 38.625 21.84375 35.390625 
Q 20.796875 32.171875 20.796875 23.484375 
L 20.796875 0 
L 7.078125 0 
L 7.078125 51.859375 
L 19.828125 51.859375 
L 19.828125 44.234375 
Q 26.609375 53.03125 36.921875 53.03125 
Q 41.453125 53.03125 45.203125 51.390625 
Q 48.96875 49.75 50.890625 47.203125 
Q 52.828125 44.671875 53.578125 41.453125 
Q 54.34375 38.234375 54.34375 32.234375 
z
" id="Arial-BoldMT-110"/>
      </defs>
      <use xlink:href="#Arial-BoldMT-67"/>
      <use x="72.216797" xlink:href="#Arial-BoldMT-104"/>
      <use x="133.300781" xlink:href="#Arial-BoldMT-117"/>
      <use x="194.384766" xlink:href="#Arial-BoldMT-114"/>
      <use x="233.300781" xlink:href="#Arial-BoldMT-110"/>
     </g>
    </g>
   </g>
   <g id="matplotlib.axis_2">
    <g id="ytick_1">
     <g id="line2d_3">
      <path clip-path="url(#pd5c2324c31)" d="M 63 367.35073 
L 453.6 367.35073 
" style="fill:none;stroke:#ffffff;stroke-linecap:round;"/>
     </g>
     <g id="text_4">
      <!-- 0 -->
      <g style="fill:#262626;" transform="translate(47.382969 371.287527)scale(0.11 -0.11)">
       <defs>
        <path d="M 4.15625 35.296875 
Q 4.15625 48 6.765625 55.734375 
Q 9.375 63.484375 14.515625 67.671875 
Q 19.671875 71.875 27.484375 71.875 
Q 33.25 71.875 37.59375 69.546875 
Q 41.9375 67.234375 44.765625 62.859375 
Q 47.609375 58.5 49.21875 52.21875 
Q 50.828125 45.953125 50.828125 35.296875 
Q 50.828125 22.703125 48.234375 14.96875 
Q 45.65625 7.234375 40.5 3 
Q 35.359375 -1.21875 27.484375 -1.21875 
Q 17.140625 -1.21875 11.234375 6.203125 
Q 4.15625 15.140625 4.15625 35.296875 
z
M 13.1875 35.296875 
Q 13.1875 17.671875 17.3125 11.828125 
Q 21.4375 6 27.484375 6 
Q 33.546875 6 37.671875 11.859375 
Q 41.796875 17.71875 41.796875 35.296875 
Q 41.796875 52.984375 37.671875 58.78125 
Q 33.546875 64.59375 27.390625 64.59375 
Q 21.34375 64.59375 17.71875 59.46875 
Q 13.1875 52.9375 13.1875 35.296875 
z
" id="ArialMT-48"/>
       </defs>
       <use xlink:href="#ArialMT-48"/>
      </g>
     </g>
    </g>
    <g id="ytick_2">
     <g id="line2d_4">
      <path clip-path="url(#pd5c2324c31)" d="M 63 325.588886 
L 453.6 325.588886 
" style="fill:none;stroke:#ffffff;stroke-linecap:round;"/>
     </g>
     <g id="text_5">
      <!-- 10 -->
      <g style="fill:#262626;" transform="translate(41.265937 329.525683)scale(0.11 -0.11)">
       <defs>
        <path d="M 37.25 0 
L 28.46875 0 
L 28.46875 56 
Q 25.296875 52.984375 20.140625 49.953125 
Q 14.984375 46.921875 10.890625 45.40625 
L 10.890625 53.90625 
Q 18.265625 57.375 23.78125 62.296875 
Q 29.296875 67.234375 31.59375 71.875 
L 37.25 71.875 
z
" id="ArialMT-49"/>
       </defs>
       <use xlink:href="#ArialMT-49"/>
       <use x="55.615234" xlink:href="#ArialMT-48"/>
      </g>
     </g>
    </g>
    <g id="ytick_3">
     <g id="line2d_5">
      <path clip-path="url(#pd5c2324c31)" d="M 63 283.827042 
L 453.6 283.827042 
" style="fill:none;stroke:#ffffff;stroke-linecap:round;"/>
     </g>
     <g id="text_6">
      <!-- 20 -->
      <g style="fill:#262626;" transform="translate(41.265937 287.763839)scale(0.11 -0.11)">
       <defs>
        <path d="M 50.34375 8.453125 
L 50.34375 0 
L 3.03125 0 
Q 2.9375 3.171875 4.046875 6.109375 
Q 5.859375 10.9375 9.828125 15.625 
Q 13.8125 20.3125 21.34375 26.46875 
Q 33.015625 36.03125 37.109375 41.625 
Q 41.21875 47.21875 41.21875 52.203125 
Q 41.21875 57.421875 37.46875 61 
Q 33.734375 64.59375 27.734375 64.59375 
Q 21.390625 64.59375 17.578125 60.78125 
Q 13.765625 56.984375 13.71875 50.25 
L 4.6875 51.171875 
Q 5.609375 61.28125 11.65625 66.578125 
Q 17.71875 71.875 27.9375 71.875 
Q 38.234375 71.875 44.234375 66.15625 
Q 50.25 60.453125 50.25 52 
Q 50.25 47.703125 48.484375 43.546875 
Q 46.734375 39.40625 42.65625 34.8125 
Q 38.578125 30.21875 29.109375 22.21875 
Q 21.1875 15.578125 18.9375 13.203125 
Q 16.703125 10.84375 15.234375 8.453125 
z
" id="ArialMT-50"/>
       </defs>
       <use xlink:href="#ArialMT-50"/>
       <use x="55.615234" xlink:href="#ArialMT-48"/>
      </g>
     </g>
    </g>
    <g id="ytick_4">
     <g id="line2d_6">
      <path clip-path="url(#pd5c2324c31)" d="M 63 242.065198 
L 453.6 242.065198 
" style="fill:none;stroke:#ffffff;stroke-linecap:round;"/>
     </g>
     <g id="text_7">
      <!-- 30 -->
      <g style="fill:#262626;" transform="translate(41.265937 246.001995)scale(0.11 -0.11)">
       <defs>
        <path d="M 4.203125 18.890625 
L 12.984375 20.0625 
Q 14.5 12.59375 18.140625 9.296875 
Q 21.78125 6 27 6 
Q 33.203125 6 37.46875 10.296875 
Q 41.75 14.59375 41.75 20.953125 
Q 41.75 27 37.796875 30.921875 
Q 33.84375 34.859375 27.734375 34.859375 
Q 25.25 34.859375 21.53125 33.890625 
L 22.515625 41.609375 
Q 23.390625 41.5 23.921875 41.5 
Q 29.546875 41.5 34.03125 44.421875 
Q 38.53125 47.359375 38.53125 53.46875 
Q 38.53125 58.296875 35.25 61.46875 
Q 31.984375 64.65625 26.8125 64.65625 
Q 21.6875 64.65625 18.265625 61.421875 
Q 14.84375 58.203125 13.875 51.765625 
L 5.078125 53.328125 
Q 6.6875 62.15625 12.390625 67.015625 
Q 18.109375 71.875 26.609375 71.875 
Q 32.46875 71.875 37.390625 69.359375 
Q 42.328125 66.84375 44.9375 62.5 
Q 47.5625 58.15625 47.5625 53.265625 
Q 47.5625 48.640625 45.0625 44.828125 
Q 42.578125 41.015625 37.703125 38.765625 
Q 44.046875 37.3125 47.5625 32.6875 
Q 51.078125 28.078125 51.078125 21.140625 
Q 51.078125 11.765625 44.234375 5.25 
Q 37.40625 -1.265625 26.953125 -1.265625 
Q 17.53125 -1.265625 11.296875 4.34375 
Q 5.078125 9.96875 4.203125 18.890625 
z
" id="ArialMT-51"/>
       </defs>
       <use xlink:href="#ArialMT-51"/>
       <use x="55.615234" xlink:href="#ArialMT-48"/>
      </g>
     </g>
    </g>
    <g id="ytick_5">
     <g id="line2d_7">
      <path clip-path="url(#pd5c2324c31)" d="M 63 200.303355 
L 453.6 200.303355 
" style="fill:none;stroke:#ffffff;stroke-linecap:round;"/>
     </g>
     <g id="text_8">
      <!-- 40 -->
      <g style="fill:#262626;" transform="translate(41.265937 204.240152)scale(0.11 -0.11)">
       <defs>
        <path d="M 32.328125 0 
L 32.328125 17.140625 
L 1.265625 17.140625 
L 1.265625 25.203125 
L 33.9375 71.578125 
L 41.109375 71.578125 
L 41.109375 25.203125 
L 50.78125 25.203125 
L 50.78125 17.140625 
L 41.109375 17.140625 
L 41.109375 0 
z
M 32.328125 25.203125 
L 32.328125 57.46875 
L 9.90625 25.203125 
z
" id="ArialMT-52"/>
       </defs>
       <use xlink:href="#ArialMT-52"/>
       <use x="55.615234" xlink:href="#ArialMT-48"/>
      </g>
     </g>
    </g>
    <g id="ytick_6">
     <g id="line2d_8">
      <path clip-path="url(#pd5c2324c31)" d="M 63 158.541511 
L 453.6 158.541511 
" style="fill:none;stroke:#ffffff;stroke-linecap:round;"/>
     </g>
     <g id="text_9">
      <!-- 50 -->
      <g style="fill:#262626;" transform="translate(41.265937 162.478308)scale(0.11 -0.11)">
       <defs>
        <path d="M 4.15625 18.75 
L 13.375 19.53125 
Q 14.40625 12.796875 18.140625 9.390625 
Q 21.875 6 27.15625 6 
Q 33.5 6 37.890625 10.78125 
Q 42.28125 15.578125 42.28125 23.484375 
Q 42.28125 31 38.0625 35.34375 
Q 33.84375 39.703125 27 39.703125 
Q 22.75 39.703125 19.328125 37.765625 
Q 15.921875 35.84375 13.96875 32.765625 
L 5.71875 33.84375 
L 12.640625 70.609375 
L 48.25 70.609375 
L 48.25 62.203125 
L 19.671875 62.203125 
L 15.828125 42.96875 
Q 22.265625 47.46875 29.34375 47.46875 
Q 38.71875 47.46875 45.15625 40.96875 
Q 51.609375 34.46875 51.609375 24.265625 
Q 51.609375 14.546875 45.953125 7.46875 
Q 39.0625 -1.21875 27.15625 -1.21875 
Q 17.390625 -1.21875 11.203125 4.25 
Q 5.03125 9.71875 4.15625 18.75 
z
" id="ArialMT-53"/>
       </defs>
       <use xlink:href="#ArialMT-53"/>
       <use x="55.615234" xlink:href="#ArialMT-48"/>
      </g>
     </g>
    </g>
    <g id="ytick_7">
     <g id="line2d_9">
      <path clip-path="url(#pd5c2324c31)" d="M 63 116.779667 
L 453.6 116.779667 
" style="fill:none;stroke:#ffffff;stroke-linecap:round;"/>
     </g>
     <g id="text_10">
      <!-- 60 -->
      <g style="fill:#262626;" transform="translate(41.265937 120.716464)scale(0.11 -0.11)">
       <defs>
        <path d="M 49.75 54.046875 
L 41.015625 53.375 
Q 39.84375 58.546875 37.703125 60.890625 
Q 34.125 64.65625 28.90625 64.65625 
Q 24.703125 64.65625 21.53125 62.3125 
Q 17.390625 59.28125 14.984375 53.46875 
Q 12.59375 47.65625 12.5 36.921875 
Q 15.671875 41.75 20.265625 44.09375 
Q 24.859375 46.4375 29.890625 46.4375 
Q 38.671875 46.4375 44.84375 39.96875 
Q 51.03125 33.5 51.03125 23.25 
Q 51.03125 16.5 48.125 10.71875 
Q 45.21875 4.9375 40.140625 1.859375 
Q 35.0625 -1.21875 28.609375 -1.21875 
Q 17.625 -1.21875 10.6875 6.859375 
Q 3.765625 14.9375 3.765625 33.5 
Q 3.765625 54.25 11.421875 63.671875 
Q 18.109375 71.875 29.4375 71.875 
Q 37.890625 71.875 43.28125 67.140625 
Q 48.6875 62.40625 49.75 54.046875 
z
M 13.875 23.1875 
Q 13.875 18.65625 15.796875 14.5 
Q 17.71875 10.359375 21.1875 8.171875 
Q 24.65625 6 28.46875 6 
Q 34.03125 6 38.03125 10.484375 
Q 42.046875 14.984375 42.046875 22.703125 
Q 42.046875 30.125 38.078125 34.390625 
Q 34.125 38.671875 28.125 38.671875 
Q 22.171875 38.671875 18.015625 34.390625 
Q 13.875 30.125 13.875 23.1875 
z
" id="ArialMT-54"/>
       </defs>
       <use xlink:href="#ArialMT-54"/>
       <use x="55.615234" xlink:href="#ArialMT-48"/>
      </g>
     </g>
    </g>
    <g id="ytick_8">
     <g id="line2d_10">
      <path clip-path="url(#pd5c2324c31)" d="M 63 75.017823 
L 453.6 75.017823 
" style="fill:none;stroke:#ffffff;stroke-linecap:round;"/>
     </g>
     <g id="text_11">
      <!-- 70 -->
      <g style="fill:#262626;" transform="translate(41.265937 78.95462)scale(0.11 -0.11)">
       <defs>
        <path d="M 4.734375 62.203125 
L 4.734375 70.65625 
L 51.078125 70.65625 
L 51.078125 63.8125 
Q 44.234375 56.546875 37.515625 44.484375 
Q 30.8125 32.421875 27.15625 19.671875 
Q 24.515625 10.6875 23.78125 0 
L 14.75 0 
Q 14.890625 8.453125 18.0625 20.40625 
Q 21.234375 32.375 27.171875 43.484375 
Q 33.109375 54.59375 39.796875 62.203125 
z
" id="ArialMT-55"/>
       </defs>
       <use xlink:href="#ArialMT-55"/>
       <use x="55.615234" xlink:href="#ArialMT-48"/>
      </g>
     </g>
    </g>
    <g id="text_12">
     <!-- Tenure (months) -->
     <g style="fill:#262626;" transform="translate(28.740312 261.80625)rotate(-90)scale(0.12 -0.12)">
      <defs>
       <path d="M 23.390625 0 
L 23.390625 59.46875 
L 2.15625 59.46875 
L 2.15625 71.578125 
L 59.03125 71.578125 
L 59.03125 59.46875 
L 37.84375 59.46875 
L 37.84375 0 
z
" id="Arial-BoldMT-84"/>
       <path d="M 37.203125 16.5 
L 50.875 14.203125 
Q 48.25 6.6875 42.546875 2.75 
Q 36.859375 -1.171875 28.328125 -1.171875 
Q 14.796875 -1.171875 8.296875 7.671875 
Q 3.171875 14.75 3.171875 25.53125 
Q 3.171875 38.421875 9.90625 45.71875 
Q 16.65625 53.03125 26.953125 53.03125 
Q 38.53125 53.03125 45.21875 45.390625 
Q 51.90625 37.75 51.609375 21.96875 
L 17.234375 21.96875 
Q 17.390625 15.875 20.5625 12.46875 
Q 23.734375 9.078125 28.46875 9.078125 
Q 31.6875 9.078125 33.875 10.828125 
Q 36.078125 12.59375 37.203125 16.5 
z
M 37.984375 30.375 
Q 37.84375 36.328125 34.90625 39.421875 
Q 31.984375 42.53125 27.78125 42.53125 
Q 23.296875 42.53125 20.359375 39.265625 
Q 17.4375 35.984375 17.484375 30.375 
z
" id="Arial-BoldMT-101"/>
       <path id="Arial-BoldMT-32"/>
       <path d="M 29.9375 -21.046875 
L 20.515625 -21.046875 
Q 13.03125 -9.765625 9.125 2.390625 
Q 5.21875 14.546875 5.21875 25.921875 
Q 5.21875 40.046875 10.0625 52.640625 
Q 14.265625 63.578125 20.703125 72.796875 
L 30.078125 72.796875 
Q 23.390625 58.015625 20.875 47.625 
Q 18.359375 37.25 18.359375 25.640625 
Q 18.359375 17.625 19.84375 9.21875 
Q 21.34375 0.828125 23.921875 -6.734375 
Q 25.640625 -11.71875 29.9375 -21.046875 
z
" id="Arial-BoldMT-40"/>
       <path d="M 6.15625 51.859375 
L 18.796875 51.859375 
L 18.796875 44.78125 
Q 25.59375 53.03125 34.96875 53.03125 
Q 39.9375 53.03125 43.59375 50.96875 
Q 47.265625 48.921875 49.609375 44.78125 
Q 53.03125 48.921875 56.984375 50.96875 
Q 60.9375 53.03125 65.4375 53.03125 
Q 71.140625 53.03125 75.09375 50.703125 
Q 79.046875 48.390625 81 43.890625 
Q 82.421875 40.578125 82.421875 33.15625 
L 82.421875 0 
L 68.703125 0 
L 68.703125 29.640625 
Q 68.703125 37.359375 67.28125 39.59375 
Q 65.375 42.53125 61.421875 42.53125 
Q 58.546875 42.53125 56 40.765625 
Q 53.46875 39.015625 52.34375 35.625 
Q 51.21875 32.234375 51.21875 24.90625 
L 51.21875 0 
L 37.5 0 
L 37.5 28.421875 
Q 37.5 35.984375 36.765625 38.171875 
Q 36.03125 40.375 34.484375 41.453125 
Q 32.953125 42.53125 30.328125 42.53125 
Q 27.15625 42.53125 24.609375 40.8125 
Q 22.078125 39.109375 20.96875 35.890625 
Q 19.875 32.671875 19.875 25.203125 
L 19.875 0 
L 6.15625 0 
z
" id="Arial-BoldMT-109"/>
       <path d="M 4 26.65625 
Q 4 33.5 7.375 39.890625 
Q 10.75 46.296875 16.921875 49.65625 
Q 23.09375 53.03125 30.71875 53.03125 
Q 42.484375 53.03125 50 45.390625 
Q 57.515625 37.75 57.515625 26.078125 
Q 57.515625 14.3125 49.921875 6.5625 
Q 42.328125 -1.171875 30.8125 -1.171875 
Q 23.6875 -1.171875 17.21875 2.046875 
Q 10.75 5.28125 7.375 11.5 
Q 4 17.71875 4 26.65625 
z
M 18.0625 25.921875 
Q 18.0625 18.21875 21.71875 14.109375 
Q 25.390625 10.015625 30.765625 10.015625 
Q 36.140625 10.015625 39.765625 14.109375 
Q 43.40625 18.21875 43.40625 26.03125 
Q 43.40625 33.640625 39.765625 37.734375 
Q 36.140625 41.84375 30.765625 41.84375 
Q 25.390625 41.84375 21.71875 37.734375 
Q 18.0625 33.640625 18.0625 25.921875 
z
" id="Arial-BoldMT-111"/>
       <path d="M 30.953125 51.859375 
L 30.953125 40.921875 
L 21.578125 40.921875 
L 21.578125 20.015625 
Q 21.578125 13.671875 21.84375 12.625 
Q 22.125 11.578125 23.078125 10.890625 
Q 24.03125 10.203125 25.390625 10.203125 
Q 27.296875 10.203125 30.90625 11.53125 
L 32.078125 0.875 
Q 27.296875 -1.171875 21.234375 -1.171875 
Q 17.53125 -1.171875 14.546875 0.0625 
Q 11.578125 1.3125 10.1875 3.296875 
Q 8.796875 5.28125 8.25 8.640625 
Q 7.8125 11.03125 7.8125 18.3125 
L 7.8125 40.921875 
L 1.515625 40.921875 
L 1.515625 51.859375 
L 7.8125 51.859375 
L 7.8125 62.15625 
L 21.578125 70.171875 
L 21.578125 51.859375 
z
" id="Arial-BoldMT-116"/>
       <path d="M 2.34375 14.796875 
L 16.109375 16.890625 
Q 17 12.890625 19.671875 10.8125 
Q 22.359375 8.734375 27.203125 8.734375 
Q 32.515625 8.734375 35.203125 10.6875 
Q 37.015625 12.0625 37.015625 14.359375 
Q 37.015625 15.921875 36.03125 16.9375 
Q 35.015625 17.921875 31.453125 18.75 
Q 14.84375 22.40625 10.40625 25.4375 
Q 4.25 29.640625 4.25 37.109375 
Q 4.25 43.84375 9.5625 48.4375 
Q 14.890625 53.03125 26.078125 53.03125 
Q 36.71875 53.03125 41.890625 49.5625 
Q 47.078125 46.09375 49.03125 39.3125 
L 36.078125 36.921875 
Q 35.25 39.9375 32.921875 41.546875 
Q 30.609375 43.171875 26.3125 43.171875 
Q 20.90625 43.171875 18.5625 41.65625 
Q 17 40.578125 17 38.875 
Q 17 37.40625 18.359375 36.375 
Q 20.21875 35.015625 31.171875 32.515625 
Q 42.140625 30.03125 46.484375 26.421875 
Q 50.78125 22.75 50.78125 16.21875 
Q 50.78125 9.078125 44.828125 3.953125 
Q 38.875 -1.171875 27.203125 -1.171875 
Q 16.609375 -1.171875 10.421875 3.125 
Q 4.25 7.421875 2.34375 14.796875 
z
" id="Arial-BoldMT-115"/>
       <path d="M 3.375 -21.046875 
Q 7.421875 -12.359375 9.078125 -7.71875 
Q 10.75 -3.078125 12.15625 2.96875 
Q 13.578125 9.03125 14.25 14.46875 
Q 14.9375 19.921875 14.9375 25.640625 
Q 14.9375 37.25 12.453125 47.625 
Q 9.96875 58.015625 3.265625 72.796875 
L 12.59375 72.796875 
Q 19.96875 62.3125 24.046875 50.53125 
Q 28.125 38.765625 28.125 26.65625 
Q 28.125 16.453125 24.90625 4.78125 
Q 21.234375 -8.296875 12.84375 -21.046875 
z
" id="Arial-BoldMT-41"/>
      </defs>
      <use xlink:href="#Arial-BoldMT-84"/>
      <use x="53.708984" xlink:href="#Arial-BoldMT-101"/>
      <use x="109.324219" xlink:href="#Arial-BoldMT-110"/>
      <use x="170.408203" xlink:href="#Arial-BoldMT-117"/>
      <use x="231.492188" xlink:href="#Arial-BoldMT-114"/>
      <use x="270.408203" xlink:href="#Arial-BoldMT-101"/>
      <use x="326.023438" xlink:href="#Arial-BoldMT-32"/>
      <use x="353.806641" xlink:href="#Arial-BoldMT-40"/>
      <use x="387.107422" xlink:href="#Arial-BoldMT-109"/>
      <use x="476.023438" xlink:href="#Arial-BoldMT-111"/>
      <use x="537.107422" xlink:href="#Arial-BoldMT-110"/>
      <use x="598.191406" xlink:href="#Arial-BoldMT-116"/>
      <use x="631.492188" xlink:href="#Arial-BoldMT-104"/>
      <use x="692.576172" xlink:href="#Arial-BoldMT-115"/>
      <use x="748.191406" xlink:href="#Arial-BoldMT-41"/>
     </g>
    </g>
   </g>
   <g id="PolyCollection_1">
    <defs>
     <path d="M 180.06482 -68.825455 
L 99.807908 -68.825455 
L 96.627876 -71.820496 
L 93.960861 -74.815537 
L 91.860341 -77.810579 
L 90.340132 -80.80562 
L 89.3772 -83.800661 
L 88.918495 -86.795702 
L 88.890337 -89.790744 
L 89.20866 -92.785785 
L 89.788475 -95.780826 
L 90.551336 -98.775868 
L 91.430144 -101.770909 
L 92.371218 -104.76595 
L 93.33404 -107.760992 
L 94.289413 -110.756033 
L 95.216807 -113.751074 
L 96.101646 -116.746116 
L 96.933031 -119.741157 
L 97.702205 -122.736198 
L 98.401788 -125.73124 
L 99.025687 -128.726281 
L 99.569482 -131.721322 
L 100.031052 -134.716364 
L 100.411245 -137.711405 
L 100.714404 -140.706446 
L 100.948633 -143.701488 
L 101.125701 -146.696529 
L 101.260537 -149.69157 
L 101.370299 -152.686612 
L 101.473084 -155.681653 
L 101.586384 -158.676694 
L 101.72548 -161.671736 
L 101.901979 -164.666777 
L 102.12274 -167.661818 
L 102.389359 -170.65686 
L 102.698321 -173.651901 
L 103.041796 -176.646942 
L 103.40897 -179.641983 
L 103.78767 -182.637025 
L 104.166018 -185.632066 
L 104.533853 -188.627107 
L 104.883672 -191.622149 
L 105.211008 -194.61719 
L 105.514192 -197.612231 
L 105.793626 -200.607273 
L 106.050746 -203.602314 
L 106.286909 -206.597355 
L 106.50243 -209.592397 
L 106.695968 -212.587438 
L 106.864348 -215.582479 
L 107.002827 -218.577521 
L 107.105724 -221.572562 
L 107.167249 -224.567603 
L 107.182367 -227.562645 
L 107.147518 -230.557686 
L 107.061104 -233.552727 
L 106.923659 -236.547769 
L 106.737753 -239.54281 
L 106.507682 -242.537851 
L 106.239038 -245.532893 
L 105.938255 -248.527934 
L 105.612218 -251.522975 
L 105.267948 -254.518017 
L 104.912395 -257.513058 
L 104.552283 -260.508099 
L 104.19398 -263.50314 
L 103.843322 -266.498182 
L 103.50537 -269.493223 
L 103.184059 -272.488264 
L 102.88178 -275.483306 
L 102.598937 -278.478347 
L 102.33354 -281.473388 
L 102.080925 -284.46843 
L 101.833659 -287.463471 
L 101.58166 -290.458512 
L 101.312527 -293.453554 
L 101.012008 -296.448595 
L 100.664541 -299.443636 
L 100.253749 -302.438678 
L 99.762837 -305.433719 
L 99.174866 -308.42876 
L 98.472977 -311.423802 
L 97.64073 -314.418843 
L 96.662807 -317.413884 
L 95.526364 -320.408926 
L 94.223286 -323.403967 
L 92.75348 -326.399008 
L 91.129086 -329.39405 
L 89.379218 -332.389091 
L 87.554477 -335.384132 
L 85.730198 -338.379174 
L 84.007289 -341.374215 
L 82.50957 -344.369256 
L 81.376969 -347.364298 
L 80.754545 -350.359339 
L 80.778184 -353.35438 
L 81.558628 -356.349421 
L 83.166178 -359.344463 
L 85.618603 -362.339504 
L 88.87457 -365.334545 
L 190.998157 -365.334545 
L 190.998157 -365.334545 
L 194.254124 -362.339504 
L 196.70655 -359.344463 
L 198.314099 -356.349421 
L 199.094544 -353.35438 
L 199.118182 -350.359339 
L 198.495758 -347.364298 
L 197.363158 -344.369256 
L 195.865439 -341.374215 
L 194.142529 -338.379174 
L 192.318251 -335.384132 
L 190.493509 -332.389091 
L 188.743641 -329.39405 
L 187.119247 -326.399008 
L 185.649441 -323.403967 
L 184.346364 -320.408926 
L 183.20992 -317.413884 
L 182.231997 -314.418843 
L 181.39975 -311.423802 
L 180.697861 -308.42876 
L 180.10989 -305.433719 
L 179.618978 -302.438678 
L 179.208186 -299.443636 
L 178.860719 -296.448595 
L 178.5602 -293.453554 
L 178.291067 -290.458512 
L 178.039069 -287.463471 
L 177.791802 -284.46843 
L 177.539187 -281.473388 
L 177.27379 -278.478347 
L 176.990947 -275.483306 
L 176.688669 -272.488264 
L 176.367357 -269.493223 
L 176.029405 -266.498182 
L 175.678748 -263.50314 
L 175.320444 -260.508099 
L 174.960332 -257.513058 
L 174.604779 -254.518017 
L 174.26051 -251.522975 
L 173.934472 -248.527934 
L 173.63369 -245.532893 
L 173.365045 -242.537851 
L 173.134974 -239.54281 
L 172.949069 -236.547769 
L 172.811623 -233.552727 
L 172.725209 -230.557686 
L 172.690361 -227.562645 
L 172.705478 -224.567603 
L 172.767003 -221.572562 
L 172.8699 -218.577521 
L 173.008379 -215.582479 
L 173.176759 -212.587438 
L 173.370297 -209.592397 
L 173.585818 -206.597355 
L 173.821981 -203.602314 
L 174.079101 -200.607273 
L 174.358535 -197.612231 
L 174.661719 -194.61719 
L 174.989055 -191.622149 
L 175.338875 -188.627107 
L 175.706709 -185.632066 
L 176.085058 -182.637025 
L 176.463757 -179.641983 
L 176.830931 -176.646942 
L 177.174407 -173.651901 
L 177.483368 -170.65686 
L 177.749988 -167.661818 
L 177.970748 -164.666777 
L 178.147247 -161.671736 
L 178.286343 -158.676694 
L 178.399644 -155.681653 
L 178.502428 -152.686612 
L 178.61219 -149.69157 
L 178.747026 -146.696529 
L 178.924095 -143.701488 
L 179.158324 -140.706446 
L 179.461482 -137.711405 
L 179.841675 -134.716364 
L 180.303245 -131.721322 
L 180.84704 -128.726281 
L 181.470939 -125.73124 
L 182.170522 -122.736198 
L 182.939696 -119.741157 
L 183.771082 -116.746116 
L 184.65592 -113.751074 
L 185.583314 -110.756033 
L 186.538687 -107.760992 
L 187.50151 -104.76595 
L 188.442583 -101.770909 
L 189.321391 -98.775868 
L 190.084253 -95.780826 
L 190.664067 -92.785785 
L 190.98239 -89.790744 
L 190.954233 -86.795702 
L 190.495527 -83.800661 
L 189.532596 -80.80562 
L 188.012386 -77.810579 
L 185.911866 -74.815537 
L 183.244851 -71.820496 
L 180.06482 -68.825455 
z
" id="m060a2ec42c" style="stroke:#ffffff;stroke-opacity:0.3;"/>
    </defs>
    <g clip-path="url(#pd5c2324c31)">
     <use style="fill:#4c72b0;fill-opacity:0.3;stroke:#ffffff;stroke-opacity:0.3;" x="0" xlink:href="#m060a2ec42c" y="432"/>
    </g>
   </g>
   <g id="PolyCollection_2">
    <defs>
     <path d="M 431.288829 -68.825455 
L 322.038443 -68.825455 
L 319.464389 -71.820496 
L 317.941304 -74.815537 
L 317.481818 -77.810579 
L 318.023596 -80.80562 
L 319.440879 -83.800661 
L 321.562739 -86.795702 
L 324.194775 -89.790744 
L 327.14075 -92.785785 
L 330.221105 -95.780826 
L 333.286278 -98.775868 
L 336.223915 -101.770909 
L 338.960234 -104.76595 
L 341.456667 -107.760992 
L 343.703347 -110.756033 
L 345.711134 -113.751074 
L 347.50361 -116.746116 
L 349.110087 -119.741157 
L 350.560222 -122.736198 
L 351.880423 -125.73124 
L 353.091939 -128.726281 
L 354.21034 -131.721322 
L 355.246021 -134.716364 
L 356.205344 -137.711405 
L 357.092059 -140.706446 
L 357.908723 -143.701488 
L 358.657867 -146.696529 
L 359.342781 -149.69157 
L 359.96784 -152.686612 
L 360.538411 -155.681653 
L 361.060422 -158.676694 
L 361.539768 -161.671736 
L 361.981715 -164.666777 
L 362.390465 -167.661818 
L 362.768977 -170.65686 
L 363.119088 -173.651901 
L 363.441855 -176.646942 
L 363.738042 -179.641983 
L 364.008596 -182.637025 
L 364.254989 -185.632066 
L 364.479364 -188.627107 
L 364.684449 -191.622149 
L 364.87331 -194.61719 
L 365.049017 -197.612231 
L 365.214342 -200.607273 
L 365.371573 -203.602314 
L 365.522489 -206.597355 
L 365.668485 -209.592397 
L 365.810793 -212.587438 
L 365.950696 -215.582479 
L 366.089679 -218.577521 
L 366.229415 -221.572562 
L 366.371601 -224.567603 
L 366.517661 -227.562645 
L 366.668399 -230.557686 
L 366.823688 -233.552727 
L 366.982299 -236.547769 
L 367.141927 -239.54281 
L 367.299431 -242.537851 
L 367.45125 -245.532893 
L 367.593923 -248.527934 
L 367.72461 -251.522975 
L 367.841516 -254.518017 
L 367.944148 -257.513058 
L 368.033383 -260.508099 
L 368.111347 -263.50314 
L 368.181161 -266.498182 
L 368.246623 -269.493223 
L 368.311877 -272.488264 
L 368.381114 -275.483306 
L 368.458318 -278.478347 
L 368.547049 -281.473388 
L 368.650241 -284.46843 
L 368.76999 -287.463471 
L 368.907334 -290.458512 
L 369.062034 -293.453554 
L 369.232389 -296.448595 
L 369.415134 -299.443636 
L 369.605484 -302.438678 
L 369.797346 -305.433719 
L 369.983741 -308.42876 
L 370.157424 -311.423802 
L 370.31166 -314.418843 
L 370.441076 -317.413884 
L 370.542506 -320.408926 
L 370.615688 -323.403967 
L 370.663704 -326.399008 
L 370.693076 -329.39405 
L 370.713444 -332.389091 
L 370.736839 -335.384132 
L 370.77661 -338.379174 
L 370.84611 -341.374215 
L 370.957316 -344.369256 
L 371.11953 -347.364298 
L 371.338354 -350.359339 
L 371.61504 -353.35438 
L 371.946316 -356.349421 
L 372.324681 -359.344463 
L 372.739143 -362.339504 
L 373.176278 -365.334545 
L 380.150995 -365.334545 
L 380.150995 -365.334545 
L 380.58813 -362.339504 
L 381.002591 -359.344463 
L 381.380957 -356.349421 
L 381.712232 -353.35438 
L 381.988919 -350.359339 
L 382.207743 -347.364298 
L 382.369957 -344.369256 
L 382.481162 -341.374215 
L 382.550663 -338.379174 
L 382.590433 -335.384132 
L 382.613829 -332.389091 
L 382.634196 -329.39405 
L 382.663568 -326.399008 
L 382.711585 -323.403967 
L 382.784766 -320.408926 
L 382.886197 -317.413884 
L 383.015613 -314.418843 
L 383.169849 -311.423802 
L 383.343532 -308.42876 
L 383.529927 -305.433719 
L 383.721788 -302.438678 
L 383.912138 -299.443636 
L 384.094884 -296.448595 
L 384.265238 -293.453554 
L 384.419939 -290.458512 
L 384.557283 -287.463471 
L 384.677032 -284.46843 
L 384.780224 -281.473388 
L 384.868955 -278.478347 
L 384.946159 -275.483306 
L 385.015396 -272.488264 
L 385.08065 -269.493223 
L 385.146112 -266.498182 
L 385.215926 -263.50314 
L 385.293889 -260.508099 
L 385.383125 -257.513058 
L 385.485757 -254.518017 
L 385.602662 -251.522975 
L 385.733349 -248.527934 
L 385.876023 -245.532893 
L 386.027842 -242.537851 
L 386.185346 -239.54281 
L 386.344974 -236.547769 
L 386.503585 -233.552727 
L 386.658873 -230.557686 
L 386.809611 -227.562645 
L 386.955672 -224.567603 
L 387.097858 -221.572562 
L 387.237594 -218.577521 
L 387.376577 -215.582479 
L 387.51648 -212.587438 
L 387.658787 -209.592397 
L 387.804784 -206.597355 
L 387.9557 -203.602314 
L 388.112931 -200.607273 
L 388.278256 -197.612231 
L 388.453963 -194.61719 
L 388.642824 -191.622149 
L 388.847909 -188.627107 
L 389.072283 -185.632066 
L 389.318677 -182.637025 
L 389.58923 -179.641983 
L 389.885418 -176.646942 
L 390.208185 -173.651901 
L 390.558295 -170.65686 
L 390.936808 -167.661818 
L 391.345557 -164.666777 
L 391.787504 -161.671736 
L 392.266851 -158.676694 
L 392.788862 -155.681653 
L 393.359433 -152.686612 
L 393.984492 -149.69157 
L 394.669405 -146.696529 
L 395.418549 -143.701488 
L 396.235214 -140.706446 
L 397.121929 -137.711405 
L 398.081251 -134.716364 
L 399.116932 -131.721322 
L 400.235333 -128.726281 
L 401.446849 -125.73124 
L 402.767051 -122.736198 
L 404.217186 -119.741157 
L 405.823663 -116.746116 
L 407.616138 -113.751074 
L 409.623926 -110.756033 
L 411.870606 -107.760992 
L 414.367039 -104.76595 
L 417.103358 -101.770909 
L 420.040994 -98.775868 
L 423.106168 -95.780826 
L 426.186523 -92.785785 
L 429.132497 -89.790744 
L 431.764534 -86.795702 
L 433.886394 -83.800661 
L 435.303677 -80.80562 
L 435.845455 -77.810579 
L 435.385968 -74.815537 
L 433.862884 -71.820496 
L 431.288829 -68.825455 
z
" id="mc534e7b3b8" style="stroke:#ffffff;stroke-opacity:0.3;"/>
    </defs>
    <g clip-path="url(#pd5c2324c31)">
     <use style="fill:#4c72b0;fill-opacity:0.3;stroke:#ffffff;stroke-opacity:0.3;" x="0" xlink:href="#mc534e7b3b8" y="432"/>
    </g>
   </g>
   <g id="LineCollection_1">
    <path clip-path="url(#pd5c2324c31)" d="M 110.345455 210.117348 
L 169.527273 210.117348 
" style="fill:none;stroke:#4c72b0;stroke-width:1.5;"/>
    <path clip-path="url(#pd5c2324c31)" d="M 347.072727 292.266555 
L 406.254545 292.266555 
" style="fill:none;stroke:#4c72b0;stroke-width:1.5;"/>
   </g>
   <g id="LineCollection_2">
    <path clip-path="url(#pd5c2324c31)" d="M 110.345455 66.665455 
L 169.527273 66.665455 
" style="fill:none;stroke:#4c72b0;stroke-width:1.5;"/>
    <path clip-path="url(#pd5c2324c31)" d="M 347.072727 66.665455 
L 406.254545 66.665455 
" style="fill:none;stroke:#4c72b0;stroke-width:1.5;"/>
   </g>
   <g id="LineCollection_3">
    <path clip-path="url(#pd5c2324c31)" d="M 110.345455 363.174545 
L 169.527273 363.174545 
" style="fill:none;stroke:#4c72b0;stroke-width:1.5;"/>
    <path clip-path="url(#pd5c2324c31)" d="M 347.072727 363.174545 
L 406.254545 363.174545 
" style="fill:none;stroke:#4c72b0;stroke-width:1.5;"/>
   </g>
   <g id="LineCollection_4">
    <path clip-path="url(#pd5c2324c31)" d="M 139.936364 363.174545 
L 139.936364 66.665455 
" style="fill:none;stroke:#4c72b0;stroke-width:1.5;"/>
    <path clip-path="url(#pd5c2324c31)" d="M 376.663636 363.174545 
L 376.663636 66.665455 
" style="fill:none;stroke:#4c72b0;stroke-width:1.5;"/>
   </g>
   <g id="patch_3">
    <path d="M 63 378 
L 63 51.84 
" style="fill:none;stroke:#ffffff;stroke-linecap:square;stroke-linejoin:miter;stroke-width:1.25;"/>
   </g>
   <g id="patch_4">
    <path d="M 453.6 378 
L 453.6 51.84 
" style="fill:none;stroke:#ffffff;stroke-linecap:square;stroke-linejoin:miter;stroke-width:1.25;"/>
   </g>
   <g id="patch_5">
    <path d="M 63 378 
L 453.6 378 
" style="fill:none;stroke:#ffffff;stroke-linecap:square;stroke-linejoin:miter;stroke-width:1.25;"/>
   </g>
   <g id="patch_6">
    <path d="M 63 51.84 
L 453.6 51.84 
" style="fill:none;stroke:#ffffff;stroke-linecap:square;stroke-linejoin:miter;stroke-width:1.25;"/>
   </g>
   <g id="text_13">
    <!-- Distribution of tenure time for customers, stratified by churn -->
    <g style="fill:#262626;" transform="translate(85.9575 37.84)scale(0.12 -0.12)">
     <defs>
      <path d="M 7.234375 71.578125 
L 33.640625 71.578125 
Q 42.578125 71.578125 47.265625 70.21875 
Q 53.5625 68.359375 58.046875 63.625 
Q 62.546875 58.890625 64.890625 52.03125 
Q 67.234375 45.171875 67.234375 35.109375 
Q 67.234375 26.265625 65.046875 19.875 
Q 62.359375 12.0625 57.375 7.234375 
Q 53.609375 3.5625 47.21875 1.515625 
Q 42.4375 0 34.421875 0 
L 7.234375 0 
z
M 21.6875 59.46875 
L 21.6875 12.0625 
L 32.46875 12.0625 
Q 38.53125 12.0625 41.21875 12.75 
Q 44.734375 13.625 47.046875 15.71875 
Q 49.359375 17.828125 50.828125 22.625 
Q 52.296875 27.4375 52.296875 35.75 
Q 52.296875 44.046875 50.828125 48.484375 
Q 49.359375 52.9375 46.71875 55.421875 
Q 44.09375 57.90625 40.046875 58.796875 
Q 37.015625 59.46875 28.171875 59.46875 
z
" id="Arial-BoldMT-68"/>
      <path d="M 7.171875 58.890625 
L 7.171875 71.578125 
L 20.90625 71.578125 
L 20.90625 58.890625 
z
M 7.171875 0 
L 7.171875 51.859375 
L 20.90625 51.859375 
L 20.90625 0 
z
" id="Arial-BoldMT-105"/>
      <path d="M 6.59375 0 
L 6.59375 71.578125 
L 20.3125 71.578125 
L 20.3125 45.796875 
Q 26.65625 53.03125 35.359375 53.03125 
Q 44.828125 53.03125 51.03125 46.171875 
Q 57.234375 39.3125 57.234375 26.46875 
Q 57.234375 13.1875 50.90625 6 
Q 44.578125 -1.171875 35.546875 -1.171875 
Q 31.109375 -1.171875 26.78125 1.046875 
Q 22.46875 3.265625 19.34375 7.625 
L 19.34375 0 
z
M 20.21875 27.046875 
Q 20.21875 19 22.75 15.140625 
Q 26.3125 9.671875 32.234375 9.671875 
Q 36.765625 9.671875 39.96875 13.546875 
Q 43.171875 17.4375 43.171875 25.78125 
Q 43.171875 34.671875 39.9375 38.59375 
Q 36.71875 42.53125 31.6875 42.53125 
Q 26.765625 42.53125 23.484375 38.6875 
Q 20.21875 34.859375 20.21875 27.046875 
z
" id="Arial-BoldMT-98"/>
      <path d="M 1.171875 51.859375 
L 8.796875 51.859375 
L 8.796875 55.765625 
Q 8.796875 62.3125 10.1875 65.53125 
Q 11.578125 68.75 15.3125 70.765625 
Q 19.046875 72.796875 24.75 72.796875 
Q 30.609375 72.796875 36.234375 71.046875 
L 34.375 61.46875 
Q 31.109375 62.25 28.078125 62.25 
Q 25.09375 62.25 23.796875 60.859375 
Q 22.515625 59.46875 22.515625 55.515625 
L 22.515625 51.859375 
L 32.765625 51.859375 
L 32.765625 41.0625 
L 22.515625 41.0625 
L 22.515625 0 
L 8.796875 0 
L 8.796875 41.0625 
L 1.171875 41.0625 
z
" id="Arial-BoldMT-102"/>
      <path d="M 52.390625 36.53125 
L 38.875 34.078125 
Q 38.1875 38.140625 35.765625 40.1875 
Q 33.34375 42.234375 29.5 42.234375 
Q 24.359375 42.234375 21.3125 38.6875 
Q 18.265625 35.15625 18.265625 26.859375 
Q 18.265625 17.625 21.359375 13.8125 
Q 24.46875 10.015625 29.6875 10.015625 
Q 33.59375 10.015625 36.078125 12.234375 
Q 38.578125 14.453125 39.59375 19.875 
L 53.078125 17.578125 
Q 50.984375 8.296875 45.015625 3.5625 
Q 39.0625 -1.171875 29.046875 -1.171875 
Q 17.671875 -1.171875 10.90625 6 
Q 4.15625 13.1875 4.15625 25.875 
Q 4.15625 38.71875 10.9375 45.875 
Q 17.71875 53.03125 29.296875 53.03125 
Q 38.765625 53.03125 44.359375 48.953125 
Q 49.953125 44.875 52.390625 36.53125 
z
" id="Arial-BoldMT-99"/>
      <path d="M 6.84375 13.71875 
L 20.5625 13.71875 
L 20.5625 3.90625 
Q 20.5625 -2.046875 19.53125 -5.484375 
Q 18.5 -8.9375 15.640625 -11.671875 
Q 12.796875 -14.40625 8.40625 -15.96875 
L 5.71875 -10.296875 
Q 9.859375 -8.9375 11.609375 -6.546875 
Q 13.375 -4.15625 13.484375 0 
L 6.84375 0 
z
" id="Arial-BoldMT-44"/>
      <path d="M 17.4375 36.03125 
L 4.984375 38.28125 
Q 7.078125 45.796875 12.203125 49.40625 
Q 17.328125 53.03125 27.4375 53.03125 
Q 36.625 53.03125 41.109375 50.859375 
Q 45.609375 48.6875 47.4375 45.34375 
Q 49.265625 42 49.265625 33.0625 
L 49.125 17.046875 
Q 49.125 10.203125 49.78125 6.953125 
Q 50.4375 3.71875 52.25 0 
L 38.671875 0 
Q 38.140625 1.375 37.359375 4.046875 
Q 37.015625 5.28125 36.859375 5.671875 
Q 33.34375 2.25 29.34375 0.53125 
Q 25.34375 -1.171875 20.796875 -1.171875 
Q 12.796875 -1.171875 8.171875 3.171875 
Q 3.5625 7.515625 3.5625 14.15625 
Q 3.5625 18.5625 5.65625 22 
Q 7.765625 25.4375 11.546875 27.265625 
Q 15.328125 29.109375 22.46875 30.46875 
Q 32.078125 32.28125 35.796875 33.84375 
L 35.796875 35.203125 
Q 35.796875 39.15625 33.84375 40.84375 
Q 31.890625 42.53125 26.46875 42.53125 
Q 22.796875 42.53125 20.75 41.09375 
Q 18.703125 39.65625 17.4375 36.03125 
z
M 35.796875 24.90625 
Q 33.15625 24.03125 27.4375 22.796875 
Q 21.734375 21.578125 19.96875 20.40625 
Q 17.28125 18.5 17.28125 15.578125 
Q 17.28125 12.703125 19.421875 10.59375 
Q 21.578125 8.5 24.90625 8.5 
Q 28.609375 8.5 31.984375 10.9375 
Q 34.46875 12.796875 35.25 15.484375 
Q 35.796875 17.234375 35.796875 22.171875 
z
" id="Arial-BoldMT-97"/>
      <path d="M 54.734375 0 
L 42 0 
L 42 7.625 
Q 38.8125 3.171875 34.484375 1 
Q 30.171875 -1.171875 25.78125 -1.171875 
Q 16.84375 -1.171875 10.46875 6.03125 
Q 4.109375 13.234375 4.109375 26.125 
Q 4.109375 39.3125 10.296875 46.171875 
Q 16.5 53.03125 25.984375 53.03125 
Q 34.671875 53.03125 41.015625 45.796875 
L 41.015625 71.578125 
L 54.734375 71.578125 
z
M 18.109375 27.046875 
Q 18.109375 18.75 20.40625 15.046875 
Q 23.734375 9.671875 29.6875 9.671875 
Q 34.421875 9.671875 37.734375 13.6875 
Q 41.0625 17.71875 41.0625 25.734375 
Q 41.0625 34.671875 37.84375 38.59375 
Q 34.625 42.53125 29.59375 42.53125 
Q 24.703125 42.53125 21.40625 38.640625 
Q 18.109375 34.765625 18.109375 27.046875 
z
" id="Arial-BoldMT-100"/>
      <path d="M 0.6875 51.859375 
L 15.28125 51.859375 
L 27.6875 15.046875 
L 39.796875 51.859375 
L 54 51.859375 
L 35.6875 1.953125 
L 32.421875 -7.078125 
Q 30.609375 -11.625 28.96875 -14.015625 
Q 27.34375 -16.40625 25.21875 -17.890625 
Q 23.09375 -19.390625 19.984375 -20.21875 
Q 16.890625 -21.046875 12.984375 -21.046875 
Q 9.03125 -21.046875 5.21875 -20.21875 
L 4 -9.46875 
Q 7.234375 -10.109375 9.8125 -10.109375 
Q 14.59375 -10.109375 16.890625 -7.296875 
Q 19.1875 -4.5 20.40625 -0.140625 
z
" id="Arial-BoldMT-121"/>
     </defs>
     <use xlink:href="#Arial-BoldMT-68"/>
     <use x="72.216797" xlink:href="#Arial-BoldMT-105"/>
     <use x="100" xlink:href="#Arial-BoldMT-115"/>
     <use x="155.615234" xlink:href="#Arial-BoldMT-116"/>
     <use x="188.916016" xlink:href="#Arial-BoldMT-114"/>
     <use x="227.832031" xlink:href="#Arial-BoldMT-105"/>
     <use x="255.615234" xlink:href="#Arial-BoldMT-98"/>
     <use x="316.699219" xlink:href="#Arial-BoldMT-117"/>
     <use x="377.783203" xlink:href="#Arial-BoldMT-116"/>
     <use x="411.083984" xlink:href="#Arial-BoldMT-105"/>
     <use x="438.867188" xlink:href="#Arial-BoldMT-111"/>
     <use x="499.951172" xlink:href="#Arial-BoldMT-110"/>
     <use x="561.035156" xlink:href="#Arial-BoldMT-32"/>
     <use x="588.818359" xlink:href="#Arial-BoldMT-111"/>
     <use x="649.902344" xlink:href="#Arial-BoldMT-102"/>
     <use x="683.203125" xlink:href="#Arial-BoldMT-32"/>
     <use x="710.986328" xlink:href="#Arial-BoldMT-116"/>
     <use x="744.287109" xlink:href="#Arial-BoldMT-101"/>
     <use x="799.902344" xlink:href="#Arial-BoldMT-110"/>
     <use x="860.986328" xlink:href="#Arial-BoldMT-117"/>
     <use x="922.070312" xlink:href="#Arial-BoldMT-114"/>
     <use x="960.986328" xlink:href="#Arial-BoldMT-101"/>
     <use x="1016.601562" xlink:href="#Arial-BoldMT-32"/>
     <use x="1044.384766" xlink:href="#Arial-BoldMT-116"/>
     <use x="1077.685547" xlink:href="#Arial-BoldMT-105"/>
     <use x="1105.46875" xlink:href="#Arial-BoldMT-109"/>
     <use x="1194.384766" xlink:href="#Arial-BoldMT-101"/>
     <use x="1250" xlink:href="#Arial-BoldMT-32"/>
     <use x="1277.783203" xlink:href="#Arial-BoldMT-102"/>
     <use x="1311.083984" xlink:href="#Arial-BoldMT-111"/>
     <use x="1372.167969" xlink:href="#Arial-BoldMT-114"/>
     <use x="1411.083984" xlink:href="#Arial-BoldMT-32"/>
     <use x="1438.867188" xlink:href="#Arial-BoldMT-99"/>
     <use x="1494.482422" xlink:href="#Arial-BoldMT-117"/>
     <use x="1555.566406" xlink:href="#Arial-BoldMT-115"/>
     <use x="1611.181641" xlink:href="#Arial-BoldMT-116"/>
     <use x="1644.482422" xlink:href="#Arial-BoldMT-111"/>
     <use x="1705.566406" xlink:href="#Arial-BoldMT-109"/>
     <use x="1794.482422" xlink:href="#Arial-BoldMT-101"/>
     <use x="1850.097656" xlink:href="#Arial-BoldMT-114"/>
     <use x="1889.013672" xlink:href="#Arial-BoldMT-115"/>
     <use x="1944.628906" xlink:href="#Arial-BoldMT-44"/>
     <use x="1972.412109" xlink:href="#Arial-BoldMT-32"/>
     <use x="2000.195312" xlink:href="#Arial-BoldMT-115"/>
     <use x="2055.810547" xlink:href="#Arial-BoldMT-116"/>
     <use x="2089.111328" xlink:href="#Arial-BoldMT-114"/>
     <use x="2128.027344" xlink:href="#Arial-BoldMT-97"/>
     <use x="2183.642578" xlink:href="#Arial-BoldMT-116"/>
     <use x="2216.943359" xlink:href="#Arial-BoldMT-105"/>
     <use x="2244.726562" xlink:href="#Arial-BoldMT-102"/>
     <use x="2278.027344" xlink:href="#Arial-BoldMT-105"/>
     <use x="2305.810547" xlink:href="#Arial-BoldMT-101"/>
     <use x="2361.425781" xlink:href="#Arial-BoldMT-100"/>
     <use x="2422.509766" xlink:href="#Arial-BoldMT-32"/>
     <use x="2450.292969" xlink:href="#Arial-BoldMT-98"/>
     <use x="2511.376953" xlink:href="#Arial-BoldMT-121"/>
     <use x="2566.992188" xlink:href="#Arial-BoldMT-32"/>
     <use x="2594.775391" xlink:href="#Arial-BoldMT-99"/>
     <use x="2650.390625" xlink:href="#Arial-BoldMT-104"/>
     <use x="2711.474609" xlink:href="#Arial-BoldMT-117"/>
     <use x="2772.558594" xlink:href="#Arial-BoldMT-114"/>
     <use x="2811.474609" xlink:href="#Arial-BoldMT-110"/>
    </g>
   </g>
  </g>
 </g>
 <defs>
  <clipPath id="pd5c2324c31">
   <rect height="326.16" width="390.6" x="63" y="51.84"/>
  </clipPath>
 </defs>
</svg>
