<?xml version="1.0" encoding="utf-8" standalone="no"?>
<!DOCTYPE svg PUBLIC "-//W3C//DTD SVG 1.1//EN"
  "http://www.w3.org/Graphics/SVG/1.1/DTD/svg11.dtd">
<!-- Created with matplotlib (https://matplotlib.org/) -->
<svg height="360pt" version="1.1" viewBox="0 0 504 360" width="504pt" xmlns="http://www.w3.org/2000/svg" xmlns:xlink="http://www.w3.org/1999/xlink">
 <metadata>
  <rdf:RDF xmlns:cc="http://creativecommons.org/ns#" xmlns:dc="http://purl.org/dc/elements/1.1/" xmlns:rdf="http://www.w3.org/1999/02/22-rdf-syntax-ns#">
   <cc:Work>
    <dc:type rdf:resource="http://purl.org/dc/dcmitype/StillImage"/>
    <dc:date>2021-06-10T11:36:29.687646</dc:date>
    <dc:format>image/svg+xml</dc:format>
    <dc:creator>
     <cc:Agent>
      <dc:title>Matplotlib v3.3.3, https://matplotlib.org/</dc:title>
     </cc:Agent>
    </dc:creator>
   </cc:Work>
  </rdf:RDF>
 </metadata>
 <defs>
  <style type="text/css">*{stroke-linecap:butt;stroke-linejoin:round;}</style>
 </defs>
 <g id="figure_1">
  <g id="patch_1">
   <path d="M 0 360 
L 504 360 
L 504 0 
L 0 0 
z
" style="fill:none;"/>
  </g>
  <g id="axes_1">
   <g id="patch_2">
    <path d="M 63 315 
L 453.6 315 
L 453.6 43.2 
L 63 43.2 
z
" style="fill:#eaeaf2;"/>
   </g>
   <g id="matplotlib.axis_1">
    <g id="xtick_1">
     <g id="line2d_1">
      <path clip-path="url(#p1b17d3af4b)" d="M 80.754545 315 
L 80.754545 43.2 
" style="fill:none;stroke:#ffffff;stroke-linecap:round;"/>
     </g>
     <g id="text_1">
      <!-- 0 -->
      <g style="fill:#262626;" transform="translate(77.69603 332.373594)scale(0.11 -0.11)">
       <defs>
        <path d="M 4.15625 35.296875 
Q 4.15625 48 6.765625 55.734375 
Q 9.375 63.484375 14.515625 67.671875 
Q 19.671875 71.875 27.484375 71.875 
Q 33.25 71.875 37.59375 69.546875 
Q 41.9375 67.234375 44.765625 62.859375 
Q 47.609375 58.5 49.21875 52.21875 
Q 50.828125 45.953125 50.828125 35.296875 
Q 50.828125 22.703125 48.234375 14.96875 
Q 45.65625 7.234375 40.5 3 
Q 35.359375 -1.21875 27.484375 -1.21875 
Q 17.140625 -1.21875 11.234375 6.203125 
Q 4.15625 15.140625 4.15625 35.296875 
z
M 13.1875 35.296875 
Q 13.1875 17.671875 17.3125 11.828125 
Q 21.4375 6 27.484375 6 
Q 33.546875 6 37.671875 11.859375 
Q 41.796875 17.71875 41.796875 35.296875 
Q 41.796875 52.984375 37.671875 58.78125 
Q 33.546875 64.59375 27.390625 64.59375 
Q 21.34375 64.59375 17.71875 59.46875 
Q 13.1875 52.9375 13.1875 35.296875 
z
" id="ArialMT-48"/>
       </defs>
       <use xlink:href="#ArialMT-48"/>
      </g>
     </g>
    </g>
    <g id="xtick_2">
     <g id="line2d_2">
      <path clip-path="url(#p1b17d3af4b)" d="M 130.072727 315 
L 130.072727 43.2 
" style="fill:none;stroke:#ffffff;stroke-linecap:round;"/>
     </g>
     <g id="text_2">
      <!-- 10 -->
      <g style="fill:#262626;" transform="translate(123.955696 332.373594)scale(0.11 -0.11)">
       <defs>
        <path d="M 37.25 0 
L 28.46875 0 
L 28.46875 56 
Q 25.296875 52.984375 20.140625 49.953125 
Q 14.984375 46.921875 10.890625 45.40625 
L 10.890625 53.90625 
Q 18.265625 57.375 23.78125 62.296875 
Q 29.296875 67.234375 31.59375 71.875 
L 37.25 71.875 
z
" id="ArialMT-49"/>
       </defs>
       <use xlink:href="#ArialMT-49"/>
       <use x="55.615234" xlink:href="#ArialMT-48"/>
      </g>
     </g>
    </g>
    <g id="xtick_3">
     <g id="line2d_3">
      <path clip-path="url(#p1b17d3af4b)" d="M 179.390909 315 
L 179.390909 43.2 
" style="fill:none;stroke:#ffffff;stroke-linecap:round;"/>
     </g>
     <g id="text_3">
      <!-- 20 -->
      <g style="fill:#262626;" transform="translate(173.273878 332.373594)scale(0.11 -0.11)">
       <defs>
        <path d="M 50.34375 8.453125 
L 50.34375 0 
L 3.03125 0 
Q 2.9375 3.171875 4.046875 6.109375 
Q 5.859375 10.9375 9.828125 15.625 
Q 13.8125 20.3125 21.34375 26.46875 
Q 33.015625 36.03125 37.109375 41.625 
Q 41.21875 47.21875 41.21875 52.203125 
Q 41.21875 57.421875 37.46875 61 
Q 33.734375 64.59375 27.734375 64.59375 
Q 21.390625 64.59375 17.578125 60.78125 
Q 13.765625 56.984375 13.71875 50.25 
L 4.6875 51.171875 
Q 5.609375 61.28125 11.65625 66.578125 
Q 17.71875 71.875 27.9375 71.875 
Q 38.234375 71.875 44.234375 66.15625 
Q 50.25 60.453125 50.25 52 
Q 50.25 47.703125 48.484375 43.546875 
Q 46.734375 39.40625 42.65625 34.8125 
Q 38.578125 30.21875 29.109375 22.21875 
Q 21.1875 15.578125 18.9375 13.203125 
Q 16.703125 10.84375 15.234375 8.453125 
z
" id="ArialMT-50"/>
       </defs>
       <use xlink:href="#ArialMT-50"/>
       <use x="55.615234" xlink:href="#ArialMT-48"/>
      </g>
     </g>
    </g>
    <g id="xtick_4">
     <g id="line2d_4">
      <path clip-path="url(#p1b17d3af4b)" d="M 228.709091 315 
L 228.709091 43.2 
" style="fill:none;stroke:#ffffff;stroke-linecap:round;"/>
     </g>
     <g id="text_4">
      <!-- 30 -->
      <g style="fill:#262626;" transform="translate(222.59206 332.373594)scale(0.11 -0.11)">
       <defs>
        <path d="M 4.203125 18.890625 
L 12.984375 20.0625 
Q 14.5 12.59375 18.140625 9.296875 
Q 21.78125 6 27 6 
Q 33.203125 6 37.46875 10.296875 
Q 41.75 14.59375 41.75 20.953125 
Q 41.75 27 37.796875 30.921875 
Q 33.84375 34.859375 27.734375 34.859375 
Q 25.25 34.859375 21.53125 33.890625 
L 22.515625 41.609375 
Q 23.390625 41.5 23.921875 41.5 
Q 29.546875 41.5 34.03125 44.421875 
Q 38.53125 47.359375 38.53125 53.46875 
Q 38.53125 58.296875 35.25 61.46875 
Q 31.984375 64.65625 26.8125 64.65625 
Q 21.6875 64.65625 18.265625 61.421875 
Q 14.84375 58.203125 13.875 51.765625 
L 5.078125 53.328125 
Q 6.6875 62.15625 12.390625 67.015625 
Q 18.109375 71.875 26.609375 71.875 
Q 32.46875 71.875 37.390625 69.359375 
Q 42.328125 66.84375 44.9375 62.5 
Q 47.5625 58.15625 47.5625 53.265625 
Q 47.5625 48.640625 45.0625 44.828125 
Q 42.578125 41.015625 37.703125 38.765625 
Q 44.046875 37.3125 47.5625 32.6875 
Q 51.078125 28.078125 51.078125 21.140625 
Q 51.078125 11.765625 44.234375 5.25 
Q 37.40625 -1.265625 26.953125 -1.265625 
Q 17.53125 -1.265625 11.296875 4.34375 
Q 5.078125 9.96875 4.203125 18.890625 
z
" id="ArialMT-51"/>
       </defs>
       <use xlink:href="#ArialMT-51"/>
       <use x="55.615234" xlink:href="#ArialMT-48"/>
      </g>
     </g>
    </g>
    <g id="xtick_5">
     <g id="line2d_5">
      <path clip-path="url(#p1b17d3af4b)" d="M 278.027273 315 
L 278.027273 43.2 
" style="fill:none;stroke:#ffffff;stroke-linecap:round;"/>
     </g>
     <g id="text_5">
      <!-- 40 -->
      <g style="fill:#262626;" transform="translate(271.910241 332.373594)scale(0.11 -0.11)">
       <defs>
        <path d="M 32.328125 0 
L 32.328125 17.140625 
L 1.265625 17.140625 
L 1.265625 25.203125 
L 33.9375 71.578125 
L 41.109375 71.578125 
L 41.109375 25.203125 
L 50.78125 25.203125 
L 50.78125 17.140625 
L 41.109375 17.140625 
L 41.109375 0 
z
M 32.328125 25.203125 
L 32.328125 57.46875 
L 9.90625 25.203125 
z
" id="ArialMT-52"/>
       </defs>
       <use xlink:href="#ArialMT-52"/>
       <use x="55.615234" xlink:href="#ArialMT-48"/>
      </g>
     </g>
    </g>
    <g id="xtick_6">
     <g id="line2d_6">
      <path clip-path="url(#p1b17d3af4b)" d="M 327.345455 315 
L 327.345455 43.2 
" style="fill:none;stroke:#ffffff;stroke-linecap:round;"/>
     </g>
     <g id="text_6">
      <!-- 50 -->
      <g style="fill:#262626;" transform="translate(321.228423 332.373594)scale(0.11 -0.11)">
       <defs>
        <path d="M 4.15625 18.75 
L 13.375 19.53125 
Q 14.40625 12.796875 18.140625 9.390625 
Q 21.875 6 27.15625 6 
Q 33.5 6 37.890625 10.78125 
Q 42.28125 15.578125 42.28125 23.484375 
Q 42.28125 31 38.0625 35.34375 
Q 33.84375 39.703125 27 39.703125 
Q 22.75 39.703125 19.328125 37.765625 
Q 15.921875 35.84375 13.96875 32.765625 
L 5.71875 33.84375 
L 12.640625 70.609375 
L 48.25 70.609375 
L 48.25 62.203125 
L 19.671875 62.203125 
L 15.828125 42.96875 
Q 22.265625 47.46875 29.34375 47.46875 
Q 38.71875 47.46875 45.15625 40.96875 
Q 51.609375 34.46875 51.609375 24.265625 
Q 51.609375 14.546875 45.953125 7.46875 
Q 39.0625 -1.21875 27.15625 -1.21875 
Q 17.390625 -1.21875 11.203125 4.25 
Q 5.03125 9.71875 4.15625 18.75 
z
" id="ArialMT-53"/>
       </defs>
       <use xlink:href="#ArialMT-53"/>
       <use x="55.615234" xlink:href="#ArialMT-48"/>
      </g>
     </g>
    </g>
    <g id="xtick_7">
     <g id="line2d_7">
      <path clip-path="url(#p1b17d3af4b)" d="M 376.663636 315 
L 376.663636 43.2 
" style="fill:none;stroke:#ffffff;stroke-linecap:round;"/>
     </g>
     <g id="text_7">
      <!-- 60 -->
      <g style="fill:#262626;" transform="translate(370.546605 332.373594)scale(0.11 -0.11)">
       <defs>
        <path d="M 49.75 54.046875 
L 41.015625 53.375 
Q 39.84375 58.546875 37.703125 60.890625 
Q 34.125 64.65625 28.90625 64.65625 
Q 24.703125 64.65625 21.53125 62.3125 
Q 17.390625 59.28125 14.984375 53.46875 
Q 12.59375 47.65625 12.5 36.921875 
Q 15.671875 41.75 20.265625 44.09375 
Q 24.859375 46.4375 29.890625 46.4375 
Q 38.671875 46.4375 44.84375 39.96875 
Q 51.03125 33.5 51.03125 23.25 
Q 51.03125 16.5 48.125 10.71875 
Q 45.21875 4.9375 40.140625 1.859375 
Q 35.0625 -1.21875 28.609375 -1.21875 
Q 17.625 -1.21875 10.6875 6.859375 
Q 3.765625 14.9375 3.765625 33.5 
Q 3.765625 54.25 11.421875 63.671875 
Q 18.109375 71.875 29.4375 71.875 
Q 37.890625 71.875 43.28125 67.140625 
Q 48.6875 62.40625 49.75 54.046875 
z
M 13.875 23.1875 
Q 13.875 18.65625 15.796875 14.5 
Q 17.71875 10.359375 21.1875 8.171875 
Q 24.65625 6 28.46875 6 
Q 34.03125 6 38.03125 10.484375 
Q 42.046875 14.984375 42.046875 22.703125 
Q 42.046875 30.125 38.078125 34.390625 
Q 34.125 38.671875 28.125 38.671875 
Q 22.171875 38.671875 18.015625 34.390625 
Q 13.875 30.125 13.875 23.1875 
z
" id="ArialMT-54"/>
       </defs>
       <use xlink:href="#ArialMT-54"/>
       <use x="55.615234" xlink:href="#ArialMT-48"/>
      </g>
     </g>
    </g>
    <g id="xtick_8">
     <g id="line2d_8">
      <path clip-path="url(#p1b17d3af4b)" d="M 425.981818 315 
L 425.981818 43.2 
" style="fill:none;stroke:#ffffff;stroke-linecap:round;"/>
     </g>
     <g id="text_8">
      <!-- 70 -->
      <g style="fill:#262626;" transform="translate(419.864787 332.373594)scale(0.11 -0.11)">
       <defs>
        <path d="M 4.734375 62.203125 
L 4.734375 70.65625 
L 51.078125 70.65625 
L 51.078125 63.8125 
Q 44.234375 56.546875 37.515625 44.484375 
Q 30.8125 32.421875 27.15625 19.671875 
Q 24.515625 10.6875 23.78125 0 
L 14.75 0 
Q 14.890625 8.453125 18.0625 20.40625 
Q 21.234375 32.375 27.171875 43.484375 
Q 33.109375 54.59375 39.796875 62.203125 
z
" id="ArialMT-55"/>
       </defs>
       <use xlink:href="#ArialMT-55"/>
       <use x="55.615234" xlink:href="#ArialMT-48"/>
      </g>
     </g>
    </g>
    <g id="text_9">
     <!-- Tenure (months) -->
     <g style="fill:#262626;" transform="translate(211.41375 353.295469)scale(0.12 -0.12)">
      <defs>
       <path d="M 23.390625 0 
L 23.390625 59.46875 
L 2.15625 59.46875 
L 2.15625 71.578125 
L 59.03125 71.578125 
L 59.03125 59.46875 
L 37.84375 59.46875 
L 37.84375 0 
z
" id="Arial-BoldMT-84"/>
       <path d="M 37.203125 16.5 
L 50.875 14.203125 
Q 48.25 6.6875 42.546875 2.75 
Q 36.859375 -1.171875 28.328125 -1.171875 
Q 14.796875 -1.171875 8.296875 7.671875 
Q 3.171875 14.75 3.171875 25.53125 
Q 3.171875 38.421875 9.90625 45.71875 
Q 16.65625 53.03125 26.953125 53.03125 
Q 38.53125 53.03125 45.21875 45.390625 
Q 51.90625 37.75 51.609375 21.96875 
L 17.234375 21.96875 
Q 17.390625 15.875 20.5625 12.46875 
Q 23.734375 9.078125 28.46875 9.078125 
Q 31.6875 9.078125 33.875 10.828125 
Q 36.078125 12.59375 37.203125 16.5 
z
M 37.984375 30.375 
Q 37.84375 36.328125 34.90625 39.421875 
Q 31.984375 42.53125 27.78125 42.53125 
Q 23.296875 42.53125 20.359375 39.265625 
Q 17.4375 35.984375 17.484375 30.375 
z
" id="Arial-BoldMT-101"/>
       <path d="M 54.34375 0 
L 40.625 0 
L 40.625 26.46875 
Q 40.625 34.859375 39.75 37.328125 
Q 38.875 39.796875 36.890625 41.15625 
Q 34.90625 42.53125 32.125 42.53125 
Q 28.5625 42.53125 25.734375 40.578125 
Q 22.90625 38.625 21.84375 35.390625 
Q 20.796875 32.171875 20.796875 23.484375 
L 20.796875 0 
L 7.078125 0 
L 7.078125 51.859375 
L 19.828125 51.859375 
L 19.828125 44.234375 
Q 26.609375 53.03125 36.921875 53.03125 
Q 41.453125 53.03125 45.203125 51.390625 
Q 48.96875 49.75 50.890625 47.203125 
Q 52.828125 44.671875 53.578125 41.453125 
Q 54.34375 38.234375 54.34375 32.234375 
z
" id="Arial-BoldMT-110"/>
       <path d="M 41.3125 0 
L 41.3125 7.765625 
Q 38.484375 3.609375 33.859375 1.21875 
Q 29.25 -1.171875 24.125 -1.171875 
Q 18.890625 -1.171875 14.734375 1.125 
Q 10.59375 3.421875 8.734375 7.5625 
Q 6.890625 11.71875 6.890625 19.046875 
L 6.890625 51.859375 
L 20.609375 51.859375 
L 20.609375 28.03125 
Q 20.609375 17.09375 21.359375 14.625 
Q 22.125 12.15625 24.125 10.71875 
Q 26.125 9.28125 29.203125 9.28125 
Q 32.71875 9.28125 35.5 11.203125 
Q 38.28125 13.140625 39.296875 15.984375 
Q 40.328125 18.84375 40.328125 29.984375 
L 40.328125 51.859375 
L 54.046875 51.859375 
L 54.046875 0 
z
" id="Arial-BoldMT-117"/>
       <path d="M 20.3125 0 
L 6.59375 0 
L 6.59375 51.859375 
L 19.34375 51.859375 
L 19.34375 44.484375 
Q 22.609375 49.703125 25.21875 51.359375 
Q 27.828125 53.03125 31.15625 53.03125 
Q 35.84375 53.03125 40.1875 50.4375 
L 35.9375 38.484375 
Q 32.46875 40.71875 29.5 40.71875 
Q 26.609375 40.71875 24.609375 39.125 
Q 22.609375 37.546875 21.453125 33.390625 
Q 20.3125 29.25 20.3125 16.015625 
z
" id="Arial-BoldMT-114"/>
       <path id="Arial-BoldMT-32"/>
       <path d="M 29.9375 -21.046875 
L 20.515625 -21.046875 
Q 13.03125 -9.765625 9.125 2.390625 
Q 5.21875 14.546875 5.21875 25.921875 
Q 5.21875 40.046875 10.0625 52.640625 
Q 14.265625 63.578125 20.703125 72.796875 
L 30.078125 72.796875 
Q 23.390625 58.015625 20.875 47.625 
Q 18.359375 37.25 18.359375 25.640625 
Q 18.359375 17.625 19.84375 9.21875 
Q 21.34375 0.828125 23.921875 -6.734375 
Q 25.640625 -11.71875 29.9375 -21.046875 
z
" id="Arial-BoldMT-40"/>
       <path d="M 6.15625 51.859375 
L 18.796875 51.859375 
L 18.796875 44.78125 
Q 25.59375 53.03125 34.96875 53.03125 
Q 39.9375 53.03125 43.59375 50.96875 
Q 47.265625 48.921875 49.609375 44.78125 
Q 53.03125 48.921875 56.984375 50.96875 
Q 60.9375 53.03125 65.4375 53.03125 
Q 71.140625 53.03125 75.09375 50.703125 
Q 79.046875 48.390625 81 43.890625 
Q 82.421875 40.578125 82.421875 33.15625 
L 82.421875 0 
L 68.703125 0 
L 68.703125 29.640625 
Q 68.703125 37.359375 67.28125 39.59375 
Q 65.375 42.53125 61.421875 42.53125 
Q 58.546875 42.53125 56 40.765625 
Q 53.46875 39.015625 52.34375 35.625 
Q 51.21875 32.234375 51.21875 24.90625 
L 51.21875 0 
L 37.5 0 
L 37.5 28.421875 
Q 37.5 35.984375 36.765625 38.171875 
Q 36.03125 40.375 34.484375 41.453125 
Q 32.953125 42.53125 30.328125 42.53125 
Q 27.15625 42.53125 24.609375 40.8125 
Q 22.078125 39.109375 20.96875 35.890625 
Q 19.875 32.671875 19.875 25.203125 
L 19.875 0 
L 6.15625 0 
z
" id="Arial-BoldMT-109"/>
       <path d="M 4 26.65625 
Q 4 33.5 7.375 39.890625 
Q 10.75 46.296875 16.921875 49.65625 
Q 23.09375 53.03125 30.71875 53.03125 
Q 42.484375 53.03125 50 45.390625 
Q 57.515625 37.75 57.515625 26.078125 
Q 57.515625 14.3125 49.921875 6.5625 
Q 42.328125 -1.171875 30.8125 -1.171875 
Q 23.6875 -1.171875 17.21875 2.046875 
Q 10.75 5.28125 7.375 11.5 
Q 4 17.71875 4 26.65625 
z
M 18.0625 25.921875 
Q 18.0625 18.21875 21.71875 14.109375 
Q 25.390625 10.015625 30.765625 10.015625 
Q 36.140625 10.015625 39.765625 14.109375 
Q 43.40625 18.21875 43.40625 26.03125 
Q 43.40625 33.640625 39.765625 37.734375 
Q 36.140625 41.84375 30.765625 41.84375 
Q 25.390625 41.84375 21.71875 37.734375 
Q 18.0625 33.640625 18.0625 25.921875 
z
" id="Arial-BoldMT-111"/>
       <path d="M 30.953125 51.859375 
L 30.953125 40.921875 
L 21.578125 40.921875 
L 21.578125 20.015625 
Q 21.578125 13.671875 21.84375 12.625 
Q 22.125 11.578125 23.078125 10.890625 
Q 24.03125 10.203125 25.390625 10.203125 
Q 27.296875 10.203125 30.90625 11.53125 
L 32.078125 0.875 
Q 27.296875 -1.171875 21.234375 -1.171875 
Q 17.53125 -1.171875 14.546875 0.0625 
Q 11.578125 1.3125 10.1875 3.296875 
Q 8.796875 5.28125 8.25 8.640625 
Q 7.8125 11.03125 7.8125 18.3125 
L 7.8125 40.921875 
L 1.515625 40.921875 
L 1.515625 51.859375 
L 7.8125 51.859375 
L 7.8125 62.15625 
L 21.578125 70.171875 
L 21.578125 51.859375 
z
" id="Arial-BoldMT-116"/>
       <path d="M 20.84375 71.578125 
L 20.84375 45.265625 
Q 27.484375 53.03125 36.71875 53.03125 
Q 41.453125 53.03125 45.265625 51.265625 
Q 49.078125 49.515625 51 46.78125 
Q 52.9375 44.046875 53.640625 40.71875 
Q 54.34375 37.40625 54.34375 30.421875 
L 54.34375 0 
L 40.625 0 
L 40.625 27.390625 
Q 40.625 35.546875 39.84375 37.734375 
Q 39.0625 39.9375 37.078125 41.234375 
Q 35.109375 42.53125 32.125 42.53125 
Q 28.71875 42.53125 26.03125 40.859375 
Q 23.34375 39.203125 22.09375 35.859375 
Q 20.84375 32.515625 20.84375 25.984375 
L 20.84375 0 
L 7.125 0 
L 7.125 71.578125 
z
" id="Arial-BoldMT-104"/>
       <path d="M 2.34375 14.796875 
L 16.109375 16.890625 
Q 17 12.890625 19.671875 10.8125 
Q 22.359375 8.734375 27.203125 8.734375 
Q 32.515625 8.734375 35.203125 10.6875 
Q 37.015625 12.0625 37.015625 14.359375 
Q 37.015625 15.921875 36.03125 16.9375 
Q 35.015625 17.921875 31.453125 18.75 
Q 14.84375 22.40625 10.40625 25.4375 
Q 4.25 29.640625 4.25 37.109375 
Q 4.25 43.84375 9.5625 48.4375 
Q 14.890625 53.03125 26.078125 53.03125 
Q 36.71875 53.03125 41.890625 49.5625 
Q 47.078125 46.09375 49.03125 39.3125 
L 36.078125 36.921875 
Q 35.25 39.9375 32.921875 41.546875 
Q 30.609375 43.171875 26.3125 43.171875 
Q 20.90625 43.171875 18.5625 41.65625 
Q 17 40.578125 17 38.875 
Q 17 37.40625 18.359375 36.375 
Q 20.21875 35.015625 31.171875 32.515625 
Q 42.140625 30.03125 46.484375 26.421875 
Q 50.78125 22.75 50.78125 16.21875 
Q 50.78125 9.078125 44.828125 3.953125 
Q 38.875 -1.171875 27.203125 -1.171875 
Q 16.609375 -1.171875 10.421875 3.125 
Q 4.25 7.421875 2.34375 14.796875 
z
" id="Arial-BoldMT-115"/>
       <path d="M 3.375 -21.046875 
Q 7.421875 -12.359375 9.078125 -7.71875 
Q 10.75 -3.078125 12.15625 2.96875 
Q 13.578125 9.03125 14.25 14.46875 
Q 14.9375 19.921875 14.9375 25.640625 
Q 14.9375 37.25 12.453125 47.625 
Q 9.96875 58.015625 3.265625 72.796875 
L 12.59375 72.796875 
Q 19.96875 62.3125 24.046875 50.53125 
Q 28.125 38.765625 28.125 26.65625 
Q 28.125 16.453125 24.90625 4.78125 
Q 21.234375 -8.296875 12.84375 -21.046875 
z
" id="Arial-BoldMT-41"/>
      </defs>
      <use xlink:href="#Arial-BoldMT-84"/>
      <use x="53.708984" xlink:href="#Arial-BoldMT-101"/>
      <use x="109.324219" xlink:href="#Arial-BoldMT-110"/>
      <use x="170.408203" xlink:href="#Arial-BoldMT-117"/>
      <use x="231.492188" xlink:href="#Arial-BoldMT-114"/>
      <use x="270.408203" xlink:href="#Arial-BoldMT-101"/>
      <use x="326.023438" xlink:href="#Arial-BoldMT-32"/>
      <use x="353.806641" xlink:href="#Arial-BoldMT-40"/>
      <use x="387.107422" xlink:href="#Arial-BoldMT-109"/>
      <use x="476.023438" xlink:href="#Arial-BoldMT-111"/>
      <use x="537.107422" xlink:href="#Arial-BoldMT-110"/>
      <use x="598.191406" xlink:href="#Arial-BoldMT-116"/>
      <use x="631.492188" xlink:href="#Arial-BoldMT-104"/>
      <use x="692.576172" xlink:href="#Arial-BoldMT-115"/>
      <use x="748.191406" xlink:href="#Arial-BoldMT-41"/>
     </g>
    </g>
   </g>
   <g id="matplotlib.axis_2">
    <g id="ytick_1">
     <g id="line2d_9">
      <path clip-path="url(#p1b17d3af4b)" d="M 63 276.897822 
L 453.6 276.897822 
" style="fill:none;stroke:#ffffff;stroke-linecap:round;"/>
     </g>
     <g id="text_10">
      <!-- 0.6 -->
      <g style="fill:#262626;" transform="translate(38.21 280.834618)scale(0.11 -0.11)">
       <defs>
        <path d="M 9.078125 0 
L 9.078125 10.015625 
L 19.09375 10.015625 
L 19.09375 0 
z
" id="ArialMT-46"/>
       </defs>
       <use xlink:href="#ArialMT-48"/>
       <use x="55.615234" xlink:href="#ArialMT-46"/>
       <use x="83.398438" xlink:href="#ArialMT-54"/>
      </g>
     </g>
    </g>
    <g id="ytick_2">
     <g id="line2d_10">
      <path clip-path="url(#p1b17d3af4b)" d="M 63 221.562003 
L 453.6 221.562003 
" style="fill:none;stroke:#ffffff;stroke-linecap:round;"/>
     </g>
     <g id="text_11">
      <!-- 0.7 -->
      <g style="fill:#262626;" transform="translate(38.21 225.498799)scale(0.11 -0.11)">
       <use xlink:href="#ArialMT-48"/>
       <use x="55.615234" xlink:href="#ArialMT-46"/>
       <use x="83.398438" xlink:href="#ArialMT-55"/>
      </g>
     </g>
    </g>
    <g id="ytick_3">
     <g id="line2d_11">
      <path clip-path="url(#p1b17d3af4b)" d="M 63 166.226184 
L 453.6 166.226184 
" style="fill:none;stroke:#ffffff;stroke-linecap:round;"/>
     </g>
     <g id="text_12">
      <!-- 0.8 -->
      <g style="fill:#262626;" transform="translate(38.21 170.16298)scale(0.11 -0.11)">
       <defs>
        <path d="M 17.671875 38.8125 
Q 12.203125 40.828125 9.5625 44.53125 
Q 6.9375 48.25 6.9375 53.421875 
Q 6.9375 61.234375 12.546875 66.546875 
Q 18.171875 71.875 27.484375 71.875 
Q 36.859375 71.875 42.578125 66.421875 
Q 48.296875 60.984375 48.296875 53.171875 
Q 48.296875 48.1875 45.671875 44.5 
Q 43.0625 40.828125 37.75 38.8125 
Q 44.34375 36.671875 47.78125 31.875 
Q 51.21875 27.09375 51.21875 20.453125 
Q 51.21875 11.28125 44.71875 5.03125 
Q 38.234375 -1.21875 27.640625 -1.21875 
Q 17.046875 -1.21875 10.546875 5.046875 
Q 4.046875 11.328125 4.046875 20.703125 
Q 4.046875 27.6875 7.59375 32.390625 
Q 11.140625 37.109375 17.671875 38.8125 
z
M 15.921875 53.71875 
Q 15.921875 48.640625 19.1875 45.40625 
Q 22.46875 42.1875 27.6875 42.1875 
Q 32.765625 42.1875 36.015625 45.375 
Q 39.265625 48.578125 39.265625 53.21875 
Q 39.265625 58.0625 35.90625 61.359375 
Q 32.5625 64.65625 27.59375 64.65625 
Q 22.5625 64.65625 19.234375 61.421875 
Q 15.921875 58.203125 15.921875 53.71875 
z
M 13.09375 20.65625 
Q 13.09375 16.890625 14.875 13.375 
Q 16.65625 9.859375 20.171875 7.921875 
Q 23.6875 6 27.734375 6 
Q 34.03125 6 38.125 10.046875 
Q 42.234375 14.109375 42.234375 20.359375 
Q 42.234375 26.703125 38.015625 30.859375 
Q 33.796875 35.015625 27.4375 35.015625 
Q 21.234375 35.015625 17.15625 30.90625 
Q 13.09375 26.8125 13.09375 20.65625 
z
" id="ArialMT-56"/>
       </defs>
       <use xlink:href="#ArialMT-48"/>
       <use x="55.615234" xlink:href="#ArialMT-46"/>
       <use x="83.398438" xlink:href="#ArialMT-56"/>
      </g>
     </g>
    </g>
    <g id="ytick_4">
     <g id="line2d_12">
      <path clip-path="url(#p1b17d3af4b)" d="M 63 110.890364 
L 453.6 110.890364 
" style="fill:none;stroke:#ffffff;stroke-linecap:round;"/>
     </g>
     <g id="text_13">
      <!-- 0.9 -->
      <g style="fill:#262626;" transform="translate(38.21 114.827161)scale(0.11 -0.11)">
       <defs>
        <path d="M 5.46875 16.546875 
L 13.921875 17.328125 
Q 14.984375 11.375 18.015625 8.6875 
Q 21.046875 6 25.78125 6 
Q 29.828125 6 32.875 7.859375 
Q 35.9375 9.71875 37.890625 12.8125 
Q 39.84375 15.921875 41.15625 21.1875 
Q 42.484375 26.46875 42.484375 31.9375 
Q 42.484375 32.515625 42.4375 33.6875 
Q 39.796875 29.5 35.234375 26.875 
Q 30.671875 24.265625 25.34375 24.265625 
Q 16.453125 24.265625 10.296875 30.703125 
Q 4.15625 37.15625 4.15625 47.703125 
Q 4.15625 58.59375 10.578125 65.234375 
Q 17 71.875 26.65625 71.875 
Q 33.640625 71.875 39.421875 68.109375 
Q 45.21875 64.359375 48.21875 57.390625 
Q 51.21875 50.4375 51.21875 37.25 
Q 51.21875 23.53125 48.234375 15.40625 
Q 45.265625 7.28125 39.375 3.03125 
Q 33.5 -1.21875 25.59375 -1.21875 
Q 17.1875 -1.21875 11.859375 3.4375 
Q 6.546875 8.109375 5.46875 16.546875 
z
M 41.453125 48.140625 
Q 41.453125 55.71875 37.421875 60.15625 
Q 33.40625 64.59375 27.734375 64.59375 
Q 21.875 64.59375 17.53125 59.8125 
Q 13.1875 55.03125 13.1875 47.40625 
Q 13.1875 40.578125 17.3125 36.296875 
Q 21.4375 32.03125 27.484375 32.03125 
Q 33.59375 32.03125 37.515625 36.296875 
Q 41.453125 40.578125 41.453125 48.140625 
z
" id="ArialMT-57"/>
       </defs>
       <use xlink:href="#ArialMT-48"/>
       <use x="55.615234" xlink:href="#ArialMT-46"/>
       <use x="83.398438" xlink:href="#ArialMT-57"/>
      </g>
     </g>
    </g>
    <g id="ytick_5">
     <g id="line2d_13">
      <path clip-path="url(#p1b17d3af4b)" d="M 63 55.554545 
L 453.6 55.554545 
" style="fill:none;stroke:#ffffff;stroke-linecap:round;"/>
     </g>
     <g id="text_14">
      <!-- 1.0 -->
      <g style="fill:#262626;" transform="translate(38.21 59.491342)scale(0.11 -0.11)">
       <use xlink:href="#ArialMT-49"/>
       <use x="55.615234" xlink:href="#ArialMT-46"/>
       <use x="83.398438" xlink:href="#ArialMT-48"/>
      </g>
     </g>
    </g>
    <g id="text_15">
     <!-- Survival probability -->
     <g style="fill:#262626;" transform="translate(25.684375 234.778125)rotate(-90)scale(0.12 -0.12)">
      <defs>
       <path d="M 3.609375 23.296875 
L 17.671875 24.65625 
Q 18.953125 17.578125 22.828125 14.25 
Q 26.703125 10.9375 33.296875 10.9375 
Q 40.28125 10.9375 43.8125 13.890625 
Q 47.359375 16.84375 47.359375 20.796875 
Q 47.359375 23.34375 45.875 25.125 
Q 44.390625 26.90625 40.671875 28.21875 
Q 38.140625 29.109375 29.109375 31.34375 
Q 17.484375 34.234375 12.796875 38.421875 
Q 6.203125 44.34375 6.203125 52.828125 
Q 6.203125 58.296875 9.296875 63.0625 
Q 12.40625 67.828125 18.234375 70.3125 
Q 24.078125 72.796875 32.328125 72.796875 
Q 45.796875 72.796875 52.609375 66.890625 
Q 59.421875 60.984375 59.765625 51.125 
L 45.3125 50.484375 
Q 44.390625 56 41.328125 58.421875 
Q 38.28125 60.84375 32.171875 60.84375 
Q 25.875 60.84375 22.3125 58.25 
Q 20.015625 56.59375 20.015625 53.8125 
Q 20.015625 51.265625 22.171875 49.46875 
Q 24.90625 47.171875 35.453125 44.671875 
Q 46 42.1875 51.046875 39.515625 
Q 56.109375 36.859375 58.953125 32.25 
Q 61.8125 27.640625 61.8125 20.84375 
Q 61.8125 14.703125 58.390625 9.328125 
Q 54.984375 3.953125 48.734375 1.34375 
Q 42.484375 -1.265625 33.15625 -1.265625 
Q 19.578125 -1.265625 12.296875 5 
Q 5.03125 11.28125 3.609375 23.296875 
z
" id="Arial-BoldMT-83"/>
       <path d="M 21.4375 0 
L 0.53125 51.859375 
L 14.9375 51.859375 
L 24.703125 25.390625 
L 27.546875 16.546875 
Q 28.65625 19.921875 28.953125 21 
Q 29.640625 23.1875 30.421875 25.390625 
L 40.28125 51.859375 
L 54.390625 51.859375 
L 33.796875 0 
z
" id="Arial-BoldMT-118"/>
       <path d="M 7.171875 58.890625 
L 7.171875 71.578125 
L 20.90625 71.578125 
L 20.90625 58.890625 
z
M 7.171875 0 
L 7.171875 51.859375 
L 20.90625 51.859375 
L 20.90625 0 
z
" id="Arial-BoldMT-105"/>
       <path d="M 17.4375 36.03125 
L 4.984375 38.28125 
Q 7.078125 45.796875 12.203125 49.40625 
Q 17.328125 53.03125 27.4375 53.03125 
Q 36.625 53.03125 41.109375 50.859375 
Q 45.609375 48.6875 47.4375 45.34375 
Q 49.265625 42 49.265625 33.0625 
L 49.125 17.046875 
Q 49.125 10.203125 49.78125 6.953125 
Q 50.4375 3.71875 52.25 0 
L 38.671875 0 
Q 38.140625 1.375 37.359375 4.046875 
Q 37.015625 5.28125 36.859375 5.671875 
Q 33.34375 2.25 29.34375 0.53125 
Q 25.34375 -1.171875 20.796875 -1.171875 
Q 12.796875 -1.171875 8.171875 3.171875 
Q 3.5625 7.515625 3.5625 14.15625 
Q 3.5625 18.5625 5.65625 22 
Q 7.765625 25.4375 11.546875 27.265625 
Q 15.328125 29.109375 22.46875 30.46875 
Q 32.078125 32.28125 35.796875 33.84375 
L 35.796875 35.203125 
Q 35.796875 39.15625 33.84375 40.84375 
Q 31.890625 42.53125 26.46875 42.53125 
Q 22.796875 42.53125 20.75 41.09375 
Q 18.703125 39.65625 17.4375 36.03125 
z
M 35.796875 24.90625 
Q 33.15625 24.03125 27.4375 22.796875 
Q 21.734375 21.578125 19.96875 20.40625 
Q 17.28125 18.5 17.28125 15.578125 
Q 17.28125 12.703125 19.421875 10.59375 
Q 21.578125 8.5 24.90625 8.5 
Q 28.609375 8.5 31.984375 10.9375 
Q 34.46875 12.796875 35.25 15.484375 
Q 35.796875 17.234375 35.796875 22.171875 
z
" id="Arial-BoldMT-97"/>
       <path d="M 7.171875 0 
L 7.171875 71.578125 
L 20.90625 71.578125 
L 20.90625 0 
z
" id="Arial-BoldMT-108"/>
       <path d="M 6.78125 51.859375 
L 19.578125 51.859375 
L 19.578125 44.234375 
Q 22.078125 48.140625 26.3125 50.578125 
Q 30.5625 53.03125 35.75 53.03125 
Q 44.78125 53.03125 51.078125 45.953125 
Q 57.375 38.875 57.375 26.21875 
Q 57.375 13.234375 51.015625 6.03125 
Q 44.671875 -1.171875 35.640625 -1.171875 
Q 31.34375 -1.171875 27.84375 0.53125 
Q 24.359375 2.25 20.515625 6.390625 
L 20.515625 -19.734375 
L 6.78125 -19.734375 
z
M 20.359375 26.8125 
Q 20.359375 18.0625 23.828125 13.890625 
Q 27.296875 9.71875 32.28125 9.71875 
Q 37.0625 9.71875 40.234375 13.546875 
Q 43.40625 17.390625 43.40625 26.125 
Q 43.40625 34.28125 40.125 38.234375 
Q 36.859375 42.1875 32.03125 42.1875 
Q 27 42.1875 23.671875 38.296875 
Q 20.359375 34.421875 20.359375 26.8125 
z
" id="Arial-BoldMT-112"/>
       <path d="M 6.59375 0 
L 6.59375 71.578125 
L 20.3125 71.578125 
L 20.3125 45.796875 
Q 26.65625 53.03125 35.359375 53.03125 
Q 44.828125 53.03125 51.03125 46.171875 
Q 57.234375 39.3125 57.234375 26.46875 
Q 57.234375 13.1875 50.90625 6 
Q 44.578125 -1.171875 35.546875 -1.171875 
Q 31.109375 -1.171875 26.78125 1.046875 
Q 22.46875 3.265625 19.34375 7.625 
L 19.34375 0 
z
M 20.21875 27.046875 
Q 20.21875 19 22.75 15.140625 
Q 26.3125 9.671875 32.234375 9.671875 
Q 36.765625 9.671875 39.96875 13.546875 
Q 43.171875 17.4375 43.171875 25.78125 
Q 43.171875 34.671875 39.9375 38.59375 
Q 36.71875 42.53125 31.6875 42.53125 
Q 26.765625 42.53125 23.484375 38.6875 
Q 20.21875 34.859375 20.21875 27.046875 
z
" id="Arial-BoldMT-98"/>
       <path d="M 0.6875 51.859375 
L 15.28125 51.859375 
L 27.6875 15.046875 
L 39.796875 51.859375 
L 54 51.859375 
L 35.6875 1.953125 
L 32.421875 -7.078125 
Q 30.609375 -11.625 28.96875 -14.015625 
Q 27.34375 -16.40625 25.21875 -17.890625 
Q 23.09375 -19.390625 19.984375 -20.21875 
Q 16.890625 -21.046875 12.984375 -21.046875 
Q 9.03125 -21.046875 5.21875 -20.21875 
L 4 -9.46875 
Q 7.234375 -10.109375 9.8125 -10.109375 
Q 14.59375 -10.109375 16.890625 -7.296875 
Q 19.1875 -4.5 20.40625 -0.140625 
z
" id="Arial-BoldMT-121"/>
      </defs>
      <use xlink:href="#Arial-BoldMT-83"/>
      <use x="66.699219" xlink:href="#Arial-BoldMT-117"/>
      <use x="127.783203" xlink:href="#Arial-BoldMT-114"/>
      <use x="166.699219" xlink:href="#Arial-BoldMT-118"/>
      <use x="222.314453" xlink:href="#Arial-BoldMT-105"/>
      <use x="250.097656" xlink:href="#Arial-BoldMT-118"/>
      <use x="305.712891" xlink:href="#Arial-BoldMT-97"/>
      <use x="361.328125" xlink:href="#Arial-BoldMT-108"/>
      <use x="389.111328" xlink:href="#Arial-BoldMT-32"/>
      <use x="416.894531" xlink:href="#Arial-BoldMT-112"/>
      <use x="477.978516" xlink:href="#Arial-BoldMT-114"/>
      <use x="516.894531" xlink:href="#Arial-BoldMT-111"/>
      <use x="577.978516" xlink:href="#Arial-BoldMT-98"/>
      <use x="639.0625" xlink:href="#Arial-BoldMT-97"/>
      <use x="694.677734" xlink:href="#Arial-BoldMT-98"/>
      <use x="755.761719" xlink:href="#Arial-BoldMT-105"/>
      <use x="783.544922" xlink:href="#Arial-BoldMT-108"/>
      <use x="811.328125" xlink:href="#Arial-BoldMT-105"/>
      <use x="839.111328" xlink:href="#Arial-BoldMT-116"/>
      <use x="872.412109" xlink:href="#Arial-BoldMT-121"/>
     </g>
    </g>
   </g>
   <g id="PolyCollection_1">
    <defs>
     <path d="M 80.754545 -304.445455 
L 80.754545 -304.445455 
L 85.686364 -304.445455 
L 85.686364 -270.47019 
L 90.618182 -270.47019 
L 90.618182 -258.659588 
L 95.55 -258.659588 
L 95.55 -249.864996 
L 100.481818 -249.864996 
L 100.481818 -241.494597 
L 105.413636 -241.494597 
L 105.413636 -235.912346 
L 110.345455 -235.912346 
L 110.345455 -231.726516 
L 115.277273 -231.726516 
L 115.277273 -227.488053 
L 120.209091 -227.488053 
L 120.209091 -223.189566 
L 125.140909 -223.189566 
L 125.140909 -218.44754 
L 130.072727 -218.44754 
L 130.072727 -215.381438 
L 135.004545 -215.381438 
L 135.004545 -211.692031 
L 139.936364 -211.692031 
L 139.936364 -207.759457 
L 144.868182 -207.759457 
L 144.868182 -203.758684 
L 149.8 -203.758684 
L 149.8 -200.709457 
L 154.731818 -200.709457 
L 154.731818 -196.188174 
L 159.663636 -196.188174 
L 159.663636 -192.433656 
L 164.595455 -192.433656 
L 164.595455 -189.694013 
L 169.527273 -189.694013 
L 169.527273 -187.135414 
L 174.459091 -187.135414 
L 174.459091 -186.050895 
L 179.390909 -186.050895 
L 179.390909 -184.294611 
L 184.322727 -184.294611 
L 184.322727 -182.292675 
L 189.254545 -182.292675 
L 189.254545 -179.82097 
L 194.186364 -179.82097 
L 194.186364 -178.680229 
L 199.118182 -178.680229 
L 199.118182 -177.280586 
L 204.05 -177.280586 
L 204.05 -174.196445 
L 208.981818 -174.196445 
L 208.981818 -172.030488 
L 213.913636 -172.030488 
L 213.913636 -170.313665 
L 218.845455 -170.313665 
L 218.845455 -168.327338 
L 223.777273 -168.327338 
L 223.777273 -166.564265 
L 228.709091 -166.564265 
L 228.709091 -163.75345 
L 233.640909 -163.75345 
L 233.640909 -161.162183 
L 238.572727 -161.162183 
L 238.572727 -159.589726 
L 243.504545 -159.589726 
L 243.504545 -157.192785 
L 248.436364 -157.192785 
L 248.436364 -154.761307 
L 253.368182 -154.761307 
L 253.368182 -152.840839 
L 258.3 -152.840839 
L 258.3 -151.999253 
L 263.231818 -151.999253 
L 263.231818 -149.148095 
L 268.163636 -149.148095 
L 268.163636 -147.117825 
L 273.095455 -147.117825 
L 273.095455 -144.765038 
L 278.027273 -144.765038 
L 278.027273 -142.976491 
L 282.959091 -142.976491 
L 282.959091 -140.851063 
L 287.890909 -140.851063 
L 287.890909 -137.730492 
L 292.822727 -137.730492 
L 292.822727 -135.499896 
L 297.754545 -135.499896 
L 297.754545 -134.848946 
L 302.686364 -134.848946 
L 302.686364 -133.860295 
L 307.618182 -133.860295 
L 307.618182 -132.172871 
L 312.55 -132.172871 
L 312.55 -129.735044 
L 317.481818 -129.735044 
L 317.481818 -126.878867 
L 322.413636 -126.878867 
L 322.413636 -125.034494 
L 327.345455 -125.034494 
L 327.345455 -122.756152 
L 332.277273 -122.756152 
L 332.277273 -122.365528 
L 337.209091 -122.365528 
L 337.209091 -121.562614 
L 342.140909 -121.562614 
L 342.140909 -119.482724 
L 347.072727 -119.482724 
L 347.072727 -115.614467 
L 352.004545 -115.614467 
L 352.004545 -114.291151 
L 356.936364 -114.291151 
L 356.936364 -111.993416 
L 361.868182 -111.993416 
L 361.868182 -110.062093 
L 366.8 -110.062093 
L 366.8 -107.557467 
L 371.731818 -107.557467 
L 371.731818 -107.033602 
L 376.663636 -107.033602 
L 376.663636 -105.391085 
L 381.595455 -105.391085 
L 381.595455 -103.080099 
L 386.527273 -103.080099 
L 386.527273 -101.856413 
L 391.459091 -101.856413 
L 391.459091 -99.926467 
L 396.390909 -99.926467 
L 396.390909 -97.899885 
L 401.322727 -97.899885 
L 401.322727 -95.712832 
L 406.254545 -95.712832 
L 406.254545 -92.560935 
L 411.186364 -92.560935 
L 411.186364 -90.012949 
L 416.118182 -90.012949 
L 416.118182 -86.247495 
L 421.05 -86.247495 
L 421.05 -85.179381 
L 425.981818 -85.179381 
L 425.981818 -79.130839 
L 430.913636 -79.130839 
L 430.913636 -77.620046 
L 435.845455 -77.620046 
L 435.845455 -70.533303 
L 435.845455 -99.733856 
L 435.845455 -99.733856 
L 435.845455 -104.254663 
L 430.913636 -104.254663 
L 430.913636 -105.370211 
L 425.981818 -105.370211 
L 425.981818 -110.08848 
L 421.05 -110.08848 
L 421.05 -110.940989 
L 416.118182 -110.940989 
L 416.118182 -114.024269 
L 411.186364 -114.024269 
L 411.186364 -116.145614 
L 406.254545 -116.145614 
L 406.254545 -118.797541 
L 401.322727 -118.797541 
L 401.322727 -120.65817 
L 396.390909 -120.65817 
L 396.390909 -122.402052 
L 391.459091 -122.402052 
L 391.459091 -124.07284 
L 386.527273 -124.07284 
L 386.527273 -125.1394 
L 381.595455 -125.1394 
L 381.595455 -127.169043 
L 376.663636 -127.169043 
L 376.663636 -128.62095 
L 371.731818 -128.62095 
L 371.731818 -129.086747 
L 366.8 -129.086747 
L 366.8 -131.325658 
L 361.868182 -131.325658 
L 361.868182 -133.057504 
L 356.936364 -133.057504 
L 356.936364 -135.128494 
L 352.004545 -135.128494 
L 352.004545 -136.326097 
L 347.072727 -136.326097 
L 347.072727 -139.830686 
L 342.140909 -139.830686 
L 342.140909 -141.718104 
L 337.209091 -141.718104 
L 337.209091 -142.449274 
L 332.277273 -142.449274 
L 332.277273 -142.80611 
L 327.345455 -142.80611 
L 327.345455 -144.892721 
L 322.413636 -144.892721 
L 322.413636 -146.585212 
L 317.481818 -146.585212 
L 317.481818 -149.211912 
L 312.55 -149.211912 
L 312.55 -151.455958 
L 307.618182 -151.455958 
L 307.618182 -153.012682 
L 302.686364 -153.012682 
L 302.686364 -153.926424 
L 297.754545 -153.926424 
L 297.754545 -154.528568 
L 292.822727 -154.528568 
L 292.822727 -156.594864 
L 287.890909 -156.594864 
L 287.890909 -159.486935 
L 282.959091 -159.486935 
L 282.959091 -161.459174 
L 278.027273 -161.459174 
L 278.027273 -163.119964 
L 273.095455 -163.119964 
L 273.095455 -165.304807 
L 268.163636 -165.304807 
L 268.163636 -167.190169 
L 263.231818 -167.190169 
L 263.231818 -169.838329 
L 258.3 -169.838329 
L 258.3 -170.620384 
L 253.368182 -170.620384 
L 253.368182 -172.407664 
L 248.436364 -172.407664 
L 248.436364 -174.670941 
L 243.504545 -174.670941 
L 243.504545 -176.901858 
L 238.572727 -176.901858 
L 238.572727 -178.365955 
L 233.640909 -178.365955 
L 233.640909 -180.778181 
L 228.709091 -180.778181 
L 228.709091 -183.393894 
L 223.777273 -183.393894 
L 223.777273 -185.03455 
L 218.845455 -185.03455 
L 218.845455 -186.883397 
L 213.913636 -186.883397 
L 213.913636 -188.481451 
L 208.981818 -188.481451 
L 208.981818 -190.498917 
L 204.05 -190.498917 
L 204.05 -193.370835 
L 199.118182 -193.370835 
L 199.118182 -194.674471 
L 194.186364 -194.674471 
L 194.186364 -195.738474 
L 189.254545 -195.738474 
L 189.254545 -198.044746 
L 184.322727 -198.044746 
L 184.322727 -199.911876 
L 179.390909 -199.911876 
L 179.390909 -201.550043 
L 174.459091 -201.550043 
L 174.459091 -202.561903 
L 169.527273 -202.561903 
L 169.527273 -204.950333 
L 164.595455 -204.950333 
L 164.595455 -207.506339 
L 159.663636 -207.506339 
L 159.663636 -211.005302 
L 154.731818 -211.005302 
L 154.731818 -215.213337 
L 149.8 -215.213337 
L 149.8 -218.046984 
L 144.868182 -218.046984 
L 144.868182 -221.761603 
L 139.936364 -221.761603 
L 139.936364 -225.408705 
L 135.004545 -225.408705 
L 135.004545 -228.824898 
L 130.072727 -228.824898 
L 130.072727 -231.660371 
L 125.140909 -231.660371 
L 125.140909 -236.036651 
L 120.209091 -236.036651 
L 120.209091 -239.994717 
L 115.277273 -239.994717 
L 115.277273 -243.88864 
L 110.345455 -243.88864 
L 110.345455 -247.724316 
L 105.413636 -247.724316 
L 105.413636 -252.820725 
L 100.481818 -252.820725 
L 100.481818 -260.413263 
L 95.55 -260.413263 
L 95.55 -268.31351 
L 90.618182 -268.31351 
L 90.618182 -278.757667 
L 85.686364 -278.757667 
L 85.686364 -304.445455 
L 80.754545 -304.445455 
z
" id="m6206fe27b5" style="stroke:#4c72b0;stroke-opacity:0.25;"/>
    </defs>
    <g clip-path="url(#p1b17d3af4b)">
     <use style="fill:#4c72b0;fill-opacity:0.25;stroke:#4c72b0;stroke-opacity:0.25;" x="0" xlink:href="#m6206fe27b5" y="360"/>
    </g>
   </g>
   <g id="PolyCollection_2">
    <defs>
     <path d="M 80.754545 -304.445455 
L 80.754545 -304.445455 
L 85.686364 -304.445455 
L 85.686364 -269.772031 
L 90.618182 -269.772031 
L 90.618182 -260.288652 
L 95.55 -260.288652 
L 95.55 -252.622357 
L 100.481818 -252.622357 
L 100.481818 -246.260066 
L 105.413636 -246.260066 
L 105.413636 -240.340481 
L 110.345455 -240.340481 
L 110.345455 -237.260381 
L 115.277273 -237.260381 
L 115.277273 -232.137091 
L 120.209091 -232.137091 
L 120.209091 -228.615773 
L 125.140909 -228.615773 
L 125.140909 -224.6709 
L 130.072727 -224.6709 
L 130.072727 -219.138245 
L 135.004545 -219.138245 
L 135.004545 -216.818696 
L 139.936364 -216.818696 
L 139.936364 -213.29237 
L 144.868182 -213.29237 
L 144.868182 -209.716575 
L 149.8 -209.716575 
L 149.8 -207.905487 
L 154.731818 -207.905487 
L 154.731818 -204.856299 
L 159.663636 -204.856299 
L 159.663636 -202.800644 
L 164.595455 -202.800644 
L 164.595455 -200.096256 
L 169.527273 -200.096256 
L 169.527273 -197.561264 
L 174.459091 -197.561264 
L 174.459091 -194.554218 
L 179.390909 -194.554218 
L 179.390909 -192.377841 
L 184.322727 -192.377841 
L 184.322727 -190.615414 
L 189.254545 -190.615414 
L 189.254545 -187.049348 
L 194.186364 -187.049348 
L 194.186364 -185.237509 
L 199.118182 -185.237509 
L 199.118182 -181.330234 
L 204.05 -181.330234 
L 204.05 -178.985613 
L 208.981818 -178.985613 
L 208.981818 -177.557114 
L 213.913636 -177.557114 
L 213.913636 -176.105059 
L 218.845455 -176.105059 
L 218.845455 -175.116648 
L 223.777273 -175.116648 
L 223.777273 -173.117661 
L 228.709091 -173.117661 
L 228.709091 -171.844978 
L 233.640909 -171.844978 
L 233.640909 -170.288488 
L 238.572727 -170.288488 
L 238.572727 -166.855739 
L 243.504545 -166.855739 
L 243.504545 -165.516292 
L 248.436364 -165.516292 
L 248.436364 -164.69871 
L 253.368182 -164.69871 
L 253.368182 -162.477429 
L 258.3 -162.477429 
L 258.3 -160.481682 
L 263.231818 -160.481682 
L 263.231818 -159.041136 
L 268.163636 -159.041136 
L 268.163636 -157.28263 
L 273.095455 -157.28263 
L 273.095455 -155.491897 
L 278.027273 -155.491897 
L 278.027273 -153.368468 
L 282.959091 -153.368468 
L 282.959091 -151.204642 
L 287.890909 -151.204642 
L 287.890909 -149.949728 
L 292.822727 -149.949728 
L 292.822727 -147.393828 
L 297.754545 -147.393828 
L 297.754545 -146.091821 
L 302.686364 -146.091821 
L 302.686364 -145.091128 
L 307.618182 -145.091128 
L 307.618182 -142.703551 
L 312.55 -142.703551 
L 312.55 -140.263554 
L 317.481818 -140.263554 
L 317.481818 -139.906929 
L 322.413636 -139.906929 
L 322.413636 -136.277721 
L 327.345455 -136.277721 
L 327.345455 -134.798656 
L 332.277273 -134.798656 
L 332.277273 -132.136187 
L 337.209091 -132.136187 
L 337.209091 -129.777159 
L 342.140909 -129.777159 
L 342.140909 -126.095662 
L 347.072727 -126.095662 
L 347.072727 -124.414271 
L 352.004545 -124.414271 
L 352.004545 -121.801365 
L 356.936364 -121.801365 
L 356.936364 -119.572132 
L 361.868182 -119.572132 
L 361.868182 -117.721716 
L 366.8 -117.721716 
L 366.8 -114.845234 
L 371.731818 -114.845234 
L 371.731818 -111.386988 
L 376.663636 -111.386988 
L 376.663636 -109.861374 
L 381.595455 -109.861374 
L 381.595455 -107.724141 
L 386.527273 -107.724141 
L 386.527273 -106.040543 
L 391.459091 -106.040543 
L 391.459091 -105.446181 
L 396.390909 -105.446181 
L 396.390909 -104.808559 
L 401.322727 -104.808559 
L 401.322727 -100.720555 
L 406.254545 -100.720555 
L 406.254545 -94.24363 
L 411.186364 -94.24363 
L 411.186364 -88.744286 
L 416.118182 -88.744286 
L 416.118182 -84.362751 
L 421.05 -84.362751 
L 421.05 -77.423309 
L 425.981818 -77.423309 
L 425.981818 -70.541829 
L 430.913636 -70.541829 
L 430.913636 -63.626294 
L 435.845455 -63.626294 
L 435.845455 -57.354545 
L 435.845455 -88.711852 
L 435.845455 -88.711852 
L 435.845455 -93.110438 
L 430.913636 -93.110438 
L 430.913636 -98.537959 
L 425.981818 -98.537959 
L 425.981818 -104.116401 
L 421.05 -104.116401 
L 421.05 -109.854764 
L 416.118182 -109.854764 
L 416.118182 -113.537282 
L 411.186364 -113.537282 
L 411.186364 -118.224728 
L 406.254545 -118.224728 
L 406.254545 -123.785891 
L 401.322727 -123.785891 
L 401.322727 -127.302002 
L 396.390909 -127.302002 
L 396.390909 -127.855182 
L 391.459091 -127.855182 
L 391.459091 -128.376924 
L 386.527273 -128.376924 
L 386.527273 -129.867172 
L 381.595455 -129.867172 
L 381.595455 -131.769763 
L 376.663636 -131.769763 
L 376.663636 -133.135635 
L 371.731818 -133.135635 
L 371.731818 -136.236945 
L 366.8 -136.236945 
L 366.8 -138.819224 
L 361.868182 -138.819224 
L 361.868182 -140.484983 
L 356.936364 -140.484983 
L 356.936364 -142.498323 
L 352.004545 -142.498323 
L 352.004545 -144.860295 
L 347.072727 -144.860295 
L 347.072727 -146.38455 
L 342.140909 -146.38455 
L 342.140909 -149.725893 
L 337.209091 -149.725893 
L 337.209091 -151.872338 
L 332.277273 -151.872338 
L 332.277273 -154.299983 
L 327.345455 -154.299983 
L 327.345455 -155.651065 
L 322.413636 -155.651065 
L 322.413636 -158.966727 
L 317.481818 -158.966727 
L 317.481818 -159.292696 
L 312.55 -159.292696 
L 312.55 -161.526733 
L 307.618182 -161.526733 
L 307.618182 -163.714202 
L 302.686364 -163.714202 
L 302.686364 -164.632243 
L 297.754545 -164.632243 
L 297.754545 -165.829163 
L 292.822727 -165.829163 
L 292.822727 -168.180395 
L 287.890909 -168.180395 
L 287.890909 -169.335561 
L 282.959091 -169.335561 
L 282.959091 -171.328182 
L 278.027273 -171.328182 
L 278.027273 -173.284626 
L 273.095455 -173.284626 
L 273.095455 -174.935128 
L 268.163636 -174.935128 
L 268.163636 -176.557101 
L 263.231818 -176.557101 
L 263.231818 -177.886775 
L 258.3 -177.886775 
L 258.3 -179.72869 
L 253.368182 -179.72869 
L 253.368182 -181.78162 
L 248.436364 -181.78162 
L 248.436364 -182.537955 
L 243.504545 -182.537955 
L 243.504545 -183.778436 
L 238.572727 -183.778436 
L 238.572727 -186.95705 
L 233.640909 -186.95705 
L 233.640909 -188.398468 
L 228.709091 -188.398468 
L 228.709091 -189.578279 
L 223.777273 -189.578279 
L 223.777273 -191.43291 
L 218.845455 -191.43291 
L 218.845455 -192.35006 
L 213.913636 -192.35006 
L 213.913636 -193.699244 
L 208.981818 -193.699244 
L 208.981818 -195.027491 
L 204.05 -195.027491 
L 204.05 -197.208222 
L 199.118182 -197.208222 
L 199.118182 -200.842096 
L 194.186364 -200.842096 
L 194.186364 -202.526394 
L 189.254545 -202.526394 
L 189.254545 -205.840726 
L 184.322727 -205.840726 
L 184.322727 -207.477645 
L 179.390909 -207.477645 
L 179.390909 -209.498752 
L 174.459091 -209.498752 
L 174.459091 -212.289897 
L 169.527273 -212.289897 
L 169.527273 -214.642201 
L 164.595455 -214.642201 
L 164.595455 -217.150876 
L 159.663636 -217.150876 
L 159.663636 -219.056771 
L 154.731818 -219.056771 
L 154.731818 -221.88171 
L 149.8 -221.88171 
L 149.8 -223.558276 
L 144.868182 -223.558276 
L 144.868182 -226.866028 
L 139.936364 -226.866028 
L 139.936364 -230.123632 
L 135.004545 -230.123632 
L 135.004545 -232.264359 
L 130.072727 -232.264359 
L 130.072727 -237.360816 
L 125.140909 -237.360816 
L 125.140909 -240.985645 
L 120.209091 -240.985645 
L 120.209091 -244.214905 
L 115.277273 -244.214905 
L 115.277273 -248.90022 
L 110.345455 -248.90022 
L 110.345455 -251.708256 
L 105.413636 -251.708256 
L 105.413636 -257.084184 
L 100.481818 -257.084184 
L 100.481818 -262.828841 
L 95.55 -262.828841 
L 95.55 -269.694413 
L 90.618182 -269.694413 
L 90.618182 -278.071831 
L 85.686364 -278.071831 
L 85.686364 -304.445455 
L 80.754545 -304.445455 
z
" id="m1958306198" style="stroke:#dd8452;stroke-opacity:0.25;"/>
    </defs>
    <g clip-path="url(#p1b17d3af4b)">
     <use style="fill:#dd8452;fill-opacity:0.25;stroke:#dd8452;stroke-opacity:0.25;" x="0" xlink:href="#m1958306198" y="360"/>
    </g>
   </g>
   <g id="line2d_14">
    <path clip-path="url(#p1b17d3af4b)" d="M 80.754545 55.554545 
L 85.686364 55.554545 
L 85.686364 85.105112 
L 90.618182 85.105112 
L 90.618182 96.239504 
L 95.55 96.239504 
L 95.55 104.591951 
L 100.481818 104.591951 
L 100.481818 112.578163 
L 105.413636 112.578163 
L 105.413636 117.920653 
L 110.345455 117.920653 
L 110.345455 121.933737 
L 115.277273 121.933737 
L 115.277273 126.002214 
L 120.209091 126.002214 
L 120.209091 130.132724 
L 125.140909 130.132724 
L 125.140909 134.694272 
L 130.072727 134.694272 
L 130.072727 137.646604 
L 135.004545 137.646604 
L 135.004545 141.201212 
L 139.936364 141.201212 
L 139.936364 144.992955 
L 144.868182 144.992955 
L 144.868182 148.852521 
L 149.8 148.852521 
L 149.8 151.795337 
L 154.731818 151.795337 
L 154.731818 156.162068 
L 159.663636 156.162068 
L 159.663636 159.790524 
L 164.595455 159.790524 
L 164.595455 162.439612 
L 169.527273 162.439612 
L 169.527273 164.914289 
L 174.459091 164.914289 
L 174.459091 165.962939 
L 179.390909 165.962939 
L 179.390909 167.660878 
L 184.322727 167.660878 
L 184.322727 169.596193 
L 189.254545 169.596193 
L 189.254545 171.986145 
L 194.186364 171.986145 
L 194.186364 173.088938 
L 199.118182 173.088938 
L 199.118182 174.441028 
L 204.05 174.441028 
L 204.05 177.420001 
L 208.981818 177.420001 
L 208.981818 179.512369 
L 213.913636 179.512369 
L 213.913636 181.170285 
L 218.845455 181.170285 
L 218.845455 183.088413 
L 223.777273 183.088413 
L 223.777273 184.790737 
L 228.709091 184.790737 
L 228.709091 187.504723 
L 233.640909 187.504723 
L 233.640909 190.007146 
L 238.572727 190.007146 
L 238.572727 191.525837 
L 243.504545 191.525837 
L 243.504545 193.840367 
L 248.436364 193.840367 
L 248.436364 196.188357 
L 253.368182 196.188357 
L 253.368182 198.042702 
L 258.3 198.042702 
L 258.3 198.854699 
L 263.231818 198.854699 
L 263.231818 201.60492 
L 268.163636 201.60492 
L 268.163636 203.563131 
L 273.095455 203.563131 
L 273.095455 205.832408 
L 278.027273 205.832408 
L 278.027273 207.557431 
L 282.959091 207.557431 
L 282.959091 209.606655 
L 287.890909 209.606655 
L 287.890909 212.613478 
L 292.822727 212.613478 
L 292.822727 214.762274 
L 297.754545 214.762274 
L 297.754545 215.388904 
L 302.686364 215.388904 
L 302.686364 216.340211 
L 307.618182 216.340211 
L 307.618182 217.962411 
L 312.55 217.962411 
L 312.55 220.303431 
L 317.481818 220.303431 
L 317.481818 223.044943 
L 322.413636 223.044943 
L 322.413636 224.813356 
L 327.345455 224.813356 
L 327.345455 226.995739 
L 332.277273 226.995739 
L 332.277273 227.369435 
L 337.209091 227.369435 
L 337.209091 228.136356 
L 342.140909 228.136356 
L 342.140909 230.119566 
L 347.072727 230.119566 
L 347.072727 233.805121 
L 352.004545 233.805121 
L 352.004545 235.065281 
L 356.936364 235.065281 
L 356.936364 237.24897 
L 361.868182 237.24897 
L 361.868182 239.079826 
L 366.8 239.079826 
L 366.8 241.45055 
L 371.731818 241.45055 
L 371.731818 241.945115 
L 376.663636 241.945115 
L 376.663636 243.491327 
L 381.595455 243.491327 
L 381.595455 245.66 
L 386.527273 245.66 
L 386.527273 246.804103 
L 391.459091 246.804103 
L 391.459091 248.602656 
L 396.390909 248.602656 
L 396.390909 250.48581 
L 401.322727 250.48581 
L 401.322727 252.507014 
L 406.254545 252.507014 
L 406.254545 255.404622 
L 411.186364 255.404622 
L 411.186364 257.735444 
L 416.118182 257.735444 
L 416.118182 261.153228 
L 421.05 261.153228 
L 421.05 262.111243 
L 425.981818 262.111243 
L 425.981818 267.479687 
L 430.913636 267.479687 
L 430.913636 268.78786 
L 435.845455 268.78786 
L 435.845455 274.552688 
L 435.845455 274.552688 
" style="fill:none;stroke:#4c72b0;stroke-linecap:round;stroke-width:1.5;"/>
   </g>
   <g id="line2d_15">
    <path clip-path="url(#p1b17d3af4b)" d="M 80.754545 55.554545 
L 85.686364 55.554545 
L 85.686364 85.802922 
L 90.618182 85.802922 
L 90.618182 94.738028 
L 95.55 94.738028 
L 95.55 102.00785 
L 100.481818 102.00785 
L 100.481818 108.064463 
L 105.413636 108.064463 
L 105.413636 113.715059 
L 110.345455 113.715059 
L 110.345455 116.660602 
L 115.277273 116.660602 
L 115.277273 121.567351 
L 120.209091 121.567351 
L 120.209091 124.944289 
L 125.140909 124.944289 
L 125.140909 128.730927 
L 130.072727 128.730927 
L 130.072727 134.047946 
L 135.004545 134.047946 
L 135.004545 136.279104 
L 139.936364 136.279104 
L 139.936364 139.672564 
L 144.868182 139.672564 
L 144.868182 143.115827 
L 149.8 143.115827 
L 149.8 144.860385 
L 154.731818 144.860385 
L 154.731818 147.798665 
L 159.663636 147.798665 
L 159.663636 149.780246 
L 164.595455 149.780246 
L 164.595455 152.387814 
L 169.527273 152.387814 
L 169.527273 154.832392 
L 174.459091 154.832392 
L 174.459091 157.73254 
L 179.390909 157.73254 
L 179.390909 159.832029 
L 184.322727 159.832029 
L 184.322727 161.532287 
L 189.254545 161.532287 
L 189.254545 164.973676 
L 194.186364 164.973676 
L 194.186364 166.722328 
L 199.118182 166.722328 
L 199.118182 170.494147 
L 204.05 170.494147 
L 204.05 172.757537 
L 208.981818 172.757537 
L 208.981818 174.136321 
L 213.913636 174.136321 
L 213.913636 175.537319 
L 218.845455 175.537319 
L 218.845455 176.490316 
L 223.777273 176.490316 
L 223.777273 178.417547 
L 228.709091 178.417547 
L 228.709091 179.644029 
L 233.640909 179.644029 
L 233.640909 181.143221 
L 238.572727 181.143221 
L 238.572727 184.449406 
L 243.504545 184.449406 
L 243.504545 185.739568 
L 248.436364 185.739568 
L 248.436364 186.526623 
L 253.368182 186.526623 
L 253.368182 188.663934 
L 258.3 188.663934 
L 258.3 190.582879 
L 263.231818 190.582879 
L 263.231818 191.968077 
L 268.163636 191.968077 
L 268.163636 193.658393 
L 273.095455 193.658393 
L 273.095455 195.37906 
L 278.027273 195.37906 
L 278.027273 197.419043 
L 282.959091 197.419043 
L 282.959091 199.497294 
L 287.890909 199.497294 
L 287.890909 200.702343 
L 292.822727 200.702343 
L 292.822727 203.155899 
L 297.754545 203.155899 
L 297.754545 204.405343 
L 302.686364 204.405343 
L 302.686364 205.364649 
L 307.618182 205.364649 
L 307.618182 207.651966 
L 312.55 207.651966 
L 312.55 209.988759 
L 317.481818 209.988759 
L 317.481818 210.330012 
L 322.413636 210.330012 
L 322.413636 213.801987 
L 327.345455 213.801987 
L 327.345455 215.216886 
L 332.277273 215.216886 
L 332.277273 217.76155 
L 337.209091 217.76155 
L 337.209091 220.01386 
L 342.140909 220.01386 
L 342.140909 223.524482 
L 347.072727 223.524482 
L 347.072727 225.126928 
L 352.004545 225.126928 
L 352.004545 227.613661 
L 356.936364 227.613661 
L 356.936364 229.734346 
L 361.868182 229.734346 
L 361.868182 231.491835 
L 366.8 231.491835 
L 366.8 234.220179 
L 371.731818 234.220179 
L 371.731818 237.498739 
L 376.663636 237.498739 
L 376.663636 238.94393 
L 381.595455 238.94393 
L 381.595455 240.962859 
L 386.527273 240.962859 
L 386.527273 242.54885 
L 391.459091 242.54885 
L 391.459091 243.106481 
L 396.390909 243.106481 
L 396.390909 243.701288 
L 401.322727 243.701288 
L 401.322727 247.498981 
L 406.254545 247.498981 
L 406.254545 253.511409 
L 411.186364 253.511409 
L 411.186364 258.598954 
L 416.118182 258.598954 
L 416.118182 262.625549 
L 421.05 262.625549 
L 421.05 268.954558 
L 425.981818 268.954558 
L 425.981818 275.173305 
L 430.913636 275.173305 
L 430.913636 281.330859 
L 435.845455 281.330859 
L 435.845455 286.642998 
L 435.845455 286.642998 
" style="fill:none;stroke:#dd8452;stroke-linecap:round;stroke-width:1.5;"/>
   </g>
   <g id="patch_3">
    <path d="M 63 315 
L 63 43.2 
" style="fill:none;stroke:#ffffff;stroke-linecap:square;stroke-linejoin:miter;stroke-width:1.25;"/>
   </g>
   <g id="patch_4">
    <path d="M 453.6 315 
L 453.6 43.2 
" style="fill:none;stroke:#ffffff;stroke-linecap:square;stroke-linejoin:miter;stroke-width:1.25;"/>
   </g>
   <g id="patch_5">
    <path d="M 63 315 
L 453.6 315 
" style="fill:none;stroke:#ffffff;stroke-linecap:square;stroke-linejoin:miter;stroke-width:1.25;"/>
   </g>
   <g id="patch_6">
    <path d="M 63 43.2 
L 453.6 43.2 
" style="fill:none;stroke:#ffffff;stroke-linecap:square;stroke-linejoin:miter;stroke-width:1.25;"/>
   </g>
   <g id="text_16">
    <!-- Survival curves, stratified by gender -->
    <g style="fill:#262626;" transform="translate(154.933125 33.2)scale(0.12 -0.12)">
     <defs>
      <path d="M 52.390625 36.53125 
L 38.875 34.078125 
Q 38.1875 38.140625 35.765625 40.1875 
Q 33.34375 42.234375 29.5 42.234375 
Q 24.359375 42.234375 21.3125 38.6875 
Q 18.265625 35.15625 18.265625 26.859375 
Q 18.265625 17.625 21.359375 13.8125 
Q 24.46875 10.015625 29.6875 10.015625 
Q 33.59375 10.015625 36.078125 12.234375 
Q 38.578125 14.453125 39.59375 19.875 
L 53.078125 17.578125 
Q 50.984375 8.296875 45.015625 3.5625 
Q 39.0625 -1.171875 29.046875 -1.171875 
Q 17.671875 -1.171875 10.90625 6 
Q 4.15625 13.1875 4.15625 25.875 
Q 4.15625 38.71875 10.9375 45.875 
Q 17.71875 53.03125 29.296875 53.03125 
Q 38.765625 53.03125 44.359375 48.953125 
Q 49.953125 44.875 52.390625 36.53125 
z
" id="Arial-BoldMT-99"/>
      <path d="M 6.84375 13.71875 
L 20.5625 13.71875 
L 20.5625 3.90625 
Q 20.5625 -2.046875 19.53125 -5.484375 
Q 18.5 -8.9375 15.640625 -11.671875 
Q 12.796875 -14.40625 8.40625 -15.96875 
L 5.71875 -10.296875 
Q 9.859375 -8.9375 11.609375 -6.546875 
Q 13.375 -4.15625 13.484375 0 
L 6.84375 0 
z
" id="Arial-BoldMT-44"/>
      <path d="M 1.171875 51.859375 
L 8.796875 51.859375 
L 8.796875 55.765625 
Q 8.796875 62.3125 10.1875 65.53125 
Q 11.578125 68.75 15.3125 70.765625 
Q 19.046875 72.796875 24.75 72.796875 
Q 30.609375 72.796875 36.234375 71.046875 
L 34.375 61.46875 
Q 31.109375 62.25 28.078125 62.25 
Q 25.09375 62.25 23.796875 60.859375 
Q 22.515625 59.46875 22.515625 55.515625 
L 22.515625 51.859375 
L 32.765625 51.859375 
L 32.765625 41.0625 
L 22.515625 41.0625 
L 22.515625 0 
L 8.796875 0 
L 8.796875 41.0625 
L 1.171875 41.0625 
z
" id="Arial-BoldMT-102"/>
      <path d="M 54.734375 0 
L 42 0 
L 42 7.625 
Q 38.8125 3.171875 34.484375 1 
Q 30.171875 -1.171875 25.78125 -1.171875 
Q 16.84375 -1.171875 10.46875 6.03125 
Q 4.109375 13.234375 4.109375 26.125 
Q 4.109375 39.3125 10.296875 46.171875 
Q 16.5 53.03125 25.984375 53.03125 
Q 34.671875 53.03125 41.015625 45.796875 
L 41.015625 71.578125 
L 54.734375 71.578125 
z
M 18.109375 27.046875 
Q 18.109375 18.75 20.40625 15.046875 
Q 23.734375 9.671875 29.6875 9.671875 
Q 34.421875 9.671875 37.734375 13.6875 
Q 41.0625 17.71875 41.0625 25.734375 
Q 41.0625 34.671875 37.84375 38.59375 
Q 34.625 42.53125 29.59375 42.53125 
Q 24.703125 42.53125 21.40625 38.640625 
Q 18.109375 34.765625 18.109375 27.046875 
z
" id="Arial-BoldMT-100"/>
      <path d="M 5.90625 -3.421875 
L 21.578125 -5.328125 
Q 21.96875 -8.0625 23.390625 -9.078125 
Q 25.34375 -10.546875 29.546875 -10.546875 
Q 34.90625 -10.546875 37.59375 -8.9375 
Q 39.40625 -7.859375 40.328125 -5.46875 
Q 40.96875 -3.765625 40.96875 0.828125 
L 40.96875 8.40625 
Q 34.8125 0 25.4375 0 
Q 14.984375 0 8.890625 8.84375 
Q 4.109375 15.828125 4.109375 26.21875 
Q 4.109375 39.265625 10.375 46.140625 
Q 16.65625 53.03125 25.984375 53.03125 
Q 35.59375 53.03125 41.84375 44.578125 
L 41.84375 51.859375 
L 54.6875 51.859375 
L 54.6875 5.328125 
Q 54.6875 -3.859375 53.171875 -8.390625 
Q 51.65625 -12.9375 48.921875 -15.515625 
Q 46.1875 -18.109375 41.625 -19.578125 
Q 37.0625 -21.046875 30.078125 -21.046875 
Q 16.890625 -21.046875 11.375 -16.53125 
Q 5.859375 -12.015625 5.859375 -5.078125 
Q 5.859375 -4.390625 5.90625 -3.421875 
z
M 18.171875 27 
Q 18.171875 18.75 21.359375 14.90625 
Q 24.5625 11.078125 29.25 11.078125 
Q 34.28125 11.078125 37.75 15.015625 
Q 41.21875 18.953125 41.21875 26.65625 
Q 41.21875 34.71875 37.890625 38.625 
Q 34.578125 42.53125 29.5 42.53125 
Q 24.5625 42.53125 21.359375 38.6875 
Q 18.171875 34.859375 18.171875 27 
z
" id="Arial-BoldMT-103"/>
     </defs>
     <use xlink:href="#Arial-BoldMT-83"/>
     <use x="66.699219" xlink:href="#Arial-BoldMT-117"/>
     <use x="127.783203" xlink:href="#Arial-BoldMT-114"/>
     <use x="166.699219" xlink:href="#Arial-BoldMT-118"/>
     <use x="222.314453" xlink:href="#Arial-BoldMT-105"/>
     <use x="250.097656" xlink:href="#Arial-BoldMT-118"/>
     <use x="305.712891" xlink:href="#Arial-BoldMT-97"/>
     <use x="361.328125" xlink:href="#Arial-BoldMT-108"/>
     <use x="389.111328" xlink:href="#Arial-BoldMT-32"/>
     <use x="416.894531" xlink:href="#Arial-BoldMT-99"/>
     <use x="472.509766" xlink:href="#Arial-BoldMT-117"/>
     <use x="533.59375" xlink:href="#Arial-BoldMT-114"/>
     <use x="572.509766" xlink:href="#Arial-BoldMT-118"/>
     <use x="628.125" xlink:href="#Arial-BoldMT-101"/>
     <use x="683.740234" xlink:href="#Arial-BoldMT-115"/>
     <use x="739.355469" xlink:href="#Arial-BoldMT-44"/>
     <use x="767.138672" xlink:href="#Arial-BoldMT-32"/>
     <use x="794.921875" xlink:href="#Arial-BoldMT-115"/>
     <use x="850.537109" xlink:href="#Arial-BoldMT-116"/>
     <use x="883.837891" xlink:href="#Arial-BoldMT-114"/>
     <use x="922.753906" xlink:href="#Arial-BoldMT-97"/>
     <use x="978.369141" xlink:href="#Arial-BoldMT-116"/>
     <use x="1011.669922" xlink:href="#Arial-BoldMT-105"/>
     <use x="1039.453125" xlink:href="#Arial-BoldMT-102"/>
     <use x="1072.753906" xlink:href="#Arial-BoldMT-105"/>
     <use x="1100.537109" xlink:href="#Arial-BoldMT-101"/>
     <use x="1156.152344" xlink:href="#Arial-BoldMT-100"/>
     <use x="1217.236328" xlink:href="#Arial-BoldMT-32"/>
     <use x="1245.019531" xlink:href="#Arial-BoldMT-98"/>
     <use x="1306.103516" xlink:href="#Arial-BoldMT-121"/>
     <use x="1361.71875" xlink:href="#Arial-BoldMT-32"/>
     <use x="1389.501953" xlink:href="#Arial-BoldMT-103"/>
     <use x="1450.585938" xlink:href="#Arial-BoldMT-101"/>
     <use x="1506.201172" xlink:href="#Arial-BoldMT-110"/>
     <use x="1567.285156" xlink:href="#Arial-BoldMT-100"/>
     <use x="1628.369141" xlink:href="#Arial-BoldMT-101"/>
     <use x="1683.984375" xlink:href="#Arial-BoldMT-114"/>
    </g>
   </g>
   <g id="legend_1">
    <g id="patch_7">
     <path d="M 374.023594 83.119687 
L 445.9 83.119687 
Q 448.1 83.119687 448.1 80.919688 
L 448.1 50.9 
Q 448.1 48.7 445.9 48.7 
L 374.023594 48.7 
Q 371.823594 48.7 371.823594 50.9 
L 371.823594 80.919688 
Q 371.823594 83.119687 374.023594 83.119687 
z
" style="fill:#eaeaf2;opacity:0.8;stroke:#cccccc;stroke-linejoin:miter;"/>
    </g>
    <g id="line2d_16">
     <path d="M 376.223594 57.123594 
L 398.223594 57.123594 
" style="fill:none;stroke:#4c72b0;stroke-linecap:round;stroke-width:1.5;"/>
    </g>
    <g id="line2d_17"/>
    <g id="text_17">
     <!-- Female -->
     <g style="fill:#262626;" transform="translate(407.023594 60.973594)scale(0.11 -0.11)">
      <defs>
       <path d="M 8.203125 0 
L 8.203125 71.578125 
L 56.5 71.578125 
L 56.5 63.140625 
L 17.671875 63.140625 
L 17.671875 40.96875 
L 51.265625 40.96875 
L 51.265625 32.515625 
L 17.671875 32.515625 
L 17.671875 0 
z
" id="ArialMT-70"/>
       <path d="M 42.09375 16.703125 
L 51.171875 15.578125 
Q 49.03125 7.625 43.21875 3.21875 
Q 37.40625 -1.171875 28.375 -1.171875 
Q 17 -1.171875 10.328125 5.828125 
Q 3.65625 12.84375 3.65625 25.484375 
Q 3.65625 38.578125 10.390625 45.796875 
Q 17.140625 53.03125 27.875 53.03125 
Q 38.28125 53.03125 44.875 45.953125 
Q 51.46875 38.875 51.46875 26.03125 
Q 51.46875 25.25 51.421875 23.6875 
L 12.75 23.6875 
Q 13.234375 15.140625 17.578125 10.59375 
Q 21.921875 6.0625 28.421875 6.0625 
Q 33.25 6.0625 36.671875 8.59375 
Q 40.09375 11.140625 42.09375 16.703125 
z
M 13.234375 30.90625 
L 42.1875 30.90625 
Q 41.609375 37.453125 38.875 40.71875 
Q 34.671875 45.796875 27.984375 45.796875 
Q 21.921875 45.796875 17.796875 41.75 
Q 13.671875 37.703125 13.234375 30.90625 
z
" id="ArialMT-101"/>
       <path d="M 6.59375 0 
L 6.59375 51.859375 
L 14.453125 51.859375 
L 14.453125 44.578125 
Q 16.890625 48.390625 20.9375 50.703125 
Q 25 53.03125 30.171875 53.03125 
Q 35.9375 53.03125 39.625 50.640625 
Q 43.3125 48.25 44.828125 43.953125 
Q 50.984375 53.03125 60.84375 53.03125 
Q 68.5625 53.03125 72.703125 48.75 
Q 76.859375 44.484375 76.859375 35.59375 
L 76.859375 0 
L 68.109375 0 
L 68.109375 32.671875 
Q 68.109375 37.9375 67.25 40.25 
Q 66.40625 42.578125 64.15625 43.984375 
Q 61.921875 45.40625 58.890625 45.40625 
Q 53.421875 45.40625 49.796875 41.765625 
Q 46.1875 38.140625 46.1875 30.125 
L 46.1875 0 
L 37.40625 0 
L 37.40625 33.6875 
Q 37.40625 39.546875 35.25 42.46875 
Q 33.109375 45.40625 28.21875 45.40625 
Q 24.515625 45.40625 21.359375 43.453125 
Q 18.21875 41.5 16.796875 37.734375 
Q 15.375 33.984375 15.375 26.90625 
L 15.375 0 
z
" id="ArialMT-109"/>
       <path d="M 40.4375 6.390625 
Q 35.546875 2.25 31.03125 0.53125 
Q 26.515625 -1.171875 21.34375 -1.171875 
Q 12.796875 -1.171875 8.203125 3 
Q 3.609375 7.171875 3.609375 13.671875 
Q 3.609375 17.484375 5.34375 20.625 
Q 7.078125 23.78125 9.890625 25.6875 
Q 12.703125 27.59375 16.21875 28.5625 
Q 18.796875 29.25 24.03125 29.890625 
Q 34.671875 31.15625 39.703125 32.90625 
Q 39.75 34.71875 39.75 35.203125 
Q 39.75 40.578125 37.25 42.78125 
Q 33.890625 45.75 27.25 45.75 
Q 21.046875 45.75 18.09375 43.578125 
Q 15.140625 41.40625 13.71875 35.890625 
L 5.125 37.0625 
Q 6.296875 42.578125 8.984375 45.96875 
Q 11.671875 49.359375 16.75 51.1875 
Q 21.828125 53.03125 28.515625 53.03125 
Q 35.15625 53.03125 39.296875 51.46875 
Q 43.453125 49.90625 45.40625 47.53125 
Q 47.359375 45.171875 48.140625 41.546875 
Q 48.578125 39.3125 48.578125 33.453125 
L 48.578125 21.734375 
Q 48.578125 9.46875 49.140625 6.21875 
Q 49.703125 2.984375 51.375 0 
L 42.1875 0 
Q 40.828125 2.734375 40.4375 6.390625 
z
M 39.703125 26.03125 
Q 34.90625 24.078125 25.34375 22.703125 
Q 19.921875 21.921875 17.671875 20.9375 
Q 15.4375 19.96875 14.203125 18.09375 
Q 12.984375 16.21875 12.984375 13.921875 
Q 12.984375 10.40625 15.640625 8.0625 
Q 18.3125 5.71875 23.4375 5.71875 
Q 28.515625 5.71875 32.46875 7.9375 
Q 36.421875 10.15625 38.28125 14.015625 
Q 39.703125 17 39.703125 22.796875 
z
" id="ArialMT-97"/>
       <path d="M 6.390625 0 
L 6.390625 71.578125 
L 15.1875 71.578125 
L 15.1875 0 
z
" id="ArialMT-108"/>
      </defs>
      <use xlink:href="#ArialMT-70"/>
      <use x="61.083984" xlink:href="#ArialMT-101"/>
      <use x="116.699219" xlink:href="#ArialMT-109"/>
      <use x="200" xlink:href="#ArialMT-97"/>
      <use x="255.615234" xlink:href="#ArialMT-108"/>
      <use x="277.832031" xlink:href="#ArialMT-101"/>
     </g>
    </g>
    <g id="line2d_18">
     <path d="M 376.223594 72.683438 
L 398.223594 72.683438 
" style="fill:none;stroke:#dd8452;stroke-linecap:round;stroke-width:1.5;"/>
    </g>
    <g id="line2d_19"/>
    <g id="text_18">
     <!-- Male -->
     <g style="fill:#262626;" transform="translate(407.023594 76.533438)scale(0.11 -0.11)">
      <defs>
       <path d="M 7.421875 0 
L 7.421875 71.578125 
L 21.6875 71.578125 
L 38.625 20.90625 
Q 40.96875 13.8125 42.046875 10.296875 
Q 43.265625 14.203125 45.84375 21.78125 
L 62.984375 71.578125 
L 75.734375 71.578125 
L 75.734375 0 
L 66.609375 0 
L 66.609375 59.90625 
L 45.796875 0 
L 37.25 0 
L 16.546875 60.9375 
L 16.546875 0 
z
" id="ArialMT-77"/>
      </defs>
      <use xlink:href="#ArialMT-77"/>
      <use x="83.300781" xlink:href="#ArialMT-97"/>
      <use x="138.916016" xlink:href="#ArialMT-108"/>
      <use x="161.132812" xlink:href="#ArialMT-101"/>
     </g>
    </g>
   </g>
  </g>
 </g>
 <defs>
  <clipPath id="p1b17d3af4b">
   <rect height="271.8" width="390.6" x="63" y="43.2"/>
  </clipPath>
 </defs>
</svg>
