<?xml version="1.0" encoding="utf-8" standalone="no"?>
<!DOCTYPE svg PUBLIC "-//W3C//DTD SVG 1.1//EN"
  "http://www.w3.org/Graphics/SVG/1.1/DTD/svg11.dtd">
<!-- Created with matplotlib (https://matplotlib.org/) -->
<svg height="360pt" version="1.1" viewBox="0 0 504 360" width="504pt" xmlns="http://www.w3.org/2000/svg" xmlns:xlink="http://www.w3.org/1999/xlink">
 <metadata>
  <rdf:RDF xmlns:cc="http://creativecommons.org/ns#" xmlns:dc="http://purl.org/dc/elements/1.1/" xmlns:rdf="http://www.w3.org/1999/02/22-rdf-syntax-ns#">
   <cc:Work>
    <dc:type rdf:resource="http://purl.org/dc/dcmitype/StillImage"/>
    <dc:date>2021-06-10T11:37:01.378780</dc:date>
    <dc:format>image/svg+xml</dc:format>
    <dc:creator>
     <cc:Agent>
      <dc:title>Matplotlib v3.3.3, https://matplotlib.org/</dc:title>
     </cc:Agent>
    </dc:creator>
   </cc:Work>
  </rdf:RDF>
 </metadata>
 <defs>
  <style type="text/css">*{stroke-linecap:butt;stroke-linejoin:round;}</style>
 </defs>
 <g id="figure_1">
  <g id="patch_1">
   <path d="M 0 360 
L 504 360 
L 504 0 
L 0 0 
z
" style="fill:none;"/>
  </g>
  <g id="axes_1">
   <g id="patch_2">
    <path d="M 63 315 
L 453.6 315 
L 453.6 43.2 
L 63 43.2 
z
" style="fill:#eaeaf2;"/>
   </g>
   <g id="matplotlib.axis_1">
    <g id="xtick_1">
     <g id="line2d_1">
      <path clip-path="url(#pe31d6b615b)" d="M 80.754545 315 
L 80.754545 43.2 
" style="fill:none;stroke:#ffffff;stroke-linecap:round;"/>
     </g>
     <g id="text_1">
      <!-- 0 -->
      <g style="fill:#262626;" transform="translate(77.69603 332.373594)scale(0.11 -0.11)">
       <defs>
        <path d="M 4.15625 35.296875 
Q 4.15625 48 6.765625 55.734375 
Q 9.375 63.484375 14.515625 67.671875 
Q 19.671875 71.875 27.484375 71.875 
Q 33.25 71.875 37.59375 69.546875 
Q 41.9375 67.234375 44.765625 62.859375 
Q 47.609375 58.5 49.21875 52.21875 
Q 50.828125 45.953125 50.828125 35.296875 
Q 50.828125 22.703125 48.234375 14.96875 
Q 45.65625 7.234375 40.5 3 
Q 35.359375 -1.21875 27.484375 -1.21875 
Q 17.140625 -1.21875 11.234375 6.203125 
Q 4.15625 15.140625 4.15625 35.296875 
z
M 13.1875 35.296875 
Q 13.1875 17.671875 17.3125 11.828125 
Q 21.4375 6 27.484375 6 
Q 33.546875 6 37.671875 11.859375 
Q 41.796875 17.71875 41.796875 35.296875 
Q 41.796875 52.984375 37.671875 58.78125 
Q 33.546875 64.59375 27.390625 64.59375 
Q 21.34375 64.59375 17.71875 59.46875 
Q 13.1875 52.9375 13.1875 35.296875 
z
" id="ArialMT-48"/>
       </defs>
       <use xlink:href="#ArialMT-48"/>
      </g>
     </g>
    </g>
    <g id="xtick_2">
     <g id="line2d_2">
      <path clip-path="url(#pe31d6b615b)" d="M 130.072727 315 
L 130.072727 43.2 
" style="fill:none;stroke:#ffffff;stroke-linecap:round;"/>
     </g>
     <g id="text_2">
      <!-- 10 -->
      <g style="fill:#262626;" transform="translate(123.955696 332.373594)scale(0.11 -0.11)">
       <defs>
        <path d="M 37.25 0 
L 28.46875 0 
L 28.46875 56 
Q 25.296875 52.984375 20.140625 49.953125 
Q 14.984375 46.921875 10.890625 45.40625 
L 10.890625 53.90625 
Q 18.265625 57.375 23.78125 62.296875 
Q 29.296875 67.234375 31.59375 71.875 
L 37.25 71.875 
z
" id="ArialMT-49"/>
       </defs>
       <use xlink:href="#ArialMT-49"/>
       <use x="55.615234" xlink:href="#ArialMT-48"/>
      </g>
     </g>
    </g>
    <g id="xtick_3">
     <g id="line2d_3">
      <path clip-path="url(#pe31d6b615b)" d="M 179.390909 315 
L 179.390909 43.2 
" style="fill:none;stroke:#ffffff;stroke-linecap:round;"/>
     </g>
     <g id="text_3">
      <!-- 20 -->
      <g style="fill:#262626;" transform="translate(173.273878 332.373594)scale(0.11 -0.11)">
       <defs>
        <path d="M 50.34375 8.453125 
L 50.34375 0 
L 3.03125 0 
Q 2.9375 3.171875 4.046875 6.109375 
Q 5.859375 10.9375 9.828125 15.625 
Q 13.8125 20.3125 21.34375 26.46875 
Q 33.015625 36.03125 37.109375 41.625 
Q 41.21875 47.21875 41.21875 52.203125 
Q 41.21875 57.421875 37.46875 61 
Q 33.734375 64.59375 27.734375 64.59375 
Q 21.390625 64.59375 17.578125 60.78125 
Q 13.765625 56.984375 13.71875 50.25 
L 4.6875 51.171875 
Q 5.609375 61.28125 11.65625 66.578125 
Q 17.71875 71.875 27.9375 71.875 
Q 38.234375 71.875 44.234375 66.15625 
Q 50.25 60.453125 50.25 52 
Q 50.25 47.703125 48.484375 43.546875 
Q 46.734375 39.40625 42.65625 34.8125 
Q 38.578125 30.21875 29.109375 22.21875 
Q 21.1875 15.578125 18.9375 13.203125 
Q 16.703125 10.84375 15.234375 8.453125 
z
" id="ArialMT-50"/>
       </defs>
       <use xlink:href="#ArialMT-50"/>
       <use x="55.615234" xlink:href="#ArialMT-48"/>
      </g>
     </g>
    </g>
    <g id="xtick_4">
     <g id="line2d_4">
      <path clip-path="url(#pe31d6b615b)" d="M 228.709091 315 
L 228.709091 43.2 
" style="fill:none;stroke:#ffffff;stroke-linecap:round;"/>
     </g>
     <g id="text_4">
      <!-- 30 -->
      <g style="fill:#262626;" transform="translate(222.59206 332.373594)scale(0.11 -0.11)">
       <defs>
        <path d="M 4.203125 18.890625 
L 12.984375 20.0625 
Q 14.5 12.59375 18.140625 9.296875 
Q 21.78125 6 27 6 
Q 33.203125 6 37.46875 10.296875 
Q 41.75 14.59375 41.75 20.953125 
Q 41.75 27 37.796875 30.921875 
Q 33.84375 34.859375 27.734375 34.859375 
Q 25.25 34.859375 21.53125 33.890625 
L 22.515625 41.609375 
Q 23.390625 41.5 23.921875 41.5 
Q 29.546875 41.5 34.03125 44.421875 
Q 38.53125 47.359375 38.53125 53.46875 
Q 38.53125 58.296875 35.25 61.46875 
Q 31.984375 64.65625 26.8125 64.65625 
Q 21.6875 64.65625 18.265625 61.421875 
Q 14.84375 58.203125 13.875 51.765625 
L 5.078125 53.328125 
Q 6.6875 62.15625 12.390625 67.015625 
Q 18.109375 71.875 26.609375 71.875 
Q 32.46875 71.875 37.390625 69.359375 
Q 42.328125 66.84375 44.9375 62.5 
Q 47.5625 58.15625 47.5625 53.265625 
Q 47.5625 48.640625 45.0625 44.828125 
Q 42.578125 41.015625 37.703125 38.765625 
Q 44.046875 37.3125 47.5625 32.6875 
Q 51.078125 28.078125 51.078125 21.140625 
Q 51.078125 11.765625 44.234375 5.25 
Q 37.40625 -1.265625 26.953125 -1.265625 
Q 17.53125 -1.265625 11.296875 4.34375 
Q 5.078125 9.96875 4.203125 18.890625 
z
" id="ArialMT-51"/>
       </defs>
       <use xlink:href="#ArialMT-51"/>
       <use x="55.615234" xlink:href="#ArialMT-48"/>
      </g>
     </g>
    </g>
    <g id="xtick_5">
     <g id="line2d_5">
      <path clip-path="url(#pe31d6b615b)" d="M 278.027273 315 
L 278.027273 43.2 
" style="fill:none;stroke:#ffffff;stroke-linecap:round;"/>
     </g>
     <g id="text_5">
      <!-- 40 -->
      <g style="fill:#262626;" transform="translate(271.910241 332.373594)scale(0.11 -0.11)">
       <defs>
        <path d="M 32.328125 0 
L 32.328125 17.140625 
L 1.265625 17.140625 
L 1.265625 25.203125 
L 33.9375 71.578125 
L 41.109375 71.578125 
L 41.109375 25.203125 
L 50.78125 25.203125 
L 50.78125 17.140625 
L 41.109375 17.140625 
L 41.109375 0 
z
M 32.328125 25.203125 
L 32.328125 57.46875 
L 9.90625 25.203125 
z
" id="ArialMT-52"/>
       </defs>
       <use xlink:href="#ArialMT-52"/>
       <use x="55.615234" xlink:href="#ArialMT-48"/>
      </g>
     </g>
    </g>
    <g id="xtick_6">
     <g id="line2d_6">
      <path clip-path="url(#pe31d6b615b)" d="M 327.345455 315 
L 327.345455 43.2 
" style="fill:none;stroke:#ffffff;stroke-linecap:round;"/>
     </g>
     <g id="text_6">
      <!-- 50 -->
      <g style="fill:#262626;" transform="translate(321.228423 332.373594)scale(0.11 -0.11)">
       <defs>
        <path d="M 4.15625 18.75 
L 13.375 19.53125 
Q 14.40625 12.796875 18.140625 9.390625 
Q 21.875 6 27.15625 6 
Q 33.5 6 37.890625 10.78125 
Q 42.28125 15.578125 42.28125 23.484375 
Q 42.28125 31 38.0625 35.34375 
Q 33.84375 39.703125 27 39.703125 
Q 22.75 39.703125 19.328125 37.765625 
Q 15.921875 35.84375 13.96875 32.765625 
L 5.71875 33.84375 
L 12.640625 70.609375 
L 48.25 70.609375 
L 48.25 62.203125 
L 19.671875 62.203125 
L 15.828125 42.96875 
Q 22.265625 47.46875 29.34375 47.46875 
Q 38.71875 47.46875 45.15625 40.96875 
Q 51.609375 34.46875 51.609375 24.265625 
Q 51.609375 14.546875 45.953125 7.46875 
Q 39.0625 -1.21875 27.15625 -1.21875 
Q 17.390625 -1.21875 11.203125 4.25 
Q 5.03125 9.71875 4.15625 18.75 
z
" id="ArialMT-53"/>
       </defs>
       <use xlink:href="#ArialMT-53"/>
       <use x="55.615234" xlink:href="#ArialMT-48"/>
      </g>
     </g>
    </g>
    <g id="xtick_7">
     <g id="line2d_7">
      <path clip-path="url(#pe31d6b615b)" d="M 376.663636 315 
L 376.663636 43.2 
" style="fill:none;stroke:#ffffff;stroke-linecap:round;"/>
     </g>
     <g id="text_7">
      <!-- 60 -->
      <g style="fill:#262626;" transform="translate(370.546605 332.373594)scale(0.11 -0.11)">
       <defs>
        <path d="M 49.75 54.046875 
L 41.015625 53.375 
Q 39.84375 58.546875 37.703125 60.890625 
Q 34.125 64.65625 28.90625 64.65625 
Q 24.703125 64.65625 21.53125 62.3125 
Q 17.390625 59.28125 14.984375 53.46875 
Q 12.59375 47.65625 12.5 36.921875 
Q 15.671875 41.75 20.265625 44.09375 
Q 24.859375 46.4375 29.890625 46.4375 
Q 38.671875 46.4375 44.84375 39.96875 
Q 51.03125 33.5 51.03125 23.25 
Q 51.03125 16.5 48.125 10.71875 
Q 45.21875 4.9375 40.140625 1.859375 
Q 35.0625 -1.21875 28.609375 -1.21875 
Q 17.625 -1.21875 10.6875 6.859375 
Q 3.765625 14.9375 3.765625 33.5 
Q 3.765625 54.25 11.421875 63.671875 
Q 18.109375 71.875 29.4375 71.875 
Q 37.890625 71.875 43.28125 67.140625 
Q 48.6875 62.40625 49.75 54.046875 
z
M 13.875 23.1875 
Q 13.875 18.65625 15.796875 14.5 
Q 17.71875 10.359375 21.1875 8.171875 
Q 24.65625 6 28.46875 6 
Q 34.03125 6 38.03125 10.484375 
Q 42.046875 14.984375 42.046875 22.703125 
Q 42.046875 30.125 38.078125 34.390625 
Q 34.125 38.671875 28.125 38.671875 
Q 22.171875 38.671875 18.015625 34.390625 
Q 13.875 30.125 13.875 23.1875 
z
" id="ArialMT-54"/>
       </defs>
       <use xlink:href="#ArialMT-54"/>
       <use x="55.615234" xlink:href="#ArialMT-48"/>
      </g>
     </g>
    </g>
    <g id="xtick_8">
     <g id="line2d_8">
      <path clip-path="url(#pe31d6b615b)" d="M 425.981818 315 
L 425.981818 43.2 
" style="fill:none;stroke:#ffffff;stroke-linecap:round;"/>
     </g>
     <g id="text_8">
      <!-- 70 -->
      <g style="fill:#262626;" transform="translate(419.864787 332.373594)scale(0.11 -0.11)">
       <defs>
        <path d="M 4.734375 62.203125 
L 4.734375 70.65625 
L 51.078125 70.65625 
L 51.078125 63.8125 
Q 44.234375 56.546875 37.515625 44.484375 
Q 30.8125 32.421875 27.15625 19.671875 
Q 24.515625 10.6875 23.78125 0 
L 14.75 0 
Q 14.890625 8.453125 18.0625 20.40625 
Q 21.234375 32.375 27.171875 43.484375 
Q 33.109375 54.59375 39.796875 62.203125 
z
" id="ArialMT-55"/>
       </defs>
       <use xlink:href="#ArialMT-55"/>
       <use x="55.615234" xlink:href="#ArialMT-48"/>
      </g>
     </g>
    </g>
    <g id="text_9">
     <!-- Tenure (months) -->
     <g style="fill:#262626;" transform="translate(211.41375 353.295469)scale(0.12 -0.12)">
      <defs>
       <path d="M 23.390625 0 
L 23.390625 59.46875 
L 2.15625 59.46875 
L 2.15625 71.578125 
L 59.03125 71.578125 
L 59.03125 59.46875 
L 37.84375 59.46875 
L 37.84375 0 
z
" id="Arial-BoldMT-84"/>
       <path d="M 37.203125 16.5 
L 50.875 14.203125 
Q 48.25 6.6875 42.546875 2.75 
Q 36.859375 -1.171875 28.328125 -1.171875 
Q 14.796875 -1.171875 8.296875 7.671875 
Q 3.171875 14.75 3.171875 25.53125 
Q 3.171875 38.421875 9.90625 45.71875 
Q 16.65625 53.03125 26.953125 53.03125 
Q 38.53125 53.03125 45.21875 45.390625 
Q 51.90625 37.75 51.609375 21.96875 
L 17.234375 21.96875 
Q 17.390625 15.875 20.5625 12.46875 
Q 23.734375 9.078125 28.46875 9.078125 
Q 31.6875 9.078125 33.875 10.828125 
Q 36.078125 12.59375 37.203125 16.5 
z
M 37.984375 30.375 
Q 37.84375 36.328125 34.90625 39.421875 
Q 31.984375 42.53125 27.78125 42.53125 
Q 23.296875 42.53125 20.359375 39.265625 
Q 17.4375 35.984375 17.484375 30.375 
z
" id="Arial-BoldMT-101"/>
       <path d="M 54.34375 0 
L 40.625 0 
L 40.625 26.46875 
Q 40.625 34.859375 39.75 37.328125 
Q 38.875 39.796875 36.890625 41.15625 
Q 34.90625 42.53125 32.125 42.53125 
Q 28.5625 42.53125 25.734375 40.578125 
Q 22.90625 38.625 21.84375 35.390625 
Q 20.796875 32.171875 20.796875 23.484375 
L 20.796875 0 
L 7.078125 0 
L 7.078125 51.859375 
L 19.828125 51.859375 
L 19.828125 44.234375 
Q 26.609375 53.03125 36.921875 53.03125 
Q 41.453125 53.03125 45.203125 51.390625 
Q 48.96875 49.75 50.890625 47.203125 
Q 52.828125 44.671875 53.578125 41.453125 
Q 54.34375 38.234375 54.34375 32.234375 
z
" id="Arial-BoldMT-110"/>
       <path d="M 41.3125 0 
L 41.3125 7.765625 
Q 38.484375 3.609375 33.859375 1.21875 
Q 29.25 -1.171875 24.125 -1.171875 
Q 18.890625 -1.171875 14.734375 1.125 
Q 10.59375 3.421875 8.734375 7.5625 
Q 6.890625 11.71875 6.890625 19.046875 
L 6.890625 51.859375 
L 20.609375 51.859375 
L 20.609375 28.03125 
Q 20.609375 17.09375 21.359375 14.625 
Q 22.125 12.15625 24.125 10.71875 
Q 26.125 9.28125 29.203125 9.28125 
Q 32.71875 9.28125 35.5 11.203125 
Q 38.28125 13.140625 39.296875 15.984375 
Q 40.328125 18.84375 40.328125 29.984375 
L 40.328125 51.859375 
L 54.046875 51.859375 
L 54.046875 0 
z
" id="Arial-BoldMT-117"/>
       <path d="M 20.3125 0 
L 6.59375 0 
L 6.59375 51.859375 
L 19.34375 51.859375 
L 19.34375 44.484375 
Q 22.609375 49.703125 25.21875 51.359375 
Q 27.828125 53.03125 31.15625 53.03125 
Q 35.84375 53.03125 40.1875 50.4375 
L 35.9375 38.484375 
Q 32.46875 40.71875 29.5 40.71875 
Q 26.609375 40.71875 24.609375 39.125 
Q 22.609375 37.546875 21.453125 33.390625 
Q 20.3125 29.25 20.3125 16.015625 
z
" id="Arial-BoldMT-114"/>
       <path id="Arial-BoldMT-32"/>
       <path d="M 29.9375 -21.046875 
L 20.515625 -21.046875 
Q 13.03125 -9.765625 9.125 2.390625 
Q 5.21875 14.546875 5.21875 25.921875 
Q 5.21875 40.046875 10.0625 52.640625 
Q 14.265625 63.578125 20.703125 72.796875 
L 30.078125 72.796875 
Q 23.390625 58.015625 20.875 47.625 
Q 18.359375 37.25 18.359375 25.640625 
Q 18.359375 17.625 19.84375 9.21875 
Q 21.34375 0.828125 23.921875 -6.734375 
Q 25.640625 -11.71875 29.9375 -21.046875 
z
" id="Arial-BoldMT-40"/>
       <path d="M 6.15625 51.859375 
L 18.796875 51.859375 
L 18.796875 44.78125 
Q 25.59375 53.03125 34.96875 53.03125 
Q 39.9375 53.03125 43.59375 50.96875 
Q 47.265625 48.921875 49.609375 44.78125 
Q 53.03125 48.921875 56.984375 50.96875 
Q 60.9375 53.03125 65.4375 53.03125 
Q 71.140625 53.03125 75.09375 50.703125 
Q 79.046875 48.390625 81 43.890625 
Q 82.421875 40.578125 82.421875 33.15625 
L 82.421875 0 
L 68.703125 0 
L 68.703125 29.640625 
Q 68.703125 37.359375 67.28125 39.59375 
Q 65.375 42.53125 61.421875 42.53125 
Q 58.546875 42.53125 56 40.765625 
Q 53.46875 39.015625 52.34375 35.625 
Q 51.21875 32.234375 51.21875 24.90625 
L 51.21875 0 
L 37.5 0 
L 37.5 28.421875 
Q 37.5 35.984375 36.765625 38.171875 
Q 36.03125 40.375 34.484375 41.453125 
Q 32.953125 42.53125 30.328125 42.53125 
Q 27.15625 42.53125 24.609375 40.8125 
Q 22.078125 39.109375 20.96875 35.890625 
Q 19.875 32.671875 19.875 25.203125 
L 19.875 0 
L 6.15625 0 
z
" id="Arial-BoldMT-109"/>
       <path d="M 4 26.65625 
Q 4 33.5 7.375 39.890625 
Q 10.75 46.296875 16.921875 49.65625 
Q 23.09375 53.03125 30.71875 53.03125 
Q 42.484375 53.03125 50 45.390625 
Q 57.515625 37.75 57.515625 26.078125 
Q 57.515625 14.3125 49.921875 6.5625 
Q 42.328125 -1.171875 30.8125 -1.171875 
Q 23.6875 -1.171875 17.21875 2.046875 
Q 10.75 5.28125 7.375 11.5 
Q 4 17.71875 4 26.65625 
z
M 18.0625 25.921875 
Q 18.0625 18.21875 21.71875 14.109375 
Q 25.390625 10.015625 30.765625 10.015625 
Q 36.140625 10.015625 39.765625 14.109375 
Q 43.40625 18.21875 43.40625 26.03125 
Q 43.40625 33.640625 39.765625 37.734375 
Q 36.140625 41.84375 30.765625 41.84375 
Q 25.390625 41.84375 21.71875 37.734375 
Q 18.0625 33.640625 18.0625 25.921875 
z
" id="Arial-BoldMT-111"/>
       <path d="M 30.953125 51.859375 
L 30.953125 40.921875 
L 21.578125 40.921875 
L 21.578125 20.015625 
Q 21.578125 13.671875 21.84375 12.625 
Q 22.125 11.578125 23.078125 10.890625 
Q 24.03125 10.203125 25.390625 10.203125 
Q 27.296875 10.203125 30.90625 11.53125 
L 32.078125 0.875 
Q 27.296875 -1.171875 21.234375 -1.171875 
Q 17.53125 -1.171875 14.546875 0.0625 
Q 11.578125 1.3125 10.1875 3.296875 
Q 8.796875 5.28125 8.25 8.640625 
Q 7.8125 11.03125 7.8125 18.3125 
L 7.8125 40.921875 
L 1.515625 40.921875 
L 1.515625 51.859375 
L 7.8125 51.859375 
L 7.8125 62.15625 
L 21.578125 70.171875 
L 21.578125 51.859375 
z
" id="Arial-BoldMT-116"/>
       <path d="M 20.84375 71.578125 
L 20.84375 45.265625 
Q 27.484375 53.03125 36.71875 53.03125 
Q 41.453125 53.03125 45.265625 51.265625 
Q 49.078125 49.515625 51 46.78125 
Q 52.9375 44.046875 53.640625 40.71875 
Q 54.34375 37.40625 54.34375 30.421875 
L 54.34375 0 
L 40.625 0 
L 40.625 27.390625 
Q 40.625 35.546875 39.84375 37.734375 
Q 39.0625 39.9375 37.078125 41.234375 
Q 35.109375 42.53125 32.125 42.53125 
Q 28.71875 42.53125 26.03125 40.859375 
Q 23.34375 39.203125 22.09375 35.859375 
Q 20.84375 32.515625 20.84375 25.984375 
L 20.84375 0 
L 7.125 0 
L 7.125 71.578125 
z
" id="Arial-BoldMT-104"/>
       <path d="M 2.34375 14.796875 
L 16.109375 16.890625 
Q 17 12.890625 19.671875 10.8125 
Q 22.359375 8.734375 27.203125 8.734375 
Q 32.515625 8.734375 35.203125 10.6875 
Q 37.015625 12.0625 37.015625 14.359375 
Q 37.015625 15.921875 36.03125 16.9375 
Q 35.015625 17.921875 31.453125 18.75 
Q 14.84375 22.40625 10.40625 25.4375 
Q 4.25 29.640625 4.25 37.109375 
Q 4.25 43.84375 9.5625 48.4375 
Q 14.890625 53.03125 26.078125 53.03125 
Q 36.71875 53.03125 41.890625 49.5625 
Q 47.078125 46.09375 49.03125 39.3125 
L 36.078125 36.921875 
Q 35.25 39.9375 32.921875 41.546875 
Q 30.609375 43.171875 26.3125 43.171875 
Q 20.90625 43.171875 18.5625 41.65625 
Q 17 40.578125 17 38.875 
Q 17 37.40625 18.359375 36.375 
Q 20.21875 35.015625 31.171875 32.515625 
Q 42.140625 30.03125 46.484375 26.421875 
Q 50.78125 22.75 50.78125 16.21875 
Q 50.78125 9.078125 44.828125 3.953125 
Q 38.875 -1.171875 27.203125 -1.171875 
Q 16.609375 -1.171875 10.421875 3.125 
Q 4.25 7.421875 2.34375 14.796875 
z
" id="Arial-BoldMT-115"/>
       <path d="M 3.375 -21.046875 
Q 7.421875 -12.359375 9.078125 -7.71875 
Q 10.75 -3.078125 12.15625 2.96875 
Q 13.578125 9.03125 14.25 14.46875 
Q 14.9375 19.921875 14.9375 25.640625 
Q 14.9375 37.25 12.453125 47.625 
Q 9.96875 58.015625 3.265625 72.796875 
L 12.59375 72.796875 
Q 19.96875 62.3125 24.046875 50.53125 
Q 28.125 38.765625 28.125 26.65625 
Q 28.125 16.453125 24.90625 4.78125 
Q 21.234375 -8.296875 12.84375 -21.046875 
z
" id="Arial-BoldMT-41"/>
      </defs>
      <use xlink:href="#Arial-BoldMT-84"/>
      <use x="53.708984" xlink:href="#Arial-BoldMT-101"/>
      <use x="109.324219" xlink:href="#Arial-BoldMT-110"/>
      <use x="170.408203" xlink:href="#Arial-BoldMT-117"/>
      <use x="231.492188" xlink:href="#Arial-BoldMT-114"/>
      <use x="270.408203" xlink:href="#Arial-BoldMT-101"/>
      <use x="326.023438" xlink:href="#Arial-BoldMT-32"/>
      <use x="353.806641" xlink:href="#Arial-BoldMT-40"/>
      <use x="387.107422" xlink:href="#Arial-BoldMT-109"/>
      <use x="476.023438" xlink:href="#Arial-BoldMT-111"/>
      <use x="537.107422" xlink:href="#Arial-BoldMT-110"/>
      <use x="598.191406" xlink:href="#Arial-BoldMT-116"/>
      <use x="631.492188" xlink:href="#Arial-BoldMT-104"/>
      <use x="692.576172" xlink:href="#Arial-BoldMT-115"/>
      <use x="748.191406" xlink:href="#Arial-BoldMT-41"/>
     </g>
    </g>
   </g>
   <g id="matplotlib.axis_2">
    <g id="ytick_1">
     <g id="line2d_9">
      <path clip-path="url(#pe31d6b615b)" d="M 63 292.99745 
L 453.6 292.99745 
" style="fill:none;stroke:#ffffff;stroke-linecap:round;"/>
     </g>
     <g id="text_10">
      <!-- 0.4 -->
      <g style="fill:#262626;" transform="translate(38.21 296.934246)scale(0.11 -0.11)">
       <defs>
        <path d="M 9.078125 0 
L 9.078125 10.015625 
L 19.09375 10.015625 
L 19.09375 0 
z
" id="ArialMT-46"/>
       </defs>
       <use xlink:href="#ArialMT-48"/>
       <use x="55.615234" xlink:href="#ArialMT-46"/>
       <use x="83.398438" xlink:href="#ArialMT-52"/>
      </g>
     </g>
    </g>
    <g id="ytick_2">
     <g id="line2d_10">
      <path clip-path="url(#pe31d6b615b)" d="M 63 253.423632 
L 453.6 253.423632 
" style="fill:none;stroke:#ffffff;stroke-linecap:round;"/>
     </g>
     <g id="text_11">
      <!-- 0.5 -->
      <g style="fill:#262626;" transform="translate(38.21 257.360429)scale(0.11 -0.11)">
       <use xlink:href="#ArialMT-48"/>
       <use x="55.615234" xlink:href="#ArialMT-46"/>
       <use x="83.398438" xlink:href="#ArialMT-53"/>
      </g>
     </g>
    </g>
    <g id="ytick_3">
     <g id="line2d_11">
      <path clip-path="url(#pe31d6b615b)" d="M 63 213.849815 
L 453.6 213.849815 
" style="fill:none;stroke:#ffffff;stroke-linecap:round;"/>
     </g>
     <g id="text_12">
      <!-- 0.6 -->
      <g style="fill:#262626;" transform="translate(38.21 217.786612)scale(0.11 -0.11)">
       <use xlink:href="#ArialMT-48"/>
       <use x="55.615234" xlink:href="#ArialMT-46"/>
       <use x="83.398438" xlink:href="#ArialMT-54"/>
      </g>
     </g>
    </g>
    <g id="ytick_4">
     <g id="line2d_12">
      <path clip-path="url(#pe31d6b615b)" d="M 63 174.275997 
L 453.6 174.275997 
" style="fill:none;stroke:#ffffff;stroke-linecap:round;"/>
     </g>
     <g id="text_13">
      <!-- 0.7 -->
      <g style="fill:#262626;" transform="translate(38.21 178.212794)scale(0.11 -0.11)">
       <use xlink:href="#ArialMT-48"/>
       <use x="55.615234" xlink:href="#ArialMT-46"/>
       <use x="83.398438" xlink:href="#ArialMT-55"/>
      </g>
     </g>
    </g>
    <g id="ytick_5">
     <g id="line2d_13">
      <path clip-path="url(#pe31d6b615b)" d="M 63 134.70218 
L 453.6 134.70218 
" style="fill:none;stroke:#ffffff;stroke-linecap:round;"/>
     </g>
     <g id="text_14">
      <!-- 0.8 -->
      <g style="fill:#262626;" transform="translate(38.21 138.638977)scale(0.11 -0.11)">
       <defs>
        <path d="M 17.671875 38.8125 
Q 12.203125 40.828125 9.5625 44.53125 
Q 6.9375 48.25 6.9375 53.421875 
Q 6.9375 61.234375 12.546875 66.546875 
Q 18.171875 71.875 27.484375 71.875 
Q 36.859375 71.875 42.578125 66.421875 
Q 48.296875 60.984375 48.296875 53.171875 
Q 48.296875 48.1875 45.671875 44.5 
Q 43.0625 40.828125 37.75 38.8125 
Q 44.34375 36.671875 47.78125 31.875 
Q 51.21875 27.09375 51.21875 20.453125 
Q 51.21875 11.28125 44.71875 5.03125 
Q 38.234375 -1.21875 27.640625 -1.21875 
Q 17.046875 -1.21875 10.546875 5.046875 
Q 4.046875 11.328125 4.046875 20.703125 
Q 4.046875 27.6875 7.59375 32.390625 
Q 11.140625 37.109375 17.671875 38.8125 
z
M 15.921875 53.71875 
Q 15.921875 48.640625 19.1875 45.40625 
Q 22.46875 42.1875 27.6875 42.1875 
Q 32.765625 42.1875 36.015625 45.375 
Q 39.265625 48.578125 39.265625 53.21875 
Q 39.265625 58.0625 35.90625 61.359375 
Q 32.5625 64.65625 27.59375 64.65625 
Q 22.5625 64.65625 19.234375 61.421875 
Q 15.921875 58.203125 15.921875 53.71875 
z
M 13.09375 20.65625 
Q 13.09375 16.890625 14.875 13.375 
Q 16.65625 9.859375 20.171875 7.921875 
Q 23.6875 6 27.734375 6 
Q 34.03125 6 38.125 10.046875 
Q 42.234375 14.109375 42.234375 20.359375 
Q 42.234375 26.703125 38.015625 30.859375 
Q 33.796875 35.015625 27.4375 35.015625 
Q 21.234375 35.015625 17.15625 30.90625 
Q 13.09375 26.8125 13.09375 20.65625 
z
" id="ArialMT-56"/>
       </defs>
       <use xlink:href="#ArialMT-48"/>
       <use x="55.615234" xlink:href="#ArialMT-46"/>
       <use x="83.398438" xlink:href="#ArialMT-56"/>
      </g>
     </g>
    </g>
    <g id="ytick_6">
     <g id="line2d_14">
      <path clip-path="url(#pe31d6b615b)" d="M 63 95.128363 
L 453.6 95.128363 
" style="fill:none;stroke:#ffffff;stroke-linecap:round;"/>
     </g>
     <g id="text_15">
      <!-- 0.9 -->
      <g style="fill:#262626;" transform="translate(38.21 99.06516)scale(0.11 -0.11)">
       <defs>
        <path d="M 5.46875 16.546875 
L 13.921875 17.328125 
Q 14.984375 11.375 18.015625 8.6875 
Q 21.046875 6 25.78125 6 
Q 29.828125 6 32.875 7.859375 
Q 35.9375 9.71875 37.890625 12.8125 
Q 39.84375 15.921875 41.15625 21.1875 
Q 42.484375 26.46875 42.484375 31.9375 
Q 42.484375 32.515625 42.4375 33.6875 
Q 39.796875 29.5 35.234375 26.875 
Q 30.671875 24.265625 25.34375 24.265625 
Q 16.453125 24.265625 10.296875 30.703125 
Q 4.15625 37.15625 4.15625 47.703125 
Q 4.15625 58.59375 10.578125 65.234375 
Q 17 71.875 26.65625 71.875 
Q 33.640625 71.875 39.421875 68.109375 
Q 45.21875 64.359375 48.21875 57.390625 
Q 51.21875 50.4375 51.21875 37.25 
Q 51.21875 23.53125 48.234375 15.40625 
Q 45.265625 7.28125 39.375 3.03125 
Q 33.5 -1.21875 25.59375 -1.21875 
Q 17.1875 -1.21875 11.859375 3.4375 
Q 6.546875 8.109375 5.46875 16.546875 
z
M 41.453125 48.140625 
Q 41.453125 55.71875 37.421875 60.15625 
Q 33.40625 64.59375 27.734375 64.59375 
Q 21.875 64.59375 17.53125 59.8125 
Q 13.1875 55.03125 13.1875 47.40625 
Q 13.1875 40.578125 17.3125 36.296875 
Q 21.4375 32.03125 27.484375 32.03125 
Q 33.59375 32.03125 37.515625 36.296875 
Q 41.453125 40.578125 41.453125 48.140625 
z
" id="ArialMT-57"/>
       </defs>
       <use xlink:href="#ArialMT-48"/>
       <use x="55.615234" xlink:href="#ArialMT-46"/>
       <use x="83.398438" xlink:href="#ArialMT-57"/>
      </g>
     </g>
    </g>
    <g id="ytick_7">
     <g id="line2d_15">
      <path clip-path="url(#pe31d6b615b)" d="M 63 55.554545 
L 453.6 55.554545 
" style="fill:none;stroke:#ffffff;stroke-linecap:round;"/>
     </g>
     <g id="text_16">
      <!-- 1.0 -->
      <g style="fill:#262626;" transform="translate(38.21 59.491342)scale(0.11 -0.11)">
       <use xlink:href="#ArialMT-49"/>
       <use x="55.615234" xlink:href="#ArialMT-46"/>
       <use x="83.398438" xlink:href="#ArialMT-48"/>
      </g>
     </g>
    </g>
    <g id="text_17">
     <!-- Survival probability -->
     <g style="fill:#262626;" transform="translate(25.684375 234.778125)rotate(-90)scale(0.12 -0.12)">
      <defs>
       <path d="M 3.609375 23.296875 
L 17.671875 24.65625 
Q 18.953125 17.578125 22.828125 14.25 
Q 26.703125 10.9375 33.296875 10.9375 
Q 40.28125 10.9375 43.8125 13.890625 
Q 47.359375 16.84375 47.359375 20.796875 
Q 47.359375 23.34375 45.875 25.125 
Q 44.390625 26.90625 40.671875 28.21875 
Q 38.140625 29.109375 29.109375 31.34375 
Q 17.484375 34.234375 12.796875 38.421875 
Q 6.203125 44.34375 6.203125 52.828125 
Q 6.203125 58.296875 9.296875 63.0625 
Q 12.40625 67.828125 18.234375 70.3125 
Q 24.078125 72.796875 32.328125 72.796875 
Q 45.796875 72.796875 52.609375 66.890625 
Q 59.421875 60.984375 59.765625 51.125 
L 45.3125 50.484375 
Q 44.390625 56 41.328125 58.421875 
Q 38.28125 60.84375 32.171875 60.84375 
Q 25.875 60.84375 22.3125 58.25 
Q 20.015625 56.59375 20.015625 53.8125 
Q 20.015625 51.265625 22.171875 49.46875 
Q 24.90625 47.171875 35.453125 44.671875 
Q 46 42.1875 51.046875 39.515625 
Q 56.109375 36.859375 58.953125 32.25 
Q 61.8125 27.640625 61.8125 20.84375 
Q 61.8125 14.703125 58.390625 9.328125 
Q 54.984375 3.953125 48.734375 1.34375 
Q 42.484375 -1.265625 33.15625 -1.265625 
Q 19.578125 -1.265625 12.296875 5 
Q 5.03125 11.28125 3.609375 23.296875 
z
" id="Arial-BoldMT-83"/>
       <path d="M 21.4375 0 
L 0.53125 51.859375 
L 14.9375 51.859375 
L 24.703125 25.390625 
L 27.546875 16.546875 
Q 28.65625 19.921875 28.953125 21 
Q 29.640625 23.1875 30.421875 25.390625 
L 40.28125 51.859375 
L 54.390625 51.859375 
L 33.796875 0 
z
" id="Arial-BoldMT-118"/>
       <path d="M 7.171875 58.890625 
L 7.171875 71.578125 
L 20.90625 71.578125 
L 20.90625 58.890625 
z
M 7.171875 0 
L 7.171875 51.859375 
L 20.90625 51.859375 
L 20.90625 0 
z
" id="Arial-BoldMT-105"/>
       <path d="M 17.4375 36.03125 
L 4.984375 38.28125 
Q 7.078125 45.796875 12.203125 49.40625 
Q 17.328125 53.03125 27.4375 53.03125 
Q 36.625 53.03125 41.109375 50.859375 
Q 45.609375 48.6875 47.4375 45.34375 
Q 49.265625 42 49.265625 33.0625 
L 49.125 17.046875 
Q 49.125 10.203125 49.78125 6.953125 
Q 50.4375 3.71875 52.25 0 
L 38.671875 0 
Q 38.140625 1.375 37.359375 4.046875 
Q 37.015625 5.28125 36.859375 5.671875 
Q 33.34375 2.25 29.34375 0.53125 
Q 25.34375 -1.171875 20.796875 -1.171875 
Q 12.796875 -1.171875 8.171875 3.171875 
Q 3.5625 7.515625 3.5625 14.15625 
Q 3.5625 18.5625 5.65625 22 
Q 7.765625 25.4375 11.546875 27.265625 
Q 15.328125 29.109375 22.46875 30.46875 
Q 32.078125 32.28125 35.796875 33.84375 
L 35.796875 35.203125 
Q 35.796875 39.15625 33.84375 40.84375 
Q 31.890625 42.53125 26.46875 42.53125 
Q 22.796875 42.53125 20.75 41.09375 
Q 18.703125 39.65625 17.4375 36.03125 
z
M 35.796875 24.90625 
Q 33.15625 24.03125 27.4375 22.796875 
Q 21.734375 21.578125 19.96875 20.40625 
Q 17.28125 18.5 17.28125 15.578125 
Q 17.28125 12.703125 19.421875 10.59375 
Q 21.578125 8.5 24.90625 8.5 
Q 28.609375 8.5 31.984375 10.9375 
Q 34.46875 12.796875 35.25 15.484375 
Q 35.796875 17.234375 35.796875 22.171875 
z
" id="Arial-BoldMT-97"/>
       <path d="M 7.171875 0 
L 7.171875 71.578125 
L 20.90625 71.578125 
L 20.90625 0 
z
" id="Arial-BoldMT-108"/>
       <path d="M 6.78125 51.859375 
L 19.578125 51.859375 
L 19.578125 44.234375 
Q 22.078125 48.140625 26.3125 50.578125 
Q 30.5625 53.03125 35.75 53.03125 
Q 44.78125 53.03125 51.078125 45.953125 
Q 57.375 38.875 57.375 26.21875 
Q 57.375 13.234375 51.015625 6.03125 
Q 44.671875 -1.171875 35.640625 -1.171875 
Q 31.34375 -1.171875 27.84375 0.53125 
Q 24.359375 2.25 20.515625 6.390625 
L 20.515625 -19.734375 
L 6.78125 -19.734375 
z
M 20.359375 26.8125 
Q 20.359375 18.0625 23.828125 13.890625 
Q 27.296875 9.71875 32.28125 9.71875 
Q 37.0625 9.71875 40.234375 13.546875 
Q 43.40625 17.390625 43.40625 26.125 
Q 43.40625 34.28125 40.125 38.234375 
Q 36.859375 42.1875 32.03125 42.1875 
Q 27 42.1875 23.671875 38.296875 
Q 20.359375 34.421875 20.359375 26.8125 
z
" id="Arial-BoldMT-112"/>
       <path d="M 6.59375 0 
L 6.59375 71.578125 
L 20.3125 71.578125 
L 20.3125 45.796875 
Q 26.65625 53.03125 35.359375 53.03125 
Q 44.828125 53.03125 51.03125 46.171875 
Q 57.234375 39.3125 57.234375 26.46875 
Q 57.234375 13.1875 50.90625 6 
Q 44.578125 -1.171875 35.546875 -1.171875 
Q 31.109375 -1.171875 26.78125 1.046875 
Q 22.46875 3.265625 19.34375 7.625 
L 19.34375 0 
z
M 20.21875 27.046875 
Q 20.21875 19 22.75 15.140625 
Q 26.3125 9.671875 32.234375 9.671875 
Q 36.765625 9.671875 39.96875 13.546875 
Q 43.171875 17.4375 43.171875 25.78125 
Q 43.171875 34.671875 39.9375 38.59375 
Q 36.71875 42.53125 31.6875 42.53125 
Q 26.765625 42.53125 23.484375 38.6875 
Q 20.21875 34.859375 20.21875 27.046875 
z
" id="Arial-BoldMT-98"/>
       <path d="M 0.6875 51.859375 
L 15.28125 51.859375 
L 27.6875 15.046875 
L 39.796875 51.859375 
L 54 51.859375 
L 35.6875 1.953125 
L 32.421875 -7.078125 
Q 30.609375 -11.625 28.96875 -14.015625 
Q 27.34375 -16.40625 25.21875 -17.890625 
Q 23.09375 -19.390625 19.984375 -20.21875 
Q 16.890625 -21.046875 12.984375 -21.046875 
Q 9.03125 -21.046875 5.21875 -20.21875 
L 4 -9.46875 
Q 7.234375 -10.109375 9.8125 -10.109375 
Q 14.59375 -10.109375 16.890625 -7.296875 
Q 19.1875 -4.5 20.40625 -0.140625 
z
" id="Arial-BoldMT-121"/>
      </defs>
      <use xlink:href="#Arial-BoldMT-83"/>
      <use x="66.699219" xlink:href="#Arial-BoldMT-117"/>
      <use x="127.783203" xlink:href="#Arial-BoldMT-114"/>
      <use x="166.699219" xlink:href="#Arial-BoldMT-118"/>
      <use x="222.314453" xlink:href="#Arial-BoldMT-105"/>
      <use x="250.097656" xlink:href="#Arial-BoldMT-118"/>
      <use x="305.712891" xlink:href="#Arial-BoldMT-97"/>
      <use x="361.328125" xlink:href="#Arial-BoldMT-108"/>
      <use x="389.111328" xlink:href="#Arial-BoldMT-32"/>
      <use x="416.894531" xlink:href="#Arial-BoldMT-112"/>
      <use x="477.978516" xlink:href="#Arial-BoldMT-114"/>
      <use x="516.894531" xlink:href="#Arial-BoldMT-111"/>
      <use x="577.978516" xlink:href="#Arial-BoldMT-98"/>
      <use x="639.0625" xlink:href="#Arial-BoldMT-97"/>
      <use x="694.677734" xlink:href="#Arial-BoldMT-98"/>
      <use x="755.761719" xlink:href="#Arial-BoldMT-105"/>
      <use x="783.544922" xlink:href="#Arial-BoldMT-108"/>
      <use x="811.328125" xlink:href="#Arial-BoldMT-105"/>
      <use x="839.111328" xlink:href="#Arial-BoldMT-116"/>
      <use x="872.412109" xlink:href="#Arial-BoldMT-121"/>
     </g>
    </g>
   </g>
   <g id="PolyCollection_1">
    <defs>
     <path d="M 80.754545 -304.445455 
L 80.754545 -304.445455 
L 85.686364 -304.445455 
L 85.686364 -281.519943 
L 90.618182 -281.519943 
L 90.618182 -274.695262 
L 95.55 -274.695262 
L 95.55 -269.18717 
L 100.481818 -269.18717 
L 100.481818 -263.889609 
L 105.413636 -263.889609 
L 105.413636 -260.129086 
L 110.345455 -260.129086 
L 110.345455 -257.49046 
L 115.277273 -257.49046 
L 115.277273 -254.347415 
L 120.209091 -254.347415 
L 120.209091 -252.19573 
L 125.140909 -252.19573 
L 125.140909 -249.201151 
L 130.072727 -249.201151 
L 130.072727 -246.327622 
L 135.004545 -246.327622 
L 135.004545 -244.325983 
L 139.936364 -244.325983 
L 139.936364 -241.705626 
L 144.868182 -241.705626 
L 144.868182 -239.295756 
L 149.8 -239.295756 
L 149.8 -237.721326 
L 154.731818 -237.721326 
L 154.731818 -235.510626 
L 159.663636 -235.510626 
L 159.663636 -233.984651 
L 164.595455 -233.984651 
L 164.595455 -232.168148 
L 169.527273 -232.168148 
L 169.527273 -230.416764 
L 174.459091 -230.416764 
L 174.459091 -229.009642 
L 179.390909 -229.009642 
L 179.390909 -228.153498 
L 184.322727 -228.153498 
L 184.322727 -226.997327 
L 189.254545 -226.997327 
L 189.254545 -224.75584 
L 194.186364 -224.75584 
L 194.186364 -223.665778 
L 199.118182 -223.665778 
L 199.118182 -222.251604 
L 204.05 -222.251604 
L 204.05 -220.602506 
L 208.981818 -220.602506 
L 208.981818 -219.658901 
L 213.913636 -219.658901 
L 213.913636 -219.445232 
L 218.845455 -219.445232 
L 218.845455 -218.466495 
L 223.777273 -218.466495 
L 223.777273 -217.36485 
L 228.709091 -217.36485 
L 228.709091 -216.132607 
L 233.640909 -216.132607 
L 233.640909 -214.652463 
L 238.572727 -214.652463 
L 238.572727 -213.612112 
L 243.504545 -213.612112 
L 243.504545 -212.439001 
L 248.436364 -212.439001 
L 248.436364 -211.24724 
L 253.368182 -211.24724 
L 253.368182 -209.91455 
L 258.3 -209.91455 
L 258.3 -209.169739 
L 263.231818 -209.169739 
L 263.231818 -208.161699 
L 268.163636 -208.161699 
L 268.163636 -207.005929 
L 273.095455 -207.005929 
L 273.095455 -205.440393 
L 278.027273 -205.440393 
L 278.027273 -204.51226 
L 282.959091 -204.51226 
L 282.959091 -203.293978 
L 287.890909 -203.293978 
L 287.890909 -201.769673 
L 292.822727 -201.769673 
L 292.822727 -200.778792 
L 297.754545 -200.778792 
L 297.754545 -200.200502 
L 302.686364 -200.200502 
L 302.686364 -199.464417 
L 307.618182 -199.464417 
L 307.618182 -198.711905 
L 312.55 -198.711905 
L 312.55 -197.47264 
L 317.481818 -197.47264 
L 317.481818 -196.200953 
L 322.413636 -196.200953 
L 322.413636 -194.242375 
L 327.345455 -194.242375 
L 327.345455 -193.238806 
L 332.277273 -193.238806 
L 332.277273 -192.550748 
L 337.209091 -192.550748 
L 337.209091 -191.484447 
L 342.140909 -191.484447 
L 342.140909 -189.638491 
L 347.072727 -189.638491 
L 347.072727 -187.731274 
L 352.004545 -187.731274 
L 352.004545 -186.552886 
L 356.936364 -186.552886 
L 356.936364 -185.337868 
L 361.868182 -185.337868 
L 361.868182 -184.281532 
L 366.8 -184.281532 
L 366.8 -182.751606 
L 371.731818 -182.751606 
L 371.731818 -181.157823 
L 376.663636 -181.157823 
L 376.663636 -179.977538 
L 381.595455 -179.977538 
L 381.595455 -178.243152 
L 386.527273 -178.243152 
L 386.527273 -177.195885 
L 391.459091 -177.195885 
L 391.459091 -176.088519 
L 396.390909 -176.088519 
L 396.390909 -175.203299 
L 401.322727 -175.203299 
L 401.322727 -172.988109 
L 406.254545 -172.988109 
L 406.254545 -171.309983 
L 411.186364 -171.309983 
L 411.186364 -167.680506 
L 416.118182 -167.680506 
L 416.118182 -165.672342 
L 421.05 -165.672342 
L 421.05 -162.923372 
L 425.981818 -162.923372 
L 425.981818 -158.18902 
L 430.913636 -158.18902 
L 430.913636 -154.958439 
L 435.845455 -154.958439 
L 435.845455 -151.069488 
L 435.845455 -167.740973 
L 435.845455 -167.740973 
L 435.845455 -170.527865 
L 430.913636 -170.527865 
L 430.913636 -173.089761 
L 425.981818 -173.089761 
L 425.981818 -176.974577 
L 421.05 -176.974577 
L 421.05 -179.269442 
L 416.118182 -179.269442 
L 416.118182 -180.978514 
L 411.186364 -180.978514 
L 411.186364 -184.103061 
L 406.254545 -184.103061 
L 406.254545 -185.558185 
L 401.322727 -185.558185 
L 401.322727 -187.489529 
L 396.390909 -187.489529 
L 396.390909 -188.267517 
L 391.459091 -188.267517 
L 391.459091 -189.248518 
L 386.527273 -189.248518 
L 386.527273 -190.182165 
L 381.595455 -190.182165 
L 381.595455 -191.736917 
L 376.663636 -191.736917 
L 376.663636 -192.799508 
L 371.731818 -192.799508 
L 371.731818 -194.238206 
L 366.8 -194.238206 
L 366.8 -195.623394 
L 361.868182 -195.623394 
L 361.868182 -196.58214 
L 356.936364 -196.58214 
L 356.936364 -197.689013 
L 352.004545 -197.689013 
L 352.004545 -198.764786 
L 347.072727 -198.764786 
L 347.072727 -200.50848 
L 342.140909 -200.50848 
L 342.140909 -202.19852 
L 337.209091 -202.19852 
L 337.209091 -203.177246 
L 332.277273 -203.177246 
L 332.277273 -203.810456 
L 327.345455 -203.810456 
L 327.345455 -204.735983 
L 322.413636 -204.735983 
L 322.413636 -206.543989 
L 317.481818 -206.543989 
L 317.481818 -207.719078 
L 312.55 -207.719078 
L 312.55 -208.86574 
L 307.618182 -208.86574 
L 307.618182 -209.563365 
L 302.686364 -209.563365 
L 302.686364 -210.246775 
L 297.754545 -210.246775 
L 297.754545 -210.784303 
L 292.822727 -210.784303 
L 292.822727 -211.706553 
L 287.890909 -211.706553 
L 287.890909 -213.126483 
L 282.959091 -213.126483 
L 282.959091 -214.262405 
L 278.027273 -214.262405 
L 278.027273 -215.12862 
L 273.095455 -215.12862 
L 273.095455 -216.590225 
L 268.163636 -216.590225 
L 268.163636 -217.669475 
L 263.231818 -217.669475 
L 263.231818 -218.611492 
L 258.3 -218.611492 
L 258.3 -219.307919 
L 253.368182 -219.307919 
L 253.368182 -220.555645 
L 248.436364 -220.555645 
L 248.436364 -221.671821 
L 243.504545 -221.671821 
L 243.504545 -222.770924 
L 238.572727 -222.770924 
L 238.572727 -223.745964 
L 233.640909 -223.745964 
L 233.640909 -225.133504 
L 228.709091 -225.133504 
L 228.709091 -226.288921 
L 223.777273 -226.288921 
L 223.777273 -227.322338 
L 218.845455 -227.322338 
L 218.845455 -228.240657 
L 213.913636 -228.240657 
L 213.913636 -228.441342 
L 208.981818 -228.441342 
L 208.981818 -229.328602 
L 204.05 -229.328602 
L 204.05 -230.879791 
L 199.118182 -230.879791 
L 199.118182 -232.210561 
L 194.186364 -232.210561 
L 194.186364 -233.236909 
L 189.254545 -233.236909 
L 189.254545 -235.347413 
L 184.322727 -235.347413 
L 184.322727 -236.435515 
L 179.390909 -236.435515 
L 179.390909 -237.241426 
L 174.459091 -237.241426 
L 174.459091 -238.566261 
L 169.527273 -238.566261 
L 169.527273 -240.215426 
L 164.595455 -240.215426 
L 164.595455 -241.925424 
L 159.663636 -241.925424 
L 159.663636 -243.361278 
L 154.731818 -243.361278 
L 154.731818 -245.440636 
L 149.8 -245.440636 
L 149.8 -246.92041 
L 144.868182 -246.92041 
L 144.868182 -249.184396 
L 139.936364 -249.184396 
L 139.936364 -251.644175 
L 135.004545 -251.644175 
L 135.004545 -253.521197 
L 130.072727 -253.521197 
L 130.072727 -256.213049 
L 125.140909 -256.213049 
L 125.140909 -259.013457 
L 120.209091 -259.013457 
L 120.209091 -261.022861 
L 115.277273 -261.022861 
L 115.277273 -263.95313 
L 110.345455 -263.95313 
L 110.345455 -266.407588 
L 105.413636 -266.407588 
L 105.413636 -269.895214 
L 100.481818 -269.895214 
L 100.481818 -274.783875 
L 95.55 -274.783875 
L 95.55 -279.830483 
L 90.618182 -279.830483 
L 90.618182 -286.013725 
L 85.686364 -286.013725 
L 85.686364 -304.445455 
L 80.754545 -304.445455 
z
" id="m2929ebc0a0" style="stroke:#4c72b0;stroke-opacity:0.25;"/>
    </defs>
    <g clip-path="url(#pe31d6b615b)">
     <use style="fill:#4c72b0;fill-opacity:0.25;stroke:#4c72b0;stroke-opacity:0.25;" x="0" xlink:href="#m2929ebc0a0" y="360"/>
    </g>
   </g>
   <g id="PolyCollection_2">
    <defs>
     <path d="M 80.754545 -304.445455 
L 80.754545 -304.445455 
L 85.686364 -304.445455 
L 85.686364 -272.510532 
L 90.618182 -272.510532 
L 90.618182 -261.057131 
L 95.55 -261.057131 
L 95.55 -253.416142 
L 100.481818 -253.416142 
L 100.481818 -248.456996 
L 105.413636 -248.456996 
L 105.413636 -242.68038 
L 110.345455 -242.68038 
L 110.345455 -240.353991 
L 115.277273 -240.353991 
L 115.277273 -236.065711 
L 120.209091 -236.065711 
L 120.209091 -230.157258 
L 125.140909 -230.157258 
L 125.140909 -226.58533 
L 130.072727 -226.58533 
L 130.072727 -222.592201 
L 135.004545 -222.592201 
L 135.004545 -219.796313 
L 139.936364 -219.796313 
L 139.936364 -216.969203 
L 144.868182 -216.969203 
L 144.868182 -212.918046 
L 149.8 -212.918046 
L 149.8 -210.472643 
L 154.731818 -210.472643 
L 154.731818 -205.53925 
L 159.663636 -205.53925 
L 159.663636 -201.004152 
L 164.595455 -201.004152 
L 164.595455 -198.510652 
L 169.527273 -198.510652 
L 169.527273 -196.417312 
L 174.459091 -196.417312 
L 174.459091 -194.719646 
L 179.390909 -194.719646 
L 179.390909 -190.877128 
L 184.322727 -190.877128 
L 184.322727 -188.716409 
L 189.254545 -188.716409 
L 189.254545 -186.973495 
L 194.186364 -186.973495 
L 194.186364 -186.092996 
L 199.118182 -186.092996 
L 199.118182 -182.072195 
L 204.05 -182.072195 
L 204.05 -178.914848 
L 208.981818 -178.914848 
L 208.981818 -176.199169 
L 213.913636 -176.199169 
L 213.913636 -171.162368 
L 218.845455 -171.162368 
L 218.845455 -169.774035 
L 223.777273 -169.774035 
L 223.777273 -167.433354 
L 228.709091 -167.433354 
L 228.709091 -165.056889 
L 233.640909 -165.056889 
L 233.640909 -163.605567 
L 238.572727 -163.605567 
L 238.572727 -158.711111 
L 243.504545 -158.711111 
L 243.504545 -156.717978 
L 248.436364 -156.717978 
L 248.436364 -155.705977 
L 253.368182 -155.705977 
L 253.368182 -153.641472 
L 258.3 -153.641472 
L 258.3 -151.526031 
L 263.231818 -151.526031 
L 263.231818 -147.805973 
L 268.163636 -147.805973 
L 268.163636 -145.664781 
L 273.095455 -145.664781 
L 273.095455 -144.575528 
L 278.027273 -144.575528 
L 278.027273 -141.281567 
L 282.959091 -141.281567 
L 282.959091 -138.51535 
L 287.890909 -138.51535 
L 287.890909 -136.841663 
L 292.822727 -136.841663 
L 292.822727 -132.331458 
L 297.754545 -132.331458 
L 297.754545 -131.188505 
L 302.686364 -131.188505 
L 302.686364 -130.605364 
L 307.618182 -130.605364 
L 307.618182 -126.408414 
L 312.55 -126.408414 
L 312.55 -122.759719 
L 317.481818 -122.759719 
L 317.481818 -122.14369 
L 322.413636 -122.14369 
L 322.413636 -120.264638 
L 327.345455 -120.264638 
L 327.345455 -117.7101 
L 332.277273 -117.7101 
L 332.277273 -115.079955 
L 337.209091 -115.079955 
L 337.209091 -113.741188 
L 342.140909 -113.741188 
L 342.140909 -110.968471 
L 347.072727 -110.968471 
L 347.072727 -108.856644 
L 352.004545 -108.856644 
L 352.004545 -106.663876 
L 356.936364 -106.663876 
L 356.936364 -103.623551 
L 361.868182 -103.623551 
L 361.868182 -101.237603 
L 366.8 -101.237603 
L 366.8 -97.900301 
L 371.731818 -97.900301 
L 371.731818 -97.052747 
L 376.663636 -97.052747 
L 376.663636 -96.174522 
L 381.595455 -96.174522 
L 381.595455 -95.236121 
L 386.527273 -95.236121 
L 386.527273 -94.259822 
L 391.459091 -94.259822 
L 391.459091 -94.259822 
L 396.390909 -94.259822 
L 396.390909 -93.202221 
L 401.322727 -93.202221 
L 401.322727 -90.924417 
L 406.254545 -90.924417 
L 406.254545 -80.846745 
L 411.186364 -80.846745 
L 411.186364 -80.846745 
L 416.118182 -80.846745 
L 416.118182 -74.526456 
L 421.05 -74.526456 
L 421.05 -71.112604 
L 425.981818 -71.112604 
L 425.981818 -67.298255 
L 430.913636 -67.298255 
L 430.913636 -65.007841 
L 435.845455 -65.007841 
L 435.845455 -57.354545 
L 435.845455 -93.178359 
L 435.845455 -93.178359 
L 435.845455 -97.851074 
L 430.913636 -97.851074 
L 430.913636 -99.570384 
L 425.981818 -99.570384 
L 425.981818 -102.595282 
L 421.05 -102.595282 
L 421.05 -105.367568 
L 416.118182 -105.367568 
L 416.118182 -110.540623 
L 411.186364 -110.540623 
L 411.186364 -110.540623 
L 406.254545 -110.540623 
L 406.254545 -119.142163 
L 401.322727 -119.142163 
L 401.322727 -121.106207 
L 396.390909 -121.106207 
L 396.390909 -122.031417 
L 391.459091 -122.031417 
L 391.459091 -122.031417 
L 386.527273 -122.031417 
L 386.527273 -122.89984 
L 381.595455 -122.89984 
L 381.595455 -123.740448 
L 376.663636 -123.740448 
L 376.663636 -124.537173 
L 371.731818 -124.537173 
L 371.731818 -125.310648 
L 366.8 -125.310648 
L 366.8 -128.355831 
L 361.868182 -128.355831 
L 361.868182 -130.544018 
L 356.936364 -130.544018 
L 356.936364 -133.345695 
L 352.004545 -133.345695 
L 352.004545 -135.373768 
L 347.072727 -135.373768 
L 347.072727 -137.334801 
L 342.140909 -137.334801 
L 342.140909 -139.908548 
L 337.209091 -139.908548 
L 337.209091 -141.15567 
L 332.277273 -141.15567 
L 332.277273 -143.607454 
L 327.345455 -143.607454 
L 327.345455 -145.99328 
L 322.413636 -145.99328 
L 322.413636 -147.749452 
L 317.481818 -147.749452 
L 317.481818 -148.325964 
L 312.55 -148.325964 
L 312.55 -151.739791 
L 307.618182 -151.739791 
L 307.618182 -155.658625 
L 302.686364 -155.658625 
L 302.686364 -156.204125 
L 297.754545 -156.204125 
L 297.754545 -157.275751 
L 292.822727 -157.275751 
L 292.822727 -161.501141 
L 287.890909 -161.501141 
L 287.890909 -163.066673 
L 282.959091 -163.066673 
L 282.959091 -165.651567 
L 278.027273 -165.651567 
L 278.027273 -168.723624 
L 273.095455 -168.723624 
L 273.095455 -169.738431 
L 268.163636 -169.738431 
L 268.163636 -171.735267 
L 263.231818 -171.735267 
L 263.231818 -175.197936 
L 258.3 -175.197936 
L 258.3 -177.162518 
L 253.368182 -177.162518 
L 253.368182 -179.082776 
L 248.436364 -179.082776 
L 248.436364 -180.025403 
L 243.504545 -180.025403 
L 243.504545 -181.883387 
L 238.572727 -181.883387 
L 238.572727 -186.44267 
L 233.640909 -186.44267 
L 233.640909 -187.792711 
L 228.709091 -187.792711 
L 228.709091 -190.00492 
L 223.777273 -190.00492 
L 223.777273 -192.183648 
L 218.845455 -192.183648 
L 218.845455 -193.475751 
L 213.913636 -193.475751 
L 213.913636 -198.156211 
L 208.981818 -198.156211 
L 208.981818 -200.674513 
L 204.05 -200.674513 
L 204.05 -203.595433 
L 199.118182 -203.595433 
L 199.118182 -207.306983 
L 194.186364 -207.306983 
L 194.186364 -208.119464 
L 189.254545 -208.119464 
L 189.254545 -209.728 
L 184.322727 -209.728 
L 184.322727 -211.72059 
L 179.390909 -211.72059 
L 179.390909 -215.259537 
L 174.459091 -215.259537 
L 174.459091 -216.820003 
L 169.527273 -216.820003 
L 169.527273 -218.744157 
L 164.595455 -218.744157 
L 164.595455 -221.033133 
L 159.663636 -221.033133 
L 159.663636 -225.185691 
L 154.731818 -225.185691 
L 154.731818 -229.681643 
L 149.8 -229.681643 
L 149.8 -231.903752 
L 144.868182 -231.903752 
L 144.868182 -235.574336 
L 139.936364 -235.574336 
L 139.936364 -238.126427 
L 135.004545 -238.126427 
L 135.004545 -240.64568 
L 130.072727 -240.64568 
L 130.072727 -244.228139 
L 125.140909 -244.228139 
L 125.140909 -247.419337 
L 120.209091 -247.419337 
L 120.209091 -252.668351 
L 115.277273 -252.668351 
L 115.277273 -256.454485 
L 110.345455 -256.454485 
L 110.345455 -258.499149 
L 105.413636 -258.499149 
L 105.413636 -263.545833 
L 100.481818 -263.545833 
L 100.481818 -267.840939 
L 95.55 -267.840939 
L 95.55 -274.365772 
L 90.618182 -274.365772 
L 90.618182 -283.889404 
L 85.686364 -283.889404 
L 85.686364 -304.445455 
L 80.754545 -304.445455 
z
" id="m21d9c03886" style="stroke:#dd8452;stroke-opacity:0.25;"/>
    </defs>
    <g clip-path="url(#pe31d6b615b)">
     <use style="fill:#dd8452;fill-opacity:0.25;stroke:#dd8452;stroke-opacity:0.25;" x="0" xlink:href="#m21d9c03886" y="360"/>
    </g>
   </g>
   <g id="line2d_16">
    <path clip-path="url(#pe31d6b615b)" d="M 80.754545 55.554545 
L 85.686364 55.554545 
L 85.686364 76.114118 
L 90.618182 76.114118 
L 90.618182 82.620105 
L 95.55 82.620105 
L 95.55 87.899086 
L 100.481818 87.899086 
L 100.481818 92.993729 
L 105.413636 92.993729 
L 105.413636 96.61889 
L 110.345455 96.61889 
L 110.345455 99.166188 
L 115.277273 99.166188 
L 115.277273 102.203725 
L 120.209091 102.203725 
L 120.209091 104.284848 
L 125.140909 104.284848 
L 125.140909 107.183107 
L 130.072727 107.183107 
L 130.072727 109.966522 
L 135.004545 109.966522 
L 135.004545 111.906335 
L 139.936364 111.906335 
L 139.936364 114.44702 
L 144.868182 114.44702 
L 144.868182 116.784487 
L 149.8 116.784487 
L 149.8 118.311922 
L 154.731818 118.311922 
L 154.731818 120.457417 
L 159.663636 120.457417 
L 159.663636 121.938639 
L 164.595455 121.938639 
L 164.595455 123.702249 
L 169.527273 123.702249 
L 169.527273 125.402855 
L 174.459091 125.402855 
L 174.459091 126.769078 
L 179.390909 126.769078 
L 179.390909 127.600243 
L 184.322727 127.600243 
L 184.322727 128.722552 
L 189.254545 128.722552 
L 189.254545 130.898883 
L 194.186364 130.898883 
L 194.186364 131.957241 
L 199.118182 131.957241 
L 199.118182 133.329884 
L 204.05 133.329884 
L 204.05 134.9302 
L 208.981818 134.9302 
L 208.981818 135.845718 
L 213.913636 135.845718 
L 213.913636 136.052909 
L 218.845455 136.052909 
L 218.845455 137.001474 
L 223.777273 137.001474 
L 223.777273 138.069039 
L 228.709091 138.069039 
L 228.709091 139.262892 
L 233.640909 139.262892 
L 233.640909 140.696752 
L 238.572727 140.696752 
L 238.572727 141.704453 
L 243.504545 141.704453 
L 243.504545 142.840557 
L 248.436364 142.840557 
L 248.436364 143.994512 
L 253.368182 143.994512 
L 253.368182 145.284695 
L 258.3 145.284695 
L 258.3 146.005279 
L 263.231818 146.005279 
L 263.231818 146.980249 
L 268.163636 146.980249 
L 268.163636 148.097675 
L 273.095455 148.097675 
L 273.095455 149.611128 
L 278.027273 149.611128 
L 278.027273 150.508227 
L 282.959091 150.508227 
L 282.959091 151.68521 
L 287.890909 151.68521 
L 287.890909 153.157154 
L 292.822727 153.157154 
L 292.822727 154.113593 
L 297.754545 154.113593 
L 297.754545 154.671413 
L 302.686364 154.671413 
L 302.686364 155.381034 
L 307.618182 155.381034 
L 307.618182 156.105952 
L 312.55 156.105952 
L 312.55 157.298626 
L 317.481818 157.298626 
L 317.481818 158.52169 
L 322.413636 158.52169 
L 322.413636 160.404462 
L 327.345455 160.404462 
L 327.345455 161.368733 
L 332.277273 161.368733 
L 332.277273 162.029152 
L 337.209091 162.029152 
L 337.209091 163.051285 
L 342.140909 163.051285 
L 342.140909 164.818553 
L 347.072727 164.818553 
L 347.072727 166.643229 
L 352.004545 166.643229 
L 352.004545 167.76981 
L 356.936364 167.76981 
L 356.936364 168.930204 
L 361.868182 168.930204 
L 361.868182 169.937203 
L 366.8 169.937203 
L 366.8 171.393925 
L 371.731818 171.393925 
L 371.731818 172.909232 
L 376.663636 172.909232 
L 376.663636 174.029938 
L 381.595455 174.029938 
L 381.595455 175.673325 
L 386.527273 175.673325 
L 386.527273 176.662982 
L 391.459091 176.662982 
L 391.459091 177.70621 
L 396.390909 177.70621 
L 396.390909 178.536938 
L 401.322727 178.536938 
L 401.322727 180.607752 
L 406.254545 180.607752 
L 406.254545 182.172405 
L 411.186364 182.172405 
L 411.186364 185.54484 
L 416.118182 185.54484 
L 416.118182 187.400621 
L 421.05 187.400621 
L 421.05 189.917875 
L 425.981818 189.917875 
L 425.981818 194.218375 
L 430.913636 194.218375 
L 430.913636 197.106851 
L 435.845455 197.106851 
L 435.845455 200.429542 
L 435.845455 200.429542 
" style="fill:none;stroke:#4c72b0;stroke-linecap:round;stroke-width:1.5;"/>
   </g>
   <g id="line2d_17">
    <path clip-path="url(#pe31d6b615b)" d="M 80.754545 55.554545 
L 85.686364 55.554545 
L 85.686364 81.197825 
L 90.618182 81.197825 
L 90.618182 91.711884 
L 95.55 91.711884 
L 95.55 98.81121 
L 100.481818 98.81121 
L 100.481818 103.449124 
L 105.413636 103.449124 
L 105.413636 108.872881 
L 110.345455 108.872881 
L 110.345455 111.0632 
L 115.277273 111.0632 
L 115.277273 115.109172 
L 120.209091 115.109172 
L 120.209091 120.699808 
L 125.140909 120.699808 
L 125.140909 124.088573 
L 130.072727 124.088573 
L 130.072727 127.884445 
L 135.004545 127.884445 
L 135.004545 130.547807 
L 139.936364 130.547807 
L 139.936364 133.243143 
L 144.868182 133.243143 
L 144.868182 137.112359 
L 149.8 137.112359 
L 149.8 139.451171 
L 154.731818 139.451171 
L 154.731818 144.176043 
L 159.663636 144.176043 
L 159.663636 148.529501 
L 164.595455 148.529501 
L 164.595455 150.926043 
L 169.527273 150.926043 
L 169.527273 152.939225 
L 174.459091 152.939225 
L 174.459091 154.571802 
L 179.390909 154.571802 
L 179.390909 158.270539 
L 184.322727 158.270539 
L 184.322727 160.351663 
L 189.254545 160.351663 
L 189.254545 162.030976 
L 194.186364 162.030976 
L 194.186364 162.879251 
L 199.118182 162.879251 
L 199.118182 166.753462 
L 204.05 166.753462 
L 204.05 169.798989 
L 208.981818 169.798989 
L 208.981818 172.421601 
L 213.913636 172.421601 
L 213.913636 177.29078 
L 218.845455 177.29078 
L 218.845455 178.633926 
L 223.777273 178.633926 
L 223.777273 180.898534 
L 228.709091 180.898534 
L 228.709091 183.197805 
L 233.640909 183.197805 
L 233.640909 184.601443 
L 238.572727 184.601443 
L 238.572727 189.33841 
L 243.504545 189.33841 
L 243.504545 191.268092 
L 248.436364 191.268092 
L 248.436364 192.247469 
L 253.368182 192.247469 
L 253.368182 194.243965 
L 258.3 194.243965 
L 258.3 196.28809 
L 263.231818 196.28809 
L 263.231818 199.886946 
L 268.163636 199.886946 
L 268.163636 201.960395 
L 273.095455 201.960395 
L 273.095455 203.014655 
L 278.027273 203.014655 
L 278.027273 206.204523 
L 282.959091 206.204523 
L 282.959091 208.886013 
L 287.890909 208.886013 
L 287.890909 210.509272 
L 292.822727 210.509272 
L 292.822727 214.887153 
L 297.754545 214.887153 
L 297.754545 215.997038 
L 302.686364 215.997038 
L 302.686364 216.562653 
L 307.618182 216.562653 
L 307.618182 220.629758 
L 312.55 220.629758 
L 312.55 224.169343 
L 317.481818 224.169343 
L 317.481818 224.767036 
L 322.413636 224.767036 
L 322.413636 226.588958 
L 327.345455 226.588958 
L 327.345455 229.065033 
L 332.277273 229.065033 
L 332.277273 231.612055 
L 337.209091 231.612055 
L 337.209091 232.908106 
L 342.140909 232.908106 
L 342.140909 235.587672 
L 347.072727 235.587672 
L 347.072727 237.629045 
L 352.004545 237.629045 
L 352.004545 239.744527 
L 356.936364 239.744527 
L 356.936364 242.672529 
L 361.868182 242.672529 
L 361.868182 244.965059 
L 366.8 244.965059 
L 366.8 248.163937 
L 371.731818 248.163937 
L 371.731818 248.976452 
L 376.663636 248.976452 
L 376.663636 249.815939 
L 381.595455 249.815939 
L 381.595455 250.707429 
L 386.527273 250.707429 
L 386.527273 251.631785 
L 396.390909 251.631785 
L 396.390909 252.625123 
L 401.322727 252.625123 
L 401.322727 254.74991 
L 406.254545 254.74991 
L 406.254545 264.109092 
L 416.118182 264.109092 
L 416.118182 269.868588 
L 421.05 269.868588 
L 421.05 272.969855 
L 425.981818 272.969855 
L 425.981818 276.399141 
L 430.913636 276.399141 
L 430.913636 278.409412 
L 435.845455 278.409412 
L 435.845455 284.583816 
L 435.845455 284.583816 
" style="fill:none;stroke:#dd8452;stroke-linecap:round;stroke-width:1.5;"/>
   </g>
   <g id="patch_3">
    <path d="M 63 315 
L 63 43.2 
" style="fill:none;stroke:#ffffff;stroke-linecap:square;stroke-linejoin:miter;stroke-width:1.25;"/>
   </g>
   <g id="patch_4">
    <path d="M 453.6 315 
L 453.6 43.2 
" style="fill:none;stroke:#ffffff;stroke-linecap:square;stroke-linejoin:miter;stroke-width:1.25;"/>
   </g>
   <g id="patch_5">
    <path d="M 63 315 
L 453.6 315 
" style="fill:none;stroke:#ffffff;stroke-linecap:square;stroke-linejoin:miter;stroke-width:1.25;"/>
   </g>
   <g id="patch_6">
    <path d="M 63 43.2 
L 453.6 43.2 
" style="fill:none;stroke:#ffffff;stroke-linecap:square;stroke-linejoin:miter;stroke-width:1.25;"/>
   </g>
   <g id="text_18">
    <!-- Survival curves, stratified by SeniorCitizen -->
    <g style="fill:#262626;" transform="translate(136.599375 33.2)scale(0.12 -0.12)">
     <defs>
      <path d="M 52.390625 36.53125 
L 38.875 34.078125 
Q 38.1875 38.140625 35.765625 40.1875 
Q 33.34375 42.234375 29.5 42.234375 
Q 24.359375 42.234375 21.3125 38.6875 
Q 18.265625 35.15625 18.265625 26.859375 
Q 18.265625 17.625 21.359375 13.8125 
Q 24.46875 10.015625 29.6875 10.015625 
Q 33.59375 10.015625 36.078125 12.234375 
Q 38.578125 14.453125 39.59375 19.875 
L 53.078125 17.578125 
Q 50.984375 8.296875 45.015625 3.5625 
Q 39.0625 -1.171875 29.046875 -1.171875 
Q 17.671875 -1.171875 10.90625 6 
Q 4.15625 13.1875 4.15625 25.875 
Q 4.15625 38.71875 10.9375 45.875 
Q 17.71875 53.03125 29.296875 53.03125 
Q 38.765625 53.03125 44.359375 48.953125 
Q 49.953125 44.875 52.390625 36.53125 
z
" id="Arial-BoldMT-99"/>
      <path d="M 6.84375 13.71875 
L 20.5625 13.71875 
L 20.5625 3.90625 
Q 20.5625 -2.046875 19.53125 -5.484375 
Q 18.5 -8.9375 15.640625 -11.671875 
Q 12.796875 -14.40625 8.40625 -15.96875 
L 5.71875 -10.296875 
Q 9.859375 -8.9375 11.609375 -6.546875 
Q 13.375 -4.15625 13.484375 0 
L 6.84375 0 
z
" id="Arial-BoldMT-44"/>
      <path d="M 1.171875 51.859375 
L 8.796875 51.859375 
L 8.796875 55.765625 
Q 8.796875 62.3125 10.1875 65.53125 
Q 11.578125 68.75 15.3125 70.765625 
Q 19.046875 72.796875 24.75 72.796875 
Q 30.609375 72.796875 36.234375 71.046875 
L 34.375 61.46875 
Q 31.109375 62.25 28.078125 62.25 
Q 25.09375 62.25 23.796875 60.859375 
Q 22.515625 59.46875 22.515625 55.515625 
L 22.515625 51.859375 
L 32.765625 51.859375 
L 32.765625 41.0625 
L 22.515625 41.0625 
L 22.515625 0 
L 8.796875 0 
L 8.796875 41.0625 
L 1.171875 41.0625 
z
" id="Arial-BoldMT-102"/>
      <path d="M 54.734375 0 
L 42 0 
L 42 7.625 
Q 38.8125 3.171875 34.484375 1 
Q 30.171875 -1.171875 25.78125 -1.171875 
Q 16.84375 -1.171875 10.46875 6.03125 
Q 4.109375 13.234375 4.109375 26.125 
Q 4.109375 39.3125 10.296875 46.171875 
Q 16.5 53.03125 25.984375 53.03125 
Q 34.671875 53.03125 41.015625 45.796875 
L 41.015625 71.578125 
L 54.734375 71.578125 
z
M 18.109375 27.046875 
Q 18.109375 18.75 20.40625 15.046875 
Q 23.734375 9.671875 29.6875 9.671875 
Q 34.421875 9.671875 37.734375 13.6875 
Q 41.0625 17.71875 41.0625 25.734375 
Q 41.0625 34.671875 37.84375 38.59375 
Q 34.625 42.53125 29.59375 42.53125 
Q 24.703125 42.53125 21.40625 38.640625 
Q 18.109375 34.765625 18.109375 27.046875 
z
" id="Arial-BoldMT-100"/>
      <path d="M 53.078125 26.3125 
L 67.09375 21.875 
Q 63.875 10.15625 56.375 4.46875 
Q 48.875 -1.21875 37.359375 -1.21875 
Q 23.09375 -1.21875 13.90625 8.515625 
Q 4.734375 18.265625 4.734375 35.15625 
Q 4.734375 53.03125 13.953125 62.90625 
Q 23.1875 72.796875 38.234375 72.796875 
Q 51.375 72.796875 59.578125 65.046875 
Q 64.453125 60.453125 66.890625 51.859375 
L 52.59375 48.4375 
Q 51.3125 54 47.28125 57.21875 
Q 43.265625 60.453125 37.5 60.453125 
Q 29.546875 60.453125 24.578125 54.734375 
Q 19.625 49.03125 19.625 36.234375 
Q 19.625 22.65625 24.5 16.890625 
Q 29.390625 11.140625 37.203125 11.140625 
Q 42.96875 11.140625 47.109375 14.796875 
Q 51.265625 18.453125 53.078125 26.3125 
z
" id="Arial-BoldMT-67"/>
      <path d="M 1.65625 0 
L 1.65625 10.6875 
L 21.09375 33.015625 
Q 25.875 38.484375 28.171875 40.765625 
Q 25.78125 40.625 21.875 40.578125 
L 3.5625 40.484375 
L 3.5625 51.859375 
L 46.4375 51.859375 
L 46.4375 42.140625 
L 26.609375 19.28125 
L 19.625 11.71875 
Q 25.34375 12.0625 26.703125 12.0625 
L 47.953125 12.0625 
L 47.953125 0 
z
" id="Arial-BoldMT-122"/>
     </defs>
     <use xlink:href="#Arial-BoldMT-83"/>
     <use x="66.699219" xlink:href="#Arial-BoldMT-117"/>
     <use x="127.783203" xlink:href="#Arial-BoldMT-114"/>
     <use x="166.699219" xlink:href="#Arial-BoldMT-118"/>
     <use x="222.314453" xlink:href="#Arial-BoldMT-105"/>
     <use x="250.097656" xlink:href="#Arial-BoldMT-118"/>
     <use x="305.712891" xlink:href="#Arial-BoldMT-97"/>
     <use x="361.328125" xlink:href="#Arial-BoldMT-108"/>
     <use x="389.111328" xlink:href="#Arial-BoldMT-32"/>
     <use x="416.894531" xlink:href="#Arial-BoldMT-99"/>
     <use x="472.509766" xlink:href="#Arial-BoldMT-117"/>
     <use x="533.59375" xlink:href="#Arial-BoldMT-114"/>
     <use x="572.509766" xlink:href="#Arial-BoldMT-118"/>
     <use x="628.125" xlink:href="#Arial-BoldMT-101"/>
     <use x="683.740234" xlink:href="#Arial-BoldMT-115"/>
     <use x="739.355469" xlink:href="#Arial-BoldMT-44"/>
     <use x="767.138672" xlink:href="#Arial-BoldMT-32"/>
     <use x="794.921875" xlink:href="#Arial-BoldMT-115"/>
     <use x="850.537109" xlink:href="#Arial-BoldMT-116"/>
     <use x="883.837891" xlink:href="#Arial-BoldMT-114"/>
     <use x="922.753906" xlink:href="#Arial-BoldMT-97"/>
     <use x="978.369141" xlink:href="#Arial-BoldMT-116"/>
     <use x="1011.669922" xlink:href="#Arial-BoldMT-105"/>
     <use x="1039.453125" xlink:href="#Arial-BoldMT-102"/>
     <use x="1072.753906" xlink:href="#Arial-BoldMT-105"/>
     <use x="1100.537109" xlink:href="#Arial-BoldMT-101"/>
     <use x="1156.152344" xlink:href="#Arial-BoldMT-100"/>
     <use x="1217.236328" xlink:href="#Arial-BoldMT-32"/>
     <use x="1245.019531" xlink:href="#Arial-BoldMT-98"/>
     <use x="1306.103516" xlink:href="#Arial-BoldMT-121"/>
     <use x="1361.71875" xlink:href="#Arial-BoldMT-32"/>
     <use x="1389.501953" xlink:href="#Arial-BoldMT-83"/>
     <use x="1456.201172" xlink:href="#Arial-BoldMT-101"/>
     <use x="1511.816406" xlink:href="#Arial-BoldMT-110"/>
     <use x="1572.900391" xlink:href="#Arial-BoldMT-105"/>
     <use x="1600.683594" xlink:href="#Arial-BoldMT-111"/>
     <use x="1661.767578" xlink:href="#Arial-BoldMT-114"/>
     <use x="1700.683594" xlink:href="#Arial-BoldMT-67"/>
     <use x="1772.900391" xlink:href="#Arial-BoldMT-105"/>
     <use x="1800.683594" xlink:href="#Arial-BoldMT-116"/>
     <use x="1833.984375" xlink:href="#Arial-BoldMT-105"/>
     <use x="1861.767578" xlink:href="#Arial-BoldMT-122"/>
     <use x="1911.767578" xlink:href="#Arial-BoldMT-101"/>
     <use x="1967.382812" xlink:href="#Arial-BoldMT-110"/>
    </g>
   </g>
   <g id="legend_1">
    <g id="patch_7">
     <path d="M 360.569219 83.119687 
L 445.9 83.119687 
Q 448.1 83.119687 448.1 80.919688 
L 448.1 50.9 
Q 448.1 48.7 445.9 48.7 
L 360.569219 48.7 
Q 358.369219 48.7 358.369219 50.9 
L 358.369219 80.919688 
Q 358.369219 83.119687 360.569219 83.119687 
z
" style="fill:#eaeaf2;opacity:0.8;stroke:#cccccc;stroke-linejoin:miter;"/>
    </g>
    <g id="line2d_18">
     <path d="M 362.769219 57.123594 
L 384.769219 57.123594 
" style="fill:none;stroke:#4c72b0;stroke-linecap:round;stroke-width:1.5;"/>
    </g>
    <g id="line2d_19"/>
    <g id="text_19">
     <!-- Not senior -->
     <g style="fill:#262626;" transform="translate(393.569219 60.973594)scale(0.11 -0.11)">
      <defs>
       <path d="M 7.625 0 
L 7.625 71.578125 
L 17.328125 71.578125 
L 54.9375 15.375 
L 54.9375 71.578125 
L 64.015625 71.578125 
L 64.015625 0 
L 54.296875 0 
L 16.703125 56.25 
L 16.703125 0 
z
" id="ArialMT-78"/>
       <path d="M 3.328125 25.921875 
Q 3.328125 40.328125 11.328125 47.265625 
Q 18.015625 53.03125 27.640625 53.03125 
Q 38.328125 53.03125 45.109375 46.015625 
Q 51.90625 39.015625 51.90625 26.65625 
Q 51.90625 16.65625 48.90625 10.90625 
Q 45.90625 5.171875 40.15625 2 
Q 34.421875 -1.171875 27.640625 -1.171875 
Q 16.75 -1.171875 10.03125 5.8125 
Q 3.328125 12.796875 3.328125 25.921875 
z
M 12.359375 25.921875 
Q 12.359375 15.96875 16.703125 11.015625 
Q 21.046875 6.0625 27.640625 6.0625 
Q 34.1875 6.0625 38.53125 11.03125 
Q 42.875 16.015625 42.875 26.21875 
Q 42.875 35.84375 38.5 40.796875 
Q 34.125 45.75 27.640625 45.75 
Q 21.046875 45.75 16.703125 40.8125 
Q 12.359375 35.890625 12.359375 25.921875 
z
" id="ArialMT-111"/>
       <path d="M 25.78125 7.859375 
L 27.046875 0.09375 
Q 23.34375 -0.6875 20.40625 -0.6875 
Q 15.625 -0.6875 12.984375 0.828125 
Q 10.359375 2.34375 9.28125 4.8125 
Q 8.203125 7.28125 8.203125 15.1875 
L 8.203125 45.015625 
L 1.765625 45.015625 
L 1.765625 51.859375 
L 8.203125 51.859375 
L 8.203125 64.703125 
L 16.9375 69.96875 
L 16.9375 51.859375 
L 25.78125 51.859375 
L 25.78125 45.015625 
L 16.9375 45.015625 
L 16.9375 14.703125 
Q 16.9375 10.9375 17.40625 9.859375 
Q 17.875 8.796875 18.921875 8.15625 
Q 19.96875 7.515625 21.921875 7.515625 
Q 23.390625 7.515625 25.78125 7.859375 
z
" id="ArialMT-116"/>
       <path id="ArialMT-32"/>
       <path d="M 3.078125 15.484375 
L 11.765625 16.84375 
Q 12.5 11.625 15.84375 8.84375 
Q 19.1875 6.0625 25.203125 6.0625 
Q 31.25 6.0625 34.171875 8.515625 
Q 37.109375 10.984375 37.109375 14.3125 
Q 37.109375 17.28125 34.515625 19 
Q 32.71875 20.171875 25.53125 21.96875 
Q 15.875 24.421875 12.140625 26.203125 
Q 8.40625 27.984375 6.46875 31.125 
Q 4.546875 34.28125 4.546875 38.09375 
Q 4.546875 41.546875 6.125 44.5 
Q 7.71875 47.46875 10.453125 49.421875 
Q 12.5 50.921875 16.03125 51.96875 
Q 19.578125 53.03125 23.640625 53.03125 
Q 29.734375 53.03125 34.34375 51.265625 
Q 38.96875 49.515625 41.15625 46.5 
Q 43.359375 43.5 44.1875 38.484375 
L 35.59375 37.3125 
Q 35.015625 41.3125 32.203125 43.546875 
Q 29.390625 45.796875 24.265625 45.796875 
Q 18.21875 45.796875 15.625 43.796875 
Q 13.03125 41.796875 13.03125 39.109375 
Q 13.03125 37.40625 14.109375 36.03125 
Q 15.1875 34.625 17.484375 33.6875 
Q 18.796875 33.203125 25.25 31.453125 
Q 34.578125 28.953125 38.25 27.359375 
Q 41.9375 25.78125 44.03125 22.75 
Q 46.140625 19.734375 46.140625 15.234375 
Q 46.140625 10.84375 43.578125 6.953125 
Q 41.015625 3.078125 36.171875 0.953125 
Q 31.34375 -1.171875 25.25 -1.171875 
Q 15.140625 -1.171875 9.84375 3.03125 
Q 4.546875 7.234375 3.078125 15.484375 
z
" id="ArialMT-115"/>
       <path d="M 42.09375 16.703125 
L 51.171875 15.578125 
Q 49.03125 7.625 43.21875 3.21875 
Q 37.40625 -1.171875 28.375 -1.171875 
Q 17 -1.171875 10.328125 5.828125 
Q 3.65625 12.84375 3.65625 25.484375 
Q 3.65625 38.578125 10.390625 45.796875 
Q 17.140625 53.03125 27.875 53.03125 
Q 38.28125 53.03125 44.875 45.953125 
Q 51.46875 38.875 51.46875 26.03125 
Q 51.46875 25.25 51.421875 23.6875 
L 12.75 23.6875 
Q 13.234375 15.140625 17.578125 10.59375 
Q 21.921875 6.0625 28.421875 6.0625 
Q 33.25 6.0625 36.671875 8.59375 
Q 40.09375 11.140625 42.09375 16.703125 
z
M 13.234375 30.90625 
L 42.1875 30.90625 
Q 41.609375 37.453125 38.875 40.71875 
Q 34.671875 45.796875 27.984375 45.796875 
Q 21.921875 45.796875 17.796875 41.75 
Q 13.671875 37.703125 13.234375 30.90625 
z
" id="ArialMT-101"/>
       <path d="M 6.59375 0 
L 6.59375 51.859375 
L 14.5 51.859375 
L 14.5 44.484375 
Q 20.21875 53.03125 31 53.03125 
Q 35.6875 53.03125 39.625 51.34375 
Q 43.5625 49.65625 45.515625 46.921875 
Q 47.46875 44.1875 48.25 40.4375 
Q 48.734375 37.984375 48.734375 31.890625 
L 48.734375 0 
L 39.9375 0 
L 39.9375 31.546875 
Q 39.9375 36.921875 38.90625 39.578125 
Q 37.890625 42.234375 35.28125 43.8125 
Q 32.671875 45.40625 29.15625 45.40625 
Q 23.53125 45.40625 19.453125 41.84375 
Q 15.375 38.28125 15.375 28.328125 
L 15.375 0 
z
" id="ArialMT-110"/>
       <path d="M 6.640625 61.46875 
L 6.640625 71.578125 
L 15.4375 71.578125 
L 15.4375 61.46875 
z
M 6.640625 0 
L 6.640625 51.859375 
L 15.4375 51.859375 
L 15.4375 0 
z
" id="ArialMT-105"/>
       <path d="M 6.5 0 
L 6.5 51.859375 
L 14.40625 51.859375 
L 14.40625 44 
Q 17.4375 49.515625 20 51.265625 
Q 22.5625 53.03125 25.640625 53.03125 
Q 30.078125 53.03125 34.671875 50.203125 
L 31.640625 42.046875 
Q 28.421875 43.953125 25.203125 43.953125 
Q 22.3125 43.953125 20.015625 42.21875 
Q 17.71875 40.484375 16.75 37.40625 
Q 15.28125 32.71875 15.28125 27.15625 
L 15.28125 0 
z
" id="ArialMT-114"/>
      </defs>
      <use xlink:href="#ArialMT-78"/>
      <use x="72.216797" xlink:href="#ArialMT-111"/>
      <use x="127.832031" xlink:href="#ArialMT-116"/>
      <use x="155.615234" xlink:href="#ArialMT-32"/>
      <use x="183.398438" xlink:href="#ArialMT-115"/>
      <use x="233.398438" xlink:href="#ArialMT-101"/>
      <use x="289.013672" xlink:href="#ArialMT-110"/>
      <use x="344.628906" xlink:href="#ArialMT-105"/>
      <use x="366.845703" xlink:href="#ArialMT-111"/>
      <use x="422.460938" xlink:href="#ArialMT-114"/>
     </g>
    </g>
    <g id="line2d_20">
     <path d="M 362.769219 72.683438 
L 384.769219 72.683438 
" style="fill:none;stroke:#dd8452;stroke-linecap:round;stroke-width:1.5;"/>
    </g>
    <g id="line2d_21"/>
    <g id="text_20">
     <!-- Senior -->
     <g style="fill:#262626;" transform="translate(393.569219 76.533438)scale(0.11 -0.11)">
      <defs>
       <path d="M 4.5 23 
L 13.421875 23.78125 
Q 14.0625 18.40625 16.375 14.96875 
Q 18.703125 11.53125 23.578125 9.40625 
Q 28.46875 7.28125 34.578125 7.28125 
Q 39.984375 7.28125 44.140625 8.890625 
Q 48.296875 10.5 50.3125 13.296875 
Q 52.34375 16.109375 52.34375 19.4375 
Q 52.34375 22.796875 50.390625 25.3125 
Q 48.4375 27.828125 43.953125 29.546875 
Q 41.0625 30.671875 31.203125 33.03125 
Q 21.34375 35.40625 17.390625 37.5 
Q 12.25 40.1875 9.734375 44.15625 
Q 7.234375 48.140625 7.234375 53.078125 
Q 7.234375 58.5 10.296875 63.203125 
Q 13.375 67.921875 19.28125 70.359375 
Q 25.203125 72.796875 32.421875 72.796875 
Q 40.375 72.796875 46.453125 70.234375 
Q 52.546875 67.671875 55.8125 62.6875 
Q 59.078125 57.71875 59.328125 51.421875 
L 50.25 50.734375 
Q 49.515625 57.515625 45.28125 60.984375 
Q 41.0625 64.453125 32.8125 64.453125 
Q 24.21875 64.453125 20.28125 61.296875 
Q 16.359375 58.15625 16.359375 53.71875 
Q 16.359375 49.859375 19.140625 47.359375 
Q 21.875 44.875 33.421875 42.265625 
Q 44.96875 39.65625 49.265625 37.703125 
Q 55.515625 34.8125 58.484375 30.390625 
Q 61.46875 25.984375 61.46875 20.21875 
Q 61.46875 14.5 58.203125 9.4375 
Q 54.9375 4.390625 48.796875 1.578125 
Q 42.671875 -1.21875 35.015625 -1.21875 
Q 25.296875 -1.21875 18.71875 1.609375 
Q 12.15625 4.4375 8.421875 10.125 
Q 4.6875 15.828125 4.5 23 
z
" id="ArialMT-83"/>
      </defs>
      <use xlink:href="#ArialMT-83"/>
      <use x="66.699219" xlink:href="#ArialMT-101"/>
      <use x="122.314453" xlink:href="#ArialMT-110"/>
      <use x="177.929688" xlink:href="#ArialMT-105"/>
      <use x="200.146484" xlink:href="#ArialMT-111"/>
      <use x="255.761719" xlink:href="#ArialMT-114"/>
     </g>
    </g>
   </g>
  </g>
 </g>
 <defs>
  <clipPath id="pe31d6b615b">
   <rect height="271.8" width="390.6" x="63" y="43.2"/>
  </clipPath>
 </defs>
</svg>
