<?xml version="1.0" encoding="utf-8" standalone="no"?>
<!DOCTYPE svg PUBLIC "-//W3C//DTD SVG 1.1//EN"
  "http://www.w3.org/Graphics/SVG/1.1/DTD/svg11.dtd">
<!-- Created with matplotlib (https://matplotlib.org/) -->
<svg height="360pt" version="1.1" viewBox="0 0 504 360" width="504pt" xmlns="http://www.w3.org/2000/svg" xmlns:xlink="http://www.w3.org/1999/xlink">
 <metadata>
  <rdf:RDF xmlns:cc="http://creativecommons.org/ns#" xmlns:dc="http://purl.org/dc/elements/1.1/" xmlns:rdf="http://www.w3.org/1999/02/22-rdf-syntax-ns#">
   <cc:Work>
    <dc:type rdf:resource="http://purl.org/dc/dcmitype/StillImage"/>
    <dc:date>2021-06-10T11:37:13.538020</dc:date>
    <dc:format>image/svg+xml</dc:format>
    <dc:creator>
     <cc:Agent>
      <dc:title>Matplotlib v3.3.3, https://matplotlib.org/</dc:title>
     </cc:Agent>
    </dc:creator>
   </cc:Work>
  </rdf:RDF>
 </metadata>
 <defs>
  <style type="text/css">*{stroke-linecap:butt;stroke-linejoin:round;}</style>
 </defs>
 <g id="figure_1">
  <g id="patch_1">
   <path d="M 0 360 
L 504 360 
L 504 0 
L 0 0 
z
" style="fill:none;"/>
  </g>
  <g id="axes_1">
   <g id="patch_2">
    <path d="M 63 315 
L 453.6 315 
L 453.6 43.2 
L 63 43.2 
z
" style="fill:#eaeaf2;"/>
   </g>
   <g id="matplotlib.axis_1">
    <g id="xtick_1">
     <g id="line2d_1">
      <path clip-path="url(#p7cca7bf39c)" d="M 80.754545 315 
L 80.754545 43.2 
" style="fill:none;stroke:#ffffff;stroke-linecap:round;"/>
     </g>
     <g id="text_1">
      <!-- 0 -->
      <g style="fill:#262626;" transform="translate(77.69603 332.373594)scale(0.11 -0.11)">
       <defs>
        <path d="M 4.15625 35.296875 
Q 4.15625 48 6.765625 55.734375 
Q 9.375 63.484375 14.515625 67.671875 
Q 19.671875 71.875 27.484375 71.875 
Q 33.25 71.875 37.59375 69.546875 
Q 41.9375 67.234375 44.765625 62.859375 
Q 47.609375 58.5 49.21875 52.21875 
Q 50.828125 45.953125 50.828125 35.296875 
Q 50.828125 22.703125 48.234375 14.96875 
Q 45.65625 7.234375 40.5 3 
Q 35.359375 -1.21875 27.484375 -1.21875 
Q 17.140625 -1.21875 11.234375 6.203125 
Q 4.15625 15.140625 4.15625 35.296875 
z
M 13.1875 35.296875 
Q 13.1875 17.671875 17.3125 11.828125 
Q 21.4375 6 27.484375 6 
Q 33.546875 6 37.671875 11.859375 
Q 41.796875 17.71875 41.796875 35.296875 
Q 41.796875 52.984375 37.671875 58.78125 
Q 33.546875 64.59375 27.390625 64.59375 
Q 21.34375 64.59375 17.71875 59.46875 
Q 13.1875 52.9375 13.1875 35.296875 
z
" id="ArialMT-48"/>
       </defs>
       <use xlink:href="#ArialMT-48"/>
      </g>
     </g>
    </g>
    <g id="xtick_2">
     <g id="line2d_2">
      <path clip-path="url(#p7cca7bf39c)" d="M 130.072727 315 
L 130.072727 43.2 
" style="fill:none;stroke:#ffffff;stroke-linecap:round;"/>
     </g>
     <g id="text_2">
      <!-- 10 -->
      <g style="fill:#262626;" transform="translate(123.955696 332.373594)scale(0.11 -0.11)">
       <defs>
        <path d="M 37.25 0 
L 28.46875 0 
L 28.46875 56 
Q 25.296875 52.984375 20.140625 49.953125 
Q 14.984375 46.921875 10.890625 45.40625 
L 10.890625 53.90625 
Q 18.265625 57.375 23.78125 62.296875 
Q 29.296875 67.234375 31.59375 71.875 
L 37.25 71.875 
z
" id="ArialMT-49"/>
       </defs>
       <use xlink:href="#ArialMT-49"/>
       <use x="55.615234" xlink:href="#ArialMT-48"/>
      </g>
     </g>
    </g>
    <g id="xtick_3">
     <g id="line2d_3">
      <path clip-path="url(#p7cca7bf39c)" d="M 179.390909 315 
L 179.390909 43.2 
" style="fill:none;stroke:#ffffff;stroke-linecap:round;"/>
     </g>
     <g id="text_3">
      <!-- 20 -->
      <g style="fill:#262626;" transform="translate(173.273878 332.373594)scale(0.11 -0.11)">
       <defs>
        <path d="M 50.34375 8.453125 
L 50.34375 0 
L 3.03125 0 
Q 2.9375 3.171875 4.046875 6.109375 
Q 5.859375 10.9375 9.828125 15.625 
Q 13.8125 20.3125 21.34375 26.46875 
Q 33.015625 36.03125 37.109375 41.625 
Q 41.21875 47.21875 41.21875 52.203125 
Q 41.21875 57.421875 37.46875 61 
Q 33.734375 64.59375 27.734375 64.59375 
Q 21.390625 64.59375 17.578125 60.78125 
Q 13.765625 56.984375 13.71875 50.25 
L 4.6875 51.171875 
Q 5.609375 61.28125 11.65625 66.578125 
Q 17.71875 71.875 27.9375 71.875 
Q 38.234375 71.875 44.234375 66.15625 
Q 50.25 60.453125 50.25 52 
Q 50.25 47.703125 48.484375 43.546875 
Q 46.734375 39.40625 42.65625 34.8125 
Q 38.578125 30.21875 29.109375 22.21875 
Q 21.1875 15.578125 18.9375 13.203125 
Q 16.703125 10.84375 15.234375 8.453125 
z
" id="ArialMT-50"/>
       </defs>
       <use xlink:href="#ArialMT-50"/>
       <use x="55.615234" xlink:href="#ArialMT-48"/>
      </g>
     </g>
    </g>
    <g id="xtick_4">
     <g id="line2d_4">
      <path clip-path="url(#p7cca7bf39c)" d="M 228.709091 315 
L 228.709091 43.2 
" style="fill:none;stroke:#ffffff;stroke-linecap:round;"/>
     </g>
     <g id="text_4">
      <!-- 30 -->
      <g style="fill:#262626;" transform="translate(222.59206 332.373594)scale(0.11 -0.11)">
       <defs>
        <path d="M 4.203125 18.890625 
L 12.984375 20.0625 
Q 14.5 12.59375 18.140625 9.296875 
Q 21.78125 6 27 6 
Q 33.203125 6 37.46875 10.296875 
Q 41.75 14.59375 41.75 20.953125 
Q 41.75 27 37.796875 30.921875 
Q 33.84375 34.859375 27.734375 34.859375 
Q 25.25 34.859375 21.53125 33.890625 
L 22.515625 41.609375 
Q 23.390625 41.5 23.921875 41.5 
Q 29.546875 41.5 34.03125 44.421875 
Q 38.53125 47.359375 38.53125 53.46875 
Q 38.53125 58.296875 35.25 61.46875 
Q 31.984375 64.65625 26.8125 64.65625 
Q 21.6875 64.65625 18.265625 61.421875 
Q 14.84375 58.203125 13.875 51.765625 
L 5.078125 53.328125 
Q 6.6875 62.15625 12.390625 67.015625 
Q 18.109375 71.875 26.609375 71.875 
Q 32.46875 71.875 37.390625 69.359375 
Q 42.328125 66.84375 44.9375 62.5 
Q 47.5625 58.15625 47.5625 53.265625 
Q 47.5625 48.640625 45.0625 44.828125 
Q 42.578125 41.015625 37.703125 38.765625 
Q 44.046875 37.3125 47.5625 32.6875 
Q 51.078125 28.078125 51.078125 21.140625 
Q 51.078125 11.765625 44.234375 5.25 
Q 37.40625 -1.265625 26.953125 -1.265625 
Q 17.53125 -1.265625 11.296875 4.34375 
Q 5.078125 9.96875 4.203125 18.890625 
z
" id="ArialMT-51"/>
       </defs>
       <use xlink:href="#ArialMT-51"/>
       <use x="55.615234" xlink:href="#ArialMT-48"/>
      </g>
     </g>
    </g>
    <g id="xtick_5">
     <g id="line2d_5">
      <path clip-path="url(#p7cca7bf39c)" d="M 278.027273 315 
L 278.027273 43.2 
" style="fill:none;stroke:#ffffff;stroke-linecap:round;"/>
     </g>
     <g id="text_5">
      <!-- 40 -->
      <g style="fill:#262626;" transform="translate(271.910241 332.373594)scale(0.11 -0.11)">
       <defs>
        <path d="M 32.328125 0 
L 32.328125 17.140625 
L 1.265625 17.140625 
L 1.265625 25.203125 
L 33.9375 71.578125 
L 41.109375 71.578125 
L 41.109375 25.203125 
L 50.78125 25.203125 
L 50.78125 17.140625 
L 41.109375 17.140625 
L 41.109375 0 
z
M 32.328125 25.203125 
L 32.328125 57.46875 
L 9.90625 25.203125 
z
" id="ArialMT-52"/>
       </defs>
       <use xlink:href="#ArialMT-52"/>
       <use x="55.615234" xlink:href="#ArialMT-48"/>
      </g>
     </g>
    </g>
    <g id="xtick_6">
     <g id="line2d_6">
      <path clip-path="url(#p7cca7bf39c)" d="M 327.345455 315 
L 327.345455 43.2 
" style="fill:none;stroke:#ffffff;stroke-linecap:round;"/>
     </g>
     <g id="text_6">
      <!-- 50 -->
      <g style="fill:#262626;" transform="translate(321.228423 332.373594)scale(0.11 -0.11)">
       <defs>
        <path d="M 4.15625 18.75 
L 13.375 19.53125 
Q 14.40625 12.796875 18.140625 9.390625 
Q 21.875 6 27.15625 6 
Q 33.5 6 37.890625 10.78125 
Q 42.28125 15.578125 42.28125 23.484375 
Q 42.28125 31 38.0625 35.34375 
Q 33.84375 39.703125 27 39.703125 
Q 22.75 39.703125 19.328125 37.765625 
Q 15.921875 35.84375 13.96875 32.765625 
L 5.71875 33.84375 
L 12.640625 70.609375 
L 48.25 70.609375 
L 48.25 62.203125 
L 19.671875 62.203125 
L 15.828125 42.96875 
Q 22.265625 47.46875 29.34375 47.46875 
Q 38.71875 47.46875 45.15625 40.96875 
Q 51.609375 34.46875 51.609375 24.265625 
Q 51.609375 14.546875 45.953125 7.46875 
Q 39.0625 -1.21875 27.15625 -1.21875 
Q 17.390625 -1.21875 11.203125 4.25 
Q 5.03125 9.71875 4.15625 18.75 
z
" id="ArialMT-53"/>
       </defs>
       <use xlink:href="#ArialMT-53"/>
       <use x="55.615234" xlink:href="#ArialMT-48"/>
      </g>
     </g>
    </g>
    <g id="xtick_7">
     <g id="line2d_7">
      <path clip-path="url(#p7cca7bf39c)" d="M 376.663636 315 
L 376.663636 43.2 
" style="fill:none;stroke:#ffffff;stroke-linecap:round;"/>
     </g>
     <g id="text_7">
      <!-- 60 -->
      <g style="fill:#262626;" transform="translate(370.546605 332.373594)scale(0.11 -0.11)">
       <defs>
        <path d="M 49.75 54.046875 
L 41.015625 53.375 
Q 39.84375 58.546875 37.703125 60.890625 
Q 34.125 64.65625 28.90625 64.65625 
Q 24.703125 64.65625 21.53125 62.3125 
Q 17.390625 59.28125 14.984375 53.46875 
Q 12.59375 47.65625 12.5 36.921875 
Q 15.671875 41.75 20.265625 44.09375 
Q 24.859375 46.4375 29.890625 46.4375 
Q 38.671875 46.4375 44.84375 39.96875 
Q 51.03125 33.5 51.03125 23.25 
Q 51.03125 16.5 48.125 10.71875 
Q 45.21875 4.9375 40.140625 1.859375 
Q 35.0625 -1.21875 28.609375 -1.21875 
Q 17.625 -1.21875 10.6875 6.859375 
Q 3.765625 14.9375 3.765625 33.5 
Q 3.765625 54.25 11.421875 63.671875 
Q 18.109375 71.875 29.4375 71.875 
Q 37.890625 71.875 43.28125 67.140625 
Q 48.6875 62.40625 49.75 54.046875 
z
M 13.875 23.1875 
Q 13.875 18.65625 15.796875 14.5 
Q 17.71875 10.359375 21.1875 8.171875 
Q 24.65625 6 28.46875 6 
Q 34.03125 6 38.03125 10.484375 
Q 42.046875 14.984375 42.046875 22.703125 
Q 42.046875 30.125 38.078125 34.390625 
Q 34.125 38.671875 28.125 38.671875 
Q 22.171875 38.671875 18.015625 34.390625 
Q 13.875 30.125 13.875 23.1875 
z
" id="ArialMT-54"/>
       </defs>
       <use xlink:href="#ArialMT-54"/>
       <use x="55.615234" xlink:href="#ArialMT-48"/>
      </g>
     </g>
    </g>
    <g id="xtick_8">
     <g id="line2d_8">
      <path clip-path="url(#p7cca7bf39c)" d="M 425.981818 315 
L 425.981818 43.2 
" style="fill:none;stroke:#ffffff;stroke-linecap:round;"/>
     </g>
     <g id="text_8">
      <!-- 70 -->
      <g style="fill:#262626;" transform="translate(419.864787 332.373594)scale(0.11 -0.11)">
       <defs>
        <path d="M 4.734375 62.203125 
L 4.734375 70.65625 
L 51.078125 70.65625 
L 51.078125 63.8125 
Q 44.234375 56.546875 37.515625 44.484375 
Q 30.8125 32.421875 27.15625 19.671875 
Q 24.515625 10.6875 23.78125 0 
L 14.75 0 
Q 14.890625 8.453125 18.0625 20.40625 
Q 21.234375 32.375 27.171875 43.484375 
Q 33.109375 54.59375 39.796875 62.203125 
z
" id="ArialMT-55"/>
       </defs>
       <use xlink:href="#ArialMT-55"/>
       <use x="55.615234" xlink:href="#ArialMT-48"/>
      </g>
     </g>
    </g>
    <g id="text_9">
     <!-- Tenure (months) -->
     <g style="fill:#262626;" transform="translate(211.41375 353.295469)scale(0.12 -0.12)">
      <defs>
       <path d="M 23.390625 0 
L 23.390625 59.46875 
L 2.15625 59.46875 
L 2.15625 71.578125 
L 59.03125 71.578125 
L 59.03125 59.46875 
L 37.84375 59.46875 
L 37.84375 0 
z
" id="Arial-BoldMT-84"/>
       <path d="M 37.203125 16.5 
L 50.875 14.203125 
Q 48.25 6.6875 42.546875 2.75 
Q 36.859375 -1.171875 28.328125 -1.171875 
Q 14.796875 -1.171875 8.296875 7.671875 
Q 3.171875 14.75 3.171875 25.53125 
Q 3.171875 38.421875 9.90625 45.71875 
Q 16.65625 53.03125 26.953125 53.03125 
Q 38.53125 53.03125 45.21875 45.390625 
Q 51.90625 37.75 51.609375 21.96875 
L 17.234375 21.96875 
Q 17.390625 15.875 20.5625 12.46875 
Q 23.734375 9.078125 28.46875 9.078125 
Q 31.6875 9.078125 33.875 10.828125 
Q 36.078125 12.59375 37.203125 16.5 
z
M 37.984375 30.375 
Q 37.84375 36.328125 34.90625 39.421875 
Q 31.984375 42.53125 27.78125 42.53125 
Q 23.296875 42.53125 20.359375 39.265625 
Q 17.4375 35.984375 17.484375 30.375 
z
" id="Arial-BoldMT-101"/>
       <path d="M 54.34375 0 
L 40.625 0 
L 40.625 26.46875 
Q 40.625 34.859375 39.75 37.328125 
Q 38.875 39.796875 36.890625 41.15625 
Q 34.90625 42.53125 32.125 42.53125 
Q 28.5625 42.53125 25.734375 40.578125 
Q 22.90625 38.625 21.84375 35.390625 
Q 20.796875 32.171875 20.796875 23.484375 
L 20.796875 0 
L 7.078125 0 
L 7.078125 51.859375 
L 19.828125 51.859375 
L 19.828125 44.234375 
Q 26.609375 53.03125 36.921875 53.03125 
Q 41.453125 53.03125 45.203125 51.390625 
Q 48.96875 49.75 50.890625 47.203125 
Q 52.828125 44.671875 53.578125 41.453125 
Q 54.34375 38.234375 54.34375 32.234375 
z
" id="Arial-BoldMT-110"/>
       <path d="M 41.3125 0 
L 41.3125 7.765625 
Q 38.484375 3.609375 33.859375 1.21875 
Q 29.25 -1.171875 24.125 -1.171875 
Q 18.890625 -1.171875 14.734375 1.125 
Q 10.59375 3.421875 8.734375 7.5625 
Q 6.890625 11.71875 6.890625 19.046875 
L 6.890625 51.859375 
L 20.609375 51.859375 
L 20.609375 28.03125 
Q 20.609375 17.09375 21.359375 14.625 
Q 22.125 12.15625 24.125 10.71875 
Q 26.125 9.28125 29.203125 9.28125 
Q 32.71875 9.28125 35.5 11.203125 
Q 38.28125 13.140625 39.296875 15.984375 
Q 40.328125 18.84375 40.328125 29.984375 
L 40.328125 51.859375 
L 54.046875 51.859375 
L 54.046875 0 
z
" id="Arial-BoldMT-117"/>
       <path d="M 20.3125 0 
L 6.59375 0 
L 6.59375 51.859375 
L 19.34375 51.859375 
L 19.34375 44.484375 
Q 22.609375 49.703125 25.21875 51.359375 
Q 27.828125 53.03125 31.15625 53.03125 
Q 35.84375 53.03125 40.1875 50.4375 
L 35.9375 38.484375 
Q 32.46875 40.71875 29.5 40.71875 
Q 26.609375 40.71875 24.609375 39.125 
Q 22.609375 37.546875 21.453125 33.390625 
Q 20.3125 29.25 20.3125 16.015625 
z
" id="Arial-BoldMT-114"/>
       <path id="Arial-BoldMT-32"/>
       <path d="M 29.9375 -21.046875 
L 20.515625 -21.046875 
Q 13.03125 -9.765625 9.125 2.390625 
Q 5.21875 14.546875 5.21875 25.921875 
Q 5.21875 40.046875 10.0625 52.640625 
Q 14.265625 63.578125 20.703125 72.796875 
L 30.078125 72.796875 
Q 23.390625 58.015625 20.875 47.625 
Q 18.359375 37.25 18.359375 25.640625 
Q 18.359375 17.625 19.84375 9.21875 
Q 21.34375 0.828125 23.921875 -6.734375 
Q 25.640625 -11.71875 29.9375 -21.046875 
z
" id="Arial-BoldMT-40"/>
       <path d="M 6.15625 51.859375 
L 18.796875 51.859375 
L 18.796875 44.78125 
Q 25.59375 53.03125 34.96875 53.03125 
Q 39.9375 53.03125 43.59375 50.96875 
Q 47.265625 48.921875 49.609375 44.78125 
Q 53.03125 48.921875 56.984375 50.96875 
Q 60.9375 53.03125 65.4375 53.03125 
Q 71.140625 53.03125 75.09375 50.703125 
Q 79.046875 48.390625 81 43.890625 
Q 82.421875 40.578125 82.421875 33.15625 
L 82.421875 0 
L 68.703125 0 
L 68.703125 29.640625 
Q 68.703125 37.359375 67.28125 39.59375 
Q 65.375 42.53125 61.421875 42.53125 
Q 58.546875 42.53125 56 40.765625 
Q 53.46875 39.015625 52.34375 35.625 
Q 51.21875 32.234375 51.21875 24.90625 
L 51.21875 0 
L 37.5 0 
L 37.5 28.421875 
Q 37.5 35.984375 36.765625 38.171875 
Q 36.03125 40.375 34.484375 41.453125 
Q 32.953125 42.53125 30.328125 42.53125 
Q 27.15625 42.53125 24.609375 40.8125 
Q 22.078125 39.109375 20.96875 35.890625 
Q 19.875 32.671875 19.875 25.203125 
L 19.875 0 
L 6.15625 0 
z
" id="Arial-BoldMT-109"/>
       <path d="M 4 26.65625 
Q 4 33.5 7.375 39.890625 
Q 10.75 46.296875 16.921875 49.65625 
Q 23.09375 53.03125 30.71875 53.03125 
Q 42.484375 53.03125 50 45.390625 
Q 57.515625 37.75 57.515625 26.078125 
Q 57.515625 14.3125 49.921875 6.5625 
Q 42.328125 -1.171875 30.8125 -1.171875 
Q 23.6875 -1.171875 17.21875 2.046875 
Q 10.75 5.28125 7.375 11.5 
Q 4 17.71875 4 26.65625 
z
M 18.0625 25.921875 
Q 18.0625 18.21875 21.71875 14.109375 
Q 25.390625 10.015625 30.765625 10.015625 
Q 36.140625 10.015625 39.765625 14.109375 
Q 43.40625 18.21875 43.40625 26.03125 
Q 43.40625 33.640625 39.765625 37.734375 
Q 36.140625 41.84375 30.765625 41.84375 
Q 25.390625 41.84375 21.71875 37.734375 
Q 18.0625 33.640625 18.0625 25.921875 
z
" id="Arial-BoldMT-111"/>
       <path d="M 30.953125 51.859375 
L 30.953125 40.921875 
L 21.578125 40.921875 
L 21.578125 20.015625 
Q 21.578125 13.671875 21.84375 12.625 
Q 22.125 11.578125 23.078125 10.890625 
Q 24.03125 10.203125 25.390625 10.203125 
Q 27.296875 10.203125 30.90625 11.53125 
L 32.078125 0.875 
Q 27.296875 -1.171875 21.234375 -1.171875 
Q 17.53125 -1.171875 14.546875 0.0625 
Q 11.578125 1.3125 10.1875 3.296875 
Q 8.796875 5.28125 8.25 8.640625 
Q 7.8125 11.03125 7.8125 18.3125 
L 7.8125 40.921875 
L 1.515625 40.921875 
L 1.515625 51.859375 
L 7.8125 51.859375 
L 7.8125 62.15625 
L 21.578125 70.171875 
L 21.578125 51.859375 
z
" id="Arial-BoldMT-116"/>
       <path d="M 20.84375 71.578125 
L 20.84375 45.265625 
Q 27.484375 53.03125 36.71875 53.03125 
Q 41.453125 53.03125 45.265625 51.265625 
Q 49.078125 49.515625 51 46.78125 
Q 52.9375 44.046875 53.640625 40.71875 
Q 54.34375 37.40625 54.34375 30.421875 
L 54.34375 0 
L 40.625 0 
L 40.625 27.390625 
Q 40.625 35.546875 39.84375 37.734375 
Q 39.0625 39.9375 37.078125 41.234375 
Q 35.109375 42.53125 32.125 42.53125 
Q 28.71875 42.53125 26.03125 40.859375 
Q 23.34375 39.203125 22.09375 35.859375 
Q 20.84375 32.515625 20.84375 25.984375 
L 20.84375 0 
L 7.125 0 
L 7.125 71.578125 
z
" id="Arial-BoldMT-104"/>
       <path d="M 2.34375 14.796875 
L 16.109375 16.890625 
Q 17 12.890625 19.671875 10.8125 
Q 22.359375 8.734375 27.203125 8.734375 
Q 32.515625 8.734375 35.203125 10.6875 
Q 37.015625 12.0625 37.015625 14.359375 
Q 37.015625 15.921875 36.03125 16.9375 
Q 35.015625 17.921875 31.453125 18.75 
Q 14.84375 22.40625 10.40625 25.4375 
Q 4.25 29.640625 4.25 37.109375 
Q 4.25 43.84375 9.5625 48.4375 
Q 14.890625 53.03125 26.078125 53.03125 
Q 36.71875 53.03125 41.890625 49.5625 
Q 47.078125 46.09375 49.03125 39.3125 
L 36.078125 36.921875 
Q 35.25 39.9375 32.921875 41.546875 
Q 30.609375 43.171875 26.3125 43.171875 
Q 20.90625 43.171875 18.5625 41.65625 
Q 17 40.578125 17 38.875 
Q 17 37.40625 18.359375 36.375 
Q 20.21875 35.015625 31.171875 32.515625 
Q 42.140625 30.03125 46.484375 26.421875 
Q 50.78125 22.75 50.78125 16.21875 
Q 50.78125 9.078125 44.828125 3.953125 
Q 38.875 -1.171875 27.203125 -1.171875 
Q 16.609375 -1.171875 10.421875 3.125 
Q 4.25 7.421875 2.34375 14.796875 
z
" id="Arial-BoldMT-115"/>
       <path d="M 3.375 -21.046875 
Q 7.421875 -12.359375 9.078125 -7.71875 
Q 10.75 -3.078125 12.15625 2.96875 
Q 13.578125 9.03125 14.25 14.46875 
Q 14.9375 19.921875 14.9375 25.640625 
Q 14.9375 37.25 12.453125 47.625 
Q 9.96875 58.015625 3.265625 72.796875 
L 12.59375 72.796875 
Q 19.96875 62.3125 24.046875 50.53125 
Q 28.125 38.765625 28.125 26.65625 
Q 28.125 16.453125 24.90625 4.78125 
Q 21.234375 -8.296875 12.84375 -21.046875 
z
" id="Arial-BoldMT-41"/>
      </defs>
      <use xlink:href="#Arial-BoldMT-84"/>
      <use x="53.708984" xlink:href="#Arial-BoldMT-101"/>
      <use x="109.324219" xlink:href="#Arial-BoldMT-110"/>
      <use x="170.408203" xlink:href="#Arial-BoldMT-117"/>
      <use x="231.492188" xlink:href="#Arial-BoldMT-114"/>
      <use x="270.408203" xlink:href="#Arial-BoldMT-101"/>
      <use x="326.023438" xlink:href="#Arial-BoldMT-32"/>
      <use x="353.806641" xlink:href="#Arial-BoldMT-40"/>
      <use x="387.107422" xlink:href="#Arial-BoldMT-109"/>
      <use x="476.023438" xlink:href="#Arial-BoldMT-111"/>
      <use x="537.107422" xlink:href="#Arial-BoldMT-110"/>
      <use x="598.191406" xlink:href="#Arial-BoldMT-116"/>
      <use x="631.492188" xlink:href="#Arial-BoldMT-104"/>
      <use x="692.576172" xlink:href="#Arial-BoldMT-115"/>
      <use x="748.191406" xlink:href="#Arial-BoldMT-41"/>
     </g>
    </g>
   </g>
   <g id="matplotlib.axis_2">
    <g id="ytick_1">
     <g id="line2d_9">
      <path clip-path="url(#p7cca7bf39c)" d="M 63 314.449555 
L 453.6 314.449555 
" style="fill:none;stroke:#ffffff;stroke-linecap:round;"/>
     </g>
     <g id="text_10">
      <!-- 0.4 -->
      <g style="fill:#262626;" transform="translate(38.21 318.386351)scale(0.11 -0.11)">
       <defs>
        <path d="M 9.078125 0 
L 9.078125 10.015625 
L 19.09375 10.015625 
L 19.09375 0 
z
" id="ArialMT-46"/>
       </defs>
       <use xlink:href="#ArialMT-48"/>
       <use x="55.615234" xlink:href="#ArialMT-46"/>
       <use x="83.398438" xlink:href="#ArialMT-52"/>
      </g>
     </g>
    </g>
    <g id="ytick_2">
     <g id="line2d_10">
      <path clip-path="url(#p7cca7bf39c)" d="M 63 271.300386 
L 453.6 271.300386 
" style="fill:none;stroke:#ffffff;stroke-linecap:round;"/>
     </g>
     <g id="text_11">
      <!-- 0.5 -->
      <g style="fill:#262626;" transform="translate(38.21 275.237183)scale(0.11 -0.11)">
       <use xlink:href="#ArialMT-48"/>
       <use x="55.615234" xlink:href="#ArialMT-46"/>
       <use x="83.398438" xlink:href="#ArialMT-53"/>
      </g>
     </g>
    </g>
    <g id="ytick_3">
     <g id="line2d_11">
      <path clip-path="url(#p7cca7bf39c)" d="M 63 228.151218 
L 453.6 228.151218 
" style="fill:none;stroke:#ffffff;stroke-linecap:round;"/>
     </g>
     <g id="text_12">
      <!-- 0.6 -->
      <g style="fill:#262626;" transform="translate(38.21 232.088015)scale(0.11 -0.11)">
       <use xlink:href="#ArialMT-48"/>
       <use x="55.615234" xlink:href="#ArialMT-46"/>
       <use x="83.398438" xlink:href="#ArialMT-54"/>
      </g>
     </g>
    </g>
    <g id="ytick_4">
     <g id="line2d_12">
      <path clip-path="url(#p7cca7bf39c)" d="M 63 185.00205 
L 453.6 185.00205 
" style="fill:none;stroke:#ffffff;stroke-linecap:round;"/>
     </g>
     <g id="text_13">
      <!-- 0.7 -->
      <g style="fill:#262626;" transform="translate(38.21 188.938847)scale(0.11 -0.11)">
       <use xlink:href="#ArialMT-48"/>
       <use x="55.615234" xlink:href="#ArialMT-46"/>
       <use x="83.398438" xlink:href="#ArialMT-55"/>
      </g>
     </g>
    </g>
    <g id="ytick_5">
     <g id="line2d_13">
      <path clip-path="url(#p7cca7bf39c)" d="M 63 141.852882 
L 453.6 141.852882 
" style="fill:none;stroke:#ffffff;stroke-linecap:round;"/>
     </g>
     <g id="text_14">
      <!-- 0.8 -->
      <g style="fill:#262626;" transform="translate(38.21 145.789679)scale(0.11 -0.11)">
       <defs>
        <path d="M 17.671875 38.8125 
Q 12.203125 40.828125 9.5625 44.53125 
Q 6.9375 48.25 6.9375 53.421875 
Q 6.9375 61.234375 12.546875 66.546875 
Q 18.171875 71.875 27.484375 71.875 
Q 36.859375 71.875 42.578125 66.421875 
Q 48.296875 60.984375 48.296875 53.171875 
Q 48.296875 48.1875 45.671875 44.5 
Q 43.0625 40.828125 37.75 38.8125 
Q 44.34375 36.671875 47.78125 31.875 
Q 51.21875 27.09375 51.21875 20.453125 
Q 51.21875 11.28125 44.71875 5.03125 
Q 38.234375 -1.21875 27.640625 -1.21875 
Q 17.046875 -1.21875 10.546875 5.046875 
Q 4.046875 11.328125 4.046875 20.703125 
Q 4.046875 27.6875 7.59375 32.390625 
Q 11.140625 37.109375 17.671875 38.8125 
z
M 15.921875 53.71875 
Q 15.921875 48.640625 19.1875 45.40625 
Q 22.46875 42.1875 27.6875 42.1875 
Q 32.765625 42.1875 36.015625 45.375 
Q 39.265625 48.578125 39.265625 53.21875 
Q 39.265625 58.0625 35.90625 61.359375 
Q 32.5625 64.65625 27.59375 64.65625 
Q 22.5625 64.65625 19.234375 61.421875 
Q 15.921875 58.203125 15.921875 53.71875 
z
M 13.09375 20.65625 
Q 13.09375 16.890625 14.875 13.375 
Q 16.65625 9.859375 20.171875 7.921875 
Q 23.6875 6 27.734375 6 
Q 34.03125 6 38.125 10.046875 
Q 42.234375 14.109375 42.234375 20.359375 
Q 42.234375 26.703125 38.015625 30.859375 
Q 33.796875 35.015625 27.4375 35.015625 
Q 21.234375 35.015625 17.15625 30.90625 
Q 13.09375 26.8125 13.09375 20.65625 
z
" id="ArialMT-56"/>
       </defs>
       <use xlink:href="#ArialMT-48"/>
       <use x="55.615234" xlink:href="#ArialMT-46"/>
       <use x="83.398438" xlink:href="#ArialMT-56"/>
      </g>
     </g>
    </g>
    <g id="ytick_6">
     <g id="line2d_14">
      <path clip-path="url(#p7cca7bf39c)" d="M 63 98.703714 
L 453.6 98.703714 
" style="fill:none;stroke:#ffffff;stroke-linecap:round;"/>
     </g>
     <g id="text_15">
      <!-- 0.9 -->
      <g style="fill:#262626;" transform="translate(38.21 102.640511)scale(0.11 -0.11)">
       <defs>
        <path d="M 5.46875 16.546875 
L 13.921875 17.328125 
Q 14.984375 11.375 18.015625 8.6875 
Q 21.046875 6 25.78125 6 
Q 29.828125 6 32.875 7.859375 
Q 35.9375 9.71875 37.890625 12.8125 
Q 39.84375 15.921875 41.15625 21.1875 
Q 42.484375 26.46875 42.484375 31.9375 
Q 42.484375 32.515625 42.4375 33.6875 
Q 39.796875 29.5 35.234375 26.875 
Q 30.671875 24.265625 25.34375 24.265625 
Q 16.453125 24.265625 10.296875 30.703125 
Q 4.15625 37.15625 4.15625 47.703125 
Q 4.15625 58.59375 10.578125 65.234375 
Q 17 71.875 26.65625 71.875 
Q 33.640625 71.875 39.421875 68.109375 
Q 45.21875 64.359375 48.21875 57.390625 
Q 51.21875 50.4375 51.21875 37.25 
Q 51.21875 23.53125 48.234375 15.40625 
Q 45.265625 7.28125 39.375 3.03125 
Q 33.5 -1.21875 25.59375 -1.21875 
Q 17.1875 -1.21875 11.859375 3.4375 
Q 6.546875 8.109375 5.46875 16.546875 
z
M 41.453125 48.140625 
Q 41.453125 55.71875 37.421875 60.15625 
Q 33.40625 64.59375 27.734375 64.59375 
Q 21.875 64.59375 17.53125 59.8125 
Q 13.1875 55.03125 13.1875 47.40625 
Q 13.1875 40.578125 17.3125 36.296875 
Q 21.4375 32.03125 27.484375 32.03125 
Q 33.59375 32.03125 37.515625 36.296875 
Q 41.453125 40.578125 41.453125 48.140625 
z
" id="ArialMT-57"/>
       </defs>
       <use xlink:href="#ArialMT-48"/>
       <use x="55.615234" xlink:href="#ArialMT-46"/>
       <use x="83.398438" xlink:href="#ArialMT-57"/>
      </g>
     </g>
    </g>
    <g id="ytick_7">
     <g id="line2d_15">
      <path clip-path="url(#p7cca7bf39c)" d="M 63 55.554545 
L 453.6 55.554545 
" style="fill:none;stroke:#ffffff;stroke-linecap:round;"/>
     </g>
     <g id="text_16">
      <!-- 1.0 -->
      <g style="fill:#262626;" transform="translate(38.21 59.491342)scale(0.11 -0.11)">
       <use xlink:href="#ArialMT-49"/>
       <use x="55.615234" xlink:href="#ArialMT-46"/>
       <use x="83.398438" xlink:href="#ArialMT-48"/>
      </g>
     </g>
    </g>
    <g id="text_17">
     <!-- Survival probability -->
     <g style="fill:#262626;" transform="translate(25.684375 234.778125)rotate(-90)scale(0.12 -0.12)">
      <defs>
       <path d="M 3.609375 23.296875 
L 17.671875 24.65625 
Q 18.953125 17.578125 22.828125 14.25 
Q 26.703125 10.9375 33.296875 10.9375 
Q 40.28125 10.9375 43.8125 13.890625 
Q 47.359375 16.84375 47.359375 20.796875 
Q 47.359375 23.34375 45.875 25.125 
Q 44.390625 26.90625 40.671875 28.21875 
Q 38.140625 29.109375 29.109375 31.34375 
Q 17.484375 34.234375 12.796875 38.421875 
Q 6.203125 44.34375 6.203125 52.828125 
Q 6.203125 58.296875 9.296875 63.0625 
Q 12.40625 67.828125 18.234375 70.3125 
Q 24.078125 72.796875 32.328125 72.796875 
Q 45.796875 72.796875 52.609375 66.890625 
Q 59.421875 60.984375 59.765625 51.125 
L 45.3125 50.484375 
Q 44.390625 56 41.328125 58.421875 
Q 38.28125 60.84375 32.171875 60.84375 
Q 25.875 60.84375 22.3125 58.25 
Q 20.015625 56.59375 20.015625 53.8125 
Q 20.015625 51.265625 22.171875 49.46875 
Q 24.90625 47.171875 35.453125 44.671875 
Q 46 42.1875 51.046875 39.515625 
Q 56.109375 36.859375 58.953125 32.25 
Q 61.8125 27.640625 61.8125 20.84375 
Q 61.8125 14.703125 58.390625 9.328125 
Q 54.984375 3.953125 48.734375 1.34375 
Q 42.484375 -1.265625 33.15625 -1.265625 
Q 19.578125 -1.265625 12.296875 5 
Q 5.03125 11.28125 3.609375 23.296875 
z
" id="Arial-BoldMT-83"/>
       <path d="M 21.4375 0 
L 0.53125 51.859375 
L 14.9375 51.859375 
L 24.703125 25.390625 
L 27.546875 16.546875 
Q 28.65625 19.921875 28.953125 21 
Q 29.640625 23.1875 30.421875 25.390625 
L 40.28125 51.859375 
L 54.390625 51.859375 
L 33.796875 0 
z
" id="Arial-BoldMT-118"/>
       <path d="M 7.171875 58.890625 
L 7.171875 71.578125 
L 20.90625 71.578125 
L 20.90625 58.890625 
z
M 7.171875 0 
L 7.171875 51.859375 
L 20.90625 51.859375 
L 20.90625 0 
z
" id="Arial-BoldMT-105"/>
       <path d="M 17.4375 36.03125 
L 4.984375 38.28125 
Q 7.078125 45.796875 12.203125 49.40625 
Q 17.328125 53.03125 27.4375 53.03125 
Q 36.625 53.03125 41.109375 50.859375 
Q 45.609375 48.6875 47.4375 45.34375 
Q 49.265625 42 49.265625 33.0625 
L 49.125 17.046875 
Q 49.125 10.203125 49.78125 6.953125 
Q 50.4375 3.71875 52.25 0 
L 38.671875 0 
Q 38.140625 1.375 37.359375 4.046875 
Q 37.015625 5.28125 36.859375 5.671875 
Q 33.34375 2.25 29.34375 0.53125 
Q 25.34375 -1.171875 20.796875 -1.171875 
Q 12.796875 -1.171875 8.171875 3.171875 
Q 3.5625 7.515625 3.5625 14.15625 
Q 3.5625 18.5625 5.65625 22 
Q 7.765625 25.4375 11.546875 27.265625 
Q 15.328125 29.109375 22.46875 30.46875 
Q 32.078125 32.28125 35.796875 33.84375 
L 35.796875 35.203125 
Q 35.796875 39.15625 33.84375 40.84375 
Q 31.890625 42.53125 26.46875 42.53125 
Q 22.796875 42.53125 20.75 41.09375 
Q 18.703125 39.65625 17.4375 36.03125 
z
M 35.796875 24.90625 
Q 33.15625 24.03125 27.4375 22.796875 
Q 21.734375 21.578125 19.96875 20.40625 
Q 17.28125 18.5 17.28125 15.578125 
Q 17.28125 12.703125 19.421875 10.59375 
Q 21.578125 8.5 24.90625 8.5 
Q 28.609375 8.5 31.984375 10.9375 
Q 34.46875 12.796875 35.25 15.484375 
Q 35.796875 17.234375 35.796875 22.171875 
z
" id="Arial-BoldMT-97"/>
       <path d="M 7.171875 0 
L 7.171875 71.578125 
L 20.90625 71.578125 
L 20.90625 0 
z
" id="Arial-BoldMT-108"/>
       <path d="M 6.78125 51.859375 
L 19.578125 51.859375 
L 19.578125 44.234375 
Q 22.078125 48.140625 26.3125 50.578125 
Q 30.5625 53.03125 35.75 53.03125 
Q 44.78125 53.03125 51.078125 45.953125 
Q 57.375 38.875 57.375 26.21875 
Q 57.375 13.234375 51.015625 6.03125 
Q 44.671875 -1.171875 35.640625 -1.171875 
Q 31.34375 -1.171875 27.84375 0.53125 
Q 24.359375 2.25 20.515625 6.390625 
L 20.515625 -19.734375 
L 6.78125 -19.734375 
z
M 20.359375 26.8125 
Q 20.359375 18.0625 23.828125 13.890625 
Q 27.296875 9.71875 32.28125 9.71875 
Q 37.0625 9.71875 40.234375 13.546875 
Q 43.40625 17.390625 43.40625 26.125 
Q 43.40625 34.28125 40.125 38.234375 
Q 36.859375 42.1875 32.03125 42.1875 
Q 27 42.1875 23.671875 38.296875 
Q 20.359375 34.421875 20.359375 26.8125 
z
" id="Arial-BoldMT-112"/>
       <path d="M 6.59375 0 
L 6.59375 71.578125 
L 20.3125 71.578125 
L 20.3125 45.796875 
Q 26.65625 53.03125 35.359375 53.03125 
Q 44.828125 53.03125 51.03125 46.171875 
Q 57.234375 39.3125 57.234375 26.46875 
Q 57.234375 13.1875 50.90625 6 
Q 44.578125 -1.171875 35.546875 -1.171875 
Q 31.109375 -1.171875 26.78125 1.046875 
Q 22.46875 3.265625 19.34375 7.625 
L 19.34375 0 
z
M 20.21875 27.046875 
Q 20.21875 19 22.75 15.140625 
Q 26.3125 9.671875 32.234375 9.671875 
Q 36.765625 9.671875 39.96875 13.546875 
Q 43.171875 17.4375 43.171875 25.78125 
Q 43.171875 34.671875 39.9375 38.59375 
Q 36.71875 42.53125 31.6875 42.53125 
Q 26.765625 42.53125 23.484375 38.6875 
Q 20.21875 34.859375 20.21875 27.046875 
z
" id="Arial-BoldMT-98"/>
       <path d="M 0.6875 51.859375 
L 15.28125 51.859375 
L 27.6875 15.046875 
L 39.796875 51.859375 
L 54 51.859375 
L 35.6875 1.953125 
L 32.421875 -7.078125 
Q 30.609375 -11.625 28.96875 -14.015625 
Q 27.34375 -16.40625 25.21875 -17.890625 
Q 23.09375 -19.390625 19.984375 -20.21875 
Q 16.890625 -21.046875 12.984375 -21.046875 
Q 9.03125 -21.046875 5.21875 -20.21875 
L 4 -9.46875 
Q 7.234375 -10.109375 9.8125 -10.109375 
Q 14.59375 -10.109375 16.890625 -7.296875 
Q 19.1875 -4.5 20.40625 -0.140625 
z
" id="Arial-BoldMT-121"/>
      </defs>
      <use xlink:href="#Arial-BoldMT-83"/>
      <use x="66.699219" xlink:href="#Arial-BoldMT-117"/>
      <use x="127.783203" xlink:href="#Arial-BoldMT-114"/>
      <use x="166.699219" xlink:href="#Arial-BoldMT-118"/>
      <use x="222.314453" xlink:href="#Arial-BoldMT-105"/>
      <use x="250.097656" xlink:href="#Arial-BoldMT-118"/>
      <use x="305.712891" xlink:href="#Arial-BoldMT-97"/>
      <use x="361.328125" xlink:href="#Arial-BoldMT-108"/>
      <use x="389.111328" xlink:href="#Arial-BoldMT-32"/>
      <use x="416.894531" xlink:href="#Arial-BoldMT-112"/>
      <use x="477.978516" xlink:href="#Arial-BoldMT-114"/>
      <use x="516.894531" xlink:href="#Arial-BoldMT-111"/>
      <use x="577.978516" xlink:href="#Arial-BoldMT-98"/>
      <use x="639.0625" xlink:href="#Arial-BoldMT-97"/>
      <use x="694.677734" xlink:href="#Arial-BoldMT-98"/>
      <use x="755.761719" xlink:href="#Arial-BoldMT-105"/>
      <use x="783.544922" xlink:href="#Arial-BoldMT-108"/>
      <use x="811.328125" xlink:href="#Arial-BoldMT-105"/>
      <use x="839.111328" xlink:href="#Arial-BoldMT-116"/>
      <use x="872.412109" xlink:href="#Arial-BoldMT-121"/>
     </g>
    </g>
   </g>
   <g id="PolyCollection_1">
    <defs>
     <path d="M 80.754545 -304.445455 
L 80.754545 -304.445455 
L 85.686364 -304.445455 
L 85.686364 -293.790531 
L 90.618182 -293.790531 
L 90.618182 -290.944925 
L 95.55 -290.944925 
L 95.55 -287.682627 
L 100.481818 -287.682627 
L 100.481818 -284.567258 
L 105.413636 -284.567258 
L 105.413636 -282.013071 
L 110.345455 -282.013071 
L 110.345455 -280.023333 
L 115.277273 -280.023333 
L 115.277273 -277.312535 
L 120.209091 -277.312535 
L 120.209091 -275.445446 
L 125.140909 -275.445446 
L 125.140909 -273.704747 
L 130.072727 -273.704747 
L 130.072727 -271.663626 
L 135.004545 -271.663626 
L 135.004545 -269.609732 
L 139.936364 -269.609732 
L 139.936364 -268.282176 
L 144.868182 -268.282176 
L 144.868182 -266.197656 
L 149.8 -266.197656 
L 149.8 -264.548062 
L 154.731818 -264.548062 
L 154.731818 -263.490026 
L 159.663636 -263.490026 
L 159.663636 -262.116956 
L 164.595455 -262.116956 
L 164.595455 -259.503675 
L 169.527273 -259.503675 
L 169.527273 -258.109363 
L 174.459091 -258.109363 
L 174.459091 -257.170942 
L 179.390909 -257.170942 
L 179.390909 -255.751426 
L 184.322727 -255.751426 
L 184.322727 -254.002168 
L 189.254545 -254.002168 
L 189.254545 -252.245109 
L 194.186364 -252.245109 
L 194.186364 -251.599155 
L 199.118182 -251.599155 
L 199.118182 -249.792865 
L 204.05 -249.792865 
L 204.05 -248.459279 
L 208.981818 -248.459279 
L 208.981818 -247.447399 
L 213.913636 -247.447399 
L 213.913636 -246.256046 
L 218.845455 -246.256046 
L 218.845455 -245.223966 
L 223.777273 -245.223966 
L 223.777273 -243.657792 
L 228.709091 -243.657792 
L 228.709091 -242.075588 
L 233.640909 -242.075588 
L 233.640909 -241.008573 
L 238.572727 -241.008573 
L 238.572727 -238.671256 
L 243.504545 -238.671256 
L 243.504545 -236.85266 
L 248.436364 -236.85266 
L 248.436364 -235.563588 
L 253.368182 -235.563588 
L 253.368182 -234.815705 
L 258.3 -234.815705 
L 258.3 -234.054839 
L 263.231818 -234.054839 
L 263.231818 -232.709404 
L 268.163636 -232.709404 
L 268.163636 -231.73509 
L 273.095455 -231.73509 
L 273.095455 -230.550699 
L 278.027273 -230.550699 
L 278.027273 -228.959833 
L 282.959091 -228.959833 
L 282.959091 -227.347268 
L 287.890909 -227.347268 
L 287.890909 -225.5112 
L 292.822727 -225.5112 
L 292.822727 -224.057794 
L 297.754545 -224.057794 
L 297.754545 -223.424478 
L 302.686364 -223.424478 
L 302.686364 -223.210338 
L 307.618182 -223.210338 
L 307.618182 -222.336477 
L 312.55 -222.336477 
L 312.55 -220.105406 
L 317.481818 -220.105406 
L 317.481818 -218.967811 
L 322.413636 -218.967811 
L 322.413636 -216.878546 
L 327.345455 -216.878546 
L 327.345455 -214.981822 
L 332.277273 -214.981822 
L 332.277273 -213.769979 
L 337.209091 -213.769979 
L 337.209091 -212.776574 
L 342.140909 -212.776574 
L 342.140909 -210.219804 
L 347.072727 -210.219804 
L 347.072727 -208.650055 
L 352.004545 -208.650055 
L 352.004545 -207.047228 
L 356.936364 -207.047228 
L 356.936364 -205.669039 
L 361.868182 -205.669039 
L 361.868182 -204.23916 
L 366.8 -204.23916 
L 366.8 -201.88798 
L 371.731818 -201.88798 
L 371.731818 -199.756546 
L 376.663636 -199.756546 
L 376.663636 -198.812656 
L 381.595455 -198.812656 
L 381.595455 -196.835928 
L 386.527273 -196.835928 
L 386.527273 -196.139709 
L 391.459091 -196.139709 
L 391.459091 -195.048279 
L 396.390909 -195.048279 
L 396.390909 -194.666722 
L 401.322727 -194.666722 
L 401.322727 -191.405053 
L 406.254545 -191.405053 
L 406.254545 -187.099169 
L 411.186364 -187.099169 
L 411.186364 -183.906877 
L 416.118182 -183.906877 
L 416.118182 -179.914155 
L 421.05 -179.914155 
L 421.05 -177.689287 
L 425.981818 -177.689287 
L 425.981818 -172.664913 
L 430.913636 -172.664913 
L 430.913636 -168.856059 
L 435.845455 -168.856059 
L 435.845455 -162.001752 
L 435.845455 -182.871906 
L 435.845455 -182.871906 
L 435.845455 -187.884111 
L 430.913636 -187.884111 
L 430.913636 -190.937527 
L 425.981818 -190.937527 
L 425.981818 -195.095839 
L 421.05 -195.095839 
L 421.05 -196.967147 
L 416.118182 -196.967147 
L 416.118182 -200.373598 
L 411.186364 -200.373598 
L 411.186364 -203.121974 
L 406.254545 -203.121974 
L 406.254545 -206.838741 
L 401.322727 -206.838741 
L 401.322727 -209.659364 
L 396.390909 -209.659364 
L 396.390909 -209.991867 
L 391.459091 -209.991867 
L 391.459091 -210.949182 
L 386.527273 -210.949182 
L 386.527273 -211.563195 
L 381.595455 -211.563195 
L 381.595455 -213.317552 
L 376.663636 -213.317552 
L 376.663636 -214.159092 
L 371.731818 -214.159092 
L 371.731818 -216.064099 
L 366.8 -216.064099 
L 366.8 -218.169234 
L 361.868182 -218.169234 
L 361.868182 -219.450895 
L 356.936364 -219.450895 
L 356.936364 -220.690064 
L 352.004545 -220.690064 
L 352.004545 -222.134384 
L 347.072727 -222.134384 
L 347.072727 -223.549813 
L 342.140909 -223.549813 
L 342.140909 -225.855868 
L 337.209091 -225.855868 
L 337.209091 -226.753142 
L 332.277273 -226.753142 
L 332.277273 -227.849587 
L 327.345455 -227.849587 
L 327.345455 -229.567077 
L 322.413636 -229.567077 
L 322.413636 -231.459111 
L 317.481818 -231.459111 
L 317.481818 -232.489774 
L 312.55 -232.489774 
L 312.55 -234.5117 
L 307.618182 -234.5117 
L 307.618182 -235.304126 
L 302.686364 -235.304126 
L 302.686364 -235.498653 
L 297.754545 -235.498653 
L 297.754545 -236.074658 
L 292.822727 -236.074658 
L 292.822727 -237.39749 
L 287.890909 -237.39749 
L 287.890909 -239.06876 
L 282.959091 -239.06876 
L 282.959091 -240.535567 
L 278.027273 -240.535567 
L 278.027273 -241.982076 
L 273.095455 -241.982076 
L 273.095455 -243.058048 
L 268.163636 -243.058048 
L 268.163636 -243.943317 
L 263.231818 -243.943317 
L 263.231818 -245.165972 
L 258.3 -245.165972 
L 258.3 -245.85732 
L 253.368182 -245.85732 
L 253.368182 -246.537594 
L 248.436364 -246.537594 
L 248.436364 -247.710704 
L 243.504545 -247.710704 
L 243.504545 -249.364846 
L 238.572727 -249.364846 
L 238.572727 -251.487897 
L 233.640909 -251.487897 
L 233.640909 -252.456145 
L 228.709091 -252.456145 
L 228.709091 -253.891261 
L 223.777273 -253.891261 
L 223.777273 -255.310461 
L 218.845455 -255.310461 
L 218.845455 -256.245264 
L 213.913636 -256.245264 
L 213.913636 -257.323984 
L 208.981818 -257.323984 
L 208.981818 -258.239738 
L 204.05 -258.239738 
L 204.05 -259.446243 
L 199.118182 -259.446243 
L 199.118182 -261.079541 
L 194.186364 -261.079541 
L 194.186364 -261.663716 
L 189.254545 -261.663716 
L 189.254545 -263.251913 
L 184.322727 -263.251913 
L 184.322727 -264.829621 
L 179.390909 -264.829621 
L 179.390909 -266.107935 
L 174.459091 -266.107935 
L 174.459091 -266.952227 
L 169.527273 -266.952227 
L 169.527273 -268.205665 
L 164.595455 -268.205665 
L 164.595455 -270.548944 
L 159.663636 -270.548944 
L 159.663636 -271.776812 
L 154.731818 -271.776812 
L 154.731818 -272.721869 
L 149.8 -272.721869 
L 149.8 -274.192844 
L 144.868182 -274.192844 
L 144.868182 -276.046187 
L 139.936364 -276.046187 
L 139.936364 -277.223566 
L 135.004545 -277.223566 
L 135.004545 -279.039321 
L 130.072727 -279.039321 
L 130.072727 -280.836185 
L 125.140909 -280.836185 
L 125.140909 -282.361919 
L 120.209091 -282.361919 
L 120.209091 -283.992219 
L 115.277273 -283.992219 
L 115.277273 -286.344368 
L 110.345455 -286.344368 
L 110.345455 -288.057491 
L 105.413636 -288.057491 
L 105.413636 -290.236756 
L 100.481818 -290.236756 
L 100.481818 -292.859197 
L 95.55 -292.859197 
L 95.55 -295.550691 
L 90.618182 -295.550691 
L 90.618182 -297.837503 
L 85.686364 -297.837503 
L 85.686364 -304.445455 
L 80.754545 -304.445455 
z
" id="md89d7471c6" style="stroke:#4c72b0;stroke-opacity:0.25;"/>
    </defs>
    <g clip-path="url(#p7cca7bf39c)">
     <use style="fill:#4c72b0;fill-opacity:0.25;stroke:#4c72b0;stroke-opacity:0.25;" x="0" xlink:href="#md89d7471c6" y="360"/>
    </g>
   </g>
   <g id="PolyCollection_2">
    <defs>
     <path d="M 80.754545 -304.445455 
L 80.754545 -304.445455 
L 85.686364 -304.445455 
L 85.686364 -263.072523 
L 90.618182 -263.072523 
L 90.618182 -249.481449 
L 95.55 -249.481449 
L 95.55 -239.889614 
L 100.481818 -239.889614 
L 100.481818 -231.432219 
L 105.413636 -231.432219 
L 105.413636 -224.90762 
L 110.345455 -224.90762 
L 110.345455 -221.150757 
L 115.277273 -221.150757 
L 115.277273 -216.443182 
L 120.209091 -216.443182 
L 120.209091 -212.089597 
L 125.140909 -212.089597 
L 125.140909 -206.88898 
L 130.072727 -206.88898 
L 130.072727 -202.040784 
L 135.004545 -202.040784 
L 135.004545 -199.325178 
L 139.936364 -199.325178 
L 139.936364 -194.587772 
L 144.868182 -194.587772 
L 144.868182 -190.573579 
L 149.8 -190.573579 
L 149.8 -188.346607 
L 154.731818 -188.346607 
L 154.731818 -183.135174 
L 159.663636 -183.135174 
L 159.663636 -179.773821 
L 164.595455 -179.773821 
L 164.595455 -178.156918 
L 169.527273 -178.156918 
L 169.527273 -175.404277 
L 174.459091 -175.404277 
L 174.459091 -172.95102 
L 179.390909 -172.95102 
L 179.390909 -171.220209 
L 184.322727 -171.220209 
L 184.322727 -170.044239 
L 189.254545 -170.044239 
L 189.254545 -166.843465 
L 194.186364 -166.843465 
L 194.186364 -165.000954 
L 199.118182 -165.000954 
L 199.118182 -162.491936 
L 204.05 -162.491936 
L 204.05 -159.280537 
L 208.981818 -159.280537 
L 208.981818 -157.314624 
L 213.913636 -157.314624 
L 213.913636 -155.961319 
L 218.845455 -155.961319 
L 218.845455 -154.571204 
L 223.777273 -154.571204 
L 223.777273 -153.161103 
L 228.709091 -153.161103 
L 228.709091 -151.470424 
L 233.640909 -151.470424 
L 233.640909 -148.993191 
L 238.572727 -148.993191 
L 238.572727 -147.475638 
L 243.504545 -147.475638 
L 243.504545 -146.441743 
L 248.436364 -146.441743 
L 248.436364 -145.121488 
L 253.368182 -145.121488 
L 253.368182 -142.156952 
L 258.3 -142.156952 
L 258.3 -140.47643 
L 263.231818 -140.47643 
L 263.231818 -138.192795 
L 268.163636 -138.192795 
L 268.163636 -135.854287 
L 273.095455 -135.854287 
L 273.095455 -133.463137 
L 278.027273 -133.463137 
L 278.027273 -131.922731 
L 282.959091 -131.922731 
L 282.959091 -130.019659 
L 287.890909 -130.019659 
L 287.890909 -128.368453 
L 292.822727 -128.368453 
L 292.822727 -125.663902 
L 297.754545 -125.663902 
L 297.754545 -124.621725 
L 302.686364 -124.621725 
L 302.686364 -122.834766 
L 307.618182 -122.834766 
L 307.618182 -119.887844 
L 312.55 -119.887844 
L 312.55 -118.355204 
L 317.481818 -118.355204 
L 317.481818 -116.770085 
L 322.413636 -116.770085 
L 322.413636 -114.304298 
L 327.345455 -114.304298 
L 327.345455 -113.457598 
L 332.277273 -113.457598 
L 332.277273 -112.130584 
L 337.209091 -112.130584 
L 337.209091 -110.27853 
L 342.140909 -110.27853 
L 342.140909 -108.311547 
L 347.072727 -108.311547 
L 347.072727 -104.698854 
L 352.004545 -104.698854 
L 352.004545 -103.056725 
L 356.936364 -103.056725 
L 356.936364 -100.226161 
L 361.868182 -100.226161 
L 361.868182 -98.420751 
L 366.8 -98.420751 
L 366.8 -96.497327 
L 371.731818 -96.497327 
L 371.731818 -95.828758 
L 376.663636 -95.828758 
L 376.663636 -93.726986 
L 381.595455 -93.726986 
L 381.595455 -92.225848 
L 386.527273 -92.225848 
L 386.527273 -89.869196 
L 391.459091 -89.869196 
L 391.459091 -89.012262 
L 396.390909 -89.012262 
L 396.390909 -86.161218 
L 401.322727 -86.161218 
L 401.322727 -85.123852 
L 406.254545 -85.123852 
L 406.254545 -81.663624 
L 411.186364 -81.663624 
L 411.186364 -77.526036 
L 416.118182 -77.526036 
L 416.118182 -75.880015 
L 421.05 -75.880015 
L 421.05 -67.855458 
L 425.981818 -67.855458 
L 425.981818 -60.517046 
L 430.913636 -60.517046 
L 430.913636 -57.354545 
L 435.845455 -57.354545 
L 435.845455 -57.354545 
L 435.845455 -87.96949 
L 435.845455 -87.96949 
L 435.845455 -87.96949 
L 430.913636 -87.96949 
L 430.913636 -89.876455 
L 425.981818 -89.876455 
L 425.981818 -94.700628 
L 421.05 -94.700628 
L 421.05 -100.1511 
L 416.118182 -100.1511 
L 416.118182 -101.32285 
L 411.186364 -101.32285 
L 411.186364 -104.414626 
L 406.254545 -104.414626 
L 406.254545 -107.106034 
L 401.322727 -107.106034 
L 401.322727 -107.930941 
L 396.390909 -107.930941 
L 396.390909 -110.237924 
L 391.459091 -110.237924 
L 391.459091 -110.945891 
L 386.527273 -110.945891 
L 386.527273 -112.925579 
L 381.595455 -112.925579 
L 381.595455 -114.193428 
L 376.663636 -114.193428 
L 376.663636 -115.988131 
L 371.731818 -115.988131 
L 371.731818 -116.562912 
L 366.8 -116.562912 
L 366.8 -118.226299 
L 361.868182 -118.226299 
L 361.868182 -119.801529 
L 356.936364 -119.801529 
L 356.936364 -122.289324 
L 352.004545 -122.289324 
L 352.004545 -123.735579 
L 347.072727 -123.735579 
L 347.072727 -126.93667 
L 342.140909 -126.93667 
L 342.140909 -128.685991 
L 337.209091 -128.685991 
L 337.209091 -130.345014 
L 332.277273 -130.345014 
L 332.277273 -131.539801 
L 327.345455 -131.539801 
L 327.345455 -132.306301 
L 322.413636 -132.306301 
L 322.413636 -134.543752 
L 317.481818 -134.543752 
L 317.481818 -135.986133 
L 312.55 -135.986133 
L 312.55 -137.384954 
L 307.618182 -137.384954 
L 307.618182 -140.082525 
L 302.686364 -140.082525 
L 302.686364 -141.720608 
L 297.754545 -141.720608 
L 297.754545 -142.678162 
L 292.822727 -142.678162 
L 292.822727 -145.167093 
L 287.890909 -145.167093 
L 287.890909 -146.68773 
L 282.959091 -146.68773 
L 282.959091 -148.446357 
L 278.027273 -148.446357 
L 278.027273 -149.872651 
L 273.095455 -149.872651 
L 273.095455 -152.090794 
L 268.163636 -152.090794 
L 268.163636 -154.26102 
L 263.231818 -154.26102 
L 263.231818 -156.381721 
L 258.3 -156.381721 
L 258.3 -157.942948 
L 253.368182 -157.942948 
L 253.368182 -160.703824 
L 248.436364 -160.703824 
L 248.436364 -161.933903 
L 243.504545 -161.933903 
L 243.504545 -162.898561 
L 238.572727 -162.898561 
L 238.572727 -164.316438 
L 233.640909 -164.316438 
L 233.640909 -166.632416 
L 228.709091 -166.632416 
L 228.709091 -168.214715 
L 223.777273 -168.214715 
L 223.777273 -169.536709 
L 218.845455 -169.536709 
L 218.845455 -170.840501 
L 213.913636 -170.840501 
L 213.913636 -172.112052 
L 208.981818 -172.112052 
L 208.981818 -173.963103 
L 204.05 -173.963103 
L 204.05 -176.987268 
L 199.118182 -176.987268 
L 199.118182 -179.350685 
L 194.186364 -179.350685 
L 194.186364 -181.087198 
L 189.254545 -181.087198 
L 189.254545 -184.105313 
L 184.322727 -184.105313 
L 184.322727 -185.214676 
L 179.390909 -185.214676 
L 179.390909 -186.848825 
L 174.459091 -186.848825 
L 174.459091 -189.165953 
L 169.527273 -189.165953 
L 169.527273 -191.768194 
L 164.595455 -191.768194 
L 164.595455 -193.297568 
L 159.663636 -193.297568 
L 159.663636 -196.476268 
L 154.731818 -196.476268 
L 154.731818 -201.398713 
L 149.8 -201.398713 
L 149.8 -203.499578 
L 144.868182 -203.499578 
L 144.868182 -207.286782 
L 139.936364 -207.286782 
L 139.936364 -211.752564 
L 135.004545 -211.752564 
L 135.004545 -214.31109 
L 130.072727 -214.31109 
L 130.072727 -218.875609 
L 125.140909 -218.875609 
L 125.140909 -223.764269 
L 120.209091 -223.764269 
L 120.209091 -227.849297 
L 115.277273 -227.849297 
L 115.277273 -232.259461 
L 110.345455 -232.259461 
L 110.345455 -235.773074 
L 105.413636 -235.773074 
L 105.413636 -241.859913 
L 100.481818 -241.859913 
L 100.481818 -249.714405 
L 95.55 -249.714405 
L 95.55 -258.564608 
L 90.618182 -258.564608 
L 90.618182 -270.957328 
L 85.686364 -270.957328 
L 85.686364 -304.445455 
L 80.754545 -304.445455 
z
" id="mf1415aa153" style="stroke:#dd8452;stroke-opacity:0.25;"/>
    </defs>
    <g clip-path="url(#p7cca7bf39c)">
     <use style="fill:#dd8452;fill-opacity:0.25;stroke:#dd8452;stroke-opacity:0.25;" x="0" xlink:href="#mf1415aa153" y="360"/>
    </g>
   </g>
   <g id="line2d_16">
    <path clip-path="url(#p7cca7bf39c)" d="M 80.754545 55.554545 
L 85.686364 55.554545 
L 85.686364 63.947841 
L 90.618182 63.947841 
L 90.618182 66.515965 
L 95.55 66.515965 
L 95.55 69.494775 
L 100.481818 69.494775 
L 100.481818 72.365441 
L 105.413636 72.365441 
L 105.413636 74.733542 
L 110.345455 74.733542 
L 110.345455 76.586038 
L 115.277273 76.586038 
L 115.277273 79.11892 
L 120.209091 79.11892 
L 120.209091 80.868525 
L 125.140909 80.868525 
L 125.140909 82.502495 
L 130.072727 82.502495 
L 130.072727 84.422364 
L 135.004545 84.422364 
L 135.004545 86.358056 
L 139.936364 86.358056 
L 139.936364 87.611076 
L 144.868182 87.611076 
L 144.868182 89.580816 
L 149.8 89.580816 
L 149.8 91.14173 
L 154.731818 91.14173 
L 154.731818 92.143658 
L 159.663636 92.143658 
L 159.663636 93.444581 
L 164.595455 93.444581 
L 164.595455 95.923732 
L 169.527273 95.923732 
L 169.527273 97.248075 
L 174.459091 97.248075 
L 174.459091 98.139721 
L 179.390909 98.139721 
L 179.390909 99.48905 
L 184.322727 99.48905 
L 184.322727 101.153035 
L 189.254545 101.153035 
L 189.254545 102.826202 
L 194.186364 102.826202 
L 194.186364 103.441446 
L 199.118182 103.441446 
L 199.118182 105.161647 
L 204.05 105.161647 
L 204.05 106.431949 
L 208.981818 106.431949 
L 208.981818 107.395936 
L 213.913636 107.395936 
L 213.913636 108.531157 
L 218.845455 108.531157 
L 218.845455 109.514739 
L 223.777273 109.514739 
L 223.777273 111.007614 
L 228.709091 111.007614 
L 228.709091 112.516462 
L 233.640909 112.516462 
L 233.640909 113.534206 
L 238.572727 113.534206 
L 238.572727 115.764641 
L 243.504545 115.764641 
L 243.504545 117.501225 
L 248.436364 117.501225 
L 248.436364 118.732455 
L 253.368182 118.732455 
L 253.368182 119.446587 
L 258.3 119.446587 
L 258.3 120.17271 
L 263.231818 120.17271 
L 263.231818 121.456767 
L 268.163636 121.456767 
L 268.163636 122.386547 
L 273.095455 122.386547 
L 273.095455 123.516691 
L 278.027273 123.516691 
L 278.027273 125.035352 
L 282.959091 125.035352 
L 282.959091 126.575005 
L 287.890909 126.575005 
L 287.890909 128.328649 
L 292.822727 128.328649 
L 292.822727 129.716721 
L 297.754545 129.716721 
L 297.754545 130.32134 
L 302.686364 130.32134 
L 302.686364 130.52565 
L 307.618182 130.52565 
L 307.618182 131.358642 
L 312.55 131.358642 
L 312.55 133.484688 
L 317.481818 133.484688 
L 317.481818 134.568568 
L 322.413636 134.568568 
L 322.413636 136.558718 
L 327.345455 136.558718 
L 327.345455 138.365354 
L 332.277273 138.365354 
L 332.277273 139.519163 
L 337.209091 139.519163 
L 337.209091 140.464172 
L 342.140909 140.464172 
L 342.140909 142.894621 
L 347.072727 142.894621 
L 347.072727 144.386608 
L 352.004545 144.386608 
L 352.004545 145.909539 
L 356.936364 145.909539 
L 356.936364 147.217579 
L 361.868182 147.217579 
L 361.868182 148.572557 
L 366.8 148.572557 
L 366.8 150.799358 
L 371.731818 150.799358 
L 371.731818 152.816263 
L 376.663636 152.816263 
L 376.663636 153.708336 
L 381.595455 153.708336 
L 381.595455 155.572294 
L 386.527273 155.572294 
L 386.527273 156.226734 
L 391.459091 156.226734 
L 391.459091 157.249887 
L 396.390909 157.249887 
L 396.390909 157.606424 
L 401.322727 157.606424 
L 401.322727 160.642735 
L 406.254545 160.642735 
L 406.254545 164.647686 
L 411.186364 164.647686 
L 411.186364 167.613244 
L 416.118182 167.613244 
L 416.118182 171.306111 
L 421.05 171.306111 
L 421.05 173.349737 
L 425.981818 173.349737 
L 425.981818 177.929247 
L 430.913636 177.929247 
L 430.913636 181.348683 
L 435.845455 181.348683 
L 435.845455 187.246385 
L 435.845455 187.246385 
" style="fill:none;stroke:#4c72b0;stroke-linecap:round;stroke-width:1.5;"/>
   </g>
   <g id="line2d_17">
    <path clip-path="url(#p7cca7bf39c)" d="M 80.754545 55.554545 
L 85.686364 55.554545 
L 85.686364 92.786859 
L 90.618182 92.786859 
L 90.618182 105.785807 
L 95.55 105.785807 
L 95.55 115.011946 
L 100.481818 115.011946 
L 100.481818 123.172352 
L 105.413636 123.172352 
L 105.413636 129.481511 
L 110.345455 129.481511 
L 110.345455 133.118711 
L 115.277273 133.118711 
L 115.277273 137.68 
L 120.209091 137.68 
L 120.209091 141.901508 
L 125.140909 141.901508 
L 125.140909 146.948786 
L 130.072727 146.948786 
L 130.072727 151.657594 
L 135.004545 151.657594 
L 135.004545 154.296005 
L 139.936364 154.296005 
L 139.936364 158.899897 
L 144.868182 158.899897 
L 144.868182 162.802529 
L 149.8 162.802529 
L 149.8 164.967484 
L 154.731818 164.967484 
L 154.731818 170.036929 
L 159.663636 170.036929 
L 159.663636 173.308617 
L 164.595455 173.308617 
L 164.595455 174.882551 
L 169.527273 174.882551 
L 169.527273 177.561301 
L 174.459091 177.561301 
L 174.459091 179.947603 
L 179.390909 179.947603 
L 179.390909 181.630847 
L 184.322727 181.630847 
L 184.322727 182.774011 
L 189.254545 182.774011 
L 189.254545 185.884782 
L 194.186364 185.884782 
L 194.186364 187.675041 
L 199.118182 187.675041 
L 199.118182 190.112256 
L 204.05 190.112256 
L 204.05 193.23131 
L 208.981818 193.23131 
L 208.981818 195.140577 
L 213.913636 195.140577 
L 213.913636 196.453496 
L 218.845455 196.453496 
L 218.845455 197.800912 
L 223.777273 197.800912 
L 223.777273 199.167425 
L 228.709091 199.167425 
L 228.709091 200.804429 
L 233.640909 200.804429 
L 233.640909 203.201764 
L 238.572727 203.201764 
L 238.572727 204.669925 
L 243.504545 204.669925 
L 243.504545 205.669487 
L 248.436364 205.669487 
L 248.436364 206.944994 
L 253.368182 206.944994 
L 253.368182 209.808482 
L 258.3 209.808482 
L 258.3 211.429755 
L 263.231818 211.429755 
L 263.231818 213.632484 
L 268.163636 213.632484 
L 268.163636 215.887443 
L 273.095455 215.887443 
L 273.095455 218.192725 
L 278.027273 218.192725 
L 278.027273 219.676464 
L 282.959091 219.676464 
L 282.959091 221.507764 
L 287.890909 221.507764 
L 287.890909 223.094015 
L 292.822727 223.094015 
L 292.822727 225.691331 
L 297.754545 225.691331 
L 297.754545 226.691413 
L 302.686364 226.691413 
L 302.686364 228.404274 
L 307.618182 228.404274 
L 307.618182 231.227106 
L 312.55 231.227106 
L 312.55 232.693118 
L 317.481818 232.693118 
L 317.481818 234.207124 
L 322.413636 234.207124 
L 322.413636 236.559116 
L 327.345455 236.559116 
L 327.345455 237.365838 
L 332.277273 237.365838 
L 332.277273 238.62685 
L 337.209091 238.62685 
L 337.209091 240.382464 
L 342.140909 240.382464 
L 342.140909 242.240571 
L 347.072727 242.240571 
L 347.072727 245.647409 
L 352.004545 245.647409 
L 352.004545 247.191538 
L 356.936364 247.191538 
L 356.936364 249.850681 
L 361.868182 249.850681 
L 361.868182 251.540911 
L 366.8 251.540911 
L 366.8 253.334098 
L 371.731818 253.334098 
L 371.731818 253.955673 
L 376.663636 253.955673 
L 376.663636 255.903505 
L 381.595455 255.903505 
L 381.595455 257.287593 
L 386.527273 257.287593 
L 386.527273 259.455128 
L 391.459091 259.455128 
L 391.459091 260.237228 
L 396.390909 260.237228 
L 396.390909 262.814603 
L 401.322727 262.814603 
L 401.322727 263.745024 
L 406.254545 263.745024 
L 406.254545 266.817977 
L 411.186364 266.817977 
L 411.186364 270.428276 
L 416.118182 270.428276 
L 416.118182 271.834886 
L 421.05 271.834886 
L 421.05 278.56024 
L 425.981818 278.56024 
L 425.981818 284.632648 
L 430.913636 284.632648 
L 430.913636 287.162817 
L 435.845455 287.162817 
L 435.845455 287.162817 
" style="fill:none;stroke:#dd8452;stroke-linecap:round;stroke-width:1.5;"/>
   </g>
   <g id="patch_3">
    <path d="M 63 315 
L 63 43.2 
" style="fill:none;stroke:#ffffff;stroke-linecap:square;stroke-linejoin:miter;stroke-width:1.25;"/>
   </g>
   <g id="patch_4">
    <path d="M 453.6 315 
L 453.6 43.2 
" style="fill:none;stroke:#ffffff;stroke-linecap:square;stroke-linejoin:miter;stroke-width:1.25;"/>
   </g>
   <g id="patch_5">
    <path d="M 63 315 
L 453.6 315 
" style="fill:none;stroke:#ffffff;stroke-linecap:square;stroke-linejoin:miter;stroke-width:1.25;"/>
   </g>
   <g id="patch_6">
    <path d="M 63 43.2 
L 453.6 43.2 
" style="fill:none;stroke:#ffffff;stroke-linecap:square;stroke-linejoin:miter;stroke-width:1.25;"/>
   </g>
   <g id="text_18">
    <!-- Survival curves, stratified by Partner -->
    <g style="fill:#262626;" transform="translate(153.927188 33.2)scale(0.12 -0.12)">
     <defs>
      <path d="M 52.390625 36.53125 
L 38.875 34.078125 
Q 38.1875 38.140625 35.765625 40.1875 
Q 33.34375 42.234375 29.5 42.234375 
Q 24.359375 42.234375 21.3125 38.6875 
Q 18.265625 35.15625 18.265625 26.859375 
Q 18.265625 17.625 21.359375 13.8125 
Q 24.46875 10.015625 29.6875 10.015625 
Q 33.59375 10.015625 36.078125 12.234375 
Q 38.578125 14.453125 39.59375 19.875 
L 53.078125 17.578125 
Q 50.984375 8.296875 45.015625 3.5625 
Q 39.0625 -1.171875 29.046875 -1.171875 
Q 17.671875 -1.171875 10.90625 6 
Q 4.15625 13.1875 4.15625 25.875 
Q 4.15625 38.71875 10.9375 45.875 
Q 17.71875 53.03125 29.296875 53.03125 
Q 38.765625 53.03125 44.359375 48.953125 
Q 49.953125 44.875 52.390625 36.53125 
z
" id="Arial-BoldMT-99"/>
      <path d="M 6.84375 13.71875 
L 20.5625 13.71875 
L 20.5625 3.90625 
Q 20.5625 -2.046875 19.53125 -5.484375 
Q 18.5 -8.9375 15.640625 -11.671875 
Q 12.796875 -14.40625 8.40625 -15.96875 
L 5.71875 -10.296875 
Q 9.859375 -8.9375 11.609375 -6.546875 
Q 13.375 -4.15625 13.484375 0 
L 6.84375 0 
z
" id="Arial-BoldMT-44"/>
      <path d="M 1.171875 51.859375 
L 8.796875 51.859375 
L 8.796875 55.765625 
Q 8.796875 62.3125 10.1875 65.53125 
Q 11.578125 68.75 15.3125 70.765625 
Q 19.046875 72.796875 24.75 72.796875 
Q 30.609375 72.796875 36.234375 71.046875 
L 34.375 61.46875 
Q 31.109375 62.25 28.078125 62.25 
Q 25.09375 62.25 23.796875 60.859375 
Q 22.515625 59.46875 22.515625 55.515625 
L 22.515625 51.859375 
L 32.765625 51.859375 
L 32.765625 41.0625 
L 22.515625 41.0625 
L 22.515625 0 
L 8.796875 0 
L 8.796875 41.0625 
L 1.171875 41.0625 
z
" id="Arial-BoldMT-102"/>
      <path d="M 54.734375 0 
L 42 0 
L 42 7.625 
Q 38.8125 3.171875 34.484375 1 
Q 30.171875 -1.171875 25.78125 -1.171875 
Q 16.84375 -1.171875 10.46875 6.03125 
Q 4.109375 13.234375 4.109375 26.125 
Q 4.109375 39.3125 10.296875 46.171875 
Q 16.5 53.03125 25.984375 53.03125 
Q 34.671875 53.03125 41.015625 45.796875 
L 41.015625 71.578125 
L 54.734375 71.578125 
z
M 18.109375 27.046875 
Q 18.109375 18.75 20.40625 15.046875 
Q 23.734375 9.671875 29.6875 9.671875 
Q 34.421875 9.671875 37.734375 13.6875 
Q 41.0625 17.71875 41.0625 25.734375 
Q 41.0625 34.671875 37.84375 38.59375 
Q 34.625 42.53125 29.59375 42.53125 
Q 24.703125 42.53125 21.40625 38.640625 
Q 18.109375 34.765625 18.109375 27.046875 
z
" id="Arial-BoldMT-100"/>
      <path d="M 7.28125 0 
L 7.28125 71.578125 
L 30.46875 71.578125 
Q 43.65625 71.578125 47.65625 70.515625 
Q 53.8125 68.890625 57.953125 63.5 
Q 62.109375 58.109375 62.109375 49.5625 
Q 62.109375 42.96875 59.71875 38.46875 
Q 57.328125 33.984375 53.640625 31.421875 
Q 49.953125 28.859375 46.140625 28.03125 
Q 40.96875 27 31.15625 27 
L 21.734375 27 
L 21.734375 0 
z
M 21.734375 59.46875 
L 21.734375 39.15625 
L 29.640625 39.15625 
Q 38.1875 39.15625 41.0625 40.28125 
Q 43.953125 41.40625 45.578125 43.796875 
Q 47.21875 46.1875 47.21875 49.359375 
Q 47.21875 53.265625 44.921875 55.796875 
Q 42.625 58.34375 39.109375 58.984375 
Q 36.53125 59.46875 28.71875 59.46875 
z
" id="Arial-BoldMT-80"/>
     </defs>
     <use xlink:href="#Arial-BoldMT-83"/>
     <use x="66.699219" xlink:href="#Arial-BoldMT-117"/>
     <use x="127.783203" xlink:href="#Arial-BoldMT-114"/>
     <use x="166.699219" xlink:href="#Arial-BoldMT-118"/>
     <use x="222.314453" xlink:href="#Arial-BoldMT-105"/>
     <use x="250.097656" xlink:href="#Arial-BoldMT-118"/>
     <use x="305.712891" xlink:href="#Arial-BoldMT-97"/>
     <use x="361.328125" xlink:href="#Arial-BoldMT-108"/>
     <use x="389.111328" xlink:href="#Arial-BoldMT-32"/>
     <use x="416.894531" xlink:href="#Arial-BoldMT-99"/>
     <use x="472.509766" xlink:href="#Arial-BoldMT-117"/>
     <use x="533.59375" xlink:href="#Arial-BoldMT-114"/>
     <use x="572.509766" xlink:href="#Arial-BoldMT-118"/>
     <use x="628.125" xlink:href="#Arial-BoldMT-101"/>
     <use x="683.740234" xlink:href="#Arial-BoldMT-115"/>
     <use x="739.355469" xlink:href="#Arial-BoldMT-44"/>
     <use x="767.138672" xlink:href="#Arial-BoldMT-32"/>
     <use x="794.921875" xlink:href="#Arial-BoldMT-115"/>
     <use x="850.537109" xlink:href="#Arial-BoldMT-116"/>
     <use x="883.837891" xlink:href="#Arial-BoldMT-114"/>
     <use x="922.753906" xlink:href="#Arial-BoldMT-97"/>
     <use x="978.369141" xlink:href="#Arial-BoldMT-116"/>
     <use x="1011.669922" xlink:href="#Arial-BoldMT-105"/>
     <use x="1039.453125" xlink:href="#Arial-BoldMT-102"/>
     <use x="1072.753906" xlink:href="#Arial-BoldMT-105"/>
     <use x="1100.537109" xlink:href="#Arial-BoldMT-101"/>
     <use x="1156.152344" xlink:href="#Arial-BoldMT-100"/>
     <use x="1217.236328" xlink:href="#Arial-BoldMT-32"/>
     <use x="1245.019531" xlink:href="#Arial-BoldMT-98"/>
     <use x="1306.103516" xlink:href="#Arial-BoldMT-121"/>
     <use x="1361.71875" xlink:href="#Arial-BoldMT-32"/>
     <use x="1389.501953" xlink:href="#Arial-BoldMT-80"/>
     <use x="1456.201172" xlink:href="#Arial-BoldMT-97"/>
     <use x="1511.816406" xlink:href="#Arial-BoldMT-114"/>
     <use x="1550.732422" xlink:href="#Arial-BoldMT-116"/>
     <use x="1584.033203" xlink:href="#Arial-BoldMT-110"/>
     <use x="1645.117188" xlink:href="#Arial-BoldMT-101"/>
     <use x="1700.732422" xlink:href="#Arial-BoldMT-114"/>
    </g>
   </g>
   <g id="legend_1">
    <g id="patch_7">
     <path d="M 392.749375 83.119687 
L 445.9 83.119687 
Q 448.1 83.119687 448.1 80.919688 
L 448.1 50.9 
Q 448.1 48.7 445.9 48.7 
L 392.749375 48.7 
Q 390.549375 48.7 390.549375 50.9 
L 390.549375 80.919688 
Q 390.549375 83.119687 392.749375 83.119687 
z
" style="fill:#eaeaf2;opacity:0.8;stroke:#cccccc;stroke-linejoin:miter;"/>
    </g>
    <g id="line2d_18">
     <path d="M 394.949375 57.123594 
L 416.949375 57.123594 
" style="fill:none;stroke:#4c72b0;stroke-linecap:round;stroke-width:1.5;"/>
    </g>
    <g id="line2d_19"/>
    <g id="text_19">
     <!-- Yes -->
     <g style="fill:#262626;" transform="translate(425.749375 60.973594)scale(0.11 -0.11)">
      <defs>
       <path d="M 27.875 0 
L 27.875 30.328125 
L 0.296875 71.578125 
L 11.8125 71.578125 
L 25.921875 50 
Q 29.828125 43.953125 33.203125 37.890625 
Q 36.421875 43.5 41.015625 50.53125 
L 54.890625 71.578125 
L 65.921875 71.578125 
L 37.359375 30.328125 
L 37.359375 0 
z
" id="ArialMT-89"/>
       <path d="M 42.09375 16.703125 
L 51.171875 15.578125 
Q 49.03125 7.625 43.21875 3.21875 
Q 37.40625 -1.171875 28.375 -1.171875 
Q 17 -1.171875 10.328125 5.828125 
Q 3.65625 12.84375 3.65625 25.484375 
Q 3.65625 38.578125 10.390625 45.796875 
Q 17.140625 53.03125 27.875 53.03125 
Q 38.28125 53.03125 44.875 45.953125 
Q 51.46875 38.875 51.46875 26.03125 
Q 51.46875 25.25 51.421875 23.6875 
L 12.75 23.6875 
Q 13.234375 15.140625 17.578125 10.59375 
Q 21.921875 6.0625 28.421875 6.0625 
Q 33.25 6.0625 36.671875 8.59375 
Q 40.09375 11.140625 42.09375 16.703125 
z
M 13.234375 30.90625 
L 42.1875 30.90625 
Q 41.609375 37.453125 38.875 40.71875 
Q 34.671875 45.796875 27.984375 45.796875 
Q 21.921875 45.796875 17.796875 41.75 
Q 13.671875 37.703125 13.234375 30.90625 
z
" id="ArialMT-101"/>
       <path d="M 3.078125 15.484375 
L 11.765625 16.84375 
Q 12.5 11.625 15.84375 8.84375 
Q 19.1875 6.0625 25.203125 6.0625 
Q 31.25 6.0625 34.171875 8.515625 
Q 37.109375 10.984375 37.109375 14.3125 
Q 37.109375 17.28125 34.515625 19 
Q 32.71875 20.171875 25.53125 21.96875 
Q 15.875 24.421875 12.140625 26.203125 
Q 8.40625 27.984375 6.46875 31.125 
Q 4.546875 34.28125 4.546875 38.09375 
Q 4.546875 41.546875 6.125 44.5 
Q 7.71875 47.46875 10.453125 49.421875 
Q 12.5 50.921875 16.03125 51.96875 
Q 19.578125 53.03125 23.640625 53.03125 
Q 29.734375 53.03125 34.34375 51.265625 
Q 38.96875 49.515625 41.15625 46.5 
Q 43.359375 43.5 44.1875 38.484375 
L 35.59375 37.3125 
Q 35.015625 41.3125 32.203125 43.546875 
Q 29.390625 45.796875 24.265625 45.796875 
Q 18.21875 45.796875 15.625 43.796875 
Q 13.03125 41.796875 13.03125 39.109375 
Q 13.03125 37.40625 14.109375 36.03125 
Q 15.1875 34.625 17.484375 33.6875 
Q 18.796875 33.203125 25.25 31.453125 
Q 34.578125 28.953125 38.25 27.359375 
Q 41.9375 25.78125 44.03125 22.75 
Q 46.140625 19.734375 46.140625 15.234375 
Q 46.140625 10.84375 43.578125 6.953125 
Q 41.015625 3.078125 36.171875 0.953125 
Q 31.34375 -1.171875 25.25 -1.171875 
Q 15.140625 -1.171875 9.84375 3.03125 
Q 4.546875 7.234375 3.078125 15.484375 
z
" id="ArialMT-115"/>
      </defs>
      <use xlink:href="#ArialMT-89"/>
      <use x="57.574219" xlink:href="#ArialMT-101"/>
      <use x="113.189453" xlink:href="#ArialMT-115"/>
     </g>
    </g>
    <g id="line2d_20">
     <path d="M 394.949375 72.683438 
L 416.949375 72.683438 
" style="fill:none;stroke:#dd8452;stroke-linecap:round;stroke-width:1.5;"/>
    </g>
    <g id="line2d_21"/>
    <g id="text_20">
     <!-- No -->
     <g style="fill:#262626;" transform="translate(425.749375 76.533438)scale(0.11 -0.11)">
      <defs>
       <path d="M 7.625 0 
L 7.625 71.578125 
L 17.328125 71.578125 
L 54.9375 15.375 
L 54.9375 71.578125 
L 64.015625 71.578125 
L 64.015625 0 
L 54.296875 0 
L 16.703125 56.25 
L 16.703125 0 
z
" id="ArialMT-78"/>
       <path d="M 3.328125 25.921875 
Q 3.328125 40.328125 11.328125 47.265625 
Q 18.015625 53.03125 27.640625 53.03125 
Q 38.328125 53.03125 45.109375 46.015625 
Q 51.90625 39.015625 51.90625 26.65625 
Q 51.90625 16.65625 48.90625 10.90625 
Q 45.90625 5.171875 40.15625 2 
Q 34.421875 -1.171875 27.640625 -1.171875 
Q 16.75 -1.171875 10.03125 5.8125 
Q 3.328125 12.796875 3.328125 25.921875 
z
M 12.359375 25.921875 
Q 12.359375 15.96875 16.703125 11.015625 
Q 21.046875 6.0625 27.640625 6.0625 
Q 34.1875 6.0625 38.53125 11.03125 
Q 42.875 16.015625 42.875 26.21875 
Q 42.875 35.84375 38.5 40.796875 
Q 34.125 45.75 27.640625 45.75 
Q 21.046875 45.75 16.703125 40.8125 
Q 12.359375 35.890625 12.359375 25.921875 
z
" id="ArialMT-111"/>
      </defs>
      <use xlink:href="#ArialMT-78"/>
      <use x="72.216797" xlink:href="#ArialMT-111"/>
     </g>
    </g>
   </g>
  </g>
 </g>
 <defs>
  <clipPath id="p7cca7bf39c">
   <rect height="271.8" width="390.6" x="63" y="43.2"/>
  </clipPath>
 </defs>
</svg>
