<?xml version="1.0" encoding="utf-8" standalone="no"?>
<!DOCTYPE svg PUBLIC "-//W3C//DTD SVG 1.1//EN"
  "http://www.w3.org/Graphics/SVG/1.1/DTD/svg11.dtd">
<!-- Created with matplotlib (https://matplotlib.org/) -->
<svg height="432pt" version="1.1" viewBox="0 0 504 432" width="504pt" xmlns="http://www.w3.org/2000/svg" xmlns:xlink="http://www.w3.org/1999/xlink">
 <metadata>
  <rdf:RDF xmlns:cc="http://creativecommons.org/ns#" xmlns:dc="http://purl.org/dc/elements/1.1/" xmlns:rdf="http://www.w3.org/1999/02/22-rdf-syntax-ns#">
   <cc:Work>
    <dc:type rdf:resource="http://purl.org/dc/dcmitype/StillImage"/>
    <dc:date>2021-06-10T11:45:48.645925</dc:date>
    <dc:format>image/svg+xml</dc:format>
    <dc:creator>
     <cc:Agent>
      <dc:title>Matplotlib v3.3.3, https://matplotlib.org/</dc:title>
     </cc:Agent>
    </dc:creator>
   </cc:Work>
  </rdf:RDF>
 </metadata>
 <defs>
  <style type="text/css">*{stroke-linecap:butt;stroke-linejoin:round;}</style>
 </defs>
 <g id="figure_1">
  <g id="patch_1">
   <path d="M 0 432 
L 504 432 
L 504 0 
L 0 0 
z
" style="fill:none;"/>
  </g>
  <g id="axes_1">
   <g id="patch_2">
    <path d="M 63 378 
L 453.6 378 
L 453.6 51.84 
L 63 51.84 
z
" style="fill:#eaeaf2;"/>
   </g>
   <g id="matplotlib.axis_1">
    <g id="xtick_1">
     <g id="line2d_1">
      <path clip-path="url(#pfa092aaa09)" d="M 72.901859 378 
L 72.901859 51.84 
" style="fill:none;stroke:#ffffff;stroke-linecap:round;"/>
     </g>
     <g id="text_1">
      <!-- 0 -->
      <g style="fill:#262626;" transform="translate(69.843344 395.373594)scale(0.11 -0.11)">
       <defs>
        <path d="M 4.15625 35.296875 
Q 4.15625 48 6.765625 55.734375 
Q 9.375 63.484375 14.515625 67.671875 
Q 19.671875 71.875 27.484375 71.875 
Q 33.25 71.875 37.59375 69.546875 
Q 41.9375 67.234375 44.765625 62.859375 
Q 47.609375 58.5 49.21875 52.21875 
Q 50.828125 45.953125 50.828125 35.296875 
Q 50.828125 22.703125 48.234375 14.96875 
Q 45.65625 7.234375 40.5 3 
Q 35.359375 -1.21875 27.484375 -1.21875 
Q 17.140625 -1.21875 11.234375 6.203125 
Q 4.15625 15.140625 4.15625 35.296875 
z
M 13.1875 35.296875 
Q 13.1875 17.671875 17.3125 11.828125 
Q 21.4375 6 27.484375 6 
Q 33.546875 6 37.671875 11.859375 
Q 41.796875 17.71875 41.796875 35.296875 
Q 41.796875 52.984375 37.671875 58.78125 
Q 33.546875 64.59375 27.390625 64.59375 
Q 21.34375 64.59375 17.71875 59.46875 
Q 13.1875 52.9375 13.1875 35.296875 
z
" id="ArialMT-48"/>
       </defs>
       <use xlink:href="#ArialMT-48"/>
      </g>
     </g>
    </g>
    <g id="xtick_2">
     <g id="line2d_2">
      <path clip-path="url(#pfa092aaa09)" d="M 127.032703 378 
L 127.032703 51.84 
" style="fill:none;stroke:#ffffff;stroke-linecap:round;"/>
     </g>
     <g id="text_2">
      <!-- 20 -->
      <g style="fill:#262626;" transform="translate(120.915672 395.373594)scale(0.11 -0.11)">
       <defs>
        <path d="M 50.34375 8.453125 
L 50.34375 0 
L 3.03125 0 
Q 2.9375 3.171875 4.046875 6.109375 
Q 5.859375 10.9375 9.828125 15.625 
Q 13.8125 20.3125 21.34375 26.46875 
Q 33.015625 36.03125 37.109375 41.625 
Q 41.21875 47.21875 41.21875 52.203125 
Q 41.21875 57.421875 37.46875 61 
Q 33.734375 64.59375 27.734375 64.59375 
Q 21.390625 64.59375 17.578125 60.78125 
Q 13.765625 56.984375 13.71875 50.25 
L 4.6875 51.171875 
Q 5.609375 61.28125 11.65625 66.578125 
Q 17.71875 71.875 27.9375 71.875 
Q 38.234375 71.875 44.234375 66.15625 
Q 50.25 60.453125 50.25 52 
Q 50.25 47.703125 48.484375 43.546875 
Q 46.734375 39.40625 42.65625 34.8125 
Q 38.578125 30.21875 29.109375 22.21875 
Q 21.1875 15.578125 18.9375 13.203125 
Q 16.703125 10.84375 15.234375 8.453125 
z
" id="ArialMT-50"/>
       </defs>
       <use xlink:href="#ArialMT-50"/>
       <use x="55.615234" xlink:href="#ArialMT-48"/>
      </g>
     </g>
    </g>
    <g id="xtick_3">
     <g id="line2d_3">
      <path clip-path="url(#pfa092aaa09)" d="M 181.163547 378 
L 181.163547 51.84 
" style="fill:none;stroke:#ffffff;stroke-linecap:round;"/>
     </g>
     <g id="text_3">
      <!-- 40 -->
      <g style="fill:#262626;" transform="translate(175.046516 395.373594)scale(0.11 -0.11)">
       <defs>
        <path d="M 32.328125 0 
L 32.328125 17.140625 
L 1.265625 17.140625 
L 1.265625 25.203125 
L 33.9375 71.578125 
L 41.109375 71.578125 
L 41.109375 25.203125 
L 50.78125 25.203125 
L 50.78125 17.140625 
L 41.109375 17.140625 
L 41.109375 0 
z
M 32.328125 25.203125 
L 32.328125 57.46875 
L 9.90625 25.203125 
z
" id="ArialMT-52"/>
       </defs>
       <use xlink:href="#ArialMT-52"/>
       <use x="55.615234" xlink:href="#ArialMT-48"/>
      </g>
     </g>
    </g>
    <g id="xtick_4">
     <g id="line2d_4">
      <path clip-path="url(#pfa092aaa09)" d="M 235.294391 378 
L 235.294391 51.84 
" style="fill:none;stroke:#ffffff;stroke-linecap:round;"/>
     </g>
     <g id="text_4">
      <!-- 60 -->
      <g style="fill:#262626;" transform="translate(229.17736 395.373594)scale(0.11 -0.11)">
       <defs>
        <path d="M 49.75 54.046875 
L 41.015625 53.375 
Q 39.84375 58.546875 37.703125 60.890625 
Q 34.125 64.65625 28.90625 64.65625 
Q 24.703125 64.65625 21.53125 62.3125 
Q 17.390625 59.28125 14.984375 53.46875 
Q 12.59375 47.65625 12.5 36.921875 
Q 15.671875 41.75 20.265625 44.09375 
Q 24.859375 46.4375 29.890625 46.4375 
Q 38.671875 46.4375 44.84375 39.96875 
Q 51.03125 33.5 51.03125 23.25 
Q 51.03125 16.5 48.125 10.71875 
Q 45.21875 4.9375 40.140625 1.859375 
Q 35.0625 -1.21875 28.609375 -1.21875 
Q 17.625 -1.21875 10.6875 6.859375 
Q 3.765625 14.9375 3.765625 33.5 
Q 3.765625 54.25 11.421875 63.671875 
Q 18.109375 71.875 29.4375 71.875 
Q 37.890625 71.875 43.28125 67.140625 
Q 48.6875 62.40625 49.75 54.046875 
z
M 13.875 23.1875 
Q 13.875 18.65625 15.796875 14.5 
Q 17.71875 10.359375 21.1875 8.171875 
Q 24.65625 6 28.46875 6 
Q 34.03125 6 38.03125 10.484375 
Q 42.046875 14.984375 42.046875 22.703125 
Q 42.046875 30.125 38.078125 34.390625 
Q 34.125 38.671875 28.125 38.671875 
Q 22.171875 38.671875 18.015625 34.390625 
Q 13.875 30.125 13.875 23.1875 
z
" id="ArialMT-54"/>
       </defs>
       <use xlink:href="#ArialMT-54"/>
       <use x="55.615234" xlink:href="#ArialMT-48"/>
      </g>
     </g>
    </g>
    <g id="xtick_5">
     <g id="line2d_5">
      <path clip-path="url(#pfa092aaa09)" d="M 289.425235 378 
L 289.425235 51.84 
" style="fill:none;stroke:#ffffff;stroke-linecap:round;"/>
     </g>
     <g id="text_5">
      <!-- 80 -->
      <g style="fill:#262626;" transform="translate(283.308204 395.373594)scale(0.11 -0.11)">
       <defs>
        <path d="M 17.671875 38.8125 
Q 12.203125 40.828125 9.5625 44.53125 
Q 6.9375 48.25 6.9375 53.421875 
Q 6.9375 61.234375 12.546875 66.546875 
Q 18.171875 71.875 27.484375 71.875 
Q 36.859375 71.875 42.578125 66.421875 
Q 48.296875 60.984375 48.296875 53.171875 
Q 48.296875 48.1875 45.671875 44.5 
Q 43.0625 40.828125 37.75 38.8125 
Q 44.34375 36.671875 47.78125 31.875 
Q 51.21875 27.09375 51.21875 20.453125 
Q 51.21875 11.28125 44.71875 5.03125 
Q 38.234375 -1.21875 27.640625 -1.21875 
Q 17.046875 -1.21875 10.546875 5.046875 
Q 4.046875 11.328125 4.046875 20.703125 
Q 4.046875 27.6875 7.59375 32.390625 
Q 11.140625 37.109375 17.671875 38.8125 
z
M 15.921875 53.71875 
Q 15.921875 48.640625 19.1875 45.40625 
Q 22.46875 42.1875 27.6875 42.1875 
Q 32.765625 42.1875 36.015625 45.375 
Q 39.265625 48.578125 39.265625 53.21875 
Q 39.265625 58.0625 35.90625 61.359375 
Q 32.5625 64.65625 27.59375 64.65625 
Q 22.5625 64.65625 19.234375 61.421875 
Q 15.921875 58.203125 15.921875 53.71875 
z
M 13.09375 20.65625 
Q 13.09375 16.890625 14.875 13.375 
Q 16.65625 9.859375 20.171875 7.921875 
Q 23.6875 6 27.734375 6 
Q 34.03125 6 38.125 10.046875 
Q 42.234375 14.109375 42.234375 20.359375 
Q 42.234375 26.703125 38.015625 30.859375 
Q 33.796875 35.015625 27.4375 35.015625 
Q 21.234375 35.015625 17.15625 30.90625 
Q 13.09375 26.8125 13.09375 20.65625 
z
" id="ArialMT-56"/>
       </defs>
       <use xlink:href="#ArialMT-56"/>
       <use x="55.615234" xlink:href="#ArialMT-48"/>
      </g>
     </g>
    </g>
    <g id="xtick_6">
     <g id="line2d_6">
      <path clip-path="url(#pfa092aaa09)" d="M 343.556079 378 
L 343.556079 51.84 
" style="fill:none;stroke:#ffffff;stroke-linecap:round;"/>
     </g>
     <g id="text_6">
      <!-- 100 -->
      <g style="fill:#262626;" transform="translate(334.380532 395.373594)scale(0.11 -0.11)">
       <defs>
        <path d="M 37.25 0 
L 28.46875 0 
L 28.46875 56 
Q 25.296875 52.984375 20.140625 49.953125 
Q 14.984375 46.921875 10.890625 45.40625 
L 10.890625 53.90625 
Q 18.265625 57.375 23.78125 62.296875 
Q 29.296875 67.234375 31.59375 71.875 
L 37.25 71.875 
z
" id="ArialMT-49"/>
       </defs>
       <use xlink:href="#ArialMT-49"/>
       <use x="55.615234" xlink:href="#ArialMT-48"/>
       <use x="111.230469" xlink:href="#ArialMT-48"/>
      </g>
     </g>
    </g>
    <g id="xtick_7">
     <g id="line2d_7">
      <path clip-path="url(#pfa092aaa09)" d="M 397.686923 378 
L 397.686923 51.84 
" style="fill:none;stroke:#ffffff;stroke-linecap:round;"/>
     </g>
     <g id="text_7">
      <!-- 120 -->
      <g style="fill:#262626;" transform="translate(388.511376 395.373594)scale(0.11 -0.11)">
       <use xlink:href="#ArialMT-49"/>
       <use x="55.615234" xlink:href="#ArialMT-50"/>
       <use x="111.230469" xlink:href="#ArialMT-48"/>
      </g>
     </g>
    </g>
    <g id="xtick_8">
     <g id="line2d_8">
      <path clip-path="url(#pfa092aaa09)" d="M 451.817767 378 
L 451.817767 51.84 
" style="fill:none;stroke:#ffffff;stroke-linecap:round;"/>
     </g>
     <g id="text_8">
      <!-- 140 -->
      <g style="fill:#262626;" transform="translate(442.64222 395.373594)scale(0.11 -0.11)">
       <use xlink:href="#ArialMT-49"/>
       <use x="55.615234" xlink:href="#ArialMT-52"/>
       <use x="111.230469" xlink:href="#ArialMT-48"/>
      </g>
     </g>
    </g>
    <g id="text_9">
     <!-- Monthly Charges -->
     <g style="fill:#262626;" transform="translate(209.6325 416.295469)scale(0.12 -0.12)">
      <defs>
       <path d="M 7.078125 0 
L 7.078125 71.578125 
L 28.71875 71.578125 
L 41.703125 22.75 
L 54.546875 71.578125 
L 76.21875 71.578125 
L 76.21875 0 
L 62.796875 0 
L 62.796875 56.34375 
L 48.578125 0 
L 34.671875 0 
L 20.515625 56.34375 
L 20.515625 0 
z
" id="Arial-BoldMT-77"/>
       <path d="M 4 26.65625 
Q 4 33.5 7.375 39.890625 
Q 10.75 46.296875 16.921875 49.65625 
Q 23.09375 53.03125 30.71875 53.03125 
Q 42.484375 53.03125 50 45.390625 
Q 57.515625 37.75 57.515625 26.078125 
Q 57.515625 14.3125 49.921875 6.5625 
Q 42.328125 -1.171875 30.8125 -1.171875 
Q 23.6875 -1.171875 17.21875 2.046875 
Q 10.75 5.28125 7.375 11.5 
Q 4 17.71875 4 26.65625 
z
M 18.0625 25.921875 
Q 18.0625 18.21875 21.71875 14.109375 
Q 25.390625 10.015625 30.765625 10.015625 
Q 36.140625 10.015625 39.765625 14.109375 
Q 43.40625 18.21875 43.40625 26.03125 
Q 43.40625 33.640625 39.765625 37.734375 
Q 36.140625 41.84375 30.765625 41.84375 
Q 25.390625 41.84375 21.71875 37.734375 
Q 18.0625 33.640625 18.0625 25.921875 
z
" id="Arial-BoldMT-111"/>
       <path d="M 54.34375 0 
L 40.625 0 
L 40.625 26.46875 
Q 40.625 34.859375 39.75 37.328125 
Q 38.875 39.796875 36.890625 41.15625 
Q 34.90625 42.53125 32.125 42.53125 
Q 28.5625 42.53125 25.734375 40.578125 
Q 22.90625 38.625 21.84375 35.390625 
Q 20.796875 32.171875 20.796875 23.484375 
L 20.796875 0 
L 7.078125 0 
L 7.078125 51.859375 
L 19.828125 51.859375 
L 19.828125 44.234375 
Q 26.609375 53.03125 36.921875 53.03125 
Q 41.453125 53.03125 45.203125 51.390625 
Q 48.96875 49.75 50.890625 47.203125 
Q 52.828125 44.671875 53.578125 41.453125 
Q 54.34375 38.234375 54.34375 32.234375 
z
" id="Arial-BoldMT-110"/>
       <path d="M 30.953125 51.859375 
L 30.953125 40.921875 
L 21.578125 40.921875 
L 21.578125 20.015625 
Q 21.578125 13.671875 21.84375 12.625 
Q 22.125 11.578125 23.078125 10.890625 
Q 24.03125 10.203125 25.390625 10.203125 
Q 27.296875 10.203125 30.90625 11.53125 
L 32.078125 0.875 
Q 27.296875 -1.171875 21.234375 -1.171875 
Q 17.53125 -1.171875 14.546875 0.0625 
Q 11.578125 1.3125 10.1875 3.296875 
Q 8.796875 5.28125 8.25 8.640625 
Q 7.8125 11.03125 7.8125 18.3125 
L 7.8125 40.921875 
L 1.515625 40.921875 
L 1.515625 51.859375 
L 7.8125 51.859375 
L 7.8125 62.15625 
L 21.578125 70.171875 
L 21.578125 51.859375 
z
" id="Arial-BoldMT-116"/>
       <path d="M 20.84375 71.578125 
L 20.84375 45.265625 
Q 27.484375 53.03125 36.71875 53.03125 
Q 41.453125 53.03125 45.265625 51.265625 
Q 49.078125 49.515625 51 46.78125 
Q 52.9375 44.046875 53.640625 40.71875 
Q 54.34375 37.40625 54.34375 30.421875 
L 54.34375 0 
L 40.625 0 
L 40.625 27.390625 
Q 40.625 35.546875 39.84375 37.734375 
Q 39.0625 39.9375 37.078125 41.234375 
Q 35.109375 42.53125 32.125 42.53125 
Q 28.71875 42.53125 26.03125 40.859375 
Q 23.34375 39.203125 22.09375 35.859375 
Q 20.84375 32.515625 20.84375 25.984375 
L 20.84375 0 
L 7.125 0 
L 7.125 71.578125 
z
" id="Arial-BoldMT-104"/>
       <path d="M 7.171875 0 
L 7.171875 71.578125 
L 20.90625 71.578125 
L 20.90625 0 
z
" id="Arial-BoldMT-108"/>
       <path d="M 0.6875 51.859375 
L 15.28125 51.859375 
L 27.6875 15.046875 
L 39.796875 51.859375 
L 54 51.859375 
L 35.6875 1.953125 
L 32.421875 -7.078125 
Q 30.609375 -11.625 28.96875 -14.015625 
Q 27.34375 -16.40625 25.21875 -17.890625 
Q 23.09375 -19.390625 19.984375 -20.21875 
Q 16.890625 -21.046875 12.984375 -21.046875 
Q 9.03125 -21.046875 5.21875 -20.21875 
L 4 -9.46875 
Q 7.234375 -10.109375 9.8125 -10.109375 
Q 14.59375 -10.109375 16.890625 -7.296875 
Q 19.1875 -4.5 20.40625 -0.140625 
z
" id="Arial-BoldMT-121"/>
       <path id="Arial-BoldMT-32"/>
       <path d="M 53.078125 26.3125 
L 67.09375 21.875 
Q 63.875 10.15625 56.375 4.46875 
Q 48.875 -1.21875 37.359375 -1.21875 
Q 23.09375 -1.21875 13.90625 8.515625 
Q 4.734375 18.265625 4.734375 35.15625 
Q 4.734375 53.03125 13.953125 62.90625 
Q 23.1875 72.796875 38.234375 72.796875 
Q 51.375 72.796875 59.578125 65.046875 
Q 64.453125 60.453125 66.890625 51.859375 
L 52.59375 48.4375 
Q 51.3125 54 47.28125 57.21875 
Q 43.265625 60.453125 37.5 60.453125 
Q 29.546875 60.453125 24.578125 54.734375 
Q 19.625 49.03125 19.625 36.234375 
Q 19.625 22.65625 24.5 16.890625 
Q 29.390625 11.140625 37.203125 11.140625 
Q 42.96875 11.140625 47.109375 14.796875 
Q 51.265625 18.453125 53.078125 26.3125 
z
" id="Arial-BoldMT-67"/>
       <path d="M 17.4375 36.03125 
L 4.984375 38.28125 
Q 7.078125 45.796875 12.203125 49.40625 
Q 17.328125 53.03125 27.4375 53.03125 
Q 36.625 53.03125 41.109375 50.859375 
Q 45.609375 48.6875 47.4375 45.34375 
Q 49.265625 42 49.265625 33.0625 
L 49.125 17.046875 
Q 49.125 10.203125 49.78125 6.953125 
Q 50.4375 3.71875 52.25 0 
L 38.671875 0 
Q 38.140625 1.375 37.359375 4.046875 
Q 37.015625 5.28125 36.859375 5.671875 
Q 33.34375 2.25 29.34375 0.53125 
Q 25.34375 -1.171875 20.796875 -1.171875 
Q 12.796875 -1.171875 8.171875 3.171875 
Q 3.5625 7.515625 3.5625 14.15625 
Q 3.5625 18.5625 5.65625 22 
Q 7.765625 25.4375 11.546875 27.265625 
Q 15.328125 29.109375 22.46875 30.46875 
Q 32.078125 32.28125 35.796875 33.84375 
L 35.796875 35.203125 
Q 35.796875 39.15625 33.84375 40.84375 
Q 31.890625 42.53125 26.46875 42.53125 
Q 22.796875 42.53125 20.75 41.09375 
Q 18.703125 39.65625 17.4375 36.03125 
z
M 35.796875 24.90625 
Q 33.15625 24.03125 27.4375 22.796875 
Q 21.734375 21.578125 19.96875 20.40625 
Q 17.28125 18.5 17.28125 15.578125 
Q 17.28125 12.703125 19.421875 10.59375 
Q 21.578125 8.5 24.90625 8.5 
Q 28.609375 8.5 31.984375 10.9375 
Q 34.46875 12.796875 35.25 15.484375 
Q 35.796875 17.234375 35.796875 22.171875 
z
" id="Arial-BoldMT-97"/>
       <path d="M 20.3125 0 
L 6.59375 0 
L 6.59375 51.859375 
L 19.34375 51.859375 
L 19.34375 44.484375 
Q 22.609375 49.703125 25.21875 51.359375 
Q 27.828125 53.03125 31.15625 53.03125 
Q 35.84375 53.03125 40.1875 50.4375 
L 35.9375 38.484375 
Q 32.46875 40.71875 29.5 40.71875 
Q 26.609375 40.71875 24.609375 39.125 
Q 22.609375 37.546875 21.453125 33.390625 
Q 20.3125 29.25 20.3125 16.015625 
z
" id="Arial-BoldMT-114"/>
       <path d="M 5.90625 -3.421875 
L 21.578125 -5.328125 
Q 21.96875 -8.0625 23.390625 -9.078125 
Q 25.34375 -10.546875 29.546875 -10.546875 
Q 34.90625 -10.546875 37.59375 -8.9375 
Q 39.40625 -7.859375 40.328125 -5.46875 
Q 40.96875 -3.765625 40.96875 0.828125 
L 40.96875 8.40625 
Q 34.8125 0 25.4375 0 
Q 14.984375 0 8.890625 8.84375 
Q 4.109375 15.828125 4.109375 26.21875 
Q 4.109375 39.265625 10.375 46.140625 
Q 16.65625 53.03125 25.984375 53.03125 
Q 35.59375 53.03125 41.84375 44.578125 
L 41.84375 51.859375 
L 54.6875 51.859375 
L 54.6875 5.328125 
Q 54.6875 -3.859375 53.171875 -8.390625 
Q 51.65625 -12.9375 48.921875 -15.515625 
Q 46.1875 -18.109375 41.625 -19.578125 
Q 37.0625 -21.046875 30.078125 -21.046875 
Q 16.890625 -21.046875 11.375 -16.53125 
Q 5.859375 -12.015625 5.859375 -5.078125 
Q 5.859375 -4.390625 5.90625 -3.421875 
z
M 18.171875 27 
Q 18.171875 18.75 21.359375 14.90625 
Q 24.5625 11.078125 29.25 11.078125 
Q 34.28125 11.078125 37.75 15.015625 
Q 41.21875 18.953125 41.21875 26.65625 
Q 41.21875 34.71875 37.890625 38.625 
Q 34.578125 42.53125 29.5 42.53125 
Q 24.5625 42.53125 21.359375 38.6875 
Q 18.171875 34.859375 18.171875 27 
z
" id="Arial-BoldMT-103"/>
       <path d="M 37.203125 16.5 
L 50.875 14.203125 
Q 48.25 6.6875 42.546875 2.75 
Q 36.859375 -1.171875 28.328125 -1.171875 
Q 14.796875 -1.171875 8.296875 7.671875 
Q 3.171875 14.75 3.171875 25.53125 
Q 3.171875 38.421875 9.90625 45.71875 
Q 16.65625 53.03125 26.953125 53.03125 
Q 38.53125 53.03125 45.21875 45.390625 
Q 51.90625 37.75 51.609375 21.96875 
L 17.234375 21.96875 
Q 17.390625 15.875 20.5625 12.46875 
Q 23.734375 9.078125 28.46875 9.078125 
Q 31.6875 9.078125 33.875 10.828125 
Q 36.078125 12.59375 37.203125 16.5 
z
M 37.984375 30.375 
Q 37.84375 36.328125 34.90625 39.421875 
Q 31.984375 42.53125 27.78125 42.53125 
Q 23.296875 42.53125 20.359375 39.265625 
Q 17.4375 35.984375 17.484375 30.375 
z
" id="Arial-BoldMT-101"/>
       <path d="M 2.34375 14.796875 
L 16.109375 16.890625 
Q 17 12.890625 19.671875 10.8125 
Q 22.359375 8.734375 27.203125 8.734375 
Q 32.515625 8.734375 35.203125 10.6875 
Q 37.015625 12.0625 37.015625 14.359375 
Q 37.015625 15.921875 36.03125 16.9375 
Q 35.015625 17.921875 31.453125 18.75 
Q 14.84375 22.40625 10.40625 25.4375 
Q 4.25 29.640625 4.25 37.109375 
Q 4.25 43.84375 9.5625 48.4375 
Q 14.890625 53.03125 26.078125 53.03125 
Q 36.71875 53.03125 41.890625 49.5625 
Q 47.078125 46.09375 49.03125 39.3125 
L 36.078125 36.921875 
Q 35.25 39.9375 32.921875 41.546875 
Q 30.609375 43.171875 26.3125 43.171875 
Q 20.90625 43.171875 18.5625 41.65625 
Q 17 40.578125 17 38.875 
Q 17 37.40625 18.359375 36.375 
Q 20.21875 35.015625 31.171875 32.515625 
Q 42.140625 30.03125 46.484375 26.421875 
Q 50.78125 22.75 50.78125 16.21875 
Q 50.78125 9.078125 44.828125 3.953125 
Q 38.875 -1.171875 27.203125 -1.171875 
Q 16.609375 -1.171875 10.421875 3.125 
Q 4.25 7.421875 2.34375 14.796875 
z
" id="Arial-BoldMT-115"/>
      </defs>
      <use xlink:href="#Arial-BoldMT-77"/>
      <use x="83.300781" xlink:href="#Arial-BoldMT-111"/>
      <use x="144.384766" xlink:href="#Arial-BoldMT-110"/>
      <use x="205.46875" xlink:href="#Arial-BoldMT-116"/>
      <use x="238.769531" xlink:href="#Arial-BoldMT-104"/>
      <use x="299.853516" xlink:href="#Arial-BoldMT-108"/>
      <use x="327.636719" xlink:href="#Arial-BoldMT-121"/>
      <use x="383.251953" xlink:href="#Arial-BoldMT-32"/>
      <use x="411.035156" xlink:href="#Arial-BoldMT-67"/>
      <use x="483.251953" xlink:href="#Arial-BoldMT-104"/>
      <use x="544.335938" xlink:href="#Arial-BoldMT-97"/>
      <use x="599.951172" xlink:href="#Arial-BoldMT-114"/>
      <use x="638.867188" xlink:href="#Arial-BoldMT-103"/>
      <use x="699.951172" xlink:href="#Arial-BoldMT-101"/>
      <use x="755.566406" xlink:href="#Arial-BoldMT-115"/>
     </g>
    </g>
   </g>
   <g id="matplotlib.axis_2">
    <g id="ytick_1">
     <g id="line2d_9">
      <path clip-path="url(#pfa092aaa09)" d="M 63 378 
L 453.6 378 
" style="fill:none;stroke:#ffffff;stroke-linecap:round;"/>
     </g>
     <g id="text_10">
      <!-- 0.000 -->
      <g style="fill:#262626;" transform="translate(25.975938 381.936797)scale(0.11 -0.11)">
       <defs>
        <path d="M 9.078125 0 
L 9.078125 10.015625 
L 19.09375 10.015625 
L 19.09375 0 
z
" id="ArialMT-46"/>
       </defs>
       <use xlink:href="#ArialMT-48"/>
       <use x="55.615234" xlink:href="#ArialMT-46"/>
       <use x="83.398438" xlink:href="#ArialMT-48"/>
       <use x="139.013672" xlink:href="#ArialMT-48"/>
       <use x="194.628906" xlink:href="#ArialMT-48"/>
      </g>
     </g>
    </g>
    <g id="ytick_2">
     <g id="line2d_10">
      <path clip-path="url(#pfa092aaa09)" d="M 63 340.196725 
L 453.6 340.196725 
" style="fill:none;stroke:#ffffff;stroke-linecap:round;"/>
     </g>
     <g id="text_11">
      <!-- 0.002 -->
      <g style="fill:#262626;" transform="translate(25.975938 344.133522)scale(0.11 -0.11)">
       <use xlink:href="#ArialMT-48"/>
       <use x="55.615234" xlink:href="#ArialMT-46"/>
       <use x="83.398438" xlink:href="#ArialMT-48"/>
       <use x="139.013672" xlink:href="#ArialMT-48"/>
       <use x="194.628906" xlink:href="#ArialMT-50"/>
      </g>
     </g>
    </g>
    <g id="ytick_3">
     <g id="line2d_11">
      <path clip-path="url(#pfa092aaa09)" d="M 63 302.393451 
L 453.6 302.393451 
" style="fill:none;stroke:#ffffff;stroke-linecap:round;"/>
     </g>
     <g id="text_12">
      <!-- 0.004 -->
      <g style="fill:#262626;" transform="translate(25.975938 306.330248)scale(0.11 -0.11)">
       <use xlink:href="#ArialMT-48"/>
       <use x="55.615234" xlink:href="#ArialMT-46"/>
       <use x="83.398438" xlink:href="#ArialMT-48"/>
       <use x="139.013672" xlink:href="#ArialMT-48"/>
       <use x="194.628906" xlink:href="#ArialMT-52"/>
      </g>
     </g>
    </g>
    <g id="ytick_4">
     <g id="line2d_12">
      <path clip-path="url(#pfa092aaa09)" d="M 63 264.590176 
L 453.6 264.590176 
" style="fill:none;stroke:#ffffff;stroke-linecap:round;"/>
     </g>
     <g id="text_13">
      <!-- 0.006 -->
      <g style="fill:#262626;" transform="translate(25.975938 268.526973)scale(0.11 -0.11)">
       <use xlink:href="#ArialMT-48"/>
       <use x="55.615234" xlink:href="#ArialMT-46"/>
       <use x="83.398438" xlink:href="#ArialMT-48"/>
       <use x="139.013672" xlink:href="#ArialMT-48"/>
       <use x="194.628906" xlink:href="#ArialMT-54"/>
      </g>
     </g>
    </g>
    <g id="ytick_5">
     <g id="line2d_13">
      <path clip-path="url(#pfa092aaa09)" d="M 63 226.786902 
L 453.6 226.786902 
" style="fill:none;stroke:#ffffff;stroke-linecap:round;"/>
     </g>
     <g id="text_14">
      <!-- 0.008 -->
      <g style="fill:#262626;" transform="translate(25.975938 230.723699)scale(0.11 -0.11)">
       <use xlink:href="#ArialMT-48"/>
       <use x="55.615234" xlink:href="#ArialMT-46"/>
       <use x="83.398438" xlink:href="#ArialMT-48"/>
       <use x="139.013672" xlink:href="#ArialMT-48"/>
       <use x="194.628906" xlink:href="#ArialMT-56"/>
      </g>
     </g>
    </g>
    <g id="ytick_6">
     <g id="line2d_14">
      <path clip-path="url(#pfa092aaa09)" d="M 63 188.983627 
L 453.6 188.983627 
" style="fill:none;stroke:#ffffff;stroke-linecap:round;"/>
     </g>
     <g id="text_15">
      <!-- 0.010 -->
      <g style="fill:#262626;" transform="translate(25.975938 192.920424)scale(0.11 -0.11)">
       <use xlink:href="#ArialMT-48"/>
       <use x="55.615234" xlink:href="#ArialMT-46"/>
       <use x="83.398438" xlink:href="#ArialMT-48"/>
       <use x="139.013672" xlink:href="#ArialMT-49"/>
       <use x="194.628906" xlink:href="#ArialMT-48"/>
      </g>
     </g>
    </g>
    <g id="ytick_7">
     <g id="line2d_15">
      <path clip-path="url(#pfa092aaa09)" d="M 63 151.180353 
L 453.6 151.180353 
" style="fill:none;stroke:#ffffff;stroke-linecap:round;"/>
     </g>
     <g id="text_16">
      <!-- 0.012 -->
      <g style="fill:#262626;" transform="translate(25.975938 155.11715)scale(0.11 -0.11)">
       <use xlink:href="#ArialMT-48"/>
       <use x="55.615234" xlink:href="#ArialMT-46"/>
       <use x="83.398438" xlink:href="#ArialMT-48"/>
       <use x="139.013672" xlink:href="#ArialMT-49"/>
       <use x="194.628906" xlink:href="#ArialMT-50"/>
      </g>
     </g>
    </g>
    <g id="ytick_8">
     <g id="line2d_16">
      <path clip-path="url(#pfa092aaa09)" d="M 63 113.377078 
L 453.6 113.377078 
" style="fill:none;stroke:#ffffff;stroke-linecap:round;"/>
     </g>
     <g id="text_17">
      <!-- 0.014 -->
      <g style="fill:#262626;" transform="translate(25.975938 117.313875)scale(0.11 -0.11)">
       <use xlink:href="#ArialMT-48"/>
       <use x="55.615234" xlink:href="#ArialMT-46"/>
       <use x="83.398438" xlink:href="#ArialMT-48"/>
       <use x="139.013672" xlink:href="#ArialMT-49"/>
       <use x="194.628906" xlink:href="#ArialMT-52"/>
      </g>
     </g>
    </g>
    <g id="ytick_9">
     <g id="line2d_17">
      <path clip-path="url(#pfa092aaa09)" d="M 63 75.573804 
L 453.6 75.573804 
" style="fill:none;stroke:#ffffff;stroke-linecap:round;"/>
     </g>
     <g id="text_18">
      <!-- 0.016 -->
      <g style="fill:#262626;" transform="translate(25.975938 79.5106)scale(0.11 -0.11)">
       <use xlink:href="#ArialMT-48"/>
       <use x="55.615234" xlink:href="#ArialMT-46"/>
       <use x="83.398438" xlink:href="#ArialMT-48"/>
       <use x="139.013672" xlink:href="#ArialMT-49"/>
       <use x="194.628906" xlink:href="#ArialMT-54"/>
      </g>
     </g>
    </g>
    <g id="text_19">
     <!-- Density -->
     <g style="fill:#262626;" transform="translate(13.450312 236.592187)rotate(-90)scale(0.12 -0.12)">
      <defs>
       <path d="M 7.234375 71.578125 
L 33.640625 71.578125 
Q 42.578125 71.578125 47.265625 70.21875 
Q 53.5625 68.359375 58.046875 63.625 
Q 62.546875 58.890625 64.890625 52.03125 
Q 67.234375 45.171875 67.234375 35.109375 
Q 67.234375 26.265625 65.046875 19.875 
Q 62.359375 12.0625 57.375 7.234375 
Q 53.609375 3.5625 47.21875 1.515625 
Q 42.4375 0 34.421875 0 
L 7.234375 0 
z
M 21.6875 59.46875 
L 21.6875 12.0625 
L 32.46875 12.0625 
Q 38.53125 12.0625 41.21875 12.75 
Q 44.734375 13.625 47.046875 15.71875 
Q 49.359375 17.828125 50.828125 22.625 
Q 52.296875 27.4375 52.296875 35.75 
Q 52.296875 44.046875 50.828125 48.484375 
Q 49.359375 52.9375 46.71875 55.421875 
Q 44.09375 57.90625 40.046875 58.796875 
Q 37.015625 59.46875 28.171875 59.46875 
z
" id="Arial-BoldMT-68"/>
       <path d="M 7.171875 58.890625 
L 7.171875 71.578125 
L 20.90625 71.578125 
L 20.90625 58.890625 
z
M 7.171875 0 
L 7.171875 51.859375 
L 20.90625 51.859375 
L 20.90625 0 
z
" id="Arial-BoldMT-105"/>
      </defs>
      <use xlink:href="#Arial-BoldMT-68"/>
      <use x="72.216797" xlink:href="#Arial-BoldMT-101"/>
      <use x="127.832031" xlink:href="#Arial-BoldMT-110"/>
      <use x="188.916016" xlink:href="#Arial-BoldMT-115"/>
      <use x="244.53125" xlink:href="#Arial-BoldMT-105"/>
      <use x="272.314453" xlink:href="#Arial-BoldMT-116"/>
      <use x="305.615234" xlink:href="#Arial-BoldMT-121"/>
     </g>
    </g>
   </g>
   <g id="PolyCollection_1">
    <defs>
     <path d="M 80.754545 -55.013225 
L 80.754545 -54 
L 82.538922 -54 
L 84.323298 -54 
L 86.107675 -54 
L 87.892051 -54 
L 89.676428 -54 
L 91.460804 -54 
L 93.24518 -54 
L 95.029557 -54 
L 96.813933 -54 
L 98.59831 -54 
L 100.382686 -54 
L 102.167063 -54 
L 103.951439 -54 
L 105.735815 -54 
L 107.520192 -54 
L 109.304568 -54 
L 111.088945 -54 
L 112.873321 -54 
L 114.657698 -54 
L 116.442074 -54 
L 118.22645 -54 
L 120.010827 -54 
L 121.795203 -54 
L 123.57958 -54 
L 125.363956 -54 
L 127.148333 -54 
L 128.932709 -54 
L 130.717085 -54 
L 132.501462 -54 
L 134.285838 -54 
L 136.070215 -54 
L 137.854591 -54 
L 139.638968 -54 
L 141.423344 -54 
L 143.20772 -54 
L 144.992097 -54 
L 146.776473 -54 
L 148.56085 -54 
L 150.345226 -54 
L 152.129603 -54 
L 153.913979 -54 
L 155.698355 -54 
L 157.482732 -54 
L 159.267108 -54 
L 161.051485 -54 
L 162.835861 -54 
L 164.620238 -54 
L 166.404614 -54 
L 168.18899 -54 
L 169.973367 -54 
L 171.757743 -54 
L 173.54212 -54 
L 175.326496 -54 
L 177.110873 -54 
L 178.895249 -54 
L 180.679625 -54 
L 182.464002 -54 
L 184.248378 -54 
L 186.032755 -54 
L 187.817131 -54 
L 189.601508 -54 
L 191.385884 -54 
L 193.17026 -54 
L 194.954637 -54 
L 196.739013 -54 
L 198.52339 -54 
L 200.307766 -54 
L 202.092143 -54 
L 203.876519 -54 
L 205.660895 -54 
L 207.445272 -54 
L 209.229648 -54 
L 211.014025 -54 
L 212.798401 -54 
L 214.582778 -54 
L 216.367154 -54 
L 218.15153 -54 
L 219.935907 -54 
L 221.720283 -54 
L 223.50466 -54 
L 225.289036 -54 
L 227.073413 -54 
L 228.857789 -54 
L 230.642165 -54 
L 232.426542 -54 
L 234.210918 -54 
L 235.995295 -54 
L 237.779671 -54 
L 239.564048 -54 
L 241.348424 -54 
L 243.1328 -54 
L 244.917177 -54 
L 246.701553 -54 
L 248.48593 -54 
L 250.270306 -54 
L 252.054683 -54 
L 253.839059 -54 
L 255.623435 -54 
L 257.407812 -54 
L 259.192188 -54 
L 260.976565 -54 
L 262.760941 -54 
L 264.545317 -54 
L 266.329694 -54 
L 268.11407 -54 
L 269.898447 -54 
L 271.682823 -54 
L 273.4672 -54 
L 275.251576 -54 
L 277.035952 -54 
L 278.820329 -54 
L 280.604705 -54 
L 282.389082 -54 
L 284.173458 -54 
L 285.957835 -54 
L 287.742211 -54 
L 289.526587 -54 
L 291.310964 -54 
L 293.09534 -54 
L 294.879717 -54 
L 296.664093 -54 
L 298.44847 -54 
L 300.232846 -54 
L 302.017222 -54 
L 303.801599 -54 
L 305.585975 -54 
L 307.370352 -54 
L 309.154728 -54 
L 310.939105 -54 
L 312.723481 -54 
L 314.507857 -54 
L 316.292234 -54 
L 318.07661 -54 
L 319.860987 -54 
L 321.645363 -54 
L 323.42974 -54 
L 325.214116 -54 
L 326.998492 -54 
L 328.782869 -54 
L 330.567245 -54 
L 332.351622 -54 
L 334.135998 -54 
L 335.920375 -54 
L 337.704751 -54 
L 339.489127 -54 
L 341.273504 -54 
L 343.05788 -54 
L 344.842257 -54 
L 346.626633 -54 
L 348.41101 -54 
L 350.195386 -54 
L 351.979762 -54 
L 353.764139 -54 
L 355.548515 -54 
L 357.332892 -54 
L 359.117268 -54 
L 360.901645 -54 
L 362.686021 -54 
L 364.470397 -54 
L 366.254774 -54 
L 368.03915 -54 
L 369.823527 -54 
L 371.607903 -54 
L 373.39228 -54 
L 375.176656 -54 
L 376.961032 -54 
L 378.745409 -54 
L 380.529785 -54 
L 382.314162 -54 
L 384.098538 -54 
L 385.882915 -54 
L 387.667291 -54 
L 389.451667 -54 
L 391.236044 -54 
L 393.02042 -54 
L 394.804797 -54 
L 396.589173 -54 
L 398.37355 -54 
L 400.157926 -54 
L 401.942302 -54 
L 403.726679 -54 
L 405.511055 -54 
L 407.295432 -54 
L 409.079808 -54 
L 410.864185 -54 
L 412.648561 -54 
L 414.432937 -54 
L 416.217314 -54 
L 418.00169 -54 
L 419.786067 -54 
L 421.570443 -54 
L 423.35482 -54 
L 425.139196 -54 
L 426.923572 -54 
L 428.707949 -54 
L 430.492325 -54 
L 432.276702 -54 
L 434.061078 -54 
L 435.845455 -54 
L 435.845455 -54.045918 
L 435.845455 -54.045918 
L 434.061078 -54.07082 
L 432.276702 -54.107634 
L 430.492325 -54.161216 
L 428.707949 -54.237995 
L 426.923572 -54.346321 
L 425.139196 -54.49681 
L 423.35482 -54.70268 
L 421.570443 -54.980039 
L 419.786067 -55.348076 
L 418.00169 -55.829132 
L 416.217314 -56.448603 
L 414.432937 -57.234632 
L 412.648561 -58.217592 
L 410.864185 -59.429344 
L 409.079808 -60.902291 
L 407.295432 -62.668289 
L 405.511055 -64.757461 
L 403.726679 -67.197021 
L 401.942302 -70.010178 
L 400.157926 -73.215227 
L 398.37355 -76.824882 
L 396.589173 -80.845911 
L 394.804797 -85.279059 
L 393.02042 -90.119247 
L 391.236044 -95.355981 
L 389.451667 -100.973868 
L 387.667291 -106.953149 
L 385.882915 -113.270158 
L 384.098538 -119.897629 
L 382.314162 -126.804824 
L 380.529785 -133.957491 
L 378.745409 -141.317713 
L 376.961032 -148.843729 
L 375.176656 -156.489863 
L 373.39228 -164.206658 
L 371.607903 -171.941323 
L 369.823527 -179.638561 
L 368.03915 -187.241789 
L 366.254774 -194.694695 
L 364.470397 -201.943061 
L 362.686021 -208.93668 
L 360.901645 -215.631237 
L 359.117268 -221.989949 
L 357.332892 -227.98484 
L 355.548515 -233.597517 
L 353.764139 -238.819387 
L 351.979762 -243.651306 
L 350.195386 -248.102708 
L 348.41101 -252.190314 
L 346.626633 -255.936534 
L 344.842257 -259.367744 
L 343.05788 -262.512543 
L 341.273504 -265.400172 
L 339.489127 -268.059163 
L 337.704751 -270.516314 
L 335.920375 -272.796017 
L 334.135998 -274.919935 
L 332.351622 -276.906991 
L 330.567245 -278.773602 
L 328.782869 -280.534094 
L 326.998492 -282.201181 
L 325.214116 -283.786441 
L 323.42974 -285.300707 
L 321.645363 -286.754294 
L 319.860987 -288.157039 
L 318.07661 -289.518116 
L 316.292234 -290.845657 
L 314.507857 -292.146195 
L 312.723481 -293.424001 
L 310.939105 -294.680387 
L 309.154728 -295.913065 
L 307.370352 -297.115657 
L 305.585975 -298.277424 
L 303.801599 -299.383285 
L 302.017222 -300.414136 
L 300.232846 -301.347474 
L 298.44847 -302.158242 
L 296.664093 -302.819823 
L 294.879717 -303.305055 
L 293.09534 -303.587131 
L 291.310964 -303.640281 
L 289.526587 -303.440142 
L 287.742211 -302.963793 
L 285.957835 -302.189503 
L 284.173458 -301.096288 
L 282.389082 -299.663443 
L 280.604705 -297.870256 
L 278.820329 -295.696103 
L 277.035952 -293.121093 
L 275.251576 -290.127371 
L 273.4672 -286.701089 
L 271.682823 -282.834933 
L 269.898447 -278.531009 
L 268.11407 -273.803768 
L 266.329694 -268.682603 
L 264.545317 -263.213754 
L 262.760941 -257.461152 
L 260.976565 -251.505963 
L 259.192188 -245.444695 
L 257.407812 -239.3859 
L 255.623435 -233.445644 
L 253.839059 -227.742074 
L 252.054683 -222.38952 
L 250.270306 -217.492594 
L 248.48593 -213.140788 
L 246.701553 -209.403983 
L 244.917177 -206.329184 
L 243.1328 -203.938683 
L 241.348424 -202.229691 
L 239.564048 -201.175355 
L 237.779671 -200.726979 
L 235.995295 -200.817186 
L 234.210918 -201.363718 
L 232.426542 -202.273573 
L 230.642165 -203.447199 
L 228.857789 -204.782511 
L 227.073413 -206.178528 
L 225.289036 -207.538504 
L 223.50466 -208.772453 
L 221.720283 -209.799052 
L 219.935907 -210.546898 
L 218.15153 -210.955188 
L 216.367154 -210.973894 
L 214.582778 -210.563553 
L 212.798401 -209.694792 
L 211.014025 -208.347758 
L 209.229648 -206.511574 
L 207.445272 -204.183935 
L 205.660895 -201.370945 
L 203.876519 -198.087194 
L 202.092143 -194.35605 
L 200.307766 -190.210076 
L 198.52339 -185.691418 
L 196.739013 -180.852006 
L 194.954637 -175.753409 
L 193.17026 -170.466207 
L 191.385884 -165.068834 
L 189.601508 -159.645907 
L 187.817131 -154.286182 
L 186.032755 -149.080331 
L 184.248378 -144.11882 
L 182.464002 -139.490178 
L 180.679625 -135.279921 
L 178.895249 -131.570311 
L 177.110873 -128.441033 
L 175.326496 -125.9707 
L 173.54212 -124.238978 
L 171.757743 -123.328963 
L 169.973367 -123.32935 
L 168.18899 -124.335883 
L 166.404614 -126.451573 
L 164.620238 -129.785224 
L 162.835861 -134.447938 
L 161.051485 -140.547381 
L 159.267108 -148.179827 
L 157.482732 -157.420147 
L 155.698355 -168.310182 
L 153.913979 -180.846113 
L 152.129603 -194.965706 
L 150.345226 -210.536476 
L 148.56085 -227.346024 
L 146.776473 -245.095855 
L 144.992097 -263.400034 
L 143.20772 -281.789855 
L 141.423344 -299.725396 
L 139.638968 -316.614348 
L 137.854591 -331.837799 
L 136.070215 -344.781883 
L 134.285838 -354.873387 
L 132.501462 -361.616648 
L 130.717085 -364.628571 
L 128.932709 -363.66837 
L 127.148333 -358.658879 
L 125.363956 -349.69689 
L 123.57958 -337.050988 
L 121.795203 -321.146638 
L 120.010827 -302.539644 
L 118.22645 -281.880351 
L 116.442074 -259.87195 
L 114.657698 -237.226822 
L 112.873321 -214.624877 
L 111.088945 -192.677464 
L 109.304568 -171.899562 
L 107.520192 -152.691885 
L 105.735815 -135.333355 
L 103.951439 -119.983254 
L 102.167063 -106.691516 
L 100.382686 -95.414993 
L 98.59831 -86.037299 
L 96.813933 -78.389911 
L 95.029557 -72.2725 
L 93.24518 -67.470976 
L 91.460804 -63.772274 
L 89.676428 -60.975444 
L 87.892051 -58.899069 
L 86.107675 -57.385387 
L 84.323298 -56.301681 
L 82.538922 -55.539621 
L 80.754545 -55.013225 
z
" id="me5c1e16c65" style="stroke:#4c72b0;"/>
    </defs>
    <g clip-path="url(#pfa092aaa09)">
     <use style="fill:#4c72b0;fill-opacity:0.25;stroke:#4c72b0;" x="0" xlink:href="#me5c1e16c65" y="432"/>
    </g>
   </g>
   <g id="patch_3">
    <path d="M 63 378 
L 63 51.84 
" style="fill:none;stroke:#ffffff;stroke-linecap:square;stroke-linejoin:miter;stroke-width:1.25;"/>
   </g>
   <g id="patch_4">
    <path d="M 453.6 378 
L 453.6 51.84 
" style="fill:none;stroke:#ffffff;stroke-linecap:square;stroke-linejoin:miter;stroke-width:1.25;"/>
   </g>
   <g id="patch_5">
    <path d="M 63 378 
L 453.6 378 
" style="fill:none;stroke:#ffffff;stroke-linecap:square;stroke-linejoin:miter;stroke-width:1.25;"/>
   </g>
   <g id="patch_6">
    <path d="M 63 51.84 
L 453.6 51.84 
" style="fill:none;stroke:#ffffff;stroke-linecap:square;stroke-linejoin:miter;stroke-width:1.25;"/>
   </g>
   <g id="text_20">
    <!-- Distribution of monthly charges for all customers -->
    <g style="fill:#262626;" transform="translate(117.6225 37.84)scale(0.12 -0.12)">
     <defs>
      <path d="M 6.59375 0 
L 6.59375 71.578125 
L 20.3125 71.578125 
L 20.3125 45.796875 
Q 26.65625 53.03125 35.359375 53.03125 
Q 44.828125 53.03125 51.03125 46.171875 
Q 57.234375 39.3125 57.234375 26.46875 
Q 57.234375 13.1875 50.90625 6 
Q 44.578125 -1.171875 35.546875 -1.171875 
Q 31.109375 -1.171875 26.78125 1.046875 
Q 22.46875 3.265625 19.34375 7.625 
L 19.34375 0 
z
M 20.21875 27.046875 
Q 20.21875 19 22.75 15.140625 
Q 26.3125 9.671875 32.234375 9.671875 
Q 36.765625 9.671875 39.96875 13.546875 
Q 43.171875 17.4375 43.171875 25.78125 
Q 43.171875 34.671875 39.9375 38.59375 
Q 36.71875 42.53125 31.6875 42.53125 
Q 26.765625 42.53125 23.484375 38.6875 
Q 20.21875 34.859375 20.21875 27.046875 
z
" id="Arial-BoldMT-98"/>
      <path d="M 41.3125 0 
L 41.3125 7.765625 
Q 38.484375 3.609375 33.859375 1.21875 
Q 29.25 -1.171875 24.125 -1.171875 
Q 18.890625 -1.171875 14.734375 1.125 
Q 10.59375 3.421875 8.734375 7.5625 
Q 6.890625 11.71875 6.890625 19.046875 
L 6.890625 51.859375 
L 20.609375 51.859375 
L 20.609375 28.03125 
Q 20.609375 17.09375 21.359375 14.625 
Q 22.125 12.15625 24.125 10.71875 
Q 26.125 9.28125 29.203125 9.28125 
Q 32.71875 9.28125 35.5 11.203125 
Q 38.28125 13.140625 39.296875 15.984375 
Q 40.328125 18.84375 40.328125 29.984375 
L 40.328125 51.859375 
L 54.046875 51.859375 
L 54.046875 0 
z
" id="Arial-BoldMT-117"/>
      <path d="M 1.171875 51.859375 
L 8.796875 51.859375 
L 8.796875 55.765625 
Q 8.796875 62.3125 10.1875 65.53125 
Q 11.578125 68.75 15.3125 70.765625 
Q 19.046875 72.796875 24.75 72.796875 
Q 30.609375 72.796875 36.234375 71.046875 
L 34.375 61.46875 
Q 31.109375 62.25 28.078125 62.25 
Q 25.09375 62.25 23.796875 60.859375 
Q 22.515625 59.46875 22.515625 55.515625 
L 22.515625 51.859375 
L 32.765625 51.859375 
L 32.765625 41.0625 
L 22.515625 41.0625 
L 22.515625 0 
L 8.796875 0 
L 8.796875 41.0625 
L 1.171875 41.0625 
z
" id="Arial-BoldMT-102"/>
      <path d="M 6.15625 51.859375 
L 18.796875 51.859375 
L 18.796875 44.78125 
Q 25.59375 53.03125 34.96875 53.03125 
Q 39.9375 53.03125 43.59375 50.96875 
Q 47.265625 48.921875 49.609375 44.78125 
Q 53.03125 48.921875 56.984375 50.96875 
Q 60.9375 53.03125 65.4375 53.03125 
Q 71.140625 53.03125 75.09375 50.703125 
Q 79.046875 48.390625 81 43.890625 
Q 82.421875 40.578125 82.421875 33.15625 
L 82.421875 0 
L 68.703125 0 
L 68.703125 29.640625 
Q 68.703125 37.359375 67.28125 39.59375 
Q 65.375 42.53125 61.421875 42.53125 
Q 58.546875 42.53125 56 40.765625 
Q 53.46875 39.015625 52.34375 35.625 
Q 51.21875 32.234375 51.21875 24.90625 
L 51.21875 0 
L 37.5 0 
L 37.5 28.421875 
Q 37.5 35.984375 36.765625 38.171875 
Q 36.03125 40.375 34.484375 41.453125 
Q 32.953125 42.53125 30.328125 42.53125 
Q 27.15625 42.53125 24.609375 40.8125 
Q 22.078125 39.109375 20.96875 35.890625 
Q 19.875 32.671875 19.875 25.203125 
L 19.875 0 
L 6.15625 0 
z
" id="Arial-BoldMT-109"/>
      <path d="M 52.390625 36.53125 
L 38.875 34.078125 
Q 38.1875 38.140625 35.765625 40.1875 
Q 33.34375 42.234375 29.5 42.234375 
Q 24.359375 42.234375 21.3125 38.6875 
Q 18.265625 35.15625 18.265625 26.859375 
Q 18.265625 17.625 21.359375 13.8125 
Q 24.46875 10.015625 29.6875 10.015625 
Q 33.59375 10.015625 36.078125 12.234375 
Q 38.578125 14.453125 39.59375 19.875 
L 53.078125 17.578125 
Q 50.984375 8.296875 45.015625 3.5625 
Q 39.0625 -1.171875 29.046875 -1.171875 
Q 17.671875 -1.171875 10.90625 6 
Q 4.15625 13.1875 4.15625 25.875 
Q 4.15625 38.71875 10.9375 45.875 
Q 17.71875 53.03125 29.296875 53.03125 
Q 38.765625 53.03125 44.359375 48.953125 
Q 49.953125 44.875 52.390625 36.53125 
z
" id="Arial-BoldMT-99"/>
     </defs>
     <use xlink:href="#Arial-BoldMT-68"/>
     <use x="72.216797" xlink:href="#Arial-BoldMT-105"/>
     <use x="100" xlink:href="#Arial-BoldMT-115"/>
     <use x="155.615234" xlink:href="#Arial-BoldMT-116"/>
     <use x="188.916016" xlink:href="#Arial-BoldMT-114"/>
     <use x="227.832031" xlink:href="#Arial-BoldMT-105"/>
     <use x="255.615234" xlink:href="#Arial-BoldMT-98"/>
     <use x="316.699219" xlink:href="#Arial-BoldMT-117"/>
     <use x="377.783203" xlink:href="#Arial-BoldMT-116"/>
     <use x="411.083984" xlink:href="#Arial-BoldMT-105"/>
     <use x="438.867188" xlink:href="#Arial-BoldMT-111"/>
     <use x="499.951172" xlink:href="#Arial-BoldMT-110"/>
     <use x="561.035156" xlink:href="#Arial-BoldMT-32"/>
     <use x="588.818359" xlink:href="#Arial-BoldMT-111"/>
     <use x="649.902344" xlink:href="#Arial-BoldMT-102"/>
     <use x="683.203125" xlink:href="#Arial-BoldMT-32"/>
     <use x="710.986328" xlink:href="#Arial-BoldMT-109"/>
     <use x="799.902344" xlink:href="#Arial-BoldMT-111"/>
     <use x="860.986328" xlink:href="#Arial-BoldMT-110"/>
     <use x="922.070312" xlink:href="#Arial-BoldMT-116"/>
     <use x="955.371094" xlink:href="#Arial-BoldMT-104"/>
     <use x="1016.455078" xlink:href="#Arial-BoldMT-108"/>
     <use x="1044.238281" xlink:href="#Arial-BoldMT-121"/>
     <use x="1099.853516" xlink:href="#Arial-BoldMT-32"/>
     <use x="1127.636719" xlink:href="#Arial-BoldMT-99"/>
     <use x="1183.251953" xlink:href="#Arial-BoldMT-104"/>
     <use x="1244.335938" xlink:href="#Arial-BoldMT-97"/>
     <use x="1299.951172" xlink:href="#Arial-BoldMT-114"/>
     <use x="1338.867188" xlink:href="#Arial-BoldMT-103"/>
     <use x="1399.951172" xlink:href="#Arial-BoldMT-101"/>
     <use x="1455.566406" xlink:href="#Arial-BoldMT-115"/>
     <use x="1511.181641" xlink:href="#Arial-BoldMT-32"/>
     <use x="1538.964844" xlink:href="#Arial-BoldMT-102"/>
     <use x="1572.265625" xlink:href="#Arial-BoldMT-111"/>
     <use x="1633.349609" xlink:href="#Arial-BoldMT-114"/>
     <use x="1672.265625" xlink:href="#Arial-BoldMT-32"/>
     <use x="1700.048828" xlink:href="#Arial-BoldMT-97"/>
     <use x="1755.664062" xlink:href="#Arial-BoldMT-108"/>
     <use x="1783.447266" xlink:href="#Arial-BoldMT-108"/>
     <use x="1811.230469" xlink:href="#Arial-BoldMT-32"/>
     <use x="1839.013672" xlink:href="#Arial-BoldMT-99"/>
     <use x="1894.628906" xlink:href="#Arial-BoldMT-117"/>
     <use x="1955.712891" xlink:href="#Arial-BoldMT-115"/>
     <use x="2011.328125" xlink:href="#Arial-BoldMT-116"/>
     <use x="2044.628906" xlink:href="#Arial-BoldMT-111"/>
     <use x="2105.712891" xlink:href="#Arial-BoldMT-109"/>
     <use x="2194.628906" xlink:href="#Arial-BoldMT-101"/>
     <use x="2250.244141" xlink:href="#Arial-BoldMT-114"/>
     <use x="2289.160156" xlink:href="#Arial-BoldMT-115"/>
    </g>
   </g>
  </g>
 </g>
 <defs>
  <clipPath id="pfa092aaa09">
   <rect height="326.16" width="390.6" x="63" y="51.84"/>
  </clipPath>
 </defs>
</svg>
