<?xml version="1.0" encoding="utf-8" standalone="no"?>
<!DOCTYPE svg PUBLIC "-//W3C//DTD SVG 1.1//EN"
  "http://www.w3.org/Graphics/SVG/1.1/DTD/svg11.dtd">
<!-- Created with matplotlib (https://matplotlib.org/) -->
<svg height="432pt" version="1.1" viewBox="0 0 504 432" width="504pt" xmlns="http://www.w3.org/2000/svg" xmlns:xlink="http://www.w3.org/1999/xlink">
 <metadata>
  <rdf:RDF xmlns:cc="http://creativecommons.org/ns#" xmlns:dc="http://purl.org/dc/elements/1.1/" xmlns:rdf="http://www.w3.org/1999/02/22-rdf-syntax-ns#">
   <cc:Work>
    <dc:type rdf:resource="http://purl.org/dc/dcmitype/StillImage"/>
    <dc:date>2021-06-10T11:45:49.227856</dc:date>
    <dc:format>image/svg+xml</dc:format>
    <dc:creator>
     <cc:Agent>
      <dc:title>Matplotlib v3.3.3, https://matplotlib.org/</dc:title>
     </cc:Agent>
    </dc:creator>
   </cc:Work>
  </rdf:RDF>
 </metadata>
 <defs>
  <style type="text/css">*{stroke-linecap:butt;stroke-linejoin:round;}</style>
 </defs>
 <g id="figure_1">
  <g id="patch_1">
   <path d="M 0 432 
L 504 432 
L 504 0 
L 0 0 
z
" style="fill:none;"/>
  </g>
  <g id="axes_1">
   <g id="patch_2">
    <path d="M 63 378 
L 453.6 378 
L 453.6 51.84 
L 63 51.84 
z
" style="fill:#eaeaf2;"/>
   </g>
   <g id="matplotlib.axis_1">
    <g id="xtick_1">
     <g id="line2d_1">
      <path clip-path="url(#pfcb401af30)" d="M 139.936364 378 
L 139.936364 51.84 
" style="fill:none;stroke:#ffffff;stroke-linecap:round;"/>
     </g>
     <g id="text_1">
      <!-- Not churned -->
      <g style="fill:#262626;" transform="translate(109.975973 395.373594)scale(0.11 -0.11)">
       <defs>
        <path d="M 7.625 0 
L 7.625 71.578125 
L 17.328125 71.578125 
L 54.9375 15.375 
L 54.9375 71.578125 
L 64.015625 71.578125 
L 64.015625 0 
L 54.296875 0 
L 16.703125 56.25 
L 16.703125 0 
z
" id="ArialMT-78"/>
        <path d="M 3.328125 25.921875 
Q 3.328125 40.328125 11.328125 47.265625 
Q 18.015625 53.03125 27.640625 53.03125 
Q 38.328125 53.03125 45.109375 46.015625 
Q 51.90625 39.015625 51.90625 26.65625 
Q 51.90625 16.65625 48.90625 10.90625 
Q 45.90625 5.171875 40.15625 2 
Q 34.421875 -1.171875 27.640625 -1.171875 
Q 16.75 -1.171875 10.03125 5.8125 
Q 3.328125 12.796875 3.328125 25.921875 
z
M 12.359375 25.921875 
Q 12.359375 15.96875 16.703125 11.015625 
Q 21.046875 6.0625 27.640625 6.0625 
Q 34.1875 6.0625 38.53125 11.03125 
Q 42.875 16.015625 42.875 26.21875 
Q 42.875 35.84375 38.5 40.796875 
Q 34.125 45.75 27.640625 45.75 
Q 21.046875 45.75 16.703125 40.8125 
Q 12.359375 35.890625 12.359375 25.921875 
z
" id="ArialMT-111"/>
        <path d="M 25.78125 7.859375 
L 27.046875 0.09375 
Q 23.34375 -0.6875 20.40625 -0.6875 
Q 15.625 -0.6875 12.984375 0.828125 
Q 10.359375 2.34375 9.28125 4.8125 
Q 8.203125 7.28125 8.203125 15.1875 
L 8.203125 45.015625 
L 1.765625 45.015625 
L 1.765625 51.859375 
L 8.203125 51.859375 
L 8.203125 64.703125 
L 16.9375 69.96875 
L 16.9375 51.859375 
L 25.78125 51.859375 
L 25.78125 45.015625 
L 16.9375 45.015625 
L 16.9375 14.703125 
Q 16.9375 10.9375 17.40625 9.859375 
Q 17.875 8.796875 18.921875 8.15625 
Q 19.96875 7.515625 21.921875 7.515625 
Q 23.390625 7.515625 25.78125 7.859375 
z
" id="ArialMT-116"/>
        <path id="ArialMT-32"/>
        <path d="M 40.4375 19 
L 49.078125 17.875 
Q 47.65625 8.9375 41.8125 3.875 
Q 35.984375 -1.171875 27.484375 -1.171875 
Q 16.84375 -1.171875 10.375 5.78125 
Q 3.90625 12.75 3.90625 25.734375 
Q 3.90625 34.125 6.6875 40.421875 
Q 9.46875 46.734375 15.15625 49.875 
Q 20.84375 53.03125 27.546875 53.03125 
Q 35.984375 53.03125 41.359375 48.75 
Q 46.734375 44.484375 48.25 36.625 
L 39.703125 35.296875 
Q 38.484375 40.53125 35.375 43.15625 
Q 32.28125 45.796875 27.875 45.796875 
Q 21.234375 45.796875 17.078125 41.03125 
Q 12.9375 36.28125 12.9375 25.984375 
Q 12.9375 15.53125 16.9375 10.796875 
Q 20.953125 6.0625 27.390625 6.0625 
Q 32.5625 6.0625 36.03125 9.234375 
Q 39.5 12.40625 40.4375 19 
z
" id="ArialMT-99"/>
        <path d="M 6.59375 0 
L 6.59375 71.578125 
L 15.375 71.578125 
L 15.375 45.90625 
Q 21.53125 53.03125 30.90625 53.03125 
Q 36.671875 53.03125 40.921875 50.75 
Q 45.171875 48.484375 47 44.484375 
Q 48.828125 40.484375 48.828125 32.859375 
L 48.828125 0 
L 40.046875 0 
L 40.046875 32.859375 
Q 40.046875 39.453125 37.1875 42.453125 
Q 34.328125 45.453125 29.109375 45.453125 
Q 25.203125 45.453125 21.75 43.421875 
Q 18.3125 41.40625 16.84375 37.9375 
Q 15.375 34.46875 15.375 28.375 
L 15.375 0 
z
" id="ArialMT-104"/>
        <path d="M 40.578125 0 
L 40.578125 7.625 
Q 34.515625 -1.171875 24.125 -1.171875 
Q 19.53125 -1.171875 15.546875 0.578125 
Q 11.578125 2.34375 9.640625 5 
Q 7.71875 7.671875 6.9375 11.53125 
Q 6.390625 14.109375 6.390625 19.734375 
L 6.390625 51.859375 
L 15.1875 51.859375 
L 15.1875 23.09375 
Q 15.1875 16.21875 15.71875 13.8125 
Q 16.546875 10.359375 19.234375 8.375 
Q 21.921875 6.390625 25.875 6.390625 
Q 29.828125 6.390625 33.296875 8.421875 
Q 36.765625 10.453125 38.203125 13.9375 
Q 39.65625 17.4375 39.65625 24.078125 
L 39.65625 51.859375 
L 48.4375 51.859375 
L 48.4375 0 
z
" id="ArialMT-117"/>
        <path d="M 6.5 0 
L 6.5 51.859375 
L 14.40625 51.859375 
L 14.40625 44 
Q 17.4375 49.515625 20 51.265625 
Q 22.5625 53.03125 25.640625 53.03125 
Q 30.078125 53.03125 34.671875 50.203125 
L 31.640625 42.046875 
Q 28.421875 43.953125 25.203125 43.953125 
Q 22.3125 43.953125 20.015625 42.21875 
Q 17.71875 40.484375 16.75 37.40625 
Q 15.28125 32.71875 15.28125 27.15625 
L 15.28125 0 
z
" id="ArialMT-114"/>
        <path d="M 6.59375 0 
L 6.59375 51.859375 
L 14.5 51.859375 
L 14.5 44.484375 
Q 20.21875 53.03125 31 53.03125 
Q 35.6875 53.03125 39.625 51.34375 
Q 43.5625 49.65625 45.515625 46.921875 
Q 47.46875 44.1875 48.25 40.4375 
Q 48.734375 37.984375 48.734375 31.890625 
L 48.734375 0 
L 39.9375 0 
L 39.9375 31.546875 
Q 39.9375 36.921875 38.90625 39.578125 
Q 37.890625 42.234375 35.28125 43.8125 
Q 32.671875 45.40625 29.15625 45.40625 
Q 23.53125 45.40625 19.453125 41.84375 
Q 15.375 38.28125 15.375 28.328125 
L 15.375 0 
z
" id="ArialMT-110"/>
        <path d="M 42.09375 16.703125 
L 51.171875 15.578125 
Q 49.03125 7.625 43.21875 3.21875 
Q 37.40625 -1.171875 28.375 -1.171875 
Q 17 -1.171875 10.328125 5.828125 
Q 3.65625 12.84375 3.65625 25.484375 
Q 3.65625 38.578125 10.390625 45.796875 
Q 17.140625 53.03125 27.875 53.03125 
Q 38.28125 53.03125 44.875 45.953125 
Q 51.46875 38.875 51.46875 26.03125 
Q 51.46875 25.25 51.421875 23.6875 
L 12.75 23.6875 
Q 13.234375 15.140625 17.578125 10.59375 
Q 21.921875 6.0625 28.421875 6.0625 
Q 33.25 6.0625 36.671875 8.59375 
Q 40.09375 11.140625 42.09375 16.703125 
z
M 13.234375 30.90625 
L 42.1875 30.90625 
Q 41.609375 37.453125 38.875 40.71875 
Q 34.671875 45.796875 27.984375 45.796875 
Q 21.921875 45.796875 17.796875 41.75 
Q 13.671875 37.703125 13.234375 30.90625 
z
" id="ArialMT-101"/>
        <path d="M 40.234375 0 
L 40.234375 6.546875 
Q 35.296875 -1.171875 25.734375 -1.171875 
Q 19.53125 -1.171875 14.328125 2.25 
Q 9.125 5.671875 6.265625 11.796875 
Q 3.421875 17.921875 3.421875 25.875 
Q 3.421875 33.640625 6 39.96875 
Q 8.59375 46.296875 13.765625 49.65625 
Q 18.953125 53.03125 25.34375 53.03125 
Q 30.03125 53.03125 33.6875 51.046875 
Q 37.359375 49.078125 39.65625 45.90625 
L 39.65625 71.578125 
L 48.390625 71.578125 
L 48.390625 0 
z
M 12.453125 25.875 
Q 12.453125 15.921875 16.640625 10.984375 
Q 20.84375 6.0625 26.5625 6.0625 
Q 32.328125 6.0625 36.34375 10.765625 
Q 40.375 15.484375 40.375 25.140625 
Q 40.375 35.796875 36.265625 40.765625 
Q 32.171875 45.75 26.171875 45.75 
Q 20.3125 45.75 16.375 40.96875 
Q 12.453125 36.1875 12.453125 25.875 
z
" id="ArialMT-100"/>
       </defs>
       <use xlink:href="#ArialMT-78"/>
       <use x="72.216797" xlink:href="#ArialMT-111"/>
       <use x="127.832031" xlink:href="#ArialMT-116"/>
       <use x="155.615234" xlink:href="#ArialMT-32"/>
       <use x="183.398438" xlink:href="#ArialMT-99"/>
       <use x="233.398438" xlink:href="#ArialMT-104"/>
       <use x="289.013672" xlink:href="#ArialMT-117"/>
       <use x="344.628906" xlink:href="#ArialMT-114"/>
       <use x="377.929688" xlink:href="#ArialMT-110"/>
       <use x="433.544922" xlink:href="#ArialMT-101"/>
       <use x="489.160156" xlink:href="#ArialMT-100"/>
      </g>
     </g>
    </g>
    <g id="xtick_2">
     <g id="line2d_2">
      <path clip-path="url(#pfcb401af30)" d="M 376.663636 378 
L 376.663636 51.84 
" style="fill:none;stroke:#ffffff;stroke-linecap:round;"/>
     </g>
     <g id="text_2">
      <!-- Churned -->
      <g style="fill:#262626;" transform="translate(355.567699 395.373594)scale(0.11 -0.11)">
       <defs>
        <path d="M 58.796875 25.09375 
L 68.265625 22.703125 
Q 65.28125 11.03125 57.546875 4.90625 
Q 49.8125 -1.21875 38.625 -1.21875 
Q 27.046875 -1.21875 19.796875 3.484375 
Q 12.546875 8.203125 8.765625 17.140625 
Q 4.984375 26.078125 4.984375 36.328125 
Q 4.984375 47.515625 9.25 55.828125 
Q 13.53125 64.15625 21.40625 68.46875 
Q 29.296875 72.796875 38.765625 72.796875 
Q 49.515625 72.796875 56.828125 67.328125 
Q 64.15625 61.859375 67.046875 51.953125 
L 57.71875 49.75 
Q 55.21875 57.5625 50.484375 61.125 
Q 45.75 64.703125 38.578125 64.703125 
Q 30.328125 64.703125 24.78125 60.734375 
Q 19.234375 56.78125 16.984375 50.109375 
Q 14.75 43.453125 14.75 36.375 
Q 14.75 27.25 17.40625 20.4375 
Q 20.0625 13.625 25.671875 10.25 
Q 31.296875 6.890625 37.84375 6.890625 
Q 45.796875 6.890625 51.3125 11.46875 
Q 56.84375 16.0625 58.796875 25.09375 
z
" id="ArialMT-67"/>
       </defs>
       <use xlink:href="#ArialMT-67"/>
       <use x="72.216797" xlink:href="#ArialMT-104"/>
       <use x="127.832031" xlink:href="#ArialMT-117"/>
       <use x="183.447266" xlink:href="#ArialMT-114"/>
       <use x="216.748047" xlink:href="#ArialMT-110"/>
       <use x="272.363281" xlink:href="#ArialMT-101"/>
       <use x="327.978516" xlink:href="#ArialMT-100"/>
      </g>
     </g>
    </g>
    <g id="text_3">
     <!-- Churn -->
     <g style="fill:#262626;" transform="translate(240.6375 416.149219)scale(0.12 -0.12)">
      <defs>
       <path d="M 53.078125 26.3125 
L 67.09375 21.875 
Q 63.875 10.15625 56.375 4.46875 
Q 48.875 -1.21875 37.359375 -1.21875 
Q 23.09375 -1.21875 13.90625 8.515625 
Q 4.734375 18.265625 4.734375 35.15625 
Q 4.734375 53.03125 13.953125 62.90625 
Q 23.1875 72.796875 38.234375 72.796875 
Q 51.375 72.796875 59.578125 65.046875 
Q 64.453125 60.453125 66.890625 51.859375 
L 52.59375 48.4375 
Q 51.3125 54 47.28125 57.21875 
Q 43.265625 60.453125 37.5 60.453125 
Q 29.546875 60.453125 24.578125 54.734375 
Q 19.625 49.03125 19.625 36.234375 
Q 19.625 22.65625 24.5 16.890625 
Q 29.390625 11.140625 37.203125 11.140625 
Q 42.96875 11.140625 47.109375 14.796875 
Q 51.265625 18.453125 53.078125 26.3125 
z
" id="Arial-BoldMT-67"/>
       <path d="M 20.84375 71.578125 
L 20.84375 45.265625 
Q 27.484375 53.03125 36.71875 53.03125 
Q 41.453125 53.03125 45.265625 51.265625 
Q 49.078125 49.515625 51 46.78125 
Q 52.9375 44.046875 53.640625 40.71875 
Q 54.34375 37.40625 54.34375 30.421875 
L 54.34375 0 
L 40.625 0 
L 40.625 27.390625 
Q 40.625 35.546875 39.84375 37.734375 
Q 39.0625 39.9375 37.078125 41.234375 
Q 35.109375 42.53125 32.125 42.53125 
Q 28.71875 42.53125 26.03125 40.859375 
Q 23.34375 39.203125 22.09375 35.859375 
Q 20.84375 32.515625 20.84375 25.984375 
L 20.84375 0 
L 7.125 0 
L 7.125 71.578125 
z
" id="Arial-BoldMT-104"/>
       <path d="M 41.3125 0 
L 41.3125 7.765625 
Q 38.484375 3.609375 33.859375 1.21875 
Q 29.25 -1.171875 24.125 -1.171875 
Q 18.890625 -1.171875 14.734375 1.125 
Q 10.59375 3.421875 8.734375 7.5625 
Q 6.890625 11.71875 6.890625 19.046875 
L 6.890625 51.859375 
L 20.609375 51.859375 
L 20.609375 28.03125 
Q 20.609375 17.09375 21.359375 14.625 
Q 22.125 12.15625 24.125 10.71875 
Q 26.125 9.28125 29.203125 9.28125 
Q 32.71875 9.28125 35.5 11.203125 
Q 38.28125 13.140625 39.296875 15.984375 
Q 40.328125 18.84375 40.328125 29.984375 
L 40.328125 51.859375 
L 54.046875 51.859375 
L 54.046875 0 
z
" id="Arial-BoldMT-117"/>
       <path d="M 20.3125 0 
L 6.59375 0 
L 6.59375 51.859375 
L 19.34375 51.859375 
L 19.34375 44.484375 
Q 22.609375 49.703125 25.21875 51.359375 
Q 27.828125 53.03125 31.15625 53.03125 
Q 35.84375 53.03125 40.1875 50.4375 
L 35.9375 38.484375 
Q 32.46875 40.71875 29.5 40.71875 
Q 26.609375 40.71875 24.609375 39.125 
Q 22.609375 37.546875 21.453125 33.390625 
Q 20.3125 29.25 20.3125 16.015625 
z
" id="Arial-BoldMT-114"/>
       <path d="M 54.34375 0 
L 40.625 0 
L 40.625 26.46875 
Q 40.625 34.859375 39.75 37.328125 
Q 38.875 39.796875 36.890625 41.15625 
Q 34.90625 42.53125 32.125 42.53125 
Q 28.5625 42.53125 25.734375 40.578125 
Q 22.90625 38.625 21.84375 35.390625 
Q 20.796875 32.171875 20.796875 23.484375 
L 20.796875 0 
L 7.078125 0 
L 7.078125 51.859375 
L 19.828125 51.859375 
L 19.828125 44.234375 
Q 26.609375 53.03125 36.921875 53.03125 
Q 41.453125 53.03125 45.203125 51.390625 
Q 48.96875 49.75 50.890625 47.203125 
Q 52.828125 44.671875 53.578125 41.453125 
Q 54.34375 38.234375 54.34375 32.234375 
z
" id="Arial-BoldMT-110"/>
      </defs>
      <use xlink:href="#Arial-BoldMT-67"/>
      <use x="72.216797" xlink:href="#Arial-BoldMT-104"/>
      <use x="133.300781" xlink:href="#Arial-BoldMT-117"/>
      <use x="194.384766" xlink:href="#Arial-BoldMT-114"/>
      <use x="233.300781" xlink:href="#Arial-BoldMT-110"/>
     </g>
    </g>
   </g>
   <g id="matplotlib.axis_2">
    <g id="ytick_1">
     <g id="line2d_3">
      <path clip-path="url(#pfcb401af30)" d="M 63 358.011452 
L 453.6 358.011452 
" style="fill:none;stroke:#ffffff;stroke-linecap:round;"/>
     </g>
     <g id="text_4">
      <!-- 20 -->
      <g style="fill:#262626;" transform="translate(41.265937 361.948249)scale(0.11 -0.11)">
       <defs>
        <path d="M 50.34375 8.453125 
L 50.34375 0 
L 3.03125 0 
Q 2.9375 3.171875 4.046875 6.109375 
Q 5.859375 10.9375 9.828125 15.625 
Q 13.8125 20.3125 21.34375 26.46875 
Q 33.015625 36.03125 37.109375 41.625 
Q 41.21875 47.21875 41.21875 52.203125 
Q 41.21875 57.421875 37.46875 61 
Q 33.734375 64.59375 27.734375 64.59375 
Q 21.390625 64.59375 17.578125 60.78125 
Q 13.765625 56.984375 13.71875 50.25 
L 4.6875 51.171875 
Q 5.609375 61.28125 11.65625 66.578125 
Q 17.71875 71.875 27.9375 71.875 
Q 38.234375 71.875 44.234375 66.15625 
Q 50.25 60.453125 50.25 52 
Q 50.25 47.703125 48.484375 43.546875 
Q 46.734375 39.40625 42.65625 34.8125 
Q 38.578125 30.21875 29.109375 22.21875 
Q 21.1875 15.578125 18.9375 13.203125 
Q 16.703125 10.84375 15.234375 8.453125 
z
" id="ArialMT-50"/>
        <path d="M 4.15625 35.296875 
Q 4.15625 48 6.765625 55.734375 
Q 9.375 63.484375 14.515625 67.671875 
Q 19.671875 71.875 27.484375 71.875 
Q 33.25 71.875 37.59375 69.546875 
Q 41.9375 67.234375 44.765625 62.859375 
Q 47.609375 58.5 49.21875 52.21875 
Q 50.828125 45.953125 50.828125 35.296875 
Q 50.828125 22.703125 48.234375 14.96875 
Q 45.65625 7.234375 40.5 3 
Q 35.359375 -1.21875 27.484375 -1.21875 
Q 17.140625 -1.21875 11.234375 6.203125 
Q 4.15625 15.140625 4.15625 35.296875 
z
M 13.1875 35.296875 
Q 13.1875 17.671875 17.3125 11.828125 
Q 21.4375 6 27.484375 6 
Q 33.546875 6 37.671875 11.859375 
Q 41.796875 17.71875 41.796875 35.296875 
Q 41.796875 52.984375 37.671875 58.78125 
Q 33.546875 64.59375 27.390625 64.59375 
Q 21.34375 64.59375 17.71875 59.46875 
Q 13.1875 52.9375 13.1875 35.296875 
z
" id="ArialMT-48"/>
       </defs>
       <use xlink:href="#ArialMT-50"/>
       <use x="55.615234" xlink:href="#ArialMT-48"/>
      </g>
     </g>
    </g>
    <g id="ytick_2">
     <g id="line2d_4">
      <path clip-path="url(#pfcb401af30)" d="M 63 299.004668 
L 453.6 299.004668 
" style="fill:none;stroke:#ffffff;stroke-linecap:round;"/>
     </g>
     <g id="text_5">
      <!-- 40 -->
      <g style="fill:#262626;" transform="translate(41.265937 302.941464)scale(0.11 -0.11)">
       <defs>
        <path d="M 32.328125 0 
L 32.328125 17.140625 
L 1.265625 17.140625 
L 1.265625 25.203125 
L 33.9375 71.578125 
L 41.109375 71.578125 
L 41.109375 25.203125 
L 50.78125 25.203125 
L 50.78125 17.140625 
L 41.109375 17.140625 
L 41.109375 0 
z
M 32.328125 25.203125 
L 32.328125 57.46875 
L 9.90625 25.203125 
z
" id="ArialMT-52"/>
       </defs>
       <use xlink:href="#ArialMT-52"/>
       <use x="55.615234" xlink:href="#ArialMT-48"/>
      </g>
     </g>
    </g>
    <g id="ytick_3">
     <g id="line2d_5">
      <path clip-path="url(#pfcb401af30)" d="M 63 239.997883 
L 453.6 239.997883 
" style="fill:none;stroke:#ffffff;stroke-linecap:round;"/>
     </g>
     <g id="text_6">
      <!-- 60 -->
      <g style="fill:#262626;" transform="translate(41.265937 243.93468)scale(0.11 -0.11)">
       <defs>
        <path d="M 49.75 54.046875 
L 41.015625 53.375 
Q 39.84375 58.546875 37.703125 60.890625 
Q 34.125 64.65625 28.90625 64.65625 
Q 24.703125 64.65625 21.53125 62.3125 
Q 17.390625 59.28125 14.984375 53.46875 
Q 12.59375 47.65625 12.5 36.921875 
Q 15.671875 41.75 20.265625 44.09375 
Q 24.859375 46.4375 29.890625 46.4375 
Q 38.671875 46.4375 44.84375 39.96875 
Q 51.03125 33.5 51.03125 23.25 
Q 51.03125 16.5 48.125 10.71875 
Q 45.21875 4.9375 40.140625 1.859375 
Q 35.0625 -1.21875 28.609375 -1.21875 
Q 17.625 -1.21875 10.6875 6.859375 
Q 3.765625 14.9375 3.765625 33.5 
Q 3.765625 54.25 11.421875 63.671875 
Q 18.109375 71.875 29.4375 71.875 
Q 37.890625 71.875 43.28125 67.140625 
Q 48.6875 62.40625 49.75 54.046875 
z
M 13.875 23.1875 
Q 13.875 18.65625 15.796875 14.5 
Q 17.71875 10.359375 21.1875 8.171875 
Q 24.65625 6 28.46875 6 
Q 34.03125 6 38.03125 10.484375 
Q 42.046875 14.984375 42.046875 22.703125 
Q 42.046875 30.125 38.078125 34.390625 
Q 34.125 38.671875 28.125 38.671875 
Q 22.171875 38.671875 18.015625 34.390625 
Q 13.875 30.125 13.875 23.1875 
z
" id="ArialMT-54"/>
       </defs>
       <use xlink:href="#ArialMT-54"/>
       <use x="55.615234" xlink:href="#ArialMT-48"/>
      </g>
     </g>
    </g>
    <g id="ytick_4">
     <g id="line2d_6">
      <path clip-path="url(#pfcb401af30)" d="M 63 180.991099 
L 453.6 180.991099 
" style="fill:none;stroke:#ffffff;stroke-linecap:round;"/>
     </g>
     <g id="text_7">
      <!-- 80 -->
      <g style="fill:#262626;" transform="translate(41.265937 184.927896)scale(0.11 -0.11)">
       <defs>
        <path d="M 17.671875 38.8125 
Q 12.203125 40.828125 9.5625 44.53125 
Q 6.9375 48.25 6.9375 53.421875 
Q 6.9375 61.234375 12.546875 66.546875 
Q 18.171875 71.875 27.484375 71.875 
Q 36.859375 71.875 42.578125 66.421875 
Q 48.296875 60.984375 48.296875 53.171875 
Q 48.296875 48.1875 45.671875 44.5 
Q 43.0625 40.828125 37.75 38.8125 
Q 44.34375 36.671875 47.78125 31.875 
Q 51.21875 27.09375 51.21875 20.453125 
Q 51.21875 11.28125 44.71875 5.03125 
Q 38.234375 -1.21875 27.640625 -1.21875 
Q 17.046875 -1.21875 10.546875 5.046875 
Q 4.046875 11.328125 4.046875 20.703125 
Q 4.046875 27.6875 7.59375 32.390625 
Q 11.140625 37.109375 17.671875 38.8125 
z
M 15.921875 53.71875 
Q 15.921875 48.640625 19.1875 45.40625 
Q 22.46875 42.1875 27.6875 42.1875 
Q 32.765625 42.1875 36.015625 45.375 
Q 39.265625 48.578125 39.265625 53.21875 
Q 39.265625 58.0625 35.90625 61.359375 
Q 32.5625 64.65625 27.59375 64.65625 
Q 22.5625 64.65625 19.234375 61.421875 
Q 15.921875 58.203125 15.921875 53.71875 
z
M 13.09375 20.65625 
Q 13.09375 16.890625 14.875 13.375 
Q 16.65625 9.859375 20.171875 7.921875 
Q 23.6875 6 27.734375 6 
Q 34.03125 6 38.125 10.046875 
Q 42.234375 14.109375 42.234375 20.359375 
Q 42.234375 26.703125 38.015625 30.859375 
Q 33.796875 35.015625 27.4375 35.015625 
Q 21.234375 35.015625 17.15625 30.90625 
Q 13.09375 26.8125 13.09375 20.65625 
z
" id="ArialMT-56"/>
       </defs>
       <use xlink:href="#ArialMT-56"/>
       <use x="55.615234" xlink:href="#ArialMT-48"/>
      </g>
     </g>
    </g>
    <g id="ytick_5">
     <g id="line2d_7">
      <path clip-path="url(#pfcb401af30)" d="M 63 121.984315 
L 453.6 121.984315 
" style="fill:none;stroke:#ffffff;stroke-linecap:round;"/>
     </g>
     <g id="text_8">
      <!-- 100 -->
      <g style="fill:#262626;" transform="translate(35.148906 125.921112)scale(0.11 -0.11)">
       <defs>
        <path d="M 37.25 0 
L 28.46875 0 
L 28.46875 56 
Q 25.296875 52.984375 20.140625 49.953125 
Q 14.984375 46.921875 10.890625 45.40625 
L 10.890625 53.90625 
Q 18.265625 57.375 23.78125 62.296875 
Q 29.296875 67.234375 31.59375 71.875 
L 37.25 71.875 
z
" id="ArialMT-49"/>
       </defs>
       <use xlink:href="#ArialMT-49"/>
       <use x="55.615234" xlink:href="#ArialMT-48"/>
       <use x="111.230469" xlink:href="#ArialMT-48"/>
      </g>
     </g>
    </g>
    <g id="ytick_6">
     <g id="line2d_8">
      <path clip-path="url(#pfcb401af30)" d="M 63 62.977531 
L 453.6 62.977531 
" style="fill:none;stroke:#ffffff;stroke-linecap:round;"/>
     </g>
     <g id="text_9">
      <!-- 120 -->
      <g style="fill:#262626;" transform="translate(35.148906 66.914327)scale(0.11 -0.11)">
       <use xlink:href="#ArialMT-49"/>
       <use x="55.615234" xlink:href="#ArialMT-50"/>
       <use x="111.230469" xlink:href="#ArialMT-48"/>
      </g>
     </g>
    </g>
    <g id="text_10">
     <!-- MonthlyCharges -->
     <g style="fill:#262626;" transform="translate(22.623281 261.920625)rotate(-90)scale(0.12 -0.12)">
      <defs>
       <path d="M 7.078125 0 
L 7.078125 71.578125 
L 28.71875 71.578125 
L 41.703125 22.75 
L 54.546875 71.578125 
L 76.21875 71.578125 
L 76.21875 0 
L 62.796875 0 
L 62.796875 56.34375 
L 48.578125 0 
L 34.671875 0 
L 20.515625 56.34375 
L 20.515625 0 
z
" id="Arial-BoldMT-77"/>
       <path d="M 4 26.65625 
Q 4 33.5 7.375 39.890625 
Q 10.75 46.296875 16.921875 49.65625 
Q 23.09375 53.03125 30.71875 53.03125 
Q 42.484375 53.03125 50 45.390625 
Q 57.515625 37.75 57.515625 26.078125 
Q 57.515625 14.3125 49.921875 6.5625 
Q 42.328125 -1.171875 30.8125 -1.171875 
Q 23.6875 -1.171875 17.21875 2.046875 
Q 10.75 5.28125 7.375 11.5 
Q 4 17.71875 4 26.65625 
z
M 18.0625 25.921875 
Q 18.0625 18.21875 21.71875 14.109375 
Q 25.390625 10.015625 30.765625 10.015625 
Q 36.140625 10.015625 39.765625 14.109375 
Q 43.40625 18.21875 43.40625 26.03125 
Q 43.40625 33.640625 39.765625 37.734375 
Q 36.140625 41.84375 30.765625 41.84375 
Q 25.390625 41.84375 21.71875 37.734375 
Q 18.0625 33.640625 18.0625 25.921875 
z
" id="Arial-BoldMT-111"/>
       <path d="M 30.953125 51.859375 
L 30.953125 40.921875 
L 21.578125 40.921875 
L 21.578125 20.015625 
Q 21.578125 13.671875 21.84375 12.625 
Q 22.125 11.578125 23.078125 10.890625 
Q 24.03125 10.203125 25.390625 10.203125 
Q 27.296875 10.203125 30.90625 11.53125 
L 32.078125 0.875 
Q 27.296875 -1.171875 21.234375 -1.171875 
Q 17.53125 -1.171875 14.546875 0.0625 
Q 11.578125 1.3125 10.1875 3.296875 
Q 8.796875 5.28125 8.25 8.640625 
Q 7.8125 11.03125 7.8125 18.3125 
L 7.8125 40.921875 
L 1.515625 40.921875 
L 1.515625 51.859375 
L 7.8125 51.859375 
L 7.8125 62.15625 
L 21.578125 70.171875 
L 21.578125 51.859375 
z
" id="Arial-BoldMT-116"/>
       <path d="M 7.171875 0 
L 7.171875 71.578125 
L 20.90625 71.578125 
L 20.90625 0 
z
" id="Arial-BoldMT-108"/>
       <path d="M 0.6875 51.859375 
L 15.28125 51.859375 
L 27.6875 15.046875 
L 39.796875 51.859375 
L 54 51.859375 
L 35.6875 1.953125 
L 32.421875 -7.078125 
Q 30.609375 -11.625 28.96875 -14.015625 
Q 27.34375 -16.40625 25.21875 -17.890625 
Q 23.09375 -19.390625 19.984375 -20.21875 
Q 16.890625 -21.046875 12.984375 -21.046875 
Q 9.03125 -21.046875 5.21875 -20.21875 
L 4 -9.46875 
Q 7.234375 -10.109375 9.8125 -10.109375 
Q 14.59375 -10.109375 16.890625 -7.296875 
Q 19.1875 -4.5 20.40625 -0.140625 
z
" id="Arial-BoldMT-121"/>
       <path d="M 17.4375 36.03125 
L 4.984375 38.28125 
Q 7.078125 45.796875 12.203125 49.40625 
Q 17.328125 53.03125 27.4375 53.03125 
Q 36.625 53.03125 41.109375 50.859375 
Q 45.609375 48.6875 47.4375 45.34375 
Q 49.265625 42 49.265625 33.0625 
L 49.125 17.046875 
Q 49.125 10.203125 49.78125 6.953125 
Q 50.4375 3.71875 52.25 0 
L 38.671875 0 
Q 38.140625 1.375 37.359375 4.046875 
Q 37.015625 5.28125 36.859375 5.671875 
Q 33.34375 2.25 29.34375 0.53125 
Q 25.34375 -1.171875 20.796875 -1.171875 
Q 12.796875 -1.171875 8.171875 3.171875 
Q 3.5625 7.515625 3.5625 14.15625 
Q 3.5625 18.5625 5.65625 22 
Q 7.765625 25.4375 11.546875 27.265625 
Q 15.328125 29.109375 22.46875 30.46875 
Q 32.078125 32.28125 35.796875 33.84375 
L 35.796875 35.203125 
Q 35.796875 39.15625 33.84375 40.84375 
Q 31.890625 42.53125 26.46875 42.53125 
Q 22.796875 42.53125 20.75 41.09375 
Q 18.703125 39.65625 17.4375 36.03125 
z
M 35.796875 24.90625 
Q 33.15625 24.03125 27.4375 22.796875 
Q 21.734375 21.578125 19.96875 20.40625 
Q 17.28125 18.5 17.28125 15.578125 
Q 17.28125 12.703125 19.421875 10.59375 
Q 21.578125 8.5 24.90625 8.5 
Q 28.609375 8.5 31.984375 10.9375 
Q 34.46875 12.796875 35.25 15.484375 
Q 35.796875 17.234375 35.796875 22.171875 
z
" id="Arial-BoldMT-97"/>
       <path d="M 5.90625 -3.421875 
L 21.578125 -5.328125 
Q 21.96875 -8.0625 23.390625 -9.078125 
Q 25.34375 -10.546875 29.546875 -10.546875 
Q 34.90625 -10.546875 37.59375 -8.9375 
Q 39.40625 -7.859375 40.328125 -5.46875 
Q 40.96875 -3.765625 40.96875 0.828125 
L 40.96875 8.40625 
Q 34.8125 0 25.4375 0 
Q 14.984375 0 8.890625 8.84375 
Q 4.109375 15.828125 4.109375 26.21875 
Q 4.109375 39.265625 10.375 46.140625 
Q 16.65625 53.03125 25.984375 53.03125 
Q 35.59375 53.03125 41.84375 44.578125 
L 41.84375 51.859375 
L 54.6875 51.859375 
L 54.6875 5.328125 
Q 54.6875 -3.859375 53.171875 -8.390625 
Q 51.65625 -12.9375 48.921875 -15.515625 
Q 46.1875 -18.109375 41.625 -19.578125 
Q 37.0625 -21.046875 30.078125 -21.046875 
Q 16.890625 -21.046875 11.375 -16.53125 
Q 5.859375 -12.015625 5.859375 -5.078125 
Q 5.859375 -4.390625 5.90625 -3.421875 
z
M 18.171875 27 
Q 18.171875 18.75 21.359375 14.90625 
Q 24.5625 11.078125 29.25 11.078125 
Q 34.28125 11.078125 37.75 15.015625 
Q 41.21875 18.953125 41.21875 26.65625 
Q 41.21875 34.71875 37.890625 38.625 
Q 34.578125 42.53125 29.5 42.53125 
Q 24.5625 42.53125 21.359375 38.6875 
Q 18.171875 34.859375 18.171875 27 
z
" id="Arial-BoldMT-103"/>
       <path d="M 37.203125 16.5 
L 50.875 14.203125 
Q 48.25 6.6875 42.546875 2.75 
Q 36.859375 -1.171875 28.328125 -1.171875 
Q 14.796875 -1.171875 8.296875 7.671875 
Q 3.171875 14.75 3.171875 25.53125 
Q 3.171875 38.421875 9.90625 45.71875 
Q 16.65625 53.03125 26.953125 53.03125 
Q 38.53125 53.03125 45.21875 45.390625 
Q 51.90625 37.75 51.609375 21.96875 
L 17.234375 21.96875 
Q 17.390625 15.875 20.5625 12.46875 
Q 23.734375 9.078125 28.46875 9.078125 
Q 31.6875 9.078125 33.875 10.828125 
Q 36.078125 12.59375 37.203125 16.5 
z
M 37.984375 30.375 
Q 37.84375 36.328125 34.90625 39.421875 
Q 31.984375 42.53125 27.78125 42.53125 
Q 23.296875 42.53125 20.359375 39.265625 
Q 17.4375 35.984375 17.484375 30.375 
z
" id="Arial-BoldMT-101"/>
       <path d="M 2.34375 14.796875 
L 16.109375 16.890625 
Q 17 12.890625 19.671875 10.8125 
Q 22.359375 8.734375 27.203125 8.734375 
Q 32.515625 8.734375 35.203125 10.6875 
Q 37.015625 12.0625 37.015625 14.359375 
Q 37.015625 15.921875 36.03125 16.9375 
Q 35.015625 17.921875 31.453125 18.75 
Q 14.84375 22.40625 10.40625 25.4375 
Q 4.25 29.640625 4.25 37.109375 
Q 4.25 43.84375 9.5625 48.4375 
Q 14.890625 53.03125 26.078125 53.03125 
Q 36.71875 53.03125 41.890625 49.5625 
Q 47.078125 46.09375 49.03125 39.3125 
L 36.078125 36.921875 
Q 35.25 39.9375 32.921875 41.546875 
Q 30.609375 43.171875 26.3125 43.171875 
Q 20.90625 43.171875 18.5625 41.65625 
Q 17 40.578125 17 38.875 
Q 17 37.40625 18.359375 36.375 
Q 20.21875 35.015625 31.171875 32.515625 
Q 42.140625 30.03125 46.484375 26.421875 
Q 50.78125 22.75 50.78125 16.21875 
Q 50.78125 9.078125 44.828125 3.953125 
Q 38.875 -1.171875 27.203125 -1.171875 
Q 16.609375 -1.171875 10.421875 3.125 
Q 4.25 7.421875 2.34375 14.796875 
z
" id="Arial-BoldMT-115"/>
      </defs>
      <use xlink:href="#Arial-BoldMT-77"/>
      <use x="83.300781" xlink:href="#Arial-BoldMT-111"/>
      <use x="144.384766" xlink:href="#Arial-BoldMT-110"/>
      <use x="205.46875" xlink:href="#Arial-BoldMT-116"/>
      <use x="238.769531" xlink:href="#Arial-BoldMT-104"/>
      <use x="299.853516" xlink:href="#Arial-BoldMT-108"/>
      <use x="327.636719" xlink:href="#Arial-BoldMT-121"/>
      <use x="383.251953" xlink:href="#Arial-BoldMT-67"/>
      <use x="455.46875" xlink:href="#Arial-BoldMT-104"/>
      <use x="516.552734" xlink:href="#Arial-BoldMT-97"/>
      <use x="572.167969" xlink:href="#Arial-BoldMT-114"/>
      <use x="611.083984" xlink:href="#Arial-BoldMT-103"/>
      <use x="672.167969" xlink:href="#Arial-BoldMT-101"/>
      <use x="727.783203" xlink:href="#Arial-BoldMT-115"/>
     </g>
    </g>
   </g>
   <g id="PolyCollection_1">
    <defs>
     <path d="M 192.631593 -68.825455 
L 87.241135 -68.825455 
L 83.630264 -71.820496 
L 81.422435 -74.815537 
L 80.754545 -77.810579 
L 81.631916 -80.80562 
L 83.931315 -83.800661 
L 87.421371 -86.795702 
L 91.795754 -89.790744 
L 96.712588 -92.785785 
L 101.833193 -95.780826 
L 106.854422 -98.775868 
L 111.530976 -101.770909 
L 115.686442 -104.76595 
L 119.213949 -107.760992 
L 122.068767 -110.756033 
L 124.255894 -113.751074 
L 125.815637 -116.746116 
L 126.809726 -119.741157 
L 127.30969 -122.736198 
L 127.388401 -125.73124 
L 127.114904 -128.726281 
L 126.552093 -131.721322 
L 125.756427 -134.716364 
L 124.778811 -137.711405 
L 123.665876 -140.706446 
L 122.46108 -143.701488 
L 121.205375 -146.696529 
L 119.937381 -149.69157 
L 118.69314 -152.686612 
L 117.505609 -155.681653 
L 116.403989 -158.676694 
L 115.412973 -161.671736 
L 114.551941 -164.666777 
L 113.834142 -167.661818 
L 113.265936 -170.65686 
L 112.846183 -173.651901 
L 112.565947 -176.646942 
L 112.408644 -179.641983 
L 112.350753 -182.637025 
L 112.363156 -185.632066 
L 112.413054 -188.627107 
L 112.46636 -191.622149 
L 112.490356 -194.61719 
L 112.456347 -197.612231 
L 112.342018 -200.607273 
L 112.13318 -203.602314 
L 111.824658 -206.597355 
L 111.420189 -209.592397 
L 110.931319 -212.587438 
L 110.375482 -215.582479 
L 109.773576 -218.577521 
L 109.147458 -221.572562 
L 108.517773 -224.567603 
L 107.902432 -227.562645 
L 107.315911 -230.557686 
L 106.769296 -233.552727 
L 106.270861 -236.547769 
L 105.826852 -239.54281 
L 105.442144 -242.537851 
L 105.120579 -245.532893 
L 104.864931 -248.527934 
L 104.67662 -251.522975 
L 104.555415 -254.518017 
L 104.499358 -257.513058 
L 104.505056 -260.508099 
L 104.568343 -263.50314 
L 104.685125 -266.498182 
L 104.852145 -269.493223 
L 105.067396 -272.488264 
L 105.329999 -275.483306 
L 105.639549 -278.478347 
L 105.9951 -281.473388 
L 106.394112 -284.46843 
L 106.831701 -287.463471 
L 107.300496 -290.458512 
L 107.79123 -293.453554 
L 108.294033 -296.448595 
L 108.800207 -299.443636 
L 109.304137 -302.438678 
L 109.804973 -305.433719 
L 110.307719 -308.42876 
L 110.823502 -311.423802 
L 111.36893 -314.418843 
L 111.964584 -317.413884 
L 112.63287 -320.408926 
L 113.395525 -323.403967 
L 114.271137 -326.399008 
L 115.273012 -329.39405 
L 116.407663 -332.389091 
L 117.674037 -335.384132 
L 119.063503 -338.379174 
L 120.560479 -341.374215 
L 122.143516 -344.369256 
L 123.786619 -347.364298 
L 125.460667 -350.359339 
L 127.134819 -353.35438 
L 128.777896 -356.349421 
L 130.359751 -359.344463 
L 131.852653 -362.339504 
L 133.232653 -365.334545 
L 146.640075 -365.334545 
L 146.640075 -365.334545 
L 148.020074 -362.339504 
L 149.512976 -359.344463 
L 151.094831 -356.349421 
L 152.737908 -353.35438 
L 154.412061 -350.359339 
L 156.086108 -347.364298 
L 157.729211 -344.369256 
L 159.312248 -341.374215 
L 160.809225 -338.379174 
L 162.19869 -335.384132 
L 163.465064 -332.389091 
L 164.599715 -329.39405 
L 165.601591 -326.399008 
L 166.477202 -323.403967 
L 167.239857 -320.408926 
L 167.908144 -317.413884 
L 168.503798 -314.418843 
L 169.049225 -311.423802 
L 169.565008 -308.42876 
L 170.067754 -305.433719 
L 170.56859 -302.438678 
L 171.072521 -299.443636 
L 171.578694 -296.448595 
L 172.081497 -293.453554 
L 172.572231 -290.458512 
L 173.041026 -287.463471 
L 173.478616 -284.46843 
L 173.877627 -281.473388 
L 174.233178 -278.478347 
L 174.542728 -275.483306 
L 174.805332 -272.488264 
L 175.020582 -269.493223 
L 175.187602 -266.498182 
L 175.304384 -263.50314 
L 175.367671 -260.508099 
L 175.37337 -257.513058 
L 175.317312 -254.518017 
L 175.196107 -251.522975 
L 175.007796 -248.527934 
L 174.752148 -245.532893 
L 174.430584 -242.537851 
L 174.045875 -239.54281 
L 173.601866 -236.547769 
L 173.103432 -233.552727 
L 172.556816 -230.557686 
L 171.970295 -227.562645 
L 171.354955 -224.567603 
L 170.725269 -221.572562 
L 170.099151 -218.577521 
L 169.497245 -215.582479 
L 168.941408 -212.587438 
L 168.452538 -209.592397 
L 168.048069 -206.597355 
L 167.739547 -203.602314 
L 167.530709 -200.607273 
L 167.416381 -197.612231 
L 167.382372 -194.61719 
L 167.406367 -191.622149 
L 167.459673 -188.627107 
L 167.509571 -185.632066 
L 167.521974 -182.637025 
L 167.464084 -179.641983 
L 167.30678 -176.646942 
L 167.026544 -173.651901 
L 166.606791 -170.65686 
L 166.038585 -167.661818 
L 165.320787 -164.666777 
L 164.459754 -161.671736 
L 163.468738 -158.676694 
L 162.367118 -155.681653 
L 161.179587 -152.686612 
L 159.935346 -149.69157 
L 158.667352 -146.696529 
L 157.411647 -143.701488 
L 156.206851 -140.706446 
L 155.093916 -137.711405 
L 154.116301 -134.716364 
L 153.320634 -131.721322 
L 152.757823 -128.726281 
L 152.484327 -125.73124 
L 152.563037 -122.736198 
L 153.063001 -119.741157 
L 154.05709 -116.746116 
L 155.616834 -113.751074 
L 157.803961 -110.756033 
L 160.658779 -107.760992 
L 164.186285 -104.76595 
L 168.341751 -101.770909 
L 173.018305 -98.775868 
L 178.039534 -95.780826 
L 183.160139 -92.785785 
L 188.076974 -89.790744 
L 192.451357 -86.795702 
L 195.941412 -83.800661 
L 198.240812 -80.80562 
L 199.118182 -77.810579 
L 198.450292 -74.815537 
L 196.242464 -71.820496 
L 192.631593 -68.825455 
z
" id="m88f87fb387" style="stroke:#ffffff;stroke-opacity:0.3;"/>
    </defs>
    <g clip-path="url(#pfcb401af30)">
     <use style="fill:#4c72b0;fill-opacity:0.3;stroke:#ffffff;stroke-opacity:0.3;" x="0" xlink:href="#m88f87fb387" y="432"/>
    </g>
   </g>
   <g id="PolyCollection_2">
    <defs>
     <path d="M 392.82712 -70.595658 
L 360.500153 -70.595658 
L 359.408947 -73.560898 
L 358.69767 -76.526138 
L 358.386438 -79.491378 
L 358.45914 -82.456618 
L 358.867566 -85.421858 
L 359.539725 -88.387098 
L 360.390483 -91.352337 
L 361.332312 -94.317577 
L 362.284256 -97.282817 
L 363.177857 -100.248057 
L 363.959628 -103.213297 
L 364.590463 -106.178537 
L 365.042924 -109.143777 
L 365.297689 -112.109017 
L 365.340378 -115.074257 
L 365.159726 -118.039497 
L 364.747623 -121.004737 
L 364.100975 -123.969977 
L 363.224862 -126.935216 
L 362.13604 -129.900456 
L 360.865697 -132.865696 
L 359.460475 -135.830936 
L 357.9811 -138.796176 
L 356.498558 -141.761416 
L 355.088308 -144.726656 
L 353.823503 -147.691896 
L 352.768413 -150.657136 
L 351.973125 -153.622376 
L 351.470257 -156.587616 
L 351.273853 -159.552856 
L 351.38013 -162.518095 
L 351.76935 -165.483335 
L 352.407998 -168.448575 
L 353.250561 -171.413815 
L 354.240554 -174.379055 
L 355.310862 -177.344295 
L 356.383865 -180.309535 
L 357.372047 -183.274775 
L 358.17986 -186.240015 
L 358.707491 -189.205255 
L 358.856791 -192.170495 
L 358.539199 -195.135735 
L 357.684922 -198.100974 
L 356.252148 -201.066214 
L 354.234759 -204.031454 
L 351.666935 -206.996694 
L 348.623402 -209.961934 
L 345.214701 -212.927174 
L 341.577794 -215.892414 
L 337.863223 -218.857654 
L 334.220769 -221.822894 
L 330.785842 -224.788134 
L 327.668638 -227.753374 
L 324.947456 -230.718614 
L 322.666666 -233.683853 
L 320.838911 -236.649093 
L 319.45045 -239.614333 
L 318.468167 -242.579573 
L 317.846822 -245.544813 
L 317.535395 -248.510053 
L 317.481818 -251.475293 
L 317.635886 -254.440533 
L 317.950515 -257.405773 
L 318.381834 -260.371013 
L 318.888732 -263.336253 
L 319.432505 -266.301493 
L 319.977158 -269.266732 
L 320.49066 -272.231972 
L 320.947166 -275.197212 
L 321.329868 -278.162452 
L 321.633896 -281.127692 
L 321.868541 -284.092932 
L 322.058165 -287.058172 
L 322.241395 -290.023412 
L 322.468543 -292.988652 
L 322.797582 -295.953892 
L 323.289204 -298.919132 
L 324.001665 -301.884372 
L 324.985969 -304.849611 
L 326.28184 -307.814851 
L 327.914693 -310.780091 
L 329.893636 -313.745331 
L 332.210502 -316.710571 
L 334.839848 -319.675811 
L 337.739955 -322.641051 
L 340.854844 -325.606291 
L 344.117322 -328.571531 
L 347.452966 -331.536771 
L 350.7848 -334.502011 
L 354.038252 -337.467251 
L 357.145878 -340.43249 
L 360.051309 -343.39773 
L 362.711995 -346.36297 
L 365.100474 -349.32821 
L 367.204155 -352.29345 
L 369.023818 -355.25869 
L 370.571198 -358.22393 
L 371.866099 -361.18917 
L 372.933458 -364.15441 
L 380.393815 -364.15441 
L 380.393815 -364.15441 
L 381.461174 -361.18917 
L 382.756075 -358.22393 
L 384.303455 -355.25869 
L 386.123118 -352.29345 
L 388.226798 -349.32821 
L 390.615278 -346.36297 
L 393.275964 -343.39773 
L 396.181395 -340.43249 
L 399.28902 -337.467251 
L 402.542473 -334.502011 
L 405.874307 -331.536771 
L 409.209951 -328.571531 
L 412.472428 -325.606291 
L 415.587318 -322.641051 
L 418.487425 -319.675811 
L 421.116771 -316.710571 
L 423.433636 -313.745331 
L 425.41258 -310.780091 
L 427.045432 -307.814851 
L 428.341304 -304.849611 
L 429.325607 -301.884372 
L 430.038068 -298.919132 
L 430.529691 -295.953892 
L 430.858729 -292.988652 
L 431.085878 -290.023412 
L 431.269108 -287.058172 
L 431.458732 -284.092932 
L 431.693376 -281.127692 
L 431.997404 -278.162452 
L 432.380107 -275.197212 
L 432.836613 -272.231972 
L 433.350115 -269.266732 
L 433.894768 -266.301493 
L 434.438541 -263.336253 
L 434.945438 -260.371013 
L 435.376758 -257.405773 
L 435.691387 -254.440533 
L 435.845455 -251.475293 
L 435.791878 -248.510053 
L 435.480451 -245.544813 
L 434.859106 -242.579573 
L 433.876823 -239.614333 
L 432.488361 -236.649093 
L 430.660607 -233.683853 
L 428.379816 -230.718614 
L 425.658634 -227.753374 
L 422.54143 -224.788134 
L 419.106503 -221.822894 
L 415.46405 -218.857654 
L 411.749479 -215.892414 
L 408.112571 -212.927174 
L 404.70387 -209.961934 
L 401.660337 -206.996694 
L 399.092514 -204.031454 
L 397.075125 -201.066214 
L 395.642351 -198.100974 
L 394.788074 -195.135735 
L 394.470482 -192.170495 
L 394.619782 -189.205255 
L 395.147413 -186.240015 
L 395.955226 -183.274775 
L 396.943407 -180.309535 
L 398.016411 -177.344295 
L 399.086719 -174.379055 
L 400.076711 -171.413815 
L 400.919275 -168.448575 
L 401.557923 -165.483335 
L 401.947143 -162.518095 
L 402.053419 -159.552856 
L 401.857016 -156.587616 
L 401.354147 -153.622376 
L 400.558859 -150.657136 
L 399.503769 -147.691896 
L 398.238965 -144.726656 
L 396.828715 -141.761416 
L 395.346173 -138.796176 
L 393.866797 -135.830936 
L 392.461575 -132.865696 
L 391.191233 -129.900456 
L 390.10241 -126.935216 
L 389.226298 -123.969977 
L 388.57965 -121.004737 
L 388.167546 -118.039497 
L 387.986895 -115.074257 
L 388.029583 -112.109017 
L 388.284349 -109.143777 
L 388.73681 -106.178537 
L 389.367644 -103.213297 
L 390.149416 -100.248057 
L 391.043016 -97.282817 
L 391.99496 -94.317577 
L 392.93679 -91.352337 
L 393.787548 -88.387098 
L 394.459707 -85.421858 
L 394.868132 -82.456618 
L 394.940835 -79.491378 
L 394.629602 -76.526138 
L 393.918326 -73.560898 
L 392.82712 -70.595658 
z
" id="md21fc9ffb1" style="stroke:#ffffff;stroke-opacity:0.3;"/>
    </defs>
    <g clip-path="url(#pfcb401af30)">
     <use style="fill:#4c72b0;fill-opacity:0.3;stroke:#ffffff;stroke-opacity:0.3;" x="0" xlink:href="#md21fc9ffb1" y="432"/>
    </g>
   </g>
   <g id="LineCollection_1">
    <path clip-path="url(#pfcb401af30)" d="M 110.345455 236.140585 
L 169.527273 236.140585 
" style="fill:none;stroke:#4c72b0;stroke-width:1.5;"/>
    <path clip-path="url(#pfcb401af30)" d="M 347.072727 197.391054 
L 406.254545 197.391054 
" style="fill:none;stroke:#4c72b0;stroke-width:1.5;"/>
   </g>
   <g id="LineCollection_2">
    <path clip-path="url(#pfcb401af30)" d="M 110.345455 66.665455 
L 169.527273 66.665455 
" style="fill:none;stroke:#4c72b0;stroke-width:1.5;"/>
    <path clip-path="url(#pfcb401af30)" d="M 347.072727 67.84559 
L 406.254545 67.84559 
" style="fill:none;stroke:#4c72b0;stroke-width:1.5;"/>
   </g>
   <g id="LineCollection_3">
    <path clip-path="url(#pfcb401af30)" d="M 110.345455 363.174545 
L 169.527273 363.174545 
" style="fill:none;stroke:#4c72b0;stroke-width:1.5;"/>
    <path clip-path="url(#pfcb401af30)" d="M 347.072727 361.404342 
L 406.254545 361.404342 
" style="fill:none;stroke:#4c72b0;stroke-width:1.5;"/>
   </g>
   <g id="LineCollection_4">
    <path clip-path="url(#pfcb401af30)" d="M 139.936364 363.174545 
L 139.936364 66.665455 
" style="fill:none;stroke:#4c72b0;stroke-width:1.5;"/>
    <path clip-path="url(#pfcb401af30)" d="M 376.663636 361.404342 
L 376.663636 67.84559 
" style="fill:none;stroke:#4c72b0;stroke-width:1.5;"/>
   </g>
   <g id="patch_3">
    <path d="M 63 378 
L 63 51.84 
" style="fill:none;stroke:#ffffff;stroke-linecap:square;stroke-linejoin:miter;stroke-width:1.25;"/>
   </g>
   <g id="patch_4">
    <path d="M 453.6 378 
L 453.6 51.84 
" style="fill:none;stroke:#ffffff;stroke-linecap:square;stroke-linejoin:miter;stroke-width:1.25;"/>
   </g>
   <g id="patch_5">
    <path d="M 63 378 
L 453.6 378 
" style="fill:none;stroke:#ffffff;stroke-linecap:square;stroke-linejoin:miter;stroke-width:1.25;"/>
   </g>
   <g id="patch_6">
    <path d="M 63 51.84 
L 453.6 51.84 
" style="fill:none;stroke:#ffffff;stroke-linecap:square;stroke-linejoin:miter;stroke-width:1.25;"/>
   </g>
   <g id="text_11">
    <!-- Distribution of monthly charges for customers, stratified by churn -->
    <g style="fill:#262626;" transform="translate(70.288125 37.84)scale(0.12 -0.12)">
     <defs>
      <path d="M 7.234375 71.578125 
L 33.640625 71.578125 
Q 42.578125 71.578125 47.265625 70.21875 
Q 53.5625 68.359375 58.046875 63.625 
Q 62.546875 58.890625 64.890625 52.03125 
Q 67.234375 45.171875 67.234375 35.109375 
Q 67.234375 26.265625 65.046875 19.875 
Q 62.359375 12.0625 57.375 7.234375 
Q 53.609375 3.5625 47.21875 1.515625 
Q 42.4375 0 34.421875 0 
L 7.234375 0 
z
M 21.6875 59.46875 
L 21.6875 12.0625 
L 32.46875 12.0625 
Q 38.53125 12.0625 41.21875 12.75 
Q 44.734375 13.625 47.046875 15.71875 
Q 49.359375 17.828125 50.828125 22.625 
Q 52.296875 27.4375 52.296875 35.75 
Q 52.296875 44.046875 50.828125 48.484375 
Q 49.359375 52.9375 46.71875 55.421875 
Q 44.09375 57.90625 40.046875 58.796875 
Q 37.015625 59.46875 28.171875 59.46875 
z
" id="Arial-BoldMT-68"/>
      <path d="M 7.171875 58.890625 
L 7.171875 71.578125 
L 20.90625 71.578125 
L 20.90625 58.890625 
z
M 7.171875 0 
L 7.171875 51.859375 
L 20.90625 51.859375 
L 20.90625 0 
z
" id="Arial-BoldMT-105"/>
      <path d="M 6.59375 0 
L 6.59375 71.578125 
L 20.3125 71.578125 
L 20.3125 45.796875 
Q 26.65625 53.03125 35.359375 53.03125 
Q 44.828125 53.03125 51.03125 46.171875 
Q 57.234375 39.3125 57.234375 26.46875 
Q 57.234375 13.1875 50.90625 6 
Q 44.578125 -1.171875 35.546875 -1.171875 
Q 31.109375 -1.171875 26.78125 1.046875 
Q 22.46875 3.265625 19.34375 7.625 
L 19.34375 0 
z
M 20.21875 27.046875 
Q 20.21875 19 22.75 15.140625 
Q 26.3125 9.671875 32.234375 9.671875 
Q 36.765625 9.671875 39.96875 13.546875 
Q 43.171875 17.4375 43.171875 25.78125 
Q 43.171875 34.671875 39.9375 38.59375 
Q 36.71875 42.53125 31.6875 42.53125 
Q 26.765625 42.53125 23.484375 38.6875 
Q 20.21875 34.859375 20.21875 27.046875 
z
" id="Arial-BoldMT-98"/>
      <path id="Arial-BoldMT-32"/>
      <path d="M 1.171875 51.859375 
L 8.796875 51.859375 
L 8.796875 55.765625 
Q 8.796875 62.3125 10.1875 65.53125 
Q 11.578125 68.75 15.3125 70.765625 
Q 19.046875 72.796875 24.75 72.796875 
Q 30.609375 72.796875 36.234375 71.046875 
L 34.375 61.46875 
Q 31.109375 62.25 28.078125 62.25 
Q 25.09375 62.25 23.796875 60.859375 
Q 22.515625 59.46875 22.515625 55.515625 
L 22.515625 51.859375 
L 32.765625 51.859375 
L 32.765625 41.0625 
L 22.515625 41.0625 
L 22.515625 0 
L 8.796875 0 
L 8.796875 41.0625 
L 1.171875 41.0625 
z
" id="Arial-BoldMT-102"/>
      <path d="M 6.15625 51.859375 
L 18.796875 51.859375 
L 18.796875 44.78125 
Q 25.59375 53.03125 34.96875 53.03125 
Q 39.9375 53.03125 43.59375 50.96875 
Q 47.265625 48.921875 49.609375 44.78125 
Q 53.03125 48.921875 56.984375 50.96875 
Q 60.9375 53.03125 65.4375 53.03125 
Q 71.140625 53.03125 75.09375 50.703125 
Q 79.046875 48.390625 81 43.890625 
Q 82.421875 40.578125 82.421875 33.15625 
L 82.421875 0 
L 68.703125 0 
L 68.703125 29.640625 
Q 68.703125 37.359375 67.28125 39.59375 
Q 65.375 42.53125 61.421875 42.53125 
Q 58.546875 42.53125 56 40.765625 
Q 53.46875 39.015625 52.34375 35.625 
Q 51.21875 32.234375 51.21875 24.90625 
L 51.21875 0 
L 37.5 0 
L 37.5 28.421875 
Q 37.5 35.984375 36.765625 38.171875 
Q 36.03125 40.375 34.484375 41.453125 
Q 32.953125 42.53125 30.328125 42.53125 
Q 27.15625 42.53125 24.609375 40.8125 
Q 22.078125 39.109375 20.96875 35.890625 
Q 19.875 32.671875 19.875 25.203125 
L 19.875 0 
L 6.15625 0 
z
" id="Arial-BoldMT-109"/>
      <path d="M 52.390625 36.53125 
L 38.875 34.078125 
Q 38.1875 38.140625 35.765625 40.1875 
Q 33.34375 42.234375 29.5 42.234375 
Q 24.359375 42.234375 21.3125 38.6875 
Q 18.265625 35.15625 18.265625 26.859375 
Q 18.265625 17.625 21.359375 13.8125 
Q 24.46875 10.015625 29.6875 10.015625 
Q 33.59375 10.015625 36.078125 12.234375 
Q 38.578125 14.453125 39.59375 19.875 
L 53.078125 17.578125 
Q 50.984375 8.296875 45.015625 3.5625 
Q 39.0625 -1.171875 29.046875 -1.171875 
Q 17.671875 -1.171875 10.90625 6 
Q 4.15625 13.1875 4.15625 25.875 
Q 4.15625 38.71875 10.9375 45.875 
Q 17.71875 53.03125 29.296875 53.03125 
Q 38.765625 53.03125 44.359375 48.953125 
Q 49.953125 44.875 52.390625 36.53125 
z
" id="Arial-BoldMT-99"/>
      <path d="M 6.84375 13.71875 
L 20.5625 13.71875 
L 20.5625 3.90625 
Q 20.5625 -2.046875 19.53125 -5.484375 
Q 18.5 -8.9375 15.640625 -11.671875 
Q 12.796875 -14.40625 8.40625 -15.96875 
L 5.71875 -10.296875 
Q 9.859375 -8.9375 11.609375 -6.546875 
Q 13.375 -4.15625 13.484375 0 
L 6.84375 0 
z
" id="Arial-BoldMT-44"/>
      <path d="M 54.734375 0 
L 42 0 
L 42 7.625 
Q 38.8125 3.171875 34.484375 1 
Q 30.171875 -1.171875 25.78125 -1.171875 
Q 16.84375 -1.171875 10.46875 6.03125 
Q 4.109375 13.234375 4.109375 26.125 
Q 4.109375 39.3125 10.296875 46.171875 
Q 16.5 53.03125 25.984375 53.03125 
Q 34.671875 53.03125 41.015625 45.796875 
L 41.015625 71.578125 
L 54.734375 71.578125 
z
M 18.109375 27.046875 
Q 18.109375 18.75 20.40625 15.046875 
Q 23.734375 9.671875 29.6875 9.671875 
Q 34.421875 9.671875 37.734375 13.6875 
Q 41.0625 17.71875 41.0625 25.734375 
Q 41.0625 34.671875 37.84375 38.59375 
Q 34.625 42.53125 29.59375 42.53125 
Q 24.703125 42.53125 21.40625 38.640625 
Q 18.109375 34.765625 18.109375 27.046875 
z
" id="Arial-BoldMT-100"/>
     </defs>
     <use xlink:href="#Arial-BoldMT-68"/>
     <use x="72.216797" xlink:href="#Arial-BoldMT-105"/>
     <use x="100" xlink:href="#Arial-BoldMT-115"/>
     <use x="155.615234" xlink:href="#Arial-BoldMT-116"/>
     <use x="188.916016" xlink:href="#Arial-BoldMT-114"/>
     <use x="227.832031" xlink:href="#Arial-BoldMT-105"/>
     <use x="255.615234" xlink:href="#Arial-BoldMT-98"/>
     <use x="316.699219" xlink:href="#Arial-BoldMT-117"/>
     <use x="377.783203" xlink:href="#Arial-BoldMT-116"/>
     <use x="411.083984" xlink:href="#Arial-BoldMT-105"/>
     <use x="438.867188" xlink:href="#Arial-BoldMT-111"/>
     <use x="499.951172" xlink:href="#Arial-BoldMT-110"/>
     <use x="561.035156" xlink:href="#Arial-BoldMT-32"/>
     <use x="588.818359" xlink:href="#Arial-BoldMT-111"/>
     <use x="649.902344" xlink:href="#Arial-BoldMT-102"/>
     <use x="683.203125" xlink:href="#Arial-BoldMT-32"/>
     <use x="710.986328" xlink:href="#Arial-BoldMT-109"/>
     <use x="799.902344" xlink:href="#Arial-BoldMT-111"/>
     <use x="860.986328" xlink:href="#Arial-BoldMT-110"/>
     <use x="922.070312" xlink:href="#Arial-BoldMT-116"/>
     <use x="955.371094" xlink:href="#Arial-BoldMT-104"/>
     <use x="1016.455078" xlink:href="#Arial-BoldMT-108"/>
     <use x="1044.238281" xlink:href="#Arial-BoldMT-121"/>
     <use x="1099.853516" xlink:href="#Arial-BoldMT-32"/>
     <use x="1127.636719" xlink:href="#Arial-BoldMT-99"/>
     <use x="1183.251953" xlink:href="#Arial-BoldMT-104"/>
     <use x="1244.335938" xlink:href="#Arial-BoldMT-97"/>
     <use x="1299.951172" xlink:href="#Arial-BoldMT-114"/>
     <use x="1338.867188" xlink:href="#Arial-BoldMT-103"/>
     <use x="1399.951172" xlink:href="#Arial-BoldMT-101"/>
     <use x="1455.566406" xlink:href="#Arial-BoldMT-115"/>
     <use x="1511.181641" xlink:href="#Arial-BoldMT-32"/>
     <use x="1538.964844" xlink:href="#Arial-BoldMT-102"/>
     <use x="1572.265625" xlink:href="#Arial-BoldMT-111"/>
     <use x="1633.349609" xlink:href="#Arial-BoldMT-114"/>
     <use x="1672.265625" xlink:href="#Arial-BoldMT-32"/>
     <use x="1700.048828" xlink:href="#Arial-BoldMT-99"/>
     <use x="1755.664062" xlink:href="#Arial-BoldMT-117"/>
     <use x="1816.748047" xlink:href="#Arial-BoldMT-115"/>
     <use x="1872.363281" xlink:href="#Arial-BoldMT-116"/>
     <use x="1905.664062" xlink:href="#Arial-BoldMT-111"/>
     <use x="1966.748047" xlink:href="#Arial-BoldMT-109"/>
     <use x="2055.664062" xlink:href="#Arial-BoldMT-101"/>
     <use x="2111.279297" xlink:href="#Arial-BoldMT-114"/>
     <use x="2150.195312" xlink:href="#Arial-BoldMT-115"/>
     <use x="2205.810547" xlink:href="#Arial-BoldMT-44"/>
     <use x="2233.59375" xlink:href="#Arial-BoldMT-32"/>
     <use x="2261.376953" xlink:href="#Arial-BoldMT-115"/>
     <use x="2316.992188" xlink:href="#Arial-BoldMT-116"/>
     <use x="2350.292969" xlink:href="#Arial-BoldMT-114"/>
     <use x="2389.208984" xlink:href="#Arial-BoldMT-97"/>
     <use x="2444.824219" xlink:href="#Arial-BoldMT-116"/>
     <use x="2478.125" xlink:href="#Arial-BoldMT-105"/>
     <use x="2505.908203" xlink:href="#Arial-BoldMT-102"/>
     <use x="2539.208984" xlink:href="#Arial-BoldMT-105"/>
     <use x="2566.992188" xlink:href="#Arial-BoldMT-101"/>
     <use x="2622.607422" xlink:href="#Arial-BoldMT-100"/>
     <use x="2683.691406" xlink:href="#Arial-BoldMT-32"/>
     <use x="2711.474609" xlink:href="#Arial-BoldMT-98"/>
     <use x="2772.558594" xlink:href="#Arial-BoldMT-121"/>
     <use x="2828.173828" xlink:href="#Arial-BoldMT-32"/>
     <use x="2855.957031" xlink:href="#Arial-BoldMT-99"/>
     <use x="2911.572266" xlink:href="#Arial-BoldMT-104"/>
     <use x="2972.65625" xlink:href="#Arial-BoldMT-117"/>
     <use x="3033.740234" xlink:href="#Arial-BoldMT-114"/>
     <use x="3072.65625" xlink:href="#Arial-BoldMT-110"/>
    </g>
   </g>
  </g>
 </g>
 <defs>
  <clipPath id="pfcb401af30">
   <rect height="326.16" width="390.6" x="63" y="51.84"/>
  </clipPath>
 </defs>
</svg>
