<?xml version="1.0" encoding="utf-8" standalone="no"?>
<!DOCTYPE svg PUBLIC "-//W3C//DTD SVG 1.1//EN"
  "http://www.w3.org/Graphics/SVG/1.1/DTD/svg11.dtd">
<!-- Created with matplotlib (https://matplotlib.org/) -->
<svg height="360pt" version="1.1" viewBox="0 0 504 360" width="504pt" xmlns="http://www.w3.org/2000/svg" xmlns:xlink="http://www.w3.org/1999/xlink">
 <metadata>
  <rdf:RDF xmlns:cc="http://creativecommons.org/ns#" xmlns:dc="http://purl.org/dc/elements/1.1/" xmlns:rdf="http://www.w3.org/1999/02/22-rdf-syntax-ns#">
   <cc:Work>
    <dc:type rdf:resource="http://purl.org/dc/dcmitype/StillImage"/>
    <dc:date>2021-06-10T12:40:28.214446</dc:date>
    <dc:format>image/svg+xml</dc:format>
    <dc:creator>
     <cc:Agent>
      <dc:title>Matplotlib v3.3.3, https://matplotlib.org/</dc:title>
     </cc:Agent>
    </dc:creator>
   </cc:Work>
  </rdf:RDF>
 </metadata>
 <defs>
  <style type="text/css">*{stroke-linecap:butt;stroke-linejoin:round;}</style>
 </defs>
 <g id="figure_1">
  <g id="patch_1">
   <path d="M 0 360 
L 504 360 
L 504 0 
L 0 0 
z
" style="fill:none;"/>
  </g>
  <g id="axes_1">
   <g id="patch_2">
    <path d="M 63 315 
L 453.6 315 
L 453.6 43.2 
L 63 43.2 
z
" style="fill:#eaeaf2;"/>
   </g>
   <g id="matplotlib.axis_1">
    <g id="xtick_1">
     <g id="line2d_1">
      <path clip-path="url(#pd8af73289b)" d="M 80.754545 315 
L 80.754545 43.2 
" style="fill:none;stroke:#ffffff;stroke-linecap:round;"/>
     </g>
     <g id="text_1">
      <!-- 0 -->
      <g style="fill:#262626;" transform="translate(77.69603 332.373594)scale(0.11 -0.11)">
       <defs>
        <path d="M 4.15625 35.296875 
Q 4.15625 48 6.765625 55.734375 
Q 9.375 63.484375 14.515625 67.671875 
Q 19.671875 71.875 27.484375 71.875 
Q 33.25 71.875 37.59375 69.546875 
Q 41.9375 67.234375 44.765625 62.859375 
Q 47.609375 58.5 49.21875 52.21875 
Q 50.828125 45.953125 50.828125 35.296875 
Q 50.828125 22.703125 48.234375 14.96875 
Q 45.65625 7.234375 40.5 3 
Q 35.359375 -1.21875 27.484375 -1.21875 
Q 17.140625 -1.21875 11.234375 6.203125 
Q 4.15625 15.140625 4.15625 35.296875 
z
M 13.1875 35.296875 
Q 13.1875 17.671875 17.3125 11.828125 
Q 21.4375 6 27.484375 6 
Q 33.546875 6 37.671875 11.859375 
Q 41.796875 17.71875 41.796875 35.296875 
Q 41.796875 52.984375 37.671875 58.78125 
Q 33.546875 64.59375 27.390625 64.59375 
Q 21.34375 64.59375 17.71875 59.46875 
Q 13.1875 52.9375 13.1875 35.296875 
z
" id="ArialMT-48"/>
       </defs>
       <use xlink:href="#ArialMT-48"/>
      </g>
     </g>
    </g>
    <g id="xtick_2">
     <g id="line2d_2">
      <path clip-path="url(#pd8af73289b)" d="M 130.072727 315 
L 130.072727 43.2 
" style="fill:none;stroke:#ffffff;stroke-linecap:round;"/>
     </g>
     <g id="text_2">
      <!-- 10 -->
      <g style="fill:#262626;" transform="translate(123.955696 332.373594)scale(0.11 -0.11)">
       <defs>
        <path d="M 37.25 0 
L 28.46875 0 
L 28.46875 56 
Q 25.296875 52.984375 20.140625 49.953125 
Q 14.984375 46.921875 10.890625 45.40625 
L 10.890625 53.90625 
Q 18.265625 57.375 23.78125 62.296875 
Q 29.296875 67.234375 31.59375 71.875 
L 37.25 71.875 
z
" id="ArialMT-49"/>
       </defs>
       <use xlink:href="#ArialMT-49"/>
       <use x="55.615234" xlink:href="#ArialMT-48"/>
      </g>
     </g>
    </g>
    <g id="xtick_3">
     <g id="line2d_3">
      <path clip-path="url(#pd8af73289b)" d="M 179.390909 315 
L 179.390909 43.2 
" style="fill:none;stroke:#ffffff;stroke-linecap:round;"/>
     </g>
     <g id="text_3">
      <!-- 20 -->
      <g style="fill:#262626;" transform="translate(173.273878 332.373594)scale(0.11 -0.11)">
       <defs>
        <path d="M 50.34375 8.453125 
L 50.34375 0 
L 3.03125 0 
Q 2.9375 3.171875 4.046875 6.109375 
Q 5.859375 10.9375 9.828125 15.625 
Q 13.8125 20.3125 21.34375 26.46875 
Q 33.015625 36.03125 37.109375 41.625 
Q 41.21875 47.21875 41.21875 52.203125 
Q 41.21875 57.421875 37.46875 61 
Q 33.734375 64.59375 27.734375 64.59375 
Q 21.390625 64.59375 17.578125 60.78125 
Q 13.765625 56.984375 13.71875 50.25 
L 4.6875 51.171875 
Q 5.609375 61.28125 11.65625 66.578125 
Q 17.71875 71.875 27.9375 71.875 
Q 38.234375 71.875 44.234375 66.15625 
Q 50.25 60.453125 50.25 52 
Q 50.25 47.703125 48.484375 43.546875 
Q 46.734375 39.40625 42.65625 34.8125 
Q 38.578125 30.21875 29.109375 22.21875 
Q 21.1875 15.578125 18.9375 13.203125 
Q 16.703125 10.84375 15.234375 8.453125 
z
" id="ArialMT-50"/>
       </defs>
       <use xlink:href="#ArialMT-50"/>
       <use x="55.615234" xlink:href="#ArialMT-48"/>
      </g>
     </g>
    </g>
    <g id="xtick_4">
     <g id="line2d_4">
      <path clip-path="url(#pd8af73289b)" d="M 228.709091 315 
L 228.709091 43.2 
" style="fill:none;stroke:#ffffff;stroke-linecap:round;"/>
     </g>
     <g id="text_4">
      <!-- 30 -->
      <g style="fill:#262626;" transform="translate(222.59206 332.373594)scale(0.11 -0.11)">
       <defs>
        <path d="M 4.203125 18.890625 
L 12.984375 20.0625 
Q 14.5 12.59375 18.140625 9.296875 
Q 21.78125 6 27 6 
Q 33.203125 6 37.46875 10.296875 
Q 41.75 14.59375 41.75 20.953125 
Q 41.75 27 37.796875 30.921875 
Q 33.84375 34.859375 27.734375 34.859375 
Q 25.25 34.859375 21.53125 33.890625 
L 22.515625 41.609375 
Q 23.390625 41.5 23.921875 41.5 
Q 29.546875 41.5 34.03125 44.421875 
Q 38.53125 47.359375 38.53125 53.46875 
Q 38.53125 58.296875 35.25 61.46875 
Q 31.984375 64.65625 26.8125 64.65625 
Q 21.6875 64.65625 18.265625 61.421875 
Q 14.84375 58.203125 13.875 51.765625 
L 5.078125 53.328125 
Q 6.6875 62.15625 12.390625 67.015625 
Q 18.109375 71.875 26.609375 71.875 
Q 32.46875 71.875 37.390625 69.359375 
Q 42.328125 66.84375 44.9375 62.5 
Q 47.5625 58.15625 47.5625 53.265625 
Q 47.5625 48.640625 45.0625 44.828125 
Q 42.578125 41.015625 37.703125 38.765625 
Q 44.046875 37.3125 47.5625 32.6875 
Q 51.078125 28.078125 51.078125 21.140625 
Q 51.078125 11.765625 44.234375 5.25 
Q 37.40625 -1.265625 26.953125 -1.265625 
Q 17.53125 -1.265625 11.296875 4.34375 
Q 5.078125 9.96875 4.203125 18.890625 
z
" id="ArialMT-51"/>
       </defs>
       <use xlink:href="#ArialMT-51"/>
       <use x="55.615234" xlink:href="#ArialMT-48"/>
      </g>
     </g>
    </g>
    <g id="xtick_5">
     <g id="line2d_5">
      <path clip-path="url(#pd8af73289b)" d="M 278.027273 315 
L 278.027273 43.2 
" style="fill:none;stroke:#ffffff;stroke-linecap:round;"/>
     </g>
     <g id="text_5">
      <!-- 40 -->
      <g style="fill:#262626;" transform="translate(271.910241 332.373594)scale(0.11 -0.11)">
       <defs>
        <path d="M 32.328125 0 
L 32.328125 17.140625 
L 1.265625 17.140625 
L 1.265625 25.203125 
L 33.9375 71.578125 
L 41.109375 71.578125 
L 41.109375 25.203125 
L 50.78125 25.203125 
L 50.78125 17.140625 
L 41.109375 17.140625 
L 41.109375 0 
z
M 32.328125 25.203125 
L 32.328125 57.46875 
L 9.90625 25.203125 
z
" id="ArialMT-52"/>
       </defs>
       <use xlink:href="#ArialMT-52"/>
       <use x="55.615234" xlink:href="#ArialMT-48"/>
      </g>
     </g>
    </g>
    <g id="xtick_6">
     <g id="line2d_6">
      <path clip-path="url(#pd8af73289b)" d="M 327.345455 315 
L 327.345455 43.2 
" style="fill:none;stroke:#ffffff;stroke-linecap:round;"/>
     </g>
     <g id="text_6">
      <!-- 50 -->
      <g style="fill:#262626;" transform="translate(321.228423 332.373594)scale(0.11 -0.11)">
       <defs>
        <path d="M 4.15625 18.75 
L 13.375 19.53125 
Q 14.40625 12.796875 18.140625 9.390625 
Q 21.875 6 27.15625 6 
Q 33.5 6 37.890625 10.78125 
Q 42.28125 15.578125 42.28125 23.484375 
Q 42.28125 31 38.0625 35.34375 
Q 33.84375 39.703125 27 39.703125 
Q 22.75 39.703125 19.328125 37.765625 
Q 15.921875 35.84375 13.96875 32.765625 
L 5.71875 33.84375 
L 12.640625 70.609375 
L 48.25 70.609375 
L 48.25 62.203125 
L 19.671875 62.203125 
L 15.828125 42.96875 
Q 22.265625 47.46875 29.34375 47.46875 
Q 38.71875 47.46875 45.15625 40.96875 
Q 51.609375 34.46875 51.609375 24.265625 
Q 51.609375 14.546875 45.953125 7.46875 
Q 39.0625 -1.21875 27.15625 -1.21875 
Q 17.390625 -1.21875 11.203125 4.25 
Q 5.03125 9.71875 4.15625 18.75 
z
" id="ArialMT-53"/>
       </defs>
       <use xlink:href="#ArialMT-53"/>
       <use x="55.615234" xlink:href="#ArialMT-48"/>
      </g>
     </g>
    </g>
    <g id="xtick_7">
     <g id="line2d_7">
      <path clip-path="url(#pd8af73289b)" d="M 376.663636 315 
L 376.663636 43.2 
" style="fill:none;stroke:#ffffff;stroke-linecap:round;"/>
     </g>
     <g id="text_7">
      <!-- 60 -->
      <g style="fill:#262626;" transform="translate(370.546605 332.373594)scale(0.11 -0.11)">
       <defs>
        <path d="M 49.75 54.046875 
L 41.015625 53.375 
Q 39.84375 58.546875 37.703125 60.890625 
Q 34.125 64.65625 28.90625 64.65625 
Q 24.703125 64.65625 21.53125 62.3125 
Q 17.390625 59.28125 14.984375 53.46875 
Q 12.59375 47.65625 12.5 36.921875 
Q 15.671875 41.75 20.265625 44.09375 
Q 24.859375 46.4375 29.890625 46.4375 
Q 38.671875 46.4375 44.84375 39.96875 
Q 51.03125 33.5 51.03125 23.25 
Q 51.03125 16.5 48.125 10.71875 
Q 45.21875 4.9375 40.140625 1.859375 
Q 35.0625 -1.21875 28.609375 -1.21875 
Q 17.625 -1.21875 10.6875 6.859375 
Q 3.765625 14.9375 3.765625 33.5 
Q 3.765625 54.25 11.421875 63.671875 
Q 18.109375 71.875 29.4375 71.875 
Q 37.890625 71.875 43.28125 67.140625 
Q 48.6875 62.40625 49.75 54.046875 
z
M 13.875 23.1875 
Q 13.875 18.65625 15.796875 14.5 
Q 17.71875 10.359375 21.1875 8.171875 
Q 24.65625 6 28.46875 6 
Q 34.03125 6 38.03125 10.484375 
Q 42.046875 14.984375 42.046875 22.703125 
Q 42.046875 30.125 38.078125 34.390625 
Q 34.125 38.671875 28.125 38.671875 
Q 22.171875 38.671875 18.015625 34.390625 
Q 13.875 30.125 13.875 23.1875 
z
" id="ArialMT-54"/>
       </defs>
       <use xlink:href="#ArialMT-54"/>
       <use x="55.615234" xlink:href="#ArialMT-48"/>
      </g>
     </g>
    </g>
    <g id="xtick_8">
     <g id="line2d_8">
      <path clip-path="url(#pd8af73289b)" d="M 425.981818 315 
L 425.981818 43.2 
" style="fill:none;stroke:#ffffff;stroke-linecap:round;"/>
     </g>
     <g id="text_8">
      <!-- 70 -->
      <g style="fill:#262626;" transform="translate(419.864787 332.373594)scale(0.11 -0.11)">
       <defs>
        <path d="M 4.734375 62.203125 
L 4.734375 70.65625 
L 51.078125 70.65625 
L 51.078125 63.8125 
Q 44.234375 56.546875 37.515625 44.484375 
Q 30.8125 32.421875 27.15625 19.671875 
Q 24.515625 10.6875 23.78125 0 
L 14.75 0 
Q 14.890625 8.453125 18.0625 20.40625 
Q 21.234375 32.375 27.171875 43.484375 
Q 33.109375 54.59375 39.796875 62.203125 
z
" id="ArialMT-55"/>
       </defs>
       <use xlink:href="#ArialMT-55"/>
       <use x="55.615234" xlink:href="#ArialMT-48"/>
      </g>
     </g>
    </g>
    <g id="text_9">
     <!-- Tenure (months) -->
     <g style="fill:#262626;" transform="translate(211.41375 353.295469)scale(0.12 -0.12)">
      <defs>
       <path d="M 23.390625 0 
L 23.390625 59.46875 
L 2.15625 59.46875 
L 2.15625 71.578125 
L 59.03125 71.578125 
L 59.03125 59.46875 
L 37.84375 59.46875 
L 37.84375 0 
z
" id="Arial-BoldMT-84"/>
       <path d="M 37.203125 16.5 
L 50.875 14.203125 
Q 48.25 6.6875 42.546875 2.75 
Q 36.859375 -1.171875 28.328125 -1.171875 
Q 14.796875 -1.171875 8.296875 7.671875 
Q 3.171875 14.75 3.171875 25.53125 
Q 3.171875 38.421875 9.90625 45.71875 
Q 16.65625 53.03125 26.953125 53.03125 
Q 38.53125 53.03125 45.21875 45.390625 
Q 51.90625 37.75 51.609375 21.96875 
L 17.234375 21.96875 
Q 17.390625 15.875 20.5625 12.46875 
Q 23.734375 9.078125 28.46875 9.078125 
Q 31.6875 9.078125 33.875 10.828125 
Q 36.078125 12.59375 37.203125 16.5 
z
M 37.984375 30.375 
Q 37.84375 36.328125 34.90625 39.421875 
Q 31.984375 42.53125 27.78125 42.53125 
Q 23.296875 42.53125 20.359375 39.265625 
Q 17.4375 35.984375 17.484375 30.375 
z
" id="Arial-BoldMT-101"/>
       <path d="M 54.34375 0 
L 40.625 0 
L 40.625 26.46875 
Q 40.625 34.859375 39.75 37.328125 
Q 38.875 39.796875 36.890625 41.15625 
Q 34.90625 42.53125 32.125 42.53125 
Q 28.5625 42.53125 25.734375 40.578125 
Q 22.90625 38.625 21.84375 35.390625 
Q 20.796875 32.171875 20.796875 23.484375 
L 20.796875 0 
L 7.078125 0 
L 7.078125 51.859375 
L 19.828125 51.859375 
L 19.828125 44.234375 
Q 26.609375 53.03125 36.921875 53.03125 
Q 41.453125 53.03125 45.203125 51.390625 
Q 48.96875 49.75 50.890625 47.203125 
Q 52.828125 44.671875 53.578125 41.453125 
Q 54.34375 38.234375 54.34375 32.234375 
z
" id="Arial-BoldMT-110"/>
       <path d="M 41.3125 0 
L 41.3125 7.765625 
Q 38.484375 3.609375 33.859375 1.21875 
Q 29.25 -1.171875 24.125 -1.171875 
Q 18.890625 -1.171875 14.734375 1.125 
Q 10.59375 3.421875 8.734375 7.5625 
Q 6.890625 11.71875 6.890625 19.046875 
L 6.890625 51.859375 
L 20.609375 51.859375 
L 20.609375 28.03125 
Q 20.609375 17.09375 21.359375 14.625 
Q 22.125 12.15625 24.125 10.71875 
Q 26.125 9.28125 29.203125 9.28125 
Q 32.71875 9.28125 35.5 11.203125 
Q 38.28125 13.140625 39.296875 15.984375 
Q 40.328125 18.84375 40.328125 29.984375 
L 40.328125 51.859375 
L 54.046875 51.859375 
L 54.046875 0 
z
" id="Arial-BoldMT-117"/>
       <path d="M 20.3125 0 
L 6.59375 0 
L 6.59375 51.859375 
L 19.34375 51.859375 
L 19.34375 44.484375 
Q 22.609375 49.703125 25.21875 51.359375 
Q 27.828125 53.03125 31.15625 53.03125 
Q 35.84375 53.03125 40.1875 50.4375 
L 35.9375 38.484375 
Q 32.46875 40.71875 29.5 40.71875 
Q 26.609375 40.71875 24.609375 39.125 
Q 22.609375 37.546875 21.453125 33.390625 
Q 20.3125 29.25 20.3125 16.015625 
z
" id="Arial-BoldMT-114"/>
       <path id="Arial-BoldMT-32"/>
       <path d="M 29.9375 -21.046875 
L 20.515625 -21.046875 
Q 13.03125 -9.765625 9.125 2.390625 
Q 5.21875 14.546875 5.21875 25.921875 
Q 5.21875 40.046875 10.0625 52.640625 
Q 14.265625 63.578125 20.703125 72.796875 
L 30.078125 72.796875 
Q 23.390625 58.015625 20.875 47.625 
Q 18.359375 37.25 18.359375 25.640625 
Q 18.359375 17.625 19.84375 9.21875 
Q 21.34375 0.828125 23.921875 -6.734375 
Q 25.640625 -11.71875 29.9375 -21.046875 
z
" id="Arial-BoldMT-40"/>
       <path d="M 6.15625 51.859375 
L 18.796875 51.859375 
L 18.796875 44.78125 
Q 25.59375 53.03125 34.96875 53.03125 
Q 39.9375 53.03125 43.59375 50.96875 
Q 47.265625 48.921875 49.609375 44.78125 
Q 53.03125 48.921875 56.984375 50.96875 
Q 60.9375 53.03125 65.4375 53.03125 
Q 71.140625 53.03125 75.09375 50.703125 
Q 79.046875 48.390625 81 43.890625 
Q 82.421875 40.578125 82.421875 33.15625 
L 82.421875 0 
L 68.703125 0 
L 68.703125 29.640625 
Q 68.703125 37.359375 67.28125 39.59375 
Q 65.375 42.53125 61.421875 42.53125 
Q 58.546875 42.53125 56 40.765625 
Q 53.46875 39.015625 52.34375 35.625 
Q 51.21875 32.234375 51.21875 24.90625 
L 51.21875 0 
L 37.5 0 
L 37.5 28.421875 
Q 37.5 35.984375 36.765625 38.171875 
Q 36.03125 40.375 34.484375 41.453125 
Q 32.953125 42.53125 30.328125 42.53125 
Q 27.15625 42.53125 24.609375 40.8125 
Q 22.078125 39.109375 20.96875 35.890625 
Q 19.875 32.671875 19.875 25.203125 
L 19.875 0 
L 6.15625 0 
z
" id="Arial-BoldMT-109"/>
       <path d="M 4 26.65625 
Q 4 33.5 7.375 39.890625 
Q 10.75 46.296875 16.921875 49.65625 
Q 23.09375 53.03125 30.71875 53.03125 
Q 42.484375 53.03125 50 45.390625 
Q 57.515625 37.75 57.515625 26.078125 
Q 57.515625 14.3125 49.921875 6.5625 
Q 42.328125 -1.171875 30.8125 -1.171875 
Q 23.6875 -1.171875 17.21875 2.046875 
Q 10.75 5.28125 7.375 11.5 
Q 4 17.71875 4 26.65625 
z
M 18.0625 25.921875 
Q 18.0625 18.21875 21.71875 14.109375 
Q 25.390625 10.015625 30.765625 10.015625 
Q 36.140625 10.015625 39.765625 14.109375 
Q 43.40625 18.21875 43.40625 26.03125 
Q 43.40625 33.640625 39.765625 37.734375 
Q 36.140625 41.84375 30.765625 41.84375 
Q 25.390625 41.84375 21.71875 37.734375 
Q 18.0625 33.640625 18.0625 25.921875 
z
" id="Arial-BoldMT-111"/>
       <path d="M 30.953125 51.859375 
L 30.953125 40.921875 
L 21.578125 40.921875 
L 21.578125 20.015625 
Q 21.578125 13.671875 21.84375 12.625 
Q 22.125 11.578125 23.078125 10.890625 
Q 24.03125 10.203125 25.390625 10.203125 
Q 27.296875 10.203125 30.90625 11.53125 
L 32.078125 0.875 
Q 27.296875 -1.171875 21.234375 -1.171875 
Q 17.53125 -1.171875 14.546875 0.0625 
Q 11.578125 1.3125 10.1875 3.296875 
Q 8.796875 5.28125 8.25 8.640625 
Q 7.8125 11.03125 7.8125 18.3125 
L 7.8125 40.921875 
L 1.515625 40.921875 
L 1.515625 51.859375 
L 7.8125 51.859375 
L 7.8125 62.15625 
L 21.578125 70.171875 
L 21.578125 51.859375 
z
" id="Arial-BoldMT-116"/>
       <path d="M 20.84375 71.578125 
L 20.84375 45.265625 
Q 27.484375 53.03125 36.71875 53.03125 
Q 41.453125 53.03125 45.265625 51.265625 
Q 49.078125 49.515625 51 46.78125 
Q 52.9375 44.046875 53.640625 40.71875 
Q 54.34375 37.40625 54.34375 30.421875 
L 54.34375 0 
L 40.625 0 
L 40.625 27.390625 
Q 40.625 35.546875 39.84375 37.734375 
Q 39.0625 39.9375 37.078125 41.234375 
Q 35.109375 42.53125 32.125 42.53125 
Q 28.71875 42.53125 26.03125 40.859375 
Q 23.34375 39.203125 22.09375 35.859375 
Q 20.84375 32.515625 20.84375 25.984375 
L 20.84375 0 
L 7.125 0 
L 7.125 71.578125 
z
" id="Arial-BoldMT-104"/>
       <path d="M 2.34375 14.796875 
L 16.109375 16.890625 
Q 17 12.890625 19.671875 10.8125 
Q 22.359375 8.734375 27.203125 8.734375 
Q 32.515625 8.734375 35.203125 10.6875 
Q 37.015625 12.0625 37.015625 14.359375 
Q 37.015625 15.921875 36.03125 16.9375 
Q 35.015625 17.921875 31.453125 18.75 
Q 14.84375 22.40625 10.40625 25.4375 
Q 4.25 29.640625 4.25 37.109375 
Q 4.25 43.84375 9.5625 48.4375 
Q 14.890625 53.03125 26.078125 53.03125 
Q 36.71875 53.03125 41.890625 49.5625 
Q 47.078125 46.09375 49.03125 39.3125 
L 36.078125 36.921875 
Q 35.25 39.9375 32.921875 41.546875 
Q 30.609375 43.171875 26.3125 43.171875 
Q 20.90625 43.171875 18.5625 41.65625 
Q 17 40.578125 17 38.875 
Q 17 37.40625 18.359375 36.375 
Q 20.21875 35.015625 31.171875 32.515625 
Q 42.140625 30.03125 46.484375 26.421875 
Q 50.78125 22.75 50.78125 16.21875 
Q 50.78125 9.078125 44.828125 3.953125 
Q 38.875 -1.171875 27.203125 -1.171875 
Q 16.609375 -1.171875 10.421875 3.125 
Q 4.25 7.421875 2.34375 14.796875 
z
" id="Arial-BoldMT-115"/>
       <path d="M 3.375 -21.046875 
Q 7.421875 -12.359375 9.078125 -7.71875 
Q 10.75 -3.078125 12.15625 2.96875 
Q 13.578125 9.03125 14.25 14.46875 
Q 14.9375 19.921875 14.9375 25.640625 
Q 14.9375 37.25 12.453125 47.625 
Q 9.96875 58.015625 3.265625 72.796875 
L 12.59375 72.796875 
Q 19.96875 62.3125 24.046875 50.53125 
Q 28.125 38.765625 28.125 26.65625 
Q 28.125 16.453125 24.90625 4.78125 
Q 21.234375 -8.296875 12.84375 -21.046875 
z
" id="Arial-BoldMT-41"/>
      </defs>
      <use xlink:href="#Arial-BoldMT-84"/>
      <use x="53.708984" xlink:href="#Arial-BoldMT-101"/>
      <use x="109.324219" xlink:href="#Arial-BoldMT-110"/>
      <use x="170.408203" xlink:href="#Arial-BoldMT-117"/>
      <use x="231.492188" xlink:href="#Arial-BoldMT-114"/>
      <use x="270.408203" xlink:href="#Arial-BoldMT-101"/>
      <use x="326.023438" xlink:href="#Arial-BoldMT-32"/>
      <use x="353.806641" xlink:href="#Arial-BoldMT-40"/>
      <use x="387.107422" xlink:href="#Arial-BoldMT-109"/>
      <use x="476.023438" xlink:href="#Arial-BoldMT-111"/>
      <use x="537.107422" xlink:href="#Arial-BoldMT-110"/>
      <use x="598.191406" xlink:href="#Arial-BoldMT-116"/>
      <use x="631.492188" xlink:href="#Arial-BoldMT-104"/>
      <use x="692.576172" xlink:href="#Arial-BoldMT-115"/>
      <use x="748.191406" xlink:href="#Arial-BoldMT-41"/>
     </g>
    </g>
   </g>
   <g id="matplotlib.axis_2">
    <g id="ytick_1">
     <g id="line2d_9">
      <path clip-path="url(#pd8af73289b)" d="M 63 281.835251 
L 453.6 281.835251 
" style="fill:none;stroke:#ffffff;stroke-linecap:round;"/>
     </g>
     <g id="text_10">
      <!-- 0.4 -->
      <g style="fill:#262626;" transform="translate(38.21 285.772048)scale(0.11 -0.11)">
       <defs>
        <path d="M 9.078125 0 
L 9.078125 10.015625 
L 19.09375 10.015625 
L 19.09375 0 
z
" id="ArialMT-46"/>
       </defs>
       <use xlink:href="#ArialMT-48"/>
       <use x="55.615234" xlink:href="#ArialMT-46"/>
       <use x="83.398438" xlink:href="#ArialMT-52"/>
      </g>
     </g>
    </g>
    <g id="ytick_2">
     <g id="line2d_10">
      <path clip-path="url(#pd8af73289b)" d="M 63 244.1218 
L 453.6 244.1218 
" style="fill:none;stroke:#ffffff;stroke-linecap:round;"/>
     </g>
     <g id="text_11">
      <!-- 0.5 -->
      <g style="fill:#262626;" transform="translate(38.21 248.058597)scale(0.11 -0.11)">
       <use xlink:href="#ArialMT-48"/>
       <use x="55.615234" xlink:href="#ArialMT-46"/>
       <use x="83.398438" xlink:href="#ArialMT-53"/>
      </g>
     </g>
    </g>
    <g id="ytick_3">
     <g id="line2d_11">
      <path clip-path="url(#pd8af73289b)" d="M 63 206.408349 
L 453.6 206.408349 
" style="fill:none;stroke:#ffffff;stroke-linecap:round;"/>
     </g>
     <g id="text_12">
      <!-- 0.6 -->
      <g style="fill:#262626;" transform="translate(38.21 210.345146)scale(0.11 -0.11)">
       <use xlink:href="#ArialMT-48"/>
       <use x="55.615234" xlink:href="#ArialMT-46"/>
       <use x="83.398438" xlink:href="#ArialMT-54"/>
      </g>
     </g>
    </g>
    <g id="ytick_4">
     <g id="line2d_12">
      <path clip-path="url(#pd8af73289b)" d="M 63 168.694898 
L 453.6 168.694898 
" style="fill:none;stroke:#ffffff;stroke-linecap:round;"/>
     </g>
     <g id="text_13">
      <!-- 0.7 -->
      <g style="fill:#262626;" transform="translate(38.21 172.631695)scale(0.11 -0.11)">
       <use xlink:href="#ArialMT-48"/>
       <use x="55.615234" xlink:href="#ArialMT-46"/>
       <use x="83.398438" xlink:href="#ArialMT-55"/>
      </g>
     </g>
    </g>
    <g id="ytick_5">
     <g id="line2d_13">
      <path clip-path="url(#pd8af73289b)" d="M 63 130.981447 
L 453.6 130.981447 
" style="fill:none;stroke:#ffffff;stroke-linecap:round;"/>
     </g>
     <g id="text_14">
      <!-- 0.8 -->
      <g style="fill:#262626;" transform="translate(38.21 134.918244)scale(0.11 -0.11)">
       <defs>
        <path d="M 17.671875 38.8125 
Q 12.203125 40.828125 9.5625 44.53125 
Q 6.9375 48.25 6.9375 53.421875 
Q 6.9375 61.234375 12.546875 66.546875 
Q 18.171875 71.875 27.484375 71.875 
Q 36.859375 71.875 42.578125 66.421875 
Q 48.296875 60.984375 48.296875 53.171875 
Q 48.296875 48.1875 45.671875 44.5 
Q 43.0625 40.828125 37.75 38.8125 
Q 44.34375 36.671875 47.78125 31.875 
Q 51.21875 27.09375 51.21875 20.453125 
Q 51.21875 11.28125 44.71875 5.03125 
Q 38.234375 -1.21875 27.640625 -1.21875 
Q 17.046875 -1.21875 10.546875 5.046875 
Q 4.046875 11.328125 4.046875 20.703125 
Q 4.046875 27.6875 7.59375 32.390625 
Q 11.140625 37.109375 17.671875 38.8125 
z
M 15.921875 53.71875 
Q 15.921875 48.640625 19.1875 45.40625 
Q 22.46875 42.1875 27.6875 42.1875 
Q 32.765625 42.1875 36.015625 45.375 
Q 39.265625 48.578125 39.265625 53.21875 
Q 39.265625 58.0625 35.90625 61.359375 
Q 32.5625 64.65625 27.59375 64.65625 
Q 22.5625 64.65625 19.234375 61.421875 
Q 15.921875 58.203125 15.921875 53.71875 
z
M 13.09375 20.65625 
Q 13.09375 16.890625 14.875 13.375 
Q 16.65625 9.859375 20.171875 7.921875 
Q 23.6875 6 27.734375 6 
Q 34.03125 6 38.125 10.046875 
Q 42.234375 14.109375 42.234375 20.359375 
Q 42.234375 26.703125 38.015625 30.859375 
Q 33.796875 35.015625 27.4375 35.015625 
Q 21.234375 35.015625 17.15625 30.90625 
Q 13.09375 26.8125 13.09375 20.65625 
z
" id="ArialMT-56"/>
       </defs>
       <use xlink:href="#ArialMT-48"/>
       <use x="55.615234" xlink:href="#ArialMT-46"/>
       <use x="83.398438" xlink:href="#ArialMT-56"/>
      </g>
     </g>
    </g>
    <g id="ytick_6">
     <g id="line2d_14">
      <path clip-path="url(#pd8af73289b)" d="M 63 93.267996 
L 453.6 93.267996 
" style="fill:none;stroke:#ffffff;stroke-linecap:round;"/>
     </g>
     <g id="text_15">
      <!-- 0.9 -->
      <g style="fill:#262626;" transform="translate(38.21 97.204793)scale(0.11 -0.11)">
       <defs>
        <path d="M 5.46875 16.546875 
L 13.921875 17.328125 
Q 14.984375 11.375 18.015625 8.6875 
Q 21.046875 6 25.78125 6 
Q 29.828125 6 32.875 7.859375 
Q 35.9375 9.71875 37.890625 12.8125 
Q 39.84375 15.921875 41.15625 21.1875 
Q 42.484375 26.46875 42.484375 31.9375 
Q 42.484375 32.515625 42.4375 33.6875 
Q 39.796875 29.5 35.234375 26.875 
Q 30.671875 24.265625 25.34375 24.265625 
Q 16.453125 24.265625 10.296875 30.703125 
Q 4.15625 37.15625 4.15625 47.703125 
Q 4.15625 58.59375 10.578125 65.234375 
Q 17 71.875 26.65625 71.875 
Q 33.640625 71.875 39.421875 68.109375 
Q 45.21875 64.359375 48.21875 57.390625 
Q 51.21875 50.4375 51.21875 37.25 
Q 51.21875 23.53125 48.234375 15.40625 
Q 45.265625 7.28125 39.375 3.03125 
Q 33.5 -1.21875 25.59375 -1.21875 
Q 17.1875 -1.21875 11.859375 3.4375 
Q 6.546875 8.109375 5.46875 16.546875 
z
M 41.453125 48.140625 
Q 41.453125 55.71875 37.421875 60.15625 
Q 33.40625 64.59375 27.734375 64.59375 
Q 21.875 64.59375 17.53125 59.8125 
Q 13.1875 55.03125 13.1875 47.40625 
Q 13.1875 40.578125 17.3125 36.296875 
Q 21.4375 32.03125 27.484375 32.03125 
Q 33.59375 32.03125 37.515625 36.296875 
Q 41.453125 40.578125 41.453125 48.140625 
z
" id="ArialMT-57"/>
       </defs>
       <use xlink:href="#ArialMT-48"/>
       <use x="55.615234" xlink:href="#ArialMT-46"/>
       <use x="83.398438" xlink:href="#ArialMT-57"/>
      </g>
     </g>
    </g>
    <g id="ytick_7">
     <g id="line2d_15">
      <path clip-path="url(#pd8af73289b)" d="M 63 55.554545 
L 453.6 55.554545 
" style="fill:none;stroke:#ffffff;stroke-linecap:round;"/>
     </g>
     <g id="text_16">
      <!-- 1.0 -->
      <g style="fill:#262626;" transform="translate(38.21 59.491342)scale(0.11 -0.11)">
       <use xlink:href="#ArialMT-49"/>
       <use x="55.615234" xlink:href="#ArialMT-46"/>
       <use x="83.398438" xlink:href="#ArialMT-48"/>
      </g>
     </g>
    </g>
    <g id="text_17">
     <!-- Survival probability -->
     <g style="fill:#262626;" transform="translate(25.684375 234.778125)rotate(-90)scale(0.12 -0.12)">
      <defs>
       <path d="M 3.609375 23.296875 
L 17.671875 24.65625 
Q 18.953125 17.578125 22.828125 14.25 
Q 26.703125 10.9375 33.296875 10.9375 
Q 40.28125 10.9375 43.8125 13.890625 
Q 47.359375 16.84375 47.359375 20.796875 
Q 47.359375 23.34375 45.875 25.125 
Q 44.390625 26.90625 40.671875 28.21875 
Q 38.140625 29.109375 29.109375 31.34375 
Q 17.484375 34.234375 12.796875 38.421875 
Q 6.203125 44.34375 6.203125 52.828125 
Q 6.203125 58.296875 9.296875 63.0625 
Q 12.40625 67.828125 18.234375 70.3125 
Q 24.078125 72.796875 32.328125 72.796875 
Q 45.796875 72.796875 52.609375 66.890625 
Q 59.421875 60.984375 59.765625 51.125 
L 45.3125 50.484375 
Q 44.390625 56 41.328125 58.421875 
Q 38.28125 60.84375 32.171875 60.84375 
Q 25.875 60.84375 22.3125 58.25 
Q 20.015625 56.59375 20.015625 53.8125 
Q 20.015625 51.265625 22.171875 49.46875 
Q 24.90625 47.171875 35.453125 44.671875 
Q 46 42.1875 51.046875 39.515625 
Q 56.109375 36.859375 58.953125 32.25 
Q 61.8125 27.640625 61.8125 20.84375 
Q 61.8125 14.703125 58.390625 9.328125 
Q 54.984375 3.953125 48.734375 1.34375 
Q 42.484375 -1.265625 33.15625 -1.265625 
Q 19.578125 -1.265625 12.296875 5 
Q 5.03125 11.28125 3.609375 23.296875 
z
" id="Arial-BoldMT-83"/>
       <path d="M 21.4375 0 
L 0.53125 51.859375 
L 14.9375 51.859375 
L 24.703125 25.390625 
L 27.546875 16.546875 
Q 28.65625 19.921875 28.953125 21 
Q 29.640625 23.1875 30.421875 25.390625 
L 40.28125 51.859375 
L 54.390625 51.859375 
L 33.796875 0 
z
" id="Arial-BoldMT-118"/>
       <path d="M 7.171875 58.890625 
L 7.171875 71.578125 
L 20.90625 71.578125 
L 20.90625 58.890625 
z
M 7.171875 0 
L 7.171875 51.859375 
L 20.90625 51.859375 
L 20.90625 0 
z
" id="Arial-BoldMT-105"/>
       <path d="M 17.4375 36.03125 
L 4.984375 38.28125 
Q 7.078125 45.796875 12.203125 49.40625 
Q 17.328125 53.03125 27.4375 53.03125 
Q 36.625 53.03125 41.109375 50.859375 
Q 45.609375 48.6875 47.4375 45.34375 
Q 49.265625 42 49.265625 33.0625 
L 49.125 17.046875 
Q 49.125 10.203125 49.78125 6.953125 
Q 50.4375 3.71875 52.25 0 
L 38.671875 0 
Q 38.140625 1.375 37.359375 4.046875 
Q 37.015625 5.28125 36.859375 5.671875 
Q 33.34375 2.25 29.34375 0.53125 
Q 25.34375 -1.171875 20.796875 -1.171875 
Q 12.796875 -1.171875 8.171875 3.171875 
Q 3.5625 7.515625 3.5625 14.15625 
Q 3.5625 18.5625 5.65625 22 
Q 7.765625 25.4375 11.546875 27.265625 
Q 15.328125 29.109375 22.46875 30.46875 
Q 32.078125 32.28125 35.796875 33.84375 
L 35.796875 35.203125 
Q 35.796875 39.15625 33.84375 40.84375 
Q 31.890625 42.53125 26.46875 42.53125 
Q 22.796875 42.53125 20.75 41.09375 
Q 18.703125 39.65625 17.4375 36.03125 
z
M 35.796875 24.90625 
Q 33.15625 24.03125 27.4375 22.796875 
Q 21.734375 21.578125 19.96875 20.40625 
Q 17.28125 18.5 17.28125 15.578125 
Q 17.28125 12.703125 19.421875 10.59375 
Q 21.578125 8.5 24.90625 8.5 
Q 28.609375 8.5 31.984375 10.9375 
Q 34.46875 12.796875 35.25 15.484375 
Q 35.796875 17.234375 35.796875 22.171875 
z
" id="Arial-BoldMT-97"/>
       <path d="M 7.171875 0 
L 7.171875 71.578125 
L 20.90625 71.578125 
L 20.90625 0 
z
" id="Arial-BoldMT-108"/>
       <path d="M 6.78125 51.859375 
L 19.578125 51.859375 
L 19.578125 44.234375 
Q 22.078125 48.140625 26.3125 50.578125 
Q 30.5625 53.03125 35.75 53.03125 
Q 44.78125 53.03125 51.078125 45.953125 
Q 57.375 38.875 57.375 26.21875 
Q 57.375 13.234375 51.015625 6.03125 
Q 44.671875 -1.171875 35.640625 -1.171875 
Q 31.34375 -1.171875 27.84375 0.53125 
Q 24.359375 2.25 20.515625 6.390625 
L 20.515625 -19.734375 
L 6.78125 -19.734375 
z
M 20.359375 26.8125 
Q 20.359375 18.0625 23.828125 13.890625 
Q 27.296875 9.71875 32.28125 9.71875 
Q 37.0625 9.71875 40.234375 13.546875 
Q 43.40625 17.390625 43.40625 26.125 
Q 43.40625 34.28125 40.125 38.234375 
Q 36.859375 42.1875 32.03125 42.1875 
Q 27 42.1875 23.671875 38.296875 
Q 20.359375 34.421875 20.359375 26.8125 
z
" id="Arial-BoldMT-112"/>
       <path d="M 6.59375 0 
L 6.59375 71.578125 
L 20.3125 71.578125 
L 20.3125 45.796875 
Q 26.65625 53.03125 35.359375 53.03125 
Q 44.828125 53.03125 51.03125 46.171875 
Q 57.234375 39.3125 57.234375 26.46875 
Q 57.234375 13.1875 50.90625 6 
Q 44.578125 -1.171875 35.546875 -1.171875 
Q 31.109375 -1.171875 26.78125 1.046875 
Q 22.46875 3.265625 19.34375 7.625 
L 19.34375 0 
z
M 20.21875 27.046875 
Q 20.21875 19 22.75 15.140625 
Q 26.3125 9.671875 32.234375 9.671875 
Q 36.765625 9.671875 39.96875 13.546875 
Q 43.171875 17.4375 43.171875 25.78125 
Q 43.171875 34.671875 39.9375 38.59375 
Q 36.71875 42.53125 31.6875 42.53125 
Q 26.765625 42.53125 23.484375 38.6875 
Q 20.21875 34.859375 20.21875 27.046875 
z
" id="Arial-BoldMT-98"/>
       <path d="M 0.6875 51.859375 
L 15.28125 51.859375 
L 27.6875 15.046875 
L 39.796875 51.859375 
L 54 51.859375 
L 35.6875 1.953125 
L 32.421875 -7.078125 
Q 30.609375 -11.625 28.96875 -14.015625 
Q 27.34375 -16.40625 25.21875 -17.890625 
Q 23.09375 -19.390625 19.984375 -20.21875 
Q 16.890625 -21.046875 12.984375 -21.046875 
Q 9.03125 -21.046875 5.21875 -20.21875 
L 4 -9.46875 
Q 7.234375 -10.109375 9.8125 -10.109375 
Q 14.59375 -10.109375 16.890625 -7.296875 
Q 19.1875 -4.5 20.40625 -0.140625 
z
" id="Arial-BoldMT-121"/>
      </defs>
      <use xlink:href="#Arial-BoldMT-83"/>
      <use x="66.699219" xlink:href="#Arial-BoldMT-117"/>
      <use x="127.783203" xlink:href="#Arial-BoldMT-114"/>
      <use x="166.699219" xlink:href="#Arial-BoldMT-118"/>
      <use x="222.314453" xlink:href="#Arial-BoldMT-105"/>
      <use x="250.097656" xlink:href="#Arial-BoldMT-118"/>
      <use x="305.712891" xlink:href="#Arial-BoldMT-97"/>
      <use x="361.328125" xlink:href="#Arial-BoldMT-108"/>
      <use x="389.111328" xlink:href="#Arial-BoldMT-32"/>
      <use x="416.894531" xlink:href="#Arial-BoldMT-112"/>
      <use x="477.978516" xlink:href="#Arial-BoldMT-114"/>
      <use x="516.894531" xlink:href="#Arial-BoldMT-111"/>
      <use x="577.978516" xlink:href="#Arial-BoldMT-98"/>
      <use x="639.0625" xlink:href="#Arial-BoldMT-97"/>
      <use x="694.677734" xlink:href="#Arial-BoldMT-98"/>
      <use x="755.761719" xlink:href="#Arial-BoldMT-105"/>
      <use x="783.544922" xlink:href="#Arial-BoldMT-108"/>
      <use x="811.328125" xlink:href="#Arial-BoldMT-105"/>
      <use x="839.111328" xlink:href="#Arial-BoldMT-116"/>
      <use x="872.412109" xlink:href="#Arial-BoldMT-121"/>
     </g>
    </g>
   </g>
   <g id="PolyCollection_1">
    <defs>
     <path d="M 80.754545 -304.445455 
L 80.754545 -304.445455 
L 85.686364 -304.445455 
L 85.686364 -265.144195 
L 90.618182 -265.144195 
L 90.618182 -252.509676 
L 95.55 -252.509676 
L 95.55 -242.879006 
L 100.481818 -242.879006 
L 100.481818 -234.025564 
L 105.413636 -234.025564 
L 105.413636 -228.108444 
L 110.345455 -228.108444 
L 110.345455 -224.101261 
L 115.277273 -224.101261 
L 115.277273 -218.586368 
L 120.209091 -218.586368 
L 120.209091 -214.741839 
L 125.140909 -214.741839 
L 125.140909 -209.755585 
L 130.072727 -209.755585 
L 130.072727 -204.676057 
L 135.004545 -204.676057 
L 135.004545 -201.550415 
L 139.936364 -201.550415 
L 139.936364 -198.050758 
L 144.868182 -198.050758 
L 144.868182 -194.155964 
L 149.8 -194.155964 
L 149.8 -191.007811 
L 154.731818 -191.007811 
L 154.731818 -186.797226 
L 159.663636 -186.797226 
L 159.663636 -183.384856 
L 164.595455 -183.384856 
L 164.595455 -180.9551 
L 169.527273 -180.9551 
L 169.527273 -178.312688 
L 174.459091 -178.312688 
L 174.459091 -176.330732 
L 179.390909 -176.330732 
L 179.390909 -174.128942 
L 184.322727 -174.128942 
L 184.322727 -172.63551 
L 189.254545 -172.63551 
L 189.254545 -168.463366 
L 194.186364 -168.463366 
L 194.186364 -166.911361 
L 199.118182 -166.911361 
L 199.118182 -164.324514 
L 204.05 -164.324514 
L 204.05 -161.673797 
L 208.981818 -161.673797 
L 208.981818 -159.393583 
L 213.913636 -159.393583 
L 213.913636 -157.483623 
L 218.845455 -157.483623 
L 218.845455 -155.745632 
L 223.777273 -155.745632 
L 223.777273 -153.748411 
L 228.709091 -153.748411 
L 228.709091 -151.475868 
L 233.640909 -151.475868 
L 233.640909 -149.616313 
L 238.572727 -149.616313 
L 238.572727 -146.056152 
L 243.504545 -146.056152 
L 243.504545 -144.840529 
L 248.436364 -144.840529 
L 248.436364 -143.103084 
L 253.368182 -143.103084 
L 253.368182 -141.072731 
L 258.3 -141.072731 
L 258.3 -138.982674 
L 263.231818 -138.982674 
L 263.231818 -136.592982 
L 268.163636 -136.592982 
L 268.163636 -134.966592 
L 273.095455 -134.966592 
L 273.095455 -133.861564 
L 278.027273 -133.861564 
L 278.027273 -131.313244 
L 282.959091 -131.313244 
L 282.959091 -130.730528 
L 287.890909 -130.730528 
L 287.890909 -128.641966 
L 292.822727 -128.641966 
L 292.822727 -126.200677 
L 297.754545 -126.200677 
L 297.754545 -124.939019 
L 302.686364 -124.939019 
L 302.686364 -123.979727 
L 307.618182 -123.979727 
L 307.618182 -121.684311 
L 312.55 -121.684311 
L 312.55 -119.992966 
L 317.481818 -119.992966 
L 317.481818 -119.296291 
L 322.413636 -119.296291 
L 322.413636 -115.721535 
L 327.345455 -115.721535 
L 327.345455 -113.106589 
L 332.277273 -113.106589 
L 332.277273 -111.936062 
L 337.209091 -111.936062 
L 337.209091 -110.283459 
L 342.140909 -110.283459 
L 342.140909 -108.149391 
L 347.072727 -108.149391 
L 347.072727 -104.619729 
L 352.004545 -104.619729 
L 352.004545 -102.758289 
L 356.936364 -102.758289 
L 356.936364 -100.78081 
L 361.868182 -100.78081 
L 361.868182 -99.192964 
L 366.8 -99.192964 
L 366.8 -98.074716 
L 371.731818 -98.074716 
L 371.731818 -95.67217 
L 376.663636 -95.67217 
L 376.663636 -94.416389 
L 381.595455 -94.416389 
L 381.595455 -92.378623 
L 386.527273 -92.378623 
L 386.527273 -91.656954 
L 391.459091 -91.656954 
L 391.459091 -90.875399 
L 396.390909 -90.875399 
L 396.390909 -89.197938 
L 401.322727 -89.197938 
L 401.322727 -87.348467 
L 406.254545 -87.348467 
L 406.254545 -84.316677 
L 411.186364 -84.316677 
L 411.186364 -82.054195 
L 416.118182 -82.054195 
L 416.118182 -76.284148 
L 421.05 -76.284148 
L 421.05 -72.804835 
L 425.981818 -72.804835 
L 425.981818 -66.119137 
L 430.913636 -66.119137 
L 430.913636 -57.354545 
L 435.845455 -57.354545 
L 435.845455 -57.354545 
L 435.845455 -86.609204 
L 435.845455 -86.609204 
L 435.845455 -86.609204 
L 430.913636 -86.609204 
L 430.913636 -92.032564 
L 425.981818 -92.032564 
L 425.981818 -96.436889 
L 421.05 -96.436889 
L 421.05 -98.889235 
L 416.118182 -98.889235 
L 416.118182 -103.132351 
L 411.186364 -103.132351 
L 411.186364 -104.899684 
L 406.254545 -104.899684 
L 406.254545 -107.321663 
L 401.322727 -107.321663 
L 401.322727 -108.821723 
L 396.390909 -108.821723 
L 396.390909 -110.209585 
L 391.459091 -110.209585 
L 391.459091 -110.865253 
L 386.527273 -110.865253 
L 386.527273 -111.481179 
L 381.595455 -111.481179 
L 381.595455 -113.238075 
L 376.663636 -113.238075 
L 376.663636 -114.334917 
L 371.731818 -114.334917 
L 371.731818 -116.443612 
L 366.8 -116.443612 
L 366.8 -117.435417 
L 361.868182 -117.435417 
L 361.868182 -118.854776 
L 356.936364 -118.854776 
L 356.936364 -120.638793 
L 352.004545 -120.638793 
L 352.004545 -122.330346 
L 347.072727 -122.330346 
L 347.072727 -125.552391 
L 342.140909 -125.552391 
L 342.140909 -127.501999 
L 337.209091 -127.501999 
L 337.209091 -129.015163 
L 332.277273 -129.015163 
L 332.277273 -130.094387 
L 327.345455 -130.094387 
L 327.345455 -132.514972 
L 322.413636 -132.514972 
L 322.413636 -135.831706 
L 317.481818 -135.831706 
L 317.481818 -136.478678 
L 312.55 -136.478678 
L 312.55 -138.053561 
L 307.618182 -138.053561 
L 307.618182 -140.19494 
L 302.686364 -140.19494 
L 302.686364 -141.091186 
L 297.754545 -141.091186 
L 297.754545 -142.270566 
L 292.822727 -142.270566 
L 292.822727 -144.557896 
L 287.890909 -144.557896 
L 287.890909 -146.515536 
L 282.959091 -146.515536 
L 282.959091 -147.062599 
L 278.027273 -147.062599 
L 278.027273 -149.459761 
L 273.095455 -149.459761 
L 273.095455 -150.500465 
L 268.163636 -150.500465 
L 268.163636 -152.033652 
L 263.231818 -152.033652 
L 263.231818 -154.287577 
L 258.3 -154.287577 
L 258.3 -156.258396 
L 253.368182 -156.258396 
L 253.368182 -158.17572 
L 248.436364 -158.17572 
L 248.436364 -159.817814 
L 243.504545 -159.817814 
L 243.504545 -160.967906 
L 238.572727 -160.967906 
L 238.572727 -164.338194 
L 233.640909 -164.338194 
L 233.640909 -166.098468 
L 228.709091 -166.098468 
L 228.709091 -168.251214 
L 223.777273 -168.251214 
L 223.777273 -170.144634 
L 218.845455 -170.144634 
L 218.845455 -171.793508 
L 213.913636 -171.793508 
L 213.913636 -173.60736 
L 208.981818 -173.60736 
L 208.981818 -175.774558 
L 204.05 -175.774558 
L 204.05 -178.293335 
L 199.118182 -178.293335 
L 199.118182 -180.752583 
L 194.186364 -180.752583 
L 194.186364 -182.229497 
L 189.254545 -182.229497 
L 189.254545 -186.200379 
L 184.322727 -186.200379 
L 184.322727 -187.621007 
L 179.390909 -187.621007 
L 179.390909 -189.716183 
L 174.459091 -189.716183 
L 174.459091 -191.602647 
L 169.527273 -191.602647 
L 169.527273 -194.119063 
L 164.595455 -194.119063 
L 164.595455 -196.432118 
L 159.663636 -196.432118 
L 159.663636 -199.679184 
L 154.731818 -199.679184 
L 154.731818 -203.679923 
L 149.8 -203.679923 
L 149.8 -206.667915 
L 144.868182 -206.667915 
L 144.868182 -210.362422 
L 139.936364 -210.362422 
L 139.936364 -213.679439 
L 135.004545 -213.679439 
L 135.004545 -216.639711 
L 130.072727 -216.639711 
L 130.072727 -221.442765 
L 125.140909 -221.442765 
L 125.140909 -226.147823 
L 120.209091 -226.147823 
L 120.209091 -229.770417 
L 115.277273 -229.770417 
L 115.277273 -234.956643 
L 110.345455 -234.956643 
L 110.345455 -238.715091 
L 105.413636 -238.715091 
L 105.413636 -244.249173 
L 100.481818 -244.249173 
L 100.481818 -252.48646 
L 95.55 -252.48646 
L 95.55 -261.37576 
L 90.618182 -261.37576 
L 90.618182 -272.890551 
L 85.686364 -272.890551 
L 85.686364 -304.445455 
L 80.754545 -304.445455 
z
" id="mcfe31f6116" style="stroke:#4c72b0;stroke-opacity:0.25;"/>
    </defs>
    <g clip-path="url(#pd8af73289b)">
     <use style="fill:#4c72b0;fill-opacity:0.25;stroke:#4c72b0;stroke-opacity:0.25;" x="0" xlink:href="#mcfe31f6116" y="360"/>
    </g>
   </g>
   <g id="PolyCollection_2">
    <defs>
     <path d="M 80.754545 -304.445455 
L 80.754545 -304.445455 
L 85.686364 -304.445455 
L 85.686364 -297.225736 
L 90.618182 -297.225736 
L 90.618182 -293.295838 
L 95.55 -293.295838 
L 95.55 -290.315709 
L 100.481818 -290.315709 
L 100.481818 -287.524661 
L 105.413636 -287.524661 
L 105.413636 -284.400462 
L 110.345455 -284.400462 
L 110.345455 -282.494934 
L 115.277273 -282.494934 
L 115.277273 -280.763172 
L 120.209091 -280.763172 
L 120.209091 -278.502293 
L 125.140909 -278.502293 
L 125.140909 -276.589099 
L 130.072727 -276.589099 
L 130.072727 -274.492273 
L 135.004545 -274.492273 
L 135.004545 -273.264865 
L 139.936364 -273.264865 
L 139.936364 -270.796551 
L 144.868182 -270.796551 
L 144.868182 -268.321132 
L 149.8 -268.321132 
L 149.8 -267.43337 
L 154.731818 -267.43337 
L 154.731818 -266.008182 
L 159.663636 -266.008182 
L 159.663636 -264.931171 
L 164.595455 -264.931171 
L 164.595455 -262.951542 
L 169.527273 -262.951542 
L 169.527273 -261.499603 
L 174.459091 -261.499603 
L 174.459091 -260.033876 
L 179.390909 -260.033876 
L 179.390909 -259.114317 
L 184.322727 -259.114317 
L 184.322727 -257.451939 
L 189.254545 -257.451939 
L 189.254545 -256.522747 
L 194.186364 -256.522747 
L 194.186364 -255.588007 
L 199.118182 -255.588007 
L 199.118182 -253.700447 
L 204.05 -253.700447 
L 204.05 -252.175893 
L 208.981818 -252.175893 
L 208.981818 -251.408053 
L 213.913636 -251.408053 
L 213.913636 -250.629638 
L 218.845455 -250.629638 
L 218.845455 -249.844649 
L 223.777273 -249.844649 
L 223.777273 -248.658032 
L 228.709091 -248.658032 
L 228.709091 -247.659017 
L 233.640909 -247.659017 
L 233.640909 -246.242354 
L 238.572727 -246.242354 
L 238.572727 -245.423181 
L 243.504545 -245.423181 
L 243.504545 -243.770536 
L 248.436364 -243.770536 
L 248.436364 -242.726492 
L 253.368182 -242.726492 
L 253.368182 -241.244731 
L 258.3 -241.244731 
L 258.3 -240.815029 
L 263.231818 -240.815029 
L 263.231818 -239.512542 
L 268.163636 -239.512542 
L 268.163636 -237.974392 
L 273.095455 -237.974392 
L 273.095455 -235.756777 
L 278.027273 -235.756777 
L 278.027273 -234.863736 
L 282.959091 -234.863736 
L 282.959091 -232.152861 
L 287.890909 -232.152861 
L 287.890909 -230.545488 
L 292.822727 -230.545488 
L 292.822727 -228.914102 
L 297.754545 -228.914102 
L 297.754545 -228.441415 
L 302.686364 -228.441415 
L 302.686364 -227.959826 
L 307.618182 -227.959826 
L 307.618182 -226.729058 
L 312.55 -226.729058 
L 312.55 -224.470301 
L 317.481818 -224.470301 
L 317.481818 -222.686128 
L 322.413636 -222.686128 
L 322.413636 -221.386338 
L 327.345455 -221.386338 
L 327.345455 -220.594509 
L 332.277273 -220.594509 
L 332.277273 -219.249292 
L 337.209091 -219.249292 
L 337.209091 -218.156043 
L 342.140909 -218.156043 
L 342.140909 -216.170732 
L 347.072727 -216.170732 
L 347.072727 -214.719096 
L 352.004545 -214.719096 
L 352.004545 -213.234817 
L 356.936364 -213.234817 
L 356.936364 -212.023639 
L 361.868182 -212.023639 
L 361.868182 -210.456607 
L 366.8 -210.456607 
L 366.8 -207.555013 
L 371.731818 -207.555013 
L 371.731818 -206.56795 
L 376.663636 -206.56795 
L 376.663636 -205.208526 
L 381.595455 -205.208526 
L 381.595455 -203.786739 
L 386.527273 -203.786739 
L 386.527273 -202.294355 
L 391.459091 -202.294355 
L 391.459091 -201.129378 
L 396.390909 -201.129378 
L 396.390909 -200.308367 
L 401.322727 -200.308367 
L 401.322727 -197.254198 
L 406.254545 -197.254198 
L 406.254545 -192.621595 
L 411.186364 -192.621595 
L 411.186364 -188.623841 
L 416.118182 -188.623841 
L 416.118182 -185.953689 
L 421.05 -185.953689 
L 421.05 -182.375775 
L 425.981818 -182.375775 
L 425.981818 -177.114783 
L 430.913636 -177.114783 
L 430.913636 -174.719933 
L 435.845455 -174.719933 
L 435.845455 -167.839497 
L 435.845455 -188.940897 
L 435.845455 -188.940897 
L 435.845455 -194.04691 
L 430.913636 -194.04691 
L 430.913636 -195.977874 
L 425.981818 -195.977874 
L 425.981818 -200.369912 
L 421.05 -200.369912 
L 421.05 -203.384865 
L 416.118182 -203.384865 
L 416.118182 -205.668646 
L 411.186364 -205.668646 
L 411.186364 -209.106218 
L 406.254545 -209.106218 
L 406.254545 -213.108603 
L 401.322727 -213.108603 
L 401.322727 -215.754216 
L 396.390909 -215.754216 
L 396.390909 -216.470212 
L 391.459091 -216.470212 
L 391.459091 -217.49391 
L 386.527273 -217.49391 
L 386.527273 -218.810799 
L 381.595455 -218.810799 
L 381.595455 -220.071969 
L 376.663636 -220.071969 
L 376.663636 -221.283463 
L 371.731818 -221.283463 
L 371.731818 -222.16579 
L 366.8 -222.16579 
L 366.8 -224.759431 
L 361.868182 -224.759431 
L 361.868182 -226.161073 
L 356.936364 -226.161073 
L 356.936364 -227.247548 
L 352.004545 -227.247548 
L 352.004545 -228.580081 
L 347.072727 -228.580081 
L 347.072727 -229.884559 
L 342.140909 -229.884559 
L 342.140909 -231.669928 
L 337.209091 -231.669928 
L 337.209091 -232.655918 
L 332.277273 -232.655918 
L 332.277273 -233.869645 
L 327.345455 -233.869645 
L 327.345455 -234.584846 
L 322.413636 -234.584846 
L 322.413636 -235.759525 
L 317.481818 -235.759525 
L 317.481818 -237.372723 
L 312.55 -237.372723 
L 312.55 -239.413389 
L 307.618182 -239.413389 
L 307.618182 -240.525415 
L 302.686364 -240.525415 
L 302.686364 -240.961277 
L 297.754545 -240.961277 
L 297.754545 -241.389841 
L 292.822727 -241.389841 
L 292.822727 -242.869493 
L 287.890909 -242.869493 
L 287.890909 -244.326908 
L 282.959091 -244.326908 
L 282.959091 -246.782671 
L 278.027273 -246.782671 
L 278.027273 -247.590837 
L 273.095455 -247.590837 
L 273.095455 -249.594938 
L 268.163636 -249.594938 
L 268.163636 -250.9828 
L 263.231818 -250.9828 
L 263.231818 -252.157371 
L 258.3 -252.157371 
L 258.3 -252.544884 
L 253.368182 -252.544884 
L 253.368182 -253.881803 
L 248.436364 -253.881803 
L 248.436364 -254.823646 
L 243.504545 -254.823646 
L 243.504545 -256.313499 
L 238.572727 -256.313499 
L 238.572727 -257.05139 
L 233.640909 -257.05139 
L 233.640909 -258.327199 
L 228.709091 -258.327199 
L 228.709091 -259.22665 
L 223.777273 -259.22665 
L 223.777273 -260.294549 
L 218.845455 -260.294549 
L 218.845455 -261.000581 
L 213.913636 -261.000581 
L 213.913636 -261.700567 
L 208.981818 -261.700567 
L 208.981818 -262.391385 
L 204.05 -262.391385 
L 204.05 -263.761707 
L 199.118182 -263.761707 
L 199.118182 -265.455533 
L 194.186364 -265.455533 
L 194.186364 -266.293336 
L 189.254545 -266.293336 
L 189.254545 -267.125442 
L 184.322727 -267.125442 
L 184.322727 -268.611837 
L 179.390909 -268.611837 
L 179.390909 -269.43255 
L 174.459091 -269.43255 
L 174.459091 -270.73839 
L 169.527273 -270.73839 
L 169.527273 -272.029857 
L 164.595455 -272.029857 
L 164.595455 -273.786508 
L 159.663636 -273.786508 
L 159.663636 -274.739422 
L 154.731818 -274.739422 
L 154.731818 -275.998191 
L 149.8 -275.998191 
L 149.8 -276.780563 
L 144.868182 -276.780563 
L 144.868182 -278.954474 
L 139.936364 -278.954474 
L 139.936364 -281.10903 
L 135.004545 -281.10903 
L 135.004545 -282.175665 
L 130.072727 -282.175665 
L 130.072727 -283.989496 
L 125.140909 -283.989496 
L 125.140909 -285.634643 
L 120.209091 -285.634643 
L 120.209091 -287.563817 
L 115.277273 -287.563817 
L 115.277273 -289.030411 
L 110.345455 -289.030411 
L 110.345455 -290.630505 
L 105.413636 -290.630505 
L 105.413636 -293.217371 
L 100.481818 -293.217371 
L 100.481818 -295.480599 
L 95.55 -295.480599 
L 95.55 -297.832962 
L 90.618182 -297.832962 
L 90.618182 -300.779066 
L 85.686364 -300.779066 
L 85.686364 -304.445455 
L 80.754545 -304.445455 
z
" id="md11d2f13d8" style="stroke:#dd8452;stroke-opacity:0.25;"/>
    </defs>
    <g clip-path="url(#pd8af73289b)">
     <use style="fill:#dd8452;fill-opacity:0.25;stroke:#dd8452;stroke-opacity:0.25;" x="0" xlink:href="#md11d2f13d8" y="360"/>
    </g>
   </g>
   <g id="PolyCollection_3">
    <defs>
     <path d="M 80.754545 -304.445455 
L 80.754545 -304.445455 
L 85.686364 -304.445455 
L 85.686364 -285.935956 
L 90.618182 -285.935956 
L 90.618182 -284.125217 
L 95.55 -284.125217 
L 95.55 -282.262675 
L 100.481818 -282.262675 
L 100.481818 -281.308606 
L 105.413636 -281.308606 
L 105.413636 -280.000337 
L 110.345455 -280.000337 
L 110.345455 -279.667709 
L 115.277273 -279.667709 
L 115.277273 -278.644038 
L 120.209091 -278.644038 
L 120.209091 -277.601698 
L 125.140909 -277.601698 
L 125.140909 -276.889023 
L 130.072727 -276.889023 
L 130.072727 -276.889023 
L 135.004545 -276.889023 
L 135.004545 -275.395873 
L 139.936364 -275.395873 
L 139.936364 -274.636686 
L 144.868182 -274.636686 
L 144.868182 -274.636686 
L 149.8 -274.636686 
L 149.8 -274.636686 
L 154.731818 -274.636686 
L 154.731818 -273.001289 
L 159.663636 -273.001289 
L 159.663636 -272.164405 
L 164.595455 -272.164405 
L 164.595455 -271.738087 
L 169.527273 -271.738087 
L 169.527273 -271.30216 
L 174.459091 -271.30216 
L 174.459091 -271.30216 
L 179.390909 -271.30216 
L 179.390909 -270.844346 
L 184.322727 -270.844346 
L 184.322727 -270.844346 
L 189.254545 -270.844346 
L 189.254545 -270.844346 
L 194.186364 -270.844346 
L 194.186364 -270.844346 
L 199.118182 -270.844346 
L 199.118182 -270.844346 
L 204.05 -270.844346 
L 204.05 -269.801591 
L 208.981818 -269.801591 
L 208.981818 -269.801591 
L 213.913636 -269.801591 
L 213.913636 -269.801591 
L 218.845455 -269.801591 
L 218.845455 -269.801591 
L 223.777273 -269.801591 
L 223.777273 -269.801591 
L 228.709091 -269.801591 
L 228.709091 -269.215973 
L 233.640909 -269.215973 
L 233.640909 -268.620977 
L 238.572727 -268.620977 
L 238.572727 -268.620977 
L 243.504545 -268.620977 
L 243.504545 -268.006593 
L 248.436364 -268.006593 
L 248.436364 -268.006593 
L 253.368182 -268.006593 
L 253.368182 -268.006593 
L 258.3 -268.006593 
L 258.3 -268.006593 
L 263.231818 -268.006593 
L 263.231818 -268.006593 
L 268.163636 -268.006593 
L 268.163636 -268.006593 
L 273.095455 -268.006593 
L 273.095455 -268.006593 
L 278.027273 -268.006593 
L 278.027273 -268.006593 
L 282.959091 -268.006593 
L 282.959091 -268.006593 
L 287.890909 -268.006593 
L 287.890909 -268.006593 
L 292.822727 -268.006593 
L 292.822727 -268.006593 
L 297.754545 -268.006593 
L 297.754545 -268.006593 
L 302.686364 -268.006593 
L 302.686364 -267.148004 
L 307.618182 -267.148004 
L 307.618182 -267.148004 
L 312.55 -267.148004 
L 312.55 -267.148004 
L 317.481818 -267.148004 
L 317.481818 -267.148004 
L 322.413636 -267.148004 
L 322.413636 -267.148004 
L 327.345455 -267.148004 
L 327.345455 -267.148004 
L 332.277273 -267.148004 
L 332.277273 -267.148004 
L 337.209091 -267.148004 
L 337.209091 -267.148004 
L 342.140909 -267.148004 
L 342.140909 -264.787661 
L 347.072727 -264.787661 
L 347.072727 -264.787661 
L 352.004545 -264.787661 
L 352.004545 -264.787661 
L 356.936364 -264.787661 
L 356.936364 -262.152684 
L 361.868182 -262.152684 
L 361.868182 -262.152684 
L 366.8 -262.152684 
L 366.8 -262.152684 
L 371.731818 -262.152684 
L 371.731818 -260.636325 
L 376.663636 -260.636325 
L 376.663636 -260.636325 
L 381.595455 -260.636325 
L 381.595455 -258.980396 
L 386.527273 -258.980396 
L 386.527273 -258.980396 
L 391.459091 -258.980396 
L 391.459091 -258.980396 
L 396.390909 -258.980396 
L 396.390909 -258.980396 
L 401.322727 -258.980396 
L 401.322727 -258.980396 
L 406.254545 -258.980396 
L 406.254545 -258.980396 
L 411.186364 -258.980396 
L 411.186364 -258.980396 
L 416.118182 -258.980396 
L 416.118182 -258.980396 
L 421.05 -258.980396 
L 421.05 -258.980396 
L 425.981818 -258.980396 
L 425.981818 -258.980396 
L 430.913636 -258.980396 
L 430.913636 -258.980396 
L 435.845455 -258.980396 
L 435.845455 -258.980396 
L 435.845455 -274.187406 
L 435.845455 -274.187406 
L 435.845455 -274.187406 
L 430.913636 -274.187406 
L 430.913636 -274.187406 
L 425.981818 -274.187406 
L 425.981818 -274.187406 
L 421.05 -274.187406 
L 421.05 -274.187406 
L 416.118182 -274.187406 
L 416.118182 -274.187406 
L 411.186364 -274.187406 
L 411.186364 -274.187406 
L 406.254545 -274.187406 
L 406.254545 -274.187406 
L 401.322727 -274.187406 
L 401.322727 -274.187406 
L 396.390909 -274.187406 
L 396.390909 -274.187406 
L 391.459091 -274.187406 
L 391.459091 -274.187406 
L 386.527273 -274.187406 
L 386.527273 -274.187406 
L 381.595455 -274.187406 
L 381.595455 -275.0953 
L 376.663636 -275.0953 
L 376.663636 -275.0953 
L 371.731818 -275.0953 
L 371.731818 -275.94148 
L 366.8 -275.94148 
L 366.8 -275.94148 
L 361.868182 -275.94148 
L 361.868182 -275.94148 
L 356.936364 -275.94148 
L 356.936364 -277.462555 
L 352.004545 -277.462555 
L 352.004545 -277.462555 
L 347.072727 -277.462555 
L 347.072727 -277.462555 
L 342.140909 -277.462555 
L 342.140909 -278.838873 
L 337.209091 -278.838873 
L 337.209091 -278.838873 
L 332.277273 -278.838873 
L 332.277273 -278.838873 
L 327.345455 -278.838873 
L 327.345455 -278.838873 
L 322.413636 -278.838873 
L 322.413636 -278.838873 
L 317.481818 -278.838873 
L 317.481818 -278.838873 
L 312.55 -278.838873 
L 312.55 -278.838873 
L 307.618182 -278.838873 
L 307.618182 -278.838873 
L 302.686364 -278.838873 
L 302.686364 -279.396958 
L 297.754545 -279.396958 
L 297.754545 -279.396958 
L 292.822727 -279.396958 
L 292.822727 -279.396958 
L 287.890909 -279.396958 
L 287.890909 -279.396958 
L 282.959091 -279.396958 
L 282.959091 -279.396958 
L 278.027273 -279.396958 
L 278.027273 -279.396958 
L 273.095455 -279.396958 
L 273.095455 -279.396958 
L 268.163636 -279.396958 
L 268.163636 -279.396958 
L 263.231818 -279.396958 
L 263.231818 -279.396958 
L 258.3 -279.396958 
L 258.3 -279.396958 
L 253.368182 -279.396958 
L 253.368182 -279.396958 
L 248.436364 -279.396958 
L 248.436364 -279.396958 
L 243.504545 -279.396958 
L 243.504545 -279.841009 
L 238.572727 -279.841009 
L 238.572727 -279.841009 
L 233.640909 -279.841009 
L 233.640909 -280.27308 
L 228.709091 -280.27308 
L 228.709091 -280.698313 
L 223.777273 -280.698313 
L 223.777273 -280.698313 
L 218.845455 -280.698313 
L 218.845455 -280.698313 
L 213.913636 -280.698313 
L 213.913636 -280.698313 
L 208.981818 -280.698313 
L 208.981818 -280.698313 
L 204.05 -280.698313 
L 204.05 -281.476379 
L 199.118182 -281.476379 
L 199.118182 -281.476379 
L 194.186364 -281.476379 
L 194.186364 -281.476379 
L 189.254545 -281.476379 
L 189.254545 -281.476379 
L 184.322727 -281.476379 
L 184.322727 -281.476379 
L 179.390909 -281.476379 
L 179.390909 -281.82819 
L 174.459091 -281.82819 
L 174.459091 -281.82819 
L 169.527273 -281.82819 
L 169.527273 -282.166405 
L 164.595455 -282.166405 
L 164.595455 -282.498135 
L 159.663636 -282.498135 
L 159.663636 -283.149872 
L 154.731818 -283.149872 
L 154.731818 -284.421172 
L 149.8 -284.421172 
L 149.8 -284.421172 
L 144.868182 -284.421172 
L 144.868182 -284.421172 
L 139.936364 -284.421172 
L 139.936364 -285.017626 
L 135.004545 -285.017626 
L 135.004545 -286.187451 
L 130.072727 -286.187451 
L 130.072727 -286.187451 
L 125.140909 -286.187451 
L 125.140909 -286.748163 
L 120.209091 -286.748163 
L 120.209091 -287.568682 
L 115.277273 -287.568682 
L 115.277273 -288.37269 
L 110.345455 -288.37269 
L 110.345455 -288.634363 
L 105.413636 -288.634363 
L 105.413636 -289.662114 
L 100.481818 -289.662114 
L 100.481818 -290.410851 
L 95.55 -290.410851 
L 95.55 -291.866414 
L 90.618182 -291.866414 
L 90.618182 -293.271384 
L 85.686364 -293.271384 
L 85.686364 -304.445455 
L 80.754545 -304.445455 
z
" id="ma8661ce220" style="stroke:#55a868;stroke-opacity:0.25;"/>
    </defs>
    <g clip-path="url(#pd8af73289b)">
     <use style="fill:#55a868;fill-opacity:0.25;stroke:#55a868;stroke-opacity:0.25;" x="0" xlink:href="#ma8661ce220" y="360"/>
    </g>
   </g>
   <g id="line2d_16">
    <path clip-path="url(#pd8af73289b)" d="M 80.754545 55.554545 
L 85.686364 55.554545 
L 85.686364 90.781395 
L 90.618182 90.781395 
L 90.618182 102.865185 
L 95.55 102.865185 
L 95.55 112.1321 
L 100.481818 112.1321 
L 100.481818 120.683849 
L 105.413636 120.683849 
L 105.413636 126.413722 
L 110.345455 126.413722 
L 110.345455 130.299408 
L 115.277273 130.299408 
L 115.277273 135.653931 
L 120.209091 135.653931 
L 120.209091 139.390222 
L 125.140909 139.390222 
L 125.140909 144.239351 
L 130.072727 144.239351 
L 130.072727 149.184203 
L 135.004545 149.184203 
L 135.004545 152.229368 
L 139.936364 152.229368 
L 139.936364 155.640154 
L 144.868182 155.640154 
L 144.868182 159.437512 
L 149.8 159.437512 
L 149.8 162.507754 
L 154.731818 162.507754 
L 154.731818 166.616351 
L 159.663636 166.616351 
L 159.663636 169.948507 
L 164.595455 169.948507 
L 164.595455 172.321648 
L 169.527273 172.321648 
L 169.527273 174.90295 
L 174.459091 174.90295 
L 174.459091 176.838546 
L 179.390909 176.838546 
L 179.390909 178.98855 
L 184.322727 178.98855 
L 184.322727 180.446599 
L 189.254545 180.446599 
L 189.254545 184.521 
L 194.186364 184.521 
L 194.186364 186.03653 
L 199.118182 186.03653 
L 199.118182 188.56132 
L 204.05 188.56132 
L 204.05 191.14784 
L 208.981818 191.14784 
L 208.981818 193.373094 
L 213.913636 193.373094 
L 213.913636 195.236281 
L 218.845455 195.236281 
L 218.845455 196.930859 
L 223.777273 196.930859 
L 223.777273 198.877486 
L 228.709091 198.877486 
L 228.709091 201.091611 
L 233.640909 201.091611 
L 233.640909 202.902735 
L 238.572727 202.902735 
L 238.572727 206.370335 
L 243.504545 206.370335 
L 243.504545 207.55401 
L 248.436364 207.55401 
L 248.436364 209.244939 
L 253.368182 209.244939 
L 253.368182 211.220135 
L 258.3 211.220135 
L 258.3 213.25196 
L 263.231818 213.25196 
L 263.231818 215.575412 
L 268.163636 215.575412 
L 268.163636 217.156336 
L 273.095455 217.156336 
L 273.095455 218.229974 
L 278.027273 218.229974 
L 278.027273 220.704502 
L 282.959091 220.704502 
L 282.959091 221.269794 
L 287.890909 221.269794 
L 287.890909 223.294328 
L 292.822727 223.294328 
L 292.822727 225.660371 
L 297.754545 225.660371 
L 297.754545 226.881779 
L 302.686364 226.881779 
L 302.686364 227.810233 
L 307.618182 227.810233 
L 307.618182 230.030282 
L 312.55 230.030282 
L 312.55 231.664627 
L 317.481818 231.664627 
L 317.481818 232.336949 
L 322.413636 232.336949 
L 322.413636 235.78535 
L 327.345455 235.78535 
L 327.345455 238.305142 
L 332.277273 238.305142 
L 332.277273 239.430917 
L 337.209091 239.430917 
L 337.209091 241.015 
L 342.140909 241.015 
L 342.140909 243.058434 
L 347.072727 243.058434 
L 347.072727 246.437153 
L 352.004545 246.437153 
L 352.004545 248.215214 
L 356.936364 248.215214 
L 356.936364 250.0976 
L 361.868182 250.0976 
L 361.868182 251.602475 
L 366.8 251.602475 
L 366.8 252.658373 
L 371.731818 252.658373 
L 371.731818 254.915811 
L 376.663636 254.915811 
L 376.663636 256.093118 
L 381.595455 256.093118 
L 381.595455 257.991999 
L 386.527273 257.991999 
L 386.527273 258.661336 
L 391.459091 258.661336 
L 391.459091 259.380459 
L 396.390909 259.380459 
L 396.390909 260.914163 
L 401.322727 260.914163 
L 401.322727 262.590016 
L 406.254545 262.590016 
L 406.254545 265.318877 
L 411.186364 265.318877 
L 411.186364 267.335386 
L 416.118182 267.335386 
L 416.118182 272.346103 
L 421.05 272.346103 
L 421.05 275.315417 
L 425.981818 275.315417 
L 425.981818 280.86978 
L 430.913636 280.86978 
L 430.913636 287.986309 
L 435.845455 287.986309 
L 435.845455 287.986309 
" style="fill:none;stroke:#4c72b0;stroke-linecap:round;stroke-width:1.5;"/>
   </g>
   <g id="line2d_17">
    <path clip-path="url(#pd8af73289b)" d="M 80.754545 55.554545 
L 85.686364 55.554545 
L 85.686364 60.701542 
L 90.618182 60.701542 
L 90.618182 64.144422 
L 95.55 64.144422 
L 95.55 66.813898 
L 100.481818 66.813898 
L 100.481818 69.343717 
L 105.413636 69.343717 
L 105.413636 72.202203 
L 110.345455 72.202203 
L 110.345455 73.956785 
L 115.277273 73.956785 
L 115.277273 75.557554 
L 120.209091 75.557554 
L 120.209091 77.654532 
L 125.140909 77.654532 
L 125.140909 79.435371 
L 130.072727 79.435371 
L 130.072727 81.392455 
L 135.004545 81.392455 
L 135.004545 82.540483 
L 139.936364 82.540483 
L 139.936364 84.853876 
L 144.868182 84.853876 
L 144.868182 87.180533 
L 149.8 87.180533 
L 149.8 88.016306 
L 154.731818 88.016306 
L 154.731818 89.359405 
L 159.663636 89.359405 
L 159.663636 90.375173 
L 164.595455 90.375173 
L 164.595455 92.244812 
L 169.527273 92.244812 
L 169.527273 93.617571 
L 174.459091 93.617571 
L 174.459091 95.004366 
L 179.390909 95.004366 
L 179.390909 95.875137 
L 184.322727 95.875137 
L 184.322727 97.450669 
L 189.254545 97.450669 
L 189.254545 98.331948 
L 194.186364 98.331948 
L 194.186364 99.218837 
L 199.118182 99.218837 
L 199.118182 101.010724 
L 204.05 101.010724 
L 204.05 102.459101 
L 208.981818 102.459101 
L 208.981818 103.188891 
L 213.913636 103.188891 
L 213.913636 103.92851 
L 218.845455 103.92851 
L 218.845455 104.674422 
L 223.777273 104.674422 
L 223.777273 105.802266 
L 228.709091 105.802266 
L 228.709091 106.751966 
L 233.640909 106.751966 
L 233.640909 108.098813 
L 238.572727 108.098813 
L 238.572727 108.877674 
L 243.504545 108.877674 
L 243.504545 110.449574 
L 248.436364 110.449574 
L 248.436364 111.442914 
L 253.368182 111.442914 
L 253.368182 112.852771 
L 258.3 112.852771 
L 258.3 113.261508 
L 263.231818 113.261508 
L 263.231818 114.5004 
L 268.163636 114.5004 
L 268.163636 115.963816 
L 273.095455 115.963816 
L 273.095455 118.075318 
L 278.027273 118.075318 
L 278.027273 118.9262 
L 282.959091 118.9262 
L 282.959091 121.510383 
L 287.890909 121.510383 
L 287.890909 123.043283 
L 292.822727 123.043283 
L 292.822727 124.599292 
L 297.754545 124.599292 
L 297.754545 125.050045 
L 302.686364 125.050045 
L 302.686364 125.508865 
L 307.618182 125.508865 
L 307.618182 126.680414 
L 312.55 126.680414 
L 312.55 128.830358 
L 317.481818 128.830358 
L 317.481818 130.529249 
L 322.413636 130.529249 
L 322.413636 131.766594 
L 327.345455 131.766594 
L 327.345455 132.520156 
L 332.277273 132.520156 
L 332.277273 133.799649 
L 337.209091 133.799649 
L 337.209091 134.839264 
L 342.140909 134.839264 
L 342.140909 136.724389 
L 347.072727 136.724389 
L 347.072727 138.102251 
L 352.004545 138.102251 
L 352.004545 139.510409 
L 356.936364 139.510409 
L 356.936364 140.659004 
L 361.868182 140.659004 
L 361.868182 142.142896 
L 366.8 142.142896 
L 366.8 144.889656 
L 371.731818 144.889656 
L 371.731818 145.82407 
L 376.663636 145.82407 
L 376.663636 147.109019 
L 381.595455 147.109019 
L 381.595455 148.44977 
L 386.527273 148.44977 
L 386.527273 149.853421 
L 391.459091 149.853421 
L 391.459091 150.946858 
L 396.390909 150.946858 
L 396.390909 151.714548 
L 401.322727 151.714548 
L 401.322727 154.560889 
L 406.254545 154.560889 
L 406.254545 158.872953 
L 411.186364 158.872953 
L 411.186364 162.585714 
L 416.118182 162.585714 
L 416.118182 165.059188 
L 421.05 165.059188 
L 421.05 168.349719 
L 425.981818 168.349719 
L 425.981818 173.166837 
L 430.913636 173.166837 
L 430.913636 175.323531 
L 435.845455 175.323531 
L 435.845455 181.285667 
L 435.845455 181.285667 
" style="fill:none;stroke:#dd8452;stroke-linecap:round;stroke-width:1.5;"/>
   </g>
   <g id="line2d_18">
    <path clip-path="url(#pd8af73289b)" d="M 80.754545 55.554545 
L 85.686364 55.554545 
L 85.686364 69.945204 
L 90.618182 69.945204 
L 90.618182 71.552636 
L 95.55 71.552636 
L 95.55 73.210493 
L 100.481818 73.210493 
L 100.481818 74.060994 
L 105.413636 74.060994 
L 105.413636 75.227264 
L 110.345455 75.227264 
L 110.345455 75.523913 
L 115.277273 75.523913 
L 115.277273 76.435824 
L 120.209091 76.435824 
L 120.209091 77.36518 
L 125.140909 77.36518 
L 125.140909 78.000254 
L 135.004545 78.000254 
L 135.004545 79.327434 
L 139.936364 79.327434 
L 139.936364 80.003078 
L 154.731818 80.003078 
L 154.731818 81.449995 
L 159.663636 81.449995 
L 159.663636 82.191005 
L 164.595455 82.191005 
L 164.595455 82.568291 
L 169.527273 82.568291 
L 169.527273 82.953462 
L 179.390909 82.953462 
L 179.390909 83.35592 
L 204.05 83.35592 
L 204.05 84.258589 
L 228.709091 84.258589 
L 228.709091 84.758489 
L 233.640909 84.758489 
L 233.640909 85.266417 
L 243.504545 85.266417 
L 243.504545 85.789644 
L 302.686364 85.789644 
L 302.686364 86.483443 
L 342.140909 86.483443 
L 342.140909 88.296038 
L 356.936364 88.296038 
L 356.936364 90.310032 
L 371.731818 90.310032 
L 371.731818 91.451295 
L 381.595455 91.451295 
L 381.595455 92.687664 
L 435.845455 92.687664 
L 435.845455 92.687664 
" style="fill:none;stroke:#55a868;stroke-linecap:round;stroke-width:1.5;"/>
   </g>
   <g id="patch_3">
    <path d="M 63 315 
L 63 43.2 
" style="fill:none;stroke:#ffffff;stroke-linecap:square;stroke-linejoin:miter;stroke-width:1.25;"/>
   </g>
   <g id="patch_4">
    <path d="M 453.6 315 
L 453.6 43.2 
" style="fill:none;stroke:#ffffff;stroke-linecap:square;stroke-linejoin:miter;stroke-width:1.25;"/>
   </g>
   <g id="patch_5">
    <path d="M 63 315 
L 453.6 315 
" style="fill:none;stroke:#ffffff;stroke-linecap:square;stroke-linejoin:miter;stroke-width:1.25;"/>
   </g>
   <g id="patch_6">
    <path d="M 63 43.2 
L 453.6 43.2 
" style="fill:none;stroke:#ffffff;stroke-linecap:square;stroke-linejoin:miter;stroke-width:1.25;"/>
   </g>
   <g id="text_18">
    <!-- Survival curves, stratified by DeviceProtection -->
    <g style="fill:#262626;" transform="translate(125.922188 33.2)scale(0.12 -0.12)">
     <defs>
      <path d="M 52.390625 36.53125 
L 38.875 34.078125 
Q 38.1875 38.140625 35.765625 40.1875 
Q 33.34375 42.234375 29.5 42.234375 
Q 24.359375 42.234375 21.3125 38.6875 
Q 18.265625 35.15625 18.265625 26.859375 
Q 18.265625 17.625 21.359375 13.8125 
Q 24.46875 10.015625 29.6875 10.015625 
Q 33.59375 10.015625 36.078125 12.234375 
Q 38.578125 14.453125 39.59375 19.875 
L 53.078125 17.578125 
Q 50.984375 8.296875 45.015625 3.5625 
Q 39.0625 -1.171875 29.046875 -1.171875 
Q 17.671875 -1.171875 10.90625 6 
Q 4.15625 13.1875 4.15625 25.875 
Q 4.15625 38.71875 10.9375 45.875 
Q 17.71875 53.03125 29.296875 53.03125 
Q 38.765625 53.03125 44.359375 48.953125 
Q 49.953125 44.875 52.390625 36.53125 
z
" id="Arial-BoldMT-99"/>
      <path d="M 6.84375 13.71875 
L 20.5625 13.71875 
L 20.5625 3.90625 
Q 20.5625 -2.046875 19.53125 -5.484375 
Q 18.5 -8.9375 15.640625 -11.671875 
Q 12.796875 -14.40625 8.40625 -15.96875 
L 5.71875 -10.296875 
Q 9.859375 -8.9375 11.609375 -6.546875 
Q 13.375 -4.15625 13.484375 0 
L 6.84375 0 
z
" id="Arial-BoldMT-44"/>
      <path d="M 1.171875 51.859375 
L 8.796875 51.859375 
L 8.796875 55.765625 
Q 8.796875 62.3125 10.1875 65.53125 
Q 11.578125 68.75 15.3125 70.765625 
Q 19.046875 72.796875 24.75 72.796875 
Q 30.609375 72.796875 36.234375 71.046875 
L 34.375 61.46875 
Q 31.109375 62.25 28.078125 62.25 
Q 25.09375 62.25 23.796875 60.859375 
Q 22.515625 59.46875 22.515625 55.515625 
L 22.515625 51.859375 
L 32.765625 51.859375 
L 32.765625 41.0625 
L 22.515625 41.0625 
L 22.515625 0 
L 8.796875 0 
L 8.796875 41.0625 
L 1.171875 41.0625 
z
" id="Arial-BoldMT-102"/>
      <path d="M 54.734375 0 
L 42 0 
L 42 7.625 
Q 38.8125 3.171875 34.484375 1 
Q 30.171875 -1.171875 25.78125 -1.171875 
Q 16.84375 -1.171875 10.46875 6.03125 
Q 4.109375 13.234375 4.109375 26.125 
Q 4.109375 39.3125 10.296875 46.171875 
Q 16.5 53.03125 25.984375 53.03125 
Q 34.671875 53.03125 41.015625 45.796875 
L 41.015625 71.578125 
L 54.734375 71.578125 
z
M 18.109375 27.046875 
Q 18.109375 18.75 20.40625 15.046875 
Q 23.734375 9.671875 29.6875 9.671875 
Q 34.421875 9.671875 37.734375 13.6875 
Q 41.0625 17.71875 41.0625 25.734375 
Q 41.0625 34.671875 37.84375 38.59375 
Q 34.625 42.53125 29.59375 42.53125 
Q 24.703125 42.53125 21.40625 38.640625 
Q 18.109375 34.765625 18.109375 27.046875 
z
" id="Arial-BoldMT-100"/>
      <path d="M 7.234375 71.578125 
L 33.640625 71.578125 
Q 42.578125 71.578125 47.265625 70.21875 
Q 53.5625 68.359375 58.046875 63.625 
Q 62.546875 58.890625 64.890625 52.03125 
Q 67.234375 45.171875 67.234375 35.109375 
Q 67.234375 26.265625 65.046875 19.875 
Q 62.359375 12.0625 57.375 7.234375 
Q 53.609375 3.5625 47.21875 1.515625 
Q 42.4375 0 34.421875 0 
L 7.234375 0 
z
M 21.6875 59.46875 
L 21.6875 12.0625 
L 32.46875 12.0625 
Q 38.53125 12.0625 41.21875 12.75 
Q 44.734375 13.625 47.046875 15.71875 
Q 49.359375 17.828125 50.828125 22.625 
Q 52.296875 27.4375 52.296875 35.75 
Q 52.296875 44.046875 50.828125 48.484375 
Q 49.359375 52.9375 46.71875 55.421875 
Q 44.09375 57.90625 40.046875 58.796875 
Q 37.015625 59.46875 28.171875 59.46875 
z
" id="Arial-BoldMT-68"/>
      <path d="M 7.28125 0 
L 7.28125 71.578125 
L 30.46875 71.578125 
Q 43.65625 71.578125 47.65625 70.515625 
Q 53.8125 68.890625 57.953125 63.5 
Q 62.109375 58.109375 62.109375 49.5625 
Q 62.109375 42.96875 59.71875 38.46875 
Q 57.328125 33.984375 53.640625 31.421875 
Q 49.953125 28.859375 46.140625 28.03125 
Q 40.96875 27 31.15625 27 
L 21.734375 27 
L 21.734375 0 
z
M 21.734375 59.46875 
L 21.734375 39.15625 
L 29.640625 39.15625 
Q 38.1875 39.15625 41.0625 40.28125 
Q 43.953125 41.40625 45.578125 43.796875 
Q 47.21875 46.1875 47.21875 49.359375 
Q 47.21875 53.265625 44.921875 55.796875 
Q 42.625 58.34375 39.109375 58.984375 
Q 36.53125 59.46875 28.71875 59.46875 
z
" id="Arial-BoldMT-80"/>
     </defs>
     <use xlink:href="#Arial-BoldMT-83"/>
     <use x="66.699219" xlink:href="#Arial-BoldMT-117"/>
     <use x="127.783203" xlink:href="#Arial-BoldMT-114"/>
     <use x="166.699219" xlink:href="#Arial-BoldMT-118"/>
     <use x="222.314453" xlink:href="#Arial-BoldMT-105"/>
     <use x="250.097656" xlink:href="#Arial-BoldMT-118"/>
     <use x="305.712891" xlink:href="#Arial-BoldMT-97"/>
     <use x="361.328125" xlink:href="#Arial-BoldMT-108"/>
     <use x="389.111328" xlink:href="#Arial-BoldMT-32"/>
     <use x="416.894531" xlink:href="#Arial-BoldMT-99"/>
     <use x="472.509766" xlink:href="#Arial-BoldMT-117"/>
     <use x="533.59375" xlink:href="#Arial-BoldMT-114"/>
     <use x="572.509766" xlink:href="#Arial-BoldMT-118"/>
     <use x="628.125" xlink:href="#Arial-BoldMT-101"/>
     <use x="683.740234" xlink:href="#Arial-BoldMT-115"/>
     <use x="739.355469" xlink:href="#Arial-BoldMT-44"/>
     <use x="767.138672" xlink:href="#Arial-BoldMT-32"/>
     <use x="794.921875" xlink:href="#Arial-BoldMT-115"/>
     <use x="850.537109" xlink:href="#Arial-BoldMT-116"/>
     <use x="883.837891" xlink:href="#Arial-BoldMT-114"/>
     <use x="922.753906" xlink:href="#Arial-BoldMT-97"/>
     <use x="978.369141" xlink:href="#Arial-BoldMT-116"/>
     <use x="1011.669922" xlink:href="#Arial-BoldMT-105"/>
     <use x="1039.453125" xlink:href="#Arial-BoldMT-102"/>
     <use x="1072.753906" xlink:href="#Arial-BoldMT-105"/>
     <use x="1100.537109" xlink:href="#Arial-BoldMT-101"/>
     <use x="1156.152344" xlink:href="#Arial-BoldMT-100"/>
     <use x="1217.236328" xlink:href="#Arial-BoldMT-32"/>
     <use x="1245.019531" xlink:href="#Arial-BoldMT-98"/>
     <use x="1306.103516" xlink:href="#Arial-BoldMT-121"/>
     <use x="1361.71875" xlink:href="#Arial-BoldMT-32"/>
     <use x="1389.501953" xlink:href="#Arial-BoldMT-68"/>
     <use x="1461.71875" xlink:href="#Arial-BoldMT-101"/>
     <use x="1517.333984" xlink:href="#Arial-BoldMT-118"/>
     <use x="1572.949219" xlink:href="#Arial-BoldMT-105"/>
     <use x="1600.732422" xlink:href="#Arial-BoldMT-99"/>
     <use x="1656.347656" xlink:href="#Arial-BoldMT-101"/>
     <use x="1711.962891" xlink:href="#Arial-BoldMT-80"/>
     <use x="1778.662109" xlink:href="#Arial-BoldMT-114"/>
     <use x="1817.578125" xlink:href="#Arial-BoldMT-111"/>
     <use x="1878.662109" xlink:href="#Arial-BoldMT-116"/>
     <use x="1911.962891" xlink:href="#Arial-BoldMT-101"/>
     <use x="1967.578125" xlink:href="#Arial-BoldMT-99"/>
     <use x="2023.193359" xlink:href="#Arial-BoldMT-116"/>
     <use x="2056.494141" xlink:href="#Arial-BoldMT-105"/>
     <use x="2084.277344" xlink:href="#Arial-BoldMT-111"/>
     <use x="2145.361328" xlink:href="#Arial-BoldMT-110"/>
    </g>
   </g>
   <g id="legend_1">
    <g id="patch_7">
     <path d="M 70.7 309.5 
L 197.600469 309.5 
Q 199.800469 309.5 199.800469 307.3 
L 199.800469 261.720469 
Q 199.800469 259.520469 197.600469 259.520469 
L 70.7 259.520469 
Q 68.5 259.520469 68.5 261.720469 
L 68.5 307.3 
Q 68.5 309.5 70.7 309.5 
z
" style="fill:#eaeaf2;opacity:0.8;stroke:#cccccc;stroke-linejoin:miter;"/>
    </g>
    <g id="line2d_19">
     <path d="M 72.9 267.944062 
L 94.9 267.944062 
" style="fill:none;stroke:#4c72b0;stroke-linecap:round;stroke-width:1.5;"/>
    </g>
    <g id="line2d_20"/>
    <g id="text_19">
     <!-- No -->
     <g style="fill:#262626;" transform="translate(103.7 271.794062)scale(0.11 -0.11)">
      <defs>
       <path d="M 7.625 0 
L 7.625 71.578125 
L 17.328125 71.578125 
L 54.9375 15.375 
L 54.9375 71.578125 
L 64.015625 71.578125 
L 64.015625 0 
L 54.296875 0 
L 16.703125 56.25 
L 16.703125 0 
z
" id="ArialMT-78"/>
       <path d="M 3.328125 25.921875 
Q 3.328125 40.328125 11.328125 47.265625 
Q 18.015625 53.03125 27.640625 53.03125 
Q 38.328125 53.03125 45.109375 46.015625 
Q 51.90625 39.015625 51.90625 26.65625 
Q 51.90625 16.65625 48.90625 10.90625 
Q 45.90625 5.171875 40.15625 2 
Q 34.421875 -1.171875 27.640625 -1.171875 
Q 16.75 -1.171875 10.03125 5.8125 
Q 3.328125 12.796875 3.328125 25.921875 
z
M 12.359375 25.921875 
Q 12.359375 15.96875 16.703125 11.015625 
Q 21.046875 6.0625 27.640625 6.0625 
Q 34.1875 6.0625 38.53125 11.03125 
Q 42.875 16.015625 42.875 26.21875 
Q 42.875 35.84375 38.5 40.796875 
Q 34.125 45.75 27.640625 45.75 
Q 21.046875 45.75 16.703125 40.8125 
Q 12.359375 35.890625 12.359375 25.921875 
z
" id="ArialMT-111"/>
      </defs>
      <use xlink:href="#ArialMT-78"/>
      <use x="72.216797" xlink:href="#ArialMT-111"/>
     </g>
    </g>
    <g id="line2d_21">
     <path d="M 72.9 283.503906 
L 94.9 283.503906 
" style="fill:none;stroke:#dd8452;stroke-linecap:round;stroke-width:1.5;"/>
    </g>
    <g id="line2d_22"/>
    <g id="text_20">
     <!-- Yes -->
     <g style="fill:#262626;" transform="translate(103.7 287.353906)scale(0.11 -0.11)">
      <defs>
       <path d="M 27.875 0 
L 27.875 30.328125 
L 0.296875 71.578125 
L 11.8125 71.578125 
L 25.921875 50 
Q 29.828125 43.953125 33.203125 37.890625 
Q 36.421875 43.5 41.015625 50.53125 
L 54.890625 71.578125 
L 65.921875 71.578125 
L 37.359375 30.328125 
L 37.359375 0 
z
" id="ArialMT-89"/>
       <path d="M 42.09375 16.703125 
L 51.171875 15.578125 
Q 49.03125 7.625 43.21875 3.21875 
Q 37.40625 -1.171875 28.375 -1.171875 
Q 17 -1.171875 10.328125 5.828125 
Q 3.65625 12.84375 3.65625 25.484375 
Q 3.65625 38.578125 10.390625 45.796875 
Q 17.140625 53.03125 27.875 53.03125 
Q 38.28125 53.03125 44.875 45.953125 
Q 51.46875 38.875 51.46875 26.03125 
Q 51.46875 25.25 51.421875 23.6875 
L 12.75 23.6875 
Q 13.234375 15.140625 17.578125 10.59375 
Q 21.921875 6.0625 28.421875 6.0625 
Q 33.25 6.0625 36.671875 8.59375 
Q 40.09375 11.140625 42.09375 16.703125 
z
M 13.234375 30.90625 
L 42.1875 30.90625 
Q 41.609375 37.453125 38.875 40.71875 
Q 34.671875 45.796875 27.984375 45.796875 
Q 21.921875 45.796875 17.796875 41.75 
Q 13.671875 37.703125 13.234375 30.90625 
z
" id="ArialMT-101"/>
       <path d="M 3.078125 15.484375 
L 11.765625 16.84375 
Q 12.5 11.625 15.84375 8.84375 
Q 19.1875 6.0625 25.203125 6.0625 
Q 31.25 6.0625 34.171875 8.515625 
Q 37.109375 10.984375 37.109375 14.3125 
Q 37.109375 17.28125 34.515625 19 
Q 32.71875 20.171875 25.53125 21.96875 
Q 15.875 24.421875 12.140625 26.203125 
Q 8.40625 27.984375 6.46875 31.125 
Q 4.546875 34.28125 4.546875 38.09375 
Q 4.546875 41.546875 6.125 44.5 
Q 7.71875 47.46875 10.453125 49.421875 
Q 12.5 50.921875 16.03125 51.96875 
Q 19.578125 53.03125 23.640625 53.03125 
Q 29.734375 53.03125 34.34375 51.265625 
Q 38.96875 49.515625 41.15625 46.5 
Q 43.359375 43.5 44.1875 38.484375 
L 35.59375 37.3125 
Q 35.015625 41.3125 32.203125 43.546875 
Q 29.390625 45.796875 24.265625 45.796875 
Q 18.21875 45.796875 15.625 43.796875 
Q 13.03125 41.796875 13.03125 39.109375 
Q 13.03125 37.40625 14.109375 36.03125 
Q 15.1875 34.625 17.484375 33.6875 
Q 18.796875 33.203125 25.25 31.453125 
Q 34.578125 28.953125 38.25 27.359375 
Q 41.9375 25.78125 44.03125 22.75 
Q 46.140625 19.734375 46.140625 15.234375 
Q 46.140625 10.84375 43.578125 6.953125 
Q 41.015625 3.078125 36.171875 0.953125 
Q 31.34375 -1.171875 25.25 -1.171875 
Q 15.140625 -1.171875 9.84375 3.03125 
Q 4.546875 7.234375 3.078125 15.484375 
z
" id="ArialMT-115"/>
      </defs>
      <use xlink:href="#ArialMT-89"/>
      <use x="57.574219" xlink:href="#ArialMT-101"/>
      <use x="113.189453" xlink:href="#ArialMT-115"/>
     </g>
    </g>
    <g id="line2d_23">
     <path d="M 72.9 299.06375 
L 94.9 299.06375 
" style="fill:none;stroke:#55a868;stroke-linecap:round;stroke-width:1.5;"/>
    </g>
    <g id="line2d_24"/>
    <g id="text_21">
     <!-- No internet service -->
     <g style="fill:#262626;" transform="translate(103.7 302.91375)scale(0.11 -0.11)">
      <defs>
       <path id="ArialMT-32"/>
       <path d="M 6.640625 61.46875 
L 6.640625 71.578125 
L 15.4375 71.578125 
L 15.4375 61.46875 
z
M 6.640625 0 
L 6.640625 51.859375 
L 15.4375 51.859375 
L 15.4375 0 
z
" id="ArialMT-105"/>
       <path d="M 6.59375 0 
L 6.59375 51.859375 
L 14.5 51.859375 
L 14.5 44.484375 
Q 20.21875 53.03125 31 53.03125 
Q 35.6875 53.03125 39.625 51.34375 
Q 43.5625 49.65625 45.515625 46.921875 
Q 47.46875 44.1875 48.25 40.4375 
Q 48.734375 37.984375 48.734375 31.890625 
L 48.734375 0 
L 39.9375 0 
L 39.9375 31.546875 
Q 39.9375 36.921875 38.90625 39.578125 
Q 37.890625 42.234375 35.28125 43.8125 
Q 32.671875 45.40625 29.15625 45.40625 
Q 23.53125 45.40625 19.453125 41.84375 
Q 15.375 38.28125 15.375 28.328125 
L 15.375 0 
z
" id="ArialMT-110"/>
       <path d="M 25.78125 7.859375 
L 27.046875 0.09375 
Q 23.34375 -0.6875 20.40625 -0.6875 
Q 15.625 -0.6875 12.984375 0.828125 
Q 10.359375 2.34375 9.28125 4.8125 
Q 8.203125 7.28125 8.203125 15.1875 
L 8.203125 45.015625 
L 1.765625 45.015625 
L 1.765625 51.859375 
L 8.203125 51.859375 
L 8.203125 64.703125 
L 16.9375 69.96875 
L 16.9375 51.859375 
L 25.78125 51.859375 
L 25.78125 45.015625 
L 16.9375 45.015625 
L 16.9375 14.703125 
Q 16.9375 10.9375 17.40625 9.859375 
Q 17.875 8.796875 18.921875 8.15625 
Q 19.96875 7.515625 21.921875 7.515625 
Q 23.390625 7.515625 25.78125 7.859375 
z
" id="ArialMT-116"/>
       <path d="M 6.5 0 
L 6.5 51.859375 
L 14.40625 51.859375 
L 14.40625 44 
Q 17.4375 49.515625 20 51.265625 
Q 22.5625 53.03125 25.640625 53.03125 
Q 30.078125 53.03125 34.671875 50.203125 
L 31.640625 42.046875 
Q 28.421875 43.953125 25.203125 43.953125 
Q 22.3125 43.953125 20.015625 42.21875 
Q 17.71875 40.484375 16.75 37.40625 
Q 15.28125 32.71875 15.28125 27.15625 
L 15.28125 0 
z
" id="ArialMT-114"/>
       <path d="M 21 0 
L 1.265625 51.859375 
L 10.546875 51.859375 
L 21.6875 20.796875 
Q 23.484375 15.765625 25 10.359375 
Q 26.171875 14.453125 28.265625 20.21875 
L 39.796875 51.859375 
L 48.828125 51.859375 
L 29.203125 0 
z
" id="ArialMT-118"/>
       <path d="M 40.4375 19 
L 49.078125 17.875 
Q 47.65625 8.9375 41.8125 3.875 
Q 35.984375 -1.171875 27.484375 -1.171875 
Q 16.84375 -1.171875 10.375 5.78125 
Q 3.90625 12.75 3.90625 25.734375 
Q 3.90625 34.125 6.6875 40.421875 
Q 9.46875 46.734375 15.15625 49.875 
Q 20.84375 53.03125 27.546875 53.03125 
Q 35.984375 53.03125 41.359375 48.75 
Q 46.734375 44.484375 48.25 36.625 
L 39.703125 35.296875 
Q 38.484375 40.53125 35.375 43.15625 
Q 32.28125 45.796875 27.875 45.796875 
Q 21.234375 45.796875 17.078125 41.03125 
Q 12.9375 36.28125 12.9375 25.984375 
Q 12.9375 15.53125 16.9375 10.796875 
Q 20.953125 6.0625 27.390625 6.0625 
Q 32.5625 6.0625 36.03125 9.234375 
Q 39.5 12.40625 40.4375 19 
z
" id="ArialMT-99"/>
      </defs>
      <use xlink:href="#ArialMT-78"/>
      <use x="72.216797" xlink:href="#ArialMT-111"/>
      <use x="127.832031" xlink:href="#ArialMT-32"/>
      <use x="155.615234" xlink:href="#ArialMT-105"/>
      <use x="177.832031" xlink:href="#ArialMT-110"/>
      <use x="233.447266" xlink:href="#ArialMT-116"/>
      <use x="261.230469" xlink:href="#ArialMT-101"/>
      <use x="316.845703" xlink:href="#ArialMT-114"/>
      <use x="350.146484" xlink:href="#ArialMT-110"/>
      <use x="405.761719" xlink:href="#ArialMT-101"/>
      <use x="461.376953" xlink:href="#ArialMT-116"/>
      <use x="489.160156" xlink:href="#ArialMT-32"/>
      <use x="516.943359" xlink:href="#ArialMT-115"/>
      <use x="566.943359" xlink:href="#ArialMT-101"/>
      <use x="622.558594" xlink:href="#ArialMT-114"/>
      <use x="655.859375" xlink:href="#ArialMT-118"/>
      <use x="705.859375" xlink:href="#ArialMT-105"/>
      <use x="728.076172" xlink:href="#ArialMT-99"/>
      <use x="778.076172" xlink:href="#ArialMT-101"/>
     </g>
    </g>
   </g>
  </g>
 </g>
 <defs>
  <clipPath id="pd8af73289b">
   <rect height="271.8" width="390.6" x="63" y="43.2"/>
  </clipPath>
 </defs>
</svg>
