<?xml version="1.0" encoding="utf-8" standalone="no"?>
<!DOCTYPE svg PUBLIC "-//W3C//DTD SVG 1.1//EN"
  "http://www.w3.org/Graphics/SVG/1.1/DTD/svg11.dtd">
<!-- Created with matplotlib (https://matplotlib.org/) -->
<svg height="360pt" version="1.1" viewBox="0 0 504 360" width="504pt" xmlns="http://www.w3.org/2000/svg" xmlns:xlink="http://www.w3.org/1999/xlink">
 <metadata>
  <rdf:RDF xmlns:cc="http://creativecommons.org/ns#" xmlns:dc="http://purl.org/dc/elements/1.1/" xmlns:rdf="http://www.w3.org/1999/02/22-rdf-syntax-ns#">
   <cc:Work>
    <dc:type rdf:resource="http://purl.org/dc/dcmitype/StillImage"/>
    <dc:date>2021-06-10T12:40:29.259170</dc:date>
    <dc:format>image/svg+xml</dc:format>
    <dc:creator>
     <cc:Agent>
      <dc:title>Matplotlib v3.3.3, https://matplotlib.org/</dc:title>
     </cc:Agent>
    </dc:creator>
   </cc:Work>
  </rdf:RDF>
 </metadata>
 <defs>
  <style type="text/css">*{stroke-linecap:butt;stroke-linejoin:round;}</style>
 </defs>
 <g id="figure_1">
  <g id="patch_1">
   <path d="M 0 360 
L 504 360 
L 504 0 
L 0 0 
z
" style="fill:none;"/>
  </g>
  <g id="axes_1">
   <g id="patch_2">
    <path d="M 63 315 
L 453.6 315 
L 453.6 43.2 
L 63 43.2 
z
" style="fill:#eaeaf2;"/>
   </g>
   <g id="matplotlib.axis_1">
    <g id="xtick_1">
     <g id="line2d_1">
      <path clip-path="url(#p8adf5fa002)" d="M 80.754545 315 
L 80.754545 43.2 
" style="fill:none;stroke:#ffffff;stroke-linecap:round;"/>
     </g>
     <g id="text_1">
      <!-- 0 -->
      <g style="fill:#262626;" transform="translate(77.69603 332.373594)scale(0.11 -0.11)">
       <defs>
        <path d="M 4.15625 35.296875 
Q 4.15625 48 6.765625 55.734375 
Q 9.375 63.484375 14.515625 67.671875 
Q 19.671875 71.875 27.484375 71.875 
Q 33.25 71.875 37.59375 69.546875 
Q 41.9375 67.234375 44.765625 62.859375 
Q 47.609375 58.5 49.21875 52.21875 
Q 50.828125 45.953125 50.828125 35.296875 
Q 50.828125 22.703125 48.234375 14.96875 
Q 45.65625 7.234375 40.5 3 
Q 35.359375 -1.21875 27.484375 -1.21875 
Q 17.140625 -1.21875 11.234375 6.203125 
Q 4.15625 15.140625 4.15625 35.296875 
z
M 13.1875 35.296875 
Q 13.1875 17.671875 17.3125 11.828125 
Q 21.4375 6 27.484375 6 
Q 33.546875 6 37.671875 11.859375 
Q 41.796875 17.71875 41.796875 35.296875 
Q 41.796875 52.984375 37.671875 58.78125 
Q 33.546875 64.59375 27.390625 64.59375 
Q 21.34375 64.59375 17.71875 59.46875 
Q 13.1875 52.9375 13.1875 35.296875 
z
" id="ArialMT-48"/>
       </defs>
       <use xlink:href="#ArialMT-48"/>
      </g>
     </g>
    </g>
    <g id="xtick_2">
     <g id="line2d_2">
      <path clip-path="url(#p8adf5fa002)" d="M 130.072727 315 
L 130.072727 43.2 
" style="fill:none;stroke:#ffffff;stroke-linecap:round;"/>
     </g>
     <g id="text_2">
      <!-- 10 -->
      <g style="fill:#262626;" transform="translate(123.955696 332.373594)scale(0.11 -0.11)">
       <defs>
        <path d="M 37.25 0 
L 28.46875 0 
L 28.46875 56 
Q 25.296875 52.984375 20.140625 49.953125 
Q 14.984375 46.921875 10.890625 45.40625 
L 10.890625 53.90625 
Q 18.265625 57.375 23.78125 62.296875 
Q 29.296875 67.234375 31.59375 71.875 
L 37.25 71.875 
z
" id="ArialMT-49"/>
       </defs>
       <use xlink:href="#ArialMT-49"/>
       <use x="55.615234" xlink:href="#ArialMT-48"/>
      </g>
     </g>
    </g>
    <g id="xtick_3">
     <g id="line2d_3">
      <path clip-path="url(#p8adf5fa002)" d="M 179.390909 315 
L 179.390909 43.2 
" style="fill:none;stroke:#ffffff;stroke-linecap:round;"/>
     </g>
     <g id="text_3">
      <!-- 20 -->
      <g style="fill:#262626;" transform="translate(173.273878 332.373594)scale(0.11 -0.11)">
       <defs>
        <path d="M 50.34375 8.453125 
L 50.34375 0 
L 3.03125 0 
Q 2.9375 3.171875 4.046875 6.109375 
Q 5.859375 10.9375 9.828125 15.625 
Q 13.8125 20.3125 21.34375 26.46875 
Q 33.015625 36.03125 37.109375 41.625 
Q 41.21875 47.21875 41.21875 52.203125 
Q 41.21875 57.421875 37.46875 61 
Q 33.734375 64.59375 27.734375 64.59375 
Q 21.390625 64.59375 17.578125 60.78125 
Q 13.765625 56.984375 13.71875 50.25 
L 4.6875 51.171875 
Q 5.609375 61.28125 11.65625 66.578125 
Q 17.71875 71.875 27.9375 71.875 
Q 38.234375 71.875 44.234375 66.15625 
Q 50.25 60.453125 50.25 52 
Q 50.25 47.703125 48.484375 43.546875 
Q 46.734375 39.40625 42.65625 34.8125 
Q 38.578125 30.21875 29.109375 22.21875 
Q 21.1875 15.578125 18.9375 13.203125 
Q 16.703125 10.84375 15.234375 8.453125 
z
" id="ArialMT-50"/>
       </defs>
       <use xlink:href="#ArialMT-50"/>
       <use x="55.615234" xlink:href="#ArialMT-48"/>
      </g>
     </g>
    </g>
    <g id="xtick_4">
     <g id="line2d_4">
      <path clip-path="url(#p8adf5fa002)" d="M 228.709091 315 
L 228.709091 43.2 
" style="fill:none;stroke:#ffffff;stroke-linecap:round;"/>
     </g>
     <g id="text_4">
      <!-- 30 -->
      <g style="fill:#262626;" transform="translate(222.59206 332.373594)scale(0.11 -0.11)">
       <defs>
        <path d="M 4.203125 18.890625 
L 12.984375 20.0625 
Q 14.5 12.59375 18.140625 9.296875 
Q 21.78125 6 27 6 
Q 33.203125 6 37.46875 10.296875 
Q 41.75 14.59375 41.75 20.953125 
Q 41.75 27 37.796875 30.921875 
Q 33.84375 34.859375 27.734375 34.859375 
Q 25.25 34.859375 21.53125 33.890625 
L 22.515625 41.609375 
Q 23.390625 41.5 23.921875 41.5 
Q 29.546875 41.5 34.03125 44.421875 
Q 38.53125 47.359375 38.53125 53.46875 
Q 38.53125 58.296875 35.25 61.46875 
Q 31.984375 64.65625 26.8125 64.65625 
Q 21.6875 64.65625 18.265625 61.421875 
Q 14.84375 58.203125 13.875 51.765625 
L 5.078125 53.328125 
Q 6.6875 62.15625 12.390625 67.015625 
Q 18.109375 71.875 26.609375 71.875 
Q 32.46875 71.875 37.390625 69.359375 
Q 42.328125 66.84375 44.9375 62.5 
Q 47.5625 58.15625 47.5625 53.265625 
Q 47.5625 48.640625 45.0625 44.828125 
Q 42.578125 41.015625 37.703125 38.765625 
Q 44.046875 37.3125 47.5625 32.6875 
Q 51.078125 28.078125 51.078125 21.140625 
Q 51.078125 11.765625 44.234375 5.25 
Q 37.40625 -1.265625 26.953125 -1.265625 
Q 17.53125 -1.265625 11.296875 4.34375 
Q 5.078125 9.96875 4.203125 18.890625 
z
" id="ArialMT-51"/>
       </defs>
       <use xlink:href="#ArialMT-51"/>
       <use x="55.615234" xlink:href="#ArialMT-48"/>
      </g>
     </g>
    </g>
    <g id="xtick_5">
     <g id="line2d_5">
      <path clip-path="url(#p8adf5fa002)" d="M 278.027273 315 
L 278.027273 43.2 
" style="fill:none;stroke:#ffffff;stroke-linecap:round;"/>
     </g>
     <g id="text_5">
      <!-- 40 -->
      <g style="fill:#262626;" transform="translate(271.910241 332.373594)scale(0.11 -0.11)">
       <defs>
        <path d="M 32.328125 0 
L 32.328125 17.140625 
L 1.265625 17.140625 
L 1.265625 25.203125 
L 33.9375 71.578125 
L 41.109375 71.578125 
L 41.109375 25.203125 
L 50.78125 25.203125 
L 50.78125 17.140625 
L 41.109375 17.140625 
L 41.109375 0 
z
M 32.328125 25.203125 
L 32.328125 57.46875 
L 9.90625 25.203125 
z
" id="ArialMT-52"/>
       </defs>
       <use xlink:href="#ArialMT-52"/>
       <use x="55.615234" xlink:href="#ArialMT-48"/>
      </g>
     </g>
    </g>
    <g id="xtick_6">
     <g id="line2d_6">
      <path clip-path="url(#p8adf5fa002)" d="M 327.345455 315 
L 327.345455 43.2 
" style="fill:none;stroke:#ffffff;stroke-linecap:round;"/>
     </g>
     <g id="text_6">
      <!-- 50 -->
      <g style="fill:#262626;" transform="translate(321.228423 332.373594)scale(0.11 -0.11)">
       <defs>
        <path d="M 4.15625 18.75 
L 13.375 19.53125 
Q 14.40625 12.796875 18.140625 9.390625 
Q 21.875 6 27.15625 6 
Q 33.5 6 37.890625 10.78125 
Q 42.28125 15.578125 42.28125 23.484375 
Q 42.28125 31 38.0625 35.34375 
Q 33.84375 39.703125 27 39.703125 
Q 22.75 39.703125 19.328125 37.765625 
Q 15.921875 35.84375 13.96875 32.765625 
L 5.71875 33.84375 
L 12.640625 70.609375 
L 48.25 70.609375 
L 48.25 62.203125 
L 19.671875 62.203125 
L 15.828125 42.96875 
Q 22.265625 47.46875 29.34375 47.46875 
Q 38.71875 47.46875 45.15625 40.96875 
Q 51.609375 34.46875 51.609375 24.265625 
Q 51.609375 14.546875 45.953125 7.46875 
Q 39.0625 -1.21875 27.15625 -1.21875 
Q 17.390625 -1.21875 11.203125 4.25 
Q 5.03125 9.71875 4.15625 18.75 
z
" id="ArialMT-53"/>
       </defs>
       <use xlink:href="#ArialMT-53"/>
       <use x="55.615234" xlink:href="#ArialMT-48"/>
      </g>
     </g>
    </g>
    <g id="xtick_7">
     <g id="line2d_7">
      <path clip-path="url(#p8adf5fa002)" d="M 376.663636 315 
L 376.663636 43.2 
" style="fill:none;stroke:#ffffff;stroke-linecap:round;"/>
     </g>
     <g id="text_7">
      <!-- 60 -->
      <g style="fill:#262626;" transform="translate(370.546605 332.373594)scale(0.11 -0.11)">
       <defs>
        <path d="M 49.75 54.046875 
L 41.015625 53.375 
Q 39.84375 58.546875 37.703125 60.890625 
Q 34.125 64.65625 28.90625 64.65625 
Q 24.703125 64.65625 21.53125 62.3125 
Q 17.390625 59.28125 14.984375 53.46875 
Q 12.59375 47.65625 12.5 36.921875 
Q 15.671875 41.75 20.265625 44.09375 
Q 24.859375 46.4375 29.890625 46.4375 
Q 38.671875 46.4375 44.84375 39.96875 
Q 51.03125 33.5 51.03125 23.25 
Q 51.03125 16.5 48.125 10.71875 
Q 45.21875 4.9375 40.140625 1.859375 
Q 35.0625 -1.21875 28.609375 -1.21875 
Q 17.625 -1.21875 10.6875 6.859375 
Q 3.765625 14.9375 3.765625 33.5 
Q 3.765625 54.25 11.421875 63.671875 
Q 18.109375 71.875 29.4375 71.875 
Q 37.890625 71.875 43.28125 67.140625 
Q 48.6875 62.40625 49.75 54.046875 
z
M 13.875 23.1875 
Q 13.875 18.65625 15.796875 14.5 
Q 17.71875 10.359375 21.1875 8.171875 
Q 24.65625 6 28.46875 6 
Q 34.03125 6 38.03125 10.484375 
Q 42.046875 14.984375 42.046875 22.703125 
Q 42.046875 30.125 38.078125 34.390625 
Q 34.125 38.671875 28.125 38.671875 
Q 22.171875 38.671875 18.015625 34.390625 
Q 13.875 30.125 13.875 23.1875 
z
" id="ArialMT-54"/>
       </defs>
       <use xlink:href="#ArialMT-54"/>
       <use x="55.615234" xlink:href="#ArialMT-48"/>
      </g>
     </g>
    </g>
    <g id="xtick_8">
     <g id="line2d_8">
      <path clip-path="url(#p8adf5fa002)" d="M 425.981818 315 
L 425.981818 43.2 
" style="fill:none;stroke:#ffffff;stroke-linecap:round;"/>
     </g>
     <g id="text_8">
      <!-- 70 -->
      <g style="fill:#262626;" transform="translate(419.864787 332.373594)scale(0.11 -0.11)">
       <defs>
        <path d="M 4.734375 62.203125 
L 4.734375 70.65625 
L 51.078125 70.65625 
L 51.078125 63.8125 
Q 44.234375 56.546875 37.515625 44.484375 
Q 30.8125 32.421875 27.15625 19.671875 
Q 24.515625 10.6875 23.78125 0 
L 14.75 0 
Q 14.890625 8.453125 18.0625 20.40625 
Q 21.234375 32.375 27.171875 43.484375 
Q 33.109375 54.59375 39.796875 62.203125 
z
" id="ArialMT-55"/>
       </defs>
       <use xlink:href="#ArialMT-55"/>
       <use x="55.615234" xlink:href="#ArialMT-48"/>
      </g>
     </g>
    </g>
    <g id="text_9">
     <!-- Tenure (months) -->
     <g style="fill:#262626;" transform="translate(211.41375 353.295469)scale(0.12 -0.12)">
      <defs>
       <path d="M 23.390625 0 
L 23.390625 59.46875 
L 2.15625 59.46875 
L 2.15625 71.578125 
L 59.03125 71.578125 
L 59.03125 59.46875 
L 37.84375 59.46875 
L 37.84375 0 
z
" id="Arial-BoldMT-84"/>
       <path d="M 37.203125 16.5 
L 50.875 14.203125 
Q 48.25 6.6875 42.546875 2.75 
Q 36.859375 -1.171875 28.328125 -1.171875 
Q 14.796875 -1.171875 8.296875 7.671875 
Q 3.171875 14.75 3.171875 25.53125 
Q 3.171875 38.421875 9.90625 45.71875 
Q 16.65625 53.03125 26.953125 53.03125 
Q 38.53125 53.03125 45.21875 45.390625 
Q 51.90625 37.75 51.609375 21.96875 
L 17.234375 21.96875 
Q 17.390625 15.875 20.5625 12.46875 
Q 23.734375 9.078125 28.46875 9.078125 
Q 31.6875 9.078125 33.875 10.828125 
Q 36.078125 12.59375 37.203125 16.5 
z
M 37.984375 30.375 
Q 37.84375 36.328125 34.90625 39.421875 
Q 31.984375 42.53125 27.78125 42.53125 
Q 23.296875 42.53125 20.359375 39.265625 
Q 17.4375 35.984375 17.484375 30.375 
z
" id="Arial-BoldMT-101"/>
       <path d="M 54.34375 0 
L 40.625 0 
L 40.625 26.46875 
Q 40.625 34.859375 39.75 37.328125 
Q 38.875 39.796875 36.890625 41.15625 
Q 34.90625 42.53125 32.125 42.53125 
Q 28.5625 42.53125 25.734375 40.578125 
Q 22.90625 38.625 21.84375 35.390625 
Q 20.796875 32.171875 20.796875 23.484375 
L 20.796875 0 
L 7.078125 0 
L 7.078125 51.859375 
L 19.828125 51.859375 
L 19.828125 44.234375 
Q 26.609375 53.03125 36.921875 53.03125 
Q 41.453125 53.03125 45.203125 51.390625 
Q 48.96875 49.75 50.890625 47.203125 
Q 52.828125 44.671875 53.578125 41.453125 
Q 54.34375 38.234375 54.34375 32.234375 
z
" id="Arial-BoldMT-110"/>
       <path d="M 41.3125 0 
L 41.3125 7.765625 
Q 38.484375 3.609375 33.859375 1.21875 
Q 29.25 -1.171875 24.125 -1.171875 
Q 18.890625 -1.171875 14.734375 1.125 
Q 10.59375 3.421875 8.734375 7.5625 
Q 6.890625 11.71875 6.890625 19.046875 
L 6.890625 51.859375 
L 20.609375 51.859375 
L 20.609375 28.03125 
Q 20.609375 17.09375 21.359375 14.625 
Q 22.125 12.15625 24.125 10.71875 
Q 26.125 9.28125 29.203125 9.28125 
Q 32.71875 9.28125 35.5 11.203125 
Q 38.28125 13.140625 39.296875 15.984375 
Q 40.328125 18.84375 40.328125 29.984375 
L 40.328125 51.859375 
L 54.046875 51.859375 
L 54.046875 0 
z
" id="Arial-BoldMT-117"/>
       <path d="M 20.3125 0 
L 6.59375 0 
L 6.59375 51.859375 
L 19.34375 51.859375 
L 19.34375 44.484375 
Q 22.609375 49.703125 25.21875 51.359375 
Q 27.828125 53.03125 31.15625 53.03125 
Q 35.84375 53.03125 40.1875 50.4375 
L 35.9375 38.484375 
Q 32.46875 40.71875 29.5 40.71875 
Q 26.609375 40.71875 24.609375 39.125 
Q 22.609375 37.546875 21.453125 33.390625 
Q 20.3125 29.25 20.3125 16.015625 
z
" id="Arial-BoldMT-114"/>
       <path id="Arial-BoldMT-32"/>
       <path d="M 29.9375 -21.046875 
L 20.515625 -21.046875 
Q 13.03125 -9.765625 9.125 2.390625 
Q 5.21875 14.546875 5.21875 25.921875 
Q 5.21875 40.046875 10.0625 52.640625 
Q 14.265625 63.578125 20.703125 72.796875 
L 30.078125 72.796875 
Q 23.390625 58.015625 20.875 47.625 
Q 18.359375 37.25 18.359375 25.640625 
Q 18.359375 17.625 19.84375 9.21875 
Q 21.34375 0.828125 23.921875 -6.734375 
Q 25.640625 -11.71875 29.9375 -21.046875 
z
" id="Arial-BoldMT-40"/>
       <path d="M 6.15625 51.859375 
L 18.796875 51.859375 
L 18.796875 44.78125 
Q 25.59375 53.03125 34.96875 53.03125 
Q 39.9375 53.03125 43.59375 50.96875 
Q 47.265625 48.921875 49.609375 44.78125 
Q 53.03125 48.921875 56.984375 50.96875 
Q 60.9375 53.03125 65.4375 53.03125 
Q 71.140625 53.03125 75.09375 50.703125 
Q 79.046875 48.390625 81 43.890625 
Q 82.421875 40.578125 82.421875 33.15625 
L 82.421875 0 
L 68.703125 0 
L 68.703125 29.640625 
Q 68.703125 37.359375 67.28125 39.59375 
Q 65.375 42.53125 61.421875 42.53125 
Q 58.546875 42.53125 56 40.765625 
Q 53.46875 39.015625 52.34375 35.625 
Q 51.21875 32.234375 51.21875 24.90625 
L 51.21875 0 
L 37.5 0 
L 37.5 28.421875 
Q 37.5 35.984375 36.765625 38.171875 
Q 36.03125 40.375 34.484375 41.453125 
Q 32.953125 42.53125 30.328125 42.53125 
Q 27.15625 42.53125 24.609375 40.8125 
Q 22.078125 39.109375 20.96875 35.890625 
Q 19.875 32.671875 19.875 25.203125 
L 19.875 0 
L 6.15625 0 
z
" id="Arial-BoldMT-109"/>
       <path d="M 4 26.65625 
Q 4 33.5 7.375 39.890625 
Q 10.75 46.296875 16.921875 49.65625 
Q 23.09375 53.03125 30.71875 53.03125 
Q 42.484375 53.03125 50 45.390625 
Q 57.515625 37.75 57.515625 26.078125 
Q 57.515625 14.3125 49.921875 6.5625 
Q 42.328125 -1.171875 30.8125 -1.171875 
Q 23.6875 -1.171875 17.21875 2.046875 
Q 10.75 5.28125 7.375 11.5 
Q 4 17.71875 4 26.65625 
z
M 18.0625 25.921875 
Q 18.0625 18.21875 21.71875 14.109375 
Q 25.390625 10.015625 30.765625 10.015625 
Q 36.140625 10.015625 39.765625 14.109375 
Q 43.40625 18.21875 43.40625 26.03125 
Q 43.40625 33.640625 39.765625 37.734375 
Q 36.140625 41.84375 30.765625 41.84375 
Q 25.390625 41.84375 21.71875 37.734375 
Q 18.0625 33.640625 18.0625 25.921875 
z
" id="Arial-BoldMT-111"/>
       <path d="M 30.953125 51.859375 
L 30.953125 40.921875 
L 21.578125 40.921875 
L 21.578125 20.015625 
Q 21.578125 13.671875 21.84375 12.625 
Q 22.125 11.578125 23.078125 10.890625 
Q 24.03125 10.203125 25.390625 10.203125 
Q 27.296875 10.203125 30.90625 11.53125 
L 32.078125 0.875 
Q 27.296875 -1.171875 21.234375 -1.171875 
Q 17.53125 -1.171875 14.546875 0.0625 
Q 11.578125 1.3125 10.1875 3.296875 
Q 8.796875 5.28125 8.25 8.640625 
Q 7.8125 11.03125 7.8125 18.3125 
L 7.8125 40.921875 
L 1.515625 40.921875 
L 1.515625 51.859375 
L 7.8125 51.859375 
L 7.8125 62.15625 
L 21.578125 70.171875 
L 21.578125 51.859375 
z
" id="Arial-BoldMT-116"/>
       <path d="M 20.84375 71.578125 
L 20.84375 45.265625 
Q 27.484375 53.03125 36.71875 53.03125 
Q 41.453125 53.03125 45.265625 51.265625 
Q 49.078125 49.515625 51 46.78125 
Q 52.9375 44.046875 53.640625 40.71875 
Q 54.34375 37.40625 54.34375 30.421875 
L 54.34375 0 
L 40.625 0 
L 40.625 27.390625 
Q 40.625 35.546875 39.84375 37.734375 
Q 39.0625 39.9375 37.078125 41.234375 
Q 35.109375 42.53125 32.125 42.53125 
Q 28.71875 42.53125 26.03125 40.859375 
Q 23.34375 39.203125 22.09375 35.859375 
Q 20.84375 32.515625 20.84375 25.984375 
L 20.84375 0 
L 7.125 0 
L 7.125 71.578125 
z
" id="Arial-BoldMT-104"/>
       <path d="M 2.34375 14.796875 
L 16.109375 16.890625 
Q 17 12.890625 19.671875 10.8125 
Q 22.359375 8.734375 27.203125 8.734375 
Q 32.515625 8.734375 35.203125 10.6875 
Q 37.015625 12.0625 37.015625 14.359375 
Q 37.015625 15.921875 36.03125 16.9375 
Q 35.015625 17.921875 31.453125 18.75 
Q 14.84375 22.40625 10.40625 25.4375 
Q 4.25 29.640625 4.25 37.109375 
Q 4.25 43.84375 9.5625 48.4375 
Q 14.890625 53.03125 26.078125 53.03125 
Q 36.71875 53.03125 41.890625 49.5625 
Q 47.078125 46.09375 49.03125 39.3125 
L 36.078125 36.921875 
Q 35.25 39.9375 32.921875 41.546875 
Q 30.609375 43.171875 26.3125 43.171875 
Q 20.90625 43.171875 18.5625 41.65625 
Q 17 40.578125 17 38.875 
Q 17 37.40625 18.359375 36.375 
Q 20.21875 35.015625 31.171875 32.515625 
Q 42.140625 30.03125 46.484375 26.421875 
Q 50.78125 22.75 50.78125 16.21875 
Q 50.78125 9.078125 44.828125 3.953125 
Q 38.875 -1.171875 27.203125 -1.171875 
Q 16.609375 -1.171875 10.421875 3.125 
Q 4.25 7.421875 2.34375 14.796875 
z
" id="Arial-BoldMT-115"/>
       <path d="M 3.375 -21.046875 
Q 7.421875 -12.359375 9.078125 -7.71875 
Q 10.75 -3.078125 12.15625 2.96875 
Q 13.578125 9.03125 14.25 14.46875 
Q 14.9375 19.921875 14.9375 25.640625 
Q 14.9375 37.25 12.453125 47.625 
Q 9.96875 58.015625 3.265625 72.796875 
L 12.59375 72.796875 
Q 19.96875 62.3125 24.046875 50.53125 
Q 28.125 38.765625 28.125 26.65625 
Q 28.125 16.453125 24.90625 4.78125 
Q 21.234375 -8.296875 12.84375 -21.046875 
z
" id="Arial-BoldMT-41"/>
      </defs>
      <use xlink:href="#Arial-BoldMT-84"/>
      <use x="53.708984" xlink:href="#Arial-BoldMT-101"/>
      <use x="109.324219" xlink:href="#Arial-BoldMT-110"/>
      <use x="170.408203" xlink:href="#Arial-BoldMT-117"/>
      <use x="231.492188" xlink:href="#Arial-BoldMT-114"/>
      <use x="270.408203" xlink:href="#Arial-BoldMT-101"/>
      <use x="326.023438" xlink:href="#Arial-BoldMT-32"/>
      <use x="353.806641" xlink:href="#Arial-BoldMT-40"/>
      <use x="387.107422" xlink:href="#Arial-BoldMT-109"/>
      <use x="476.023438" xlink:href="#Arial-BoldMT-111"/>
      <use x="537.107422" xlink:href="#Arial-BoldMT-110"/>
      <use x="598.191406" xlink:href="#Arial-BoldMT-116"/>
      <use x="631.492188" xlink:href="#Arial-BoldMT-104"/>
      <use x="692.576172" xlink:href="#Arial-BoldMT-115"/>
      <use x="748.191406" xlink:href="#Arial-BoldMT-41"/>
     </g>
    </g>
   </g>
   <g id="matplotlib.axis_2">
    <g id="ytick_1">
     <g id="line2d_9">
      <path clip-path="url(#p8adf5fa002)" d="M 63 308.205675 
L 453.6 308.205675 
" style="fill:none;stroke:#ffffff;stroke-linecap:round;"/>
     </g>
     <g id="text_10">
      <!-- 0.3 -->
      <g style="fill:#262626;" transform="translate(38.21 312.142471)scale(0.11 -0.11)">
       <defs>
        <path d="M 9.078125 0 
L 9.078125 10.015625 
L 19.09375 10.015625 
L 19.09375 0 
z
" id="ArialMT-46"/>
       </defs>
       <use xlink:href="#ArialMT-48"/>
       <use x="55.615234" xlink:href="#ArialMT-46"/>
       <use x="83.398438" xlink:href="#ArialMT-51"/>
      </g>
     </g>
    </g>
    <g id="ytick_2">
     <g id="line2d_10">
      <path clip-path="url(#p8adf5fa002)" d="M 63 272.112656 
L 453.6 272.112656 
" style="fill:none;stroke:#ffffff;stroke-linecap:round;"/>
     </g>
     <g id="text_11">
      <!-- 0.4 -->
      <g style="fill:#262626;" transform="translate(38.21 276.049453)scale(0.11 -0.11)">
       <use xlink:href="#ArialMT-48"/>
       <use x="55.615234" xlink:href="#ArialMT-46"/>
       <use x="83.398438" xlink:href="#ArialMT-52"/>
      </g>
     </g>
    </g>
    <g id="ytick_3">
     <g id="line2d_11">
      <path clip-path="url(#p8adf5fa002)" d="M 63 236.019638 
L 453.6 236.019638 
" style="fill:none;stroke:#ffffff;stroke-linecap:round;"/>
     </g>
     <g id="text_12">
      <!-- 0.5 -->
      <g style="fill:#262626;" transform="translate(38.21 239.956435)scale(0.11 -0.11)">
       <use xlink:href="#ArialMT-48"/>
       <use x="55.615234" xlink:href="#ArialMT-46"/>
       <use x="83.398438" xlink:href="#ArialMT-53"/>
      </g>
     </g>
    </g>
    <g id="ytick_4">
     <g id="line2d_12">
      <path clip-path="url(#p8adf5fa002)" d="M 63 199.926619 
L 453.6 199.926619 
" style="fill:none;stroke:#ffffff;stroke-linecap:round;"/>
     </g>
     <g id="text_13">
      <!-- 0.6 -->
      <g style="fill:#262626;" transform="translate(38.21 203.863416)scale(0.11 -0.11)">
       <use xlink:href="#ArialMT-48"/>
       <use x="55.615234" xlink:href="#ArialMT-46"/>
       <use x="83.398438" xlink:href="#ArialMT-54"/>
      </g>
     </g>
    </g>
    <g id="ytick_5">
     <g id="line2d_13">
      <path clip-path="url(#p8adf5fa002)" d="M 63 163.833601 
L 453.6 163.833601 
" style="fill:none;stroke:#ffffff;stroke-linecap:round;"/>
     </g>
     <g id="text_14">
      <!-- 0.7 -->
      <g style="fill:#262626;" transform="translate(38.21 167.770398)scale(0.11 -0.11)">
       <use xlink:href="#ArialMT-48"/>
       <use x="55.615234" xlink:href="#ArialMT-46"/>
       <use x="83.398438" xlink:href="#ArialMT-55"/>
      </g>
     </g>
    </g>
    <g id="ytick_6">
     <g id="line2d_14">
      <path clip-path="url(#p8adf5fa002)" d="M 63 127.740582 
L 453.6 127.740582 
" style="fill:none;stroke:#ffffff;stroke-linecap:round;"/>
     </g>
     <g id="text_15">
      <!-- 0.8 -->
      <g style="fill:#262626;" transform="translate(38.21 131.677379)scale(0.11 -0.11)">
       <defs>
        <path d="M 17.671875 38.8125 
Q 12.203125 40.828125 9.5625 44.53125 
Q 6.9375 48.25 6.9375 53.421875 
Q 6.9375 61.234375 12.546875 66.546875 
Q 18.171875 71.875 27.484375 71.875 
Q 36.859375 71.875 42.578125 66.421875 
Q 48.296875 60.984375 48.296875 53.171875 
Q 48.296875 48.1875 45.671875 44.5 
Q 43.0625 40.828125 37.75 38.8125 
Q 44.34375 36.671875 47.78125 31.875 
Q 51.21875 27.09375 51.21875 20.453125 
Q 51.21875 11.28125 44.71875 5.03125 
Q 38.234375 -1.21875 27.640625 -1.21875 
Q 17.046875 -1.21875 10.546875 5.046875 
Q 4.046875 11.328125 4.046875 20.703125 
Q 4.046875 27.6875 7.59375 32.390625 
Q 11.140625 37.109375 17.671875 38.8125 
z
M 15.921875 53.71875 
Q 15.921875 48.640625 19.1875 45.40625 
Q 22.46875 42.1875 27.6875 42.1875 
Q 32.765625 42.1875 36.015625 45.375 
Q 39.265625 48.578125 39.265625 53.21875 
Q 39.265625 58.0625 35.90625 61.359375 
Q 32.5625 64.65625 27.59375 64.65625 
Q 22.5625 64.65625 19.234375 61.421875 
Q 15.921875 58.203125 15.921875 53.71875 
z
M 13.09375 20.65625 
Q 13.09375 16.890625 14.875 13.375 
Q 16.65625 9.859375 20.171875 7.921875 
Q 23.6875 6 27.734375 6 
Q 34.03125 6 38.125 10.046875 
Q 42.234375 14.109375 42.234375 20.359375 
Q 42.234375 26.703125 38.015625 30.859375 
Q 33.796875 35.015625 27.4375 35.015625 
Q 21.234375 35.015625 17.15625 30.90625 
Q 13.09375 26.8125 13.09375 20.65625 
z
" id="ArialMT-56"/>
       </defs>
       <use xlink:href="#ArialMT-48"/>
       <use x="55.615234" xlink:href="#ArialMT-46"/>
       <use x="83.398438" xlink:href="#ArialMT-56"/>
      </g>
     </g>
    </g>
    <g id="ytick_7">
     <g id="line2d_15">
      <path clip-path="url(#p8adf5fa002)" d="M 63 91.647564 
L 453.6 91.647564 
" style="fill:none;stroke:#ffffff;stroke-linecap:round;"/>
     </g>
     <g id="text_16">
      <!-- 0.9 -->
      <g style="fill:#262626;" transform="translate(38.21 95.584361)scale(0.11 -0.11)">
       <defs>
        <path d="M 5.46875 16.546875 
L 13.921875 17.328125 
Q 14.984375 11.375 18.015625 8.6875 
Q 21.046875 6 25.78125 6 
Q 29.828125 6 32.875 7.859375 
Q 35.9375 9.71875 37.890625 12.8125 
Q 39.84375 15.921875 41.15625 21.1875 
Q 42.484375 26.46875 42.484375 31.9375 
Q 42.484375 32.515625 42.4375 33.6875 
Q 39.796875 29.5 35.234375 26.875 
Q 30.671875 24.265625 25.34375 24.265625 
Q 16.453125 24.265625 10.296875 30.703125 
Q 4.15625 37.15625 4.15625 47.703125 
Q 4.15625 58.59375 10.578125 65.234375 
Q 17 71.875 26.65625 71.875 
Q 33.640625 71.875 39.421875 68.109375 
Q 45.21875 64.359375 48.21875 57.390625 
Q 51.21875 50.4375 51.21875 37.25 
Q 51.21875 23.53125 48.234375 15.40625 
Q 45.265625 7.28125 39.375 3.03125 
Q 33.5 -1.21875 25.59375 -1.21875 
Q 17.1875 -1.21875 11.859375 3.4375 
Q 6.546875 8.109375 5.46875 16.546875 
z
M 41.453125 48.140625 
Q 41.453125 55.71875 37.421875 60.15625 
Q 33.40625 64.59375 27.734375 64.59375 
Q 21.875 64.59375 17.53125 59.8125 
Q 13.1875 55.03125 13.1875 47.40625 
Q 13.1875 40.578125 17.3125 36.296875 
Q 21.4375 32.03125 27.484375 32.03125 
Q 33.59375 32.03125 37.515625 36.296875 
Q 41.453125 40.578125 41.453125 48.140625 
z
" id="ArialMT-57"/>
       </defs>
       <use xlink:href="#ArialMT-48"/>
       <use x="55.615234" xlink:href="#ArialMT-46"/>
       <use x="83.398438" xlink:href="#ArialMT-57"/>
      </g>
     </g>
    </g>
    <g id="ytick_8">
     <g id="line2d_16">
      <path clip-path="url(#p8adf5fa002)" d="M 63 55.554545 
L 453.6 55.554545 
" style="fill:none;stroke:#ffffff;stroke-linecap:round;"/>
     </g>
     <g id="text_17">
      <!-- 1.0 -->
      <g style="fill:#262626;" transform="translate(38.21 59.491342)scale(0.11 -0.11)">
       <use xlink:href="#ArialMT-49"/>
       <use x="55.615234" xlink:href="#ArialMT-46"/>
       <use x="83.398438" xlink:href="#ArialMT-48"/>
      </g>
     </g>
    </g>
    <g id="text_18">
     <!-- Survival probability -->
     <g style="fill:#262626;" transform="translate(25.684375 234.778125)rotate(-90)scale(0.12 -0.12)">
      <defs>
       <path d="M 3.609375 23.296875 
L 17.671875 24.65625 
Q 18.953125 17.578125 22.828125 14.25 
Q 26.703125 10.9375 33.296875 10.9375 
Q 40.28125 10.9375 43.8125 13.890625 
Q 47.359375 16.84375 47.359375 20.796875 
Q 47.359375 23.34375 45.875 25.125 
Q 44.390625 26.90625 40.671875 28.21875 
Q 38.140625 29.109375 29.109375 31.34375 
Q 17.484375 34.234375 12.796875 38.421875 
Q 6.203125 44.34375 6.203125 52.828125 
Q 6.203125 58.296875 9.296875 63.0625 
Q 12.40625 67.828125 18.234375 70.3125 
Q 24.078125 72.796875 32.328125 72.796875 
Q 45.796875 72.796875 52.609375 66.890625 
Q 59.421875 60.984375 59.765625 51.125 
L 45.3125 50.484375 
Q 44.390625 56 41.328125 58.421875 
Q 38.28125 60.84375 32.171875 60.84375 
Q 25.875 60.84375 22.3125 58.25 
Q 20.015625 56.59375 20.015625 53.8125 
Q 20.015625 51.265625 22.171875 49.46875 
Q 24.90625 47.171875 35.453125 44.671875 
Q 46 42.1875 51.046875 39.515625 
Q 56.109375 36.859375 58.953125 32.25 
Q 61.8125 27.640625 61.8125 20.84375 
Q 61.8125 14.703125 58.390625 9.328125 
Q 54.984375 3.953125 48.734375 1.34375 
Q 42.484375 -1.265625 33.15625 -1.265625 
Q 19.578125 -1.265625 12.296875 5 
Q 5.03125 11.28125 3.609375 23.296875 
z
" id="Arial-BoldMT-83"/>
       <path d="M 21.4375 0 
L 0.53125 51.859375 
L 14.9375 51.859375 
L 24.703125 25.390625 
L 27.546875 16.546875 
Q 28.65625 19.921875 28.953125 21 
Q 29.640625 23.1875 30.421875 25.390625 
L 40.28125 51.859375 
L 54.390625 51.859375 
L 33.796875 0 
z
" id="Arial-BoldMT-118"/>
       <path d="M 7.171875 58.890625 
L 7.171875 71.578125 
L 20.90625 71.578125 
L 20.90625 58.890625 
z
M 7.171875 0 
L 7.171875 51.859375 
L 20.90625 51.859375 
L 20.90625 0 
z
" id="Arial-BoldMT-105"/>
       <path d="M 17.4375 36.03125 
L 4.984375 38.28125 
Q 7.078125 45.796875 12.203125 49.40625 
Q 17.328125 53.03125 27.4375 53.03125 
Q 36.625 53.03125 41.109375 50.859375 
Q 45.609375 48.6875 47.4375 45.34375 
Q 49.265625 42 49.265625 33.0625 
L 49.125 17.046875 
Q 49.125 10.203125 49.78125 6.953125 
Q 50.4375 3.71875 52.25 0 
L 38.671875 0 
Q 38.140625 1.375 37.359375 4.046875 
Q 37.015625 5.28125 36.859375 5.671875 
Q 33.34375 2.25 29.34375 0.53125 
Q 25.34375 -1.171875 20.796875 -1.171875 
Q 12.796875 -1.171875 8.171875 3.171875 
Q 3.5625 7.515625 3.5625 14.15625 
Q 3.5625 18.5625 5.65625 22 
Q 7.765625 25.4375 11.546875 27.265625 
Q 15.328125 29.109375 22.46875 30.46875 
Q 32.078125 32.28125 35.796875 33.84375 
L 35.796875 35.203125 
Q 35.796875 39.15625 33.84375 40.84375 
Q 31.890625 42.53125 26.46875 42.53125 
Q 22.796875 42.53125 20.75 41.09375 
Q 18.703125 39.65625 17.4375 36.03125 
z
M 35.796875 24.90625 
Q 33.15625 24.03125 27.4375 22.796875 
Q 21.734375 21.578125 19.96875 20.40625 
Q 17.28125 18.5 17.28125 15.578125 
Q 17.28125 12.703125 19.421875 10.59375 
Q 21.578125 8.5 24.90625 8.5 
Q 28.609375 8.5 31.984375 10.9375 
Q 34.46875 12.796875 35.25 15.484375 
Q 35.796875 17.234375 35.796875 22.171875 
z
" id="Arial-BoldMT-97"/>
       <path d="M 7.171875 0 
L 7.171875 71.578125 
L 20.90625 71.578125 
L 20.90625 0 
z
" id="Arial-BoldMT-108"/>
       <path d="M 6.78125 51.859375 
L 19.578125 51.859375 
L 19.578125 44.234375 
Q 22.078125 48.140625 26.3125 50.578125 
Q 30.5625 53.03125 35.75 53.03125 
Q 44.78125 53.03125 51.078125 45.953125 
Q 57.375 38.875 57.375 26.21875 
Q 57.375 13.234375 51.015625 6.03125 
Q 44.671875 -1.171875 35.640625 -1.171875 
Q 31.34375 -1.171875 27.84375 0.53125 
Q 24.359375 2.25 20.515625 6.390625 
L 20.515625 -19.734375 
L 6.78125 -19.734375 
z
M 20.359375 26.8125 
Q 20.359375 18.0625 23.828125 13.890625 
Q 27.296875 9.71875 32.28125 9.71875 
Q 37.0625 9.71875 40.234375 13.546875 
Q 43.40625 17.390625 43.40625 26.125 
Q 43.40625 34.28125 40.125 38.234375 
Q 36.859375 42.1875 32.03125 42.1875 
Q 27 42.1875 23.671875 38.296875 
Q 20.359375 34.421875 20.359375 26.8125 
z
" id="Arial-BoldMT-112"/>
       <path d="M 6.59375 0 
L 6.59375 71.578125 
L 20.3125 71.578125 
L 20.3125 45.796875 
Q 26.65625 53.03125 35.359375 53.03125 
Q 44.828125 53.03125 51.03125 46.171875 
Q 57.234375 39.3125 57.234375 26.46875 
Q 57.234375 13.1875 50.90625 6 
Q 44.578125 -1.171875 35.546875 -1.171875 
Q 31.109375 -1.171875 26.78125 1.046875 
Q 22.46875 3.265625 19.34375 7.625 
L 19.34375 0 
z
M 20.21875 27.046875 
Q 20.21875 19 22.75 15.140625 
Q 26.3125 9.671875 32.234375 9.671875 
Q 36.765625 9.671875 39.96875 13.546875 
Q 43.171875 17.4375 43.171875 25.78125 
Q 43.171875 34.671875 39.9375 38.59375 
Q 36.71875 42.53125 31.6875 42.53125 
Q 26.765625 42.53125 23.484375 38.6875 
Q 20.21875 34.859375 20.21875 27.046875 
z
" id="Arial-BoldMT-98"/>
       <path d="M 0.6875 51.859375 
L 15.28125 51.859375 
L 27.6875 15.046875 
L 39.796875 51.859375 
L 54 51.859375 
L 35.6875 1.953125 
L 32.421875 -7.078125 
Q 30.609375 -11.625 28.96875 -14.015625 
Q 27.34375 -16.40625 25.21875 -17.890625 
Q 23.09375 -19.390625 19.984375 -20.21875 
Q 16.890625 -21.046875 12.984375 -21.046875 
Q 9.03125 -21.046875 5.21875 -20.21875 
L 4 -9.46875 
Q 7.234375 -10.109375 9.8125 -10.109375 
Q 14.59375 -10.109375 16.890625 -7.296875 
Q 19.1875 -4.5 20.40625 -0.140625 
z
" id="Arial-BoldMT-121"/>
      </defs>
      <use xlink:href="#Arial-BoldMT-83"/>
      <use x="66.699219" xlink:href="#Arial-BoldMT-117"/>
      <use x="127.783203" xlink:href="#Arial-BoldMT-114"/>
      <use x="166.699219" xlink:href="#Arial-BoldMT-118"/>
      <use x="222.314453" xlink:href="#Arial-BoldMT-105"/>
      <use x="250.097656" xlink:href="#Arial-BoldMT-118"/>
      <use x="305.712891" xlink:href="#Arial-BoldMT-97"/>
      <use x="361.328125" xlink:href="#Arial-BoldMT-108"/>
      <use x="389.111328" xlink:href="#Arial-BoldMT-32"/>
      <use x="416.894531" xlink:href="#Arial-BoldMT-112"/>
      <use x="477.978516" xlink:href="#Arial-BoldMT-114"/>
      <use x="516.894531" xlink:href="#Arial-BoldMT-111"/>
      <use x="577.978516" xlink:href="#Arial-BoldMT-98"/>
      <use x="639.0625" xlink:href="#Arial-BoldMT-97"/>
      <use x="694.677734" xlink:href="#Arial-BoldMT-98"/>
      <use x="755.761719" xlink:href="#Arial-BoldMT-105"/>
      <use x="783.544922" xlink:href="#Arial-BoldMT-108"/>
      <use x="811.328125" xlink:href="#Arial-BoldMT-105"/>
      <use x="839.111328" xlink:href="#Arial-BoldMT-116"/>
      <use x="872.412109" xlink:href="#Arial-BoldMT-121"/>
     </g>
    </g>
   </g>
   <g id="PolyCollection_1">
    <defs>
     <path d="M 80.754545 -304.445455 
L 80.754545 -304.445455 
L 85.686364 -304.445455 
L 85.686364 -268.835766 
L 90.618182 -268.835766 
L 90.618182 -256.932455 
L 95.55 -256.932455 
L 95.55 -248.482374 
L 100.481818 -248.482374 
L 100.481818 -240.597051 
L 105.413636 -240.597051 
L 105.413636 -234.950558 
L 110.345455 -234.950558 
L 110.345455 -231.143659 
L 115.277273 -231.143659 
L 115.277273 -225.973873 
L 120.209091 -225.973873 
L 120.209091 -221.567949 
L 125.140909 -221.567949 
L 125.140909 -216.846698 
L 130.072727 -216.846698 
L 130.072727 -211.925135 
L 135.004545 -211.925135 
L 135.004545 -209.115866 
L 139.936364 -209.115866 
L 139.936364 -205.999082 
L 144.868182 -205.999082 
L 144.868182 -201.652626 
L 149.8 -201.652626 
L 149.8 -198.973883 
L 154.731818 -198.973883 
L 154.731818 -195.451008 
L 159.663636 -195.451008 
L 159.663636 -192.565354 
L 164.595455 -192.565354 
L 164.595455 -189.499762 
L 169.527273 -189.499762 
L 169.527273 -187.092249 
L 174.459091 -187.092249 
L 174.459091 -185.066394 
L 179.390909 -185.066394 
L 179.390909 -182.571051 
L 184.322727 -182.571051 
L 184.322727 -180.643052 
L 189.254545 -180.643052 
L 189.254545 -177.634376 
L 194.186364 -177.634376 
L 194.186364 -176.255866 
L 199.118182 -176.255866 
L 199.118182 -172.828266 
L 204.05 -172.828266 
L 204.05 -169.810104 
L 208.981818 -169.810104 
L 208.981818 -167.723567 
L 213.913636 -167.723567 
L 213.913636 -165.919304 
L 218.845455 -165.919304 
L 218.845455 -164.417454 
L 223.777273 -164.417454 
L 223.777273 -162.050829 
L 228.709091 -162.050829 
L 228.709091 -160.154785 
L 233.640909 -160.154785 
L 233.640909 -158.923515 
L 238.572727 -158.923515 
L 238.572727 -156.062516 
L 243.504545 -156.062516 
L 243.504545 -154.23465 
L 248.436364 -154.23465 
L 248.436364 -152.37599 
L 253.368182 -152.37599 
L 253.368182 -150.286773 
L 258.3 -150.286773 
L 258.3 -148.734378 
L 263.231818 -148.734378 
L 263.231818 -146.369864 
L 268.163636 -146.369864 
L 268.163636 -144.965864 
L 273.095455 -144.965864 
L 273.095455 -143.333199 
L 278.027273 -143.333199 
L 278.027273 -141.262458 
L 282.959091 -141.262458 
L 282.959091 -139.566575 
L 287.890909 -139.566575 
L 287.890909 -137.607559 
L 292.822727 -137.607559 
L 292.822727 -135.380834 
L 297.754545 -135.380834 
L 297.754545 -134.239355 
L 302.686364 -134.239355 
L 302.686364 -133.538906 
L 307.618182 -133.538906 
L 307.618182 -131.38103 
L 312.55 -131.38103 
L 312.55 -128.907862 
L 317.481818 -128.907862 
L 317.481818 -127.381022 
L 322.413636 -127.381022 
L 322.413636 -124.231761 
L 327.345455 -124.231761 
L 327.345455 -122.325895 
L 332.277273 -122.325895 
L 332.277273 -120.082641 
L 337.209091 -120.082641 
L 337.209091 -118.631856 
L 342.140909 -118.631856 
L 342.140909 -115.57882 
L 347.072727 -115.57882 
L 347.072727 -113.391767 
L 352.004545 -113.391767 
L 352.004545 -111.448966 
L 356.936364 -111.448966 
L 356.936364 -109.403319 
L 361.868182 -109.403319 
L 361.868182 -106.510171 
L 366.8 -106.510171 
L 366.8 -103.5124 
L 371.731818 -103.5124 
L 371.731818 -101.154541 
L 376.663636 -101.154541 
L 376.663636 -99.097186 
L 381.595455 -99.097186 
L 381.595455 -97.309232 
L 386.527273 -97.309232 
L 386.527273 -95.41606 
L 391.459091 -95.41606 
L 391.459091 -93.383364 
L 396.390909 -93.383364 
L 396.390909 -92.831675 
L 401.322727 -92.831675 
L 401.322727 -89.286411 
L 406.254545 -89.286411 
L 406.254545 -84.70314 
L 411.186364 -84.70314 
L 411.186364 -80.30676 
L 416.118182 -80.30676 
L 416.118182 -76.152255 
L 421.05 -76.152255 
L 421.05 -73.126378 
L 425.981818 -73.126378 
L 425.981818 -69.596822 
L 430.913636 -69.596822 
L 430.913636 -63.951484 
L 435.845455 -63.951484 
L 435.845455 -57.354545 
L 435.845455 -81.819597 
L 435.845455 -81.819597 
L 435.845455 -86.132546 
L 430.913636 -86.132546 
L 430.913636 -90.382032 
L 425.981818 -90.382032 
L 425.981818 -93.13612 
L 421.05 -93.13612 
L 421.05 -95.574399 
L 416.118182 -95.574399 
L 416.118182 -99.059896 
L 411.186364 -99.059896 
L 411.186364 -102.810474 
L 406.254545 -102.810474 
L 406.254545 -106.768247 
L 401.322727 -106.768247 
L 401.322727 -109.86288 
L 396.390909 -109.86288 
L 396.390909 -110.348737 
L 391.459091 -110.348737 
L 391.459091 -112.163406 
L 386.527273 -112.163406 
L 386.527273 -113.86913 
L 381.595455 -113.86913 
L 381.595455 -115.490754 
L 376.663636 -115.490754 
L 376.663636 -117.376984 
L 371.731818 -117.376984 
L 371.731818 -119.546804 
L 366.8 -119.546804 
L 366.8 -122.314195 
L 361.868182 -122.314195 
L 361.868182 -124.987004 
L 356.936364 -124.987004 
L 356.936364 -126.886617 
L 352.004545 -126.886617 
L 352.004545 -128.699213 
L 347.072727 -128.699213 
L 347.072727 -130.744273 
L 342.140909 -130.744273 
L 342.140909 -133.598213 
L 337.209091 -133.598213 
L 337.209091 -134.959848 
L 332.277273 -134.959848 
L 332.277273 -137.070054 
L 327.345455 -137.070054 
L 327.345455 -138.865314 
L 322.413636 -138.865314 
L 322.413636 -141.837115 
L 317.481818 -141.837115 
L 317.481818 -143.279677 
L 312.55 -143.279677 
L 312.55 -145.619464 
L 307.618182 -145.619464 
L 307.618182 -147.663605 
L 302.686364 -147.663605 
L 302.686364 -148.328241 
L 297.754545 -148.328241 
L 297.754545 -149.413197 
L 292.822727 -149.413197 
L 292.822727 -151.532283 
L 287.890909 -151.532283 
L 287.890909 -153.397714 
L 282.959091 -153.397714 
L 282.959091 -155.014611 
L 278.027273 -155.014611 
L 278.027273 -156.99065 
L 273.095455 -156.99065 
L 273.095455 -158.548576 
L 268.163636 -158.548576 
L 268.163636 -159.889032 
L 263.231818 -159.889032 
L 263.231818 -162.147172 
L 258.3 -162.147172 
L 258.3 -163.629677 
L 253.368182 -163.629677 
L 253.368182 -165.62628 
L 248.436364 -165.62628 
L 248.436364 -167.40364 
L 243.504545 -167.40364 
L 243.504545 -169.151954 
L 238.572727 -169.151954 
L 238.572727 -171.889463 
L 233.640909 -171.889463 
L 233.640909 -173.067649 
L 228.709091 -173.067649 
L 228.709091 -174.883397 
L 223.777273 -174.883397 
L 223.777273 -177.150486 
L 218.845455 -177.150486 
L 218.845455 -178.588923 
L 213.913636 -178.588923 
L 213.913636 -180.317757 
L 208.981818 -180.317757 
L 208.981818 -182.318365 
L 204.05 -182.318365 
L 204.05 -185.209876 
L 199.118182 -185.209876 
L 199.118182 -188.492149 
L 194.186364 -188.492149 
L 194.186364 -189.812063 
L 189.254545 -189.812063 
L 189.254545 -192.693233 
L 184.322727 -192.693233 
L 184.322727 -194.53879 
L 179.390909 -194.53879 
L 179.390909 -196.926062 
L 174.459091 -196.926062 
L 174.459091 -198.863671 
L 169.527273 -198.863671 
L 169.527273 -201.167259 
L 164.595455 -201.167259 
L 164.595455 -204.099344 
L 159.663636 -204.099344 
L 159.663636 -206.857229 
L 154.731818 -206.857229 
L 154.731818 -210.221024 
L 149.8 -210.221024 
L 149.8 -212.77602 
L 144.868182 -212.77602 
L 144.868182 -216.917774 
L 139.936364 -216.917774 
L 139.936364 -219.883728 
L 135.004545 -219.883728 
L 135.004545 -222.555387 
L 130.072727 -222.555387 
L 130.072727 -227.227788 
L 125.140909 -227.227788 
L 125.140909 -231.700212 
L 120.209091 -231.700212 
L 120.209091 -235.864893 
L 115.277273 -235.864893 
L 115.277273 -240.740685 
L 110.345455 -240.740685 
L 110.345455 -244.321048 
L 105.413636 -244.321048 
L 105.413636 -249.614697 
L 100.481818 -249.614697 
L 100.481818 -256.968742 
L 95.55 -256.968742 
L 95.55 -264.790083 
L 90.618182 -264.790083 
L 90.618182 -275.673059 
L 85.686364 -275.673059 
L 85.686364 -304.445455 
L 80.754545 -304.445455 
z
" id="m2eec081f0e" style="stroke:#4c72b0;stroke-opacity:0.25;"/>
    </defs>
    <g clip-path="url(#p8adf5fa002)">
     <use style="fill:#4c72b0;fill-opacity:0.25;stroke:#4c72b0;stroke-opacity:0.25;" x="0" xlink:href="#m2eec081f0e" y="360"/>
    </g>
   </g>
   <g id="PolyCollection_2">
    <defs>
     <path d="M 80.754545 -304.445455 
L 80.754545 -304.445455 
L 85.686364 -304.445455 
L 85.686364 -300.273046 
L 90.618182 -300.273046 
L 90.618182 -297.891599 
L 95.55 -297.891599 
L 95.55 -294.964045 
L 100.481818 -294.964045 
L 100.481818 -292.485304 
L 105.413636 -292.485304 
L 105.413636 -290.025291 
L 110.345455 -290.025291 
L 110.345455 -288.591033 
L 115.277273 -288.591033 
L 115.277273 -287.56506 
L 120.209091 -287.56506 
L 120.209091 -286.946953 
L 125.140909 -286.946953 
L 125.140909 -285.703596 
L 130.072727 -285.703596 
L 130.072727 -284.453243 
L 135.004545 -284.453243 
L 135.004545 -283.405988 
L 139.936364 -283.405988 
L 139.936364 -280.88648 
L 144.868182 -280.88648 
L 144.868182 -279.830271 
L 149.8 -279.830271 
L 149.8 -278.980239 
L 154.731818 -278.980239 
L 154.731818 -277.484248 
L 159.663636 -277.484248 
L 159.663636 -276.411036 
L 164.595455 -276.411036 
L 164.595455 -275.764889 
L 169.527273 -275.764889 
L 169.527273 -274.464903 
L 174.459091 -274.464903 
L 174.459091 -273.373264 
L 179.390909 -273.373264 
L 179.390909 -273.373264 
L 184.322727 -273.373264 
L 184.322727 -272.48621 
L 189.254545 -272.48621 
L 189.254545 -270.925633 
L 194.186364 -270.925633 
L 194.186364 -270.027774 
L 199.118182 -270.027774 
L 199.118182 -269.799744 
L 204.05 -269.799744 
L 204.05 -269.337795 
L 208.981818 -269.337795 
L 208.981818 -268.870227 
L 213.913636 -268.870227 
L 213.913636 -268.396203 
L 218.845455 -268.396203 
L 218.845455 -267.676954 
L 223.777273 -267.676954 
L 223.777273 -267.43398 
L 228.709091 -267.43398 
L 228.709091 -266.450541 
L 233.640909 -266.450541 
L 233.640909 -264.45976 
L 238.572727 -264.45976 
L 238.572727 -263.703144 
L 243.504545 -263.703144 
L 243.504545 -262.940828 
L 248.436364 -262.940828 
L 248.436364 -262.426159 
L 253.368182 -262.426159 
L 253.368182 -261.383768 
L 258.3 -261.383768 
L 258.3 -260.852758 
L 263.231818 -260.852758 
L 263.231818 -260.048322 
L 268.163636 -260.048322 
L 268.163636 -258.419014 
L 273.095455 -258.419014 
L 273.095455 -256.77671 
L 278.027273 -256.77671 
L 278.027273 -255.946143 
L 282.959091 -255.946143 
L 282.959091 -254.264123 
L 287.890909 -254.264123 
L 287.890909 -252.844975 
L 292.822727 -252.844975 
L 292.822727 -251.407466 
L 297.754545 -251.407466 
L 297.754545 -251.11511 
L 302.686364 -251.11511 
L 302.686364 -250.522865 
L 307.618182 -250.522865 
L 307.618182 -249.616171 
L 312.55 -249.616171 
L 312.55 -248.385958 
L 317.481818 -248.385958 
L 317.481818 -247.45052 
L 322.413636 -247.45052 
L 322.413636 -246.500702 
L 327.345455 -246.500702 
L 327.345455 -245.536006 
L 332.277273 -245.536006 
L 332.277273 -245.536006 
L 337.209091 -245.536006 
L 337.209091 -244.521979 
L 342.140909 -244.521979 
L 342.140909 -243.828137 
L 347.072727 -243.828137 
L 347.072727 -241.686817 
L 352.004545 -241.686817 
L 352.004545 -240.585872 
L 356.936364 -240.585872 
L 356.936364 -239.838173 
L 361.868182 -239.838173 
L 361.868182 -239.838173 
L 366.8 -239.838173 
L 366.8 -238.633532 
L 371.731818 -238.633532 
L 371.731818 -238.221346 
L 376.663636 -238.221346 
L 376.663636 -237.796435 
L 381.595455 -237.796435 
L 381.595455 -236.472315 
L 386.527273 -236.472315 
L 386.527273 -236.008751 
L 391.459091 -236.008751 
L 391.459091 -236.008751 
L 396.390909 -236.008751 
L 396.390909 -234.489394 
L 401.322727 -234.489394 
L 401.322727 -232.860036 
L 406.254545 -232.860036 
L 406.254545 -229.435192 
L 411.186364 -229.435192 
L 411.186364 -226.983085 
L 416.118182 -226.983085 
L 416.118182 -224.292991 
L 421.05 -224.292991 
L 421.05 -220.580314 
L 425.981818 -220.580314 
L 425.981818 -213.950242 
L 430.913636 -213.950242 
L 430.913636 -211.892918 
L 435.845455 -211.892918 
L 435.845455 -207.347876 
L 435.845455 -227.856641 
L 435.845455 -227.856641 
L 435.845455 -230.863535 
L 430.913636 -230.863535 
L 430.913636 -232.38995 
L 425.981818 -232.38995 
L 425.981818 -237.527371 
L 421.05 -237.527371 
L 421.05 -240.424559 
L 416.118182 -240.424559 
L 416.118182 -242.549324 
L 411.186364 -242.549324 
L 411.186364 -244.510755 
L 406.254545 -244.510755 
L 406.254545 -247.265991 
L 401.322727 -247.265991 
L 401.322727 -248.57923 
L 396.390909 -248.57923 
L 396.390909 -249.816164 
L 391.459091 -249.816164 
L 391.459091 -249.816164 
L 386.527273 -249.816164 
L 386.527273 -250.199541 
L 381.595455 -250.199541 
L 381.595455 -251.302686 
L 376.663636 -251.302686 
L 376.663636 -251.658451 
L 371.731818 -251.658451 
L 371.731818 -252.005211 
L 366.8 -252.005211 
L 366.8 -253.021439 
L 361.868182 -253.021439 
L 361.868182 -253.021439 
L 356.936364 -253.021439 
L 356.936364 -253.659017 
L 352.004545 -253.659017 
L 352.004545 -254.598731 
L 347.072727 -254.598731 
L 347.072727 -256.427978 
L 342.140909 -256.427978 
L 342.140909 -257.021516 
L 337.209091 -257.021516 
L 337.209091 -257.891056 
L 332.277273 -257.891056 
L 332.277273 -257.891056 
L 327.345455 -257.891056 
L 327.345455 -258.723435 
L 322.413636 -258.723435 
L 322.413636 -259.543239 
L 317.481818 -259.543239 
L 317.481818 -260.350869 
L 312.55 -260.350869 
L 312.55 -261.412651 
L 307.618182 -261.412651 
L 307.618182 -262.195449 
L 302.686364 -262.195449 
L 302.686364 -262.707574 
L 297.754545 -262.707574 
L 297.754545 -262.960645 
L 292.822727 -262.960645 
L 292.822727 -264.205832 
L 287.890909 -264.205832 
L 287.890909 -265.433419 
L 282.959091 -265.433419 
L 282.959091 -266.885704 
L 278.027273 -266.885704 
L 278.027273 -267.601996 
L 273.095455 -267.601996 
L 273.095455 -269.016421 
L 268.163636 -269.016421 
L 268.163636 -270.415277 
L 263.231818 -270.415277 
L 263.231818 -271.10504 
L 258.3 -271.10504 
L 258.3 -271.56025 
L 253.368182 -271.56025 
L 253.368182 -272.454645 
L 248.436364 -272.454645 
L 248.436364 -272.896189 
L 243.504545 -272.896189 
L 243.504545 -273.550372 
L 238.572727 -273.550372 
L 238.572727 -274.199042 
L 233.640909 -274.199042 
L 233.640909 -275.90263 
L 228.709091 -275.90263 
L 228.709091 -276.742044 
L 223.777273 -276.742044 
L 223.777273 -276.949448 
L 218.845455 -276.949448 
L 218.845455 -277.563858 
L 213.913636 -277.563858 
L 213.913636 -277.968804 
L 208.981818 -277.968804 
L 208.981818 -278.368559 
L 204.05 -278.368559 
L 204.05 -278.763726 
L 199.118182 -278.763726 
L 199.118182 -278.958996 
L 194.186364 -278.958996 
L 194.186364 -279.728511 
L 189.254545 -279.728511 
L 189.254545 -281.062216 
L 184.322727 -281.062216 
L 184.322727 -281.817862 
L 179.390909 -281.817862 
L 179.390909 -281.817862 
L 174.459091 -281.817862 
L 174.459091 -282.747041 
L 169.527273 -282.747041 
L 169.527273 -283.850231 
L 164.595455 -283.850231 
L 164.595455 -284.397119 
L 159.663636 -284.397119 
L 159.663636 -285.302957 
L 154.731818 -285.302957 
L 154.731818 -286.559929 
L 149.8 -286.559929 
L 149.8 -287.271227 
L 144.868182 -287.271227 
L 144.868182 -288.152142 
L 139.936364 -288.152142 
L 139.936364 -290.237206 
L 135.004545 -290.237206 
L 135.004545 -291.095826 
L 130.072727 -291.095826 
L 130.072727 -292.114831 
L 125.140909 -292.114831 
L 125.140909 -293.120963 
L 120.209091 -293.120963 
L 120.209091 -293.61843 
L 115.277273 -293.61843 
L 115.277273 -294.439693 
L 110.345455 -294.439693 
L 110.345455 -295.57639 
L 105.413636 -295.57639 
L 105.413636 -297.488798 
L 100.481818 -297.488798 
L 100.481818 -299.352863 
L 95.55 -299.352863 
L 95.55 -301.438249 
L 90.618182 -301.438249 
L 90.618182 -302.976404 
L 85.686364 -302.976404 
L 85.686364 -304.445455 
L 80.754545 -304.445455 
z
" id="m8fe02d5d5e" style="stroke:#dd8452;stroke-opacity:0.25;"/>
    </defs>
    <g clip-path="url(#p8adf5fa002)">
     <use style="fill:#dd8452;fill-opacity:0.25;stroke:#dd8452;stroke-opacity:0.25;" x="0" xlink:href="#m8fe02d5d5e" y="360"/>
    </g>
   </g>
   <g id="PolyCollection_3">
    <defs>
     <path d="M 80.754545 -304.445455 
L 80.754545 -304.445455 
L 85.686364 -304.445455 
L 85.686364 -286.731253 
L 90.618182 -286.731253 
L 90.618182 -284.998316 
L 95.55 -284.998316 
L 95.55 -283.215802 
L 100.481818 -283.215802 
L 100.481818 -282.302726 
L 105.413636 -282.302726 
L 105.413636 -281.050669 
L 110.345455 -281.050669 
L 110.345455 -280.732333 
L 115.277273 -280.732333 
L 115.277273 -279.752646 
L 120.209091 -279.752646 
L 120.209091 -278.755092 
L 125.140909 -278.755092 
L 125.140909 -278.073039 
L 130.072727 -278.073039 
L 130.072727 -278.073039 
L 135.004545 -278.073039 
L 135.004545 -276.644046 
L 139.936364 -276.644046 
L 139.936364 -275.917479 
L 144.868182 -275.917479 
L 144.868182 -275.917479 
L 149.8 -275.917479 
L 149.8 -275.917479 
L 154.731818 -275.917479 
L 154.731818 -274.352349 
L 159.663636 -274.352349 
L 159.663636 -273.551424 
L 164.595455 -273.551424 
L 164.595455 -273.143423 
L 169.527273 -273.143423 
L 169.527273 -272.726227 
L 174.459091 -272.726227 
L 174.459091 -272.726227 
L 179.390909 -272.726227 
L 179.390909 -272.288084 
L 184.322727 -272.288084 
L 184.322727 -272.288084 
L 189.254545 -272.288084 
L 189.254545 -272.288084 
L 194.186364 -272.288084 
L 194.186364 -272.288084 
L 199.118182 -272.288084 
L 199.118182 -272.288084 
L 204.05 -272.288084 
L 204.05 -271.290133 
L 208.981818 -271.290133 
L 208.981818 -271.290133 
L 213.913636 -271.290133 
L 213.913636 -271.290133 
L 218.845455 -271.290133 
L 218.845455 -271.290133 
L 223.777273 -271.290133 
L 223.777273 -271.290133 
L 228.709091 -271.290133 
L 228.709091 -270.729677 
L 233.640909 -270.729677 
L 233.640909 -270.160246 
L 238.572727 -270.160246 
L 238.572727 -270.160246 
L 243.504545 -270.160246 
L 243.504545 -269.572261 
L 248.436364 -269.572261 
L 248.436364 -269.572261 
L 253.368182 -269.572261 
L 253.368182 -269.572261 
L 258.3 -269.572261 
L 258.3 -269.572261 
L 263.231818 -269.572261 
L 263.231818 -269.572261 
L 268.163636 -269.572261 
L 268.163636 -269.572261 
L 273.095455 -269.572261 
L 273.095455 -269.572261 
L 278.027273 -269.572261 
L 278.027273 -269.572261 
L 282.959091 -269.572261 
L 282.959091 -269.572261 
L 287.890909 -269.572261 
L 287.890909 -269.572261 
L 292.822727 -269.572261 
L 292.822727 -269.572261 
L 297.754545 -269.572261 
L 297.754545 -269.572261 
L 302.686364 -269.572261 
L 302.686364 -268.750562 
L 307.618182 -268.750562 
L 307.618182 -268.750562 
L 312.55 -268.750562 
L 312.55 -268.750562 
L 317.481818 -268.750562 
L 317.481818 -268.750562 
L 322.413636 -268.750562 
L 322.413636 -268.750562 
L 327.345455 -268.750562 
L 327.345455 -268.750562 
L 332.277273 -268.750562 
L 332.277273 -268.750562 
L 337.209091 -268.750562 
L 337.209091 -268.750562 
L 342.140909 -268.750562 
L 342.140909 -266.491636 
L 347.072727 -266.491636 
L 347.072727 -266.491636 
L 352.004545 -266.491636 
L 352.004545 -266.491636 
L 356.936364 -266.491636 
L 356.936364 -263.969876 
L 361.868182 -263.969876 
L 361.868182 -263.969876 
L 366.8 -263.969876 
L 366.8 -263.969876 
L 371.731818 -263.969876 
L 371.731818 -262.51867 
L 376.663636 -262.51867 
L 376.663636 -262.51867 
L 381.595455 -262.51867 
L 381.595455 -260.933892 
L 386.527273 -260.933892 
L 386.527273 -260.933892 
L 391.459091 -260.933892 
L 391.459091 -260.933892 
L 396.390909 -260.933892 
L 396.390909 -260.933892 
L 401.322727 -260.933892 
L 401.322727 -260.933892 
L 406.254545 -260.933892 
L 406.254545 -260.933892 
L 411.186364 -260.933892 
L 411.186364 -260.933892 
L 416.118182 -260.933892 
L 416.118182 -260.933892 
L 421.05 -260.933892 
L 421.05 -260.933892 
L 425.981818 -260.933892 
L 425.981818 -260.933892 
L 430.913636 -260.933892 
L 430.913636 -260.933892 
L 435.845455 -260.933892 
L 435.845455 -260.933892 
L 435.845455 -275.487503 
L 435.845455 -275.487503 
L 435.845455 -275.487503 
L 430.913636 -275.487503 
L 430.913636 -275.487503 
L 425.981818 -275.487503 
L 425.981818 -275.487503 
L 421.05 -275.487503 
L 421.05 -275.487503 
L 416.118182 -275.487503 
L 416.118182 -275.487503 
L 411.186364 -275.487503 
L 411.186364 -275.487503 
L 406.254545 -275.487503 
L 406.254545 -275.487503 
L 401.322727 -275.487503 
L 401.322727 -275.487503 
L 396.390909 -275.487503 
L 396.390909 -275.487503 
L 391.459091 -275.487503 
L 391.459091 -275.487503 
L 386.527273 -275.487503 
L 386.527273 -275.487503 
L 381.595455 -275.487503 
L 381.595455 -276.356387 
L 376.663636 -276.356387 
L 376.663636 -276.356387 
L 371.731818 -276.356387 
L 371.731818 -277.166209 
L 366.8 -277.166209 
L 366.8 -277.166209 
L 361.868182 -277.166209 
L 361.868182 -277.166209 
L 356.936364 -277.166209 
L 356.936364 -278.621928 
L 352.004545 -278.621928 
L 352.004545 -278.621928 
L 347.072727 -278.621928 
L 347.072727 -278.621928 
L 342.140909 -278.621928 
L 342.140909 -279.93911 
L 337.209091 -279.93911 
L 337.209091 -279.93911 
L 332.277273 -279.93911 
L 332.277273 -279.93911 
L 327.345455 -279.93911 
L 327.345455 -279.93911 
L 322.413636 -279.93911 
L 322.413636 -279.93911 
L 317.481818 -279.93911 
L 317.481818 -279.93911 
L 312.55 -279.93911 
L 312.55 -279.93911 
L 307.618182 -279.93911 
L 307.618182 -279.93911 
L 302.686364 -279.93911 
L 302.686364 -280.473216 
L 297.754545 -280.473216 
L 297.754545 -280.473216 
L 292.822727 -280.473216 
L 292.822727 -280.473216 
L 287.890909 -280.473216 
L 287.890909 -280.473216 
L 282.959091 -280.473216 
L 282.959091 -280.473216 
L 278.027273 -280.473216 
L 278.027273 -280.473216 
L 273.095455 -280.473216 
L 273.095455 -280.473216 
L 268.163636 -280.473216 
L 268.163636 -280.473216 
L 263.231818 -280.473216 
L 263.231818 -280.473216 
L 258.3 -280.473216 
L 258.3 -280.473216 
L 253.368182 -280.473216 
L 253.368182 -280.473216 
L 248.436364 -280.473216 
L 248.436364 -280.473216 
L 243.504545 -280.473216 
L 243.504545 -280.898187 
L 238.572727 -280.898187 
L 238.572727 -280.898187 
L 233.640909 -280.898187 
L 233.640909 -281.311694 
L 228.709091 -281.311694 
L 228.709091 -281.718655 
L 223.777273 -281.718655 
L 223.777273 -281.718655 
L 218.845455 -281.718655 
L 218.845455 -281.718655 
L 213.913636 -281.718655 
L 213.913636 -281.718655 
L 208.981818 -281.718655 
L 208.981818 -281.718655 
L 204.05 -281.718655 
L 204.05 -282.46329 
L 199.118182 -282.46329 
L 199.118182 -282.46329 
L 194.186364 -282.46329 
L 194.186364 -282.46329 
L 189.254545 -282.46329 
L 189.254545 -282.46329 
L 184.322727 -282.46329 
L 184.322727 -282.46329 
L 179.390909 -282.46329 
L 179.390909 -282.799986 
L 174.459091 -282.799986 
L 174.459091 -282.799986 
L 169.527273 -282.799986 
L 169.527273 -283.123668 
L 164.595455 -283.123668 
L 164.595455 -283.441145 
L 159.663636 -283.441145 
L 159.663636 -284.064879 
L 154.731818 -284.064879 
L 154.731818 -285.281555 
L 149.8 -285.281555 
L 149.8 -285.281555 
L 144.868182 -285.281555 
L 144.868182 -285.281555 
L 139.936364 -285.281555 
L 139.936364 -285.852381 
L 135.004545 -285.852381 
L 135.004545 -286.971942 
L 130.072727 -286.971942 
L 130.072727 -286.971942 
L 125.140909 -286.971942 
L 125.140909 -287.508561 
L 120.209091 -287.508561 
L 120.209091 -288.293826 
L 115.277273 -288.293826 
L 115.277273 -289.063288 
L 110.345455 -289.063288 
L 110.345455 -289.313717 
L 105.413636 -289.313717 
L 105.413636 -290.297309 
L 100.481818 -290.297309 
L 100.481818 -291.013875 
L 95.55 -291.013875 
L 95.55 -292.406897 
L 90.618182 -292.406897 
L 90.618182 -293.7515 
L 85.686364 -293.7515 
L 85.686364 -304.445455 
L 80.754545 -304.445455 
z
" id="m165243b281" style="stroke:#55a868;stroke-opacity:0.25;"/>
    </defs>
    <g clip-path="url(#p8adf5fa002)">
     <use style="fill:#55a868;fill-opacity:0.25;stroke:#55a868;stroke-opacity:0.25;" x="0" xlink:href="#m165243b281" y="360"/>
    </g>
   </g>
   <g id="line2d_17">
    <path clip-path="url(#p8adf5fa002)" d="M 80.754545 55.554545 
L 85.686364 55.554545 
L 85.686364 87.572546 
L 90.618182 87.572546 
L 90.618182 98.973687 
L 95.55 98.973687 
L 95.55 107.114996 
L 100.481818 107.114996 
L 100.481818 114.739912 
L 105.413636 114.739912 
L 105.413636 120.213741 
L 110.345455 120.213741 
L 110.345455 123.909909 
L 115.277273 123.909909 
L 115.277273 128.936164 
L 120.209091 128.936164 
L 120.209091 133.224378 
L 125.140909 133.224378 
L 125.140909 137.824333 
L 130.072727 137.824333 
L 130.072727 142.624578 
L 135.004545 142.624578 
L 135.004545 145.366919 
L 139.936364 145.366919 
L 139.936364 148.410337 
L 144.868182 148.410337 
L 144.868182 152.657315 
L 149.8 152.657315 
L 149.8 155.275949 
L 154.731818 155.275949 
L 154.731818 158.721626 
L 159.663636 158.721626 
L 159.663636 161.545322 
L 164.595455 161.545322 
L 164.595455 164.546214 
L 169.527273 164.546214 
L 169.527273 166.903371 
L 174.459091 166.903371 
L 174.459091 168.886424 
L 179.390909 168.886424 
L 179.390909 171.329355 
L 184.322727 171.329355 
L 184.322727 173.2174 
L 189.254545 173.2174 
L 189.254545 176.164309 
L 194.186364 176.164309 
L 194.186364 177.514424 
L 199.118182 177.514424 
L 199.118182 180.871606 
L 204.05 180.871606 
L 204.05 183.828442 
L 208.981818 183.828442 
L 208.981818 185.873426 
L 213.913636 185.873426 
L 213.913636 187.641178 
L 218.845455 187.641178 
L 218.845455 189.112315 
L 223.777273 189.112315 
L 223.777273 191.430752 
L 228.709091 191.430752 
L 228.709091 193.287912 
L 233.640909 193.287912 
L 233.640909 194.49345 
L 238.572727 194.49345 
L 238.572727 197.294602 
L 243.504545 197.294602 
L 243.504545 199.083909 
L 248.436364 199.083909 
L 248.436364 200.903163 
L 253.368182 200.903163 
L 253.368182 202.947471 
L 258.3 202.947471 
L 258.3 204.465958 
L 263.231818 204.465958 
L 263.231818 206.77889 
L 268.163636 206.77889 
L 268.163636 208.152081 
L 273.095455 208.152081 
L 273.095455 209.748499 
L 278.027273 209.748499 
L 278.027273 211.77334 
L 282.959091 211.77334 
L 282.959091 213.430922 
L 287.890909 213.430922 
L 287.890909 215.344518 
L 292.822727 215.344518 
L 292.822727 217.519007 
L 297.754545 217.519007 
L 297.754545 218.633037 
L 302.686364 218.633037 
L 302.686364 219.316069 
L 307.618182 219.316069 
L 307.618182 221.418578 
L 312.55 221.418578 
L 312.55 223.826803 
L 317.481818 223.826803 
L 317.481818 225.312596 
L 322.413636 225.312596 
L 322.413636 228.375434 
L 327.345455 228.375434 
L 327.345455 230.227425 
L 332.277273 230.227425 
L 332.277273 232.405873 
L 337.209091 232.405873 
L 337.209091 233.813203 
L 342.140909 233.813203 
L 342.140909 236.769053 
L 347.072727 236.769053 
L 347.072727 238.886915 
L 352.004545 238.886915 
L 352.004545 240.766257 
L 356.936364 240.766257 
L 356.936364 242.740622 
L 361.868182 242.740622 
L 361.868182 245.526098 
L 366.8 245.526098 
L 366.8 248.411476 
L 371.731818 248.411476 
L 371.731818 250.677632 
L 376.663636 250.677632 
L 376.663636 252.651526 
L 381.595455 252.651526 
L 381.595455 254.358122 
L 386.527273 254.358122 
L 386.527273 256.159529 
L 391.459091 256.159529 
L 391.459091 258.085357 
L 396.390909 258.085357 
L 396.390909 258.604699 
L 401.322727 258.604699 
L 401.322727 261.928489 
L 406.254545 261.928489 
L 406.254545 266.204749 
L 411.186364 266.204749 
L 411.186364 270.284748 
L 416.118182 270.284748 
L 416.118182 274.111973 
L 421.05 274.111973 
L 421.05 276.849911 
L 425.981818 276.849911 
L 425.981818 279.999568 
L 430.913636 279.999568 
L 430.913636 284.962665 
L 435.845455 284.962665 
L 435.845455 290.442751 
L 435.845455 290.442751 
" style="fill:none;stroke:#4c72b0;stroke-linecap:round;stroke-width:1.5;"/>
   </g>
   <g id="line2d_18">
    <path clip-path="url(#p8adf5fa002)" d="M 80.754545 55.554545 
L 85.686364 55.554545 
L 85.686364 58.031517 
L 90.618182 58.031517 
L 90.618182 59.996134 
L 95.55 59.996134 
L 95.55 62.506617 
L 100.481818 62.506617 
L 100.481818 64.680485 
L 105.413636 64.680485 
L 105.413636 66.869002 
L 110.345455 66.869002 
L 110.345455 68.155706 
L 115.277273 68.155706 
L 115.277273 69.080146 
L 120.209091 69.080146 
L 120.209091 69.638375 
L 125.140909 69.638375 
L 125.140909 70.763891 
L 130.072727 70.763891 
L 130.072727 71.899263 
L 135.004545 71.899263 
L 135.004545 72.852737 
L 139.936364 72.852737 
L 139.936364 75.156415 
L 144.868182 75.156415 
L 144.868182 76.125547 
L 149.8 76.125547 
L 149.8 76.906635 
L 154.731818 76.906635 
L 154.731818 78.283835 
L 159.663636 78.283835 
L 159.663636 79.273884 
L 164.595455 79.273884 
L 164.595455 79.870718 
L 169.527273 79.870718 
L 169.527273 81.072911 
L 174.459091 81.072911 
L 174.459091 82.083796 
L 184.322727 82.083796 
L 184.322727 82.90542 
L 189.254545 82.90542 
L 189.254545 84.353067 
L 194.186364 84.353067 
L 194.186364 85.187045 
L 199.118182 85.187045 
L 199.118182 85.398737 
L 204.05 85.398737 
L 204.05 85.827327 
L 208.981818 85.827327 
L 208.981818 86.260976 
L 213.913636 86.260976 
L 213.913636 86.700396 
L 218.845455 86.700396 
L 218.845455 87.367076 
L 223.777273 87.367076 
L 223.777273 87.59219 
L 228.709091 87.59219 
L 228.709091 88.50325 
L 233.640909 88.50325 
L 233.640909 90.349733 
L 238.572727 90.349733 
L 238.572727 91.052105 
L 243.504545 91.052105 
L 243.504545 91.760081 
L 248.436364 91.760081 
L 248.436364 92.237968 
L 253.368182 92.237968 
L 253.368182 93.205869 
L 258.3 93.205869 
L 258.3 93.698672 
L 263.231818 93.698672 
L 263.231818 94.445286 
L 268.163636 94.445286 
L 268.163636 95.958392 
L 273.095455 95.958392 
L 273.095455 97.48592 
L 278.027273 97.48592 
L 278.027273 98.258939 
L 282.959091 98.258939 
L 282.959091 99.825267 
L 287.890909 99.825267 
L 287.890909 101.147988 
L 292.822727 101.147988 
L 292.822727 102.488706 
L 297.754545 102.488706 
L 297.754545 102.761272 
L 302.686364 102.761272 
L 302.686364 103.313116 
L 307.618182 103.313116 
L 307.618182 104.157245 
L 312.55 104.157245 
L 312.55 105.30235 
L 317.481818 105.30235 
L 317.481818 106.173196 
L 322.413636 106.173196 
L 322.413636 107.057275 
L 327.345455 107.057275 
L 327.345455 107.955033 
L 337.209091 107.955033 
L 337.209091 108.895672 
L 342.140909 108.895672 
L 342.140909 109.538492 
L 347.072727 109.538492 
L 347.072727 111.520922 
L 352.004545 111.520922 
L 352.004545 112.539732 
L 356.936364 112.539732 
L 356.936364 113.231302 
L 366.8 113.231302 
L 366.8 114.339414 
L 371.731818 114.339414 
L 371.731818 114.718042 
L 376.663636 114.718042 
L 376.663636 115.107419 
L 381.595455 115.107419 
L 381.595455 116.317769 
L 386.527273 116.317769 
L 386.527273 116.739945 
L 396.390909 116.739945 
L 396.390909 118.112822 
L 401.322727 118.112822 
L 401.322727 119.577823 
L 406.254545 119.577823 
L 406.254545 122.654579 
L 411.186364 122.654579 
L 411.186364 124.85144 
L 416.118182 124.85144 
L 416.118182 127.246785 
L 421.05 127.246785 
L 421.05 130.53358 
L 425.981818 130.53358 
L 425.981818 136.384243 
L 430.913636 136.384243 
L 430.913636 138.162658 
L 435.845455 138.162658 
L 435.845455 141.890186 
L 435.845455 141.890186 
" style="fill:none;stroke:#dd8452;stroke-linecap:round;stroke-width:1.5;"/>
   </g>
   <g id="line2d_19">
    <path clip-path="url(#p8adf5fa002)" d="M 80.754545 55.554545 
L 85.686364 55.554545 
L 85.686364 69.326881 
L 90.618182 69.326881 
L 90.618182 70.865247 
L 95.55 70.865247 
L 95.55 72.451871 
L 100.481818 72.451871 
L 100.481818 73.265828 
L 105.413636 73.265828 
L 105.413636 74.381987 
L 110.345455 74.381987 
L 110.345455 74.66589 
L 115.277273 74.66589 
L 115.277273 75.538619 
L 120.209091 75.538619 
L 120.209091 76.428044 
L 125.140909 76.428044 
L 125.140909 77.035831 
L 135.004545 77.035831 
L 135.004545 78.305985 
L 139.936364 78.305985 
L 139.936364 78.952599 
L 154.731818 78.952599 
L 154.731818 80.337346 
L 159.663636 80.337346 
L 159.663636 81.046518 
L 164.595455 81.046518 
L 164.595455 81.407592 
L 169.527273 81.407592 
L 169.527273 81.776214 
L 179.390909 81.776214 
L 179.390909 82.161379 
L 204.05 82.161379 
L 204.05 83.025264 
L 228.709091 83.025264 
L 228.709091 83.503685 
L 233.640909 83.503685 
L 233.640909 83.989788 
L 243.504545 83.989788 
L 243.504545 84.490534 
L 302.686364 84.490534 
L 302.686364 85.154522 
L 342.140909 85.154522 
L 342.140909 86.889235 
L 356.936364 86.889235 
L 356.936364 88.816694 
L 371.731818 88.816694 
L 371.731818 89.908921 
L 381.595455 89.908921 
L 381.595455 91.092167 
L 435.845455 91.092167 
L 435.845455 91.092167 
" style="fill:none;stroke:#55a868;stroke-linecap:round;stroke-width:1.5;"/>
   </g>
   <g id="patch_3">
    <path d="M 63 315 
L 63 43.2 
" style="fill:none;stroke:#ffffff;stroke-linecap:square;stroke-linejoin:miter;stroke-width:1.25;"/>
   </g>
   <g id="patch_4">
    <path d="M 453.6 315 
L 453.6 43.2 
" style="fill:none;stroke:#ffffff;stroke-linecap:square;stroke-linejoin:miter;stroke-width:1.25;"/>
   </g>
   <g id="patch_5">
    <path d="M 63 315 
L 453.6 315 
" style="fill:none;stroke:#ffffff;stroke-linecap:square;stroke-linejoin:miter;stroke-width:1.25;"/>
   </g>
   <g id="patch_6">
    <path d="M 63 43.2 
L 453.6 43.2 
" style="fill:none;stroke:#ffffff;stroke-linecap:square;stroke-linejoin:miter;stroke-width:1.25;"/>
   </g>
   <g id="text_19">
    <!-- Survival curves, stratified by TechSupport -->
    <g style="fill:#262626;" transform="translate(138.381563 33.2)scale(0.12 -0.12)">
     <defs>
      <path d="M 52.390625 36.53125 
L 38.875 34.078125 
Q 38.1875 38.140625 35.765625 40.1875 
Q 33.34375 42.234375 29.5 42.234375 
Q 24.359375 42.234375 21.3125 38.6875 
Q 18.265625 35.15625 18.265625 26.859375 
Q 18.265625 17.625 21.359375 13.8125 
Q 24.46875 10.015625 29.6875 10.015625 
Q 33.59375 10.015625 36.078125 12.234375 
Q 38.578125 14.453125 39.59375 19.875 
L 53.078125 17.578125 
Q 50.984375 8.296875 45.015625 3.5625 
Q 39.0625 -1.171875 29.046875 -1.171875 
Q 17.671875 -1.171875 10.90625 6 
Q 4.15625 13.1875 4.15625 25.875 
Q 4.15625 38.71875 10.9375 45.875 
Q 17.71875 53.03125 29.296875 53.03125 
Q 38.765625 53.03125 44.359375 48.953125 
Q 49.953125 44.875 52.390625 36.53125 
z
" id="Arial-BoldMT-99"/>
      <path d="M 6.84375 13.71875 
L 20.5625 13.71875 
L 20.5625 3.90625 
Q 20.5625 -2.046875 19.53125 -5.484375 
Q 18.5 -8.9375 15.640625 -11.671875 
Q 12.796875 -14.40625 8.40625 -15.96875 
L 5.71875 -10.296875 
Q 9.859375 -8.9375 11.609375 -6.546875 
Q 13.375 -4.15625 13.484375 0 
L 6.84375 0 
z
" id="Arial-BoldMT-44"/>
      <path d="M 1.171875 51.859375 
L 8.796875 51.859375 
L 8.796875 55.765625 
Q 8.796875 62.3125 10.1875 65.53125 
Q 11.578125 68.75 15.3125 70.765625 
Q 19.046875 72.796875 24.75 72.796875 
Q 30.609375 72.796875 36.234375 71.046875 
L 34.375 61.46875 
Q 31.109375 62.25 28.078125 62.25 
Q 25.09375 62.25 23.796875 60.859375 
Q 22.515625 59.46875 22.515625 55.515625 
L 22.515625 51.859375 
L 32.765625 51.859375 
L 32.765625 41.0625 
L 22.515625 41.0625 
L 22.515625 0 
L 8.796875 0 
L 8.796875 41.0625 
L 1.171875 41.0625 
z
" id="Arial-BoldMT-102"/>
      <path d="M 54.734375 0 
L 42 0 
L 42 7.625 
Q 38.8125 3.171875 34.484375 1 
Q 30.171875 -1.171875 25.78125 -1.171875 
Q 16.84375 -1.171875 10.46875 6.03125 
Q 4.109375 13.234375 4.109375 26.125 
Q 4.109375 39.3125 10.296875 46.171875 
Q 16.5 53.03125 25.984375 53.03125 
Q 34.671875 53.03125 41.015625 45.796875 
L 41.015625 71.578125 
L 54.734375 71.578125 
z
M 18.109375 27.046875 
Q 18.109375 18.75 20.40625 15.046875 
Q 23.734375 9.671875 29.6875 9.671875 
Q 34.421875 9.671875 37.734375 13.6875 
Q 41.0625 17.71875 41.0625 25.734375 
Q 41.0625 34.671875 37.84375 38.59375 
Q 34.625 42.53125 29.59375 42.53125 
Q 24.703125 42.53125 21.40625 38.640625 
Q 18.109375 34.765625 18.109375 27.046875 
z
" id="Arial-BoldMT-100"/>
     </defs>
     <use xlink:href="#Arial-BoldMT-83"/>
     <use x="66.699219" xlink:href="#Arial-BoldMT-117"/>
     <use x="127.783203" xlink:href="#Arial-BoldMT-114"/>
     <use x="166.699219" xlink:href="#Arial-BoldMT-118"/>
     <use x="222.314453" xlink:href="#Arial-BoldMT-105"/>
     <use x="250.097656" xlink:href="#Arial-BoldMT-118"/>
     <use x="305.712891" xlink:href="#Arial-BoldMT-97"/>
     <use x="361.328125" xlink:href="#Arial-BoldMT-108"/>
     <use x="389.111328" xlink:href="#Arial-BoldMT-32"/>
     <use x="416.894531" xlink:href="#Arial-BoldMT-99"/>
     <use x="472.509766" xlink:href="#Arial-BoldMT-117"/>
     <use x="533.59375" xlink:href="#Arial-BoldMT-114"/>
     <use x="572.509766" xlink:href="#Arial-BoldMT-118"/>
     <use x="628.125" xlink:href="#Arial-BoldMT-101"/>
     <use x="683.740234" xlink:href="#Arial-BoldMT-115"/>
     <use x="739.355469" xlink:href="#Arial-BoldMT-44"/>
     <use x="767.138672" xlink:href="#Arial-BoldMT-32"/>
     <use x="794.921875" xlink:href="#Arial-BoldMT-115"/>
     <use x="850.537109" xlink:href="#Arial-BoldMT-116"/>
     <use x="883.837891" xlink:href="#Arial-BoldMT-114"/>
     <use x="922.753906" xlink:href="#Arial-BoldMT-97"/>
     <use x="978.369141" xlink:href="#Arial-BoldMT-116"/>
     <use x="1011.669922" xlink:href="#Arial-BoldMT-105"/>
     <use x="1039.453125" xlink:href="#Arial-BoldMT-102"/>
     <use x="1072.753906" xlink:href="#Arial-BoldMT-105"/>
     <use x="1100.537109" xlink:href="#Arial-BoldMT-101"/>
     <use x="1156.152344" xlink:href="#Arial-BoldMT-100"/>
     <use x="1217.236328" xlink:href="#Arial-BoldMT-32"/>
     <use x="1245.019531" xlink:href="#Arial-BoldMT-98"/>
     <use x="1306.103516" xlink:href="#Arial-BoldMT-121"/>
     <use x="1361.71875" xlink:href="#Arial-BoldMT-32"/>
     <use x="1389.501953" xlink:href="#Arial-BoldMT-84"/>
     <use x="1443.210938" xlink:href="#Arial-BoldMT-101"/>
     <use x="1498.826172" xlink:href="#Arial-BoldMT-99"/>
     <use x="1554.441406" xlink:href="#Arial-BoldMT-104"/>
     <use x="1615.525391" xlink:href="#Arial-BoldMT-83"/>
     <use x="1682.224609" xlink:href="#Arial-BoldMT-117"/>
     <use x="1743.308594" xlink:href="#Arial-BoldMT-112"/>
     <use x="1804.392578" xlink:href="#Arial-BoldMT-112"/>
     <use x="1865.476562" xlink:href="#Arial-BoldMT-111"/>
     <use x="1926.560547" xlink:href="#Arial-BoldMT-114"/>
     <use x="1965.476562" xlink:href="#Arial-BoldMT-116"/>
    </g>
   </g>
   <g id="legend_1">
    <g id="patch_7">
     <path d="M 70.7 309.5 
L 197.600469 309.5 
Q 199.800469 309.5 199.800469 307.3 
L 199.800469 261.720469 
Q 199.800469 259.520469 197.600469 259.520469 
L 70.7 259.520469 
Q 68.5 259.520469 68.5 261.720469 
L 68.5 307.3 
Q 68.5 309.5 70.7 309.5 
z
" style="fill:#eaeaf2;opacity:0.8;stroke:#cccccc;stroke-linejoin:miter;"/>
    </g>
    <g id="line2d_20">
     <path d="M 72.9 267.944062 
L 94.9 267.944062 
" style="fill:none;stroke:#4c72b0;stroke-linecap:round;stroke-width:1.5;"/>
    </g>
    <g id="line2d_21"/>
    <g id="text_20">
     <!-- No -->
     <g style="fill:#262626;" transform="translate(103.7 271.794062)scale(0.11 -0.11)">
      <defs>
       <path d="M 7.625 0 
L 7.625 71.578125 
L 17.328125 71.578125 
L 54.9375 15.375 
L 54.9375 71.578125 
L 64.015625 71.578125 
L 64.015625 0 
L 54.296875 0 
L 16.703125 56.25 
L 16.703125 0 
z
" id="ArialMT-78"/>
       <path d="M 3.328125 25.921875 
Q 3.328125 40.328125 11.328125 47.265625 
Q 18.015625 53.03125 27.640625 53.03125 
Q 38.328125 53.03125 45.109375 46.015625 
Q 51.90625 39.015625 51.90625 26.65625 
Q 51.90625 16.65625 48.90625 10.90625 
Q 45.90625 5.171875 40.15625 2 
Q 34.421875 -1.171875 27.640625 -1.171875 
Q 16.75 -1.171875 10.03125 5.8125 
Q 3.328125 12.796875 3.328125 25.921875 
z
M 12.359375 25.921875 
Q 12.359375 15.96875 16.703125 11.015625 
Q 21.046875 6.0625 27.640625 6.0625 
Q 34.1875 6.0625 38.53125 11.03125 
Q 42.875 16.015625 42.875 26.21875 
Q 42.875 35.84375 38.5 40.796875 
Q 34.125 45.75 27.640625 45.75 
Q 21.046875 45.75 16.703125 40.8125 
Q 12.359375 35.890625 12.359375 25.921875 
z
" id="ArialMT-111"/>
      </defs>
      <use xlink:href="#ArialMT-78"/>
      <use x="72.216797" xlink:href="#ArialMT-111"/>
     </g>
    </g>
    <g id="line2d_22">
     <path d="M 72.9 283.503906 
L 94.9 283.503906 
" style="fill:none;stroke:#dd8452;stroke-linecap:round;stroke-width:1.5;"/>
    </g>
    <g id="line2d_23"/>
    <g id="text_21">
     <!-- Yes -->
     <g style="fill:#262626;" transform="translate(103.7 287.353906)scale(0.11 -0.11)">
      <defs>
       <path d="M 27.875 0 
L 27.875 30.328125 
L 0.296875 71.578125 
L 11.8125 71.578125 
L 25.921875 50 
Q 29.828125 43.953125 33.203125 37.890625 
Q 36.421875 43.5 41.015625 50.53125 
L 54.890625 71.578125 
L 65.921875 71.578125 
L 37.359375 30.328125 
L 37.359375 0 
z
" id="ArialMT-89"/>
       <path d="M 42.09375 16.703125 
L 51.171875 15.578125 
Q 49.03125 7.625 43.21875 3.21875 
Q 37.40625 -1.171875 28.375 -1.171875 
Q 17 -1.171875 10.328125 5.828125 
Q 3.65625 12.84375 3.65625 25.484375 
Q 3.65625 38.578125 10.390625 45.796875 
Q 17.140625 53.03125 27.875 53.03125 
Q 38.28125 53.03125 44.875 45.953125 
Q 51.46875 38.875 51.46875 26.03125 
Q 51.46875 25.25 51.421875 23.6875 
L 12.75 23.6875 
Q 13.234375 15.140625 17.578125 10.59375 
Q 21.921875 6.0625 28.421875 6.0625 
Q 33.25 6.0625 36.671875 8.59375 
Q 40.09375 11.140625 42.09375 16.703125 
z
M 13.234375 30.90625 
L 42.1875 30.90625 
Q 41.609375 37.453125 38.875 40.71875 
Q 34.671875 45.796875 27.984375 45.796875 
Q 21.921875 45.796875 17.796875 41.75 
Q 13.671875 37.703125 13.234375 30.90625 
z
" id="ArialMT-101"/>
       <path d="M 3.078125 15.484375 
L 11.765625 16.84375 
Q 12.5 11.625 15.84375 8.84375 
Q 19.1875 6.0625 25.203125 6.0625 
Q 31.25 6.0625 34.171875 8.515625 
Q 37.109375 10.984375 37.109375 14.3125 
Q 37.109375 17.28125 34.515625 19 
Q 32.71875 20.171875 25.53125 21.96875 
Q 15.875 24.421875 12.140625 26.203125 
Q 8.40625 27.984375 6.46875 31.125 
Q 4.546875 34.28125 4.546875 38.09375 
Q 4.546875 41.546875 6.125 44.5 
Q 7.71875 47.46875 10.453125 49.421875 
Q 12.5 50.921875 16.03125 51.96875 
Q 19.578125 53.03125 23.640625 53.03125 
Q 29.734375 53.03125 34.34375 51.265625 
Q 38.96875 49.515625 41.15625 46.5 
Q 43.359375 43.5 44.1875 38.484375 
L 35.59375 37.3125 
Q 35.015625 41.3125 32.203125 43.546875 
Q 29.390625 45.796875 24.265625 45.796875 
Q 18.21875 45.796875 15.625 43.796875 
Q 13.03125 41.796875 13.03125 39.109375 
Q 13.03125 37.40625 14.109375 36.03125 
Q 15.1875 34.625 17.484375 33.6875 
Q 18.796875 33.203125 25.25 31.453125 
Q 34.578125 28.953125 38.25 27.359375 
Q 41.9375 25.78125 44.03125 22.75 
Q 46.140625 19.734375 46.140625 15.234375 
Q 46.140625 10.84375 43.578125 6.953125 
Q 41.015625 3.078125 36.171875 0.953125 
Q 31.34375 -1.171875 25.25 -1.171875 
Q 15.140625 -1.171875 9.84375 3.03125 
Q 4.546875 7.234375 3.078125 15.484375 
z
" id="ArialMT-115"/>
      </defs>
      <use xlink:href="#ArialMT-89"/>
      <use x="57.574219" xlink:href="#ArialMT-101"/>
      <use x="113.189453" xlink:href="#ArialMT-115"/>
     </g>
    </g>
    <g id="line2d_24">
     <path d="M 72.9 299.06375 
L 94.9 299.06375 
" style="fill:none;stroke:#55a868;stroke-linecap:round;stroke-width:1.5;"/>
    </g>
    <g id="line2d_25"/>
    <g id="text_22">
     <!-- No internet service -->
     <g style="fill:#262626;" transform="translate(103.7 302.91375)scale(0.11 -0.11)">
      <defs>
       <path id="ArialMT-32"/>
       <path d="M 6.640625 61.46875 
L 6.640625 71.578125 
L 15.4375 71.578125 
L 15.4375 61.46875 
z
M 6.640625 0 
L 6.640625 51.859375 
L 15.4375 51.859375 
L 15.4375 0 
z
" id="ArialMT-105"/>
       <path d="M 6.59375 0 
L 6.59375 51.859375 
L 14.5 51.859375 
L 14.5 44.484375 
Q 20.21875 53.03125 31 53.03125 
Q 35.6875 53.03125 39.625 51.34375 
Q 43.5625 49.65625 45.515625 46.921875 
Q 47.46875 44.1875 48.25 40.4375 
Q 48.734375 37.984375 48.734375 31.890625 
L 48.734375 0 
L 39.9375 0 
L 39.9375 31.546875 
Q 39.9375 36.921875 38.90625 39.578125 
Q 37.890625 42.234375 35.28125 43.8125 
Q 32.671875 45.40625 29.15625 45.40625 
Q 23.53125 45.40625 19.453125 41.84375 
Q 15.375 38.28125 15.375 28.328125 
L 15.375 0 
z
" id="ArialMT-110"/>
       <path d="M 25.78125 7.859375 
L 27.046875 0.09375 
Q 23.34375 -0.6875 20.40625 -0.6875 
Q 15.625 -0.6875 12.984375 0.828125 
Q 10.359375 2.34375 9.28125 4.8125 
Q 8.203125 7.28125 8.203125 15.1875 
L 8.203125 45.015625 
L 1.765625 45.015625 
L 1.765625 51.859375 
L 8.203125 51.859375 
L 8.203125 64.703125 
L 16.9375 69.96875 
L 16.9375 51.859375 
L 25.78125 51.859375 
L 25.78125 45.015625 
L 16.9375 45.015625 
L 16.9375 14.703125 
Q 16.9375 10.9375 17.40625 9.859375 
Q 17.875 8.796875 18.921875 8.15625 
Q 19.96875 7.515625 21.921875 7.515625 
Q 23.390625 7.515625 25.78125 7.859375 
z
" id="ArialMT-116"/>
       <path d="M 6.5 0 
L 6.5 51.859375 
L 14.40625 51.859375 
L 14.40625 44 
Q 17.4375 49.515625 20 51.265625 
Q 22.5625 53.03125 25.640625 53.03125 
Q 30.078125 53.03125 34.671875 50.203125 
L 31.640625 42.046875 
Q 28.421875 43.953125 25.203125 43.953125 
Q 22.3125 43.953125 20.015625 42.21875 
Q 17.71875 40.484375 16.75 37.40625 
Q 15.28125 32.71875 15.28125 27.15625 
L 15.28125 0 
z
" id="ArialMT-114"/>
       <path d="M 21 0 
L 1.265625 51.859375 
L 10.546875 51.859375 
L 21.6875 20.796875 
Q 23.484375 15.765625 25 10.359375 
Q 26.171875 14.453125 28.265625 20.21875 
L 39.796875 51.859375 
L 48.828125 51.859375 
L 29.203125 0 
z
" id="ArialMT-118"/>
       <path d="M 40.4375 19 
L 49.078125 17.875 
Q 47.65625 8.9375 41.8125 3.875 
Q 35.984375 -1.171875 27.484375 -1.171875 
Q 16.84375 -1.171875 10.375 5.78125 
Q 3.90625 12.75 3.90625 25.734375 
Q 3.90625 34.125 6.6875 40.421875 
Q 9.46875 46.734375 15.15625 49.875 
Q 20.84375 53.03125 27.546875 53.03125 
Q 35.984375 53.03125 41.359375 48.75 
Q 46.734375 44.484375 48.25 36.625 
L 39.703125 35.296875 
Q 38.484375 40.53125 35.375 43.15625 
Q 32.28125 45.796875 27.875 45.796875 
Q 21.234375 45.796875 17.078125 41.03125 
Q 12.9375 36.28125 12.9375 25.984375 
Q 12.9375 15.53125 16.9375 10.796875 
Q 20.953125 6.0625 27.390625 6.0625 
Q 32.5625 6.0625 36.03125 9.234375 
Q 39.5 12.40625 40.4375 19 
z
" id="ArialMT-99"/>
      </defs>
      <use xlink:href="#ArialMT-78"/>
      <use x="72.216797" xlink:href="#ArialMT-111"/>
      <use x="127.832031" xlink:href="#ArialMT-32"/>
      <use x="155.615234" xlink:href="#ArialMT-105"/>
      <use x="177.832031" xlink:href="#ArialMT-110"/>
      <use x="233.447266" xlink:href="#ArialMT-116"/>
      <use x="261.230469" xlink:href="#ArialMT-101"/>
      <use x="316.845703" xlink:href="#ArialMT-114"/>
      <use x="350.146484" xlink:href="#ArialMT-110"/>
      <use x="405.761719" xlink:href="#ArialMT-101"/>
      <use x="461.376953" xlink:href="#ArialMT-116"/>
      <use x="489.160156" xlink:href="#ArialMT-32"/>
      <use x="516.943359" xlink:href="#ArialMT-115"/>
      <use x="566.943359" xlink:href="#ArialMT-101"/>
      <use x="622.558594" xlink:href="#ArialMT-114"/>
      <use x="655.859375" xlink:href="#ArialMT-118"/>
      <use x="705.859375" xlink:href="#ArialMT-105"/>
      <use x="728.076172" xlink:href="#ArialMT-99"/>
      <use x="778.076172" xlink:href="#ArialMT-101"/>
     </g>
    </g>
   </g>
  </g>
 </g>
 <defs>
  <clipPath id="p8adf5fa002">
   <rect height="271.8" width="390.6" x="63" y="43.2"/>
  </clipPath>
 </defs>
</svg>
