<?xml version="1.0" encoding="utf-8" standalone="no"?>
<!DOCTYPE svg PUBLIC "-//W3C//DTD SVG 1.1//EN"
  "http://www.w3.org/Graphics/SVG/1.1/DTD/svg11.dtd">
<!-- Created with matplotlib (https://matplotlib.org/) -->
<svg height="360pt" version="1.1" viewBox="0 0 504 360" width="504pt" xmlns="http://www.w3.org/2000/svg" xmlns:xlink="http://www.w3.org/1999/xlink">
 <metadata>
  <rdf:RDF xmlns:cc="http://creativecommons.org/ns#" xmlns:dc="http://purl.org/dc/elements/1.1/" xmlns:rdf="http://www.w3.org/1999/02/22-rdf-syntax-ns#">
   <cc:Work>
    <dc:type rdf:resource="http://purl.org/dc/dcmitype/StillImage"/>
    <dc:date>2021-06-10T12:40:30.249718</dc:date>
    <dc:format>image/svg+xml</dc:format>
    <dc:creator>
     <cc:Agent>
      <dc:title>Matplotlib v3.3.3, https://matplotlib.org/</dc:title>
     </cc:Agent>
    </dc:creator>
   </cc:Work>
  </rdf:RDF>
 </metadata>
 <defs>
  <style type="text/css">*{stroke-linecap:butt;stroke-linejoin:round;}</style>
 </defs>
 <g id="figure_1">
  <g id="patch_1">
   <path d="M 0 360 
L 504 360 
L 504 0 
L 0 0 
z
" style="fill:none;"/>
  </g>
  <g id="axes_1">
   <g id="patch_2">
    <path d="M 63 315 
L 453.6 315 
L 453.6 43.2 
L 63 43.2 
z
" style="fill:#eaeaf2;"/>
   </g>
   <g id="matplotlib.axis_1">
    <g id="xtick_1">
     <g id="line2d_1">
      <path clip-path="url(#p8ed226e84c)" d="M 80.754545 315 
L 80.754545 43.2 
" style="fill:none;stroke:#ffffff;stroke-linecap:round;"/>
     </g>
     <g id="text_1">
      <!-- 0 -->
      <g style="fill:#262626;" transform="translate(77.69603 332.373594)scale(0.11 -0.11)">
       <defs>
        <path d="M 4.15625 35.296875 
Q 4.15625 48 6.765625 55.734375 
Q 9.375 63.484375 14.515625 67.671875 
Q 19.671875 71.875 27.484375 71.875 
Q 33.25 71.875 37.59375 69.546875 
Q 41.9375 67.234375 44.765625 62.859375 
Q 47.609375 58.5 49.21875 52.21875 
Q 50.828125 45.953125 50.828125 35.296875 
Q 50.828125 22.703125 48.234375 14.96875 
Q 45.65625 7.234375 40.5 3 
Q 35.359375 -1.21875 27.484375 -1.21875 
Q 17.140625 -1.21875 11.234375 6.203125 
Q 4.15625 15.140625 4.15625 35.296875 
z
M 13.1875 35.296875 
Q 13.1875 17.671875 17.3125 11.828125 
Q 21.4375 6 27.484375 6 
Q 33.546875 6 37.671875 11.859375 
Q 41.796875 17.71875 41.796875 35.296875 
Q 41.796875 52.984375 37.671875 58.78125 
Q 33.546875 64.59375 27.390625 64.59375 
Q 21.34375 64.59375 17.71875 59.46875 
Q 13.1875 52.9375 13.1875 35.296875 
z
" id="ArialMT-48"/>
       </defs>
       <use xlink:href="#ArialMT-48"/>
      </g>
     </g>
    </g>
    <g id="xtick_2">
     <g id="line2d_2">
      <path clip-path="url(#p8ed226e84c)" d="M 130.072727 315 
L 130.072727 43.2 
" style="fill:none;stroke:#ffffff;stroke-linecap:round;"/>
     </g>
     <g id="text_2">
      <!-- 10 -->
      <g style="fill:#262626;" transform="translate(123.955696 332.373594)scale(0.11 -0.11)">
       <defs>
        <path d="M 37.25 0 
L 28.46875 0 
L 28.46875 56 
Q 25.296875 52.984375 20.140625 49.953125 
Q 14.984375 46.921875 10.890625 45.40625 
L 10.890625 53.90625 
Q 18.265625 57.375 23.78125 62.296875 
Q 29.296875 67.234375 31.59375 71.875 
L 37.25 71.875 
z
" id="ArialMT-49"/>
       </defs>
       <use xlink:href="#ArialMT-49"/>
       <use x="55.615234" xlink:href="#ArialMT-48"/>
      </g>
     </g>
    </g>
    <g id="xtick_3">
     <g id="line2d_3">
      <path clip-path="url(#p8ed226e84c)" d="M 179.390909 315 
L 179.390909 43.2 
" style="fill:none;stroke:#ffffff;stroke-linecap:round;"/>
     </g>
     <g id="text_3">
      <!-- 20 -->
      <g style="fill:#262626;" transform="translate(173.273878 332.373594)scale(0.11 -0.11)">
       <defs>
        <path d="M 50.34375 8.453125 
L 50.34375 0 
L 3.03125 0 
Q 2.9375 3.171875 4.046875 6.109375 
Q 5.859375 10.9375 9.828125 15.625 
Q 13.8125 20.3125 21.34375 26.46875 
Q 33.015625 36.03125 37.109375 41.625 
Q 41.21875 47.21875 41.21875 52.203125 
Q 41.21875 57.421875 37.46875 61 
Q 33.734375 64.59375 27.734375 64.59375 
Q 21.390625 64.59375 17.578125 60.78125 
Q 13.765625 56.984375 13.71875 50.25 
L 4.6875 51.171875 
Q 5.609375 61.28125 11.65625 66.578125 
Q 17.71875 71.875 27.9375 71.875 
Q 38.234375 71.875 44.234375 66.15625 
Q 50.25 60.453125 50.25 52 
Q 50.25 47.703125 48.484375 43.546875 
Q 46.734375 39.40625 42.65625 34.8125 
Q 38.578125 30.21875 29.109375 22.21875 
Q 21.1875 15.578125 18.9375 13.203125 
Q 16.703125 10.84375 15.234375 8.453125 
z
" id="ArialMT-50"/>
       </defs>
       <use xlink:href="#ArialMT-50"/>
       <use x="55.615234" xlink:href="#ArialMT-48"/>
      </g>
     </g>
    </g>
    <g id="xtick_4">
     <g id="line2d_4">
      <path clip-path="url(#p8ed226e84c)" d="M 228.709091 315 
L 228.709091 43.2 
" style="fill:none;stroke:#ffffff;stroke-linecap:round;"/>
     </g>
     <g id="text_4">
      <!-- 30 -->
      <g style="fill:#262626;" transform="translate(222.59206 332.373594)scale(0.11 -0.11)">
       <defs>
        <path d="M 4.203125 18.890625 
L 12.984375 20.0625 
Q 14.5 12.59375 18.140625 9.296875 
Q 21.78125 6 27 6 
Q 33.203125 6 37.46875 10.296875 
Q 41.75 14.59375 41.75 20.953125 
Q 41.75 27 37.796875 30.921875 
Q 33.84375 34.859375 27.734375 34.859375 
Q 25.25 34.859375 21.53125 33.890625 
L 22.515625 41.609375 
Q 23.390625 41.5 23.921875 41.5 
Q 29.546875 41.5 34.03125 44.421875 
Q 38.53125 47.359375 38.53125 53.46875 
Q 38.53125 58.296875 35.25 61.46875 
Q 31.984375 64.65625 26.8125 64.65625 
Q 21.6875 64.65625 18.265625 61.421875 
Q 14.84375 58.203125 13.875 51.765625 
L 5.078125 53.328125 
Q 6.6875 62.15625 12.390625 67.015625 
Q 18.109375 71.875 26.609375 71.875 
Q 32.46875 71.875 37.390625 69.359375 
Q 42.328125 66.84375 44.9375 62.5 
Q 47.5625 58.15625 47.5625 53.265625 
Q 47.5625 48.640625 45.0625 44.828125 
Q 42.578125 41.015625 37.703125 38.765625 
Q 44.046875 37.3125 47.5625 32.6875 
Q 51.078125 28.078125 51.078125 21.140625 
Q 51.078125 11.765625 44.234375 5.25 
Q 37.40625 -1.265625 26.953125 -1.265625 
Q 17.53125 -1.265625 11.296875 4.34375 
Q 5.078125 9.96875 4.203125 18.890625 
z
" id="ArialMT-51"/>
       </defs>
       <use xlink:href="#ArialMT-51"/>
       <use x="55.615234" xlink:href="#ArialMT-48"/>
      </g>
     </g>
    </g>
    <g id="xtick_5">
     <g id="line2d_5">
      <path clip-path="url(#p8ed226e84c)" d="M 278.027273 315 
L 278.027273 43.2 
" style="fill:none;stroke:#ffffff;stroke-linecap:round;"/>
     </g>
     <g id="text_5">
      <!-- 40 -->
      <g style="fill:#262626;" transform="translate(271.910241 332.373594)scale(0.11 -0.11)">
       <defs>
        <path d="M 32.328125 0 
L 32.328125 17.140625 
L 1.265625 17.140625 
L 1.265625 25.203125 
L 33.9375 71.578125 
L 41.109375 71.578125 
L 41.109375 25.203125 
L 50.78125 25.203125 
L 50.78125 17.140625 
L 41.109375 17.140625 
L 41.109375 0 
z
M 32.328125 25.203125 
L 32.328125 57.46875 
L 9.90625 25.203125 
z
" id="ArialMT-52"/>
       </defs>
       <use xlink:href="#ArialMT-52"/>
       <use x="55.615234" xlink:href="#ArialMT-48"/>
      </g>
     </g>
    </g>
    <g id="xtick_6">
     <g id="line2d_6">
      <path clip-path="url(#p8ed226e84c)" d="M 327.345455 315 
L 327.345455 43.2 
" style="fill:none;stroke:#ffffff;stroke-linecap:round;"/>
     </g>
     <g id="text_6">
      <!-- 50 -->
      <g style="fill:#262626;" transform="translate(321.228423 332.373594)scale(0.11 -0.11)">
       <defs>
        <path d="M 4.15625 18.75 
L 13.375 19.53125 
Q 14.40625 12.796875 18.140625 9.390625 
Q 21.875 6 27.15625 6 
Q 33.5 6 37.890625 10.78125 
Q 42.28125 15.578125 42.28125 23.484375 
Q 42.28125 31 38.0625 35.34375 
Q 33.84375 39.703125 27 39.703125 
Q 22.75 39.703125 19.328125 37.765625 
Q 15.921875 35.84375 13.96875 32.765625 
L 5.71875 33.84375 
L 12.640625 70.609375 
L 48.25 70.609375 
L 48.25 62.203125 
L 19.671875 62.203125 
L 15.828125 42.96875 
Q 22.265625 47.46875 29.34375 47.46875 
Q 38.71875 47.46875 45.15625 40.96875 
Q 51.609375 34.46875 51.609375 24.265625 
Q 51.609375 14.546875 45.953125 7.46875 
Q 39.0625 -1.21875 27.15625 -1.21875 
Q 17.390625 -1.21875 11.203125 4.25 
Q 5.03125 9.71875 4.15625 18.75 
z
" id="ArialMT-53"/>
       </defs>
       <use xlink:href="#ArialMT-53"/>
       <use x="55.615234" xlink:href="#ArialMT-48"/>
      </g>
     </g>
    </g>
    <g id="xtick_7">
     <g id="line2d_7">
      <path clip-path="url(#p8ed226e84c)" d="M 376.663636 315 
L 376.663636 43.2 
" style="fill:none;stroke:#ffffff;stroke-linecap:round;"/>
     </g>
     <g id="text_7">
      <!-- 60 -->
      <g style="fill:#262626;" transform="translate(370.546605 332.373594)scale(0.11 -0.11)">
       <defs>
        <path d="M 49.75 54.046875 
L 41.015625 53.375 
Q 39.84375 58.546875 37.703125 60.890625 
Q 34.125 64.65625 28.90625 64.65625 
Q 24.703125 64.65625 21.53125 62.3125 
Q 17.390625 59.28125 14.984375 53.46875 
Q 12.59375 47.65625 12.5 36.921875 
Q 15.671875 41.75 20.265625 44.09375 
Q 24.859375 46.4375 29.890625 46.4375 
Q 38.671875 46.4375 44.84375 39.96875 
Q 51.03125 33.5 51.03125 23.25 
Q 51.03125 16.5 48.125 10.71875 
Q 45.21875 4.9375 40.140625 1.859375 
Q 35.0625 -1.21875 28.609375 -1.21875 
Q 17.625 -1.21875 10.6875 6.859375 
Q 3.765625 14.9375 3.765625 33.5 
Q 3.765625 54.25 11.421875 63.671875 
Q 18.109375 71.875 29.4375 71.875 
Q 37.890625 71.875 43.28125 67.140625 
Q 48.6875 62.40625 49.75 54.046875 
z
M 13.875 23.1875 
Q 13.875 18.65625 15.796875 14.5 
Q 17.71875 10.359375 21.1875 8.171875 
Q 24.65625 6 28.46875 6 
Q 34.03125 6 38.03125 10.484375 
Q 42.046875 14.984375 42.046875 22.703125 
Q 42.046875 30.125 38.078125 34.390625 
Q 34.125 38.671875 28.125 38.671875 
Q 22.171875 38.671875 18.015625 34.390625 
Q 13.875 30.125 13.875 23.1875 
z
" id="ArialMT-54"/>
       </defs>
       <use xlink:href="#ArialMT-54"/>
       <use x="55.615234" xlink:href="#ArialMT-48"/>
      </g>
     </g>
    </g>
    <g id="xtick_8">
     <g id="line2d_8">
      <path clip-path="url(#p8ed226e84c)" d="M 425.981818 315 
L 425.981818 43.2 
" style="fill:none;stroke:#ffffff;stroke-linecap:round;"/>
     </g>
     <g id="text_8">
      <!-- 70 -->
      <g style="fill:#262626;" transform="translate(419.864787 332.373594)scale(0.11 -0.11)">
       <defs>
        <path d="M 4.734375 62.203125 
L 4.734375 70.65625 
L 51.078125 70.65625 
L 51.078125 63.8125 
Q 44.234375 56.546875 37.515625 44.484375 
Q 30.8125 32.421875 27.15625 19.671875 
Q 24.515625 10.6875 23.78125 0 
L 14.75 0 
Q 14.890625 8.453125 18.0625 20.40625 
Q 21.234375 32.375 27.171875 43.484375 
Q 33.109375 54.59375 39.796875 62.203125 
z
" id="ArialMT-55"/>
       </defs>
       <use xlink:href="#ArialMT-55"/>
       <use x="55.615234" xlink:href="#ArialMT-48"/>
      </g>
     </g>
    </g>
    <g id="text_9">
     <!-- Tenure (months) -->
     <g style="fill:#262626;" transform="translate(211.41375 353.295469)scale(0.12 -0.12)">
      <defs>
       <path d="M 23.390625 0 
L 23.390625 59.46875 
L 2.15625 59.46875 
L 2.15625 71.578125 
L 59.03125 71.578125 
L 59.03125 59.46875 
L 37.84375 59.46875 
L 37.84375 0 
z
" id="Arial-BoldMT-84"/>
       <path d="M 37.203125 16.5 
L 50.875 14.203125 
Q 48.25 6.6875 42.546875 2.75 
Q 36.859375 -1.171875 28.328125 -1.171875 
Q 14.796875 -1.171875 8.296875 7.671875 
Q 3.171875 14.75 3.171875 25.53125 
Q 3.171875 38.421875 9.90625 45.71875 
Q 16.65625 53.03125 26.953125 53.03125 
Q 38.53125 53.03125 45.21875 45.390625 
Q 51.90625 37.75 51.609375 21.96875 
L 17.234375 21.96875 
Q 17.390625 15.875 20.5625 12.46875 
Q 23.734375 9.078125 28.46875 9.078125 
Q 31.6875 9.078125 33.875 10.828125 
Q 36.078125 12.59375 37.203125 16.5 
z
M 37.984375 30.375 
Q 37.84375 36.328125 34.90625 39.421875 
Q 31.984375 42.53125 27.78125 42.53125 
Q 23.296875 42.53125 20.359375 39.265625 
Q 17.4375 35.984375 17.484375 30.375 
z
" id="Arial-BoldMT-101"/>
       <path d="M 54.34375 0 
L 40.625 0 
L 40.625 26.46875 
Q 40.625 34.859375 39.75 37.328125 
Q 38.875 39.796875 36.890625 41.15625 
Q 34.90625 42.53125 32.125 42.53125 
Q 28.5625 42.53125 25.734375 40.578125 
Q 22.90625 38.625 21.84375 35.390625 
Q 20.796875 32.171875 20.796875 23.484375 
L 20.796875 0 
L 7.078125 0 
L 7.078125 51.859375 
L 19.828125 51.859375 
L 19.828125 44.234375 
Q 26.609375 53.03125 36.921875 53.03125 
Q 41.453125 53.03125 45.203125 51.390625 
Q 48.96875 49.75 50.890625 47.203125 
Q 52.828125 44.671875 53.578125 41.453125 
Q 54.34375 38.234375 54.34375 32.234375 
z
" id="Arial-BoldMT-110"/>
       <path d="M 41.3125 0 
L 41.3125 7.765625 
Q 38.484375 3.609375 33.859375 1.21875 
Q 29.25 -1.171875 24.125 -1.171875 
Q 18.890625 -1.171875 14.734375 1.125 
Q 10.59375 3.421875 8.734375 7.5625 
Q 6.890625 11.71875 6.890625 19.046875 
L 6.890625 51.859375 
L 20.609375 51.859375 
L 20.609375 28.03125 
Q 20.609375 17.09375 21.359375 14.625 
Q 22.125 12.15625 24.125 10.71875 
Q 26.125 9.28125 29.203125 9.28125 
Q 32.71875 9.28125 35.5 11.203125 
Q 38.28125 13.140625 39.296875 15.984375 
Q 40.328125 18.84375 40.328125 29.984375 
L 40.328125 51.859375 
L 54.046875 51.859375 
L 54.046875 0 
z
" id="Arial-BoldMT-117"/>
       <path d="M 20.3125 0 
L 6.59375 0 
L 6.59375 51.859375 
L 19.34375 51.859375 
L 19.34375 44.484375 
Q 22.609375 49.703125 25.21875 51.359375 
Q 27.828125 53.03125 31.15625 53.03125 
Q 35.84375 53.03125 40.1875 50.4375 
L 35.9375 38.484375 
Q 32.46875 40.71875 29.5 40.71875 
Q 26.609375 40.71875 24.609375 39.125 
Q 22.609375 37.546875 21.453125 33.390625 
Q 20.3125 29.25 20.3125 16.015625 
z
" id="Arial-BoldMT-114"/>
       <path id="Arial-BoldMT-32"/>
       <path d="M 29.9375 -21.046875 
L 20.515625 -21.046875 
Q 13.03125 -9.765625 9.125 2.390625 
Q 5.21875 14.546875 5.21875 25.921875 
Q 5.21875 40.046875 10.0625 52.640625 
Q 14.265625 63.578125 20.703125 72.796875 
L 30.078125 72.796875 
Q 23.390625 58.015625 20.875 47.625 
Q 18.359375 37.25 18.359375 25.640625 
Q 18.359375 17.625 19.84375 9.21875 
Q 21.34375 0.828125 23.921875 -6.734375 
Q 25.640625 -11.71875 29.9375 -21.046875 
z
" id="Arial-BoldMT-40"/>
       <path d="M 6.15625 51.859375 
L 18.796875 51.859375 
L 18.796875 44.78125 
Q 25.59375 53.03125 34.96875 53.03125 
Q 39.9375 53.03125 43.59375 50.96875 
Q 47.265625 48.921875 49.609375 44.78125 
Q 53.03125 48.921875 56.984375 50.96875 
Q 60.9375 53.03125 65.4375 53.03125 
Q 71.140625 53.03125 75.09375 50.703125 
Q 79.046875 48.390625 81 43.890625 
Q 82.421875 40.578125 82.421875 33.15625 
L 82.421875 0 
L 68.703125 0 
L 68.703125 29.640625 
Q 68.703125 37.359375 67.28125 39.59375 
Q 65.375 42.53125 61.421875 42.53125 
Q 58.546875 42.53125 56 40.765625 
Q 53.46875 39.015625 52.34375 35.625 
Q 51.21875 32.234375 51.21875 24.90625 
L 51.21875 0 
L 37.5 0 
L 37.5 28.421875 
Q 37.5 35.984375 36.765625 38.171875 
Q 36.03125 40.375 34.484375 41.453125 
Q 32.953125 42.53125 30.328125 42.53125 
Q 27.15625 42.53125 24.609375 40.8125 
Q 22.078125 39.109375 20.96875 35.890625 
Q 19.875 32.671875 19.875 25.203125 
L 19.875 0 
L 6.15625 0 
z
" id="Arial-BoldMT-109"/>
       <path d="M 4 26.65625 
Q 4 33.5 7.375 39.890625 
Q 10.75 46.296875 16.921875 49.65625 
Q 23.09375 53.03125 30.71875 53.03125 
Q 42.484375 53.03125 50 45.390625 
Q 57.515625 37.75 57.515625 26.078125 
Q 57.515625 14.3125 49.921875 6.5625 
Q 42.328125 -1.171875 30.8125 -1.171875 
Q 23.6875 -1.171875 17.21875 2.046875 
Q 10.75 5.28125 7.375 11.5 
Q 4 17.71875 4 26.65625 
z
M 18.0625 25.921875 
Q 18.0625 18.21875 21.71875 14.109375 
Q 25.390625 10.015625 30.765625 10.015625 
Q 36.140625 10.015625 39.765625 14.109375 
Q 43.40625 18.21875 43.40625 26.03125 
Q 43.40625 33.640625 39.765625 37.734375 
Q 36.140625 41.84375 30.765625 41.84375 
Q 25.390625 41.84375 21.71875 37.734375 
Q 18.0625 33.640625 18.0625 25.921875 
z
" id="Arial-BoldMT-111"/>
       <path d="M 30.953125 51.859375 
L 30.953125 40.921875 
L 21.578125 40.921875 
L 21.578125 20.015625 
Q 21.578125 13.671875 21.84375 12.625 
Q 22.125 11.578125 23.078125 10.890625 
Q 24.03125 10.203125 25.390625 10.203125 
Q 27.296875 10.203125 30.90625 11.53125 
L 32.078125 0.875 
Q 27.296875 -1.171875 21.234375 -1.171875 
Q 17.53125 -1.171875 14.546875 0.0625 
Q 11.578125 1.3125 10.1875 3.296875 
Q 8.796875 5.28125 8.25 8.640625 
Q 7.8125 11.03125 7.8125 18.3125 
L 7.8125 40.921875 
L 1.515625 40.921875 
L 1.515625 51.859375 
L 7.8125 51.859375 
L 7.8125 62.15625 
L 21.578125 70.171875 
L 21.578125 51.859375 
z
" id="Arial-BoldMT-116"/>
       <path d="M 20.84375 71.578125 
L 20.84375 45.265625 
Q 27.484375 53.03125 36.71875 53.03125 
Q 41.453125 53.03125 45.265625 51.265625 
Q 49.078125 49.515625 51 46.78125 
Q 52.9375 44.046875 53.640625 40.71875 
Q 54.34375 37.40625 54.34375 30.421875 
L 54.34375 0 
L 40.625 0 
L 40.625 27.390625 
Q 40.625 35.546875 39.84375 37.734375 
Q 39.0625 39.9375 37.078125 41.234375 
Q 35.109375 42.53125 32.125 42.53125 
Q 28.71875 42.53125 26.03125 40.859375 
Q 23.34375 39.203125 22.09375 35.859375 
Q 20.84375 32.515625 20.84375 25.984375 
L 20.84375 0 
L 7.125 0 
L 7.125 71.578125 
z
" id="Arial-BoldMT-104"/>
       <path d="M 2.34375 14.796875 
L 16.109375 16.890625 
Q 17 12.890625 19.671875 10.8125 
Q 22.359375 8.734375 27.203125 8.734375 
Q 32.515625 8.734375 35.203125 10.6875 
Q 37.015625 12.0625 37.015625 14.359375 
Q 37.015625 15.921875 36.03125 16.9375 
Q 35.015625 17.921875 31.453125 18.75 
Q 14.84375 22.40625 10.40625 25.4375 
Q 4.25 29.640625 4.25 37.109375 
Q 4.25 43.84375 9.5625 48.4375 
Q 14.890625 53.03125 26.078125 53.03125 
Q 36.71875 53.03125 41.890625 49.5625 
Q 47.078125 46.09375 49.03125 39.3125 
L 36.078125 36.921875 
Q 35.25 39.9375 32.921875 41.546875 
Q 30.609375 43.171875 26.3125 43.171875 
Q 20.90625 43.171875 18.5625 41.65625 
Q 17 40.578125 17 38.875 
Q 17 37.40625 18.359375 36.375 
Q 20.21875 35.015625 31.171875 32.515625 
Q 42.140625 30.03125 46.484375 26.421875 
Q 50.78125 22.75 50.78125 16.21875 
Q 50.78125 9.078125 44.828125 3.953125 
Q 38.875 -1.171875 27.203125 -1.171875 
Q 16.609375 -1.171875 10.421875 3.125 
Q 4.25 7.421875 2.34375 14.796875 
z
" id="Arial-BoldMT-115"/>
       <path d="M 3.375 -21.046875 
Q 7.421875 -12.359375 9.078125 -7.71875 
Q 10.75 -3.078125 12.15625 2.96875 
Q 13.578125 9.03125 14.25 14.46875 
Q 14.9375 19.921875 14.9375 25.640625 
Q 14.9375 37.25 12.453125 47.625 
Q 9.96875 58.015625 3.265625 72.796875 
L 12.59375 72.796875 
Q 19.96875 62.3125 24.046875 50.53125 
Q 28.125 38.765625 28.125 26.65625 
Q 28.125 16.453125 24.90625 4.78125 
Q 21.234375 -8.296875 12.84375 -21.046875 
z
" id="Arial-BoldMT-41"/>
      </defs>
      <use xlink:href="#Arial-BoldMT-84"/>
      <use x="53.708984" xlink:href="#Arial-BoldMT-101"/>
      <use x="109.324219" xlink:href="#Arial-BoldMT-110"/>
      <use x="170.408203" xlink:href="#Arial-BoldMT-117"/>
      <use x="231.492188" xlink:href="#Arial-BoldMT-114"/>
      <use x="270.408203" xlink:href="#Arial-BoldMT-101"/>
      <use x="326.023438" xlink:href="#Arial-BoldMT-32"/>
      <use x="353.806641" xlink:href="#Arial-BoldMT-40"/>
      <use x="387.107422" xlink:href="#Arial-BoldMT-109"/>
      <use x="476.023438" xlink:href="#Arial-BoldMT-111"/>
      <use x="537.107422" xlink:href="#Arial-BoldMT-110"/>
      <use x="598.191406" xlink:href="#Arial-BoldMT-116"/>
      <use x="631.492188" xlink:href="#Arial-BoldMT-104"/>
      <use x="692.576172" xlink:href="#Arial-BoldMT-115"/>
      <use x="748.191406" xlink:href="#Arial-BoldMT-41"/>
     </g>
    </g>
   </g>
   <g id="matplotlib.axis_2">
    <g id="ytick_1">
     <g id="line2d_9">
      <path clip-path="url(#p8ed226e84c)" d="M 63 294.540901 
L 453.6 294.540901 
" style="fill:none;stroke:#ffffff;stroke-linecap:round;"/>
     </g>
     <g id="text_10">
      <!-- 0.5 -->
      <g style="fill:#262626;" transform="translate(38.21 298.477698)scale(0.11 -0.11)">
       <defs>
        <path d="M 9.078125 0 
L 9.078125 10.015625 
L 19.09375 10.015625 
L 19.09375 0 
z
" id="ArialMT-46"/>
       </defs>
       <use xlink:href="#ArialMT-48"/>
       <use x="55.615234" xlink:href="#ArialMT-46"/>
       <use x="83.398438" xlink:href="#ArialMT-53"/>
      </g>
     </g>
    </g>
    <g id="ytick_2">
     <g id="line2d_10">
      <path clip-path="url(#p8ed226e84c)" d="M 63 246.74363 
L 453.6 246.74363 
" style="fill:none;stroke:#ffffff;stroke-linecap:round;"/>
     </g>
     <g id="text_11">
      <!-- 0.6 -->
      <g style="fill:#262626;" transform="translate(38.21 250.680427)scale(0.11 -0.11)">
       <use xlink:href="#ArialMT-48"/>
       <use x="55.615234" xlink:href="#ArialMT-46"/>
       <use x="83.398438" xlink:href="#ArialMT-54"/>
      </g>
     </g>
    </g>
    <g id="ytick_3">
     <g id="line2d_11">
      <path clip-path="url(#p8ed226e84c)" d="M 63 198.946359 
L 453.6 198.946359 
" style="fill:none;stroke:#ffffff;stroke-linecap:round;"/>
     </g>
     <g id="text_12">
      <!-- 0.7 -->
      <g style="fill:#262626;" transform="translate(38.21 202.883156)scale(0.11 -0.11)">
       <use xlink:href="#ArialMT-48"/>
       <use x="55.615234" xlink:href="#ArialMT-46"/>
       <use x="83.398438" xlink:href="#ArialMT-55"/>
      </g>
     </g>
    </g>
    <g id="ytick_4">
     <g id="line2d_12">
      <path clip-path="url(#p8ed226e84c)" d="M 63 151.149088 
L 453.6 151.149088 
" style="fill:none;stroke:#ffffff;stroke-linecap:round;"/>
     </g>
     <g id="text_13">
      <!-- 0.8 -->
      <g style="fill:#262626;" transform="translate(38.21 155.085885)scale(0.11 -0.11)">
       <defs>
        <path d="M 17.671875 38.8125 
Q 12.203125 40.828125 9.5625 44.53125 
Q 6.9375 48.25 6.9375 53.421875 
Q 6.9375 61.234375 12.546875 66.546875 
Q 18.171875 71.875 27.484375 71.875 
Q 36.859375 71.875 42.578125 66.421875 
Q 48.296875 60.984375 48.296875 53.171875 
Q 48.296875 48.1875 45.671875 44.5 
Q 43.0625 40.828125 37.75 38.8125 
Q 44.34375 36.671875 47.78125 31.875 
Q 51.21875 27.09375 51.21875 20.453125 
Q 51.21875 11.28125 44.71875 5.03125 
Q 38.234375 -1.21875 27.640625 -1.21875 
Q 17.046875 -1.21875 10.546875 5.046875 
Q 4.046875 11.328125 4.046875 20.703125 
Q 4.046875 27.6875 7.59375 32.390625 
Q 11.140625 37.109375 17.671875 38.8125 
z
M 15.921875 53.71875 
Q 15.921875 48.640625 19.1875 45.40625 
Q 22.46875 42.1875 27.6875 42.1875 
Q 32.765625 42.1875 36.015625 45.375 
Q 39.265625 48.578125 39.265625 53.21875 
Q 39.265625 58.0625 35.90625 61.359375 
Q 32.5625 64.65625 27.59375 64.65625 
Q 22.5625 64.65625 19.234375 61.421875 
Q 15.921875 58.203125 15.921875 53.71875 
z
M 13.09375 20.65625 
Q 13.09375 16.890625 14.875 13.375 
Q 16.65625 9.859375 20.171875 7.921875 
Q 23.6875 6 27.734375 6 
Q 34.03125 6 38.125 10.046875 
Q 42.234375 14.109375 42.234375 20.359375 
Q 42.234375 26.703125 38.015625 30.859375 
Q 33.796875 35.015625 27.4375 35.015625 
Q 21.234375 35.015625 17.15625 30.90625 
Q 13.09375 26.8125 13.09375 20.65625 
z
" id="ArialMT-56"/>
       </defs>
       <use xlink:href="#ArialMT-48"/>
       <use x="55.615234" xlink:href="#ArialMT-46"/>
       <use x="83.398438" xlink:href="#ArialMT-56"/>
      </g>
     </g>
    </g>
    <g id="ytick_5">
     <g id="line2d_13">
      <path clip-path="url(#p8ed226e84c)" d="M 63 103.351817 
L 453.6 103.351817 
" style="fill:none;stroke:#ffffff;stroke-linecap:round;"/>
     </g>
     <g id="text_14">
      <!-- 0.9 -->
      <g style="fill:#262626;" transform="translate(38.21 107.288614)scale(0.11 -0.11)">
       <defs>
        <path d="M 5.46875 16.546875 
L 13.921875 17.328125 
Q 14.984375 11.375 18.015625 8.6875 
Q 21.046875 6 25.78125 6 
Q 29.828125 6 32.875 7.859375 
Q 35.9375 9.71875 37.890625 12.8125 
Q 39.84375 15.921875 41.15625 21.1875 
Q 42.484375 26.46875 42.484375 31.9375 
Q 42.484375 32.515625 42.4375 33.6875 
Q 39.796875 29.5 35.234375 26.875 
Q 30.671875 24.265625 25.34375 24.265625 
Q 16.453125 24.265625 10.296875 30.703125 
Q 4.15625 37.15625 4.15625 47.703125 
Q 4.15625 58.59375 10.578125 65.234375 
Q 17 71.875 26.65625 71.875 
Q 33.640625 71.875 39.421875 68.109375 
Q 45.21875 64.359375 48.21875 57.390625 
Q 51.21875 50.4375 51.21875 37.25 
Q 51.21875 23.53125 48.234375 15.40625 
Q 45.265625 7.28125 39.375 3.03125 
Q 33.5 -1.21875 25.59375 -1.21875 
Q 17.1875 -1.21875 11.859375 3.4375 
Q 6.546875 8.109375 5.46875 16.546875 
z
M 41.453125 48.140625 
Q 41.453125 55.71875 37.421875 60.15625 
Q 33.40625 64.59375 27.734375 64.59375 
Q 21.875 64.59375 17.53125 59.8125 
Q 13.1875 55.03125 13.1875 47.40625 
Q 13.1875 40.578125 17.3125 36.296875 
Q 21.4375 32.03125 27.484375 32.03125 
Q 33.59375 32.03125 37.515625 36.296875 
Q 41.453125 40.578125 41.453125 48.140625 
z
" id="ArialMT-57"/>
       </defs>
       <use xlink:href="#ArialMT-48"/>
       <use x="55.615234" xlink:href="#ArialMT-46"/>
       <use x="83.398438" xlink:href="#ArialMT-57"/>
      </g>
     </g>
    </g>
    <g id="ytick_6">
     <g id="line2d_14">
      <path clip-path="url(#p8ed226e84c)" d="M 63 55.554545 
L 453.6 55.554545 
" style="fill:none;stroke:#ffffff;stroke-linecap:round;"/>
     </g>
     <g id="text_15">
      <!-- 1.0 -->
      <g style="fill:#262626;" transform="translate(38.21 59.491342)scale(0.11 -0.11)">
       <use xlink:href="#ArialMT-49"/>
       <use x="55.615234" xlink:href="#ArialMT-46"/>
       <use x="83.398438" xlink:href="#ArialMT-48"/>
      </g>
     </g>
    </g>
    <g id="text_16">
     <!-- Survival probability -->
     <g style="fill:#262626;" transform="translate(25.684375 234.778125)rotate(-90)scale(0.12 -0.12)">
      <defs>
       <path d="M 3.609375 23.296875 
L 17.671875 24.65625 
Q 18.953125 17.578125 22.828125 14.25 
Q 26.703125 10.9375 33.296875 10.9375 
Q 40.28125 10.9375 43.8125 13.890625 
Q 47.359375 16.84375 47.359375 20.796875 
Q 47.359375 23.34375 45.875 25.125 
Q 44.390625 26.90625 40.671875 28.21875 
Q 38.140625 29.109375 29.109375 31.34375 
Q 17.484375 34.234375 12.796875 38.421875 
Q 6.203125 44.34375 6.203125 52.828125 
Q 6.203125 58.296875 9.296875 63.0625 
Q 12.40625 67.828125 18.234375 70.3125 
Q 24.078125 72.796875 32.328125 72.796875 
Q 45.796875 72.796875 52.609375 66.890625 
Q 59.421875 60.984375 59.765625 51.125 
L 45.3125 50.484375 
Q 44.390625 56 41.328125 58.421875 
Q 38.28125 60.84375 32.171875 60.84375 
Q 25.875 60.84375 22.3125 58.25 
Q 20.015625 56.59375 20.015625 53.8125 
Q 20.015625 51.265625 22.171875 49.46875 
Q 24.90625 47.171875 35.453125 44.671875 
Q 46 42.1875 51.046875 39.515625 
Q 56.109375 36.859375 58.953125 32.25 
Q 61.8125 27.640625 61.8125 20.84375 
Q 61.8125 14.703125 58.390625 9.328125 
Q 54.984375 3.953125 48.734375 1.34375 
Q 42.484375 -1.265625 33.15625 -1.265625 
Q 19.578125 -1.265625 12.296875 5 
Q 5.03125 11.28125 3.609375 23.296875 
z
" id="Arial-BoldMT-83"/>
       <path d="M 21.4375 0 
L 0.53125 51.859375 
L 14.9375 51.859375 
L 24.703125 25.390625 
L 27.546875 16.546875 
Q 28.65625 19.921875 28.953125 21 
Q 29.640625 23.1875 30.421875 25.390625 
L 40.28125 51.859375 
L 54.390625 51.859375 
L 33.796875 0 
z
" id="Arial-BoldMT-118"/>
       <path d="M 7.171875 58.890625 
L 7.171875 71.578125 
L 20.90625 71.578125 
L 20.90625 58.890625 
z
M 7.171875 0 
L 7.171875 51.859375 
L 20.90625 51.859375 
L 20.90625 0 
z
" id="Arial-BoldMT-105"/>
       <path d="M 17.4375 36.03125 
L 4.984375 38.28125 
Q 7.078125 45.796875 12.203125 49.40625 
Q 17.328125 53.03125 27.4375 53.03125 
Q 36.625 53.03125 41.109375 50.859375 
Q 45.609375 48.6875 47.4375 45.34375 
Q 49.265625 42 49.265625 33.0625 
L 49.125 17.046875 
Q 49.125 10.203125 49.78125 6.953125 
Q 50.4375 3.71875 52.25 0 
L 38.671875 0 
Q 38.140625 1.375 37.359375 4.046875 
Q 37.015625 5.28125 36.859375 5.671875 
Q 33.34375 2.25 29.34375 0.53125 
Q 25.34375 -1.171875 20.796875 -1.171875 
Q 12.796875 -1.171875 8.171875 3.171875 
Q 3.5625 7.515625 3.5625 14.15625 
Q 3.5625 18.5625 5.65625 22 
Q 7.765625 25.4375 11.546875 27.265625 
Q 15.328125 29.109375 22.46875 30.46875 
Q 32.078125 32.28125 35.796875 33.84375 
L 35.796875 35.203125 
Q 35.796875 39.15625 33.84375 40.84375 
Q 31.890625 42.53125 26.46875 42.53125 
Q 22.796875 42.53125 20.75 41.09375 
Q 18.703125 39.65625 17.4375 36.03125 
z
M 35.796875 24.90625 
Q 33.15625 24.03125 27.4375 22.796875 
Q 21.734375 21.578125 19.96875 20.40625 
Q 17.28125 18.5 17.28125 15.578125 
Q 17.28125 12.703125 19.421875 10.59375 
Q 21.578125 8.5 24.90625 8.5 
Q 28.609375 8.5 31.984375 10.9375 
Q 34.46875 12.796875 35.25 15.484375 
Q 35.796875 17.234375 35.796875 22.171875 
z
" id="Arial-BoldMT-97"/>
       <path d="M 7.171875 0 
L 7.171875 71.578125 
L 20.90625 71.578125 
L 20.90625 0 
z
" id="Arial-BoldMT-108"/>
       <path d="M 6.78125 51.859375 
L 19.578125 51.859375 
L 19.578125 44.234375 
Q 22.078125 48.140625 26.3125 50.578125 
Q 30.5625 53.03125 35.75 53.03125 
Q 44.78125 53.03125 51.078125 45.953125 
Q 57.375 38.875 57.375 26.21875 
Q 57.375 13.234375 51.015625 6.03125 
Q 44.671875 -1.171875 35.640625 -1.171875 
Q 31.34375 -1.171875 27.84375 0.53125 
Q 24.359375 2.25 20.515625 6.390625 
L 20.515625 -19.734375 
L 6.78125 -19.734375 
z
M 20.359375 26.8125 
Q 20.359375 18.0625 23.828125 13.890625 
Q 27.296875 9.71875 32.28125 9.71875 
Q 37.0625 9.71875 40.234375 13.546875 
Q 43.40625 17.390625 43.40625 26.125 
Q 43.40625 34.28125 40.125 38.234375 
Q 36.859375 42.1875 32.03125 42.1875 
Q 27 42.1875 23.671875 38.296875 
Q 20.359375 34.421875 20.359375 26.8125 
z
" id="Arial-BoldMT-112"/>
       <path d="M 6.59375 0 
L 6.59375 71.578125 
L 20.3125 71.578125 
L 20.3125 45.796875 
Q 26.65625 53.03125 35.359375 53.03125 
Q 44.828125 53.03125 51.03125 46.171875 
Q 57.234375 39.3125 57.234375 26.46875 
Q 57.234375 13.1875 50.90625 6 
Q 44.578125 -1.171875 35.546875 -1.171875 
Q 31.109375 -1.171875 26.78125 1.046875 
Q 22.46875 3.265625 19.34375 7.625 
L 19.34375 0 
z
M 20.21875 27.046875 
Q 20.21875 19 22.75 15.140625 
Q 26.3125 9.671875 32.234375 9.671875 
Q 36.765625 9.671875 39.96875 13.546875 
Q 43.171875 17.4375 43.171875 25.78125 
Q 43.171875 34.671875 39.9375 38.59375 
Q 36.71875 42.53125 31.6875 42.53125 
Q 26.765625 42.53125 23.484375 38.6875 
Q 20.21875 34.859375 20.21875 27.046875 
z
" id="Arial-BoldMT-98"/>
       <path d="M 0.6875 51.859375 
L 15.28125 51.859375 
L 27.6875 15.046875 
L 39.796875 51.859375 
L 54 51.859375 
L 35.6875 1.953125 
L 32.421875 -7.078125 
Q 30.609375 -11.625 28.96875 -14.015625 
Q 27.34375 -16.40625 25.21875 -17.890625 
Q 23.09375 -19.390625 19.984375 -20.21875 
Q 16.890625 -21.046875 12.984375 -21.046875 
Q 9.03125 -21.046875 5.21875 -20.21875 
L 4 -9.46875 
Q 7.234375 -10.109375 9.8125 -10.109375 
Q 14.59375 -10.109375 16.890625 -7.296875 
Q 19.1875 -4.5 20.40625 -0.140625 
z
" id="Arial-BoldMT-121"/>
      </defs>
      <use xlink:href="#Arial-BoldMT-83"/>
      <use x="66.699219" xlink:href="#Arial-BoldMT-117"/>
      <use x="127.783203" xlink:href="#Arial-BoldMT-114"/>
      <use x="166.699219" xlink:href="#Arial-BoldMT-118"/>
      <use x="222.314453" xlink:href="#Arial-BoldMT-105"/>
      <use x="250.097656" xlink:href="#Arial-BoldMT-118"/>
      <use x="305.712891" xlink:href="#Arial-BoldMT-97"/>
      <use x="361.328125" xlink:href="#Arial-BoldMT-108"/>
      <use x="389.111328" xlink:href="#Arial-BoldMT-32"/>
      <use x="416.894531" xlink:href="#Arial-BoldMT-112"/>
      <use x="477.978516" xlink:href="#Arial-BoldMT-114"/>
      <use x="516.894531" xlink:href="#Arial-BoldMT-111"/>
      <use x="577.978516" xlink:href="#Arial-BoldMT-98"/>
      <use x="639.0625" xlink:href="#Arial-BoldMT-97"/>
      <use x="694.677734" xlink:href="#Arial-BoldMT-98"/>
      <use x="755.761719" xlink:href="#Arial-BoldMT-105"/>
      <use x="783.544922" xlink:href="#Arial-BoldMT-108"/>
      <use x="811.328125" xlink:href="#Arial-BoldMT-105"/>
      <use x="839.111328" xlink:href="#Arial-BoldMT-116"/>
      <use x="872.412109" xlink:href="#Arial-BoldMT-121"/>
     </g>
    </g>
   </g>
   <g id="PolyCollection_1">
    <defs>
     <path d="M 80.754545 -304.445455 
L 80.754545 -304.445455 
L 85.686364 -304.445455 
L 85.686364 -256.043527 
L 90.618182 -256.043527 
L 90.618182 -239.97569 
L 95.55 -239.97569 
L 95.55 -229.496563 
L 100.481818 -229.496563 
L 100.481818 -218.630254 
L 105.413636 -218.630254 
L 105.413636 -211.516784 
L 110.345455 -211.516784 
L 110.345455 -207.097959 
L 115.277273 -207.097959 
L 115.277273 -202.010454 
L 120.209091 -202.010454 
L 120.209091 -197.855086 
L 125.140909 -197.855086 
L 125.140909 -193.184426 
L 130.072727 -193.184426 
L 130.072727 -187.770552 
L 135.004545 -187.770552 
L 135.004545 -184.902759 
L 139.936364 -184.902759 
L 139.936364 -180.621837 
L 144.868182 -180.621837 
L 144.868182 -176.493466 
L 149.8 -176.493466 
L 149.8 -173.921305 
L 154.731818 -173.921305 
L 154.731818 -168.217683 
L 159.663636 -168.217683 
L 159.663636 -165.329952 
L 164.595455 -165.329952 
L 164.595455 -162.39086 
L 169.527273 -162.39086 
L 169.527273 -159.900349 
L 174.459091 -159.900349 
L 174.459091 -157.593622 
L 179.390909 -157.593622 
L 179.390909 -155.245229 
L 184.322727 -155.245229 
L 184.322727 -154.187036 
L 189.254545 -154.187036 
L 189.254545 -150.164097 
L 194.186364 -150.164097 
L 194.186364 -148.52815 
L 199.118182 -148.52815 
L 199.118182 -146.00574 
L 204.05 -146.00574 
L 204.05 -144.275488 
L 208.981818 -144.275488 
L 208.981818 -142.2268 
L 213.913636 -142.2268 
L 213.913636 -139.222436 
L 218.845455 -139.222436 
L 218.845455 -137.989813 
L 223.777273 -137.989813 
L 223.777273 -135.466723 
L 228.709091 -135.466723 
L 228.709091 -134.167846 
L 233.640909 -134.167846 
L 233.640909 -131.513685 
L 238.572727 -131.513685 
L 238.572727 -128.123268 
L 243.504545 -128.123268 
L 243.504545 -126.389216 
L 248.436364 -126.389216 
L 248.436364 -124.261132 
L 253.368182 -124.261132 
L 253.368182 -122.817892 
L 258.3 -122.817892 
L 258.3 -120.595592 
L 263.231818 -120.595592 
L 263.231818 -118.330251 
L 268.163636 -118.330251 
L 268.163636 -115.62792 
L 273.095455 -115.62792 
L 273.095455 -114.060367 
L 278.027273 -114.060367 
L 278.027273 -112.457068 
L 282.959091 -112.457068 
L 282.959091 -110.816173 
L 287.890909 -110.816173 
L 287.890909 -108.299715 
L 292.822727 -108.299715 
L 292.822727 -107.437381 
L 297.754545 -107.437381 
L 297.754545 -106.103924 
L 302.686364 -106.103924 
L 302.686364 -104.739125 
L 307.618182 -104.739125 
L 307.618182 -102.39454 
L 312.55 -102.39454 
L 312.55 -99.477194 
L 317.481818 -99.477194 
L 317.481818 -97.482378 
L 322.413636 -97.482378 
L 322.413636 -95.418483 
L 327.345455 -95.418483 
L 327.345455 -94.884636 
L 332.277273 -94.884636 
L 332.277273 -93.235438 
L 337.209091 -93.235438 
L 337.209091 -92.085319 
L 342.140909 -92.085319 
L 342.140909 -90.876508 
L 347.072727 -90.876508 
L 347.072727 -89.611587 
L 352.004545 -89.611587 
L 352.004545 -87.627146 
L 356.936364 -87.627146 
L 356.936364 -86.221693 
L 361.868182 -86.221693 
L 361.868182 -85.473668 
L 366.8 -85.473668 
L 366.8 -83.119227 
L 371.731818 -83.119227 
L 371.731818 -81.48925 
L 376.663636 -81.48925 
L 376.663636 -81.48925 
L 381.595455 -81.48925 
L 381.595455 -81.48925 
L 386.527273 -81.48925 
L 386.527273 -80.508863 
L 391.459091 -80.508863 
L 391.459091 -80.508863 
L 396.390909 -80.508863 
L 396.390909 -79.365732 
L 401.322727 -79.365732 
L 401.322727 -76.855086 
L 406.254545 -76.855086 
L 406.254545 -75.499043 
L 411.186364 -75.499043 
L 411.186364 -70.90167 
L 416.118182 -70.90167 
L 416.118182 -65.404646 
L 421.05 -65.404646 
L 421.05 -63.085172 
L 425.981818 -63.085172 
L 425.981818 -57.354545 
L 430.913636 -57.354545 
L 430.913636 -57.354545 
L 435.845455 -57.354545 
L 435.845455 -57.354545 
L 435.845455 -87.93499 
L 435.845455 -87.93499 
L 435.845455 -87.93499 
L 430.913636 -87.93499 
L 430.913636 -87.93499 
L 425.981818 -87.93499 
L 425.981818 -91.456085 
L 421.05 -91.456085 
L 421.05 -92.982572 
L 416.118182 -92.982572 
L 416.118182 -96.878257 
L 411.186364 -96.878257 
L 411.186364 -100.266687 
L 406.254545 -100.266687 
L 406.254545 -101.293601 
L 401.322727 -101.293601 
L 401.322727 -103.226337 
L 396.390909 -103.226337 
L 396.390909 -104.124934 
L 391.459091 -104.124934 
L 391.459091 -104.124934 
L 386.527273 -104.124934 
L 386.527273 -104.925795 
L 381.595455 -104.925795 
L 381.595455 -104.925795 
L 376.663636 -104.925795 
L 376.663636 -104.925795 
L 371.731818 -104.925795 
L 371.731818 -106.31307 
L 366.8 -106.31307 
L 366.8 -108.32503 
L 361.868182 -108.32503 
L 361.868182 -108.968769 
L 356.936364 -108.968769 
L 356.936364 -110.191446 
L 352.004545 -110.191446 
L 352.004545 -111.933295 
L 347.072727 -111.933295 
L 347.072727 -113.050042 
L 342.140909 -113.050042 
L 342.140909 -114.124102 
L 337.209091 -114.124102 
L 337.209091 -115.153288 
L 332.277273 -115.153288 
L 332.277273 -116.637646 
L 327.345455 -116.637646 
L 327.345455 -117.11979 
L 322.413636 -117.11979 
L 322.413636 -118.991122 
L 317.481818 -118.991122 
L 317.481818 -120.805161 
L 312.55 -120.805161 
L 312.55 -123.46093 
L 307.618182 -123.46093 
L 307.618182 -125.600675 
L 302.686364 -125.600675 
L 302.686364 -126.849316 
L 297.754545 -126.849316 
L 297.754545 -128.071685 
L 292.822727 -128.071685 
L 292.822727 -128.864754 
L 287.890909 -128.864754 
L 287.890909 -131.184243 
L 282.959091 -131.184243 
L 282.959091 -132.698265 
L 278.027273 -132.698265 
L 278.027273 -134.180002 
L 273.095455 -134.180002 
L 273.095455 -135.630967 
L 268.163636 -135.630967 
L 268.163636 -138.132391 
L 263.231818 -138.132391 
L 263.231818 -140.230712 
L 258.3 -140.230712 
L 258.3 -142.29016 
L 253.368182 -142.29016 
L 253.368182 -143.629997 
L 248.436364 -143.629997 
L 248.436364 -145.606869 
L 243.504545 -145.606869 
L 243.504545 -147.219611 
L 238.572727 -147.219611 
L 238.572727 -150.374978 
L 233.640909 -150.374978 
L 233.640909 -152.845522 
L 228.709091 -152.845522 
L 228.709091 -154.055745 
L 223.777273 -154.055745 
L 223.777273 -156.411292 
L 218.845455 -156.411292 
L 218.845455 -157.563528 
L 213.913636 -157.563528 
L 213.913636 -160.375757 
L 208.981818 -160.375757 
L 208.981818 -162.295574 
L 204.05 -162.295574 
L 204.05 -163.917461 
L 199.118182 -163.917461 
L 199.118182 -166.285838 
L 194.186364 -166.285838 
L 194.186364 -167.824294 
L 189.254545 -167.824294 
L 189.254545 -171.606973 
L 184.322727 -171.606973 
L 184.322727 -172.601708 
L 179.390909 -172.601708 
L 179.390909 -174.809984 
L 174.459091 -174.809984 
L 174.459091 -176.979813 
L 169.527273 -176.979813 
L 169.527273 -179.325865 
L 164.595455 -179.325865 
L 164.595455 -182.094403 
L 159.663636 -182.094403 
L 159.663636 -184.814384 
L 154.731818 -184.814384 
L 154.731818 -190.178641 
L 149.8 -190.178641 
L 149.8 -192.595181 
L 144.868182 -192.595181 
L 144.868182 -196.472847 
L 139.936364 -196.472847 
L 139.936364 -200.489823 
L 135.004545 -200.489823 
L 135.004545 -203.180104 
L 130.072727 -203.180104 
L 130.072727 -208.254195 
L 125.140909 -208.254195 
L 125.140909 -212.625338 
L 120.209091 -212.625338 
L 120.209091 -216.510704 
L 115.277273 -216.510704 
L 115.277273 -221.261976 
L 110.345455 -221.261976 
L 110.345455 -225.379901 
L 105.413636 -225.379901 
L 105.413636 -231.990885 
L 100.481818 -231.990885 
L 100.481818 -242.033915 
L 95.55 -242.033915 
L 95.55 -251.641741 
L 90.618182 -251.641741 
L 90.618182 -266.182444 
L 85.686364 -266.182444 
L 85.686364 -304.445455 
L 80.754545 -304.445455 
z
" id="mc033d44b7e" style="stroke:#4c72b0;stroke-opacity:0.25;"/>
    </defs>
    <g clip-path="url(#p8ed226e84c)">
     <use style="fill:#4c72b0;fill-opacity:0.25;stroke:#4c72b0;stroke-opacity:0.25;" x="0" xlink:href="#mc033d44b7e" y="360"/>
    </g>
   </g>
   <g id="PolyCollection_2">
    <defs>
     <path d="M 80.754545 -304.445455 
L 80.754545 -304.445455 
L 85.686364 -304.445455 
L 85.686364 -289.049926 
L 90.618182 -289.049926 
L 90.618182 -282.992578 
L 95.55 -282.992578 
L 95.55 -276.605219 
L 100.481818 -276.605219 
L 100.481818 -271.95687 
L 105.413636 -271.95687 
L 105.413636 -267.309969 
L 110.345455 -267.309969 
L 110.345455 -264.016262 
L 115.277273 -264.016262 
L 115.277273 -259.551811 
L 120.209091 -259.551811 
L 120.209091 -255.849102 
L 125.140909 -255.849102 
L 125.140909 -251.552126 
L 130.072727 -251.552126 
L 130.072727 -247.626806 
L 135.004545 -247.626806 
L 135.004545 -244.873688 
L 139.936364 -244.873688 
L 139.936364 -241.516479 
L 144.868182 -241.516479 
L 144.868182 -237.541282 
L 149.8 -237.541282 
L 149.8 -234.940748 
L 154.731818 -234.940748 
L 154.731818 -233.13275 
L 159.663636 -233.13275 
L 159.663636 -230.297048 
L 164.595455 -230.297048 
L 164.595455 -227.655583 
L 169.527273 -227.655583 
L 169.527273 -224.993216 
L 174.459091 -224.993216 
L 174.459091 -222.932684 
L 179.390909 -222.932684 
L 179.390909 -221.27619 
L 184.322727 -221.27619 
L 184.322727 -218.564265 
L 189.254545 -218.564265 
L 189.254545 -216.04101 
L 194.186364 -216.04101 
L 194.186364 -214.553521 
L 199.118182 -214.553521 
L 199.118182 -211.551811 
L 204.05 -211.551811 
L 204.05 -208.311036 
L 208.981818 -208.311036 
L 208.981818 -206.567618 
L 213.913636 -206.567618 
L 213.913636 -205.905804 
L 218.845455 -205.905804 
L 218.845455 -204.127368 
L 223.777273 -204.127368 
L 223.777273 -202.560305 
L 228.709091 -202.560305 
L 228.709091 -200.079111 
L 233.640909 -200.079111 
L 233.640909 -198.478265 
L 238.572727 -198.478265 
L 238.572727 -196.395955 
L 243.504545 -196.395955 
L 243.504545 -194.526602 
L 248.436364 -194.526602 
L 248.436364 -193.110221 
L 253.368182 -193.110221 
L 253.368182 -190.469739 
L 258.3 -190.469739 
L 258.3 -189.493529 
L 263.231818 -189.493529 
L 263.231818 -187.277631 
L 268.163636 -187.277631 
L 268.163636 -185.783125 
L 273.095455 -185.783125 
L 273.095455 -183.262874 
L 278.027273 -183.262874 
L 278.027273 -180.975854 
L 282.959091 -180.975854 
L 282.959091 -178.396545 
L 287.890909 -178.396545 
L 287.890909 -176.296582 
L 292.822727 -176.296582 
L 292.822727 -172.841319 
L 297.754545 -172.841319 
L 297.754545 -172.031592 
L 302.686364 -172.031592 
L 302.686364 -171.484231 
L 307.618182 -171.484231 
L 307.618182 -169.530752 
L 312.55 -169.530752 
L 312.55 -167.259587 
L 317.481818 -167.259587 
L 317.481818 -165.814778 
L 322.413636 -165.814778 
L 322.413636 -162.584444 
L 327.345455 -162.584444 
L 327.345455 -159.888365 
L 332.277273 -159.888365 
L 332.277273 -158.35195 
L 337.209091 -158.35195 
L 337.209091 -156.469634 
L 342.140909 -156.469634 
L 342.140909 -153.237978 
L 347.072727 -153.237978 
L 347.072727 -149.617323 
L 352.004545 -149.617323 
L 352.004545 -147.59147 
L 356.936364 -147.59147 
L 356.936364 -145.526401 
L 361.868182 -145.526401 
L 361.868182 -143.028409 
L 366.8 -143.028409 
L 366.8 -140.084781 
L 371.731818 -140.084781 
L 371.731818 -138.185067 
L 376.663636 -138.185067 
L 376.663636 -135.839563 
L 381.595455 -135.839563 
L 381.595455 -132.962152 
L 386.527273 -132.962152 
L 386.527273 -131.241967 
L 391.459091 -131.241967 
L 391.459091 -129.445369 
L 396.390909 -129.445369 
L 396.390909 -128.030412 
L 401.322727 -128.030412 
L 401.322727 -124.521679 
L 406.254545 -124.521679 
L 406.254545 -118.111344 
L 411.186364 -118.111344 
L 411.186364 -114.095036 
L 416.118182 -114.095036 
L 416.118182 -110.376506 
L 421.05 -110.376506 
L 421.05 -105.611771 
L 425.981818 -105.611771 
L 425.981818 -98.834537 
L 430.913636 -98.834537 
L 430.913636 -93.363515 
L 435.845455 -93.363515 
L 435.845455 -85.508423 
L 435.845455 -112.062787 
L 435.845455 -112.062787 
L 435.845455 -118.155569 
L 430.913636 -118.155569 
L 430.913636 -122.736474 
L 425.981818 -122.736474 
L 425.981818 -128.580928 
L 421.05 -128.580928 
L 421.05 -132.730315 
L 416.118182 -132.730315 
L 416.118182 -136.003523 
L 411.186364 -136.003523 
L 411.186364 -139.567212 
L 406.254545 -139.567212 
L 406.254545 -145.283195 
L 401.322727 -145.283195 
L 401.322727 -148.423675 
L 396.390909 -148.423675 
L 396.390909 -149.698406 
L 391.459091 -149.698406 
L 391.459091 -151.326027 
L 386.527273 -151.326027 
L 386.527273 -152.891397 
L 381.595455 -152.891397 
L 381.595455 -155.520477 
L 376.663636 -155.520477 
L 376.663636 -157.672883 
L 371.731818 -157.672883 
L 371.731818 -159.419338 
L 366.8 -159.419338 
L 366.8 -162.130879 
L 361.868182 -162.130879 
L 361.868182 -164.435369 
L 356.936364 -164.435369 
L 356.936364 -166.345422 
L 352.004545 -166.345422 
L 352.004545 -168.220395 
L 347.072727 -168.220395 
L 347.072727 -171.573934 
L 342.140909 -171.573934 
L 342.140909 -174.565203 
L 337.209091 -174.565203 
L 337.209091 -176.310039 
L 332.277273 -176.310039 
L 332.277273 -177.735774 
L 327.345455 -177.735774 
L 327.345455 -180.240912 
L 322.413636 -180.240912 
L 322.413636 -183.242362 
L 317.481818 -183.242362 
L 317.481818 -184.58482 
L 312.55 -184.58482 
L 312.55 -186.696312 
L 307.618182 -186.696312 
L 307.618182 -188.513013 
L 302.686364 -188.513013 
L 302.686364 -189.02268 
L 297.754545 -189.02268 
L 297.754545 -189.777431 
L 292.822727 -189.777431 
L 292.822727 -192.998479 
L 287.890909 -192.998479 
L 287.890909 -194.954713 
L 282.959091 -194.954713 
L 282.959091 -197.357908 
L 278.027273 -197.357908 
L 278.027273 -199.488361 
L 273.095455 -199.488361 
L 273.095455 -201.833938 
L 268.163636 -201.833938 
L 268.163636 -203.224519 
L 263.231818 -203.224519 
L 263.231818 -205.286023 
L 258.3 -205.286023 
L 258.3 -206.193975 
L 253.368182 -206.193975 
L 253.368182 -208.650855 
L 248.436364 -208.650855 
L 248.436364 -209.969088 
L 243.504545 -209.969088 
L 243.504545 -211.708638 
L 238.572727 -211.708638 
L 238.572727 -213.645498 
L 233.640909 -213.645498 
L 233.640909 -215.134275 
L 228.709091 -215.134275 
L 228.709091 -217.441546 
L 223.777273 -217.441546 
L 223.777273 -218.897661 
L 218.845455 -218.897661 
L 218.845455 -220.54926 
L 213.913636 -220.54926 
L 213.913636 -221.163786 
L 208.981818 -221.163786 
L 208.981818 -222.783206 
L 204.05 -222.783206 
L 204.05 -225.790334 
L 199.118182 -225.790334 
L 199.118182 -228.570893 
L 194.186364 -228.570893 
L 194.186364 -229.947556 
L 189.254545 -229.947556 
L 189.254545 -232.28153 
L 184.322727 -232.28153 
L 184.322727 -234.786567 
L 179.390909 -234.786567 
L 179.390909 -236.315008 
L 174.459091 -236.315008 
L 174.459091 -238.214118 
L 169.527273 -238.214118 
L 169.527273 -240.66427 
L 164.595455 -240.66427 
L 164.595455 -243.091243 
L 159.663636 -243.091243 
L 159.663636 -245.690654 
L 154.731818 -245.690654 
L 154.731818 -247.345647 
L 149.8 -247.345647 
L 149.8 -249.721784 
L 144.868182 -249.721784 
L 144.868182 -253.343652 
L 139.936364 -253.343652 
L 139.936364 -256.391846 
L 135.004545 -256.391846 
L 135.004545 -258.883445 
L 130.072727 -258.883445 
L 130.072727 -262.421151 
L 125.140909 -262.421151 
L 125.140909 -266.273376 
L 120.209091 -266.273376 
L 120.209091 -269.572825 
L 115.277273 -269.572825 
L 115.277273 -273.524352 
L 110.345455 -273.524352 
L 110.345455 -276.417832 
L 105.413636 -276.417832 
L 105.413636 -280.463116 
L 100.481818 -280.463116 
L 100.481818 -284.458131 
L 95.55 -284.458131 
L 95.55 -289.842353 
L 90.618182 -289.842353 
L 90.618182 -294.78258 
L 85.686364 -294.78258 
L 85.686364 -304.445455 
L 80.754545 -304.445455 
z
" id="m01dcc22c80" style="stroke:#dd8452;stroke-opacity:0.25;"/>
    </defs>
    <g clip-path="url(#p8ed226e84c)">
     <use style="fill:#dd8452;fill-opacity:0.25;stroke:#dd8452;stroke-opacity:0.25;" x="0" xlink:href="#m01dcc22c80" y="360"/>
    </g>
   </g>
   <g id="PolyCollection_3">
    <defs>
     <path d="M 80.754545 -304.445455 
L 80.754545 -304.445455 
L 85.686364 -304.445455 
L 85.686364 -280.986887 
L 90.618182 -280.986887 
L 90.618182 -278.691993 
L 95.55 -278.691993 
L 95.55 -276.331445 
L 100.481818 -276.331445 
L 100.481818 -275.122277 
L 105.413636 -275.122277 
L 105.413636 -273.464203 
L 110.345455 -273.464203 
L 110.345455 -273.042636 
L 115.277273 -273.042636 
L 115.277273 -271.745256 
L 120.209091 -271.745256 
L 120.209091 -270.424216 
L 125.140909 -270.424216 
L 125.140909 -269.520986 
L 130.072727 -269.520986 
L 130.072727 -269.520986 
L 135.004545 -269.520986 
L 135.004545 -267.628598 
L 139.936364 -267.628598 
L 139.936364 -266.66642 
L 144.868182 -266.66642 
L 144.868182 -266.66642 
L 149.8 -266.66642 
L 149.8 -266.66642 
L 154.731818 -266.66642 
L 154.731818 -264.593749 
L 159.663636 -264.593749 
L 159.663636 -263.5331 
L 164.595455 -263.5331 
L 164.595455 -262.992792 
L 169.527273 -262.992792 
L 169.527273 -262.440308 
L 174.459091 -262.440308 
L 174.459091 -262.440308 
L 179.390909 -262.440308 
L 179.390909 -261.860084 
L 184.322727 -261.860084 
L 184.322727 -261.860084 
L 189.254545 -261.860084 
L 189.254545 -261.860084 
L 194.186364 -261.860084 
L 194.186364 -261.860084 
L 199.118182 -261.860084 
L 199.118182 -261.860084 
L 204.05 -261.860084 
L 204.05 -260.538517 
L 208.981818 -260.538517 
L 208.981818 -260.538517 
L 213.913636 -260.538517 
L 213.913636 -260.538517 
L 218.845455 -260.538517 
L 218.845455 -260.538517 
L 223.777273 -260.538517 
L 223.777273 -260.538517 
L 228.709091 -260.538517 
L 228.709091 -259.796317 
L 233.640909 -259.796317 
L 233.640909 -259.042231 
L 238.572727 -259.042231 
L 238.572727 -259.042231 
L 243.504545 -259.042231 
L 243.504545 -258.263573 
L 248.436364 -258.263573 
L 248.436364 -258.263573 
L 253.368182 -258.263573 
L 253.368182 -258.263573 
L 258.3 -258.263573 
L 258.3 -258.263573 
L 263.231818 -258.263573 
L 263.231818 -258.263573 
L 268.163636 -258.263573 
L 268.163636 -258.263573 
L 273.095455 -258.263573 
L 273.095455 -258.263573 
L 278.027273 -258.263573 
L 278.027273 -258.263573 
L 282.959091 -258.263573 
L 282.959091 -258.263573 
L 287.890909 -258.263573 
L 287.890909 -258.263573 
L 292.822727 -258.263573 
L 292.822727 -258.263573 
L 297.754545 -258.263573 
L 297.754545 -258.263573 
L 302.686364 -258.263573 
L 302.686364 -257.175414 
L 307.618182 -257.175414 
L 307.618182 -257.175414 
L 312.55 -257.175414 
L 312.55 -257.175414 
L 317.481818 -257.175414 
L 317.481818 -257.175414 
L 322.413636 -257.175414 
L 322.413636 -257.175414 
L 327.345455 -257.175414 
L 327.345455 -257.175414 
L 332.277273 -257.175414 
L 332.277273 -257.175414 
L 337.209091 -257.175414 
L 337.209091 -257.175414 
L 342.140909 -257.175414 
L 342.140909 -254.183962 
L 347.072727 -254.183962 
L 347.072727 -254.183962 
L 352.004545 -254.183962 
L 352.004545 -254.183962 
L 356.936364 -254.183962 
L 356.936364 -250.844445 
L 361.868182 -250.844445 
L 361.868182 -250.844445 
L 366.8 -250.844445 
L 366.8 -250.844445 
L 371.731818 -250.844445 
L 371.731818 -248.922643 
L 376.663636 -248.922643 
L 376.663636 -248.922643 
L 381.595455 -248.922643 
L 381.595455 -246.823952 
L 386.527273 -246.823952 
L 386.527273 -246.823952 
L 391.459091 -246.823952 
L 391.459091 -246.823952 
L 396.390909 -246.823952 
L 396.390909 -246.823952 
L 401.322727 -246.823952 
L 401.322727 -246.823952 
L 406.254545 -246.823952 
L 406.254545 -246.823952 
L 411.186364 -246.823952 
L 411.186364 -246.823952 
L 416.118182 -246.823952 
L 416.118182 -246.823952 
L 421.05 -246.823952 
L 421.05 -246.823952 
L 425.981818 -246.823952 
L 425.981818 -246.823952 
L 430.913636 -246.823952 
L 430.913636 -246.823952 
L 435.845455 -246.823952 
L 435.845455 -246.823952 
L 435.845455 -266.097011 
L 435.845455 -266.097011 
L 435.845455 -266.097011 
L 430.913636 -266.097011 
L 430.913636 -266.097011 
L 425.981818 -266.097011 
L 425.981818 -266.097011 
L 421.05 -266.097011 
L 421.05 -266.097011 
L 416.118182 -266.097011 
L 416.118182 -266.097011 
L 411.186364 -266.097011 
L 411.186364 -266.097011 
L 406.254545 -266.097011 
L 406.254545 -266.097011 
L 401.322727 -266.097011 
L 401.322727 -266.097011 
L 396.390909 -266.097011 
L 396.390909 -266.097011 
L 391.459091 -266.097011 
L 391.459091 -266.097011 
L 386.527273 -266.097011 
L 386.527273 -266.097011 
L 381.595455 -266.097011 
L 381.595455 -267.247658 
L 376.663636 -267.247658 
L 376.663636 -267.247658 
L 371.731818 -267.247658 
L 371.731818 -268.320089 
L 366.8 -268.320089 
L 366.8 -268.320089 
L 361.868182 -268.320089 
L 361.868182 -268.320089 
L 356.936364 -268.320089 
L 356.936364 -270.247869 
L 352.004545 -270.247869 
L 352.004545 -270.247869 
L 347.072727 -270.247869 
L 347.072727 -270.247869 
L 342.140909 -270.247869 
L 342.140909 -271.992186 
L 337.209091 -271.992186 
L 337.209091 -271.992186 
L 332.277273 -271.992186 
L 332.277273 -271.992186 
L 327.345455 -271.992186 
L 327.345455 -271.992186 
L 322.413636 -271.992186 
L 322.413636 -271.992186 
L 317.481818 -271.992186 
L 317.481818 -271.992186 
L 312.55 -271.992186 
L 312.55 -271.992186 
L 307.618182 -271.992186 
L 307.618182 -271.992186 
L 302.686364 -271.992186 
L 302.686364 -272.699492 
L 297.754545 -272.699492 
L 297.754545 -272.699492 
L 292.822727 -272.699492 
L 292.822727 -272.699492 
L 287.890909 -272.699492 
L 287.890909 -272.699492 
L 282.959091 -272.699492 
L 282.959091 -272.699492 
L 278.027273 -272.699492 
L 278.027273 -272.699492 
L 273.095455 -272.699492 
L 273.095455 -272.699492 
L 268.163636 -272.699492 
L 268.163636 -272.699492 
L 263.231818 -272.699492 
L 263.231818 -272.699492 
L 258.3 -272.699492 
L 258.3 -272.699492 
L 253.368182 -272.699492 
L 253.368182 -272.699492 
L 248.436364 -272.699492 
L 248.436364 -272.699492 
L 243.504545 -272.699492 
L 243.504545 -273.262274 
L 238.572727 -273.262274 
L 238.572727 -273.262274 
L 233.640909 -273.262274 
L 233.640909 -273.809872 
L 228.709091 -273.809872 
L 228.709091 -274.348804 
L 223.777273 -274.348804 
L 223.777273 -274.348804 
L 218.845455 -274.348804 
L 218.845455 -274.348804 
L 213.913636 -274.348804 
L 213.913636 -274.348804 
L 208.981818 -274.348804 
L 208.981818 -274.348804 
L 204.05 -274.348804 
L 204.05 -275.334909 
L 199.118182 -275.334909 
L 199.118182 -275.334909 
L 194.186364 -275.334909 
L 194.186364 -275.334909 
L 189.254545 -275.334909 
L 189.254545 -275.334909 
L 184.322727 -275.334909 
L 184.322727 -275.334909 
L 179.390909 -275.334909 
L 179.390909 -275.780788 
L 174.459091 -275.780788 
L 174.459091 -275.780788 
L 169.527273 -275.780788 
L 169.527273 -276.209434 
L 164.595455 -276.209434 
L 164.595455 -276.629863 
L 159.663636 -276.629863 
L 159.663636 -277.455861 
L 154.731818 -277.455861 
L 154.731818 -279.067081 
L 149.8 -279.067081 
L 149.8 -279.067081 
L 144.868182 -279.067081 
L 144.868182 -279.067081 
L 139.936364 -279.067081 
L 139.936364 -279.823015 
L 135.004545 -279.823015 
L 135.004545 -281.305627 
L 130.072727 -281.305627 
L 130.072727 -281.305627 
L 125.140909 -281.305627 
L 125.140909 -282.016262 
L 120.209091 -282.016262 
L 120.209091 -283.056172 
L 115.277273 -283.056172 
L 115.277273 -284.075155 
L 110.345455 -284.075155 
L 110.345455 -284.406794 
L 105.413636 -284.406794 
L 105.413636 -285.709345 
L 100.481818 -285.709345 
L 100.481818 -286.65828 
L 95.55 -286.65828 
L 95.55 -288.503031 
L 90.618182 -288.503031 
L 90.618182 -290.283662 
L 85.686364 -290.283662 
L 85.686364 -304.445455 
L 80.754545 -304.445455 
z
" id="m924ec8b8f6" style="stroke:#55a868;stroke-opacity:0.25;"/>
    </defs>
    <g clip-path="url(#p8ed226e84c)">
     <use style="fill:#55a868;fill-opacity:0.25;stroke:#55a868;stroke-opacity:0.25;" x="0" xlink:href="#m924ec8b8f6" y="360"/>
    </g>
   </g>
   <g id="line2d_15">
    <path clip-path="url(#p8ed226e84c)" d="M 80.754545 55.554545 
L 85.686364 55.554545 
L 85.686364 98.604419 
L 90.618182 98.604419 
L 90.618182 113.921112 
L 95.55 113.921112 
L 95.55 123.972653 
L 100.481818 123.972653 
L 100.481818 134.435727 
L 105.413636 134.435727 
L 105.413636 141.303459 
L 110.345455 141.303459 
L 110.345455 145.575203 
L 115.277273 145.575203 
L 115.277273 150.498453 
L 120.209091 150.498453 
L 120.209091 154.521865 
L 125.140909 154.521865 
L 125.140909 159.046074 
L 130.072727 159.046074 
L 130.072727 164.293849 
L 135.004545 164.293849 
L 135.004545 167.074865 
L 139.936364 167.074865 
L 139.936364 171.226681 
L 144.868182 171.226681 
L 144.868182 175.232462 
L 149.8 175.232462 
L 149.8 177.728499 
L 154.731818 177.728499 
L 154.731818 183.266223 
L 159.663636 183.266223 
L 159.663636 186.072052 
L 164.595455 186.072052 
L 164.595455 188.927848 
L 169.527273 188.927848 
L 169.527273 191.347788 
L 174.459091 191.347788 
L 174.459091 193.587508 
L 179.390909 193.587508 
L 179.390909 195.867283 
L 184.322727 195.867283 
L 184.322727 196.894385 
L 189.254545 196.894385 
L 189.254545 200.799639 
L 194.186364 200.799639 
L 194.186364 202.387838 
L 199.118182 202.387838 
L 199.118182 204.834681 
L 204.05 204.834681 
L 204.05 206.511684 
L 208.981818 206.511684 
L 208.981818 208.497034 
L 213.913636 208.497034 
L 213.913636 211.406884 
L 218.845455 211.406884 
L 218.845455 212.599922 
L 223.777273 212.599922 
L 223.777273 215.040434 
L 228.709091 215.040434 
L 228.709091 216.295555 
L 233.640909 216.295555 
L 233.640909 218.859043 
L 238.572727 218.859043 
L 238.572727 222.133427 
L 243.504545 222.133427 
L 243.504545 223.807587 
L 248.436364 223.807587 
L 248.436364 225.860977 
L 253.368182 225.860977 
L 253.368182 227.253132 
L 258.3 227.253132 
L 258.3 229.394909 
L 263.231818 229.394909 
L 263.231818 231.577677 
L 268.163636 231.577677 
L 268.163636 234.180691 
L 273.095455 234.180691 
L 273.095455 235.690636 
L 278.027273 235.690636 
L 278.027273 237.233831 
L 282.959091 237.233831 
L 282.959091 238.811958 
L 287.890909 238.811958 
L 287.890909 241.230962 
L 292.822727 241.230962 
L 292.822727 242.058997 
L 297.754545 242.058997 
L 297.754545 243.337366 
L 302.686364 243.337366 
L 302.686364 244.644528 
L 307.618182 244.644528 
L 307.618182 246.887406 
L 312.55 246.887406 
L 312.55 249.674828 
L 317.481818 249.674828 
L 317.481818 251.579878 
L 322.413636 251.579878 
L 322.413636 253.548097 
L 327.345455 253.548097 
L 327.345455 254.056226 
L 332.277273 254.056226 
L 332.277273 255.623353 
L 337.209091 255.623353 
L 337.209091 256.713172 
L 342.140909 256.713172 
L 342.140909 257.854674 
L 347.072727 257.854674 
L 347.072727 259.045484 
L 352.004545 259.045484 
L 352.004545 260.908483 
L 356.936364 260.908483 
L 356.936364 262.222308 
L 361.868182 262.222308 
L 361.868182 262.917962 
L 366.8 262.917962 
L 366.8 265.100295 
L 371.731818 265.100295 
L 371.731818 266.608311 
L 386.527273 266.608311 
L 386.527273 267.498041 
L 396.390909 267.498041 
L 396.390909 268.51731 
L 401.322727 268.51731 
L 401.322727 270.734967 
L 406.254545 270.734967 
L 406.254545 271.924072 
L 411.186364 271.924072 
L 411.186364 275.907877 
L 416.118182 275.907877 
L 416.118182 280.591866 
L 421.05 280.591866 
L 421.05 282.508043 
L 425.981818 282.508043 
L 425.981818 287.1139 
L 435.845455 287.1139 
L 435.845455 287.1139 
" style="fill:none;stroke:#4c72b0;stroke-linecap:round;stroke-width:1.5;"/>
   </g>
   <g id="line2d_16">
    <path clip-path="url(#p8ed226e84c)" d="M 80.754545 55.554545 
L 85.686364 55.554545 
L 85.686364 67.755847 
L 90.618182 67.755847 
L 90.618182 73.260579 
L 95.55 73.260579 
L 95.55 79.152278 
L 100.481818 79.152278 
L 100.481818 83.477943 
L 105.413636 83.477943 
L 105.413636 87.827996 
L 110.345455 87.827996 
L 110.345455 90.924395 
L 115.277273 90.924395 
L 115.277273 95.136172 
L 120.209091 95.136172 
L 120.209091 98.64035 
L 125.140909 98.64035 
L 125.140909 102.718574 
L 130.072727 102.718574 
L 130.072727 106.453369 
L 135.004545 106.453369 
L 135.004545 109.078055 
L 139.936364 109.078055 
L 139.936364 112.28358 
L 144.868182 112.28358 
L 144.868182 116.085418 
L 149.8 116.085418 
L 149.8 118.575893 
L 154.731818 118.575893 
L 154.731818 120.308868 
L 159.663636 120.308868 
L 159.663636 123.028688 
L 164.595455 123.028688 
L 164.595455 125.565039 
L 169.527273 125.565039 
L 169.527273 128.123413 
L 174.459091 128.123413 
L 174.459091 130.104859 
L 179.390909 130.104859 
L 179.390909 131.698626 
L 184.322727 131.698626 
L 184.322727 134.309207 
L 189.254545 134.309207 
L 189.254545 136.739758 
L 194.186364 136.739758 
L 194.186364 138.172943 
L 199.118182 138.172943 
L 199.118182 141.066284 
L 204.05 141.066284 
L 204.05 144.192632 
L 208.981818 144.192632 
L 208.981818 145.875332 
L 213.913636 145.875332 
L 213.913636 146.513968 
L 218.845455 146.513968 
L 218.845455 148.230213 
L 223.777273 148.230213 
L 223.777273 149.742877 
L 228.709091 149.742877 
L 228.709091 152.138806 
L 233.640909 152.138806 
L 233.640909 153.684677 
L 238.572727 153.684677 
L 238.572727 155.695609 
L 243.504545 155.695609 
L 243.504545 157.501256 
L 248.436364 157.501256 
L 248.436364 158.869452 
L 253.368182 158.869452 
L 253.368182 161.419722 
L 258.3 161.419722 
L 258.3 162.362363 
L 263.231818 162.362363 
L 263.231818 164.502327 
L 268.163636 164.502327 
L 268.163636 165.94571 
L 273.095455 165.94571 
L 273.095455 168.380025 
L 278.027273 168.380025 
L 278.027273 170.590062 
L 282.959091 170.590062 
L 282.959091 173.082763 
L 287.890909 173.082763 
L 287.890909 175.112007 
L 292.822727 175.112007 
L 292.822727 178.452077 
L 297.754545 178.452077 
L 297.754545 179.234756 
L 302.686364 179.234756 
L 302.686364 179.763551 
L 307.618182 179.763551 
L 307.618182 181.649572 
L 312.55 181.649572 
L 312.55 183.841956 
L 317.481818 183.841956 
L 317.481818 185.236236 
L 322.413636 185.236236 
L 322.413636 188.353568 
L 327.345455 188.353568 
L 327.345455 190.95538 
L 332.277273 190.95538 
L 332.277273 192.437092 
L 337.209091 192.437092 
L 337.209091 194.251401 
L 342.140909 194.251401 
L 342.140909 197.364024 
L 347.072727 197.364024 
L 347.072727 200.85251 
L 352.004545 200.85251 
L 352.004545 202.803682 
L 356.936364 202.803682 
L 356.936364 204.792 
L 361.868182 204.792 
L 361.868182 207.194032 
L 366.8 207.194032 
L 366.8 210.022489 
L 371.731818 210.022489 
L 371.731818 211.846078 
L 376.663636 211.846078 
L 376.663636 214.095597 
L 381.595455 214.095597 
L 381.595455 216.849318 
L 386.527273 216.849318 
L 386.527273 218.492265 
L 391.459091 218.492265 
L 391.459091 220.204412 
L 396.390909 220.204412 
L 396.390909 221.549145 
L 401.322727 221.549145 
L 401.322727 224.873113 
L 406.254545 224.873113 
L 406.254545 230.93506 
L 411.186364 230.93506 
L 411.186364 234.724229 
L 416.118182 234.724229 
L 416.118182 238.219001 
L 421.05 238.219001 
L 421.05 242.674082 
L 425.981818 242.674082 
L 425.981818 248.981742 
L 430.913636 248.981742 
L 430.913636 254.003133 
L 435.845455 254.003133 
L 435.845455 260.96224 
L 435.845455 260.96224 
" style="fill:none;stroke:#dd8452;stroke-linecap:round;stroke-width:1.5;"/>
   </g>
   <g id="line2d_17">
    <path clip-path="url(#p8ed226e84c)" d="M 80.754545 55.554545 
L 85.686364 55.554545 
L 85.686364 73.792978 
L 90.618182 73.792978 
L 90.618182 75.830205 
L 95.55 75.830205 
L 95.55 77.931339 
L 100.481818 77.931339 
L 100.481818 79.009248 
L 105.413636 79.009248 
L 105.413636 80.487355 
L 110.345455 80.487355 
L 110.345455 80.863322 
L 115.277273 80.863322 
L 115.277273 82.019059 
L 120.209091 82.019059 
L 120.209091 83.196907 
L 125.140909 83.196907 
L 125.140909 84.001787 
L 135.004545 84.001787 
L 135.004545 85.683828 
L 139.936364 85.683828 
L 139.936364 86.540125 
L 154.731818 86.540125 
L 154.731818 88.373918 
L 159.663636 88.373918 
L 159.663636 89.31306 
L 164.595455 89.31306 
L 164.595455 89.791224 
L 169.527273 89.791224 
L 169.527273 90.279383 
L 179.390909 90.279383 
L 179.390909 90.789449 
L 204.05 90.789449 
L 204.05 91.933475 
L 228.709091 91.933475 
L 228.709091 92.567038 
L 233.640909 92.567038 
L 233.640909 93.210776 
L 243.504545 93.210776 
L 243.504545 93.873903 
L 302.686364 93.873903 
L 302.686364 94.75321 
L 342.140909 94.75321 
L 342.140909 97.050456 
L 356.936364 97.050456 
L 356.936364 99.602952 
L 371.731818 99.602952 
L 371.731818 101.049366 
L 381.595455 101.049366 
L 381.595455 102.616315 
L 435.845455 102.616315 
L 435.845455 102.616315 
" style="fill:none;stroke:#55a868;stroke-linecap:round;stroke-width:1.5;"/>
   </g>
   <g id="patch_3">
    <path d="M 63 315 
L 63 43.2 
" style="fill:none;stroke:#ffffff;stroke-linecap:square;stroke-linejoin:miter;stroke-width:1.25;"/>
   </g>
   <g id="patch_4">
    <path d="M 453.6 315 
L 453.6 43.2 
" style="fill:none;stroke:#ffffff;stroke-linecap:square;stroke-linejoin:miter;stroke-width:1.25;"/>
   </g>
   <g id="patch_5">
    <path d="M 63 315 
L 453.6 315 
" style="fill:none;stroke:#ffffff;stroke-linecap:square;stroke-linejoin:miter;stroke-width:1.25;"/>
   </g>
   <g id="patch_6">
    <path d="M 63 43.2 
L 453.6 43.2 
" style="fill:none;stroke:#ffffff;stroke-linecap:square;stroke-linejoin:miter;stroke-width:1.25;"/>
   </g>
   <g id="text_17">
    <!-- Survival curves, stratified by StreamingTV -->
    <g style="fill:#262626;" transform="translate(137.92875 33.2)scale(0.12 -0.12)">
     <defs>
      <path d="M 52.390625 36.53125 
L 38.875 34.078125 
Q 38.1875 38.140625 35.765625 40.1875 
Q 33.34375 42.234375 29.5 42.234375 
Q 24.359375 42.234375 21.3125 38.6875 
Q 18.265625 35.15625 18.265625 26.859375 
Q 18.265625 17.625 21.359375 13.8125 
Q 24.46875 10.015625 29.6875 10.015625 
Q 33.59375 10.015625 36.078125 12.234375 
Q 38.578125 14.453125 39.59375 19.875 
L 53.078125 17.578125 
Q 50.984375 8.296875 45.015625 3.5625 
Q 39.0625 -1.171875 29.046875 -1.171875 
Q 17.671875 -1.171875 10.90625 6 
Q 4.15625 13.1875 4.15625 25.875 
Q 4.15625 38.71875 10.9375 45.875 
Q 17.71875 53.03125 29.296875 53.03125 
Q 38.765625 53.03125 44.359375 48.953125 
Q 49.953125 44.875 52.390625 36.53125 
z
" id="Arial-BoldMT-99"/>
      <path d="M 6.84375 13.71875 
L 20.5625 13.71875 
L 20.5625 3.90625 
Q 20.5625 -2.046875 19.53125 -5.484375 
Q 18.5 -8.9375 15.640625 -11.671875 
Q 12.796875 -14.40625 8.40625 -15.96875 
L 5.71875 -10.296875 
Q 9.859375 -8.9375 11.609375 -6.546875 
Q 13.375 -4.15625 13.484375 0 
L 6.84375 0 
z
" id="Arial-BoldMT-44"/>
      <path d="M 1.171875 51.859375 
L 8.796875 51.859375 
L 8.796875 55.765625 
Q 8.796875 62.3125 10.1875 65.53125 
Q 11.578125 68.75 15.3125 70.765625 
Q 19.046875 72.796875 24.75 72.796875 
Q 30.609375 72.796875 36.234375 71.046875 
L 34.375 61.46875 
Q 31.109375 62.25 28.078125 62.25 
Q 25.09375 62.25 23.796875 60.859375 
Q 22.515625 59.46875 22.515625 55.515625 
L 22.515625 51.859375 
L 32.765625 51.859375 
L 32.765625 41.0625 
L 22.515625 41.0625 
L 22.515625 0 
L 8.796875 0 
L 8.796875 41.0625 
L 1.171875 41.0625 
z
" id="Arial-BoldMT-102"/>
      <path d="M 54.734375 0 
L 42 0 
L 42 7.625 
Q 38.8125 3.171875 34.484375 1 
Q 30.171875 -1.171875 25.78125 -1.171875 
Q 16.84375 -1.171875 10.46875 6.03125 
Q 4.109375 13.234375 4.109375 26.125 
Q 4.109375 39.3125 10.296875 46.171875 
Q 16.5 53.03125 25.984375 53.03125 
Q 34.671875 53.03125 41.015625 45.796875 
L 41.015625 71.578125 
L 54.734375 71.578125 
z
M 18.109375 27.046875 
Q 18.109375 18.75 20.40625 15.046875 
Q 23.734375 9.671875 29.6875 9.671875 
Q 34.421875 9.671875 37.734375 13.6875 
Q 41.0625 17.71875 41.0625 25.734375 
Q 41.0625 34.671875 37.84375 38.59375 
Q 34.625 42.53125 29.59375 42.53125 
Q 24.703125 42.53125 21.40625 38.640625 
Q 18.109375 34.765625 18.109375 27.046875 
z
" id="Arial-BoldMT-100"/>
      <path d="M 5.90625 -3.421875 
L 21.578125 -5.328125 
Q 21.96875 -8.0625 23.390625 -9.078125 
Q 25.34375 -10.546875 29.546875 -10.546875 
Q 34.90625 -10.546875 37.59375 -8.9375 
Q 39.40625 -7.859375 40.328125 -5.46875 
Q 40.96875 -3.765625 40.96875 0.828125 
L 40.96875 8.40625 
Q 34.8125 0 25.4375 0 
Q 14.984375 0 8.890625 8.84375 
Q 4.109375 15.828125 4.109375 26.21875 
Q 4.109375 39.265625 10.375 46.140625 
Q 16.65625 53.03125 25.984375 53.03125 
Q 35.59375 53.03125 41.84375 44.578125 
L 41.84375 51.859375 
L 54.6875 51.859375 
L 54.6875 5.328125 
Q 54.6875 -3.859375 53.171875 -8.390625 
Q 51.65625 -12.9375 48.921875 -15.515625 
Q 46.1875 -18.109375 41.625 -19.578125 
Q 37.0625 -21.046875 30.078125 -21.046875 
Q 16.890625 -21.046875 11.375 -16.53125 
Q 5.859375 -12.015625 5.859375 -5.078125 
Q 5.859375 -4.390625 5.90625 -3.421875 
z
M 18.171875 27 
Q 18.171875 18.75 21.359375 14.90625 
Q 24.5625 11.078125 29.25 11.078125 
Q 34.28125 11.078125 37.75 15.015625 
Q 41.21875 18.953125 41.21875 26.65625 
Q 41.21875 34.71875 37.890625 38.625 
Q 34.578125 42.53125 29.5 42.53125 
Q 24.5625 42.53125 21.359375 38.6875 
Q 18.171875 34.859375 18.171875 27 
z
" id="Arial-BoldMT-103"/>
      <path d="M 25.53125 0 
L -0.046875 71.578125 
L 15.625 71.578125 
L 33.734375 18.609375 
L 51.265625 71.578125 
L 66.609375 71.578125 
L 40.96875 0 
z
" id="Arial-BoldMT-86"/>
     </defs>
     <use xlink:href="#Arial-BoldMT-83"/>
     <use x="66.699219" xlink:href="#Arial-BoldMT-117"/>
     <use x="127.783203" xlink:href="#Arial-BoldMT-114"/>
     <use x="166.699219" xlink:href="#Arial-BoldMT-118"/>
     <use x="222.314453" xlink:href="#Arial-BoldMT-105"/>
     <use x="250.097656" xlink:href="#Arial-BoldMT-118"/>
     <use x="305.712891" xlink:href="#Arial-BoldMT-97"/>
     <use x="361.328125" xlink:href="#Arial-BoldMT-108"/>
     <use x="389.111328" xlink:href="#Arial-BoldMT-32"/>
     <use x="416.894531" xlink:href="#Arial-BoldMT-99"/>
     <use x="472.509766" xlink:href="#Arial-BoldMT-117"/>
     <use x="533.59375" xlink:href="#Arial-BoldMT-114"/>
     <use x="572.509766" xlink:href="#Arial-BoldMT-118"/>
     <use x="628.125" xlink:href="#Arial-BoldMT-101"/>
     <use x="683.740234" xlink:href="#Arial-BoldMT-115"/>
     <use x="739.355469" xlink:href="#Arial-BoldMT-44"/>
     <use x="767.138672" xlink:href="#Arial-BoldMT-32"/>
     <use x="794.921875" xlink:href="#Arial-BoldMT-115"/>
     <use x="850.537109" xlink:href="#Arial-BoldMT-116"/>
     <use x="883.837891" xlink:href="#Arial-BoldMT-114"/>
     <use x="922.753906" xlink:href="#Arial-BoldMT-97"/>
     <use x="978.369141" xlink:href="#Arial-BoldMT-116"/>
     <use x="1011.669922" xlink:href="#Arial-BoldMT-105"/>
     <use x="1039.453125" xlink:href="#Arial-BoldMT-102"/>
     <use x="1072.753906" xlink:href="#Arial-BoldMT-105"/>
     <use x="1100.537109" xlink:href="#Arial-BoldMT-101"/>
     <use x="1156.152344" xlink:href="#Arial-BoldMT-100"/>
     <use x="1217.236328" xlink:href="#Arial-BoldMT-32"/>
     <use x="1245.019531" xlink:href="#Arial-BoldMT-98"/>
     <use x="1306.103516" xlink:href="#Arial-BoldMT-121"/>
     <use x="1361.71875" xlink:href="#Arial-BoldMT-32"/>
     <use x="1389.501953" xlink:href="#Arial-BoldMT-83"/>
     <use x="1456.201172" xlink:href="#Arial-BoldMT-116"/>
     <use x="1489.501953" xlink:href="#Arial-BoldMT-114"/>
     <use x="1528.417969" xlink:href="#Arial-BoldMT-101"/>
     <use x="1584.033203" xlink:href="#Arial-BoldMT-97"/>
     <use x="1639.648438" xlink:href="#Arial-BoldMT-109"/>
     <use x="1728.564453" xlink:href="#Arial-BoldMT-105"/>
     <use x="1756.347656" xlink:href="#Arial-BoldMT-110"/>
     <use x="1817.431641" xlink:href="#Arial-BoldMT-103"/>
     <use x="1878.515625" xlink:href="#Arial-BoldMT-84"/>
     <use x="1939.599609" xlink:href="#Arial-BoldMT-86"/>
    </g>
   </g>
   <g id="legend_1">
    <g id="patch_7">
     <path d="M 70.7 309.5 
L 197.600469 309.5 
Q 199.800469 309.5 199.800469 307.3 
L 199.800469 261.720469 
Q 199.800469 259.520469 197.600469 259.520469 
L 70.7 259.520469 
Q 68.5 259.520469 68.5 261.720469 
L 68.5 307.3 
Q 68.5 309.5 70.7 309.5 
z
" style="fill:#eaeaf2;opacity:0.8;stroke:#cccccc;stroke-linejoin:miter;"/>
    </g>
    <g id="line2d_18">
     <path d="M 72.9 267.944062 
L 94.9 267.944062 
" style="fill:none;stroke:#4c72b0;stroke-linecap:round;stroke-width:1.5;"/>
    </g>
    <g id="line2d_19"/>
    <g id="text_18">
     <!-- No -->
     <g style="fill:#262626;" transform="translate(103.7 271.794062)scale(0.11 -0.11)">
      <defs>
       <path d="M 7.625 0 
L 7.625 71.578125 
L 17.328125 71.578125 
L 54.9375 15.375 
L 54.9375 71.578125 
L 64.015625 71.578125 
L 64.015625 0 
L 54.296875 0 
L 16.703125 56.25 
L 16.703125 0 
z
" id="ArialMT-78"/>
       <path d="M 3.328125 25.921875 
Q 3.328125 40.328125 11.328125 47.265625 
Q 18.015625 53.03125 27.640625 53.03125 
Q 38.328125 53.03125 45.109375 46.015625 
Q 51.90625 39.015625 51.90625 26.65625 
Q 51.90625 16.65625 48.90625 10.90625 
Q 45.90625 5.171875 40.15625 2 
Q 34.421875 -1.171875 27.640625 -1.171875 
Q 16.75 -1.171875 10.03125 5.8125 
Q 3.328125 12.796875 3.328125 25.921875 
z
M 12.359375 25.921875 
Q 12.359375 15.96875 16.703125 11.015625 
Q 21.046875 6.0625 27.640625 6.0625 
Q 34.1875 6.0625 38.53125 11.03125 
Q 42.875 16.015625 42.875 26.21875 
Q 42.875 35.84375 38.5 40.796875 
Q 34.125 45.75 27.640625 45.75 
Q 21.046875 45.75 16.703125 40.8125 
Q 12.359375 35.890625 12.359375 25.921875 
z
" id="ArialMT-111"/>
      </defs>
      <use xlink:href="#ArialMT-78"/>
      <use x="72.216797" xlink:href="#ArialMT-111"/>
     </g>
    </g>
    <g id="line2d_20">
     <path d="M 72.9 283.503906 
L 94.9 283.503906 
" style="fill:none;stroke:#dd8452;stroke-linecap:round;stroke-width:1.5;"/>
    </g>
    <g id="line2d_21"/>
    <g id="text_19">
     <!-- Yes -->
     <g style="fill:#262626;" transform="translate(103.7 287.353906)scale(0.11 -0.11)">
      <defs>
       <path d="M 27.875 0 
L 27.875 30.328125 
L 0.296875 71.578125 
L 11.8125 71.578125 
L 25.921875 50 
Q 29.828125 43.953125 33.203125 37.890625 
Q 36.421875 43.5 41.015625 50.53125 
L 54.890625 71.578125 
L 65.921875 71.578125 
L 37.359375 30.328125 
L 37.359375 0 
z
" id="ArialMT-89"/>
       <path d="M 42.09375 16.703125 
L 51.171875 15.578125 
Q 49.03125 7.625 43.21875 3.21875 
Q 37.40625 -1.171875 28.375 -1.171875 
Q 17 -1.171875 10.328125 5.828125 
Q 3.65625 12.84375 3.65625 25.484375 
Q 3.65625 38.578125 10.390625 45.796875 
Q 17.140625 53.03125 27.875 53.03125 
Q 38.28125 53.03125 44.875 45.953125 
Q 51.46875 38.875 51.46875 26.03125 
Q 51.46875 25.25 51.421875 23.6875 
L 12.75 23.6875 
Q 13.234375 15.140625 17.578125 10.59375 
Q 21.921875 6.0625 28.421875 6.0625 
Q 33.25 6.0625 36.671875 8.59375 
Q 40.09375 11.140625 42.09375 16.703125 
z
M 13.234375 30.90625 
L 42.1875 30.90625 
Q 41.609375 37.453125 38.875 40.71875 
Q 34.671875 45.796875 27.984375 45.796875 
Q 21.921875 45.796875 17.796875 41.75 
Q 13.671875 37.703125 13.234375 30.90625 
z
" id="ArialMT-101"/>
       <path d="M 3.078125 15.484375 
L 11.765625 16.84375 
Q 12.5 11.625 15.84375 8.84375 
Q 19.1875 6.0625 25.203125 6.0625 
Q 31.25 6.0625 34.171875 8.515625 
Q 37.109375 10.984375 37.109375 14.3125 
Q 37.109375 17.28125 34.515625 19 
Q 32.71875 20.171875 25.53125 21.96875 
Q 15.875 24.421875 12.140625 26.203125 
Q 8.40625 27.984375 6.46875 31.125 
Q 4.546875 34.28125 4.546875 38.09375 
Q 4.546875 41.546875 6.125 44.5 
Q 7.71875 47.46875 10.453125 49.421875 
Q 12.5 50.921875 16.03125 51.96875 
Q 19.578125 53.03125 23.640625 53.03125 
Q 29.734375 53.03125 34.34375 51.265625 
Q 38.96875 49.515625 41.15625 46.5 
Q 43.359375 43.5 44.1875 38.484375 
L 35.59375 37.3125 
Q 35.015625 41.3125 32.203125 43.546875 
Q 29.390625 45.796875 24.265625 45.796875 
Q 18.21875 45.796875 15.625 43.796875 
Q 13.03125 41.796875 13.03125 39.109375 
Q 13.03125 37.40625 14.109375 36.03125 
Q 15.1875 34.625 17.484375 33.6875 
Q 18.796875 33.203125 25.25 31.453125 
Q 34.578125 28.953125 38.25 27.359375 
Q 41.9375 25.78125 44.03125 22.75 
Q 46.140625 19.734375 46.140625 15.234375 
Q 46.140625 10.84375 43.578125 6.953125 
Q 41.015625 3.078125 36.171875 0.953125 
Q 31.34375 -1.171875 25.25 -1.171875 
Q 15.140625 -1.171875 9.84375 3.03125 
Q 4.546875 7.234375 3.078125 15.484375 
z
" id="ArialMT-115"/>
      </defs>
      <use xlink:href="#ArialMT-89"/>
      <use x="57.574219" xlink:href="#ArialMT-101"/>
      <use x="113.189453" xlink:href="#ArialMT-115"/>
     </g>
    </g>
    <g id="line2d_22">
     <path d="M 72.9 299.06375 
L 94.9 299.06375 
" style="fill:none;stroke:#55a868;stroke-linecap:round;stroke-width:1.5;"/>
    </g>
    <g id="line2d_23"/>
    <g id="text_20">
     <!-- No internet service -->
     <g style="fill:#262626;" transform="translate(103.7 302.91375)scale(0.11 -0.11)">
      <defs>
       <path id="ArialMT-32"/>
       <path d="M 6.640625 61.46875 
L 6.640625 71.578125 
L 15.4375 71.578125 
L 15.4375 61.46875 
z
M 6.640625 0 
L 6.640625 51.859375 
L 15.4375 51.859375 
L 15.4375 0 
z
" id="ArialMT-105"/>
       <path d="M 6.59375 0 
L 6.59375 51.859375 
L 14.5 51.859375 
L 14.5 44.484375 
Q 20.21875 53.03125 31 53.03125 
Q 35.6875 53.03125 39.625 51.34375 
Q 43.5625 49.65625 45.515625 46.921875 
Q 47.46875 44.1875 48.25 40.4375 
Q 48.734375 37.984375 48.734375 31.890625 
L 48.734375 0 
L 39.9375 0 
L 39.9375 31.546875 
Q 39.9375 36.921875 38.90625 39.578125 
Q 37.890625 42.234375 35.28125 43.8125 
Q 32.671875 45.40625 29.15625 45.40625 
Q 23.53125 45.40625 19.453125 41.84375 
Q 15.375 38.28125 15.375 28.328125 
L 15.375 0 
z
" id="ArialMT-110"/>
       <path d="M 25.78125 7.859375 
L 27.046875 0.09375 
Q 23.34375 -0.6875 20.40625 -0.6875 
Q 15.625 -0.6875 12.984375 0.828125 
Q 10.359375 2.34375 9.28125 4.8125 
Q 8.203125 7.28125 8.203125 15.1875 
L 8.203125 45.015625 
L 1.765625 45.015625 
L 1.765625 51.859375 
L 8.203125 51.859375 
L 8.203125 64.703125 
L 16.9375 69.96875 
L 16.9375 51.859375 
L 25.78125 51.859375 
L 25.78125 45.015625 
L 16.9375 45.015625 
L 16.9375 14.703125 
Q 16.9375 10.9375 17.40625 9.859375 
Q 17.875 8.796875 18.921875 8.15625 
Q 19.96875 7.515625 21.921875 7.515625 
Q 23.390625 7.515625 25.78125 7.859375 
z
" id="ArialMT-116"/>
       <path d="M 6.5 0 
L 6.5 51.859375 
L 14.40625 51.859375 
L 14.40625 44 
Q 17.4375 49.515625 20 51.265625 
Q 22.5625 53.03125 25.640625 53.03125 
Q 30.078125 53.03125 34.671875 50.203125 
L 31.640625 42.046875 
Q 28.421875 43.953125 25.203125 43.953125 
Q 22.3125 43.953125 20.015625 42.21875 
Q 17.71875 40.484375 16.75 37.40625 
Q 15.28125 32.71875 15.28125 27.15625 
L 15.28125 0 
z
" id="ArialMT-114"/>
       <path d="M 21 0 
L 1.265625 51.859375 
L 10.546875 51.859375 
L 21.6875 20.796875 
Q 23.484375 15.765625 25 10.359375 
Q 26.171875 14.453125 28.265625 20.21875 
L 39.796875 51.859375 
L 48.828125 51.859375 
L 29.203125 0 
z
" id="ArialMT-118"/>
       <path d="M 40.4375 19 
L 49.078125 17.875 
Q 47.65625 8.9375 41.8125 3.875 
Q 35.984375 -1.171875 27.484375 -1.171875 
Q 16.84375 -1.171875 10.375 5.78125 
Q 3.90625 12.75 3.90625 25.734375 
Q 3.90625 34.125 6.6875 40.421875 
Q 9.46875 46.734375 15.15625 49.875 
Q 20.84375 53.03125 27.546875 53.03125 
Q 35.984375 53.03125 41.359375 48.75 
Q 46.734375 44.484375 48.25 36.625 
L 39.703125 35.296875 
Q 38.484375 40.53125 35.375 43.15625 
Q 32.28125 45.796875 27.875 45.796875 
Q 21.234375 45.796875 17.078125 41.03125 
Q 12.9375 36.28125 12.9375 25.984375 
Q 12.9375 15.53125 16.9375 10.796875 
Q 20.953125 6.0625 27.390625 6.0625 
Q 32.5625 6.0625 36.03125 9.234375 
Q 39.5 12.40625 40.4375 19 
z
" id="ArialMT-99"/>
      </defs>
      <use xlink:href="#ArialMT-78"/>
      <use x="72.216797" xlink:href="#ArialMT-111"/>
      <use x="127.832031" xlink:href="#ArialMT-32"/>
      <use x="155.615234" xlink:href="#ArialMT-105"/>
      <use x="177.832031" xlink:href="#ArialMT-110"/>
      <use x="233.447266" xlink:href="#ArialMT-116"/>
      <use x="261.230469" xlink:href="#ArialMT-101"/>
      <use x="316.845703" xlink:href="#ArialMT-114"/>
      <use x="350.146484" xlink:href="#ArialMT-110"/>
      <use x="405.761719" xlink:href="#ArialMT-101"/>
      <use x="461.376953" xlink:href="#ArialMT-116"/>
      <use x="489.160156" xlink:href="#ArialMT-32"/>
      <use x="516.943359" xlink:href="#ArialMT-115"/>
      <use x="566.943359" xlink:href="#ArialMT-101"/>
      <use x="622.558594" xlink:href="#ArialMT-114"/>
      <use x="655.859375" xlink:href="#ArialMT-118"/>
      <use x="705.859375" xlink:href="#ArialMT-105"/>
      <use x="728.076172" xlink:href="#ArialMT-99"/>
      <use x="778.076172" xlink:href="#ArialMT-101"/>
     </g>
    </g>
   </g>
  </g>
 </g>
 <defs>
  <clipPath id="p8ed226e84c">
   <rect height="271.8" width="390.6" x="63" y="43.2"/>
  </clipPath>
 </defs>
</svg>
