<?xml version="1.0" encoding="utf-8" standalone="no"?>
<!DOCTYPE svg PUBLIC "-//W3C//DTD SVG 1.1//EN"
  "http://www.w3.org/Graphics/SVG/1.1/DTD/svg11.dtd">
<!-- Created with matplotlib (https://matplotlib.org/) -->
<svg height="360pt" version="1.1" viewBox="0 0 504 360" width="504pt" xmlns="http://www.w3.org/2000/svg" xmlns:xlink="http://www.w3.org/1999/xlink">
 <metadata>
  <rdf:RDF xmlns:cc="http://creativecommons.org/ns#" xmlns:dc="http://purl.org/dc/elements/1.1/" xmlns:rdf="http://www.w3.org/1999/02/22-rdf-syntax-ns#">
   <cc:Work>
    <dc:type rdf:resource="http://purl.org/dc/dcmitype/StillImage"/>
    <dc:date>2021-06-10T12:40:32.817031</dc:date>
    <dc:format>image/svg+xml</dc:format>
    <dc:creator>
     <cc:Agent>
      <dc:title>Matplotlib v3.3.3, https://matplotlib.org/</dc:title>
     </cc:Agent>
    </dc:creator>
   </cc:Work>
  </rdf:RDF>
 </metadata>
 <defs>
  <style type="text/css">*{stroke-linecap:butt;stroke-linejoin:round;}</style>
 </defs>
 <g id="figure_1">
  <g id="patch_1">
   <path d="M 0 360 
L 504 360 
L 504 0 
L 0 0 
z
" style="fill:none;"/>
  </g>
  <g id="axes_1">
   <g id="patch_2">
    <path d="M 63 315 
L 453.6 315 
L 453.6 43.2 
L 63 43.2 
z
" style="fill:#eaeaf2;"/>
   </g>
   <g id="matplotlib.axis_1">
    <g id="xtick_1">
     <g id="line2d_1">
      <path clip-path="url(#p74c77f63ed)" d="M 80.754545 315 
L 80.754545 43.2 
" style="fill:none;stroke:#ffffff;stroke-linecap:round;"/>
     </g>
     <g id="text_1">
      <!-- 0 -->
      <g style="fill:#262626;" transform="translate(77.69603 332.373594)scale(0.11 -0.11)">
       <defs>
        <path d="M 4.15625 35.296875 
Q 4.15625 48 6.765625 55.734375 
Q 9.375 63.484375 14.515625 67.671875 
Q 19.671875 71.875 27.484375 71.875 
Q 33.25 71.875 37.59375 69.546875 
Q 41.9375 67.234375 44.765625 62.859375 
Q 47.609375 58.5 49.21875 52.21875 
Q 50.828125 45.953125 50.828125 35.296875 
Q 50.828125 22.703125 48.234375 14.96875 
Q 45.65625 7.234375 40.5 3 
Q 35.359375 -1.21875 27.484375 -1.21875 
Q 17.140625 -1.21875 11.234375 6.203125 
Q 4.15625 15.140625 4.15625 35.296875 
z
M 13.1875 35.296875 
Q 13.1875 17.671875 17.3125 11.828125 
Q 21.4375 6 27.484375 6 
Q 33.546875 6 37.671875 11.859375 
Q 41.796875 17.71875 41.796875 35.296875 
Q 41.796875 52.984375 37.671875 58.78125 
Q 33.546875 64.59375 27.390625 64.59375 
Q 21.34375 64.59375 17.71875 59.46875 
Q 13.1875 52.9375 13.1875 35.296875 
z
" id="ArialMT-48"/>
       </defs>
       <use xlink:href="#ArialMT-48"/>
      </g>
     </g>
    </g>
    <g id="xtick_2">
     <g id="line2d_2">
      <path clip-path="url(#p74c77f63ed)" d="M 130.072727 315 
L 130.072727 43.2 
" style="fill:none;stroke:#ffffff;stroke-linecap:round;"/>
     </g>
     <g id="text_2">
      <!-- 10 -->
      <g style="fill:#262626;" transform="translate(123.955696 332.373594)scale(0.11 -0.11)">
       <defs>
        <path d="M 37.25 0 
L 28.46875 0 
L 28.46875 56 
Q 25.296875 52.984375 20.140625 49.953125 
Q 14.984375 46.921875 10.890625 45.40625 
L 10.890625 53.90625 
Q 18.265625 57.375 23.78125 62.296875 
Q 29.296875 67.234375 31.59375 71.875 
L 37.25 71.875 
z
" id="ArialMT-49"/>
       </defs>
       <use xlink:href="#ArialMT-49"/>
       <use x="55.615234" xlink:href="#ArialMT-48"/>
      </g>
     </g>
    </g>
    <g id="xtick_3">
     <g id="line2d_3">
      <path clip-path="url(#p74c77f63ed)" d="M 179.390909 315 
L 179.390909 43.2 
" style="fill:none;stroke:#ffffff;stroke-linecap:round;"/>
     </g>
     <g id="text_3">
      <!-- 20 -->
      <g style="fill:#262626;" transform="translate(173.273878 332.373594)scale(0.11 -0.11)">
       <defs>
        <path d="M 50.34375 8.453125 
L 50.34375 0 
L 3.03125 0 
Q 2.9375 3.171875 4.046875 6.109375 
Q 5.859375 10.9375 9.828125 15.625 
Q 13.8125 20.3125 21.34375 26.46875 
Q 33.015625 36.03125 37.109375 41.625 
Q 41.21875 47.21875 41.21875 52.203125 
Q 41.21875 57.421875 37.46875 61 
Q 33.734375 64.59375 27.734375 64.59375 
Q 21.390625 64.59375 17.578125 60.78125 
Q 13.765625 56.984375 13.71875 50.25 
L 4.6875 51.171875 
Q 5.609375 61.28125 11.65625 66.578125 
Q 17.71875 71.875 27.9375 71.875 
Q 38.234375 71.875 44.234375 66.15625 
Q 50.25 60.453125 50.25 52 
Q 50.25 47.703125 48.484375 43.546875 
Q 46.734375 39.40625 42.65625 34.8125 
Q 38.578125 30.21875 29.109375 22.21875 
Q 21.1875 15.578125 18.9375 13.203125 
Q 16.703125 10.84375 15.234375 8.453125 
z
" id="ArialMT-50"/>
       </defs>
       <use xlink:href="#ArialMT-50"/>
       <use x="55.615234" xlink:href="#ArialMT-48"/>
      </g>
     </g>
    </g>
    <g id="xtick_4">
     <g id="line2d_4">
      <path clip-path="url(#p74c77f63ed)" d="M 228.709091 315 
L 228.709091 43.2 
" style="fill:none;stroke:#ffffff;stroke-linecap:round;"/>
     </g>
     <g id="text_4">
      <!-- 30 -->
      <g style="fill:#262626;" transform="translate(222.59206 332.373594)scale(0.11 -0.11)">
       <defs>
        <path d="M 4.203125 18.890625 
L 12.984375 20.0625 
Q 14.5 12.59375 18.140625 9.296875 
Q 21.78125 6 27 6 
Q 33.203125 6 37.46875 10.296875 
Q 41.75 14.59375 41.75 20.953125 
Q 41.75 27 37.796875 30.921875 
Q 33.84375 34.859375 27.734375 34.859375 
Q 25.25 34.859375 21.53125 33.890625 
L 22.515625 41.609375 
Q 23.390625 41.5 23.921875 41.5 
Q 29.546875 41.5 34.03125 44.421875 
Q 38.53125 47.359375 38.53125 53.46875 
Q 38.53125 58.296875 35.25 61.46875 
Q 31.984375 64.65625 26.8125 64.65625 
Q 21.6875 64.65625 18.265625 61.421875 
Q 14.84375 58.203125 13.875 51.765625 
L 5.078125 53.328125 
Q 6.6875 62.15625 12.390625 67.015625 
Q 18.109375 71.875 26.609375 71.875 
Q 32.46875 71.875 37.390625 69.359375 
Q 42.328125 66.84375 44.9375 62.5 
Q 47.5625 58.15625 47.5625 53.265625 
Q 47.5625 48.640625 45.0625 44.828125 
Q 42.578125 41.015625 37.703125 38.765625 
Q 44.046875 37.3125 47.5625 32.6875 
Q 51.078125 28.078125 51.078125 21.140625 
Q 51.078125 11.765625 44.234375 5.25 
Q 37.40625 -1.265625 26.953125 -1.265625 
Q 17.53125 -1.265625 11.296875 4.34375 
Q 5.078125 9.96875 4.203125 18.890625 
z
" id="ArialMT-51"/>
       </defs>
       <use xlink:href="#ArialMT-51"/>
       <use x="55.615234" xlink:href="#ArialMT-48"/>
      </g>
     </g>
    </g>
    <g id="xtick_5">
     <g id="line2d_5">
      <path clip-path="url(#p74c77f63ed)" d="M 278.027273 315 
L 278.027273 43.2 
" style="fill:none;stroke:#ffffff;stroke-linecap:round;"/>
     </g>
     <g id="text_5">
      <!-- 40 -->
      <g style="fill:#262626;" transform="translate(271.910241 332.373594)scale(0.11 -0.11)">
       <defs>
        <path d="M 32.328125 0 
L 32.328125 17.140625 
L 1.265625 17.140625 
L 1.265625 25.203125 
L 33.9375 71.578125 
L 41.109375 71.578125 
L 41.109375 25.203125 
L 50.78125 25.203125 
L 50.78125 17.140625 
L 41.109375 17.140625 
L 41.109375 0 
z
M 32.328125 25.203125 
L 32.328125 57.46875 
L 9.90625 25.203125 
z
" id="ArialMT-52"/>
       </defs>
       <use xlink:href="#ArialMT-52"/>
       <use x="55.615234" xlink:href="#ArialMT-48"/>
      </g>
     </g>
    </g>
    <g id="xtick_6">
     <g id="line2d_6">
      <path clip-path="url(#p74c77f63ed)" d="M 327.345455 315 
L 327.345455 43.2 
" style="fill:none;stroke:#ffffff;stroke-linecap:round;"/>
     </g>
     <g id="text_6">
      <!-- 50 -->
      <g style="fill:#262626;" transform="translate(321.228423 332.373594)scale(0.11 -0.11)">
       <defs>
        <path d="M 4.15625 18.75 
L 13.375 19.53125 
Q 14.40625 12.796875 18.140625 9.390625 
Q 21.875 6 27.15625 6 
Q 33.5 6 37.890625 10.78125 
Q 42.28125 15.578125 42.28125 23.484375 
Q 42.28125 31 38.0625 35.34375 
Q 33.84375 39.703125 27 39.703125 
Q 22.75 39.703125 19.328125 37.765625 
Q 15.921875 35.84375 13.96875 32.765625 
L 5.71875 33.84375 
L 12.640625 70.609375 
L 48.25 70.609375 
L 48.25 62.203125 
L 19.671875 62.203125 
L 15.828125 42.96875 
Q 22.265625 47.46875 29.34375 47.46875 
Q 38.71875 47.46875 45.15625 40.96875 
Q 51.609375 34.46875 51.609375 24.265625 
Q 51.609375 14.546875 45.953125 7.46875 
Q 39.0625 -1.21875 27.15625 -1.21875 
Q 17.390625 -1.21875 11.203125 4.25 
Q 5.03125 9.71875 4.15625 18.75 
z
" id="ArialMT-53"/>
       </defs>
       <use xlink:href="#ArialMT-53"/>
       <use x="55.615234" xlink:href="#ArialMT-48"/>
      </g>
     </g>
    </g>
    <g id="xtick_7">
     <g id="line2d_7">
      <path clip-path="url(#p74c77f63ed)" d="M 376.663636 315 
L 376.663636 43.2 
" style="fill:none;stroke:#ffffff;stroke-linecap:round;"/>
     </g>
     <g id="text_7">
      <!-- 60 -->
      <g style="fill:#262626;" transform="translate(370.546605 332.373594)scale(0.11 -0.11)">
       <defs>
        <path d="M 49.75 54.046875 
L 41.015625 53.375 
Q 39.84375 58.546875 37.703125 60.890625 
Q 34.125 64.65625 28.90625 64.65625 
Q 24.703125 64.65625 21.53125 62.3125 
Q 17.390625 59.28125 14.984375 53.46875 
Q 12.59375 47.65625 12.5 36.921875 
Q 15.671875 41.75 20.265625 44.09375 
Q 24.859375 46.4375 29.890625 46.4375 
Q 38.671875 46.4375 44.84375 39.96875 
Q 51.03125 33.5 51.03125 23.25 
Q 51.03125 16.5 48.125 10.71875 
Q 45.21875 4.9375 40.140625 1.859375 
Q 35.0625 -1.21875 28.609375 -1.21875 
Q 17.625 -1.21875 10.6875 6.859375 
Q 3.765625 14.9375 3.765625 33.5 
Q 3.765625 54.25 11.421875 63.671875 
Q 18.109375 71.875 29.4375 71.875 
Q 37.890625 71.875 43.28125 67.140625 
Q 48.6875 62.40625 49.75 54.046875 
z
M 13.875 23.1875 
Q 13.875 18.65625 15.796875 14.5 
Q 17.71875 10.359375 21.1875 8.171875 
Q 24.65625 6 28.46875 6 
Q 34.03125 6 38.03125 10.484375 
Q 42.046875 14.984375 42.046875 22.703125 
Q 42.046875 30.125 38.078125 34.390625 
Q 34.125 38.671875 28.125 38.671875 
Q 22.171875 38.671875 18.015625 34.390625 
Q 13.875 30.125 13.875 23.1875 
z
" id="ArialMT-54"/>
       </defs>
       <use xlink:href="#ArialMT-54"/>
       <use x="55.615234" xlink:href="#ArialMT-48"/>
      </g>
     </g>
    </g>
    <g id="xtick_8">
     <g id="line2d_8">
      <path clip-path="url(#p74c77f63ed)" d="M 425.981818 315 
L 425.981818 43.2 
" style="fill:none;stroke:#ffffff;stroke-linecap:round;"/>
     </g>
     <g id="text_8">
      <!-- 70 -->
      <g style="fill:#262626;" transform="translate(419.864787 332.373594)scale(0.11 -0.11)">
       <defs>
        <path d="M 4.734375 62.203125 
L 4.734375 70.65625 
L 51.078125 70.65625 
L 51.078125 63.8125 
Q 44.234375 56.546875 37.515625 44.484375 
Q 30.8125 32.421875 27.15625 19.671875 
Q 24.515625 10.6875 23.78125 0 
L 14.75 0 
Q 14.890625 8.453125 18.0625 20.40625 
Q 21.234375 32.375 27.171875 43.484375 
Q 33.109375 54.59375 39.796875 62.203125 
z
" id="ArialMT-55"/>
       </defs>
       <use xlink:href="#ArialMT-55"/>
       <use x="55.615234" xlink:href="#ArialMT-48"/>
      </g>
     </g>
    </g>
    <g id="text_9">
     <!-- Tenure (months) -->
     <g style="fill:#262626;" transform="translate(211.41375 353.295469)scale(0.12 -0.12)">
      <defs>
       <path d="M 23.390625 0 
L 23.390625 59.46875 
L 2.15625 59.46875 
L 2.15625 71.578125 
L 59.03125 71.578125 
L 59.03125 59.46875 
L 37.84375 59.46875 
L 37.84375 0 
z
" id="Arial-BoldMT-84"/>
       <path d="M 37.203125 16.5 
L 50.875 14.203125 
Q 48.25 6.6875 42.546875 2.75 
Q 36.859375 -1.171875 28.328125 -1.171875 
Q 14.796875 -1.171875 8.296875 7.671875 
Q 3.171875 14.75 3.171875 25.53125 
Q 3.171875 38.421875 9.90625 45.71875 
Q 16.65625 53.03125 26.953125 53.03125 
Q 38.53125 53.03125 45.21875 45.390625 
Q 51.90625 37.75 51.609375 21.96875 
L 17.234375 21.96875 
Q 17.390625 15.875 20.5625 12.46875 
Q 23.734375 9.078125 28.46875 9.078125 
Q 31.6875 9.078125 33.875 10.828125 
Q 36.078125 12.59375 37.203125 16.5 
z
M 37.984375 30.375 
Q 37.84375 36.328125 34.90625 39.421875 
Q 31.984375 42.53125 27.78125 42.53125 
Q 23.296875 42.53125 20.359375 39.265625 
Q 17.4375 35.984375 17.484375 30.375 
z
" id="Arial-BoldMT-101"/>
       <path d="M 54.34375 0 
L 40.625 0 
L 40.625 26.46875 
Q 40.625 34.859375 39.75 37.328125 
Q 38.875 39.796875 36.890625 41.15625 
Q 34.90625 42.53125 32.125 42.53125 
Q 28.5625 42.53125 25.734375 40.578125 
Q 22.90625 38.625 21.84375 35.390625 
Q 20.796875 32.171875 20.796875 23.484375 
L 20.796875 0 
L 7.078125 0 
L 7.078125 51.859375 
L 19.828125 51.859375 
L 19.828125 44.234375 
Q 26.609375 53.03125 36.921875 53.03125 
Q 41.453125 53.03125 45.203125 51.390625 
Q 48.96875 49.75 50.890625 47.203125 
Q 52.828125 44.671875 53.578125 41.453125 
Q 54.34375 38.234375 54.34375 32.234375 
z
" id="Arial-BoldMT-110"/>
       <path d="M 41.3125 0 
L 41.3125 7.765625 
Q 38.484375 3.609375 33.859375 1.21875 
Q 29.25 -1.171875 24.125 -1.171875 
Q 18.890625 -1.171875 14.734375 1.125 
Q 10.59375 3.421875 8.734375 7.5625 
Q 6.890625 11.71875 6.890625 19.046875 
L 6.890625 51.859375 
L 20.609375 51.859375 
L 20.609375 28.03125 
Q 20.609375 17.09375 21.359375 14.625 
Q 22.125 12.15625 24.125 10.71875 
Q 26.125 9.28125 29.203125 9.28125 
Q 32.71875 9.28125 35.5 11.203125 
Q 38.28125 13.140625 39.296875 15.984375 
Q 40.328125 18.84375 40.328125 29.984375 
L 40.328125 51.859375 
L 54.046875 51.859375 
L 54.046875 0 
z
" id="Arial-BoldMT-117"/>
       <path d="M 20.3125 0 
L 6.59375 0 
L 6.59375 51.859375 
L 19.34375 51.859375 
L 19.34375 44.484375 
Q 22.609375 49.703125 25.21875 51.359375 
Q 27.828125 53.03125 31.15625 53.03125 
Q 35.84375 53.03125 40.1875 50.4375 
L 35.9375 38.484375 
Q 32.46875 40.71875 29.5 40.71875 
Q 26.609375 40.71875 24.609375 39.125 
Q 22.609375 37.546875 21.453125 33.390625 
Q 20.3125 29.25 20.3125 16.015625 
z
" id="Arial-BoldMT-114"/>
       <path id="Arial-BoldMT-32"/>
       <path d="M 29.9375 -21.046875 
L 20.515625 -21.046875 
Q 13.03125 -9.765625 9.125 2.390625 
Q 5.21875 14.546875 5.21875 25.921875 
Q 5.21875 40.046875 10.0625 52.640625 
Q 14.265625 63.578125 20.703125 72.796875 
L 30.078125 72.796875 
Q 23.390625 58.015625 20.875 47.625 
Q 18.359375 37.25 18.359375 25.640625 
Q 18.359375 17.625 19.84375 9.21875 
Q 21.34375 0.828125 23.921875 -6.734375 
Q 25.640625 -11.71875 29.9375 -21.046875 
z
" id="Arial-BoldMT-40"/>
       <path d="M 6.15625 51.859375 
L 18.796875 51.859375 
L 18.796875 44.78125 
Q 25.59375 53.03125 34.96875 53.03125 
Q 39.9375 53.03125 43.59375 50.96875 
Q 47.265625 48.921875 49.609375 44.78125 
Q 53.03125 48.921875 56.984375 50.96875 
Q 60.9375 53.03125 65.4375 53.03125 
Q 71.140625 53.03125 75.09375 50.703125 
Q 79.046875 48.390625 81 43.890625 
Q 82.421875 40.578125 82.421875 33.15625 
L 82.421875 0 
L 68.703125 0 
L 68.703125 29.640625 
Q 68.703125 37.359375 67.28125 39.59375 
Q 65.375 42.53125 61.421875 42.53125 
Q 58.546875 42.53125 56 40.765625 
Q 53.46875 39.015625 52.34375 35.625 
Q 51.21875 32.234375 51.21875 24.90625 
L 51.21875 0 
L 37.5 0 
L 37.5 28.421875 
Q 37.5 35.984375 36.765625 38.171875 
Q 36.03125 40.375 34.484375 41.453125 
Q 32.953125 42.53125 30.328125 42.53125 
Q 27.15625 42.53125 24.609375 40.8125 
Q 22.078125 39.109375 20.96875 35.890625 
Q 19.875 32.671875 19.875 25.203125 
L 19.875 0 
L 6.15625 0 
z
" id="Arial-BoldMT-109"/>
       <path d="M 4 26.65625 
Q 4 33.5 7.375 39.890625 
Q 10.75 46.296875 16.921875 49.65625 
Q 23.09375 53.03125 30.71875 53.03125 
Q 42.484375 53.03125 50 45.390625 
Q 57.515625 37.75 57.515625 26.078125 
Q 57.515625 14.3125 49.921875 6.5625 
Q 42.328125 -1.171875 30.8125 -1.171875 
Q 23.6875 -1.171875 17.21875 2.046875 
Q 10.75 5.28125 7.375 11.5 
Q 4 17.71875 4 26.65625 
z
M 18.0625 25.921875 
Q 18.0625 18.21875 21.71875 14.109375 
Q 25.390625 10.015625 30.765625 10.015625 
Q 36.140625 10.015625 39.765625 14.109375 
Q 43.40625 18.21875 43.40625 26.03125 
Q 43.40625 33.640625 39.765625 37.734375 
Q 36.140625 41.84375 30.765625 41.84375 
Q 25.390625 41.84375 21.71875 37.734375 
Q 18.0625 33.640625 18.0625 25.921875 
z
" id="Arial-BoldMT-111"/>
       <path d="M 30.953125 51.859375 
L 30.953125 40.921875 
L 21.578125 40.921875 
L 21.578125 20.015625 
Q 21.578125 13.671875 21.84375 12.625 
Q 22.125 11.578125 23.078125 10.890625 
Q 24.03125 10.203125 25.390625 10.203125 
Q 27.296875 10.203125 30.90625 11.53125 
L 32.078125 0.875 
Q 27.296875 -1.171875 21.234375 -1.171875 
Q 17.53125 -1.171875 14.546875 0.0625 
Q 11.578125 1.3125 10.1875 3.296875 
Q 8.796875 5.28125 8.25 8.640625 
Q 7.8125 11.03125 7.8125 18.3125 
L 7.8125 40.921875 
L 1.515625 40.921875 
L 1.515625 51.859375 
L 7.8125 51.859375 
L 7.8125 62.15625 
L 21.578125 70.171875 
L 21.578125 51.859375 
z
" id="Arial-BoldMT-116"/>
       <path d="M 20.84375 71.578125 
L 20.84375 45.265625 
Q 27.484375 53.03125 36.71875 53.03125 
Q 41.453125 53.03125 45.265625 51.265625 
Q 49.078125 49.515625 51 46.78125 
Q 52.9375 44.046875 53.640625 40.71875 
Q 54.34375 37.40625 54.34375 30.421875 
L 54.34375 0 
L 40.625 0 
L 40.625 27.390625 
Q 40.625 35.546875 39.84375 37.734375 
Q 39.0625 39.9375 37.078125 41.234375 
Q 35.109375 42.53125 32.125 42.53125 
Q 28.71875 42.53125 26.03125 40.859375 
Q 23.34375 39.203125 22.09375 35.859375 
Q 20.84375 32.515625 20.84375 25.984375 
L 20.84375 0 
L 7.125 0 
L 7.125 71.578125 
z
" id="Arial-BoldMT-104"/>
       <path d="M 2.34375 14.796875 
L 16.109375 16.890625 
Q 17 12.890625 19.671875 10.8125 
Q 22.359375 8.734375 27.203125 8.734375 
Q 32.515625 8.734375 35.203125 10.6875 
Q 37.015625 12.0625 37.015625 14.359375 
Q 37.015625 15.921875 36.03125 16.9375 
Q 35.015625 17.921875 31.453125 18.75 
Q 14.84375 22.40625 10.40625 25.4375 
Q 4.25 29.640625 4.25 37.109375 
Q 4.25 43.84375 9.5625 48.4375 
Q 14.890625 53.03125 26.078125 53.03125 
Q 36.71875 53.03125 41.890625 49.5625 
Q 47.078125 46.09375 49.03125 39.3125 
L 36.078125 36.921875 
Q 35.25 39.9375 32.921875 41.546875 
Q 30.609375 43.171875 26.3125 43.171875 
Q 20.90625 43.171875 18.5625 41.65625 
Q 17 40.578125 17 38.875 
Q 17 37.40625 18.359375 36.375 
Q 20.21875 35.015625 31.171875 32.515625 
Q 42.140625 30.03125 46.484375 26.421875 
Q 50.78125 22.75 50.78125 16.21875 
Q 50.78125 9.078125 44.828125 3.953125 
Q 38.875 -1.171875 27.203125 -1.171875 
Q 16.609375 -1.171875 10.421875 3.125 
Q 4.25 7.421875 2.34375 14.796875 
z
" id="Arial-BoldMT-115"/>
       <path d="M 3.375 -21.046875 
Q 7.421875 -12.359375 9.078125 -7.71875 
Q 10.75 -3.078125 12.15625 2.96875 
Q 13.578125 9.03125 14.25 14.46875 
Q 14.9375 19.921875 14.9375 25.640625 
Q 14.9375 37.25 12.453125 47.625 
Q 9.96875 58.015625 3.265625 72.796875 
L 12.59375 72.796875 
Q 19.96875 62.3125 24.046875 50.53125 
Q 28.125 38.765625 28.125 26.65625 
Q 28.125 16.453125 24.90625 4.78125 
Q 21.234375 -8.296875 12.84375 -21.046875 
z
" id="Arial-BoldMT-41"/>
      </defs>
      <use xlink:href="#Arial-BoldMT-84"/>
      <use x="53.708984" xlink:href="#Arial-BoldMT-101"/>
      <use x="109.324219" xlink:href="#Arial-BoldMT-110"/>
      <use x="170.408203" xlink:href="#Arial-BoldMT-117"/>
      <use x="231.492188" xlink:href="#Arial-BoldMT-114"/>
      <use x="270.408203" xlink:href="#Arial-BoldMT-101"/>
      <use x="326.023438" xlink:href="#Arial-BoldMT-32"/>
      <use x="353.806641" xlink:href="#Arial-BoldMT-40"/>
      <use x="387.107422" xlink:href="#Arial-BoldMT-109"/>
      <use x="476.023438" xlink:href="#Arial-BoldMT-111"/>
      <use x="537.107422" xlink:href="#Arial-BoldMT-110"/>
      <use x="598.191406" xlink:href="#Arial-BoldMT-116"/>
      <use x="631.492188" xlink:href="#Arial-BoldMT-104"/>
      <use x="692.576172" xlink:href="#Arial-BoldMT-115"/>
      <use x="748.191406" xlink:href="#Arial-BoldMT-41"/>
     </g>
    </g>
   </g>
   <g id="matplotlib.axis_2">
    <g id="ytick_1">
     <g id="line2d_9">
      <path clip-path="url(#p74c77f63ed)" d="M 63 295.082436 
L 453.6 295.082436 
" style="fill:none;stroke:#ffffff;stroke-linecap:round;"/>
     </g>
     <g id="text_10">
      <!-- 0.5 -->
      <g style="fill:#262626;" transform="translate(38.21 299.019233)scale(0.11 -0.11)">
       <defs>
        <path d="M 9.078125 0 
L 9.078125 10.015625 
L 19.09375 10.015625 
L 19.09375 0 
z
" id="ArialMT-46"/>
       </defs>
       <use xlink:href="#ArialMT-48"/>
       <use x="55.615234" xlink:href="#ArialMT-46"/>
       <use x="83.398438" xlink:href="#ArialMT-53"/>
      </g>
     </g>
    </g>
    <g id="ytick_2">
     <g id="line2d_10">
      <path clip-path="url(#p74c77f63ed)" d="M 63 247.176858 
L 453.6 247.176858 
" style="fill:none;stroke:#ffffff;stroke-linecap:round;"/>
     </g>
     <g id="text_11">
      <!-- 0.6 -->
      <g style="fill:#262626;" transform="translate(38.21 251.113655)scale(0.11 -0.11)">
       <use xlink:href="#ArialMT-48"/>
       <use x="55.615234" xlink:href="#ArialMT-46"/>
       <use x="83.398438" xlink:href="#ArialMT-54"/>
      </g>
     </g>
    </g>
    <g id="ytick_3">
     <g id="line2d_11">
      <path clip-path="url(#p74c77f63ed)" d="M 63 199.27128 
L 453.6 199.27128 
" style="fill:none;stroke:#ffffff;stroke-linecap:round;"/>
     </g>
     <g id="text_12">
      <!-- 0.7 -->
      <g style="fill:#262626;" transform="translate(38.21 203.208077)scale(0.11 -0.11)">
       <use xlink:href="#ArialMT-48"/>
       <use x="55.615234" xlink:href="#ArialMT-46"/>
       <use x="83.398438" xlink:href="#ArialMT-55"/>
      </g>
     </g>
    </g>
    <g id="ytick_4">
     <g id="line2d_12">
      <path clip-path="url(#p74c77f63ed)" d="M 63 151.365702 
L 453.6 151.365702 
" style="fill:none;stroke:#ffffff;stroke-linecap:round;"/>
     </g>
     <g id="text_13">
      <!-- 0.8 -->
      <g style="fill:#262626;" transform="translate(38.21 155.302499)scale(0.11 -0.11)">
       <defs>
        <path d="M 17.671875 38.8125 
Q 12.203125 40.828125 9.5625 44.53125 
Q 6.9375 48.25 6.9375 53.421875 
Q 6.9375 61.234375 12.546875 66.546875 
Q 18.171875 71.875 27.484375 71.875 
Q 36.859375 71.875 42.578125 66.421875 
Q 48.296875 60.984375 48.296875 53.171875 
Q 48.296875 48.1875 45.671875 44.5 
Q 43.0625 40.828125 37.75 38.8125 
Q 44.34375 36.671875 47.78125 31.875 
Q 51.21875 27.09375 51.21875 20.453125 
Q 51.21875 11.28125 44.71875 5.03125 
Q 38.234375 -1.21875 27.640625 -1.21875 
Q 17.046875 -1.21875 10.546875 5.046875 
Q 4.046875 11.328125 4.046875 20.703125 
Q 4.046875 27.6875 7.59375 32.390625 
Q 11.140625 37.109375 17.671875 38.8125 
z
M 15.921875 53.71875 
Q 15.921875 48.640625 19.1875 45.40625 
Q 22.46875 42.1875 27.6875 42.1875 
Q 32.765625 42.1875 36.015625 45.375 
Q 39.265625 48.578125 39.265625 53.21875 
Q 39.265625 58.0625 35.90625 61.359375 
Q 32.5625 64.65625 27.59375 64.65625 
Q 22.5625 64.65625 19.234375 61.421875 
Q 15.921875 58.203125 15.921875 53.71875 
z
M 13.09375 20.65625 
Q 13.09375 16.890625 14.875 13.375 
Q 16.65625 9.859375 20.171875 7.921875 
Q 23.6875 6 27.734375 6 
Q 34.03125 6 38.125 10.046875 
Q 42.234375 14.109375 42.234375 20.359375 
Q 42.234375 26.703125 38.015625 30.859375 
Q 33.796875 35.015625 27.4375 35.015625 
Q 21.234375 35.015625 17.15625 30.90625 
Q 13.09375 26.8125 13.09375 20.65625 
z
" id="ArialMT-56"/>
       </defs>
       <use xlink:href="#ArialMT-48"/>
       <use x="55.615234" xlink:href="#ArialMT-46"/>
       <use x="83.398438" xlink:href="#ArialMT-56"/>
      </g>
     </g>
    </g>
    <g id="ytick_5">
     <g id="line2d_13">
      <path clip-path="url(#p74c77f63ed)" d="M 63 103.460124 
L 453.6 103.460124 
" style="fill:none;stroke:#ffffff;stroke-linecap:round;"/>
     </g>
     <g id="text_14">
      <!-- 0.9 -->
      <g style="fill:#262626;" transform="translate(38.21 107.39692)scale(0.11 -0.11)">
       <defs>
        <path d="M 5.46875 16.546875 
L 13.921875 17.328125 
Q 14.984375 11.375 18.015625 8.6875 
Q 21.046875 6 25.78125 6 
Q 29.828125 6 32.875 7.859375 
Q 35.9375 9.71875 37.890625 12.8125 
Q 39.84375 15.921875 41.15625 21.1875 
Q 42.484375 26.46875 42.484375 31.9375 
Q 42.484375 32.515625 42.4375 33.6875 
Q 39.796875 29.5 35.234375 26.875 
Q 30.671875 24.265625 25.34375 24.265625 
Q 16.453125 24.265625 10.296875 30.703125 
Q 4.15625 37.15625 4.15625 47.703125 
Q 4.15625 58.59375 10.578125 65.234375 
Q 17 71.875 26.65625 71.875 
Q 33.640625 71.875 39.421875 68.109375 
Q 45.21875 64.359375 48.21875 57.390625 
Q 51.21875 50.4375 51.21875 37.25 
Q 51.21875 23.53125 48.234375 15.40625 
Q 45.265625 7.28125 39.375 3.03125 
Q 33.5 -1.21875 25.59375 -1.21875 
Q 17.1875 -1.21875 11.859375 3.4375 
Q 6.546875 8.109375 5.46875 16.546875 
z
M 41.453125 48.140625 
Q 41.453125 55.71875 37.421875 60.15625 
Q 33.40625 64.59375 27.734375 64.59375 
Q 21.875 64.59375 17.53125 59.8125 
Q 13.1875 55.03125 13.1875 47.40625 
Q 13.1875 40.578125 17.3125 36.296875 
Q 21.4375 32.03125 27.484375 32.03125 
Q 33.59375 32.03125 37.515625 36.296875 
Q 41.453125 40.578125 41.453125 48.140625 
z
" id="ArialMT-57"/>
       </defs>
       <use xlink:href="#ArialMT-48"/>
       <use x="55.615234" xlink:href="#ArialMT-46"/>
       <use x="83.398438" xlink:href="#ArialMT-57"/>
      </g>
     </g>
    </g>
    <g id="ytick_6">
     <g id="line2d_14">
      <path clip-path="url(#p74c77f63ed)" d="M 63 55.554545 
L 453.6 55.554545 
" style="fill:none;stroke:#ffffff;stroke-linecap:round;"/>
     </g>
     <g id="text_15">
      <!-- 1.0 -->
      <g style="fill:#262626;" transform="translate(38.21 59.491342)scale(0.11 -0.11)">
       <use xlink:href="#ArialMT-49"/>
       <use x="55.615234" xlink:href="#ArialMT-46"/>
       <use x="83.398438" xlink:href="#ArialMT-48"/>
      </g>
     </g>
    </g>
    <g id="text_16">
     <!-- Survival probability -->
     <g style="fill:#262626;" transform="translate(25.684375 234.778125)rotate(-90)scale(0.12 -0.12)">
      <defs>
       <path d="M 3.609375 23.296875 
L 17.671875 24.65625 
Q 18.953125 17.578125 22.828125 14.25 
Q 26.703125 10.9375 33.296875 10.9375 
Q 40.28125 10.9375 43.8125 13.890625 
Q 47.359375 16.84375 47.359375 20.796875 
Q 47.359375 23.34375 45.875 25.125 
Q 44.390625 26.90625 40.671875 28.21875 
Q 38.140625 29.109375 29.109375 31.34375 
Q 17.484375 34.234375 12.796875 38.421875 
Q 6.203125 44.34375 6.203125 52.828125 
Q 6.203125 58.296875 9.296875 63.0625 
Q 12.40625 67.828125 18.234375 70.3125 
Q 24.078125 72.796875 32.328125 72.796875 
Q 45.796875 72.796875 52.609375 66.890625 
Q 59.421875 60.984375 59.765625 51.125 
L 45.3125 50.484375 
Q 44.390625 56 41.328125 58.421875 
Q 38.28125 60.84375 32.171875 60.84375 
Q 25.875 60.84375 22.3125 58.25 
Q 20.015625 56.59375 20.015625 53.8125 
Q 20.015625 51.265625 22.171875 49.46875 
Q 24.90625 47.171875 35.453125 44.671875 
Q 46 42.1875 51.046875 39.515625 
Q 56.109375 36.859375 58.953125 32.25 
Q 61.8125 27.640625 61.8125 20.84375 
Q 61.8125 14.703125 58.390625 9.328125 
Q 54.984375 3.953125 48.734375 1.34375 
Q 42.484375 -1.265625 33.15625 -1.265625 
Q 19.578125 -1.265625 12.296875 5 
Q 5.03125 11.28125 3.609375 23.296875 
z
" id="Arial-BoldMT-83"/>
       <path d="M 21.4375 0 
L 0.53125 51.859375 
L 14.9375 51.859375 
L 24.703125 25.390625 
L 27.546875 16.546875 
Q 28.65625 19.921875 28.953125 21 
Q 29.640625 23.1875 30.421875 25.390625 
L 40.28125 51.859375 
L 54.390625 51.859375 
L 33.796875 0 
z
" id="Arial-BoldMT-118"/>
       <path d="M 7.171875 58.890625 
L 7.171875 71.578125 
L 20.90625 71.578125 
L 20.90625 58.890625 
z
M 7.171875 0 
L 7.171875 51.859375 
L 20.90625 51.859375 
L 20.90625 0 
z
" id="Arial-BoldMT-105"/>
       <path d="M 17.4375 36.03125 
L 4.984375 38.28125 
Q 7.078125 45.796875 12.203125 49.40625 
Q 17.328125 53.03125 27.4375 53.03125 
Q 36.625 53.03125 41.109375 50.859375 
Q 45.609375 48.6875 47.4375 45.34375 
Q 49.265625 42 49.265625 33.0625 
L 49.125 17.046875 
Q 49.125 10.203125 49.78125 6.953125 
Q 50.4375 3.71875 52.25 0 
L 38.671875 0 
Q 38.140625 1.375 37.359375 4.046875 
Q 37.015625 5.28125 36.859375 5.671875 
Q 33.34375 2.25 29.34375 0.53125 
Q 25.34375 -1.171875 20.796875 -1.171875 
Q 12.796875 -1.171875 8.171875 3.171875 
Q 3.5625 7.515625 3.5625 14.15625 
Q 3.5625 18.5625 5.65625 22 
Q 7.765625 25.4375 11.546875 27.265625 
Q 15.328125 29.109375 22.46875 30.46875 
Q 32.078125 32.28125 35.796875 33.84375 
L 35.796875 35.203125 
Q 35.796875 39.15625 33.84375 40.84375 
Q 31.890625 42.53125 26.46875 42.53125 
Q 22.796875 42.53125 20.75 41.09375 
Q 18.703125 39.65625 17.4375 36.03125 
z
M 35.796875 24.90625 
Q 33.15625 24.03125 27.4375 22.796875 
Q 21.734375 21.578125 19.96875 20.40625 
Q 17.28125 18.5 17.28125 15.578125 
Q 17.28125 12.703125 19.421875 10.59375 
Q 21.578125 8.5 24.90625 8.5 
Q 28.609375 8.5 31.984375 10.9375 
Q 34.46875 12.796875 35.25 15.484375 
Q 35.796875 17.234375 35.796875 22.171875 
z
" id="Arial-BoldMT-97"/>
       <path d="M 7.171875 0 
L 7.171875 71.578125 
L 20.90625 71.578125 
L 20.90625 0 
z
" id="Arial-BoldMT-108"/>
       <path d="M 6.78125 51.859375 
L 19.578125 51.859375 
L 19.578125 44.234375 
Q 22.078125 48.140625 26.3125 50.578125 
Q 30.5625 53.03125 35.75 53.03125 
Q 44.78125 53.03125 51.078125 45.953125 
Q 57.375 38.875 57.375 26.21875 
Q 57.375 13.234375 51.015625 6.03125 
Q 44.671875 -1.171875 35.640625 -1.171875 
Q 31.34375 -1.171875 27.84375 0.53125 
Q 24.359375 2.25 20.515625 6.390625 
L 20.515625 -19.734375 
L 6.78125 -19.734375 
z
M 20.359375 26.8125 
Q 20.359375 18.0625 23.828125 13.890625 
Q 27.296875 9.71875 32.28125 9.71875 
Q 37.0625 9.71875 40.234375 13.546875 
Q 43.40625 17.390625 43.40625 26.125 
Q 43.40625 34.28125 40.125 38.234375 
Q 36.859375 42.1875 32.03125 42.1875 
Q 27 42.1875 23.671875 38.296875 
Q 20.359375 34.421875 20.359375 26.8125 
z
" id="Arial-BoldMT-112"/>
       <path d="M 6.59375 0 
L 6.59375 71.578125 
L 20.3125 71.578125 
L 20.3125 45.796875 
Q 26.65625 53.03125 35.359375 53.03125 
Q 44.828125 53.03125 51.03125 46.171875 
Q 57.234375 39.3125 57.234375 26.46875 
Q 57.234375 13.1875 50.90625 6 
Q 44.578125 -1.171875 35.546875 -1.171875 
Q 31.109375 -1.171875 26.78125 1.046875 
Q 22.46875 3.265625 19.34375 7.625 
L 19.34375 0 
z
M 20.21875 27.046875 
Q 20.21875 19 22.75 15.140625 
Q 26.3125 9.671875 32.234375 9.671875 
Q 36.765625 9.671875 39.96875 13.546875 
Q 43.171875 17.4375 43.171875 25.78125 
Q 43.171875 34.671875 39.9375 38.59375 
Q 36.71875 42.53125 31.6875 42.53125 
Q 26.765625 42.53125 23.484375 38.6875 
Q 20.21875 34.859375 20.21875 27.046875 
z
" id="Arial-BoldMT-98"/>
       <path d="M 0.6875 51.859375 
L 15.28125 51.859375 
L 27.6875 15.046875 
L 39.796875 51.859375 
L 54 51.859375 
L 35.6875 1.953125 
L 32.421875 -7.078125 
Q 30.609375 -11.625 28.96875 -14.015625 
Q 27.34375 -16.40625 25.21875 -17.890625 
Q 23.09375 -19.390625 19.984375 -20.21875 
Q 16.890625 -21.046875 12.984375 -21.046875 
Q 9.03125 -21.046875 5.21875 -20.21875 
L 4 -9.46875 
Q 7.234375 -10.109375 9.8125 -10.109375 
Q 14.59375 -10.109375 16.890625 -7.296875 
Q 19.1875 -4.5 20.40625 -0.140625 
z
" id="Arial-BoldMT-121"/>
      </defs>
      <use xlink:href="#Arial-BoldMT-83"/>
      <use x="66.699219" xlink:href="#Arial-BoldMT-117"/>
      <use x="127.783203" xlink:href="#Arial-BoldMT-114"/>
      <use x="166.699219" xlink:href="#Arial-BoldMT-118"/>
      <use x="222.314453" xlink:href="#Arial-BoldMT-105"/>
      <use x="250.097656" xlink:href="#Arial-BoldMT-118"/>
      <use x="305.712891" xlink:href="#Arial-BoldMT-97"/>
      <use x="361.328125" xlink:href="#Arial-BoldMT-108"/>
      <use x="389.111328" xlink:href="#Arial-BoldMT-32"/>
      <use x="416.894531" xlink:href="#Arial-BoldMT-112"/>
      <use x="477.978516" xlink:href="#Arial-BoldMT-114"/>
      <use x="516.894531" xlink:href="#Arial-BoldMT-111"/>
      <use x="577.978516" xlink:href="#Arial-BoldMT-98"/>
      <use x="639.0625" xlink:href="#Arial-BoldMT-97"/>
      <use x="694.677734" xlink:href="#Arial-BoldMT-98"/>
      <use x="755.761719" xlink:href="#Arial-BoldMT-105"/>
      <use x="783.544922" xlink:href="#Arial-BoldMT-108"/>
      <use x="811.328125" xlink:href="#Arial-BoldMT-105"/>
      <use x="839.111328" xlink:href="#Arial-BoldMT-116"/>
      <use x="872.412109" xlink:href="#Arial-BoldMT-121"/>
     </g>
    </g>
   </g>
   <g id="PolyCollection_1">
    <defs>
     <path d="M 80.754545 -304.445455 
L 80.754545 -304.445455 
L 85.686364 -304.445455 
L 85.686364 -270.958606 
L 90.618182 -270.958606 
L 90.618182 -260.686556 
L 95.55 -260.686556 
L 95.55 -251.961527 
L 100.481818 -251.961527 
L 100.481818 -244.653557 
L 105.413636 -244.653557 
L 105.413636 -238.796017 
L 110.345455 -238.796017 
L 110.345455 -234.688739 
L 115.277273 -234.688739 
L 115.277273 -229.388503 
L 120.209091 -229.388503 
L 120.209091 -225.468415 
L 125.140909 -225.468415 
L 125.140909 -221.364772 
L 130.072727 -221.364772 
L 130.072727 -216.137376 
L 135.004545 -216.137376 
L 135.004545 -213.019406 
L 139.936364 -213.019406 
L 139.936364 -209.318023 
L 144.868182 -209.318023 
L 144.868182 -204.870288 
L 149.8 -204.870288 
L 149.8 -202.055498 
L 154.731818 -202.055498 
L 154.731818 -198.225072 
L 159.663636 -198.225072 
L 159.663636 -194.646928 
L 164.595455 -194.646928 
L 164.595455 -192.335603 
L 169.527273 -192.335603 
L 169.527273 -189.706171 
L 174.459091 -189.706171 
L 174.459091 -187.335418 
L 179.390909 -187.335418 
L 179.390909 -185.08484 
L 184.322727 -185.08484 
L 184.322727 -182.808195 
L 189.254545 -182.808195 
L 189.254545 -179.593372 
L 194.186364 -179.593372 
L 194.186364 -177.882506 
L 199.118182 -177.882506 
L 199.118182 -174.563021 
L 204.05 -174.563021 
L 204.05 -171.674536 
L 208.981818 -171.674536 
L 208.981818 -169.72401 
L 213.913636 -169.72401 
L 213.913636 -168.069754 
L 218.845455 -168.069754 
L 218.845455 -166.226993 
L 223.777273 -166.226993 
L 223.777273 -164.028875 
L 228.709091 -164.028875 
L 228.709091 -162.140834 
L 233.640909 -162.140834 
L 233.640909 -159.877448 
L 238.572727 -159.877448 
L 238.572727 -157.229186 
L 243.504545 -157.229186 
L 243.504545 -155.084724 
L 248.436364 -155.084724 
L 248.436364 -153.450734 
L 253.368182 -153.450734 
L 253.368182 -151.425624 
L 258.3 -151.425624 
L 258.3 -149.545407 
L 263.231818 -149.545407 
L 263.231818 -147.261489 
L 268.163636 -147.261489 
L 268.163636 -144.949157 
L 273.095455 -144.949157 
L 273.095455 -143.000012 
L 278.027273 -143.000012 
L 278.027273 -140.830737 
L 282.959091 -140.830737 
L 282.959091 -138.419282 
L 287.890909 -138.419282 
L 287.890909 -135.947921 
L 292.822727 -135.947921 
L 292.822727 -133.222347 
L 297.754545 -133.222347 
L 297.754545 -132.364363 
L 302.686364 -132.364363 
L 302.686364 -131.273202 
L 307.618182 -131.273202 
L 307.618182 -129.711798 
L 312.55 -129.711798 
L 312.55 -127.203043 
L 317.481818 -127.203043 
L 317.481818 -125.579596 
L 322.413636 -125.579596 
L 322.413636 -123.207217 
L 327.345455 -123.207217 
L 327.345455 -121.510045 
L 332.277273 -121.510045 
L 332.277273 -120.010902 
L 337.209091 -120.010902 
L 337.209091 -118.209716 
L 342.140909 -118.209716 
L 342.140909 -115.550419 
L 347.072727 -115.550419 
L 347.072727 -113.375495 
L 352.004545 -113.375495 
L 352.004545 -111.135191 
L 356.936364 -111.135191 
L 356.936364 -108.827285 
L 361.868182 -108.827285 
L 361.868182 -106.71121 
L 366.8 -106.71121 
L 366.8 -103.578132 
L 371.731818 -103.578132 
L 371.731818 -101.947647 
L 376.663636 -101.947647 
L 376.663636 -100.257058 
L 381.595455 -100.257058 
L 381.595455 -97.412776 
L 386.527273 -97.412776 
L 386.527273 -95.922695 
L 391.459091 -95.922695 
L 391.459091 -94.741328 
L 396.390909 -94.741328 
L 396.390909 -93.505215 
L 401.322727 -93.505215 
L 401.322727 -91.284909 
L 406.254545 -91.284909 
L 406.254545 -86.483207 
L 411.186364 -86.483207 
L 411.186364 -82.813619 
L 416.118182 -82.813619 
L 416.118182 -78.147934 
L 421.05 -78.147934 
L 421.05 -72.897259 
L 425.981818 -72.897259 
L 425.981818 -68.380855 
L 430.913636 -68.380855 
L 430.913636 -63.807048 
L 435.845455 -63.807048 
L 435.845455 -57.354545 
L 435.845455 -81.238495 
L 435.845455 -81.238495 
L 435.845455 -86.100418 
L 430.913636 -86.100418 
L 430.913636 -89.827979 
L 425.981818 -89.827979 
L 425.981818 -93.637888 
L 421.05 -93.637888 
L 421.05 -98.149508 
L 416.118182 -98.149508 
L 416.118182 -102.212704 
L 411.186364 -102.212704 
L 411.186364 -105.447616 
L 406.254545 -105.447616 
L 406.254545 -109.716133 
L 401.322727 -109.716133 
L 401.322727 -111.704837 
L 396.390909 -111.704837 
L 396.390909 -112.822435 
L 391.459091 -112.822435 
L 391.459091 -113.896187 
L 386.527273 -113.896187 
L 386.527273 -115.259315 
L 381.595455 -115.259315 
L 381.595455 -117.871966 
L 376.663636 -117.871966 
L 376.663636 -119.431665 
L 371.731818 -119.431665 
L 371.731818 -120.940537 
L 366.8 -120.940537 
L 366.8 -123.848126 
L 361.868182 -123.848126 
L 361.868182 -125.815855 
L 356.936364 -125.815855 
L 356.936364 -127.969932 
L 352.004545 -127.969932 
L 352.004545 -130.06421 
L 347.072727 -130.06421 
L 347.072727 -132.100643 
L 342.140909 -132.100643 
L 342.140909 -134.592023 
L 337.209091 -134.592023 
L 337.209091 -136.282741 
L 332.277273 -136.282741 
L 332.277273 -137.692718 
L 327.345455 -137.692718 
L 327.345455 -139.292242 
L 322.413636 -139.292242 
L 322.413636 -141.530031 
L 317.481818 -141.530031 
L 317.481818 -143.062856 
L 312.55 -143.062856 
L 312.55 -145.432309 
L 307.618182 -145.432309 
L 307.618182 -146.90832 
L 302.686364 -146.90832 
L 302.686364 -147.941165 
L 297.754545 -147.941165 
L 297.754545 -148.754171 
L 292.822727 -148.754171 
L 292.822727 -151.339724 
L 287.890909 -151.339724 
L 287.890909 -153.684402 
L 282.959091 -153.684402 
L 282.959091 -155.974196 
L 278.027273 -155.974196 
L 278.027273 -158.03486 
L 273.095455 -158.03486 
L 273.095455 -159.88618 
L 268.163636 -159.88618 
L 268.163636 -162.082039 
L 263.231818 -162.082039 
L 263.231818 -164.250459 
L 258.3 -164.250459 
L 258.3 -166.03541 
L 253.368182 -166.03541 
L 253.368182 -167.959425 
L 248.436364 -167.959425 
L 248.436364 -169.512168 
L 243.504545 -169.512168 
L 243.504545 -171.550704 
L 238.572727 -171.550704 
L 238.572727 -174.067473 
L 233.640909 -174.067473 
L 233.640909 -176.218153 
L 228.709091 -176.218153 
L 228.709091 -178.01234 
L 223.777273 -178.01234 
L 223.777273 -180.101551 
L 218.845455 -180.101551 
L 218.845455 -181.852458 
L 213.913636 -181.852458 
L 213.913636 -183.424446 
L 208.981818 -183.424446 
L 208.981818 -185.278933 
L 204.05 -185.278933 
L 204.05 -188.024583 
L 199.118182 -188.024583 
L 199.118182 -191.178607 
L 194.186364 -191.178607 
L 194.186364 -192.804178 
L 189.254545 -192.804178 
L 189.254545 -195.858703 
L 184.322727 -195.858703 
L 184.322727 -198.020137 
L 179.390909 -198.020137 
L 179.390909 -200.156213 
L 174.459091 -200.156213 
L 174.459091 -202.405825 
L 169.527273 -202.405825 
L 169.527273 -204.900389 
L 164.595455 -204.900389 
L 164.595455 -207.092174 
L 159.663636 -207.092174 
L 159.663636 -210.482235 
L 154.731818 -210.482235 
L 154.731818 -214.106232 
L 149.8 -214.106232 
L 149.8 -216.765866 
L 144.868182 -216.765866 
L 144.868182 -220.963575 
L 139.936364 -220.963575 
L 139.936364 -224.452068 
L 135.004545 -224.452068 
L 135.004545 -227.387053 
L 130.072727 -227.387053 
L 130.072727 -232.298775 
L 125.140909 -232.298775 
L 125.140909 -236.146245 
L 120.209091 -236.146245 
L 120.209091 -239.815037 
L 115.277273 -239.815037 
L 115.277273 -244.762647 
L 110.345455 -244.762647 
L 110.345455 -248.584338 
L 105.413636 -248.584338 
L 105.413636 -254.01434 
L 100.481818 -254.01434 
L 100.481818 -260.751389 
L 95.55 -260.751389 
L 95.55 -268.728322 
L 90.618182 -268.728322 
L 90.618182 -277.994613 
L 85.686364 -277.994613 
L 85.686364 -304.445455 
L 80.754545 -304.445455 
z
" id="m76458871c6" style="stroke:#4c72b0;stroke-opacity:0.25;"/>
    </defs>
    <g clip-path="url(#p74c77f63ed)">
     <use style="fill:#4c72b0;fill-opacity:0.25;stroke:#4c72b0;stroke-opacity:0.25;" x="0" xlink:href="#m76458871c6" y="360"/>
    </g>
   </g>
   <g id="PolyCollection_2">
    <defs>
     <path d="M 80.754545 -304.445455 
L 80.754545 -304.445455 
L 85.686364 -304.445455 
L 85.686364 -280.359022 
L 90.618182 -280.359022 
L 90.618182 -272.75083 
L 95.55 -272.75083 
L 95.55 -268.10193 
L 100.481818 -268.10193 
L 100.481818 -263.174802 
L 105.413636 -263.174802 
L 105.413636 -259.567916 
L 110.345455 -259.567916 
L 110.345455 -257.942123 
L 115.277273 -257.942123 
L 115.277273 -255.873674 
L 120.209091 -255.873674 
L 120.209091 -253.347166 
L 125.140909 -253.347166 
L 125.140909 -250.13889 
L 130.072727 -250.13889 
L 130.072727 -248.837793 
L 135.004545 -248.837793 
L 135.004545 -247.074541 
L 139.936364 -247.074541 
L 139.936364 -244.611877 
L 144.868182 -244.611877 
L 144.868182 -243.243677 
L 149.8 -243.243677 
L 149.8 -242.315162 
L 154.731818 -242.315162 
L 154.731818 -239.960265 
L 159.663636 -239.960265 
L 159.663636 -239.239941 
L 164.595455 -239.239941 
L 164.595455 -236.805183 
L 169.527273 -236.805183 
L 169.527273 -235.31935 
L 174.459091 -235.31935 
L 174.459091 -234.560591 
L 179.390909 -234.560591 
L 179.390909 -233.791842 
L 184.322727 -233.791842 
L 184.322727 -233.271778 
L 189.254545 -233.271778 
L 189.254545 -231.688712 
L 194.186364 -231.688712 
L 194.186364 -231.152782 
L 199.118182 -231.152782 
L 199.118182 -230.604794 
L 204.05 -230.604794 
L 204.05 -229.201838 
L 208.981818 -229.201838 
L 208.981818 -228.344821 
L 213.913636 -228.344821 
L 213.913636 -227.472385 
L 218.845455 -227.472385 
L 218.845455 -227.174844 
L 223.777273 -227.174844 
L 223.777273 -226.568801 
L 228.709091 -226.568801 
L 228.709091 -225.024932 
L 233.640909 -225.024932 
L 233.640909 -224.080006 
L 238.572727 -224.080006 
L 238.572727 -222.800223 
L 243.504545 -222.800223 
L 243.504545 -222.147271 
L 248.436364 -222.147271 
L 248.436364 -221.15227 
L 253.368182 -221.15227 
L 253.368182 -219.796494 
L 258.3 -219.796494 
L 258.3 -219.796494 
L 263.231818 -219.796494 
L 263.231818 -218.732549 
L 268.163636 -218.732549 
L 268.163636 -218.369009 
L 273.095455 -218.369009 
L 273.095455 -216.88058 
L 278.027273 -216.88058 
L 278.027273 -216.121434 
L 282.959091 -216.121434 
L 282.959091 -215.347937 
L 287.890909 -215.347937 
L 287.890909 -214.56189 
L 292.822727 -214.56189 
L 292.822727 -213.75793 
L 297.754545 -213.75793 
L 297.754545 -212.941225 
L 302.686364 -212.941225 
L 302.686364 -212.524409 
L 307.618182 -212.524409 
L 307.618182 -210.388458 
L 312.55 -210.388458 
L 312.55 -209.064139 
L 317.481818 -209.064139 
L 317.481818 -208.149997 
L 322.413636 -208.149997 
L 322.413636 -205.799397 
L 327.345455 -205.799397 
L 327.345455 -204.351376 
L 332.277273 -204.351376 
L 332.277273 -203.361135 
L 337.209091 -203.361135 
L 337.209091 -202.849836 
L 342.140909 -202.849836 
L 342.140909 -200.710343 
L 347.072727 -200.710343 
L 347.072727 -197.92259 
L 352.004545 -197.92259 
L 352.004545 -197.346628 
L 356.936364 -197.346628 
L 356.936364 -196.152077 
L 361.868182 -196.152077 
L 361.868182 -195.531801 
L 366.8 -195.531801 
L 366.8 -194.887505 
L 371.731818 -194.887505 
L 371.731818 -192.889599 
L 376.663636 -192.889599 
L 376.663636 -192.199035 
L 381.595455 -192.199035 
L 381.595455 -192.199035 
L 386.527273 -192.199035 
L 386.527273 -191.421092 
L 391.459091 -191.421092 
L 391.459091 -190.601419 
L 396.390909 -190.601419 
L 396.390909 -189.710419 
L 401.322727 -189.710419 
L 401.322727 -185.909872 
L 406.254545 -185.909872 
L 406.254545 -182.926903 
L 411.186364 -182.926903 
L 411.186364 -179.719973 
L 416.118182 -179.719973 
L 416.118182 -178.530174 
L 421.05 -178.530174 
L 421.05 -178.530174 
L 425.981818 -178.530174 
L 425.981818 -170.72467 
L 430.913636 -170.72467 
L 430.913636 -168.785377 
L 435.845455 -168.785377 
L 435.845455 -165.342213 
L 435.845455 -192.080779 
L 435.845455 -192.080779 
L 435.845455 -193.80959 
L 430.913636 -193.80959 
L 430.913636 -195.076938 
L 425.981818 -195.076938 
L 425.981818 -200.466924 
L 421.05 -200.466924 
L 421.05 -200.466924 
L 416.118182 -200.466924 
L 416.118182 -201.345806 
L 411.186364 -201.345806 
L 411.186364 -203.770104 
L 406.254545 -203.770104 
L 406.254545 -206.04421 
L 401.322727 -206.04421 
L 401.322727 -208.939413 
L 396.390909 -208.939413 
L 396.390909 -209.623851 
L 391.459091 -209.623851 
L 391.459091 -210.265595 
L 386.527273 -210.265595 
L 386.527273 -210.881113 
L 381.595455 -210.881113 
L 381.595455 -210.881113 
L 376.663636 -210.881113 
L 376.663636 -211.442022 
L 371.731818 -211.442022 
L 371.731818 -213.072059 
L 366.8 -213.072059 
L 366.8 -213.599672 
L 361.868182 -213.599672 
L 361.868182 -214.110978 
L 356.936364 -214.110978 
L 356.936364 -215.10132 
L 352.004545 -215.10132 
L 352.004545 -215.581386 
L 347.072727 -215.581386 
L 347.072727 -217.911041 
L 342.140909 -217.911041 
L 342.140909 -219.703373 
L 337.209091 -219.703373 
L 337.209091 -220.134178 
L 332.277273 -220.134178 
L 332.277273 -220.972289 
L 327.345455 -220.972289 
L 327.345455 -222.20049 
L 322.413636 -222.20049 
L 322.413636 -224.195858 
L 317.481818 -224.195858 
L 317.481818 -224.973143 
L 312.55 -224.973143 
L 312.55 -226.103676 
L 307.618182 -226.103676 
L 307.618182 -227.931251 
L 302.686364 -227.931251 
L 302.686364 -228.288499 
L 297.754545 -228.288499 
L 297.754545 -228.990128 
L 292.822727 -228.990128 
L 292.822727 -229.681569 
L 287.890909 -229.681569 
L 287.890909 -230.359155 
L 282.959091 -230.359155 
L 282.959091 -231.026729 
L 278.027273 -231.026729 
L 278.027273 -231.683013 
L 273.095455 -231.683013 
L 273.095455 -232.971266 
L 268.163636 -232.971266 
L 268.163636 -233.286571 
L 263.231818 -233.286571 
L 263.231818 -234.211855 
L 258.3 -234.211855 
L 258.3 -234.211855 
L 253.368182 -234.211855 
L 253.368182 -235.396902 
L 248.436364 -235.396902 
L 248.436364 -236.267773 
L 243.504545 -236.267773 
L 243.504545 -236.83985 
L 238.572727 -236.83985 
L 238.572727 -237.962749 
L 233.640909 -237.962749 
L 233.640909 -238.792251 
L 228.709091 -238.792251 
L 228.709091 -240.148762 
L 223.777273 -240.148762 
L 223.777273 -240.681795 
L 218.845455 -240.681795 
L 218.845455 -240.944004 
L 213.913636 -240.944004 
L 213.913636 -241.714692 
L 208.981818 -241.714692 
L 208.981818 -242.47267 
L 204.05 -242.47267 
L 204.05 -243.714482 
L 199.118182 -243.714482 
L 199.118182 -244.200425 
L 194.186364 -244.200425 
L 194.186364 -244.676763 
L 189.254545 -244.676763 
L 189.254545 -246.084582 
L 184.322727 -246.084582 
L 184.322727 -246.547269 
L 179.390909 -246.547269 
L 179.390909 -247.231918 
L 174.459091 -247.231918 
L 174.459091 -247.908106 
L 169.527273 -247.908106 
L 169.527273 -249.233831 
L 164.595455 -249.233831 
L 164.595455 -251.404883 
L 159.663636 -251.404883 
L 159.663636 -252.046869 
L 154.731818 -252.046869 
L 154.731818 -254.146247 
L 149.8 -254.146247 
L 149.8 -254.973525 
L 144.868182 -254.973525 
L 144.868182 -256.193286 
L 139.936364 -256.193286 
L 139.936364 -258.387614 
L 135.004545 -258.387614 
L 135.004545 -259.956741 
L 130.072727 -259.956741 
L 130.072727 -261.11423 
L 125.140909 -261.11423 
L 125.140909 -263.962949 
L 120.209091 -263.962949 
L 120.209091 -266.199893 
L 115.277273 -266.199893 
L 115.277273 -268.028023 
L 110.345455 -268.028023 
L 110.345455 -269.463394 
L 105.413636 -269.463394 
L 105.413636 -272.637558 
L 100.481818 -272.637558 
L 100.481818 -276.943731 
L 95.55 -276.943731 
L 95.55 -280.968764 
L 90.618182 -280.968764 
L 90.618182 -287.450097 
L 85.686364 -287.450097 
L 85.686364 -304.445455 
L 80.754545 -304.445455 
z
" id="m2159084325" style="stroke:#dd8452;stroke-opacity:0.25;"/>
    </defs>
    <g clip-path="url(#p74c77f63ed)">
     <use style="fill:#dd8452;fill-opacity:0.25;stroke:#dd8452;stroke-opacity:0.25;" x="0" xlink:href="#m2159084325" y="360"/>
    </g>
   </g>
   <g id="line2d_15">
    <path clip-path="url(#p74c77f63ed)" d="M 80.754545 55.554545 
L 85.686364 55.554545 
L 85.686364 85.323127 
L 90.618182 85.323127 
L 90.618182 95.09792 
L 95.55 95.09792 
L 95.55 103.45367 
L 100.481818 103.45367 
L 100.481818 110.480106 
L 105.413636 110.480106 
L 105.413636 116.126991 
L 110.345455 116.126991 
L 110.345455 120.093658 
L 115.277273 120.093658 
L 115.277273 125.22041 
L 120.209091 125.22041 
L 120.209091 129.016916 
L 125.140909 129.016916 
L 125.140909 132.99458 
L 130.072727 132.99458 
L 130.072727 138.0668 
L 135.004545 138.0668 
L 135.004545 141.094855 
L 139.936364 141.094855 
L 139.936364 144.691645 
L 144.868182 144.691645 
L 144.868182 149.016566 
L 149.8 149.016566 
L 149.8 151.755158 
L 154.731818 151.755158 
L 154.731818 155.484267 
L 159.663636 155.484267 
L 159.663636 158.970163 
L 164.595455 158.970163 
L 164.595455 161.222878 
L 169.527273 161.222878 
L 169.527273 163.786178 
L 174.459091 163.786178 
L 174.459091 166.097509 
L 179.390909 166.097509 
L 179.390909 168.291909 
L 184.322727 168.291909 
L 184.322727 170.51202 
L 189.254545 170.51202 
L 189.254545 173.648224 
L 194.186364 173.648224 
L 194.186364 175.317237 
L 199.118182 175.317237 
L 199.118182 178.555501 
L 204.05 178.555501 
L 204.05 181.373877 
L 208.981818 181.373877 
L 208.981818 183.277262 
L 213.913636 183.277262 
L 213.913636 184.891102 
L 218.845455 184.891102 
L 218.845455 186.688724 
L 223.777273 186.688724 
L 223.777273 188.833334 
L 228.709091 188.833334 
L 228.709091 190.675245 
L 233.640909 190.675245 
L 233.640909 192.883223 
L 238.572727 192.883223 
L 238.572727 195.466845 
L 243.504545 195.466845 
L 243.504545 197.559247 
L 248.436364 197.559247 
L 248.436364 199.153288 
L 253.368182 199.153288 
L 253.368182 201.128678 
L 258.3 201.128678 
L 258.3 202.962002 
L 263.231818 202.962002 
L 263.231818 205.189075 
L 268.163636 205.189075 
L 268.163636 207.444098 
L 273.095455 207.444098 
L 273.095455 209.345122 
L 278.027273 209.345122 
L 278.027273 211.460981 
L 282.959091 211.460981 
L 282.959091 213.812583 
L 287.890909 213.812583 
L 287.890909 216.221577 
L 292.822727 216.221577 
L 292.822727 218.878223 
L 297.754545 218.878223 
L 297.754545 219.714046 
L 302.686364 219.714046 
L 302.686364 220.776449 
L 307.618182 220.776449 
L 307.618182 222.2957 
L 312.55 222.2957 
L 312.55 224.735658 
L 317.481818 224.735658 
L 317.481818 226.31435 
L 322.413636 226.31435 
L 322.413636 228.620228 
L 327.345455 228.620228 
L 327.345455 230.269136 
L 332.277273 230.269136 
L 332.277273 231.724153 
L 337.209091 231.724153 
L 337.209091 233.470614 
L 342.140909 233.470614 
L 342.140909 236.04666 
L 347.072727 236.04666 
L 347.072727 238.152929 
L 352.004545 238.152929 
L 352.004545 240.320807 
L 356.936364 240.320807 
L 356.936364 242.552387 
L 361.868182 242.552387 
L 361.868182 244.59475 
L 366.8 244.59475 
L 366.8 247.615745 
L 371.731818 247.615745 
L 371.731818 249.185738 
L 376.663636 249.185738 
L 376.663636 250.811163 
L 381.595455 250.811163 
L 381.595455 253.540001 
L 386.527273 253.540001 
L 386.527273 254.966754 
L 391.459091 254.966754 
L 391.459091 256.094349 
L 396.390909 256.094349 
L 396.390909 257.271177 
L 401.322727 257.271177 
L 401.322727 259.375419 
L 406.254545 259.375419 
L 406.254545 263.909767 
L 411.186364 263.909767 
L 411.186364 267.361322 
L 416.118182 267.361322 
L 416.118182 271.724571 
L 421.05 271.724571 
L 421.05 276.604121 
L 425.981818 276.604121 
L 425.981818 280.765512 
L 430.913636 280.765512 
L 430.913636 284.913303 
L 435.845455 284.913303 
L 435.845455 290.562557 
L 435.845455 290.562557 
" style="fill:none;stroke:#4c72b0;stroke-linecap:round;stroke-width:1.5;"/>
   </g>
   <g id="line2d_16">
    <path clip-path="url(#p74c77f63ed)" d="M 80.754545 55.554545 
L 85.686364 55.554545 
L 85.686364 75.793983 
L 90.618182 75.793983 
L 90.618182 82.841853 
L 95.55 82.841853 
L 95.55 87.180566 
L 100.481818 87.180566 
L 100.481818 91.798957 
L 105.413636 91.798957 
L 105.413636 95.190704 
L 110.345455 95.190704 
L 110.345455 96.721783 
L 115.277273 96.721783 
L 115.277273 98.670553 
L 120.209091 98.670553 
L 120.209091 101.052737 
L 125.140909 101.052737 
L 125.140909 104.081784 
L 130.072727 104.081784 
L 130.072727 105.31128 
L 135.004545 105.31128 
L 135.004545 106.977652 
L 139.936364 106.977652 
L 139.936364 109.306345 
L 144.868182 109.306345 
L 144.868182 110.600373 
L 149.8 110.600373 
L 149.8 111.478241 
L 154.731818 111.478241 
L 154.731818 113.705252 
L 159.663636 113.705252 
L 159.663636 114.386328 
L 164.595455 114.386328 
L 164.595455 116.688925 
L 169.527273 116.688925 
L 169.527273 118.09449 
L 174.459091 118.09449 
L 174.459091 118.811797 
L 179.390909 118.811797 
L 179.390909 119.538294 
L 184.322727 119.538294 
L 184.322727 120.029503 
L 189.254545 120.029503 
L 189.254545 121.524386 
L 194.186364 121.524386 
L 194.186364 122.030309 
L 199.118182 122.030309 
L 199.118182 122.547003 
L 204.05 122.547003 
L 204.05 123.868565 
L 208.981818 123.868565 
L 208.981818 124.675524 
L 213.913636 124.675524 
L 213.913636 125.496488 
L 218.845455 125.496488 
L 218.845455 125.776128 
L 223.777273 125.776128 
L 223.777273 126.345139 
L 228.709091 126.345139 
L 228.709091 127.793915 
L 233.640909 127.793915 
L 233.640909 128.680226 
L 238.572727 128.680226 
L 238.572727 129.880315 
L 243.504545 129.880315 
L 243.504545 130.492151 
L 248.436364 130.492151 
L 248.436364 131.424015 
L 253.368182 131.424015 
L 253.368182 132.692894 
L 263.231818 132.692894 
L 263.231818 133.6861 
L 268.163636 133.6861 
L 268.163636 134.025005 
L 273.095455 134.025005 
L 273.095455 135.411113 
L 278.027273 135.411113 
L 278.027273 136.117661 
L 282.959091 136.117661 
L 282.959091 136.836961 
L 287.890909 136.836961 
L 287.890909 137.567491 
L 292.822727 137.567491 
L 292.822727 138.313812 
L 297.754545 138.313812 
L 297.754545 139.071549 
L 302.686364 139.071549 
L 302.686364 139.457818 
L 307.618182 139.457818 
L 307.618182 141.435558 
L 312.55 141.435558 
L 312.55 142.660401 
L 317.481818 142.660401 
L 317.481818 143.504212 
L 322.413636 143.504212 
L 322.413636 145.672206 
L 327.345455 145.672206 
L 327.345455 147.007234 
L 332.277273 147.007234 
L 332.277273 147.919241 
L 337.209091 147.919241 
L 337.209091 148.389096 
L 342.140909 148.389096 
L 342.140909 150.34961 
L 347.072727 150.34961 
L 347.072727 152.901142 
L 352.004545 152.901142 
L 352.004545 153.427638 
L 356.936364 153.427638 
L 356.936364 154.516731 
L 361.868182 154.516731 
L 361.868182 155.080668 
L 366.8 155.080668 
L 366.8 155.66456 
L 371.731818 155.66456 
L 371.731818 157.471932 
L 376.663636 157.471932 
L 376.663636 158.095302 
L 386.527273 158.095302 
L 386.527273 158.7887 
L 391.459091 158.7887 
L 391.459091 159.515627 
L 396.390909 159.515627 
L 396.390909 160.298706 
L 401.322727 160.298706 
L 401.322727 163.62592 
L 406.254545 163.62592 
L 406.254545 166.238487 
L 411.186364 166.238487 
L 411.186364 169.036247 
L 416.118182 169.036247 
L 416.118182 170.063141 
L 425.981818 170.063141 
L 425.981818 176.596245 
L 430.913636 176.596245 
L 430.913636 178.180378 
L 435.845455 178.180378 
L 435.845455 180.70825 
L 435.845455 180.70825 
" style="fill:none;stroke:#dd8452;stroke-linecap:round;stroke-width:1.5;"/>
   </g>
   <g id="patch_3">
    <path d="M 63 315 
L 63 43.2 
" style="fill:none;stroke:#ffffff;stroke-linecap:square;stroke-linejoin:miter;stroke-width:1.25;"/>
   </g>
   <g id="patch_4">
    <path d="M 453.6 315 
L 453.6 43.2 
" style="fill:none;stroke:#ffffff;stroke-linecap:square;stroke-linejoin:miter;stroke-width:1.25;"/>
   </g>
   <g id="patch_5">
    <path d="M 63 315 
L 453.6 315 
" style="fill:none;stroke:#ffffff;stroke-linecap:square;stroke-linejoin:miter;stroke-width:1.25;"/>
   </g>
   <g id="patch_6">
    <path d="M 63 43.2 
L 453.6 43.2 
" style="fill:none;stroke:#ffffff;stroke-linecap:square;stroke-linejoin:miter;stroke-width:1.25;"/>
   </g>
   <g id="text_17">
    <!-- Survival curves, stratified by PaperlessBilling -->
    <g style="fill:#262626;" transform="translate(128.25375 33.2)scale(0.12 -0.12)">
     <defs>
      <path d="M 52.390625 36.53125 
L 38.875 34.078125 
Q 38.1875 38.140625 35.765625 40.1875 
Q 33.34375 42.234375 29.5 42.234375 
Q 24.359375 42.234375 21.3125 38.6875 
Q 18.265625 35.15625 18.265625 26.859375 
Q 18.265625 17.625 21.359375 13.8125 
Q 24.46875 10.015625 29.6875 10.015625 
Q 33.59375 10.015625 36.078125 12.234375 
Q 38.578125 14.453125 39.59375 19.875 
L 53.078125 17.578125 
Q 50.984375 8.296875 45.015625 3.5625 
Q 39.0625 -1.171875 29.046875 -1.171875 
Q 17.671875 -1.171875 10.90625 6 
Q 4.15625 13.1875 4.15625 25.875 
Q 4.15625 38.71875 10.9375 45.875 
Q 17.71875 53.03125 29.296875 53.03125 
Q 38.765625 53.03125 44.359375 48.953125 
Q 49.953125 44.875 52.390625 36.53125 
z
" id="Arial-BoldMT-99"/>
      <path d="M 6.84375 13.71875 
L 20.5625 13.71875 
L 20.5625 3.90625 
Q 20.5625 -2.046875 19.53125 -5.484375 
Q 18.5 -8.9375 15.640625 -11.671875 
Q 12.796875 -14.40625 8.40625 -15.96875 
L 5.71875 -10.296875 
Q 9.859375 -8.9375 11.609375 -6.546875 
Q 13.375 -4.15625 13.484375 0 
L 6.84375 0 
z
" id="Arial-BoldMT-44"/>
      <path d="M 1.171875 51.859375 
L 8.796875 51.859375 
L 8.796875 55.765625 
Q 8.796875 62.3125 10.1875 65.53125 
Q 11.578125 68.75 15.3125 70.765625 
Q 19.046875 72.796875 24.75 72.796875 
Q 30.609375 72.796875 36.234375 71.046875 
L 34.375 61.46875 
Q 31.109375 62.25 28.078125 62.25 
Q 25.09375 62.25 23.796875 60.859375 
Q 22.515625 59.46875 22.515625 55.515625 
L 22.515625 51.859375 
L 32.765625 51.859375 
L 32.765625 41.0625 
L 22.515625 41.0625 
L 22.515625 0 
L 8.796875 0 
L 8.796875 41.0625 
L 1.171875 41.0625 
z
" id="Arial-BoldMT-102"/>
      <path d="M 54.734375 0 
L 42 0 
L 42 7.625 
Q 38.8125 3.171875 34.484375 1 
Q 30.171875 -1.171875 25.78125 -1.171875 
Q 16.84375 -1.171875 10.46875 6.03125 
Q 4.109375 13.234375 4.109375 26.125 
Q 4.109375 39.3125 10.296875 46.171875 
Q 16.5 53.03125 25.984375 53.03125 
Q 34.671875 53.03125 41.015625 45.796875 
L 41.015625 71.578125 
L 54.734375 71.578125 
z
M 18.109375 27.046875 
Q 18.109375 18.75 20.40625 15.046875 
Q 23.734375 9.671875 29.6875 9.671875 
Q 34.421875 9.671875 37.734375 13.6875 
Q 41.0625 17.71875 41.0625 25.734375 
Q 41.0625 34.671875 37.84375 38.59375 
Q 34.625 42.53125 29.59375 42.53125 
Q 24.703125 42.53125 21.40625 38.640625 
Q 18.109375 34.765625 18.109375 27.046875 
z
" id="Arial-BoldMT-100"/>
      <path d="M 7.28125 0 
L 7.28125 71.578125 
L 30.46875 71.578125 
Q 43.65625 71.578125 47.65625 70.515625 
Q 53.8125 68.890625 57.953125 63.5 
Q 62.109375 58.109375 62.109375 49.5625 
Q 62.109375 42.96875 59.71875 38.46875 
Q 57.328125 33.984375 53.640625 31.421875 
Q 49.953125 28.859375 46.140625 28.03125 
Q 40.96875 27 31.15625 27 
L 21.734375 27 
L 21.734375 0 
z
M 21.734375 59.46875 
L 21.734375 39.15625 
L 29.640625 39.15625 
Q 38.1875 39.15625 41.0625 40.28125 
Q 43.953125 41.40625 45.578125 43.796875 
Q 47.21875 46.1875 47.21875 49.359375 
Q 47.21875 53.265625 44.921875 55.796875 
Q 42.625 58.34375 39.109375 58.984375 
Q 36.53125 59.46875 28.71875 59.46875 
z
" id="Arial-BoldMT-80"/>
      <path d="M 7.328125 71.578125 
L 35.9375 71.578125 
Q 44.4375 71.578125 48.609375 70.875 
Q 52.78125 70.171875 56.078125 67.921875 
Q 59.375 65.671875 61.5625 61.9375 
Q 63.765625 58.203125 63.765625 53.5625 
Q 63.765625 48.53125 61.046875 44.328125 
Q 58.34375 40.140625 53.71875 38.03125 
Q 60.25 36.140625 63.765625 31.546875 
Q 67.28125 26.953125 67.28125 20.75 
Q 67.28125 15.875 65.015625 11.25 
Q 62.75 6.640625 58.8125 3.875 
Q 54.890625 1.125 49.125 0.484375 
Q 45.515625 0.09375 31.6875 0 
L 7.328125 0 
z
M 21.78125 59.671875 
L 21.78125 43.109375 
L 31.25 43.109375 
Q 39.703125 43.109375 41.75 43.359375 
Q 45.453125 43.796875 47.578125 45.921875 
Q 49.703125 48.046875 49.703125 51.515625 
Q 49.703125 54.828125 47.875 56.90625 
Q 46.046875 58.984375 42.4375 59.421875 
Q 40.28125 59.671875 30.078125 59.671875 
z
M 21.78125 31.203125 
L 21.78125 12.0625 
L 35.15625 12.0625 
Q 42.96875 12.0625 45.0625 12.5 
Q 48.296875 13.09375 50.3125 15.359375 
Q 52.34375 17.625 52.34375 21.4375 
Q 52.34375 24.65625 50.78125 26.90625 
Q 49.21875 29.15625 46.265625 30.171875 
Q 43.3125 31.203125 33.453125 31.203125 
z
" id="Arial-BoldMT-66"/>
      <path d="M 5.90625 -3.421875 
L 21.578125 -5.328125 
Q 21.96875 -8.0625 23.390625 -9.078125 
Q 25.34375 -10.546875 29.546875 -10.546875 
Q 34.90625 -10.546875 37.59375 -8.9375 
Q 39.40625 -7.859375 40.328125 -5.46875 
Q 40.96875 -3.765625 40.96875 0.828125 
L 40.96875 8.40625 
Q 34.8125 0 25.4375 0 
Q 14.984375 0 8.890625 8.84375 
Q 4.109375 15.828125 4.109375 26.21875 
Q 4.109375 39.265625 10.375 46.140625 
Q 16.65625 53.03125 25.984375 53.03125 
Q 35.59375 53.03125 41.84375 44.578125 
L 41.84375 51.859375 
L 54.6875 51.859375 
L 54.6875 5.328125 
Q 54.6875 -3.859375 53.171875 -8.390625 
Q 51.65625 -12.9375 48.921875 -15.515625 
Q 46.1875 -18.109375 41.625 -19.578125 
Q 37.0625 -21.046875 30.078125 -21.046875 
Q 16.890625 -21.046875 11.375 -16.53125 
Q 5.859375 -12.015625 5.859375 -5.078125 
Q 5.859375 -4.390625 5.90625 -3.421875 
z
M 18.171875 27 
Q 18.171875 18.75 21.359375 14.90625 
Q 24.5625 11.078125 29.25 11.078125 
Q 34.28125 11.078125 37.75 15.015625 
Q 41.21875 18.953125 41.21875 26.65625 
Q 41.21875 34.71875 37.890625 38.625 
Q 34.578125 42.53125 29.5 42.53125 
Q 24.5625 42.53125 21.359375 38.6875 
Q 18.171875 34.859375 18.171875 27 
z
" id="Arial-BoldMT-103"/>
     </defs>
     <use xlink:href="#Arial-BoldMT-83"/>
     <use x="66.699219" xlink:href="#Arial-BoldMT-117"/>
     <use x="127.783203" xlink:href="#Arial-BoldMT-114"/>
     <use x="166.699219" xlink:href="#Arial-BoldMT-118"/>
     <use x="222.314453" xlink:href="#Arial-BoldMT-105"/>
     <use x="250.097656" xlink:href="#Arial-BoldMT-118"/>
     <use x="305.712891" xlink:href="#Arial-BoldMT-97"/>
     <use x="361.328125" xlink:href="#Arial-BoldMT-108"/>
     <use x="389.111328" xlink:href="#Arial-BoldMT-32"/>
     <use x="416.894531" xlink:href="#Arial-BoldMT-99"/>
     <use x="472.509766" xlink:href="#Arial-BoldMT-117"/>
     <use x="533.59375" xlink:href="#Arial-BoldMT-114"/>
     <use x="572.509766" xlink:href="#Arial-BoldMT-118"/>
     <use x="628.125" xlink:href="#Arial-BoldMT-101"/>
     <use x="683.740234" xlink:href="#Arial-BoldMT-115"/>
     <use x="739.355469" xlink:href="#Arial-BoldMT-44"/>
     <use x="767.138672" xlink:href="#Arial-BoldMT-32"/>
     <use x="794.921875" xlink:href="#Arial-BoldMT-115"/>
     <use x="850.537109" xlink:href="#Arial-BoldMT-116"/>
     <use x="883.837891" xlink:href="#Arial-BoldMT-114"/>
     <use x="922.753906" xlink:href="#Arial-BoldMT-97"/>
     <use x="978.369141" xlink:href="#Arial-BoldMT-116"/>
     <use x="1011.669922" xlink:href="#Arial-BoldMT-105"/>
     <use x="1039.453125" xlink:href="#Arial-BoldMT-102"/>
     <use x="1072.753906" xlink:href="#Arial-BoldMT-105"/>
     <use x="1100.537109" xlink:href="#Arial-BoldMT-101"/>
     <use x="1156.152344" xlink:href="#Arial-BoldMT-100"/>
     <use x="1217.236328" xlink:href="#Arial-BoldMT-32"/>
     <use x="1245.019531" xlink:href="#Arial-BoldMT-98"/>
     <use x="1306.103516" xlink:href="#Arial-BoldMT-121"/>
     <use x="1361.71875" xlink:href="#Arial-BoldMT-32"/>
     <use x="1389.501953" xlink:href="#Arial-BoldMT-80"/>
     <use x="1456.201172" xlink:href="#Arial-BoldMT-97"/>
     <use x="1511.816406" xlink:href="#Arial-BoldMT-112"/>
     <use x="1572.900391" xlink:href="#Arial-BoldMT-101"/>
     <use x="1628.515625" xlink:href="#Arial-BoldMT-114"/>
     <use x="1667.431641" xlink:href="#Arial-BoldMT-108"/>
     <use x="1695.214844" xlink:href="#Arial-BoldMT-101"/>
     <use x="1750.830078" xlink:href="#Arial-BoldMT-115"/>
     <use x="1806.445312" xlink:href="#Arial-BoldMT-115"/>
     <use x="1862.060547" xlink:href="#Arial-BoldMT-66"/>
     <use x="1934.277344" xlink:href="#Arial-BoldMT-105"/>
     <use x="1962.060547" xlink:href="#Arial-BoldMT-108"/>
     <use x="1989.84375" xlink:href="#Arial-BoldMT-108"/>
     <use x="2017.626953" xlink:href="#Arial-BoldMT-105"/>
     <use x="2045.410156" xlink:href="#Arial-BoldMT-110"/>
     <use x="2106.494141" xlink:href="#Arial-BoldMT-103"/>
    </g>
   </g>
   <g id="legend_1">
    <g id="patch_7">
     <path d="M 392.749375 83.119687 
L 445.9 83.119687 
Q 448.1 83.119687 448.1 80.919688 
L 448.1 50.9 
Q 448.1 48.7 445.9 48.7 
L 392.749375 48.7 
Q 390.549375 48.7 390.549375 50.9 
L 390.549375 80.919688 
Q 390.549375 83.119687 392.749375 83.119687 
z
" style="fill:#eaeaf2;opacity:0.8;stroke:#cccccc;stroke-linejoin:miter;"/>
    </g>
    <g id="line2d_17">
     <path d="M 394.949375 57.123594 
L 416.949375 57.123594 
" style="fill:none;stroke:#4c72b0;stroke-linecap:round;stroke-width:1.5;"/>
    </g>
    <g id="line2d_18"/>
    <g id="text_18">
     <!-- Yes -->
     <g style="fill:#262626;" transform="translate(425.749375 60.973594)scale(0.11 -0.11)">
      <defs>
       <path d="M 27.875 0 
L 27.875 30.328125 
L 0.296875 71.578125 
L 11.8125 71.578125 
L 25.921875 50 
Q 29.828125 43.953125 33.203125 37.890625 
Q 36.421875 43.5 41.015625 50.53125 
L 54.890625 71.578125 
L 65.921875 71.578125 
L 37.359375 30.328125 
L 37.359375 0 
z
" id="ArialMT-89"/>
       <path d="M 42.09375 16.703125 
L 51.171875 15.578125 
Q 49.03125 7.625 43.21875 3.21875 
Q 37.40625 -1.171875 28.375 -1.171875 
Q 17 -1.171875 10.328125 5.828125 
Q 3.65625 12.84375 3.65625 25.484375 
Q 3.65625 38.578125 10.390625 45.796875 
Q 17.140625 53.03125 27.875 53.03125 
Q 38.28125 53.03125 44.875 45.953125 
Q 51.46875 38.875 51.46875 26.03125 
Q 51.46875 25.25 51.421875 23.6875 
L 12.75 23.6875 
Q 13.234375 15.140625 17.578125 10.59375 
Q 21.921875 6.0625 28.421875 6.0625 
Q 33.25 6.0625 36.671875 8.59375 
Q 40.09375 11.140625 42.09375 16.703125 
z
M 13.234375 30.90625 
L 42.1875 30.90625 
Q 41.609375 37.453125 38.875 40.71875 
Q 34.671875 45.796875 27.984375 45.796875 
Q 21.921875 45.796875 17.796875 41.75 
Q 13.671875 37.703125 13.234375 30.90625 
z
" id="ArialMT-101"/>
       <path d="M 3.078125 15.484375 
L 11.765625 16.84375 
Q 12.5 11.625 15.84375 8.84375 
Q 19.1875 6.0625 25.203125 6.0625 
Q 31.25 6.0625 34.171875 8.515625 
Q 37.109375 10.984375 37.109375 14.3125 
Q 37.109375 17.28125 34.515625 19 
Q 32.71875 20.171875 25.53125 21.96875 
Q 15.875 24.421875 12.140625 26.203125 
Q 8.40625 27.984375 6.46875 31.125 
Q 4.546875 34.28125 4.546875 38.09375 
Q 4.546875 41.546875 6.125 44.5 
Q 7.71875 47.46875 10.453125 49.421875 
Q 12.5 50.921875 16.03125 51.96875 
Q 19.578125 53.03125 23.640625 53.03125 
Q 29.734375 53.03125 34.34375 51.265625 
Q 38.96875 49.515625 41.15625 46.5 
Q 43.359375 43.5 44.1875 38.484375 
L 35.59375 37.3125 
Q 35.015625 41.3125 32.203125 43.546875 
Q 29.390625 45.796875 24.265625 45.796875 
Q 18.21875 45.796875 15.625 43.796875 
Q 13.03125 41.796875 13.03125 39.109375 
Q 13.03125 37.40625 14.109375 36.03125 
Q 15.1875 34.625 17.484375 33.6875 
Q 18.796875 33.203125 25.25 31.453125 
Q 34.578125 28.953125 38.25 27.359375 
Q 41.9375 25.78125 44.03125 22.75 
Q 46.140625 19.734375 46.140625 15.234375 
Q 46.140625 10.84375 43.578125 6.953125 
Q 41.015625 3.078125 36.171875 0.953125 
Q 31.34375 -1.171875 25.25 -1.171875 
Q 15.140625 -1.171875 9.84375 3.03125 
Q 4.546875 7.234375 3.078125 15.484375 
z
" id="ArialMT-115"/>
      </defs>
      <use xlink:href="#ArialMT-89"/>
      <use x="57.574219" xlink:href="#ArialMT-101"/>
      <use x="113.189453" xlink:href="#ArialMT-115"/>
     </g>
    </g>
    <g id="line2d_19">
     <path d="M 394.949375 72.683438 
L 416.949375 72.683438 
" style="fill:none;stroke:#dd8452;stroke-linecap:round;stroke-width:1.5;"/>
    </g>
    <g id="line2d_20"/>
    <g id="text_19">
     <!-- No -->
     <g style="fill:#262626;" transform="translate(425.749375 76.533438)scale(0.11 -0.11)">
      <defs>
       <path d="M 7.625 0 
L 7.625 71.578125 
L 17.328125 71.578125 
L 54.9375 15.375 
L 54.9375 71.578125 
L 64.015625 71.578125 
L 64.015625 0 
L 54.296875 0 
L 16.703125 56.25 
L 16.703125 0 
z
" id="ArialMT-78"/>
       <path d="M 3.328125 25.921875 
Q 3.328125 40.328125 11.328125 47.265625 
Q 18.015625 53.03125 27.640625 53.03125 
Q 38.328125 53.03125 45.109375 46.015625 
Q 51.90625 39.015625 51.90625 26.65625 
Q 51.90625 16.65625 48.90625 10.90625 
Q 45.90625 5.171875 40.15625 2 
Q 34.421875 -1.171875 27.640625 -1.171875 
Q 16.75 -1.171875 10.03125 5.8125 
Q 3.328125 12.796875 3.328125 25.921875 
z
M 12.359375 25.921875 
Q 12.359375 15.96875 16.703125 11.015625 
Q 21.046875 6.0625 27.640625 6.0625 
Q 34.1875 6.0625 38.53125 11.03125 
Q 42.875 16.015625 42.875 26.21875 
Q 42.875 35.84375 38.5 40.796875 
Q 34.125 45.75 27.640625 45.75 
Q 21.046875 45.75 16.703125 40.8125 
Q 12.359375 35.890625 12.359375 25.921875 
z
" id="ArialMT-111"/>
      </defs>
      <use xlink:href="#ArialMT-78"/>
      <use x="72.216797" xlink:href="#ArialMT-111"/>
     </g>
    </g>
   </g>
  </g>
 </g>
 <defs>
  <clipPath id="p74c77f63ed">
   <rect height="271.8" width="390.6" x="63" y="43.2"/>
  </clipPath>
 </defs>
</svg>
