<?xml version="1.0" encoding="utf-8" standalone="no"?>
<!DOCTYPE svg PUBLIC "-//W3C//DTD SVG 1.1//EN"
  "http://www.w3.org/Graphics/SVG/1.1/DTD/svg11.dtd">
<!-- Created with matplotlib (https://matplotlib.org/) -->
<svg height="360pt" version="1.1" viewBox="0 0 504 360" width="504pt" xmlns="http://www.w3.org/2000/svg" xmlns:xlink="http://www.w3.org/1999/xlink">
 <metadata>
  <rdf:RDF xmlns:cc="http://creativecommons.org/ns#" xmlns:dc="http://purl.org/dc/elements/1.1/" xmlns:rdf="http://www.w3.org/1999/02/22-rdf-syntax-ns#">
   <cc:Work>
    <dc:type rdf:resource="http://purl.org/dc/dcmitype/StillImage"/>
    <dc:date>2021-06-10T12:40:24.121134</dc:date>
    <dc:format>image/svg+xml</dc:format>
    <dc:creator>
     <cc:Agent>
      <dc:title>Matplotlib v3.3.3, https://matplotlib.org/</dc:title>
     </cc:Agent>
    </dc:creator>
   </cc:Work>
  </rdf:RDF>
 </metadata>
 <defs>
  <style type="text/css">*{stroke-linecap:butt;stroke-linejoin:round;}</style>
 </defs>
 <g id="figure_1">
  <g id="patch_1">
   <path d="M 0 360 
L 504 360 
L 504 0 
L 0 0 
z
" style="fill:none;"/>
  </g>
  <g id="axes_1">
   <g id="patch_2">
    <path d="M 63 315 
L 453.6 315 
L 453.6 43.2 
L 63 43.2 
z
" style="fill:#eaeaf2;"/>
   </g>
   <g id="matplotlib.axis_1">
    <g id="xtick_1">
     <g id="line2d_1">
      <path clip-path="url(#p03487d8d73)" d="M 80.754545 315 
L 80.754545 43.2 
" style="fill:none;stroke:#ffffff;stroke-linecap:round;"/>
     </g>
     <g id="text_1">
      <!-- 0 -->
      <g style="fill:#262626;" transform="translate(77.69603 332.373594)scale(0.11 -0.11)">
       <defs>
        <path d="M 4.15625 35.296875 
Q 4.15625 48 6.765625 55.734375 
Q 9.375 63.484375 14.515625 67.671875 
Q 19.671875 71.875 27.484375 71.875 
Q 33.25 71.875 37.59375 69.546875 
Q 41.9375 67.234375 44.765625 62.859375 
Q 47.609375 58.5 49.21875 52.21875 
Q 50.828125 45.953125 50.828125 35.296875 
Q 50.828125 22.703125 48.234375 14.96875 
Q 45.65625 7.234375 40.5 3 
Q 35.359375 -1.21875 27.484375 -1.21875 
Q 17.140625 -1.21875 11.234375 6.203125 
Q 4.15625 15.140625 4.15625 35.296875 
z
M 13.1875 35.296875 
Q 13.1875 17.671875 17.3125 11.828125 
Q 21.4375 6 27.484375 6 
Q 33.546875 6 37.671875 11.859375 
Q 41.796875 17.71875 41.796875 35.296875 
Q 41.796875 52.984375 37.671875 58.78125 
Q 33.546875 64.59375 27.390625 64.59375 
Q 21.34375 64.59375 17.71875 59.46875 
Q 13.1875 52.9375 13.1875 35.296875 
z
" id="ArialMT-48"/>
       </defs>
       <use xlink:href="#ArialMT-48"/>
      </g>
     </g>
    </g>
    <g id="xtick_2">
     <g id="line2d_2">
      <path clip-path="url(#p03487d8d73)" d="M 130.072727 315 
L 130.072727 43.2 
" style="fill:none;stroke:#ffffff;stroke-linecap:round;"/>
     </g>
     <g id="text_2">
      <!-- 10 -->
      <g style="fill:#262626;" transform="translate(123.955696 332.373594)scale(0.11 -0.11)">
       <defs>
        <path d="M 37.25 0 
L 28.46875 0 
L 28.46875 56 
Q 25.296875 52.984375 20.140625 49.953125 
Q 14.984375 46.921875 10.890625 45.40625 
L 10.890625 53.90625 
Q 18.265625 57.375 23.78125 62.296875 
Q 29.296875 67.234375 31.59375 71.875 
L 37.25 71.875 
z
" id="ArialMT-49"/>
       </defs>
       <use xlink:href="#ArialMT-49"/>
       <use x="55.615234" xlink:href="#ArialMT-48"/>
      </g>
     </g>
    </g>
    <g id="xtick_3">
     <g id="line2d_3">
      <path clip-path="url(#p03487d8d73)" d="M 179.390909 315 
L 179.390909 43.2 
" style="fill:none;stroke:#ffffff;stroke-linecap:round;"/>
     </g>
     <g id="text_3">
      <!-- 20 -->
      <g style="fill:#262626;" transform="translate(173.273878 332.373594)scale(0.11 -0.11)">
       <defs>
        <path d="M 50.34375 8.453125 
L 50.34375 0 
L 3.03125 0 
Q 2.9375 3.171875 4.046875 6.109375 
Q 5.859375 10.9375 9.828125 15.625 
Q 13.8125 20.3125 21.34375 26.46875 
Q 33.015625 36.03125 37.109375 41.625 
Q 41.21875 47.21875 41.21875 52.203125 
Q 41.21875 57.421875 37.46875 61 
Q 33.734375 64.59375 27.734375 64.59375 
Q 21.390625 64.59375 17.578125 60.78125 
Q 13.765625 56.984375 13.71875 50.25 
L 4.6875 51.171875 
Q 5.609375 61.28125 11.65625 66.578125 
Q 17.71875 71.875 27.9375 71.875 
Q 38.234375 71.875 44.234375 66.15625 
Q 50.25 60.453125 50.25 52 
Q 50.25 47.703125 48.484375 43.546875 
Q 46.734375 39.40625 42.65625 34.8125 
Q 38.578125 30.21875 29.109375 22.21875 
Q 21.1875 15.578125 18.9375 13.203125 
Q 16.703125 10.84375 15.234375 8.453125 
z
" id="ArialMT-50"/>
       </defs>
       <use xlink:href="#ArialMT-50"/>
       <use x="55.615234" xlink:href="#ArialMT-48"/>
      </g>
     </g>
    </g>
    <g id="xtick_4">
     <g id="line2d_4">
      <path clip-path="url(#p03487d8d73)" d="M 228.709091 315 
L 228.709091 43.2 
" style="fill:none;stroke:#ffffff;stroke-linecap:round;"/>
     </g>
     <g id="text_4">
      <!-- 30 -->
      <g style="fill:#262626;" transform="translate(222.59206 332.373594)scale(0.11 -0.11)">
       <defs>
        <path d="M 4.203125 18.890625 
L 12.984375 20.0625 
Q 14.5 12.59375 18.140625 9.296875 
Q 21.78125 6 27 6 
Q 33.203125 6 37.46875 10.296875 
Q 41.75 14.59375 41.75 20.953125 
Q 41.75 27 37.796875 30.921875 
Q 33.84375 34.859375 27.734375 34.859375 
Q 25.25 34.859375 21.53125 33.890625 
L 22.515625 41.609375 
Q 23.390625 41.5 23.921875 41.5 
Q 29.546875 41.5 34.03125 44.421875 
Q 38.53125 47.359375 38.53125 53.46875 
Q 38.53125 58.296875 35.25 61.46875 
Q 31.984375 64.65625 26.8125 64.65625 
Q 21.6875 64.65625 18.265625 61.421875 
Q 14.84375 58.203125 13.875 51.765625 
L 5.078125 53.328125 
Q 6.6875 62.15625 12.390625 67.015625 
Q 18.109375 71.875 26.609375 71.875 
Q 32.46875 71.875 37.390625 69.359375 
Q 42.328125 66.84375 44.9375 62.5 
Q 47.5625 58.15625 47.5625 53.265625 
Q 47.5625 48.640625 45.0625 44.828125 
Q 42.578125 41.015625 37.703125 38.765625 
Q 44.046875 37.3125 47.5625 32.6875 
Q 51.078125 28.078125 51.078125 21.140625 
Q 51.078125 11.765625 44.234375 5.25 
Q 37.40625 -1.265625 26.953125 -1.265625 
Q 17.53125 -1.265625 11.296875 4.34375 
Q 5.078125 9.96875 4.203125 18.890625 
z
" id="ArialMT-51"/>
       </defs>
       <use xlink:href="#ArialMT-51"/>
       <use x="55.615234" xlink:href="#ArialMT-48"/>
      </g>
     </g>
    </g>
    <g id="xtick_5">
     <g id="line2d_5">
      <path clip-path="url(#p03487d8d73)" d="M 278.027273 315 
L 278.027273 43.2 
" style="fill:none;stroke:#ffffff;stroke-linecap:round;"/>
     </g>
     <g id="text_5">
      <!-- 40 -->
      <g style="fill:#262626;" transform="translate(271.910241 332.373594)scale(0.11 -0.11)">
       <defs>
        <path d="M 32.328125 0 
L 32.328125 17.140625 
L 1.265625 17.140625 
L 1.265625 25.203125 
L 33.9375 71.578125 
L 41.109375 71.578125 
L 41.109375 25.203125 
L 50.78125 25.203125 
L 50.78125 17.140625 
L 41.109375 17.140625 
L 41.109375 0 
z
M 32.328125 25.203125 
L 32.328125 57.46875 
L 9.90625 25.203125 
z
" id="ArialMT-52"/>
       </defs>
       <use xlink:href="#ArialMT-52"/>
       <use x="55.615234" xlink:href="#ArialMT-48"/>
      </g>
     </g>
    </g>
    <g id="xtick_6">
     <g id="line2d_6">
      <path clip-path="url(#p03487d8d73)" d="M 327.345455 315 
L 327.345455 43.2 
" style="fill:none;stroke:#ffffff;stroke-linecap:round;"/>
     </g>
     <g id="text_6">
      <!-- 50 -->
      <g style="fill:#262626;" transform="translate(321.228423 332.373594)scale(0.11 -0.11)">
       <defs>
        <path d="M 4.15625 18.75 
L 13.375 19.53125 
Q 14.40625 12.796875 18.140625 9.390625 
Q 21.875 6 27.15625 6 
Q 33.5 6 37.890625 10.78125 
Q 42.28125 15.578125 42.28125 23.484375 
Q 42.28125 31 38.0625 35.34375 
Q 33.84375 39.703125 27 39.703125 
Q 22.75 39.703125 19.328125 37.765625 
Q 15.921875 35.84375 13.96875 32.765625 
L 5.71875 33.84375 
L 12.640625 70.609375 
L 48.25 70.609375 
L 48.25 62.203125 
L 19.671875 62.203125 
L 15.828125 42.96875 
Q 22.265625 47.46875 29.34375 47.46875 
Q 38.71875 47.46875 45.15625 40.96875 
Q 51.609375 34.46875 51.609375 24.265625 
Q 51.609375 14.546875 45.953125 7.46875 
Q 39.0625 -1.21875 27.15625 -1.21875 
Q 17.390625 -1.21875 11.203125 4.25 
Q 5.03125 9.71875 4.15625 18.75 
z
" id="ArialMT-53"/>
       </defs>
       <use xlink:href="#ArialMT-53"/>
       <use x="55.615234" xlink:href="#ArialMT-48"/>
      </g>
     </g>
    </g>
    <g id="xtick_7">
     <g id="line2d_7">
      <path clip-path="url(#p03487d8d73)" d="M 376.663636 315 
L 376.663636 43.2 
" style="fill:none;stroke:#ffffff;stroke-linecap:round;"/>
     </g>
     <g id="text_7">
      <!-- 60 -->
      <g style="fill:#262626;" transform="translate(370.546605 332.373594)scale(0.11 -0.11)">
       <defs>
        <path d="M 49.75 54.046875 
L 41.015625 53.375 
Q 39.84375 58.546875 37.703125 60.890625 
Q 34.125 64.65625 28.90625 64.65625 
Q 24.703125 64.65625 21.53125 62.3125 
Q 17.390625 59.28125 14.984375 53.46875 
Q 12.59375 47.65625 12.5 36.921875 
Q 15.671875 41.75 20.265625 44.09375 
Q 24.859375 46.4375 29.890625 46.4375 
Q 38.671875 46.4375 44.84375 39.96875 
Q 51.03125 33.5 51.03125 23.25 
Q 51.03125 16.5 48.125 10.71875 
Q 45.21875 4.9375 40.140625 1.859375 
Q 35.0625 -1.21875 28.609375 -1.21875 
Q 17.625 -1.21875 10.6875 6.859375 
Q 3.765625 14.9375 3.765625 33.5 
Q 3.765625 54.25 11.421875 63.671875 
Q 18.109375 71.875 29.4375 71.875 
Q 37.890625 71.875 43.28125 67.140625 
Q 48.6875 62.40625 49.75 54.046875 
z
M 13.875 23.1875 
Q 13.875 18.65625 15.796875 14.5 
Q 17.71875 10.359375 21.1875 8.171875 
Q 24.65625 6 28.46875 6 
Q 34.03125 6 38.03125 10.484375 
Q 42.046875 14.984375 42.046875 22.703125 
Q 42.046875 30.125 38.078125 34.390625 
Q 34.125 38.671875 28.125 38.671875 
Q 22.171875 38.671875 18.015625 34.390625 
Q 13.875 30.125 13.875 23.1875 
z
" id="ArialMT-54"/>
       </defs>
       <use xlink:href="#ArialMT-54"/>
       <use x="55.615234" xlink:href="#ArialMT-48"/>
      </g>
     </g>
    </g>
    <g id="xtick_8">
     <g id="line2d_8">
      <path clip-path="url(#p03487d8d73)" d="M 425.981818 315 
L 425.981818 43.2 
" style="fill:none;stroke:#ffffff;stroke-linecap:round;"/>
     </g>
     <g id="text_8">
      <!-- 70 -->
      <g style="fill:#262626;" transform="translate(419.864787 332.373594)scale(0.11 -0.11)">
       <defs>
        <path d="M 4.734375 62.203125 
L 4.734375 70.65625 
L 51.078125 70.65625 
L 51.078125 63.8125 
Q 44.234375 56.546875 37.515625 44.484375 
Q 30.8125 32.421875 27.15625 19.671875 
Q 24.515625 10.6875 23.78125 0 
L 14.75 0 
Q 14.890625 8.453125 18.0625 20.40625 
Q 21.234375 32.375 27.171875 43.484375 
Q 33.109375 54.59375 39.796875 62.203125 
z
" id="ArialMT-55"/>
       </defs>
       <use xlink:href="#ArialMT-55"/>
       <use x="55.615234" xlink:href="#ArialMT-48"/>
      </g>
     </g>
    </g>
    <g id="text_9">
     <!-- Tenure (months) -->
     <g style="fill:#262626;" transform="translate(211.41375 353.295469)scale(0.12 -0.12)">
      <defs>
       <path d="M 23.390625 0 
L 23.390625 59.46875 
L 2.15625 59.46875 
L 2.15625 71.578125 
L 59.03125 71.578125 
L 59.03125 59.46875 
L 37.84375 59.46875 
L 37.84375 0 
z
" id="Arial-BoldMT-84"/>
       <path d="M 37.203125 16.5 
L 50.875 14.203125 
Q 48.25 6.6875 42.546875 2.75 
Q 36.859375 -1.171875 28.328125 -1.171875 
Q 14.796875 -1.171875 8.296875 7.671875 
Q 3.171875 14.75 3.171875 25.53125 
Q 3.171875 38.421875 9.90625 45.71875 
Q 16.65625 53.03125 26.953125 53.03125 
Q 38.53125 53.03125 45.21875 45.390625 
Q 51.90625 37.75 51.609375 21.96875 
L 17.234375 21.96875 
Q 17.390625 15.875 20.5625 12.46875 
Q 23.734375 9.078125 28.46875 9.078125 
Q 31.6875 9.078125 33.875 10.828125 
Q 36.078125 12.59375 37.203125 16.5 
z
M 37.984375 30.375 
Q 37.84375 36.328125 34.90625 39.421875 
Q 31.984375 42.53125 27.78125 42.53125 
Q 23.296875 42.53125 20.359375 39.265625 
Q 17.4375 35.984375 17.484375 30.375 
z
" id="Arial-BoldMT-101"/>
       <path d="M 54.34375 0 
L 40.625 0 
L 40.625 26.46875 
Q 40.625 34.859375 39.75 37.328125 
Q 38.875 39.796875 36.890625 41.15625 
Q 34.90625 42.53125 32.125 42.53125 
Q 28.5625 42.53125 25.734375 40.578125 
Q 22.90625 38.625 21.84375 35.390625 
Q 20.796875 32.171875 20.796875 23.484375 
L 20.796875 0 
L 7.078125 0 
L 7.078125 51.859375 
L 19.828125 51.859375 
L 19.828125 44.234375 
Q 26.609375 53.03125 36.921875 53.03125 
Q 41.453125 53.03125 45.203125 51.390625 
Q 48.96875 49.75 50.890625 47.203125 
Q 52.828125 44.671875 53.578125 41.453125 
Q 54.34375 38.234375 54.34375 32.234375 
z
" id="Arial-BoldMT-110"/>
       <path d="M 41.3125 0 
L 41.3125 7.765625 
Q 38.484375 3.609375 33.859375 1.21875 
Q 29.25 -1.171875 24.125 -1.171875 
Q 18.890625 -1.171875 14.734375 1.125 
Q 10.59375 3.421875 8.734375 7.5625 
Q 6.890625 11.71875 6.890625 19.046875 
L 6.890625 51.859375 
L 20.609375 51.859375 
L 20.609375 28.03125 
Q 20.609375 17.09375 21.359375 14.625 
Q 22.125 12.15625 24.125 10.71875 
Q 26.125 9.28125 29.203125 9.28125 
Q 32.71875 9.28125 35.5 11.203125 
Q 38.28125 13.140625 39.296875 15.984375 
Q 40.328125 18.84375 40.328125 29.984375 
L 40.328125 51.859375 
L 54.046875 51.859375 
L 54.046875 0 
z
" id="Arial-BoldMT-117"/>
       <path d="M 20.3125 0 
L 6.59375 0 
L 6.59375 51.859375 
L 19.34375 51.859375 
L 19.34375 44.484375 
Q 22.609375 49.703125 25.21875 51.359375 
Q 27.828125 53.03125 31.15625 53.03125 
Q 35.84375 53.03125 40.1875 50.4375 
L 35.9375 38.484375 
Q 32.46875 40.71875 29.5 40.71875 
Q 26.609375 40.71875 24.609375 39.125 
Q 22.609375 37.546875 21.453125 33.390625 
Q 20.3125 29.25 20.3125 16.015625 
z
" id="Arial-BoldMT-114"/>
       <path id="Arial-BoldMT-32"/>
       <path d="M 29.9375 -21.046875 
L 20.515625 -21.046875 
Q 13.03125 -9.765625 9.125 2.390625 
Q 5.21875 14.546875 5.21875 25.921875 
Q 5.21875 40.046875 10.0625 52.640625 
Q 14.265625 63.578125 20.703125 72.796875 
L 30.078125 72.796875 
Q 23.390625 58.015625 20.875 47.625 
Q 18.359375 37.25 18.359375 25.640625 
Q 18.359375 17.625 19.84375 9.21875 
Q 21.34375 0.828125 23.921875 -6.734375 
Q 25.640625 -11.71875 29.9375 -21.046875 
z
" id="Arial-BoldMT-40"/>
       <path d="M 6.15625 51.859375 
L 18.796875 51.859375 
L 18.796875 44.78125 
Q 25.59375 53.03125 34.96875 53.03125 
Q 39.9375 53.03125 43.59375 50.96875 
Q 47.265625 48.921875 49.609375 44.78125 
Q 53.03125 48.921875 56.984375 50.96875 
Q 60.9375 53.03125 65.4375 53.03125 
Q 71.140625 53.03125 75.09375 50.703125 
Q 79.046875 48.390625 81 43.890625 
Q 82.421875 40.578125 82.421875 33.15625 
L 82.421875 0 
L 68.703125 0 
L 68.703125 29.640625 
Q 68.703125 37.359375 67.28125 39.59375 
Q 65.375 42.53125 61.421875 42.53125 
Q 58.546875 42.53125 56 40.765625 
Q 53.46875 39.015625 52.34375 35.625 
Q 51.21875 32.234375 51.21875 24.90625 
L 51.21875 0 
L 37.5 0 
L 37.5 28.421875 
Q 37.5 35.984375 36.765625 38.171875 
Q 36.03125 40.375 34.484375 41.453125 
Q 32.953125 42.53125 30.328125 42.53125 
Q 27.15625 42.53125 24.609375 40.8125 
Q 22.078125 39.109375 20.96875 35.890625 
Q 19.875 32.671875 19.875 25.203125 
L 19.875 0 
L 6.15625 0 
z
" id="Arial-BoldMT-109"/>
       <path d="M 4 26.65625 
Q 4 33.5 7.375 39.890625 
Q 10.75 46.296875 16.921875 49.65625 
Q 23.09375 53.03125 30.71875 53.03125 
Q 42.484375 53.03125 50 45.390625 
Q 57.515625 37.75 57.515625 26.078125 
Q 57.515625 14.3125 49.921875 6.5625 
Q 42.328125 -1.171875 30.8125 -1.171875 
Q 23.6875 -1.171875 17.21875 2.046875 
Q 10.75 5.28125 7.375 11.5 
Q 4 17.71875 4 26.65625 
z
M 18.0625 25.921875 
Q 18.0625 18.21875 21.71875 14.109375 
Q 25.390625 10.015625 30.765625 10.015625 
Q 36.140625 10.015625 39.765625 14.109375 
Q 43.40625 18.21875 43.40625 26.03125 
Q 43.40625 33.640625 39.765625 37.734375 
Q 36.140625 41.84375 30.765625 41.84375 
Q 25.390625 41.84375 21.71875 37.734375 
Q 18.0625 33.640625 18.0625 25.921875 
z
" id="Arial-BoldMT-111"/>
       <path d="M 30.953125 51.859375 
L 30.953125 40.921875 
L 21.578125 40.921875 
L 21.578125 20.015625 
Q 21.578125 13.671875 21.84375 12.625 
Q 22.125 11.578125 23.078125 10.890625 
Q 24.03125 10.203125 25.390625 10.203125 
Q 27.296875 10.203125 30.90625 11.53125 
L 32.078125 0.875 
Q 27.296875 -1.171875 21.234375 -1.171875 
Q 17.53125 -1.171875 14.546875 0.0625 
Q 11.578125 1.3125 10.1875 3.296875 
Q 8.796875 5.28125 8.25 8.640625 
Q 7.8125 11.03125 7.8125 18.3125 
L 7.8125 40.921875 
L 1.515625 40.921875 
L 1.515625 51.859375 
L 7.8125 51.859375 
L 7.8125 62.15625 
L 21.578125 70.171875 
L 21.578125 51.859375 
z
" id="Arial-BoldMT-116"/>
       <path d="M 20.84375 71.578125 
L 20.84375 45.265625 
Q 27.484375 53.03125 36.71875 53.03125 
Q 41.453125 53.03125 45.265625 51.265625 
Q 49.078125 49.515625 51 46.78125 
Q 52.9375 44.046875 53.640625 40.71875 
Q 54.34375 37.40625 54.34375 30.421875 
L 54.34375 0 
L 40.625 0 
L 40.625 27.390625 
Q 40.625 35.546875 39.84375 37.734375 
Q 39.0625 39.9375 37.078125 41.234375 
Q 35.109375 42.53125 32.125 42.53125 
Q 28.71875 42.53125 26.03125 40.859375 
Q 23.34375 39.203125 22.09375 35.859375 
Q 20.84375 32.515625 20.84375 25.984375 
L 20.84375 0 
L 7.125 0 
L 7.125 71.578125 
z
" id="Arial-BoldMT-104"/>
       <path d="M 2.34375 14.796875 
L 16.109375 16.890625 
Q 17 12.890625 19.671875 10.8125 
Q 22.359375 8.734375 27.203125 8.734375 
Q 32.515625 8.734375 35.203125 10.6875 
Q 37.015625 12.0625 37.015625 14.359375 
Q 37.015625 15.921875 36.03125 16.9375 
Q 35.015625 17.921875 31.453125 18.75 
Q 14.84375 22.40625 10.40625 25.4375 
Q 4.25 29.640625 4.25 37.109375 
Q 4.25 43.84375 9.5625 48.4375 
Q 14.890625 53.03125 26.078125 53.03125 
Q 36.71875 53.03125 41.890625 49.5625 
Q 47.078125 46.09375 49.03125 39.3125 
L 36.078125 36.921875 
Q 35.25 39.9375 32.921875 41.546875 
Q 30.609375 43.171875 26.3125 43.171875 
Q 20.90625 43.171875 18.5625 41.65625 
Q 17 40.578125 17 38.875 
Q 17 37.40625 18.359375 36.375 
Q 20.21875 35.015625 31.171875 32.515625 
Q 42.140625 30.03125 46.484375 26.421875 
Q 50.78125 22.75 50.78125 16.21875 
Q 50.78125 9.078125 44.828125 3.953125 
Q 38.875 -1.171875 27.203125 -1.171875 
Q 16.609375 -1.171875 10.421875 3.125 
Q 4.25 7.421875 2.34375 14.796875 
z
" id="Arial-BoldMT-115"/>
       <path d="M 3.375 -21.046875 
Q 7.421875 -12.359375 9.078125 -7.71875 
Q 10.75 -3.078125 12.15625 2.96875 
Q 13.578125 9.03125 14.25 14.46875 
Q 14.9375 19.921875 14.9375 25.640625 
Q 14.9375 37.25 12.453125 47.625 
Q 9.96875 58.015625 3.265625 72.796875 
L 12.59375 72.796875 
Q 19.96875 62.3125 24.046875 50.53125 
Q 28.125 38.765625 28.125 26.65625 
Q 28.125 16.453125 24.90625 4.78125 
Q 21.234375 -8.296875 12.84375 -21.046875 
z
" id="Arial-BoldMT-41"/>
      </defs>
      <use xlink:href="#Arial-BoldMT-84"/>
      <use x="53.708984" xlink:href="#Arial-BoldMT-101"/>
      <use x="109.324219" xlink:href="#Arial-BoldMT-110"/>
      <use x="170.408203" xlink:href="#Arial-BoldMT-117"/>
      <use x="231.492188" xlink:href="#Arial-BoldMT-114"/>
      <use x="270.408203" xlink:href="#Arial-BoldMT-101"/>
      <use x="326.023438" xlink:href="#Arial-BoldMT-32"/>
      <use x="353.806641" xlink:href="#Arial-BoldMT-40"/>
      <use x="387.107422" xlink:href="#Arial-BoldMT-109"/>
      <use x="476.023438" xlink:href="#Arial-BoldMT-111"/>
      <use x="537.107422" xlink:href="#Arial-BoldMT-110"/>
      <use x="598.191406" xlink:href="#Arial-BoldMT-116"/>
      <use x="631.492188" xlink:href="#Arial-BoldMT-104"/>
      <use x="692.576172" xlink:href="#Arial-BoldMT-115"/>
      <use x="748.191406" xlink:href="#Arial-BoldMT-41"/>
     </g>
    </g>
   </g>
   <g id="matplotlib.axis_2">
    <g id="ytick_1">
     <g id="line2d_9">
      <path clip-path="url(#p03487d8d73)" d="M 63 272.405747 
L 453.6 272.405747 
" style="fill:none;stroke:#ffffff;stroke-linecap:round;"/>
     </g>
     <g id="text_10">
      <!-- 0.6 -->
      <g style="fill:#262626;" transform="translate(38.21 276.342544)scale(0.11 -0.11)">
       <defs>
        <path d="M 9.078125 0 
L 9.078125 10.015625 
L 19.09375 10.015625 
L 19.09375 0 
z
" id="ArialMT-46"/>
       </defs>
       <use xlink:href="#ArialMT-48"/>
       <use x="55.615234" xlink:href="#ArialMT-46"/>
       <use x="83.398438" xlink:href="#ArialMT-54"/>
      </g>
     </g>
    </g>
    <g id="ytick_2">
     <g id="line2d_10">
      <path clip-path="url(#p03487d8d73)" d="M 63 218.192947 
L 453.6 218.192947 
" style="fill:none;stroke:#ffffff;stroke-linecap:round;"/>
     </g>
     <g id="text_11">
      <!-- 0.7 -->
      <g style="fill:#262626;" transform="translate(38.21 222.129744)scale(0.11 -0.11)">
       <use xlink:href="#ArialMT-48"/>
       <use x="55.615234" xlink:href="#ArialMT-46"/>
       <use x="83.398438" xlink:href="#ArialMT-55"/>
      </g>
     </g>
    </g>
    <g id="ytick_3">
     <g id="line2d_11">
      <path clip-path="url(#p03487d8d73)" d="M 63 163.980146 
L 453.6 163.980146 
" style="fill:none;stroke:#ffffff;stroke-linecap:round;"/>
     </g>
     <g id="text_12">
      <!-- 0.8 -->
      <g style="fill:#262626;" transform="translate(38.21 167.916943)scale(0.11 -0.11)">
       <defs>
        <path d="M 17.671875 38.8125 
Q 12.203125 40.828125 9.5625 44.53125 
Q 6.9375 48.25 6.9375 53.421875 
Q 6.9375 61.234375 12.546875 66.546875 
Q 18.171875 71.875 27.484375 71.875 
Q 36.859375 71.875 42.578125 66.421875 
Q 48.296875 60.984375 48.296875 53.171875 
Q 48.296875 48.1875 45.671875 44.5 
Q 43.0625 40.828125 37.75 38.8125 
Q 44.34375 36.671875 47.78125 31.875 
Q 51.21875 27.09375 51.21875 20.453125 
Q 51.21875 11.28125 44.71875 5.03125 
Q 38.234375 -1.21875 27.640625 -1.21875 
Q 17.046875 -1.21875 10.546875 5.046875 
Q 4.046875 11.328125 4.046875 20.703125 
Q 4.046875 27.6875 7.59375 32.390625 
Q 11.140625 37.109375 17.671875 38.8125 
z
M 15.921875 53.71875 
Q 15.921875 48.640625 19.1875 45.40625 
Q 22.46875 42.1875 27.6875 42.1875 
Q 32.765625 42.1875 36.015625 45.375 
Q 39.265625 48.578125 39.265625 53.21875 
Q 39.265625 58.0625 35.90625 61.359375 
Q 32.5625 64.65625 27.59375 64.65625 
Q 22.5625 64.65625 19.234375 61.421875 
Q 15.921875 58.203125 15.921875 53.71875 
z
M 13.09375 20.65625 
Q 13.09375 16.890625 14.875 13.375 
Q 16.65625 9.859375 20.171875 7.921875 
Q 23.6875 6 27.734375 6 
Q 34.03125 6 38.125 10.046875 
Q 42.234375 14.109375 42.234375 20.359375 
Q 42.234375 26.703125 38.015625 30.859375 
Q 33.796875 35.015625 27.4375 35.015625 
Q 21.234375 35.015625 17.15625 30.90625 
Q 13.09375 26.8125 13.09375 20.65625 
z
" id="ArialMT-56"/>
       </defs>
       <use xlink:href="#ArialMT-48"/>
       <use x="55.615234" xlink:href="#ArialMT-46"/>
       <use x="83.398438" xlink:href="#ArialMT-56"/>
      </g>
     </g>
    </g>
    <g id="ytick_4">
     <g id="line2d_12">
      <path clip-path="url(#p03487d8d73)" d="M 63 109.767346 
L 453.6 109.767346 
" style="fill:none;stroke:#ffffff;stroke-linecap:round;"/>
     </g>
     <g id="text_13">
      <!-- 0.9 -->
      <g style="fill:#262626;" transform="translate(38.21 113.704143)scale(0.11 -0.11)">
       <defs>
        <path d="M 5.46875 16.546875 
L 13.921875 17.328125 
Q 14.984375 11.375 18.015625 8.6875 
Q 21.046875 6 25.78125 6 
Q 29.828125 6 32.875 7.859375 
Q 35.9375 9.71875 37.890625 12.8125 
Q 39.84375 15.921875 41.15625 21.1875 
Q 42.484375 26.46875 42.484375 31.9375 
Q 42.484375 32.515625 42.4375 33.6875 
Q 39.796875 29.5 35.234375 26.875 
Q 30.671875 24.265625 25.34375 24.265625 
Q 16.453125 24.265625 10.296875 30.703125 
Q 4.15625 37.15625 4.15625 47.703125 
Q 4.15625 58.59375 10.578125 65.234375 
Q 17 71.875 26.65625 71.875 
Q 33.640625 71.875 39.421875 68.109375 
Q 45.21875 64.359375 48.21875 57.390625 
Q 51.21875 50.4375 51.21875 37.25 
Q 51.21875 23.53125 48.234375 15.40625 
Q 45.265625 7.28125 39.375 3.03125 
Q 33.5 -1.21875 25.59375 -1.21875 
Q 17.1875 -1.21875 11.859375 3.4375 
Q 6.546875 8.109375 5.46875 16.546875 
z
M 41.453125 48.140625 
Q 41.453125 55.71875 37.421875 60.15625 
Q 33.40625 64.59375 27.734375 64.59375 
Q 21.875 64.59375 17.53125 59.8125 
Q 13.1875 55.03125 13.1875 47.40625 
Q 13.1875 40.578125 17.3125 36.296875 
Q 21.4375 32.03125 27.484375 32.03125 
Q 33.59375 32.03125 37.515625 36.296875 
Q 41.453125 40.578125 41.453125 48.140625 
z
" id="ArialMT-57"/>
       </defs>
       <use xlink:href="#ArialMT-48"/>
       <use x="55.615234" xlink:href="#ArialMT-46"/>
       <use x="83.398438" xlink:href="#ArialMT-57"/>
      </g>
     </g>
    </g>
    <g id="ytick_5">
     <g id="line2d_13">
      <path clip-path="url(#p03487d8d73)" d="M 63 55.554545 
L 453.6 55.554545 
" style="fill:none;stroke:#ffffff;stroke-linecap:round;"/>
     </g>
     <g id="text_14">
      <!-- 1.0 -->
      <g style="fill:#262626;" transform="translate(38.21 59.491342)scale(0.11 -0.11)">
       <use xlink:href="#ArialMT-49"/>
       <use x="55.615234" xlink:href="#ArialMT-46"/>
       <use x="83.398438" xlink:href="#ArialMT-48"/>
      </g>
     </g>
    </g>
    <g id="text_15">
     <!-- Survival probability -->
     <g style="fill:#262626;" transform="translate(25.684375 234.778125)rotate(-90)scale(0.12 -0.12)">
      <defs>
       <path d="M 3.609375 23.296875 
L 17.671875 24.65625 
Q 18.953125 17.578125 22.828125 14.25 
Q 26.703125 10.9375 33.296875 10.9375 
Q 40.28125 10.9375 43.8125 13.890625 
Q 47.359375 16.84375 47.359375 20.796875 
Q 47.359375 23.34375 45.875 25.125 
Q 44.390625 26.90625 40.671875 28.21875 
Q 38.140625 29.109375 29.109375 31.34375 
Q 17.484375 34.234375 12.796875 38.421875 
Q 6.203125 44.34375 6.203125 52.828125 
Q 6.203125 58.296875 9.296875 63.0625 
Q 12.40625 67.828125 18.234375 70.3125 
Q 24.078125 72.796875 32.328125 72.796875 
Q 45.796875 72.796875 52.609375 66.890625 
Q 59.421875 60.984375 59.765625 51.125 
L 45.3125 50.484375 
Q 44.390625 56 41.328125 58.421875 
Q 38.28125 60.84375 32.171875 60.84375 
Q 25.875 60.84375 22.3125 58.25 
Q 20.015625 56.59375 20.015625 53.8125 
Q 20.015625 51.265625 22.171875 49.46875 
Q 24.90625 47.171875 35.453125 44.671875 
Q 46 42.1875 51.046875 39.515625 
Q 56.109375 36.859375 58.953125 32.25 
Q 61.8125 27.640625 61.8125 20.84375 
Q 61.8125 14.703125 58.390625 9.328125 
Q 54.984375 3.953125 48.734375 1.34375 
Q 42.484375 -1.265625 33.15625 -1.265625 
Q 19.578125 -1.265625 12.296875 5 
Q 5.03125 11.28125 3.609375 23.296875 
z
" id="Arial-BoldMT-83"/>
       <path d="M 21.4375 0 
L 0.53125 51.859375 
L 14.9375 51.859375 
L 24.703125 25.390625 
L 27.546875 16.546875 
Q 28.65625 19.921875 28.953125 21 
Q 29.640625 23.1875 30.421875 25.390625 
L 40.28125 51.859375 
L 54.390625 51.859375 
L 33.796875 0 
z
" id="Arial-BoldMT-118"/>
       <path d="M 7.171875 58.890625 
L 7.171875 71.578125 
L 20.90625 71.578125 
L 20.90625 58.890625 
z
M 7.171875 0 
L 7.171875 51.859375 
L 20.90625 51.859375 
L 20.90625 0 
z
" id="Arial-BoldMT-105"/>
       <path d="M 17.4375 36.03125 
L 4.984375 38.28125 
Q 7.078125 45.796875 12.203125 49.40625 
Q 17.328125 53.03125 27.4375 53.03125 
Q 36.625 53.03125 41.109375 50.859375 
Q 45.609375 48.6875 47.4375 45.34375 
Q 49.265625 42 49.265625 33.0625 
L 49.125 17.046875 
Q 49.125 10.203125 49.78125 6.953125 
Q 50.4375 3.71875 52.25 0 
L 38.671875 0 
Q 38.140625 1.375 37.359375 4.046875 
Q 37.015625 5.28125 36.859375 5.671875 
Q 33.34375 2.25 29.34375 0.53125 
Q 25.34375 -1.171875 20.796875 -1.171875 
Q 12.796875 -1.171875 8.171875 3.171875 
Q 3.5625 7.515625 3.5625 14.15625 
Q 3.5625 18.5625 5.65625 22 
Q 7.765625 25.4375 11.546875 27.265625 
Q 15.328125 29.109375 22.46875 30.46875 
Q 32.078125 32.28125 35.796875 33.84375 
L 35.796875 35.203125 
Q 35.796875 39.15625 33.84375 40.84375 
Q 31.890625 42.53125 26.46875 42.53125 
Q 22.796875 42.53125 20.75 41.09375 
Q 18.703125 39.65625 17.4375 36.03125 
z
M 35.796875 24.90625 
Q 33.15625 24.03125 27.4375 22.796875 
Q 21.734375 21.578125 19.96875 20.40625 
Q 17.28125 18.5 17.28125 15.578125 
Q 17.28125 12.703125 19.421875 10.59375 
Q 21.578125 8.5 24.90625 8.5 
Q 28.609375 8.5 31.984375 10.9375 
Q 34.46875 12.796875 35.25 15.484375 
Q 35.796875 17.234375 35.796875 22.171875 
z
" id="Arial-BoldMT-97"/>
       <path d="M 7.171875 0 
L 7.171875 71.578125 
L 20.90625 71.578125 
L 20.90625 0 
z
" id="Arial-BoldMT-108"/>
       <path d="M 6.78125 51.859375 
L 19.578125 51.859375 
L 19.578125 44.234375 
Q 22.078125 48.140625 26.3125 50.578125 
Q 30.5625 53.03125 35.75 53.03125 
Q 44.78125 53.03125 51.078125 45.953125 
Q 57.375 38.875 57.375 26.21875 
Q 57.375 13.234375 51.015625 6.03125 
Q 44.671875 -1.171875 35.640625 -1.171875 
Q 31.34375 -1.171875 27.84375 0.53125 
Q 24.359375 2.25 20.515625 6.390625 
L 20.515625 -19.734375 
L 6.78125 -19.734375 
z
M 20.359375 26.8125 
Q 20.359375 18.0625 23.828125 13.890625 
Q 27.296875 9.71875 32.28125 9.71875 
Q 37.0625 9.71875 40.234375 13.546875 
Q 43.40625 17.390625 43.40625 26.125 
Q 43.40625 34.28125 40.125 38.234375 
Q 36.859375 42.1875 32.03125 42.1875 
Q 27 42.1875 23.671875 38.296875 
Q 20.359375 34.421875 20.359375 26.8125 
z
" id="Arial-BoldMT-112"/>
       <path d="M 6.59375 0 
L 6.59375 71.578125 
L 20.3125 71.578125 
L 20.3125 45.796875 
Q 26.65625 53.03125 35.359375 53.03125 
Q 44.828125 53.03125 51.03125 46.171875 
Q 57.234375 39.3125 57.234375 26.46875 
Q 57.234375 13.1875 50.90625 6 
Q 44.578125 -1.171875 35.546875 -1.171875 
Q 31.109375 -1.171875 26.78125 1.046875 
Q 22.46875 3.265625 19.34375 7.625 
L 19.34375 0 
z
M 20.21875 27.046875 
Q 20.21875 19 22.75 15.140625 
Q 26.3125 9.671875 32.234375 9.671875 
Q 36.765625 9.671875 39.96875 13.546875 
Q 43.171875 17.4375 43.171875 25.78125 
Q 43.171875 34.671875 39.9375 38.59375 
Q 36.71875 42.53125 31.6875 42.53125 
Q 26.765625 42.53125 23.484375 38.6875 
Q 20.21875 34.859375 20.21875 27.046875 
z
" id="Arial-BoldMT-98"/>
       <path d="M 0.6875 51.859375 
L 15.28125 51.859375 
L 27.6875 15.046875 
L 39.796875 51.859375 
L 54 51.859375 
L 35.6875 1.953125 
L 32.421875 -7.078125 
Q 30.609375 -11.625 28.96875 -14.015625 
Q 27.34375 -16.40625 25.21875 -17.890625 
Q 23.09375 -19.390625 19.984375 -20.21875 
Q 16.890625 -21.046875 12.984375 -21.046875 
Q 9.03125 -21.046875 5.21875 -20.21875 
L 4 -9.46875 
Q 7.234375 -10.109375 9.8125 -10.109375 
Q 14.59375 -10.109375 16.890625 -7.296875 
Q 19.1875 -4.5 20.40625 -0.140625 
z
" id="Arial-BoldMT-121"/>
      </defs>
      <use xlink:href="#Arial-BoldMT-83"/>
      <use x="66.699219" xlink:href="#Arial-BoldMT-117"/>
      <use x="127.783203" xlink:href="#Arial-BoldMT-114"/>
      <use x="166.699219" xlink:href="#Arial-BoldMT-118"/>
      <use x="222.314453" xlink:href="#Arial-BoldMT-105"/>
      <use x="250.097656" xlink:href="#Arial-BoldMT-118"/>
      <use x="305.712891" xlink:href="#Arial-BoldMT-97"/>
      <use x="361.328125" xlink:href="#Arial-BoldMT-108"/>
      <use x="389.111328" xlink:href="#Arial-BoldMT-32"/>
      <use x="416.894531" xlink:href="#Arial-BoldMT-112"/>
      <use x="477.978516" xlink:href="#Arial-BoldMT-114"/>
      <use x="516.894531" xlink:href="#Arial-BoldMT-111"/>
      <use x="577.978516" xlink:href="#Arial-BoldMT-98"/>
      <use x="639.0625" xlink:href="#Arial-BoldMT-97"/>
      <use x="694.677734" xlink:href="#Arial-BoldMT-98"/>
      <use x="755.761719" xlink:href="#Arial-BoldMT-105"/>
      <use x="783.544922" xlink:href="#Arial-BoldMT-108"/>
      <use x="811.328125" xlink:href="#Arial-BoldMT-105"/>
      <use x="839.111328" xlink:href="#Arial-BoldMT-116"/>
      <use x="872.412109" xlink:href="#Arial-BoldMT-121"/>
     </g>
    </g>
   </g>
   <g id="PolyCollection_1">
    <defs>
     <path d="M 80.754545 -304.445455 
L 80.754545 -304.445455 
L 85.686364 -304.445455 
L 85.686364 -262.343278 
L 90.618182 -262.343278 
L 90.618182 -249.371567 
L 95.55 -249.371567 
L 95.55 -235.593818 
L 100.481818 -235.593818 
L 100.481818 -229.075889 
L 105.413636 -229.075889 
L 105.413636 -222.442928 
L 110.345455 -222.442928 
L 110.345455 -220.532016 
L 115.277273 -220.532016 
L 115.277273 -218.596166 
L 120.209091 -218.596166 
L 120.209091 -215.616605 
L 125.140909 -215.616605 
L 125.140909 -208.604456 
L 130.072727 -208.604456 
L 130.072727 -204.571793 
L 135.004545 -204.571793 
L 135.004545 -203.547045 
L 139.936364 -203.547045 
L 139.936364 -201.461397 
L 144.868182 -201.461397 
L 144.868182 -195.059854 
L 149.8 -195.059854 
L 149.8 -192.885472 
L 154.731818 -192.885472 
L 154.731818 -191.788676 
L 159.663636 -191.788676 
L 159.663636 -189.575479 
L 164.595455 -189.575479 
L 164.595455 -189.575479 
L 169.527273 -189.575479 
L 169.527273 -185.044155 
L 174.459091 -185.044155 
L 174.459091 -182.748006 
L 179.390909 -182.748006 
L 179.390909 -181.582466 
L 184.322727 -181.582466 
L 184.322727 -179.235204 
L 189.254545 -179.235204 
L 189.254545 -176.852285 
L 194.186364 -176.852285 
L 194.186364 -176.852285 
L 199.118182 -176.852285 
L 199.118182 -173.170661 
L 204.05 -173.170661 
L 204.05 -170.677996 
L 208.981818 -170.677996 
L 208.981818 -170.677996 
L 213.913636 -170.677996 
L 213.913636 -168.055 
L 218.845455 -168.055 
L 218.845455 -168.055 
L 223.777273 -168.055 
L 223.777273 -165.368981 
L 228.709091 -165.368981 
L 228.709091 -162.588107 
L 233.640909 -162.588107 
L 233.640909 -161.190671 
L 238.572727 -161.190671 
L 238.572727 -161.190671 
L 243.504545 -161.190671 
L 243.504545 -161.190671 
L 248.436364 -161.190671 
L 248.436364 -161.190671 
L 253.368182 -161.190671 
L 253.368182 -161.190671 
L 258.3 -161.190671 
L 258.3 -161.190671 
L 263.231818 -161.190671 
L 263.231818 -158.027633 
L 268.163636 -158.027633 
L 268.163636 -158.027633 
L 273.095455 -158.027633 
L 273.095455 -151.528683 
L 278.027273 -151.528683 
L 278.027273 -146.497205 
L 282.959091 -146.497205 
L 282.959091 -146.497205 
L 287.890909 -146.497205 
L 287.890909 -144.74268 
L 292.822727 -144.74268 
L 292.822727 -141.162578 
L 297.754545 -141.162578 
L 297.754545 -137.458381 
L 302.686364 -137.458381 
L 302.686364 -137.458381 
L 307.618182 -137.458381 
L 307.618182 -133.600544 
L 312.55 -133.600544 
L 312.55 -133.600544 
L 317.481818 -133.600544 
L 317.481818 -129.50887 
L 322.413636 -129.50887 
L 322.413636 -127.401148 
L 327.345455 -127.401148 
L 327.345455 -127.401148 
L 332.277273 -127.401148 
L 332.277273 -125.145283 
L 337.209091 -125.145283 
L 337.209091 -122.780784 
L 342.140909 -122.780784 
L 342.140909 -117.718582 
L 347.072727 -117.718582 
L 347.072727 -117.718582 
L 352.004545 -117.718582 
L 352.004545 -114.993406 
L 356.936364 -114.993406 
L 356.936364 -114.993406 
L 361.868182 -114.993406 
L 361.868182 -109.277162 
L 366.8 -109.277162 
L 366.8 -106.269807 
L 371.731818 -106.269807 
L 371.731818 -103.144354 
L 376.663636 -103.144354 
L 376.663636 -99.890318 
L 381.595455 -99.890318 
L 381.595455 -99.890318 
L 386.527273 -99.890318 
L 386.527273 -99.890318 
L 391.459091 -99.890318 
L 391.459091 -99.890318 
L 396.390909 -99.890318 
L 396.390909 -95.683923 
L 401.322727 -95.683923 
L 401.322727 -95.683923 
L 406.254545 -95.683923 
L 406.254545 -95.683923 
L 411.186364 -95.683923 
L 411.186364 -95.683923 
L 416.118182 -95.683923 
L 416.118182 -95.683923 
L 421.05 -95.683923 
L 421.05 -95.683923 
L 425.981818 -95.683923 
L 425.981818 -86.82551 
L 430.913636 -86.82551 
L 430.913636 -74.687768 
L 435.845455 -74.687768 
L 435.845455 -57.354545 
L 435.845455 -132.243761 
L 435.845455 -132.243761 
L 435.845455 -138.147573 
L 430.913636 -138.147573 
L 430.913636 -143.034814 
L 425.981818 -143.034814 
L 425.981818 -147.162823 
L 421.05 -147.162823 
L 421.05 -147.162823 
L 416.118182 -147.162823 
L 416.118182 -147.162823 
L 411.186364 -147.162823 
L 411.186364 -147.162823 
L 406.254545 -147.162823 
L 406.254545 -147.162823 
L 401.322727 -147.162823 
L 401.322727 -147.162823 
L 396.390909 -147.162823 
L 396.390909 -150.014987 
L 391.459091 -150.014987 
L 391.459091 -150.014987 
L 386.527273 -150.014987 
L 386.527273 -150.014987 
L 381.595455 -150.014987 
L 381.595455 -150.014987 
L 376.663636 -150.014987 
L 376.663636 -152.427285 
L 371.731818 -152.427285 
L 371.731818 -154.757774 
L 366.8 -154.757774 
L 366.8 -157.012388 
L 361.868182 -157.012388 
L 361.868182 -161.324882 
L 356.936364 -161.324882 
L 356.936364 -161.324882 
L 352.004545 -161.324882 
L 352.004545 -163.391688 
L 347.072727 -163.391688 
L 347.072727 -163.391688 
L 342.140909 -163.391688 
L 342.140909 -167.287957 
L 337.209091 -167.287957 
L 337.209091 -169.13124 
L 332.277273 -169.13124 
L 332.277273 -170.906168 
L 327.345455 -170.906168 
L 327.345455 -170.906168 
L 322.413636 -170.906168 
L 322.413636 -172.590345 
L 317.481818 -172.590345 
L 317.481818 -175.867578 
L 312.55 -175.867578 
L 312.55 -175.867578 
L 307.618182 -175.867578 
L 307.618182 -178.984703 
L 302.686364 -178.984703 
L 302.686364 -178.984703 
L 297.754545 -178.984703 
L 297.754545 -181.98967 
L 292.822727 -181.98967 
L 292.822727 -184.901017 
L 287.890909 -184.901017 
L 287.890909 -186.328407 
L 282.959091 -186.328407 
L 282.959091 -186.328407 
L 278.027273 -186.328407 
L 278.027273 -190.445291 
L 273.095455 -190.445291 
L 273.095455 -195.751684 
L 268.163636 -195.751684 
L 268.163636 -195.751684 
L 263.231818 -195.751684 
L 263.231818 -198.329476 
L 258.3 -198.329476 
L 258.3 -198.329476 
L 253.368182 -198.329476 
L 253.368182 -198.329476 
L 248.436364 -198.329476 
L 248.436364 -198.329476 
L 243.504545 -198.329476 
L 243.504545 -198.329476 
L 238.572727 -198.329476 
L 238.572727 -198.329476 
L 233.640909 -198.329476 
L 233.640909 -199.498827 
L 228.709091 -199.498827 
L 228.709091 -201.820942 
L 223.777273 -201.820942 
L 223.777273 -204.072447 
L 218.845455 -204.072447 
L 218.845455 -204.072447 
L 213.913636 -204.072447 
L 213.913636 -206.274163 
L 208.981818 -206.274163 
L 208.981818 -206.274163 
L 204.05 -206.274163 
L 204.05 -208.382577 
L 199.118182 -208.382577 
L 199.118182 -211.493305 
L 194.186364 -211.493305 
L 194.186364 -211.493305 
L 189.254545 -211.493305 
L 189.254545 -213.510881 
L 184.322727 -213.510881 
L 184.322727 -215.497981 
L 179.390909 -215.497981 
L 179.390909 -216.483638 
L 174.459091 -216.483638 
L 174.459091 -218.426871 
L 169.527273 -218.426871 
L 169.527273 -222.253576 
L 164.595455 -222.253576 
L 164.595455 -222.253576 
L 159.663636 -222.253576 
L 159.663636 -224.122679 
L 154.731818 -224.122679 
L 154.731818 -225.048433 
L 149.8 -225.048433 
L 149.8 -226.882685 
L 144.868182 -226.882685 
L 144.868182 -232.26943 
L 139.936364 -232.26943 
L 139.936364 -234.021441 
L 135.004545 -234.021441 
L 135.004545 -234.883383 
L 130.072727 -234.883383 
L 130.072727 -238.273718 
L 125.140909 -238.273718 
L 125.140909 -244.124055 
L 120.209091 -244.124055 
L 120.209091 -246.59313 
L 115.277273 -246.59313 
L 115.277273 -248.199322 
L 110.345455 -248.199322 
L 110.345455 -249.783836 
L 105.413636 -249.783836 
L 105.413636 -255.250177 
L 100.481818 -255.250177 
L 100.481818 -260.57244 
L 95.55 -260.57244 
L 95.55 -271.597295 
L 90.618182 -271.597295 
L 90.618182 -281.549321 
L 85.686364 -281.549321 
L 85.686364 -304.445455 
L 80.754545 -304.445455 
z
" id="mf1c356478a" style="stroke:#4c72b0;stroke-opacity:0.25;"/>
    </defs>
    <g clip-path="url(#p03487d8d73)">
     <use style="fill:#4c72b0;fill-opacity:0.25;stroke:#4c72b0;stroke-opacity:0.25;" x="0" xlink:href="#mf1c356478a" y="360"/>
    </g>
   </g>
   <g id="PolyCollection_2">
    <defs>
     <path d="M 80.754545 -304.445455 
L 80.754545 -304.445455 
L 85.686364 -304.445455 
L 85.686364 -272.181477 
L 90.618182 -272.181477 
L 90.618182 -262.092772 
L 95.55 -262.092772 
L 95.55 -254.675484 
L 100.481818 -254.675484 
L 100.481818 -247.44032 
L 105.413636 -247.44032 
L 105.413636 -241.942853 
L 110.345455 -241.942853 
L 110.345455 -238.23807 
L 115.277273 -238.23807 
L 115.277273 -233.40647 
L 120.209091 -233.40647 
L 120.209091 -229.512472 
L 125.140909 -229.512472 
L 125.140909 -225.560455 
L 130.072727 -225.560455 
L 130.072727 -221.348781 
L 135.004545 -221.348781 
L 135.004545 -218.226674 
L 139.936364 -218.226674 
L 139.936364 -214.432189 
L 144.868182 -214.432189 
L 144.868182 -211.008707 
L 149.8 -211.008707 
L 149.8 -208.62179 
L 154.731818 -208.62179 
L 154.731818 -204.673423 
L 159.663636 -204.673423 
L 159.663636 -201.783009 
L 164.595455 -201.783009 
L 164.595455 -198.85867 
L 169.527273 -198.85867 
L 169.527273 -196.579059 
L 174.459091 -196.579059 
L 174.459091 -194.607844 
L 179.390909 -194.607844 
L 179.390909 -192.612 
L 184.322727 -192.612 
L 184.322727 -190.827524 
L 189.254545 -190.827524 
L 189.254545 -187.821955 
L 194.186364 -187.821955 
L 194.186364 -186.234009 
L 199.118182 -186.234009 
L 199.118182 -183.745042 
L 204.05 -183.745042 
L 204.05 -181.082373 
L 208.981818 -181.082373 
L 208.981818 -179.152453 
L 213.913636 -179.152453 
L 213.913636 -177.714313 
L 218.845455 -177.714313 
L 218.845455 -176.116945 
L 223.777273 -176.116945 
L 223.777273 -174.36588 
L 228.709091 -174.36588 
L 228.709091 -172.452329 
L 233.640909 -172.452329 
L 233.640909 -170.365727 
L 238.572727 -170.365727 
L 238.572727 -167.684296 
L 243.504545 -167.684296 
L 243.504545 -165.677708 
L 248.436364 -165.677708 
L 248.436364 -163.93141 
L 253.368182 -163.93141 
L 253.368182 -161.712012 
L 258.3 -161.712012 
L 258.3 -160.196183 
L 263.231818 -160.196183 
L 263.231818 -158.200802 
L 268.163636 -158.200802 
L 268.163636 -156.172035 
L 273.095455 -156.172035 
L 273.095455 -154.58464 
L 278.027273 -154.58464 
L 278.027273 -152.976556 
L 282.959091 -152.976556 
L 282.959091 -150.684156 
L 287.890909 -150.684156 
L 287.890909 -148.510271 
L 292.822727 -148.510271 
L 292.822727 -146.293778 
L 297.754545 -146.293778 
L 297.754545 -145.599152 
L 302.686364 -145.599152 
L 302.686364 -144.538303 
L 307.618182 -144.538303 
L 307.618182 -142.728415 
L 312.55 -142.728415 
L 312.55 -140.129796 
L 317.481818 -140.129796 
L 317.481818 -138.798717 
L 322.413636 -138.798717 
L 322.413636 -136.071068 
L 327.345455 -136.071068 
L 327.345455 -134.077716 
L 332.277273 -134.077716 
L 332.277273 -132.643316 
L 337.209091 -132.643316 
L 337.209091 -131.167308 
L 342.140909 -131.167308 
L 342.140909 -128.547882 
L 347.072727 -128.547882 
L 347.072727 -125.622894 
L 352.004545 -125.622894 
L 352.004545 -123.769707 
L 356.936364 -123.769707 
L 356.936364 -121.374132 
L 361.868182 -121.374132 
L 361.868182 -119.873086 
L 366.8 -119.873086 
L 366.8 -117.283361 
L 371.731818 -117.283361 
L 371.731818 -115.40272 
L 376.663636 -115.40272 
L 376.663636 -114.010868 
L 381.595455 -114.010868 
L 381.595455 -111.675536 
L 386.527273 -111.675536 
L 386.527273 -110.138159 
L 391.459091 -110.138159 
L 391.459091 -108.840739 
L 396.390909 -108.840739 
L 396.390909 -107.806718 
L 401.322727 -107.806718 
L 401.322727 -104.471108 
L 406.254545 -104.471108 
L 406.254545 -99.313112 
L 411.186364 -99.313112 
L 411.186364 -95.024227 
L 416.118182 -95.024227 
L 416.118182 -90.745972 
L 421.05 -90.745972 
L 421.05 -86.467559 
L 425.981818 -86.467559 
L 425.981818 -80.384941 
L 430.913636 -80.384941 
L 430.913636 -76.701752 
L 435.845455 -76.701752 
L 435.845455 -71.075046 
L 435.845455 -93.070758 
L 435.845455 -93.070758 
L 435.845455 -97.285861 
L 430.913636 -97.285861 
L 430.913636 -100.324088 
L 425.981818 -100.324088 
L 425.981818 -105.493349 
L 421.05 -105.493349 
L 421.05 -109.182312 
L 416.118182 -109.182312 
L 416.118182 -112.921393 
L 411.186364 -112.921393 
L 411.186364 -116.708906 
L 406.254545 -116.708906 
L 406.254545 -121.288582 
L 401.322727 -121.288582 
L 401.322727 -124.263245 
L 396.390909 -124.263245 
L 396.390909 -125.192483 
L 391.459091 -125.192483 
L 391.459091 -126.366687 
L 386.527273 -126.366687 
L 386.527273 -127.765795 
L 381.595455 -127.765795 
L 381.595455 -129.900998 
L 376.663636 -129.900998 
L 376.663636 -131.178727 
L 371.731818 -131.178727 
L 371.731818 -132.909908 
L 366.8 -132.909908 
L 366.8 -135.299327 
L 361.868182 -135.299327 
L 361.868182 -136.687297 
L 356.936364 -136.687297 
L 356.936364 -138.909586 
L 352.004545 -138.909586 
L 352.004545 -140.632091 
L 347.072727 -140.632091 
L 347.072727 -143.354254 
L 342.140909 -143.354254 
L 342.140909 -145.794667 
L 337.209091 -145.794667 
L 337.209091 -147.172623 
L 332.277273 -147.172623 
L 332.277273 -148.514211 
L 327.345455 -148.514211 
L 327.345455 -150.381478 
L 322.413636 -150.381478 
L 322.413636 -152.93821 
L 317.481818 -152.93821 
L 317.481818 -154.187109 
L 312.55 -154.187109 
L 312.55 -156.627765 
L 307.618182 -156.627765 
L 307.618182 -158.329247 
L 302.686364 -158.329247 
L 302.686364 -159.327805 
L 297.754545 -159.327805 
L 297.754545 -159.98236 
L 292.822727 -159.98236 
L 292.822727 -162.072618 
L 287.890909 -162.072618 
L 287.890909 -164.123567 
L 282.959091 -164.123567 
L 282.959091 -166.287503 
L 278.027273 -166.287503 
L 278.027273 -167.806147 
L 273.095455 -167.806147 
L 273.095455 -169.305556 
L 268.163636 -169.305556 
L 268.163636 -171.222701 
L 263.231818 -171.222701 
L 263.231818 -173.108816 
L 258.3 -173.108816 
L 258.3 -174.541741 
L 253.368182 -174.541741 
L 253.368182 -176.641833 
L 248.436364 -176.641833 
L 248.436364 -178.294734 
L 243.504545 -178.294734 
L 243.504545 -180.194442 
L 238.572727 -180.194442 
L 238.572727 -182.733037 
L 233.640909 -182.733037 
L 233.640909 -184.708252 
L 228.709091 -184.708252 
L 228.709091 -186.52027 
L 223.777273 -186.52027 
L 223.777273 -188.178739 
L 218.845455 -188.178739 
L 218.845455 -189.691709 
L 213.913636 -189.691709 
L 213.913636 -191.054708 
L 208.981818 -191.054708 
L 208.981818 -192.884477 
L 204.05 -192.884477 
L 204.05 -195.408821 
L 199.118182 -195.408821 
L 199.118182 -197.768729 
L 194.186364 -197.768729 
L 194.186364 -199.274899 
L 189.254545 -199.274899 
L 189.254545 -202.125771 
L 184.322727 -202.125771 
L 184.322727 -203.81765 
L 179.390909 -203.81765 
L 179.390909 -205.709963 
L 174.459091 -205.709963 
L 174.459091 -207.578743 
L 169.527273 -207.578743 
L 169.527273 -209.740287 
L 164.595455 -209.740287 
L 164.595455 -212.512152 
L 159.663636 -212.512152 
L 159.663636 -215.250024 
L 154.731818 -215.250024 
L 154.731818 -218.986879 
L 149.8 -218.986879 
L 149.8 -221.243796 
L 144.868182 -221.243796 
L 144.868182 -224.478918 
L 139.936364 -224.478918 
L 139.936364 -228.061156 
L 135.004545 -228.061156 
L 135.004545 -231.005372 
L 130.072727 -231.005372 
L 130.072727 -234.972002 
L 125.140909 -234.972002 
L 125.140909 -238.688176 
L 120.209091 -238.688176 
L 120.209091 -242.344293 
L 115.277273 -242.344293 
L 115.277273 -246.871067 
L 110.345455 -246.871067 
L 110.345455 -250.333976 
L 105.413636 -250.333976 
L 105.413636 -255.457581 
L 100.481818 -255.457581 
L 100.481818 -262.168649 
L 95.55 -262.168649 
L 95.55 -269.002926 
L 90.618182 -269.002926 
L 90.618182 -278.200797 
L 85.686364 -278.200797 
L 85.686364 -304.445455 
L 80.754545 -304.445455 
z
" id="ma6b6f42d93" style="stroke:#dd8452;stroke-opacity:0.25;"/>
    </defs>
    <g clip-path="url(#p03487d8d73)">
     <use style="fill:#dd8452;fill-opacity:0.25;stroke:#dd8452;stroke-opacity:0.25;" x="0" xlink:href="#ma6b6f42d93" y="360"/>
    </g>
   </g>
   <g id="line2d_14">
    <path clip-path="url(#p03487d8d73)" d="M 80.754545 55.554545 
L 85.686364 55.554545 
L 85.686364 86.647181 
L 90.618182 86.647181 
L 90.618182 98.149585 
L 95.55 98.149585 
L 95.55 110.59642 
L 100.481818 110.59642 
L 100.481818 116.536494 
L 105.413636 116.536494 
L 105.413636 122.605003 
L 110.345455 122.605003 
L 110.345455 124.358057 
L 115.277273 124.358057 
L 115.277273 126.134134 
L 120.209091 126.134134 
L 120.209091 128.865109 
L 125.140909 128.865109 
L 125.140909 135.3125 
L 130.072727 135.3125 
L 130.072727 139.033788 
L 135.004545 139.033788 
L 135.004545 139.979456 
L 139.936364 139.979456 
L 139.936364 141.902578 
L 144.868182 141.902578 
L 144.868182 147.809014 
L 149.8 147.809014 
L 149.8 149.817378 
L 154.731818 149.817378 
L 154.731818 150.830648 
L 159.663636 150.830648 
L 159.663636 152.875736 
L 169.527273 152.875736 
L 169.527273 157.062154 
L 174.459091 157.062154 
L 174.459091 159.185625 
L 179.390909 159.185625 
L 179.390909 160.263013 
L 184.322727 160.263013 
L 184.322727 162.43383 
L 189.254545 162.43383 
L 189.254545 164.637621 
L 199.118182 164.637621 
L 199.118182 168.038497 
L 204.05 168.038497 
L 204.05 170.342219 
L 213.913636 170.342219 
L 213.913636 172.756571 
L 223.777273 172.756571 
L 223.777273 175.227071 
L 228.709091 175.227071 
L 228.709091 177.779672 
L 233.640909 177.779672 
L 233.640909 179.063779 
L 263.231818 179.063779 
L 263.231818 181.93103 
L 273.095455 181.93103 
L 273.095455 187.828215 
L 278.027273 187.828215 
L 278.027273 192.399081 
L 287.890909 192.399081 
L 287.890909 193.988428 
L 292.822727 193.988428 
L 292.822727 197.230951 
L 297.754545 197.230951 
L 297.754545 200.582011 
L 307.618182 200.582011 
L 307.618182 204.065349 
L 317.481818 204.065349 
L 317.481818 207.744014 
L 322.413636 207.744014 
L 322.413636 209.63692 
L 332.277273 209.63692 
L 332.277273 211.647519 
L 337.209091 211.647519 
L 337.209091 213.745535 
L 342.140909 213.745535 
L 342.140909 218.209919 
L 352.004545 218.209919 
L 352.004545 220.59654 
L 361.868182 220.59654 
L 361.868182 225.591056 
L 366.8 225.591056 
L 366.8 228.211419 
L 371.731818 228.211419 
L 371.731818 230.928118 
L 376.663636 230.928118 
L 376.663636 233.749306 
L 396.390909 233.749306 
L 396.390909 237.248664 
L 425.981818 237.248664 
L 425.981818 243.572066 
L 430.913636 243.572066 
L 430.913636 251.807193 
L 435.845455 251.807193 
L 435.845455 262.964463 
L 435.845455 262.964463 
" style="fill:none;stroke:#4c72b0;stroke-linecap:round;stroke-width:1.5;"/>
   </g>
   <g id="line2d_15">
    <path clip-path="url(#p03487d8d73)" d="M 80.754545 55.554545 
L 85.686364 55.554545 
L 85.686364 84.65808 
L 90.618182 84.65808 
L 90.618182 94.304391 
L 95.55 94.304391 
L 95.55 101.432349 
L 100.481818 101.432349 
L 100.481818 108.407569 
L 105.413636 108.407569 
L 105.413636 113.719697 
L 110.345455 113.719697 
L 110.345455 117.304607 
L 115.277273 117.304607 
L 115.277273 121.985164 
L 120.209091 121.985164 
L 120.209091 125.761308 
L 125.140909 125.761308 
L 125.140909 129.596467 
L 130.072727 129.596467 
L 130.072727 133.686734 
L 135.004545 133.686734 
L 135.004545 136.720708 
L 139.936364 136.720708 
L 139.936364 140.410042 
L 144.868182 140.410042 
L 144.868182 143.740202 
L 149.8 143.740202 
L 149.8 146.062698 
L 154.731818 146.062698 
L 154.731818 149.906271 
L 159.663636 149.906271 
L 159.663636 152.721112 
L 164.595455 152.721112 
L 164.595455 155.569917 
L 169.527273 155.569917 
L 169.527273 157.791031 
L 174.459091 157.791031 
L 174.459091 159.711461 
L 179.390909 159.711461 
L 179.390909 161.655966 
L 184.322727 161.655966 
L 184.322727 163.394509 
L 189.254545 163.394509 
L 189.254545 166.323346 
L 194.186364 166.323346 
L 194.186364 167.870716 
L 199.118182 167.870716 
L 199.118182 170.295607 
L 204.05 170.295607 
L 204.05 172.889574 
L 208.981818 172.889574 
L 208.981818 174.769743 
L 213.913636 174.769743 
L 213.913636 176.170539 
L 218.845455 176.170539 
L 218.845455 177.725934 
L 223.777273 177.725934 
L 223.777273 179.430942 
L 228.709091 179.430942 
L 228.709091 181.293978 
L 233.640909 181.293978 
L 233.640909 183.325142 
L 238.572727 183.325142 
L 238.572727 185.935483 
L 243.504545 185.935483 
L 243.504545 187.888875 
L 248.436364 187.888875 
L 248.436364 189.588676 
L 253.368182 189.588676 
L 253.368182 191.748665 
L 258.3 191.748665 
L 258.3 193.223179 
L 263.231818 193.223179 
L 263.231818 195.164107 
L 268.163636 195.164107 
L 268.163636 197.137236 
L 273.095455 197.137236 
L 273.095455 198.680763 
L 278.027273 198.680763 
L 278.027273 200.24425 
L 282.959091 200.24425 
L 282.959091 202.472578 
L 287.890909 202.472578 
L 287.890909 204.585132 
L 292.822727 204.585132 
L 292.822727 206.738636 
L 297.754545 206.738636 
L 297.754545 207.413259 
L 302.686364 207.413259 
L 302.686364 208.442993 
L 307.618182 208.442993 
L 307.618182 210.198697 
L 312.55 210.198697 
L 312.55 212.718332 
L 317.481818 212.718332 
L 317.481818 214.008303 
L 322.413636 214.008303 
L 322.413636 216.650428 
L 327.345455 216.650428 
L 327.345455 218.580682 
L 332.277273 218.580682 
L 332.277273 219.968607 
L 337.209091 219.968607 
L 337.209091 221.395481 
L 342.140909 221.395481 
L 342.140909 223.925142 
L 347.072727 223.925142 
L 347.072727 226.748411 
L 352.004545 226.748411 
L 352.004545 228.536046 
L 356.936364 228.536046 
L 356.936364 230.844654 
L 361.868182 230.844654 
L 361.868182 232.288898 
L 366.8 232.288898 
L 366.8 234.777956 
L 371.731818 234.777956 
L 371.731818 236.583451 
L 376.663636 236.583451 
L 376.663636 237.91789 
L 381.595455 237.91789 
L 381.595455 240.152453 
L 386.527273 240.152453 
L 386.527273 241.620146 
L 391.459091 241.620146 
L 391.459091 242.855402 
L 396.390909 242.855402 
L 396.390909 243.836491 
L 401.322727 243.836491 
L 401.322727 246.989574 
L 406.254545 246.989574 
L 406.254545 251.855112 
L 411.186364 251.855112 
L 411.186364 255.890438 
L 416.118182 255.890438 
L 416.118182 259.895814 
L 421.05 259.895814 
L 421.05 263.875628 
L 425.981818 263.875628 
L 425.981818 269.495274 
L 430.913636 269.495274 
L 430.913636 272.850972 
L 435.845455 272.850972 
L 435.845455 277.757793 
L 435.845455 277.757793 
" style="fill:none;stroke:#dd8452;stroke-linecap:round;stroke-width:1.5;"/>
   </g>
   <g id="patch_3">
    <path d="M 63 315 
L 63 43.2 
" style="fill:none;stroke:#ffffff;stroke-linecap:square;stroke-linejoin:miter;stroke-width:1.25;"/>
   </g>
   <g id="patch_4">
    <path d="M 453.6 315 
L 453.6 43.2 
" style="fill:none;stroke:#ffffff;stroke-linecap:square;stroke-linejoin:miter;stroke-width:1.25;"/>
   </g>
   <g id="patch_5">
    <path d="M 63 315 
L 453.6 315 
" style="fill:none;stroke:#ffffff;stroke-linecap:square;stroke-linejoin:miter;stroke-width:1.25;"/>
   </g>
   <g id="patch_6">
    <path d="M 63 43.2 
L 453.6 43.2 
" style="fill:none;stroke:#ffffff;stroke-linecap:square;stroke-linejoin:miter;stroke-width:1.25;"/>
   </g>
   <g id="text_16">
    <!-- Survival curves, stratified by PhoneService -->
    <g style="fill:#262626;" transform="translate(135.252188 33.2)scale(0.12 -0.12)">
     <defs>
      <path d="M 52.390625 36.53125 
L 38.875 34.078125 
Q 38.1875 38.140625 35.765625 40.1875 
Q 33.34375 42.234375 29.5 42.234375 
Q 24.359375 42.234375 21.3125 38.6875 
Q 18.265625 35.15625 18.265625 26.859375 
Q 18.265625 17.625 21.359375 13.8125 
Q 24.46875 10.015625 29.6875 10.015625 
Q 33.59375 10.015625 36.078125 12.234375 
Q 38.578125 14.453125 39.59375 19.875 
L 53.078125 17.578125 
Q 50.984375 8.296875 45.015625 3.5625 
Q 39.0625 -1.171875 29.046875 -1.171875 
Q 17.671875 -1.171875 10.90625 6 
Q 4.15625 13.1875 4.15625 25.875 
Q 4.15625 38.71875 10.9375 45.875 
Q 17.71875 53.03125 29.296875 53.03125 
Q 38.765625 53.03125 44.359375 48.953125 
Q 49.953125 44.875 52.390625 36.53125 
z
" id="Arial-BoldMT-99"/>
      <path d="M 6.84375 13.71875 
L 20.5625 13.71875 
L 20.5625 3.90625 
Q 20.5625 -2.046875 19.53125 -5.484375 
Q 18.5 -8.9375 15.640625 -11.671875 
Q 12.796875 -14.40625 8.40625 -15.96875 
L 5.71875 -10.296875 
Q 9.859375 -8.9375 11.609375 -6.546875 
Q 13.375 -4.15625 13.484375 0 
L 6.84375 0 
z
" id="Arial-BoldMT-44"/>
      <path d="M 1.171875 51.859375 
L 8.796875 51.859375 
L 8.796875 55.765625 
Q 8.796875 62.3125 10.1875 65.53125 
Q 11.578125 68.75 15.3125 70.765625 
Q 19.046875 72.796875 24.75 72.796875 
Q 30.609375 72.796875 36.234375 71.046875 
L 34.375 61.46875 
Q 31.109375 62.25 28.078125 62.25 
Q 25.09375 62.25 23.796875 60.859375 
Q 22.515625 59.46875 22.515625 55.515625 
L 22.515625 51.859375 
L 32.765625 51.859375 
L 32.765625 41.0625 
L 22.515625 41.0625 
L 22.515625 0 
L 8.796875 0 
L 8.796875 41.0625 
L 1.171875 41.0625 
z
" id="Arial-BoldMT-102"/>
      <path d="M 54.734375 0 
L 42 0 
L 42 7.625 
Q 38.8125 3.171875 34.484375 1 
Q 30.171875 -1.171875 25.78125 -1.171875 
Q 16.84375 -1.171875 10.46875 6.03125 
Q 4.109375 13.234375 4.109375 26.125 
Q 4.109375 39.3125 10.296875 46.171875 
Q 16.5 53.03125 25.984375 53.03125 
Q 34.671875 53.03125 41.015625 45.796875 
L 41.015625 71.578125 
L 54.734375 71.578125 
z
M 18.109375 27.046875 
Q 18.109375 18.75 20.40625 15.046875 
Q 23.734375 9.671875 29.6875 9.671875 
Q 34.421875 9.671875 37.734375 13.6875 
Q 41.0625 17.71875 41.0625 25.734375 
Q 41.0625 34.671875 37.84375 38.59375 
Q 34.625 42.53125 29.59375 42.53125 
Q 24.703125 42.53125 21.40625 38.640625 
Q 18.109375 34.765625 18.109375 27.046875 
z
" id="Arial-BoldMT-100"/>
      <path d="M 7.28125 0 
L 7.28125 71.578125 
L 30.46875 71.578125 
Q 43.65625 71.578125 47.65625 70.515625 
Q 53.8125 68.890625 57.953125 63.5 
Q 62.109375 58.109375 62.109375 49.5625 
Q 62.109375 42.96875 59.71875 38.46875 
Q 57.328125 33.984375 53.640625 31.421875 
Q 49.953125 28.859375 46.140625 28.03125 
Q 40.96875 27 31.15625 27 
L 21.734375 27 
L 21.734375 0 
z
M 21.734375 59.46875 
L 21.734375 39.15625 
L 29.640625 39.15625 
Q 38.1875 39.15625 41.0625 40.28125 
Q 43.953125 41.40625 45.578125 43.796875 
Q 47.21875 46.1875 47.21875 49.359375 
Q 47.21875 53.265625 44.921875 55.796875 
Q 42.625 58.34375 39.109375 58.984375 
Q 36.53125 59.46875 28.71875 59.46875 
z
" id="Arial-BoldMT-80"/>
     </defs>
     <use xlink:href="#Arial-BoldMT-83"/>
     <use x="66.699219" xlink:href="#Arial-BoldMT-117"/>
     <use x="127.783203" xlink:href="#Arial-BoldMT-114"/>
     <use x="166.699219" xlink:href="#Arial-BoldMT-118"/>
     <use x="222.314453" xlink:href="#Arial-BoldMT-105"/>
     <use x="250.097656" xlink:href="#Arial-BoldMT-118"/>
     <use x="305.712891" xlink:href="#Arial-BoldMT-97"/>
     <use x="361.328125" xlink:href="#Arial-BoldMT-108"/>
     <use x="389.111328" xlink:href="#Arial-BoldMT-32"/>
     <use x="416.894531" xlink:href="#Arial-BoldMT-99"/>
     <use x="472.509766" xlink:href="#Arial-BoldMT-117"/>
     <use x="533.59375" xlink:href="#Arial-BoldMT-114"/>
     <use x="572.509766" xlink:href="#Arial-BoldMT-118"/>
     <use x="628.125" xlink:href="#Arial-BoldMT-101"/>
     <use x="683.740234" xlink:href="#Arial-BoldMT-115"/>
     <use x="739.355469" xlink:href="#Arial-BoldMT-44"/>
     <use x="767.138672" xlink:href="#Arial-BoldMT-32"/>
     <use x="794.921875" xlink:href="#Arial-BoldMT-115"/>
     <use x="850.537109" xlink:href="#Arial-BoldMT-116"/>
     <use x="883.837891" xlink:href="#Arial-BoldMT-114"/>
     <use x="922.753906" xlink:href="#Arial-BoldMT-97"/>
     <use x="978.369141" xlink:href="#Arial-BoldMT-116"/>
     <use x="1011.669922" xlink:href="#Arial-BoldMT-105"/>
     <use x="1039.453125" xlink:href="#Arial-BoldMT-102"/>
     <use x="1072.753906" xlink:href="#Arial-BoldMT-105"/>
     <use x="1100.537109" xlink:href="#Arial-BoldMT-101"/>
     <use x="1156.152344" xlink:href="#Arial-BoldMT-100"/>
     <use x="1217.236328" xlink:href="#Arial-BoldMT-32"/>
     <use x="1245.019531" xlink:href="#Arial-BoldMT-98"/>
     <use x="1306.103516" xlink:href="#Arial-BoldMT-121"/>
     <use x="1361.71875" xlink:href="#Arial-BoldMT-32"/>
     <use x="1389.501953" xlink:href="#Arial-BoldMT-80"/>
     <use x="1456.201172" xlink:href="#Arial-BoldMT-104"/>
     <use x="1517.285156" xlink:href="#Arial-BoldMT-111"/>
     <use x="1578.369141" xlink:href="#Arial-BoldMT-110"/>
     <use x="1639.453125" xlink:href="#Arial-BoldMT-101"/>
     <use x="1695.068359" xlink:href="#Arial-BoldMT-83"/>
     <use x="1761.767578" xlink:href="#Arial-BoldMT-101"/>
     <use x="1817.382812" xlink:href="#Arial-BoldMT-114"/>
     <use x="1856.298828" xlink:href="#Arial-BoldMT-118"/>
     <use x="1911.914062" xlink:href="#Arial-BoldMT-105"/>
     <use x="1939.697266" xlink:href="#Arial-BoldMT-99"/>
     <use x="1995.3125" xlink:href="#Arial-BoldMT-101"/>
    </g>
   </g>
   <g id="legend_1">
    <g id="patch_7">
     <path d="M 392.749375 83.119687 
L 445.9 83.119687 
Q 448.1 83.119687 448.1 80.919688 
L 448.1 50.9 
Q 448.1 48.7 445.9 48.7 
L 392.749375 48.7 
Q 390.549375 48.7 390.549375 50.9 
L 390.549375 80.919688 
Q 390.549375 83.119687 392.749375 83.119687 
z
" style="fill:#eaeaf2;opacity:0.8;stroke:#cccccc;stroke-linejoin:miter;"/>
    </g>
    <g id="line2d_16">
     <path d="M 394.949375 57.123594 
L 416.949375 57.123594 
" style="fill:none;stroke:#4c72b0;stroke-linecap:round;stroke-width:1.5;"/>
    </g>
    <g id="line2d_17"/>
    <g id="text_17">
     <!-- No -->
     <g style="fill:#262626;" transform="translate(425.749375 60.973594)scale(0.11 -0.11)">
      <defs>
       <path d="M 7.625 0 
L 7.625 71.578125 
L 17.328125 71.578125 
L 54.9375 15.375 
L 54.9375 71.578125 
L 64.015625 71.578125 
L 64.015625 0 
L 54.296875 0 
L 16.703125 56.25 
L 16.703125 0 
z
" id="ArialMT-78"/>
       <path d="M 3.328125 25.921875 
Q 3.328125 40.328125 11.328125 47.265625 
Q 18.015625 53.03125 27.640625 53.03125 
Q 38.328125 53.03125 45.109375 46.015625 
Q 51.90625 39.015625 51.90625 26.65625 
Q 51.90625 16.65625 48.90625 10.90625 
Q 45.90625 5.171875 40.15625 2 
Q 34.421875 -1.171875 27.640625 -1.171875 
Q 16.75 -1.171875 10.03125 5.8125 
Q 3.328125 12.796875 3.328125 25.921875 
z
M 12.359375 25.921875 
Q 12.359375 15.96875 16.703125 11.015625 
Q 21.046875 6.0625 27.640625 6.0625 
Q 34.1875 6.0625 38.53125 11.03125 
Q 42.875 16.015625 42.875 26.21875 
Q 42.875 35.84375 38.5 40.796875 
Q 34.125 45.75 27.640625 45.75 
Q 21.046875 45.75 16.703125 40.8125 
Q 12.359375 35.890625 12.359375 25.921875 
z
" id="ArialMT-111"/>
      </defs>
      <use xlink:href="#ArialMT-78"/>
      <use x="72.216797" xlink:href="#ArialMT-111"/>
     </g>
    </g>
    <g id="line2d_18">
     <path d="M 394.949375 72.683438 
L 416.949375 72.683438 
" style="fill:none;stroke:#dd8452;stroke-linecap:round;stroke-width:1.5;"/>
    </g>
    <g id="line2d_19"/>
    <g id="text_18">
     <!-- Yes -->
     <g style="fill:#262626;" transform="translate(425.749375 76.533438)scale(0.11 -0.11)">
      <defs>
       <path d="M 27.875 0 
L 27.875 30.328125 
L 0.296875 71.578125 
L 11.8125 71.578125 
L 25.921875 50 
Q 29.828125 43.953125 33.203125 37.890625 
Q 36.421875 43.5 41.015625 50.53125 
L 54.890625 71.578125 
L 65.921875 71.578125 
L 37.359375 30.328125 
L 37.359375 0 
z
" id="ArialMT-89"/>
       <path d="M 42.09375 16.703125 
L 51.171875 15.578125 
Q 49.03125 7.625 43.21875 3.21875 
Q 37.40625 -1.171875 28.375 -1.171875 
Q 17 -1.171875 10.328125 5.828125 
Q 3.65625 12.84375 3.65625 25.484375 
Q 3.65625 38.578125 10.390625 45.796875 
Q 17.140625 53.03125 27.875 53.03125 
Q 38.28125 53.03125 44.875 45.953125 
Q 51.46875 38.875 51.46875 26.03125 
Q 51.46875 25.25 51.421875 23.6875 
L 12.75 23.6875 
Q 13.234375 15.140625 17.578125 10.59375 
Q 21.921875 6.0625 28.421875 6.0625 
Q 33.25 6.0625 36.671875 8.59375 
Q 40.09375 11.140625 42.09375 16.703125 
z
M 13.234375 30.90625 
L 42.1875 30.90625 
Q 41.609375 37.453125 38.875 40.71875 
Q 34.671875 45.796875 27.984375 45.796875 
Q 21.921875 45.796875 17.796875 41.75 
Q 13.671875 37.703125 13.234375 30.90625 
z
" id="ArialMT-101"/>
       <path d="M 3.078125 15.484375 
L 11.765625 16.84375 
Q 12.5 11.625 15.84375 8.84375 
Q 19.1875 6.0625 25.203125 6.0625 
Q 31.25 6.0625 34.171875 8.515625 
Q 37.109375 10.984375 37.109375 14.3125 
Q 37.109375 17.28125 34.515625 19 
Q 32.71875 20.171875 25.53125 21.96875 
Q 15.875 24.421875 12.140625 26.203125 
Q 8.40625 27.984375 6.46875 31.125 
Q 4.546875 34.28125 4.546875 38.09375 
Q 4.546875 41.546875 6.125 44.5 
Q 7.71875 47.46875 10.453125 49.421875 
Q 12.5 50.921875 16.03125 51.96875 
Q 19.578125 53.03125 23.640625 53.03125 
Q 29.734375 53.03125 34.34375 51.265625 
Q 38.96875 49.515625 41.15625 46.5 
Q 43.359375 43.5 44.1875 38.484375 
L 35.59375 37.3125 
Q 35.015625 41.3125 32.203125 43.546875 
Q 29.390625 45.796875 24.265625 45.796875 
Q 18.21875 45.796875 15.625 43.796875 
Q 13.03125 41.796875 13.03125 39.109375 
Q 13.03125 37.40625 14.109375 36.03125 
Q 15.1875 34.625 17.484375 33.6875 
Q 18.796875 33.203125 25.25 31.453125 
Q 34.578125 28.953125 38.25 27.359375 
Q 41.9375 25.78125 44.03125 22.75 
Q 46.140625 19.734375 46.140625 15.234375 
Q 46.140625 10.84375 43.578125 6.953125 
Q 41.015625 3.078125 36.171875 0.953125 
Q 31.34375 -1.171875 25.25 -1.171875 
Q 15.140625 -1.171875 9.84375 3.03125 
Q 4.546875 7.234375 3.078125 15.484375 
z
" id="ArialMT-115"/>
      </defs>
      <use xlink:href="#ArialMT-89"/>
      <use x="57.574219" xlink:href="#ArialMT-101"/>
      <use x="113.189453" xlink:href="#ArialMT-115"/>
     </g>
    </g>
   </g>
  </g>
 </g>
 <defs>
  <clipPath id="p03487d8d73">
   <rect height="271.8" width="390.6" x="63" y="43.2"/>
  </clipPath>
 </defs>
</svg>
