<?xml version="1.0" encoding="utf-8" standalone="no"?>
<!DOCTYPE svg PUBLIC "-//W3C//DTD SVG 1.1//EN"
  "http://www.w3.org/Graphics/SVG/1.1/DTD/svg11.dtd">
<!-- Created with matplotlib (https://matplotlib.org/) -->
<svg height="360pt" version="1.1" viewBox="0 0 504 360" width="504pt" xmlns="http://www.w3.org/2000/svg" xmlns:xlink="http://www.w3.org/1999/xlink">
 <metadata>
  <rdf:RDF xmlns:cc="http://creativecommons.org/ns#" xmlns:dc="http://purl.org/dc/elements/1.1/" xmlns:rdf="http://www.w3.org/1999/02/22-rdf-syntax-ns#">
   <cc:Work>
    <dc:type rdf:resource="http://purl.org/dc/dcmitype/StillImage"/>
    <dc:date>2021-06-10T12:40:24.706710</dc:date>
    <dc:format>image/svg+xml</dc:format>
    <dc:creator>
     <cc:Agent>
      <dc:title>Matplotlib v3.3.3, https://matplotlib.org/</dc:title>
     </cc:Agent>
    </dc:creator>
   </cc:Work>
  </rdf:RDF>
 </metadata>
 <defs>
  <style type="text/css">*{stroke-linecap:butt;stroke-linejoin:round;}</style>
 </defs>
 <g id="figure_1">
  <g id="patch_1">
   <path d="M 0 360 
L 504 360 
L 504 0 
L 0 0 
z
" style="fill:none;"/>
  </g>
  <g id="axes_1">
   <g id="patch_2">
    <path d="M 63 315 
L 453.6 315 
L 453.6 43.2 
L 63 43.2 
z
" style="fill:#eaeaf2;"/>
   </g>
   <g id="matplotlib.axis_1">
    <g id="xtick_1">
     <g id="line2d_1">
      <path clip-path="url(#p2090a4246a)" d="M 80.754545 315 
L 80.754545 43.2 
" style="fill:none;stroke:#ffffff;stroke-linecap:round;"/>
     </g>
     <g id="text_1">
      <!-- 0 -->
      <g style="fill:#262626;" transform="translate(77.69603 332.373594)scale(0.11 -0.11)">
       <defs>
        <path d="M 4.15625 35.296875 
Q 4.15625 48 6.765625 55.734375 
Q 9.375 63.484375 14.515625 67.671875 
Q 19.671875 71.875 27.484375 71.875 
Q 33.25 71.875 37.59375 69.546875 
Q 41.9375 67.234375 44.765625 62.859375 
Q 47.609375 58.5 49.21875 52.21875 
Q 50.828125 45.953125 50.828125 35.296875 
Q 50.828125 22.703125 48.234375 14.96875 
Q 45.65625 7.234375 40.5 3 
Q 35.359375 -1.21875 27.484375 -1.21875 
Q 17.140625 -1.21875 11.234375 6.203125 
Q 4.15625 15.140625 4.15625 35.296875 
z
M 13.1875 35.296875 
Q 13.1875 17.671875 17.3125 11.828125 
Q 21.4375 6 27.484375 6 
Q 33.546875 6 37.671875 11.859375 
Q 41.796875 17.71875 41.796875 35.296875 
Q 41.796875 52.984375 37.671875 58.78125 
Q 33.546875 64.59375 27.390625 64.59375 
Q 21.34375 64.59375 17.71875 59.46875 
Q 13.1875 52.9375 13.1875 35.296875 
z
" id="ArialMT-48"/>
       </defs>
       <use xlink:href="#ArialMT-48"/>
      </g>
     </g>
    </g>
    <g id="xtick_2">
     <g id="line2d_2">
      <path clip-path="url(#p2090a4246a)" d="M 130.072727 315 
L 130.072727 43.2 
" style="fill:none;stroke:#ffffff;stroke-linecap:round;"/>
     </g>
     <g id="text_2">
      <!-- 10 -->
      <g style="fill:#262626;" transform="translate(123.955696 332.373594)scale(0.11 -0.11)">
       <defs>
        <path d="M 37.25 0 
L 28.46875 0 
L 28.46875 56 
Q 25.296875 52.984375 20.140625 49.953125 
Q 14.984375 46.921875 10.890625 45.40625 
L 10.890625 53.90625 
Q 18.265625 57.375 23.78125 62.296875 
Q 29.296875 67.234375 31.59375 71.875 
L 37.25 71.875 
z
" id="ArialMT-49"/>
       </defs>
       <use xlink:href="#ArialMT-49"/>
       <use x="55.615234" xlink:href="#ArialMT-48"/>
      </g>
     </g>
    </g>
    <g id="xtick_3">
     <g id="line2d_3">
      <path clip-path="url(#p2090a4246a)" d="M 179.390909 315 
L 179.390909 43.2 
" style="fill:none;stroke:#ffffff;stroke-linecap:round;"/>
     </g>
     <g id="text_3">
      <!-- 20 -->
      <g style="fill:#262626;" transform="translate(173.273878 332.373594)scale(0.11 -0.11)">
       <defs>
        <path d="M 50.34375 8.453125 
L 50.34375 0 
L 3.03125 0 
Q 2.9375 3.171875 4.046875 6.109375 
Q 5.859375 10.9375 9.828125 15.625 
Q 13.8125 20.3125 21.34375 26.46875 
Q 33.015625 36.03125 37.109375 41.625 
Q 41.21875 47.21875 41.21875 52.203125 
Q 41.21875 57.421875 37.46875 61 
Q 33.734375 64.59375 27.734375 64.59375 
Q 21.390625 64.59375 17.578125 60.78125 
Q 13.765625 56.984375 13.71875 50.25 
L 4.6875 51.171875 
Q 5.609375 61.28125 11.65625 66.578125 
Q 17.71875 71.875 27.9375 71.875 
Q 38.234375 71.875 44.234375 66.15625 
Q 50.25 60.453125 50.25 52 
Q 50.25 47.703125 48.484375 43.546875 
Q 46.734375 39.40625 42.65625 34.8125 
Q 38.578125 30.21875 29.109375 22.21875 
Q 21.1875 15.578125 18.9375 13.203125 
Q 16.703125 10.84375 15.234375 8.453125 
z
" id="ArialMT-50"/>
       </defs>
       <use xlink:href="#ArialMT-50"/>
       <use x="55.615234" xlink:href="#ArialMT-48"/>
      </g>
     </g>
    </g>
    <g id="xtick_4">
     <g id="line2d_4">
      <path clip-path="url(#p2090a4246a)" d="M 228.709091 315 
L 228.709091 43.2 
" style="fill:none;stroke:#ffffff;stroke-linecap:round;"/>
     </g>
     <g id="text_4">
      <!-- 30 -->
      <g style="fill:#262626;" transform="translate(222.59206 332.373594)scale(0.11 -0.11)">
       <defs>
        <path d="M 4.203125 18.890625 
L 12.984375 20.0625 
Q 14.5 12.59375 18.140625 9.296875 
Q 21.78125 6 27 6 
Q 33.203125 6 37.46875 10.296875 
Q 41.75 14.59375 41.75 20.953125 
Q 41.75 27 37.796875 30.921875 
Q 33.84375 34.859375 27.734375 34.859375 
Q 25.25 34.859375 21.53125 33.890625 
L 22.515625 41.609375 
Q 23.390625 41.5 23.921875 41.5 
Q 29.546875 41.5 34.03125 44.421875 
Q 38.53125 47.359375 38.53125 53.46875 
Q 38.53125 58.296875 35.25 61.46875 
Q 31.984375 64.65625 26.8125 64.65625 
Q 21.6875 64.65625 18.265625 61.421875 
Q 14.84375 58.203125 13.875 51.765625 
L 5.078125 53.328125 
Q 6.6875 62.15625 12.390625 67.015625 
Q 18.109375 71.875 26.609375 71.875 
Q 32.46875 71.875 37.390625 69.359375 
Q 42.328125 66.84375 44.9375 62.5 
Q 47.5625 58.15625 47.5625 53.265625 
Q 47.5625 48.640625 45.0625 44.828125 
Q 42.578125 41.015625 37.703125 38.765625 
Q 44.046875 37.3125 47.5625 32.6875 
Q 51.078125 28.078125 51.078125 21.140625 
Q 51.078125 11.765625 44.234375 5.25 
Q 37.40625 -1.265625 26.953125 -1.265625 
Q 17.53125 -1.265625 11.296875 4.34375 
Q 5.078125 9.96875 4.203125 18.890625 
z
" id="ArialMT-51"/>
       </defs>
       <use xlink:href="#ArialMT-51"/>
       <use x="55.615234" xlink:href="#ArialMT-48"/>
      </g>
     </g>
    </g>
    <g id="xtick_5">
     <g id="line2d_5">
      <path clip-path="url(#p2090a4246a)" d="M 278.027273 315 
L 278.027273 43.2 
" style="fill:none;stroke:#ffffff;stroke-linecap:round;"/>
     </g>
     <g id="text_5">
      <!-- 40 -->
      <g style="fill:#262626;" transform="translate(271.910241 332.373594)scale(0.11 -0.11)">
       <defs>
        <path d="M 32.328125 0 
L 32.328125 17.140625 
L 1.265625 17.140625 
L 1.265625 25.203125 
L 33.9375 71.578125 
L 41.109375 71.578125 
L 41.109375 25.203125 
L 50.78125 25.203125 
L 50.78125 17.140625 
L 41.109375 17.140625 
L 41.109375 0 
z
M 32.328125 25.203125 
L 32.328125 57.46875 
L 9.90625 25.203125 
z
" id="ArialMT-52"/>
       </defs>
       <use xlink:href="#ArialMT-52"/>
       <use x="55.615234" xlink:href="#ArialMT-48"/>
      </g>
     </g>
    </g>
    <g id="xtick_6">
     <g id="line2d_6">
      <path clip-path="url(#p2090a4246a)" d="M 327.345455 315 
L 327.345455 43.2 
" style="fill:none;stroke:#ffffff;stroke-linecap:round;"/>
     </g>
     <g id="text_6">
      <!-- 50 -->
      <g style="fill:#262626;" transform="translate(321.228423 332.373594)scale(0.11 -0.11)">
       <defs>
        <path d="M 4.15625 18.75 
L 13.375 19.53125 
Q 14.40625 12.796875 18.140625 9.390625 
Q 21.875 6 27.15625 6 
Q 33.5 6 37.890625 10.78125 
Q 42.28125 15.578125 42.28125 23.484375 
Q 42.28125 31 38.0625 35.34375 
Q 33.84375 39.703125 27 39.703125 
Q 22.75 39.703125 19.328125 37.765625 
Q 15.921875 35.84375 13.96875 32.765625 
L 5.71875 33.84375 
L 12.640625 70.609375 
L 48.25 70.609375 
L 48.25 62.203125 
L 19.671875 62.203125 
L 15.828125 42.96875 
Q 22.265625 47.46875 29.34375 47.46875 
Q 38.71875 47.46875 45.15625 40.96875 
Q 51.609375 34.46875 51.609375 24.265625 
Q 51.609375 14.546875 45.953125 7.46875 
Q 39.0625 -1.21875 27.15625 -1.21875 
Q 17.390625 -1.21875 11.203125 4.25 
Q 5.03125 9.71875 4.15625 18.75 
z
" id="ArialMT-53"/>
       </defs>
       <use xlink:href="#ArialMT-53"/>
       <use x="55.615234" xlink:href="#ArialMT-48"/>
      </g>
     </g>
    </g>
    <g id="xtick_7">
     <g id="line2d_7">
      <path clip-path="url(#p2090a4246a)" d="M 376.663636 315 
L 376.663636 43.2 
" style="fill:none;stroke:#ffffff;stroke-linecap:round;"/>
     </g>
     <g id="text_7">
      <!-- 60 -->
      <g style="fill:#262626;" transform="translate(370.546605 332.373594)scale(0.11 -0.11)">
       <defs>
        <path d="M 49.75 54.046875 
L 41.015625 53.375 
Q 39.84375 58.546875 37.703125 60.890625 
Q 34.125 64.65625 28.90625 64.65625 
Q 24.703125 64.65625 21.53125 62.3125 
Q 17.390625 59.28125 14.984375 53.46875 
Q 12.59375 47.65625 12.5 36.921875 
Q 15.671875 41.75 20.265625 44.09375 
Q 24.859375 46.4375 29.890625 46.4375 
Q 38.671875 46.4375 44.84375 39.96875 
Q 51.03125 33.5 51.03125 23.25 
Q 51.03125 16.5 48.125 10.71875 
Q 45.21875 4.9375 40.140625 1.859375 
Q 35.0625 -1.21875 28.609375 -1.21875 
Q 17.625 -1.21875 10.6875 6.859375 
Q 3.765625 14.9375 3.765625 33.5 
Q 3.765625 54.25 11.421875 63.671875 
Q 18.109375 71.875 29.4375 71.875 
Q 37.890625 71.875 43.28125 67.140625 
Q 48.6875 62.40625 49.75 54.046875 
z
M 13.875 23.1875 
Q 13.875 18.65625 15.796875 14.5 
Q 17.71875 10.359375 21.1875 8.171875 
Q 24.65625 6 28.46875 6 
Q 34.03125 6 38.03125 10.484375 
Q 42.046875 14.984375 42.046875 22.703125 
Q 42.046875 30.125 38.078125 34.390625 
Q 34.125 38.671875 28.125 38.671875 
Q 22.171875 38.671875 18.015625 34.390625 
Q 13.875 30.125 13.875 23.1875 
z
" id="ArialMT-54"/>
       </defs>
       <use xlink:href="#ArialMT-54"/>
       <use x="55.615234" xlink:href="#ArialMT-48"/>
      </g>
     </g>
    </g>
    <g id="xtick_8">
     <g id="line2d_8">
      <path clip-path="url(#p2090a4246a)" d="M 425.981818 315 
L 425.981818 43.2 
" style="fill:none;stroke:#ffffff;stroke-linecap:round;"/>
     </g>
     <g id="text_8">
      <!-- 70 -->
      <g style="fill:#262626;" transform="translate(419.864787 332.373594)scale(0.11 -0.11)">
       <defs>
        <path d="M 4.734375 62.203125 
L 4.734375 70.65625 
L 51.078125 70.65625 
L 51.078125 63.8125 
Q 44.234375 56.546875 37.515625 44.484375 
Q 30.8125 32.421875 27.15625 19.671875 
Q 24.515625 10.6875 23.78125 0 
L 14.75 0 
Q 14.890625 8.453125 18.0625 20.40625 
Q 21.234375 32.375 27.171875 43.484375 
Q 33.109375 54.59375 39.796875 62.203125 
z
" id="ArialMT-55"/>
       </defs>
       <use xlink:href="#ArialMT-55"/>
       <use x="55.615234" xlink:href="#ArialMT-48"/>
      </g>
     </g>
    </g>
    <g id="text_9">
     <!-- Tenure (months) -->
     <g style="fill:#262626;" transform="translate(211.41375 353.295469)scale(0.12 -0.12)">
      <defs>
       <path d="M 23.390625 0 
L 23.390625 59.46875 
L 2.15625 59.46875 
L 2.15625 71.578125 
L 59.03125 71.578125 
L 59.03125 59.46875 
L 37.84375 59.46875 
L 37.84375 0 
z
" id="Arial-BoldMT-84"/>
       <path d="M 37.203125 16.5 
L 50.875 14.203125 
Q 48.25 6.6875 42.546875 2.75 
Q 36.859375 -1.171875 28.328125 -1.171875 
Q 14.796875 -1.171875 8.296875 7.671875 
Q 3.171875 14.75 3.171875 25.53125 
Q 3.171875 38.421875 9.90625 45.71875 
Q 16.65625 53.03125 26.953125 53.03125 
Q 38.53125 53.03125 45.21875 45.390625 
Q 51.90625 37.75 51.609375 21.96875 
L 17.234375 21.96875 
Q 17.390625 15.875 20.5625 12.46875 
Q 23.734375 9.078125 28.46875 9.078125 
Q 31.6875 9.078125 33.875 10.828125 
Q 36.078125 12.59375 37.203125 16.5 
z
M 37.984375 30.375 
Q 37.84375 36.328125 34.90625 39.421875 
Q 31.984375 42.53125 27.78125 42.53125 
Q 23.296875 42.53125 20.359375 39.265625 
Q 17.4375 35.984375 17.484375 30.375 
z
" id="Arial-BoldMT-101"/>
       <path d="M 54.34375 0 
L 40.625 0 
L 40.625 26.46875 
Q 40.625 34.859375 39.75 37.328125 
Q 38.875 39.796875 36.890625 41.15625 
Q 34.90625 42.53125 32.125 42.53125 
Q 28.5625 42.53125 25.734375 40.578125 
Q 22.90625 38.625 21.84375 35.390625 
Q 20.796875 32.171875 20.796875 23.484375 
L 20.796875 0 
L 7.078125 0 
L 7.078125 51.859375 
L 19.828125 51.859375 
L 19.828125 44.234375 
Q 26.609375 53.03125 36.921875 53.03125 
Q 41.453125 53.03125 45.203125 51.390625 
Q 48.96875 49.75 50.890625 47.203125 
Q 52.828125 44.671875 53.578125 41.453125 
Q 54.34375 38.234375 54.34375 32.234375 
z
" id="Arial-BoldMT-110"/>
       <path d="M 41.3125 0 
L 41.3125 7.765625 
Q 38.484375 3.609375 33.859375 1.21875 
Q 29.25 -1.171875 24.125 -1.171875 
Q 18.890625 -1.171875 14.734375 1.125 
Q 10.59375 3.421875 8.734375 7.5625 
Q 6.890625 11.71875 6.890625 19.046875 
L 6.890625 51.859375 
L 20.609375 51.859375 
L 20.609375 28.03125 
Q 20.609375 17.09375 21.359375 14.625 
Q 22.125 12.15625 24.125 10.71875 
Q 26.125 9.28125 29.203125 9.28125 
Q 32.71875 9.28125 35.5 11.203125 
Q 38.28125 13.140625 39.296875 15.984375 
Q 40.328125 18.84375 40.328125 29.984375 
L 40.328125 51.859375 
L 54.046875 51.859375 
L 54.046875 0 
z
" id="Arial-BoldMT-117"/>
       <path d="M 20.3125 0 
L 6.59375 0 
L 6.59375 51.859375 
L 19.34375 51.859375 
L 19.34375 44.484375 
Q 22.609375 49.703125 25.21875 51.359375 
Q 27.828125 53.03125 31.15625 53.03125 
Q 35.84375 53.03125 40.1875 50.4375 
L 35.9375 38.484375 
Q 32.46875 40.71875 29.5 40.71875 
Q 26.609375 40.71875 24.609375 39.125 
Q 22.609375 37.546875 21.453125 33.390625 
Q 20.3125 29.25 20.3125 16.015625 
z
" id="Arial-BoldMT-114"/>
       <path id="Arial-BoldMT-32"/>
       <path d="M 29.9375 -21.046875 
L 20.515625 -21.046875 
Q 13.03125 -9.765625 9.125 2.390625 
Q 5.21875 14.546875 5.21875 25.921875 
Q 5.21875 40.046875 10.0625 52.640625 
Q 14.265625 63.578125 20.703125 72.796875 
L 30.078125 72.796875 
Q 23.390625 58.015625 20.875 47.625 
Q 18.359375 37.25 18.359375 25.640625 
Q 18.359375 17.625 19.84375 9.21875 
Q 21.34375 0.828125 23.921875 -6.734375 
Q 25.640625 -11.71875 29.9375 -21.046875 
z
" id="Arial-BoldMT-40"/>
       <path d="M 6.15625 51.859375 
L 18.796875 51.859375 
L 18.796875 44.78125 
Q 25.59375 53.03125 34.96875 53.03125 
Q 39.9375 53.03125 43.59375 50.96875 
Q 47.265625 48.921875 49.609375 44.78125 
Q 53.03125 48.921875 56.984375 50.96875 
Q 60.9375 53.03125 65.4375 53.03125 
Q 71.140625 53.03125 75.09375 50.703125 
Q 79.046875 48.390625 81 43.890625 
Q 82.421875 40.578125 82.421875 33.15625 
L 82.421875 0 
L 68.703125 0 
L 68.703125 29.640625 
Q 68.703125 37.359375 67.28125 39.59375 
Q 65.375 42.53125 61.421875 42.53125 
Q 58.546875 42.53125 56 40.765625 
Q 53.46875 39.015625 52.34375 35.625 
Q 51.21875 32.234375 51.21875 24.90625 
L 51.21875 0 
L 37.5 0 
L 37.5 28.421875 
Q 37.5 35.984375 36.765625 38.171875 
Q 36.03125 40.375 34.484375 41.453125 
Q 32.953125 42.53125 30.328125 42.53125 
Q 27.15625 42.53125 24.609375 40.8125 
Q 22.078125 39.109375 20.96875 35.890625 
Q 19.875 32.671875 19.875 25.203125 
L 19.875 0 
L 6.15625 0 
z
" id="Arial-BoldMT-109"/>
       <path d="M 4 26.65625 
Q 4 33.5 7.375 39.890625 
Q 10.75 46.296875 16.921875 49.65625 
Q 23.09375 53.03125 30.71875 53.03125 
Q 42.484375 53.03125 50 45.390625 
Q 57.515625 37.75 57.515625 26.078125 
Q 57.515625 14.3125 49.921875 6.5625 
Q 42.328125 -1.171875 30.8125 -1.171875 
Q 23.6875 -1.171875 17.21875 2.046875 
Q 10.75 5.28125 7.375 11.5 
Q 4 17.71875 4 26.65625 
z
M 18.0625 25.921875 
Q 18.0625 18.21875 21.71875 14.109375 
Q 25.390625 10.015625 30.765625 10.015625 
Q 36.140625 10.015625 39.765625 14.109375 
Q 43.40625 18.21875 43.40625 26.03125 
Q 43.40625 33.640625 39.765625 37.734375 
Q 36.140625 41.84375 30.765625 41.84375 
Q 25.390625 41.84375 21.71875 37.734375 
Q 18.0625 33.640625 18.0625 25.921875 
z
" id="Arial-BoldMT-111"/>
       <path d="M 30.953125 51.859375 
L 30.953125 40.921875 
L 21.578125 40.921875 
L 21.578125 20.015625 
Q 21.578125 13.671875 21.84375 12.625 
Q 22.125 11.578125 23.078125 10.890625 
Q 24.03125 10.203125 25.390625 10.203125 
Q 27.296875 10.203125 30.90625 11.53125 
L 32.078125 0.875 
Q 27.296875 -1.171875 21.234375 -1.171875 
Q 17.53125 -1.171875 14.546875 0.0625 
Q 11.578125 1.3125 10.1875 3.296875 
Q 8.796875 5.28125 8.25 8.640625 
Q 7.8125 11.03125 7.8125 18.3125 
L 7.8125 40.921875 
L 1.515625 40.921875 
L 1.515625 51.859375 
L 7.8125 51.859375 
L 7.8125 62.15625 
L 21.578125 70.171875 
L 21.578125 51.859375 
z
" id="Arial-BoldMT-116"/>
       <path d="M 20.84375 71.578125 
L 20.84375 45.265625 
Q 27.484375 53.03125 36.71875 53.03125 
Q 41.453125 53.03125 45.265625 51.265625 
Q 49.078125 49.515625 51 46.78125 
Q 52.9375 44.046875 53.640625 40.71875 
Q 54.34375 37.40625 54.34375 30.421875 
L 54.34375 0 
L 40.625 0 
L 40.625 27.390625 
Q 40.625 35.546875 39.84375 37.734375 
Q 39.0625 39.9375 37.078125 41.234375 
Q 35.109375 42.53125 32.125 42.53125 
Q 28.71875 42.53125 26.03125 40.859375 
Q 23.34375 39.203125 22.09375 35.859375 
Q 20.84375 32.515625 20.84375 25.984375 
L 20.84375 0 
L 7.125 0 
L 7.125 71.578125 
z
" id="Arial-BoldMT-104"/>
       <path d="M 2.34375 14.796875 
L 16.109375 16.890625 
Q 17 12.890625 19.671875 10.8125 
Q 22.359375 8.734375 27.203125 8.734375 
Q 32.515625 8.734375 35.203125 10.6875 
Q 37.015625 12.0625 37.015625 14.359375 
Q 37.015625 15.921875 36.03125 16.9375 
Q 35.015625 17.921875 31.453125 18.75 
Q 14.84375 22.40625 10.40625 25.4375 
Q 4.25 29.640625 4.25 37.109375 
Q 4.25 43.84375 9.5625 48.4375 
Q 14.890625 53.03125 26.078125 53.03125 
Q 36.71875 53.03125 41.890625 49.5625 
Q 47.078125 46.09375 49.03125 39.3125 
L 36.078125 36.921875 
Q 35.25 39.9375 32.921875 41.546875 
Q 30.609375 43.171875 26.3125 43.171875 
Q 20.90625 43.171875 18.5625 41.65625 
Q 17 40.578125 17 38.875 
Q 17 37.40625 18.359375 36.375 
Q 20.21875 35.015625 31.171875 32.515625 
Q 42.140625 30.03125 46.484375 26.421875 
Q 50.78125 22.75 50.78125 16.21875 
Q 50.78125 9.078125 44.828125 3.953125 
Q 38.875 -1.171875 27.203125 -1.171875 
Q 16.609375 -1.171875 10.421875 3.125 
Q 4.25 7.421875 2.34375 14.796875 
z
" id="Arial-BoldMT-115"/>
       <path d="M 3.375 -21.046875 
Q 7.421875 -12.359375 9.078125 -7.71875 
Q 10.75 -3.078125 12.15625 2.96875 
Q 13.578125 9.03125 14.25 14.46875 
Q 14.9375 19.921875 14.9375 25.640625 
Q 14.9375 37.25 12.453125 47.625 
Q 9.96875 58.015625 3.265625 72.796875 
L 12.59375 72.796875 
Q 19.96875 62.3125 24.046875 50.53125 
Q 28.125 38.765625 28.125 26.65625 
Q 28.125 16.453125 24.90625 4.78125 
Q 21.234375 -8.296875 12.84375 -21.046875 
z
" id="Arial-BoldMT-41"/>
      </defs>
      <use xlink:href="#Arial-BoldMT-84"/>
      <use x="53.708984" xlink:href="#Arial-BoldMT-101"/>
      <use x="109.324219" xlink:href="#Arial-BoldMT-110"/>
      <use x="170.408203" xlink:href="#Arial-BoldMT-117"/>
      <use x="231.492188" xlink:href="#Arial-BoldMT-114"/>
      <use x="270.408203" xlink:href="#Arial-BoldMT-101"/>
      <use x="326.023438" xlink:href="#Arial-BoldMT-32"/>
      <use x="353.806641" xlink:href="#Arial-BoldMT-40"/>
      <use x="387.107422" xlink:href="#Arial-BoldMT-109"/>
      <use x="476.023438" xlink:href="#Arial-BoldMT-111"/>
      <use x="537.107422" xlink:href="#Arial-BoldMT-110"/>
      <use x="598.191406" xlink:href="#Arial-BoldMT-116"/>
      <use x="631.492188" xlink:href="#Arial-BoldMT-104"/>
      <use x="692.576172" xlink:href="#Arial-BoldMT-115"/>
      <use x="748.191406" xlink:href="#Arial-BoldMT-41"/>
     </g>
    </g>
   </g>
   <g id="matplotlib.axis_2">
    <g id="ytick_1">
     <g id="line2d_9">
      <path clip-path="url(#p2090a4246a)" d="M 63 272.405747 
L 453.6 272.405747 
" style="fill:none;stroke:#ffffff;stroke-linecap:round;"/>
     </g>
     <g id="text_10">
      <!-- 0.6 -->
      <g style="fill:#262626;" transform="translate(38.21 276.342544)scale(0.11 -0.11)">
       <defs>
        <path d="M 9.078125 0 
L 9.078125 10.015625 
L 19.09375 10.015625 
L 19.09375 0 
z
" id="ArialMT-46"/>
       </defs>
       <use xlink:href="#ArialMT-48"/>
       <use x="55.615234" xlink:href="#ArialMT-46"/>
       <use x="83.398438" xlink:href="#ArialMT-54"/>
      </g>
     </g>
    </g>
    <g id="ytick_2">
     <g id="line2d_10">
      <path clip-path="url(#p2090a4246a)" d="M 63 218.192947 
L 453.6 218.192947 
" style="fill:none;stroke:#ffffff;stroke-linecap:round;"/>
     </g>
     <g id="text_11">
      <!-- 0.7 -->
      <g style="fill:#262626;" transform="translate(38.21 222.129744)scale(0.11 -0.11)">
       <use xlink:href="#ArialMT-48"/>
       <use x="55.615234" xlink:href="#ArialMT-46"/>
       <use x="83.398438" xlink:href="#ArialMT-55"/>
      </g>
     </g>
    </g>
    <g id="ytick_3">
     <g id="line2d_11">
      <path clip-path="url(#p2090a4246a)" d="M 63 163.980146 
L 453.6 163.980146 
" style="fill:none;stroke:#ffffff;stroke-linecap:round;"/>
     </g>
     <g id="text_12">
      <!-- 0.8 -->
      <g style="fill:#262626;" transform="translate(38.21 167.916943)scale(0.11 -0.11)">
       <defs>
        <path d="M 17.671875 38.8125 
Q 12.203125 40.828125 9.5625 44.53125 
Q 6.9375 48.25 6.9375 53.421875 
Q 6.9375 61.234375 12.546875 66.546875 
Q 18.171875 71.875 27.484375 71.875 
Q 36.859375 71.875 42.578125 66.421875 
Q 48.296875 60.984375 48.296875 53.171875 
Q 48.296875 48.1875 45.671875 44.5 
Q 43.0625 40.828125 37.75 38.8125 
Q 44.34375 36.671875 47.78125 31.875 
Q 51.21875 27.09375 51.21875 20.453125 
Q 51.21875 11.28125 44.71875 5.03125 
Q 38.234375 -1.21875 27.640625 -1.21875 
Q 17.046875 -1.21875 10.546875 5.046875 
Q 4.046875 11.328125 4.046875 20.703125 
Q 4.046875 27.6875 7.59375 32.390625 
Q 11.140625 37.109375 17.671875 38.8125 
z
M 15.921875 53.71875 
Q 15.921875 48.640625 19.1875 45.40625 
Q 22.46875 42.1875 27.6875 42.1875 
Q 32.765625 42.1875 36.015625 45.375 
Q 39.265625 48.578125 39.265625 53.21875 
Q 39.265625 58.0625 35.90625 61.359375 
Q 32.5625 64.65625 27.59375 64.65625 
Q 22.5625 64.65625 19.234375 61.421875 
Q 15.921875 58.203125 15.921875 53.71875 
z
M 13.09375 20.65625 
Q 13.09375 16.890625 14.875 13.375 
Q 16.65625 9.859375 20.171875 7.921875 
Q 23.6875 6 27.734375 6 
Q 34.03125 6 38.125 10.046875 
Q 42.234375 14.109375 42.234375 20.359375 
Q 42.234375 26.703125 38.015625 30.859375 
Q 33.796875 35.015625 27.4375 35.015625 
Q 21.234375 35.015625 17.15625 30.90625 
Q 13.09375 26.8125 13.09375 20.65625 
z
" id="ArialMT-56"/>
       </defs>
       <use xlink:href="#ArialMT-48"/>
       <use x="55.615234" xlink:href="#ArialMT-46"/>
       <use x="83.398438" xlink:href="#ArialMT-56"/>
      </g>
     </g>
    </g>
    <g id="ytick_4">
     <g id="line2d_12">
      <path clip-path="url(#p2090a4246a)" d="M 63 109.767346 
L 453.6 109.767346 
" style="fill:none;stroke:#ffffff;stroke-linecap:round;"/>
     </g>
     <g id="text_13">
      <!-- 0.9 -->
      <g style="fill:#262626;" transform="translate(38.21 113.704143)scale(0.11 -0.11)">
       <defs>
        <path d="M 5.46875 16.546875 
L 13.921875 17.328125 
Q 14.984375 11.375 18.015625 8.6875 
Q 21.046875 6 25.78125 6 
Q 29.828125 6 32.875 7.859375 
Q 35.9375 9.71875 37.890625 12.8125 
Q 39.84375 15.921875 41.15625 21.1875 
Q 42.484375 26.46875 42.484375 31.9375 
Q 42.484375 32.515625 42.4375 33.6875 
Q 39.796875 29.5 35.234375 26.875 
Q 30.671875 24.265625 25.34375 24.265625 
Q 16.453125 24.265625 10.296875 30.703125 
Q 4.15625 37.15625 4.15625 47.703125 
Q 4.15625 58.59375 10.578125 65.234375 
Q 17 71.875 26.65625 71.875 
Q 33.640625 71.875 39.421875 68.109375 
Q 45.21875 64.359375 48.21875 57.390625 
Q 51.21875 50.4375 51.21875 37.25 
Q 51.21875 23.53125 48.234375 15.40625 
Q 45.265625 7.28125 39.375 3.03125 
Q 33.5 -1.21875 25.59375 -1.21875 
Q 17.1875 -1.21875 11.859375 3.4375 
Q 6.546875 8.109375 5.46875 16.546875 
z
M 41.453125 48.140625 
Q 41.453125 55.71875 37.421875 60.15625 
Q 33.40625 64.59375 27.734375 64.59375 
Q 21.875 64.59375 17.53125 59.8125 
Q 13.1875 55.03125 13.1875 47.40625 
Q 13.1875 40.578125 17.3125 36.296875 
Q 21.4375 32.03125 27.484375 32.03125 
Q 33.59375 32.03125 37.515625 36.296875 
Q 41.453125 40.578125 41.453125 48.140625 
z
" id="ArialMT-57"/>
       </defs>
       <use xlink:href="#ArialMT-48"/>
       <use x="55.615234" xlink:href="#ArialMT-46"/>
       <use x="83.398438" xlink:href="#ArialMT-57"/>
      </g>
     </g>
    </g>
    <g id="ytick_5">
     <g id="line2d_13">
      <path clip-path="url(#p2090a4246a)" d="M 63 55.554545 
L 453.6 55.554545 
" style="fill:none;stroke:#ffffff;stroke-linecap:round;"/>
     </g>
     <g id="text_14">
      <!-- 1.0 -->
      <g style="fill:#262626;" transform="translate(38.21 59.491342)scale(0.11 -0.11)">
       <use xlink:href="#ArialMT-49"/>
       <use x="55.615234" xlink:href="#ArialMT-46"/>
       <use x="83.398438" xlink:href="#ArialMT-48"/>
      </g>
     </g>
    </g>
    <g id="text_15">
     <!-- Survival probability -->
     <g style="fill:#262626;" transform="translate(25.684375 234.778125)rotate(-90)scale(0.12 -0.12)">
      <defs>
       <path d="M 3.609375 23.296875 
L 17.671875 24.65625 
Q 18.953125 17.578125 22.828125 14.25 
Q 26.703125 10.9375 33.296875 10.9375 
Q 40.28125 10.9375 43.8125 13.890625 
Q 47.359375 16.84375 47.359375 20.796875 
Q 47.359375 23.34375 45.875 25.125 
Q 44.390625 26.90625 40.671875 28.21875 
Q 38.140625 29.109375 29.109375 31.34375 
Q 17.484375 34.234375 12.796875 38.421875 
Q 6.203125 44.34375 6.203125 52.828125 
Q 6.203125 58.296875 9.296875 63.0625 
Q 12.40625 67.828125 18.234375 70.3125 
Q 24.078125 72.796875 32.328125 72.796875 
Q 45.796875 72.796875 52.609375 66.890625 
Q 59.421875 60.984375 59.765625 51.125 
L 45.3125 50.484375 
Q 44.390625 56 41.328125 58.421875 
Q 38.28125 60.84375 32.171875 60.84375 
Q 25.875 60.84375 22.3125 58.25 
Q 20.015625 56.59375 20.015625 53.8125 
Q 20.015625 51.265625 22.171875 49.46875 
Q 24.90625 47.171875 35.453125 44.671875 
Q 46 42.1875 51.046875 39.515625 
Q 56.109375 36.859375 58.953125 32.25 
Q 61.8125 27.640625 61.8125 20.84375 
Q 61.8125 14.703125 58.390625 9.328125 
Q 54.984375 3.953125 48.734375 1.34375 
Q 42.484375 -1.265625 33.15625 -1.265625 
Q 19.578125 -1.265625 12.296875 5 
Q 5.03125 11.28125 3.609375 23.296875 
z
" id="Arial-BoldMT-83"/>
       <path d="M 21.4375 0 
L 0.53125 51.859375 
L 14.9375 51.859375 
L 24.703125 25.390625 
L 27.546875 16.546875 
Q 28.65625 19.921875 28.953125 21 
Q 29.640625 23.1875 30.421875 25.390625 
L 40.28125 51.859375 
L 54.390625 51.859375 
L 33.796875 0 
z
" id="Arial-BoldMT-118"/>
       <path d="M 7.171875 58.890625 
L 7.171875 71.578125 
L 20.90625 71.578125 
L 20.90625 58.890625 
z
M 7.171875 0 
L 7.171875 51.859375 
L 20.90625 51.859375 
L 20.90625 0 
z
" id="Arial-BoldMT-105"/>
       <path d="M 17.4375 36.03125 
L 4.984375 38.28125 
Q 7.078125 45.796875 12.203125 49.40625 
Q 17.328125 53.03125 27.4375 53.03125 
Q 36.625 53.03125 41.109375 50.859375 
Q 45.609375 48.6875 47.4375 45.34375 
Q 49.265625 42 49.265625 33.0625 
L 49.125 17.046875 
Q 49.125 10.203125 49.78125 6.953125 
Q 50.4375 3.71875 52.25 0 
L 38.671875 0 
Q 38.140625 1.375 37.359375 4.046875 
Q 37.015625 5.28125 36.859375 5.671875 
Q 33.34375 2.25 29.34375 0.53125 
Q 25.34375 -1.171875 20.796875 -1.171875 
Q 12.796875 -1.171875 8.171875 3.171875 
Q 3.5625 7.515625 3.5625 14.15625 
Q 3.5625 18.5625 5.65625 22 
Q 7.765625 25.4375 11.546875 27.265625 
Q 15.328125 29.109375 22.46875 30.46875 
Q 32.078125 32.28125 35.796875 33.84375 
L 35.796875 35.203125 
Q 35.796875 39.15625 33.84375 40.84375 
Q 31.890625 42.53125 26.46875 42.53125 
Q 22.796875 42.53125 20.75 41.09375 
Q 18.703125 39.65625 17.4375 36.03125 
z
M 35.796875 24.90625 
Q 33.15625 24.03125 27.4375 22.796875 
Q 21.734375 21.578125 19.96875 20.40625 
Q 17.28125 18.5 17.28125 15.578125 
Q 17.28125 12.703125 19.421875 10.59375 
Q 21.578125 8.5 24.90625 8.5 
Q 28.609375 8.5 31.984375 10.9375 
Q 34.46875 12.796875 35.25 15.484375 
Q 35.796875 17.234375 35.796875 22.171875 
z
" id="Arial-BoldMT-97"/>
       <path d="M 7.171875 0 
L 7.171875 71.578125 
L 20.90625 71.578125 
L 20.90625 0 
z
" id="Arial-BoldMT-108"/>
       <path d="M 6.78125 51.859375 
L 19.578125 51.859375 
L 19.578125 44.234375 
Q 22.078125 48.140625 26.3125 50.578125 
Q 30.5625 53.03125 35.75 53.03125 
Q 44.78125 53.03125 51.078125 45.953125 
Q 57.375 38.875 57.375 26.21875 
Q 57.375 13.234375 51.015625 6.03125 
Q 44.671875 -1.171875 35.640625 -1.171875 
Q 31.34375 -1.171875 27.84375 0.53125 
Q 24.359375 2.25 20.515625 6.390625 
L 20.515625 -19.734375 
L 6.78125 -19.734375 
z
M 20.359375 26.8125 
Q 20.359375 18.0625 23.828125 13.890625 
Q 27.296875 9.71875 32.28125 9.71875 
Q 37.0625 9.71875 40.234375 13.546875 
Q 43.40625 17.390625 43.40625 26.125 
Q 43.40625 34.28125 40.125 38.234375 
Q 36.859375 42.1875 32.03125 42.1875 
Q 27 42.1875 23.671875 38.296875 
Q 20.359375 34.421875 20.359375 26.8125 
z
" id="Arial-BoldMT-112"/>
       <path d="M 6.59375 0 
L 6.59375 71.578125 
L 20.3125 71.578125 
L 20.3125 45.796875 
Q 26.65625 53.03125 35.359375 53.03125 
Q 44.828125 53.03125 51.03125 46.171875 
Q 57.234375 39.3125 57.234375 26.46875 
Q 57.234375 13.1875 50.90625 6 
Q 44.578125 -1.171875 35.546875 -1.171875 
Q 31.109375 -1.171875 26.78125 1.046875 
Q 22.46875 3.265625 19.34375 7.625 
L 19.34375 0 
z
M 20.21875 27.046875 
Q 20.21875 19 22.75 15.140625 
Q 26.3125 9.671875 32.234375 9.671875 
Q 36.765625 9.671875 39.96875 13.546875 
Q 43.171875 17.4375 43.171875 25.78125 
Q 43.171875 34.671875 39.9375 38.59375 
Q 36.71875 42.53125 31.6875 42.53125 
Q 26.765625 42.53125 23.484375 38.6875 
Q 20.21875 34.859375 20.21875 27.046875 
z
" id="Arial-BoldMT-98"/>
       <path d="M 0.6875 51.859375 
L 15.28125 51.859375 
L 27.6875 15.046875 
L 39.796875 51.859375 
L 54 51.859375 
L 35.6875 1.953125 
L 32.421875 -7.078125 
Q 30.609375 -11.625 28.96875 -14.015625 
Q 27.34375 -16.40625 25.21875 -17.890625 
Q 23.09375 -19.390625 19.984375 -20.21875 
Q 16.890625 -21.046875 12.984375 -21.046875 
Q 9.03125 -21.046875 5.21875 -20.21875 
L 4 -9.46875 
Q 7.234375 -10.109375 9.8125 -10.109375 
Q 14.59375 -10.109375 16.890625 -7.296875 
Q 19.1875 -4.5 20.40625 -0.140625 
z
" id="Arial-BoldMT-121"/>
      </defs>
      <use xlink:href="#Arial-BoldMT-83"/>
      <use x="66.699219" xlink:href="#Arial-BoldMT-117"/>
      <use x="127.783203" xlink:href="#Arial-BoldMT-114"/>
      <use x="166.699219" xlink:href="#Arial-BoldMT-118"/>
      <use x="222.314453" xlink:href="#Arial-BoldMT-105"/>
      <use x="250.097656" xlink:href="#Arial-BoldMT-118"/>
      <use x="305.712891" xlink:href="#Arial-BoldMT-97"/>
      <use x="361.328125" xlink:href="#Arial-BoldMT-108"/>
      <use x="389.111328" xlink:href="#Arial-BoldMT-32"/>
      <use x="416.894531" xlink:href="#Arial-BoldMT-112"/>
      <use x="477.978516" xlink:href="#Arial-BoldMT-114"/>
      <use x="516.894531" xlink:href="#Arial-BoldMT-111"/>
      <use x="577.978516" xlink:href="#Arial-BoldMT-98"/>
      <use x="639.0625" xlink:href="#Arial-BoldMT-97"/>
      <use x="694.677734" xlink:href="#Arial-BoldMT-98"/>
      <use x="755.761719" xlink:href="#Arial-BoldMT-105"/>
      <use x="783.544922" xlink:href="#Arial-BoldMT-108"/>
      <use x="811.328125" xlink:href="#Arial-BoldMT-105"/>
      <use x="839.111328" xlink:href="#Arial-BoldMT-116"/>
      <use x="872.412109" xlink:href="#Arial-BoldMT-121"/>
     </g>
    </g>
   </g>
   <g id="PolyCollection_1">
    <defs>
     <path d="M 80.754545 -304.445455 
L 80.754545 -304.445455 
L 85.686364 -304.445455 
L 85.686364 -262.343278 
L 90.618182 -262.343278 
L 90.618182 -249.371567 
L 95.55 -249.371567 
L 95.55 -235.593818 
L 100.481818 -235.593818 
L 100.481818 -229.075889 
L 105.413636 -229.075889 
L 105.413636 -222.442928 
L 110.345455 -222.442928 
L 110.345455 -220.532016 
L 115.277273 -220.532016 
L 115.277273 -218.596166 
L 120.209091 -218.596166 
L 120.209091 -215.616605 
L 125.140909 -215.616605 
L 125.140909 -208.604456 
L 130.072727 -208.604456 
L 130.072727 -204.571793 
L 135.004545 -204.571793 
L 135.004545 -203.547045 
L 139.936364 -203.547045 
L 139.936364 -201.461397 
L 144.868182 -201.461397 
L 144.868182 -195.059854 
L 149.8 -195.059854 
L 149.8 -192.885472 
L 154.731818 -192.885472 
L 154.731818 -191.788676 
L 159.663636 -191.788676 
L 159.663636 -189.575479 
L 164.595455 -189.575479 
L 164.595455 -189.575479 
L 169.527273 -189.575479 
L 169.527273 -185.044155 
L 174.459091 -185.044155 
L 174.459091 -182.748006 
L 179.390909 -182.748006 
L 179.390909 -181.582466 
L 184.322727 -181.582466 
L 184.322727 -179.235204 
L 189.254545 -179.235204 
L 189.254545 -176.852285 
L 194.186364 -176.852285 
L 194.186364 -176.852285 
L 199.118182 -176.852285 
L 199.118182 -173.170661 
L 204.05 -173.170661 
L 204.05 -170.677996 
L 208.981818 -170.677996 
L 208.981818 -170.677996 
L 213.913636 -170.677996 
L 213.913636 -168.055 
L 218.845455 -168.055 
L 218.845455 -168.055 
L 223.777273 -168.055 
L 223.777273 -165.368981 
L 228.709091 -165.368981 
L 228.709091 -162.588107 
L 233.640909 -162.588107 
L 233.640909 -161.190671 
L 238.572727 -161.190671 
L 238.572727 -161.190671 
L 243.504545 -161.190671 
L 243.504545 -161.190671 
L 248.436364 -161.190671 
L 248.436364 -161.190671 
L 253.368182 -161.190671 
L 253.368182 -161.190671 
L 258.3 -161.190671 
L 258.3 -161.190671 
L 263.231818 -161.190671 
L 263.231818 -158.027633 
L 268.163636 -158.027633 
L 268.163636 -158.027633 
L 273.095455 -158.027633 
L 273.095455 -151.528683 
L 278.027273 -151.528683 
L 278.027273 -146.497205 
L 282.959091 -146.497205 
L 282.959091 -146.497205 
L 287.890909 -146.497205 
L 287.890909 -144.74268 
L 292.822727 -144.74268 
L 292.822727 -141.162578 
L 297.754545 -141.162578 
L 297.754545 -137.458381 
L 302.686364 -137.458381 
L 302.686364 -137.458381 
L 307.618182 -137.458381 
L 307.618182 -133.600544 
L 312.55 -133.600544 
L 312.55 -133.600544 
L 317.481818 -133.600544 
L 317.481818 -129.50887 
L 322.413636 -129.50887 
L 322.413636 -127.401148 
L 327.345455 -127.401148 
L 327.345455 -127.401148 
L 332.277273 -127.401148 
L 332.277273 -125.145283 
L 337.209091 -125.145283 
L 337.209091 -122.780784 
L 342.140909 -122.780784 
L 342.140909 -117.718582 
L 347.072727 -117.718582 
L 347.072727 -117.718582 
L 352.004545 -117.718582 
L 352.004545 -114.993406 
L 356.936364 -114.993406 
L 356.936364 -114.993406 
L 361.868182 -114.993406 
L 361.868182 -109.277162 
L 366.8 -109.277162 
L 366.8 -106.269807 
L 371.731818 -106.269807 
L 371.731818 -103.144354 
L 376.663636 -103.144354 
L 376.663636 -99.890318 
L 381.595455 -99.890318 
L 381.595455 -99.890318 
L 386.527273 -99.890318 
L 386.527273 -99.890318 
L 391.459091 -99.890318 
L 391.459091 -99.890318 
L 396.390909 -99.890318 
L 396.390909 -95.683923 
L 401.322727 -95.683923 
L 401.322727 -95.683923 
L 406.254545 -95.683923 
L 406.254545 -95.683923 
L 411.186364 -95.683923 
L 411.186364 -95.683923 
L 416.118182 -95.683923 
L 416.118182 -95.683923 
L 421.05 -95.683923 
L 421.05 -95.683923 
L 425.981818 -95.683923 
L 425.981818 -86.82551 
L 430.913636 -86.82551 
L 430.913636 -74.687768 
L 435.845455 -74.687768 
L 435.845455 -57.354545 
L 435.845455 -132.243761 
L 435.845455 -132.243761 
L 435.845455 -138.147573 
L 430.913636 -138.147573 
L 430.913636 -143.034814 
L 425.981818 -143.034814 
L 425.981818 -147.162823 
L 421.05 -147.162823 
L 421.05 -147.162823 
L 416.118182 -147.162823 
L 416.118182 -147.162823 
L 411.186364 -147.162823 
L 411.186364 -147.162823 
L 406.254545 -147.162823 
L 406.254545 -147.162823 
L 401.322727 -147.162823 
L 401.322727 -147.162823 
L 396.390909 -147.162823 
L 396.390909 -150.014987 
L 391.459091 -150.014987 
L 391.459091 -150.014987 
L 386.527273 -150.014987 
L 386.527273 -150.014987 
L 381.595455 -150.014987 
L 381.595455 -150.014987 
L 376.663636 -150.014987 
L 376.663636 -152.427285 
L 371.731818 -152.427285 
L 371.731818 -154.757774 
L 366.8 -154.757774 
L 366.8 -157.012388 
L 361.868182 -157.012388 
L 361.868182 -161.324882 
L 356.936364 -161.324882 
L 356.936364 -161.324882 
L 352.004545 -161.324882 
L 352.004545 -163.391688 
L 347.072727 -163.391688 
L 347.072727 -163.391688 
L 342.140909 -163.391688 
L 342.140909 -167.287957 
L 337.209091 -167.287957 
L 337.209091 -169.13124 
L 332.277273 -169.13124 
L 332.277273 -170.906168 
L 327.345455 -170.906168 
L 327.345455 -170.906168 
L 322.413636 -170.906168 
L 322.413636 -172.590345 
L 317.481818 -172.590345 
L 317.481818 -175.867578 
L 312.55 -175.867578 
L 312.55 -175.867578 
L 307.618182 -175.867578 
L 307.618182 -178.984703 
L 302.686364 -178.984703 
L 302.686364 -178.984703 
L 297.754545 -178.984703 
L 297.754545 -181.98967 
L 292.822727 -181.98967 
L 292.822727 -184.901017 
L 287.890909 -184.901017 
L 287.890909 -186.328407 
L 282.959091 -186.328407 
L 282.959091 -186.328407 
L 278.027273 -186.328407 
L 278.027273 -190.445291 
L 273.095455 -190.445291 
L 273.095455 -195.751684 
L 268.163636 -195.751684 
L 268.163636 -195.751684 
L 263.231818 -195.751684 
L 263.231818 -198.329476 
L 258.3 -198.329476 
L 258.3 -198.329476 
L 253.368182 -198.329476 
L 253.368182 -198.329476 
L 248.436364 -198.329476 
L 248.436364 -198.329476 
L 243.504545 -198.329476 
L 243.504545 -198.329476 
L 238.572727 -198.329476 
L 238.572727 -198.329476 
L 233.640909 -198.329476 
L 233.640909 -199.498827 
L 228.709091 -199.498827 
L 228.709091 -201.820942 
L 223.777273 -201.820942 
L 223.777273 -204.072447 
L 218.845455 -204.072447 
L 218.845455 -204.072447 
L 213.913636 -204.072447 
L 213.913636 -206.274163 
L 208.981818 -206.274163 
L 208.981818 -206.274163 
L 204.05 -206.274163 
L 204.05 -208.382577 
L 199.118182 -208.382577 
L 199.118182 -211.493305 
L 194.186364 -211.493305 
L 194.186364 -211.493305 
L 189.254545 -211.493305 
L 189.254545 -213.510881 
L 184.322727 -213.510881 
L 184.322727 -215.497981 
L 179.390909 -215.497981 
L 179.390909 -216.483638 
L 174.459091 -216.483638 
L 174.459091 -218.426871 
L 169.527273 -218.426871 
L 169.527273 -222.253576 
L 164.595455 -222.253576 
L 164.595455 -222.253576 
L 159.663636 -222.253576 
L 159.663636 -224.122679 
L 154.731818 -224.122679 
L 154.731818 -225.048433 
L 149.8 -225.048433 
L 149.8 -226.882685 
L 144.868182 -226.882685 
L 144.868182 -232.26943 
L 139.936364 -232.26943 
L 139.936364 -234.021441 
L 135.004545 -234.021441 
L 135.004545 -234.883383 
L 130.072727 -234.883383 
L 130.072727 -238.273718 
L 125.140909 -238.273718 
L 125.140909 -244.124055 
L 120.209091 -244.124055 
L 120.209091 -246.59313 
L 115.277273 -246.59313 
L 115.277273 -248.199322 
L 110.345455 -248.199322 
L 110.345455 -249.783836 
L 105.413636 -249.783836 
L 105.413636 -255.250177 
L 100.481818 -255.250177 
L 100.481818 -260.57244 
L 95.55 -260.57244 
L 95.55 -271.597295 
L 90.618182 -271.597295 
L 90.618182 -281.549321 
L 85.686364 -281.549321 
L 85.686364 -304.445455 
L 80.754545 -304.445455 
z
" id="m2223ca64f1" style="stroke:#4c72b0;stroke-opacity:0.25;"/>
    </defs>
    <g clip-path="url(#p2090a4246a)">
     <use style="fill:#4c72b0;fill-opacity:0.25;stroke:#4c72b0;stroke-opacity:0.25;" x="0" xlink:href="#m2223ca64f1" y="360"/>
    </g>
   </g>
   <g id="PolyCollection_2">
    <defs>
     <path d="M 80.754545 -304.445455 
L 80.754545 -304.445455 
L 85.686364 -304.445455 
L 85.686364 -254.797704 
L 90.618182 -254.797704 
L 90.618182 -240.616411 
L 95.55 -240.616411 
L 95.55 -232.295919 
L 100.481818 -232.295919 
L 100.481818 -224.693641 
L 105.413636 -224.693641 
L 105.413636 -218.281437 
L 110.345455 -218.281437 
L 110.345455 -212.932214 
L 115.277273 -212.932214 
L 115.277273 -207.874239 
L 120.209091 -207.874239 
L 120.209091 -203.522903 
L 125.140909 -203.522903 
L 125.140909 -199.048888 
L 130.072727 -199.048888 
L 130.072727 -195.118721 
L 135.004545 -195.118721 
L 135.004545 -192.437049 
L 139.936364 -192.437049 
L 139.936364 -188.549995 
L 144.868182 -188.549995 
L 144.868182 -185.034699 
L 149.8 -185.034699 
L 149.8 -183.108496 
L 154.731818 -183.108496 
L 154.731818 -178.939167 
L 159.663636 -178.939167 
L 159.663636 -175.933053 
L 164.595455 -175.933053 
L 164.595455 -172.103945 
L 169.527273 -172.103945 
L 169.527273 -170.282711 
L 174.459091 -170.282711 
L 174.459091 -168.412754 
L 179.390909 -168.412754 
L 179.390909 -166.775557 
L 184.322727 -166.775557 
L 184.322727 -165.376242 
L 189.254545 -165.376242 
L 189.254545 -161.669955 
L 194.186364 -161.669955 
L 194.186364 -160.792335 
L 199.118182 -160.792335 
L 199.118182 -159.283949 
L 204.05 -159.283949 
L 204.05 -156.803067 
L 208.981818 -156.803067 
L 208.981818 -155.206368 
L 213.913636 -155.206368 
L 213.913636 -154.548278 
L 218.845455 -154.548278 
L 218.845455 -153.189535 
L 223.777273 -153.189535 
L 223.777273 -151.802899 
L 228.709091 -151.802899 
L 228.709091 -149.677692 
L 233.640909 -149.677692 
L 233.640909 -148.227856 
L 238.572727 -148.227856 
L 238.572727 -146.379081 
L 243.504545 -146.379081 
L 243.504545 -144.483068 
L 248.436364 -144.483068 
L 248.436364 -143.318792 
L 253.368182 -143.318792 
L 253.368182 -141.723931 
L 258.3 -141.723931 
L 258.3 -140.89765 
L 263.231818 -140.89765 
L 263.231818 -140.475017 
L 268.163636 -140.475017 
L 268.163636 -137.009409 
L 273.095455 -137.009409 
L 273.095455 -134.79377 
L 278.027273 -134.79377 
L 278.027273 -133.436975 
L 282.959091 -133.436975 
L 282.959091 -132.506009 
L 287.890909 -132.506009 
L 287.890909 -131.056258 
L 292.822727 -131.056258 
L 292.822727 -129.065921 
L 297.754545 -129.065921 
L 297.754545 -128.556406 
L 302.686364 -128.556406 
L 302.686364 -126.969794 
L 307.618182 -126.969794 
L 307.618182 -124.251477 
L 312.55 -124.251477 
L 312.55 -122.547033 
L 317.481818 -122.547033 
L 317.481818 -121.361969 
L 322.413636 -121.361969 
L 322.413636 -121.361969 
L 327.345455 -121.361969 
L 327.345455 -120.720532 
L 332.277273 -120.720532 
L 332.277273 -120.720532 
L 337.209091 -120.720532 
L 337.209091 -118.632207 
L 342.140909 -118.632207 
L 342.140909 -114.963992 
L 347.072727 -114.963992 
L 347.072727 -113.408181 
L 352.004545 -113.408181 
L 352.004545 -112.592032 
L 356.936364 -112.592032 
L 356.936364 -111.722738 
L 361.868182 -111.722738 
L 361.868182 -109.888346 
L 366.8 -109.888346 
L 366.8 -106.931254 
L 371.731818 -106.931254 
L 371.731818 -105.889966 
L 376.663636 -105.889966 
L 376.663636 -103.695156 
L 381.595455 -103.695156 
L 381.595455 -102.503204 
L 386.527273 -102.503204 
L 386.527273 -101.240286 
L 391.459091 -101.240286 
L 391.459091 -101.240286 
L 396.390909 -101.240286 
L 396.390909 -99.708623 
L 401.322727 -99.708623 
L 401.322727 -98.019801 
L 406.254545 -98.019801 
L 406.254545 -96.19746 
L 411.186364 -96.19746 
L 411.186364 -94.196184 
L 416.118182 -94.196184 
L 416.118182 -94.196184 
L 421.05 -94.196184 
L 421.05 -91.280034 
L 425.981818 -91.280034 
L 425.981818 -87.517758 
L 430.913636 -87.517758 
L 430.913636 -87.517758 
L 435.845455 -87.517758 
L 435.845455 -87.517758 
L 435.845455 -117.959468 
L 435.845455 -117.959468 
L 435.845455 -117.959468 
L 430.913636 -117.959468 
L 430.913636 -117.959468 
L 425.981818 -117.959468 
L 425.981818 -119.903763 
L 421.05 -119.903763 
L 421.05 -121.585752 
L 416.118182 -121.585752 
L 416.118182 -121.585752 
L 411.186364 -121.585752 
L 411.186364 -122.932516 
L 406.254545 -122.932516 
L 406.254545 -124.19092 
L 401.322727 -124.19092 
L 401.322727 -125.3796 
L 396.390909 -125.3796 
L 396.390909 -126.486763 
L 391.459091 -126.486763 
L 391.459091 -126.486763 
L 386.527273 -126.486763 
L 386.527273 -127.45195 
L 381.595455 -127.45195 
L 381.595455 -128.374467 
L 376.663636 -128.374467 
L 376.663636 -130.103385 
L 371.731818 -130.103385 
L 371.731818 -130.93118 
L 366.8 -130.93118 
L 366.8 -133.302212 
L 361.868182 -133.302212 
L 361.868182 -134.790003 
L 356.936364 -134.790003 
L 356.936364 -135.501705 
L 352.004545 -135.501705 
L 352.004545 -136.178308 
L 347.072727 -136.178308 
L 347.072727 -137.478491 
L 342.140909 -137.478491 
L 342.140909 -140.565993 
L 337.209091 -140.565993 
L 337.209091 -142.332746 
L 332.277273 -142.332746 
L 332.277273 -142.332746 
L 327.345455 -142.332746 
L 327.345455 -142.882863 
L 322.413636 -142.882863 
L 322.413636 -142.882863 
L 317.481818 -142.882863 
L 317.481818 -143.912819 
L 312.55 -143.912819 
L 312.55 -145.402049 
L 307.618182 -145.402049 
L 307.618182 -147.787687 
L 302.686364 -147.787687 
L 302.686364 -149.182397 
L 297.754545 -149.182397 
L 297.754545 -149.632421 
L 292.822727 -149.632421 
L 292.822727 -151.394275 
L 287.890909 -151.394275 
L 287.890909 -152.680761 
L 282.959091 -152.680761 
L 282.959091 -153.510522 
L 278.027273 -153.510522 
L 278.027273 -154.723517 
L 273.095455 -154.723517 
L 273.095455 -156.706296 
L 268.163636 -156.706296 
L 268.163636 -159.807921 
L 263.231818 -159.807921 
L 263.231818 -160.186693 
L 258.3 -160.186693 
L 258.3 -160.929165 
L 253.368182 -160.929165 
L 253.368182 -162.367681 
L 248.436364 -162.367681 
L 248.436364 -163.420272 
L 243.504545 -163.420272 
L 243.504545 -165.137198 
L 238.572727 -165.137198 
L 238.572727 -166.813935 
L 233.640909 -166.813935 
L 233.640909 -168.130222 
L 228.709091 -168.130222 
L 228.709091 -170.062213 
L 223.777273 -170.062213 
L 223.777273 -171.324206 
L 218.845455 -171.324206 
L 218.845455 -172.562464 
L 213.913636 -172.562464 
L 213.913636 -173.164076 
L 208.981818 -173.164076 
L 208.981818 -174.627748 
L 204.05 -174.627748 
L 204.05 -176.906134 
L 199.118182 -176.906134 
L 199.118182 -178.293674 
L 194.186364 -178.293674 
L 194.186364 -179.103128 
L 189.254545 -179.103128 
L 189.254545 -182.525615 
L 184.322727 -182.525615 
L 184.322727 -183.817949 
L 179.390909 -183.817949 
L 179.390909 -185.332552 
L 174.459091 -185.332552 
L 174.459091 -187.064306 
L 169.527273 -187.064306 
L 169.527273 -188.753545 
L 164.595455 -188.753545 
L 164.595455 -192.305223 
L 159.663636 -192.305223 
L 159.663636 -195.092279 
L 154.731818 -195.092279 
L 154.731818 -198.956463 
L 149.8 -198.956463 
L 149.8 -200.741201 
L 144.868182 -200.741201 
L 144.868182 -204.001204 
L 139.936364 -204.001204 
L 139.936364 -207.605576 
L 135.004545 -207.605576 
L 135.004545 -210.092194 
L 130.072727 -210.092194 
L 130.072727 -213.736458 
L 125.140909 -213.736458 
L 125.140909 -217.882647 
L 120.209091 -217.882647 
L 120.209091 -221.913356 
L 115.277273 -221.913356 
L 115.277273 -226.59331 
L 110.345455 -226.59331 
L 110.345455 -231.533138 
L 105.413636 -231.533138 
L 105.413636 -237.437677 
L 100.481818 -237.437677 
L 100.481818 -244.410746 
L 95.55 -244.410746 
L 95.55 -252.00583 
L 90.618182 -252.00583 
L 90.618182 -264.82713 
L 85.686364 -264.82713 
L 85.686364 -304.445455 
L 80.754545 -304.445455 
z
" id="m1947b34cbf" style="stroke:#dd8452;stroke-opacity:0.25;"/>
    </defs>
    <g clip-path="url(#p2090a4246a)">
     <use style="fill:#dd8452;fill-opacity:0.25;stroke:#dd8452;stroke-opacity:0.25;" x="0" xlink:href="#m1947b34cbf" y="360"/>
    </g>
   </g>
   <g id="PolyCollection_3">
    <defs>
     <path d="M 80.754545 -304.445455 
L 80.754545 -304.445455 
L 85.686364 -304.445455 
L 85.686364 -289.549875 
L 90.618182 -289.549875 
L 90.618182 -283.457575 
L 95.55 -283.457575 
L 95.55 -276.630165 
L 100.481818 -276.630165 
L 100.481818 -269.448648 
L 105.413636 -269.448648 
L 105.413636 -264.659912 
L 110.345455 -264.659912 
L 110.345455 -262.462771 
L 115.277273 -262.462771 
L 115.277273 -257.663659 
L 120.209091 -257.663659 
L 120.209091 -254.061094 
L 125.140909 -254.061094 
L 125.140909 -250.449248 
L 130.072727 -250.449248 
L 130.072727 -245.818647 
L 135.004545 -245.818647 
L 135.004545 -242.181422 
L 139.936364 -242.181422 
L 139.936364 -238.327763 
L 144.868182 -238.327763 
L 144.868182 -234.857032 
L 149.8 -234.857032 
L 149.8 -231.988569 
L 154.731818 -231.988569 
L 154.731818 -228.078196 
L 159.663636 -228.078196 
L 159.663636 -225.175772 
L 164.595455 -225.175772 
L 164.595455 -222.881499 
L 169.527273 -222.881499 
L 169.527273 -220.145784 
L 174.459091 -220.145784 
L 174.459091 -218.01912 
L 179.390909 -218.01912 
L 179.390909 -215.665504 
L 184.322727 -215.665504 
L 184.322727 -213.515649 
L 189.254545 -213.515649 
L 189.254545 -210.923444 
L 194.186364 -210.923444 
L 194.186364 -208.743237 
L 199.118182 -208.743237 
L 199.118182 -205.437631 
L 204.05 -205.437631 
L 204.05 -202.535731 
L 208.981818 -202.535731 
L 208.981818 -200.291986 
L 213.913636 -200.291986 
L 213.913636 -198.257515 
L 218.845455 -198.257515 
L 218.845455 -196.431417 
L 223.777273 -196.431417 
L 223.777273 -194.363267 
L 228.709091 -194.363267 
L 228.709091 -192.505445 
L 233.640909 -192.505445 
L 233.640909 -189.913787 
L 238.572727 -189.913787 
L 238.572727 -186.578354 
L 243.504545 -186.578354 
L 243.504545 -184.413112 
L 248.436364 -184.413112 
L 248.436364 -182.224559 
L 253.368182 -182.224559 
L 253.368182 -179.520607 
L 258.3 -179.520607 
L 258.3 -177.517942 
L 263.231818 -177.517942 
L 263.231818 -174.492847 
L 268.163636 -174.492847 
L 268.163636 -173.216935 
L 273.095455 -173.216935 
L 273.095455 -171.92311 
L 278.027273 -171.92311 
L 278.027273 -170.095421 
L 282.959091 -170.095421 
L 282.959091 -166.922314 
L 287.890909 -166.922314 
L 287.890909 -164.243995 
L 292.822727 -164.243995 
L 292.822727 -161.798173 
L 297.754545 -161.798173 
L 297.754545 -160.969843 
L 302.686364 -160.969843 
L 302.686364 -160.134235 
L 307.618182 -160.134235 
L 307.618182 -158.711248 
L 312.55 -158.711248 
L 312.55 -155.528511 
L 317.481818 -155.528511 
L 317.481818 -154.058184 
L 322.413636 -154.058184 
L 322.413636 -149.867003 
L 327.345455 -149.867003 
L 327.345455 -147.129652 
L 332.277273 -147.129652 
L 332.277273 -144.950941 
L 337.209091 -144.950941 
L 337.209091 -143.676754 
L 342.140909 -143.676754 
L 342.140909 -141.385407 
L 347.072727 -141.385407 
L 347.072727 -137.716237 
L 352.004545 -137.716237 
L 352.004545 -135.329089 
L 356.936364 -135.329089 
L 356.936364 -132.188833 
L 361.868182 -132.188833 
L 361.868182 -130.735667 
L 366.8 -130.735667 
L 366.8 -128.138639 
L 371.731818 -128.138639 
L 371.731818 -125.843025 
L 376.663636 -125.843025 
L 376.663636 -124.660111 
L 381.595455 -124.660111 
L 381.595455 -121.797009 
L 386.527273 -121.797009 
L 386.527273 -120.074935 
L 391.459091 -120.074935 
L 391.459091 -118.27685 
L 396.390909 -118.27685 
L 396.390909 -117.332151 
L 401.322727 -117.332151 
L 401.322727 -113.29168 
L 406.254545 -113.29168 
L 406.254545 -106.806801 
L 411.186364 -106.806801 
L 411.186364 -101.56249 
L 416.118182 -101.56249 
L 416.118182 -95.852719 
L 421.05 -95.852719 
L 421.05 -90.93967 
L 425.981818 -90.93967 
L 425.981818 -83.946554 
L 430.913636 -83.946554 
L 430.913636 -79.296696 
L 435.845455 -79.296696 
L 435.845455 -72.632514 
L 435.845455 -100.269555 
L 435.845455 -100.269555 
L 435.845455 -105.433329 
L 430.913636 -105.433329 
L 430.913636 -109.329047 
L 425.981818 -109.329047 
L 425.981818 -115.353412 
L 421.05 -115.353412 
L 421.05 -119.629538 
L 416.118182 -119.629538 
L 416.118182 -124.653282 
L 411.186364 -124.653282 
L 411.186364 -129.301826 
L 406.254545 -129.301826 
L 406.254545 -135.079657 
L 401.322727 -135.079657 
L 401.322727 -138.695666 
L 396.390909 -138.695666 
L 396.390909 -139.547405 
L 391.459091 -139.547405 
L 391.459091 -141.178089 
L 386.527273 -141.178089 
L 386.527273 -142.746736 
L 381.595455 -142.746736 
L 381.595455 -145.367637 
L 376.663636 -145.367637 
L 376.663636 -146.453831 
L 371.731818 -146.453831 
L 371.731818 -148.566937 
L 366.8 -148.566937 
L 366.8 -150.962108 
L 361.868182 -150.962108 
L 361.868182 -152.303686 
L 356.936364 -152.303686 
L 356.936364 -155.21211 
L 352.004545 -155.21211 
L 352.004545 -157.424542 
L 347.072727 -157.424542 
L 347.072727 -160.826521 
L 342.140909 -160.826521 
L 342.140909 -162.951077 
L 337.209091 -162.951077 
L 337.209091 -164.134737 
L 332.277273 -164.134737 
L 332.277273 -166.161595 
L 327.345455 -166.161595 
L 327.345455 -168.71049 
L 322.413636 -168.71049 
L 322.413636 -172.610802 
L 317.481818 -172.610802 
L 317.481818 -173.979153 
L 312.55 -173.979153 
L 312.55 -176.94177 
L 307.618182 -176.94177 
L 307.618182 -178.266674 
L 302.686364 -178.266674 
L 302.686364 -179.045921 
L 297.754545 -179.045921 
L 297.754545 -179.818686 
L 292.822727 -179.818686 
L 292.822727 -182.101901 
L 287.890909 -182.101901 
L 287.890909 -184.601878 
L 282.959091 -184.601878 
L 282.959091 -187.562089 
L 278.027273 -187.562089 
L 278.027273 -189.266647 
L 273.095455 -189.266647 
L 273.095455 -190.473217 
L 268.163636 -190.473217 
L 268.163636 -191.663827 
L 263.231818 -191.663827 
L 263.231818 -194.486341 
L 258.3 -194.486341 
L 258.3 -196.353194 
L 253.368182 -196.353194 
L 253.368182 -198.874666 
L 248.436364 -198.874666 
L 248.436364 -200.914532 
L 243.504545 -200.914532 
L 243.504545 -202.932007 
L 238.572727 -202.932007 
L 238.572727 -206.037262 
L 233.640909 -206.037262 
L 233.640909 -208.448022 
L 228.709091 -208.448022 
L 228.709091 -210.176126 
L 223.777273 -210.176126 
L 223.777273 -212.099381 
L 218.845455 -212.099381 
L 218.845455 -213.796437 
L 213.913636 -213.796437 
L 213.913636 -215.6865 
L 208.981818 -215.6865 
L 208.981818 -217.769455 
L 204.05 -217.769455 
L 204.05 -220.459881 
L 199.118182 -220.459881 
L 199.118182 -223.521736 
L 194.186364 -223.521736 
L 194.186364 -225.539312 
L 189.254545 -225.539312 
L 189.254545 -227.936129 
L 184.322727 -227.936129 
L 184.322727 -229.921293 
L 179.390909 -229.921293 
L 179.390909 -232.091817 
L 174.459091 -232.091817 
L 174.459091 -234.050742 
L 169.527273 -234.050742 
L 169.527273 -236.56842 
L 164.595455 -236.56842 
L 164.595455 -238.677347 
L 159.663636 -238.677347 
L 159.663636 -241.340976 
L 154.731818 -241.340976 
L 154.731818 -244.921373 
L 149.8 -244.921373 
L 149.8 -247.540599 
L 144.868182 -247.540599 
L 144.868182 -250.700916 
L 139.936364 -250.700916 
L 139.936364 -254.198825 
L 135.004545 -254.198825 
L 135.004545 -257.487603 
L 130.072727 -257.487603 
L 130.072727 -261.654954 
L 125.140909 -261.654954 
L 125.140909 -264.888632 
L 120.209091 -264.888632 
L 120.209091 -268.097662 
L 115.277273 -268.097662 
L 115.277273 -272.343076 
L 110.345455 -272.343076 
L 110.345455 -274.274375 
L 105.413636 -274.274375 
L 105.413636 -278.453198 
L 100.481818 -278.453198 
L 100.481818 -284.62501 
L 95.55 -284.62501 
L 95.55 -290.345979 
L 90.618182 -290.345979 
L 90.618182 -295.270845 
L 85.686364 -295.270845 
L 85.686364 -304.445455 
L 80.754545 -304.445455 
z
" id="maee58e02f0" style="stroke:#55a868;stroke-opacity:0.25;"/>
    </defs>
    <g clip-path="url(#p2090a4246a)">
     <use style="fill:#55a868;fill-opacity:0.25;stroke:#55a868;stroke-opacity:0.25;" x="0" xlink:href="#maee58e02f0" y="360"/>
    </g>
   </g>
   <g id="line2d_14">
    <path clip-path="url(#p2090a4246a)" d="M 80.754545 55.554545 
L 85.686364 55.554545 
L 85.686364 86.647181 
L 90.618182 86.647181 
L 90.618182 98.149585 
L 95.55 98.149585 
L 95.55 110.59642 
L 100.481818 110.59642 
L 100.481818 116.536494 
L 105.413636 116.536494 
L 105.413636 122.605003 
L 110.345455 122.605003 
L 110.345455 124.358057 
L 115.277273 124.358057 
L 115.277273 126.134134 
L 120.209091 126.134134 
L 120.209091 128.865109 
L 125.140909 128.865109 
L 125.140909 135.3125 
L 130.072727 135.3125 
L 130.072727 139.033788 
L 135.004545 139.033788 
L 135.004545 139.979456 
L 139.936364 139.979456 
L 139.936364 141.902578 
L 144.868182 141.902578 
L 144.868182 147.809014 
L 149.8 147.809014 
L 149.8 149.817378 
L 154.731818 149.817378 
L 154.731818 150.830648 
L 159.663636 150.830648 
L 159.663636 152.875736 
L 169.527273 152.875736 
L 169.527273 157.062154 
L 174.459091 157.062154 
L 174.459091 159.185625 
L 179.390909 159.185625 
L 179.390909 160.263013 
L 184.322727 160.263013 
L 184.322727 162.43383 
L 189.254545 162.43383 
L 189.254545 164.637621 
L 199.118182 164.637621 
L 199.118182 168.038497 
L 204.05 168.038497 
L 204.05 170.342219 
L 213.913636 170.342219 
L 213.913636 172.756571 
L 223.777273 172.756571 
L 223.777273 175.227071 
L 228.709091 175.227071 
L 228.709091 177.779672 
L 233.640909 177.779672 
L 233.640909 179.063779 
L 263.231818 179.063779 
L 263.231818 181.93103 
L 273.095455 181.93103 
L 273.095455 187.828215 
L 278.027273 187.828215 
L 278.027273 192.399081 
L 287.890909 192.399081 
L 287.890909 193.988428 
L 292.822727 193.988428 
L 292.822727 197.230951 
L 297.754545 197.230951 
L 297.754545 200.582011 
L 307.618182 200.582011 
L 307.618182 204.065349 
L 317.481818 204.065349 
L 317.481818 207.744014 
L 322.413636 207.744014 
L 322.413636 209.63692 
L 332.277273 209.63692 
L 332.277273 211.647519 
L 337.209091 211.647519 
L 337.209091 213.745535 
L 342.140909 213.745535 
L 342.140909 218.209919 
L 352.004545 218.209919 
L 352.004545 220.59654 
L 361.868182 220.59654 
L 361.868182 225.591056 
L 366.8 225.591056 
L 366.8 228.211419 
L 371.731818 228.211419 
L 371.731818 230.928118 
L 376.663636 230.928118 
L 376.663636 233.749306 
L 396.390909 233.749306 
L 396.390909 237.248664 
L 425.981818 237.248664 
L 425.981818 243.572066 
L 430.913636 243.572066 
L 430.913636 251.807193 
L 435.845455 251.807193 
L 435.845455 262.964463 
L 435.845455 262.964463 
" style="fill:none;stroke:#4c72b0;stroke-linecap:round;stroke-width:1.5;"/>
   </g>
   <g id="line2d_15">
    <path clip-path="url(#p2090a4246a)" d="M 80.754545 55.554545 
L 85.686364 55.554545 
L 85.686364 99.917753 
L 90.618182 99.917753 
L 90.618182 113.426313 
L 95.55 113.426313 
L 95.55 121.388144 
L 100.481818 121.388144 
L 100.481818 128.679294 
L 105.413636 128.679294 
L 105.413636 134.840563 
L 110.345455 134.840563 
L 110.345455 139.987488 
L 115.277273 139.987488 
L 115.277273 144.858657 
L 120.209091 144.858657 
L 120.209091 149.051471 
L 125.140909 149.051471 
L 125.140909 153.363257 
L 130.072727 153.363257 
L 130.072727 157.151863 
L 135.004545 157.151863 
L 135.004545 159.736885 
L 139.936364 159.736885 
L 139.936364 163.483778 
L 144.868182 163.483778 
L 144.868182 166.872426 
L 149.8 166.872426 
L 149.8 168.728366 
L 154.731818 168.728366 
L 154.731818 172.746118 
L 159.663636 172.746118 
L 159.663636 175.643412 
L 164.595455 175.643412 
L 164.595455 179.334717 
L 169.527273 179.334717 
L 169.527273 181.090373 
L 174.459091 181.090373 
L 174.459091 182.891575 
L 179.390909 182.891575 
L 179.390909 184.467728 
L 184.322727 184.467728 
L 184.322727 185.813704 
L 189.254545 185.813704 
L 189.254545 189.378481 
L 194.186364 189.378481 
L 194.186364 190.222085 
L 199.118182 190.222085 
L 199.118182 191.670061 
L 204.05 191.670061 
L 204.05 194.049621 
L 208.981818 194.049621 
L 208.981818 195.579693 
L 213.913636 195.579693 
L 213.913636 196.209455 
L 218.845455 196.209455 
L 218.845455 197.50767 
L 223.777273 197.50767 
L 223.777273 198.831656 
L 228.709091 198.831656 
L 228.709091 200.859712 
L 233.640909 200.859712 
L 233.640909 202.24237 
L 238.572727 202.24237 
L 238.572727 204.004581 
L 243.504545 204.004581 
L 243.504545 205.810443 
L 248.436364 205.810443 
L 248.436364 206.91847 
L 253.368182 206.91847 
L 253.368182 208.434528 
L 258.3 208.434528 
L 258.3 209.218512 
L 263.231818 209.218512 
L 263.231818 209.618991 
L 268.163636 209.618991 
L 268.163636 212.900712 
L 273.095455 212.900712 
L 273.095455 214.998759 
L 278.027273 214.998759 
L 278.027273 216.282933 
L 282.959091 216.282933 
L 282.959091 217.162748 
L 287.890909 217.162748 
L 287.890909 218.529885 
L 292.822727 218.529885 
L 292.822727 220.404558 
L 297.754545 220.404558 
L 297.754545 220.883945 
L 302.686364 220.883945 
L 302.686364 222.373268 
L 307.618182 222.373268 
L 307.618182 224.922923 
L 312.55 224.922923 
L 312.55 226.518186 
L 317.481818 226.518186 
L 317.481818 227.624488 
L 327.345455 227.624488 
L 327.345455 228.219437 
L 337.209091 228.219437 
L 337.209091 230.143724 
L 342.140909 230.143724 
L 342.140909 233.515639 
L 347.072727 233.515639 
L 347.072727 234.94095 
L 352.004545 234.94095 
L 352.004545 235.6858 
L 356.936364 235.6858 
L 356.936364 236.474463 
L 361.868182 236.474463 
L 361.868182 238.131381 
L 366.8 238.131381 
L 366.8 240.788163 
L 371.731818 240.788163 
L 371.731818 241.720002 
L 376.663636 241.720002 
L 376.663636 243.675841 
L 381.595455 243.675841 
L 381.595455 244.729432 
L 386.527273 244.729432 
L 386.527273 245.839347 
L 396.390909 245.839347 
L 396.390909 247.152195 
L 401.322727 247.152195 
L 401.322727 248.582931 
L 406.254545 248.582931 
L 406.254545 250.11407 
L 411.186364 250.11407 
L 411.186364 251.777077 
L 421.05 251.777077 
L 421.05 254.052771 
L 425.981818 254.052771 
L 425.981818 256.869409 
L 435.845455 256.869409 
L 435.845455 256.869409 
" style="fill:none;stroke:#dd8452;stroke-linecap:round;stroke-width:1.5;"/>
   </g>
   <g id="line2d_16">
    <path clip-path="url(#p2090a4246a)" d="M 80.754545 55.554545 
L 85.686364 55.554545 
L 85.686364 67.248577 
L 90.618182 67.248577 
L 90.618182 72.762444 
L 95.55 72.762444 
L 95.55 79.042276 
L 100.481818 79.042276 
L 100.481818 85.724828 
L 105.413636 85.724828 
L 105.413636 90.212405 
L 110.345455 90.212405 
L 110.345455 92.278346 
L 115.277273 92.278346 
L 115.277273 96.804353 
L 120.209091 96.804353 
L 120.209091 100.212976 
L 125.140909 100.212976 
L 125.140909 103.638551 
L 130.072727 103.638551 
L 130.072727 108.041113 
L 135.004545 108.041113 
L 135.004545 111.506919 
L 139.936364 111.506919 
L 139.936364 115.185668 
L 144.868182 115.185668 
L 144.868182 118.50381 
L 149.8 118.50381 
L 149.8 121.24982 
L 154.731818 121.24982 
L 154.731818 124.998152 
L 159.663636 124.998152 
L 159.663636 127.783329 
L 164.595455 127.783329 
L 164.595455 129.986608 
L 169.527273 129.986608 
L 169.527273 132.615249 
L 174.459091 132.615249 
L 174.459091 134.659501 
L 179.390909 134.659501 
L 179.390909 136.923169 
L 184.322727 136.923169 
L 184.322727 138.992138 
L 189.254545 138.992138 
L 189.254545 141.488412 
L 194.186364 141.488412 
L 194.186364 143.588754 
L 199.118182 143.588754 
L 199.118182 146.774631 
L 204.05 146.774631 
L 204.05 149.572628 
L 208.981818 149.572628 
L 208.981818 151.73741 
L 213.913636 151.73741 
L 213.913636 153.700965 
L 218.845455 153.700965 
L 218.845455 155.463671 
L 223.777273 155.463671 
L 223.777273 157.460646 
L 228.709091 157.460646 
L 228.709091 159.254724 
L 233.640909 159.254724 
L 233.640909 161.757425 
L 238.572727 161.757425 
L 238.572727 164.979681 
L 243.504545 164.979681 
L 243.504545 167.072279 
L 248.436364 167.072279 
L 248.436364 169.187723 
L 253.368182 169.187723 
L 253.368182 171.801945 
L 258.3 171.801945 
L 258.3 173.737766 
L 263.231818 173.737766 
L 263.231818 176.663205 
L 268.163636 176.663205 
L 268.163636 177.897142 
L 273.095455 177.897142 
L 273.095455 179.147992 
L 278.027273 179.147992 
L 278.027273 180.915026 
L 282.959091 180.915026 
L 282.959091 183.983253 
L 287.890909 183.983253 
L 287.890909 186.573731 
L 292.822727 186.573731 
L 292.822727 188.939446 
L 297.754545 188.939446 
L 297.754545 189.74038 
L 302.686364 189.74038 
L 302.686364 190.548186 
L 307.618182 190.548186 
L 307.618182 191.922712 
L 312.55 191.922712 
L 312.55 194.99665 
L 317.481818 194.99665 
L 317.481818 196.416558 
L 322.413636 196.416558 
L 322.413636 200.463909 
L 327.345455 200.463909 
L 327.345455 203.108116 
L 332.277273 203.108116 
L 332.277273 205.211712 
L 337.209091 205.211712 
L 337.209091 206.441064 
L 342.140909 206.441064 
L 342.140909 208.649686 
L 347.072727 208.649686 
L 347.072727 212.186348 
L 352.004545 212.186348 
L 352.004545 214.486837 
L 356.936364 214.486837 
L 356.936364 217.512066 
L 361.868182 217.512066 
L 361.868182 218.909752 
L 366.8 218.909752 
L 366.8 221.406371 
L 371.731818 221.406371 
L 371.731818 223.611114 
L 376.663636 223.611114 
L 376.663636 224.74581 
L 381.595455 224.74581 
L 381.595455 227.487992 
L 386.527273 227.487992 
L 386.527273 229.133301 
L 391.459091 229.133301 
L 391.459091 230.847484 
L 396.390909 230.847484 
L 396.390909 231.745489 
L 401.322727 231.745489 
L 401.322727 235.572282 
L 406.254545 235.572282 
L 406.254545 241.701087 
L 411.186364 241.701087 
L 411.186364 246.645274 
L 416.118182 246.645274 
L 416.118182 252.009172 
L 421.05 252.009172 
L 421.05 256.600659 
L 425.981818 256.600659 
L 425.981818 263.104339 
L 430.913636 263.104339 
L 430.913636 267.371918 
L 435.845455 267.371918 
L 435.845455 273.270322 
L 435.845455 273.270322 
" style="fill:none;stroke:#55a868;stroke-linecap:round;stroke-width:1.5;"/>
   </g>
   <g id="patch_3">
    <path d="M 63 315 
L 63 43.2 
" style="fill:none;stroke:#ffffff;stroke-linecap:square;stroke-linejoin:miter;stroke-width:1.25;"/>
   </g>
   <g id="patch_4">
    <path d="M 453.6 315 
L 453.6 43.2 
" style="fill:none;stroke:#ffffff;stroke-linecap:square;stroke-linejoin:miter;stroke-width:1.25;"/>
   </g>
   <g id="patch_5">
    <path d="M 63 315 
L 453.6 315 
" style="fill:none;stroke:#ffffff;stroke-linecap:square;stroke-linejoin:miter;stroke-width:1.25;"/>
   </g>
   <g id="patch_6">
    <path d="M 63 43.2 
L 453.6 43.2 
" style="fill:none;stroke:#ffffff;stroke-linecap:square;stroke-linejoin:miter;stroke-width:1.25;"/>
   </g>
   <g id="text_16">
    <!-- Survival curves, stratified by MultipleLines -->
    <g style="fill:#262626;" transform="translate(136.604062 33.2)scale(0.12 -0.12)">
     <defs>
      <path d="M 52.390625 36.53125 
L 38.875 34.078125 
Q 38.1875 38.140625 35.765625 40.1875 
Q 33.34375 42.234375 29.5 42.234375 
Q 24.359375 42.234375 21.3125 38.6875 
Q 18.265625 35.15625 18.265625 26.859375 
Q 18.265625 17.625 21.359375 13.8125 
Q 24.46875 10.015625 29.6875 10.015625 
Q 33.59375 10.015625 36.078125 12.234375 
Q 38.578125 14.453125 39.59375 19.875 
L 53.078125 17.578125 
Q 50.984375 8.296875 45.015625 3.5625 
Q 39.0625 -1.171875 29.046875 -1.171875 
Q 17.671875 -1.171875 10.90625 6 
Q 4.15625 13.1875 4.15625 25.875 
Q 4.15625 38.71875 10.9375 45.875 
Q 17.71875 53.03125 29.296875 53.03125 
Q 38.765625 53.03125 44.359375 48.953125 
Q 49.953125 44.875 52.390625 36.53125 
z
" id="Arial-BoldMT-99"/>
      <path d="M 6.84375 13.71875 
L 20.5625 13.71875 
L 20.5625 3.90625 
Q 20.5625 -2.046875 19.53125 -5.484375 
Q 18.5 -8.9375 15.640625 -11.671875 
Q 12.796875 -14.40625 8.40625 -15.96875 
L 5.71875 -10.296875 
Q 9.859375 -8.9375 11.609375 -6.546875 
Q 13.375 -4.15625 13.484375 0 
L 6.84375 0 
z
" id="Arial-BoldMT-44"/>
      <path d="M 1.171875 51.859375 
L 8.796875 51.859375 
L 8.796875 55.765625 
Q 8.796875 62.3125 10.1875 65.53125 
Q 11.578125 68.75 15.3125 70.765625 
Q 19.046875 72.796875 24.75 72.796875 
Q 30.609375 72.796875 36.234375 71.046875 
L 34.375 61.46875 
Q 31.109375 62.25 28.078125 62.25 
Q 25.09375 62.25 23.796875 60.859375 
Q 22.515625 59.46875 22.515625 55.515625 
L 22.515625 51.859375 
L 32.765625 51.859375 
L 32.765625 41.0625 
L 22.515625 41.0625 
L 22.515625 0 
L 8.796875 0 
L 8.796875 41.0625 
L 1.171875 41.0625 
z
" id="Arial-BoldMT-102"/>
      <path d="M 54.734375 0 
L 42 0 
L 42 7.625 
Q 38.8125 3.171875 34.484375 1 
Q 30.171875 -1.171875 25.78125 -1.171875 
Q 16.84375 -1.171875 10.46875 6.03125 
Q 4.109375 13.234375 4.109375 26.125 
Q 4.109375 39.3125 10.296875 46.171875 
Q 16.5 53.03125 25.984375 53.03125 
Q 34.671875 53.03125 41.015625 45.796875 
L 41.015625 71.578125 
L 54.734375 71.578125 
z
M 18.109375 27.046875 
Q 18.109375 18.75 20.40625 15.046875 
Q 23.734375 9.671875 29.6875 9.671875 
Q 34.421875 9.671875 37.734375 13.6875 
Q 41.0625 17.71875 41.0625 25.734375 
Q 41.0625 34.671875 37.84375 38.59375 
Q 34.625 42.53125 29.59375 42.53125 
Q 24.703125 42.53125 21.40625 38.640625 
Q 18.109375 34.765625 18.109375 27.046875 
z
" id="Arial-BoldMT-100"/>
      <path d="M 7.078125 0 
L 7.078125 71.578125 
L 28.71875 71.578125 
L 41.703125 22.75 
L 54.546875 71.578125 
L 76.21875 71.578125 
L 76.21875 0 
L 62.796875 0 
L 62.796875 56.34375 
L 48.578125 0 
L 34.671875 0 
L 20.515625 56.34375 
L 20.515625 0 
z
" id="Arial-BoldMT-77"/>
      <path d="M 7.671875 0 
L 7.671875 71 
L 22.125 71 
L 22.125 12.0625 
L 58.0625 12.0625 
L 58.0625 0 
z
" id="Arial-BoldMT-76"/>
     </defs>
     <use xlink:href="#Arial-BoldMT-83"/>
     <use x="66.699219" xlink:href="#Arial-BoldMT-117"/>
     <use x="127.783203" xlink:href="#Arial-BoldMT-114"/>
     <use x="166.699219" xlink:href="#Arial-BoldMT-118"/>
     <use x="222.314453" xlink:href="#Arial-BoldMT-105"/>
     <use x="250.097656" xlink:href="#Arial-BoldMT-118"/>
     <use x="305.712891" xlink:href="#Arial-BoldMT-97"/>
     <use x="361.328125" xlink:href="#Arial-BoldMT-108"/>
     <use x="389.111328" xlink:href="#Arial-BoldMT-32"/>
     <use x="416.894531" xlink:href="#Arial-BoldMT-99"/>
     <use x="472.509766" xlink:href="#Arial-BoldMT-117"/>
     <use x="533.59375" xlink:href="#Arial-BoldMT-114"/>
     <use x="572.509766" xlink:href="#Arial-BoldMT-118"/>
     <use x="628.125" xlink:href="#Arial-BoldMT-101"/>
     <use x="683.740234" xlink:href="#Arial-BoldMT-115"/>
     <use x="739.355469" xlink:href="#Arial-BoldMT-44"/>
     <use x="767.138672" xlink:href="#Arial-BoldMT-32"/>
     <use x="794.921875" xlink:href="#Arial-BoldMT-115"/>
     <use x="850.537109" xlink:href="#Arial-BoldMT-116"/>
     <use x="883.837891" xlink:href="#Arial-BoldMT-114"/>
     <use x="922.753906" xlink:href="#Arial-BoldMT-97"/>
     <use x="978.369141" xlink:href="#Arial-BoldMT-116"/>
     <use x="1011.669922" xlink:href="#Arial-BoldMT-105"/>
     <use x="1039.453125" xlink:href="#Arial-BoldMT-102"/>
     <use x="1072.753906" xlink:href="#Arial-BoldMT-105"/>
     <use x="1100.537109" xlink:href="#Arial-BoldMT-101"/>
     <use x="1156.152344" xlink:href="#Arial-BoldMT-100"/>
     <use x="1217.236328" xlink:href="#Arial-BoldMT-32"/>
     <use x="1245.019531" xlink:href="#Arial-BoldMT-98"/>
     <use x="1306.103516" xlink:href="#Arial-BoldMT-121"/>
     <use x="1361.71875" xlink:href="#Arial-BoldMT-32"/>
     <use x="1389.501953" xlink:href="#Arial-BoldMT-77"/>
     <use x="1472.802734" xlink:href="#Arial-BoldMT-117"/>
     <use x="1533.886719" xlink:href="#Arial-BoldMT-108"/>
     <use x="1561.669922" xlink:href="#Arial-BoldMT-116"/>
     <use x="1594.970703" xlink:href="#Arial-BoldMT-105"/>
     <use x="1622.753906" xlink:href="#Arial-BoldMT-112"/>
     <use x="1683.837891" xlink:href="#Arial-BoldMT-108"/>
     <use x="1711.621094" xlink:href="#Arial-BoldMT-101"/>
     <use x="1767.236328" xlink:href="#Arial-BoldMT-76"/>
     <use x="1828.320312" xlink:href="#Arial-BoldMT-105"/>
     <use x="1856.103516" xlink:href="#Arial-BoldMT-110"/>
     <use x="1917.1875" xlink:href="#Arial-BoldMT-101"/>
     <use x="1972.802734" xlink:href="#Arial-BoldMT-115"/>
    </g>
   </g>
   <g id="legend_1">
    <g id="patch_7">
     <path d="M 325.101094 98.679531 
L 445.9 98.679531 
Q 448.1 98.679531 448.1 96.479531 
L 448.1 50.9 
Q 448.1 48.7 445.9 48.7 
L 325.101094 48.7 
Q 322.901094 48.7 322.901094 50.9 
L 322.901094 96.479531 
Q 322.901094 98.679531 325.101094 98.679531 
z
" style="fill:#eaeaf2;opacity:0.8;stroke:#cccccc;stroke-linejoin:miter;"/>
    </g>
    <g id="line2d_17">
     <path d="M 327.301094 57.123594 
L 349.301094 57.123594 
" style="fill:none;stroke:#4c72b0;stroke-linecap:round;stroke-width:1.5;"/>
    </g>
    <g id="line2d_18"/>
    <g id="text_17">
     <!-- No phone service -->
     <g style="fill:#262626;" transform="translate(358.101094 60.973594)scale(0.11 -0.11)">
      <defs>
       <path d="M 7.625 0 
L 7.625 71.578125 
L 17.328125 71.578125 
L 54.9375 15.375 
L 54.9375 71.578125 
L 64.015625 71.578125 
L 64.015625 0 
L 54.296875 0 
L 16.703125 56.25 
L 16.703125 0 
z
" id="ArialMT-78"/>
       <path d="M 3.328125 25.921875 
Q 3.328125 40.328125 11.328125 47.265625 
Q 18.015625 53.03125 27.640625 53.03125 
Q 38.328125 53.03125 45.109375 46.015625 
Q 51.90625 39.015625 51.90625 26.65625 
Q 51.90625 16.65625 48.90625 10.90625 
Q 45.90625 5.171875 40.15625 2 
Q 34.421875 -1.171875 27.640625 -1.171875 
Q 16.75 -1.171875 10.03125 5.8125 
Q 3.328125 12.796875 3.328125 25.921875 
z
M 12.359375 25.921875 
Q 12.359375 15.96875 16.703125 11.015625 
Q 21.046875 6.0625 27.640625 6.0625 
Q 34.1875 6.0625 38.53125 11.03125 
Q 42.875 16.015625 42.875 26.21875 
Q 42.875 35.84375 38.5 40.796875 
Q 34.125 45.75 27.640625 45.75 
Q 21.046875 45.75 16.703125 40.8125 
Q 12.359375 35.890625 12.359375 25.921875 
z
" id="ArialMT-111"/>
       <path id="ArialMT-32"/>
       <path d="M 6.59375 -19.875 
L 6.59375 51.859375 
L 14.59375 51.859375 
L 14.59375 45.125 
Q 17.4375 49.078125 21 51.046875 
Q 24.5625 53.03125 29.640625 53.03125 
Q 36.28125 53.03125 41.359375 49.609375 
Q 46.4375 46.1875 49.015625 39.953125 
Q 51.609375 33.734375 51.609375 26.3125 
Q 51.609375 18.359375 48.75 11.984375 
Q 45.90625 5.609375 40.453125 2.21875 
Q 35.015625 -1.171875 29 -1.171875 
Q 24.609375 -1.171875 21.109375 0.6875 
Q 17.625 2.546875 15.375 5.375 
L 15.375 -19.875 
z
M 14.546875 25.640625 
Q 14.546875 15.625 18.59375 10.84375 
Q 22.65625 6.0625 28.421875 6.0625 
Q 34.28125 6.0625 38.453125 11.015625 
Q 42.625 15.96875 42.625 26.375 
Q 42.625 36.28125 38.546875 41.203125 
Q 34.46875 46.140625 28.8125 46.140625 
Q 23.1875 46.140625 18.859375 40.890625 
Q 14.546875 35.640625 14.546875 25.640625 
z
" id="ArialMT-112"/>
       <path d="M 6.59375 0 
L 6.59375 71.578125 
L 15.375 71.578125 
L 15.375 45.90625 
Q 21.53125 53.03125 30.90625 53.03125 
Q 36.671875 53.03125 40.921875 50.75 
Q 45.171875 48.484375 47 44.484375 
Q 48.828125 40.484375 48.828125 32.859375 
L 48.828125 0 
L 40.046875 0 
L 40.046875 32.859375 
Q 40.046875 39.453125 37.1875 42.453125 
Q 34.328125 45.453125 29.109375 45.453125 
Q 25.203125 45.453125 21.75 43.421875 
Q 18.3125 41.40625 16.84375 37.9375 
Q 15.375 34.46875 15.375 28.375 
L 15.375 0 
z
" id="ArialMT-104"/>
       <path d="M 6.59375 0 
L 6.59375 51.859375 
L 14.5 51.859375 
L 14.5 44.484375 
Q 20.21875 53.03125 31 53.03125 
Q 35.6875 53.03125 39.625 51.34375 
Q 43.5625 49.65625 45.515625 46.921875 
Q 47.46875 44.1875 48.25 40.4375 
Q 48.734375 37.984375 48.734375 31.890625 
L 48.734375 0 
L 39.9375 0 
L 39.9375 31.546875 
Q 39.9375 36.921875 38.90625 39.578125 
Q 37.890625 42.234375 35.28125 43.8125 
Q 32.671875 45.40625 29.15625 45.40625 
Q 23.53125 45.40625 19.453125 41.84375 
Q 15.375 38.28125 15.375 28.328125 
L 15.375 0 
z
" id="ArialMT-110"/>
       <path d="M 42.09375 16.703125 
L 51.171875 15.578125 
Q 49.03125 7.625 43.21875 3.21875 
Q 37.40625 -1.171875 28.375 -1.171875 
Q 17 -1.171875 10.328125 5.828125 
Q 3.65625 12.84375 3.65625 25.484375 
Q 3.65625 38.578125 10.390625 45.796875 
Q 17.140625 53.03125 27.875 53.03125 
Q 38.28125 53.03125 44.875 45.953125 
Q 51.46875 38.875 51.46875 26.03125 
Q 51.46875 25.25 51.421875 23.6875 
L 12.75 23.6875 
Q 13.234375 15.140625 17.578125 10.59375 
Q 21.921875 6.0625 28.421875 6.0625 
Q 33.25 6.0625 36.671875 8.59375 
Q 40.09375 11.140625 42.09375 16.703125 
z
M 13.234375 30.90625 
L 42.1875 30.90625 
Q 41.609375 37.453125 38.875 40.71875 
Q 34.671875 45.796875 27.984375 45.796875 
Q 21.921875 45.796875 17.796875 41.75 
Q 13.671875 37.703125 13.234375 30.90625 
z
" id="ArialMT-101"/>
       <path d="M 3.078125 15.484375 
L 11.765625 16.84375 
Q 12.5 11.625 15.84375 8.84375 
Q 19.1875 6.0625 25.203125 6.0625 
Q 31.25 6.0625 34.171875 8.515625 
Q 37.109375 10.984375 37.109375 14.3125 
Q 37.109375 17.28125 34.515625 19 
Q 32.71875 20.171875 25.53125 21.96875 
Q 15.875 24.421875 12.140625 26.203125 
Q 8.40625 27.984375 6.46875 31.125 
Q 4.546875 34.28125 4.546875 38.09375 
Q 4.546875 41.546875 6.125 44.5 
Q 7.71875 47.46875 10.453125 49.421875 
Q 12.5 50.921875 16.03125 51.96875 
Q 19.578125 53.03125 23.640625 53.03125 
Q 29.734375 53.03125 34.34375 51.265625 
Q 38.96875 49.515625 41.15625 46.5 
Q 43.359375 43.5 44.1875 38.484375 
L 35.59375 37.3125 
Q 35.015625 41.3125 32.203125 43.546875 
Q 29.390625 45.796875 24.265625 45.796875 
Q 18.21875 45.796875 15.625 43.796875 
Q 13.03125 41.796875 13.03125 39.109375 
Q 13.03125 37.40625 14.109375 36.03125 
Q 15.1875 34.625 17.484375 33.6875 
Q 18.796875 33.203125 25.25 31.453125 
Q 34.578125 28.953125 38.25 27.359375 
Q 41.9375 25.78125 44.03125 22.75 
Q 46.140625 19.734375 46.140625 15.234375 
Q 46.140625 10.84375 43.578125 6.953125 
Q 41.015625 3.078125 36.171875 0.953125 
Q 31.34375 -1.171875 25.25 -1.171875 
Q 15.140625 -1.171875 9.84375 3.03125 
Q 4.546875 7.234375 3.078125 15.484375 
z
" id="ArialMT-115"/>
       <path d="M 6.5 0 
L 6.5 51.859375 
L 14.40625 51.859375 
L 14.40625 44 
Q 17.4375 49.515625 20 51.265625 
Q 22.5625 53.03125 25.640625 53.03125 
Q 30.078125 53.03125 34.671875 50.203125 
L 31.640625 42.046875 
Q 28.421875 43.953125 25.203125 43.953125 
Q 22.3125 43.953125 20.015625 42.21875 
Q 17.71875 40.484375 16.75 37.40625 
Q 15.28125 32.71875 15.28125 27.15625 
L 15.28125 0 
z
" id="ArialMT-114"/>
       <path d="M 21 0 
L 1.265625 51.859375 
L 10.546875 51.859375 
L 21.6875 20.796875 
Q 23.484375 15.765625 25 10.359375 
Q 26.171875 14.453125 28.265625 20.21875 
L 39.796875 51.859375 
L 48.828125 51.859375 
L 29.203125 0 
z
" id="ArialMT-118"/>
       <path d="M 6.640625 61.46875 
L 6.640625 71.578125 
L 15.4375 71.578125 
L 15.4375 61.46875 
z
M 6.640625 0 
L 6.640625 51.859375 
L 15.4375 51.859375 
L 15.4375 0 
z
" id="ArialMT-105"/>
       <path d="M 40.4375 19 
L 49.078125 17.875 
Q 47.65625 8.9375 41.8125 3.875 
Q 35.984375 -1.171875 27.484375 -1.171875 
Q 16.84375 -1.171875 10.375 5.78125 
Q 3.90625 12.75 3.90625 25.734375 
Q 3.90625 34.125 6.6875 40.421875 
Q 9.46875 46.734375 15.15625 49.875 
Q 20.84375 53.03125 27.546875 53.03125 
Q 35.984375 53.03125 41.359375 48.75 
Q 46.734375 44.484375 48.25 36.625 
L 39.703125 35.296875 
Q 38.484375 40.53125 35.375 43.15625 
Q 32.28125 45.796875 27.875 45.796875 
Q 21.234375 45.796875 17.078125 41.03125 
Q 12.9375 36.28125 12.9375 25.984375 
Q 12.9375 15.53125 16.9375 10.796875 
Q 20.953125 6.0625 27.390625 6.0625 
Q 32.5625 6.0625 36.03125 9.234375 
Q 39.5 12.40625 40.4375 19 
z
" id="ArialMT-99"/>
      </defs>
      <use xlink:href="#ArialMT-78"/>
      <use x="72.216797" xlink:href="#ArialMT-111"/>
      <use x="127.832031" xlink:href="#ArialMT-32"/>
      <use x="155.615234" xlink:href="#ArialMT-112"/>
      <use x="211.230469" xlink:href="#ArialMT-104"/>
      <use x="266.845703" xlink:href="#ArialMT-111"/>
      <use x="322.460938" xlink:href="#ArialMT-110"/>
      <use x="378.076172" xlink:href="#ArialMT-101"/>
      <use x="433.691406" xlink:href="#ArialMT-32"/>
      <use x="461.474609" xlink:href="#ArialMT-115"/>
      <use x="511.474609" xlink:href="#ArialMT-101"/>
      <use x="567.089844" xlink:href="#ArialMT-114"/>
      <use x="600.390625" xlink:href="#ArialMT-118"/>
      <use x="650.390625" xlink:href="#ArialMT-105"/>
      <use x="672.607422" xlink:href="#ArialMT-99"/>
      <use x="722.607422" xlink:href="#ArialMT-101"/>
     </g>
    </g>
    <g id="line2d_19">
     <path d="M 327.301094 72.683437 
L 349.301094 72.683437 
" style="fill:none;stroke:#dd8452;stroke-linecap:round;stroke-width:1.5;"/>
    </g>
    <g id="line2d_20"/>
    <g id="text_18">
     <!-- No -->
     <g style="fill:#262626;" transform="translate(358.101094 76.533437)scale(0.11 -0.11)">
      <use xlink:href="#ArialMT-78"/>
      <use x="72.216797" xlink:href="#ArialMT-111"/>
     </g>
    </g>
    <g id="line2d_21">
     <path d="M 327.301094 88.243281 
L 349.301094 88.243281 
" style="fill:none;stroke:#55a868;stroke-linecap:round;stroke-width:1.5;"/>
    </g>
    <g id="line2d_22"/>
    <g id="text_19">
     <!-- Yes -->
     <g style="fill:#262626;" transform="translate(358.101094 92.093281)scale(0.11 -0.11)">
      <defs>
       <path d="M 27.875 0 
L 27.875 30.328125 
L 0.296875 71.578125 
L 11.8125 71.578125 
L 25.921875 50 
Q 29.828125 43.953125 33.203125 37.890625 
Q 36.421875 43.5 41.015625 50.53125 
L 54.890625 71.578125 
L 65.921875 71.578125 
L 37.359375 30.328125 
L 37.359375 0 
z
" id="ArialMT-89"/>
      </defs>
      <use xlink:href="#ArialMT-89"/>
      <use x="57.574219" xlink:href="#ArialMT-101"/>
      <use x="113.189453" xlink:href="#ArialMT-115"/>
     </g>
    </g>
   </g>
  </g>
 </g>
 <defs>
  <clipPath id="p2090a4246a">
   <rect height="271.8" width="390.6" x="63" y="43.2"/>
  </clipPath>
 </defs>
</svg>
