<?xml version="1.0" encoding="utf-8" standalone="no"?>
<!DOCTYPE svg PUBLIC "-//W3C//DTD SVG 1.1//EN"
  "http://www.w3.org/Graphics/SVG/1.1/DTD/svg11.dtd">
<!-- Created with matplotlib (https://matplotlib.org/) -->
<svg height="360pt" version="1.1" viewBox="0 0 504 360" width="504pt" xmlns="http://www.w3.org/2000/svg" xmlns:xlink="http://www.w3.org/1999/xlink">
 <metadata>
  <rdf:RDF xmlns:cc="http://creativecommons.org/ns#" xmlns:dc="http://purl.org/dc/elements/1.1/" xmlns:rdf="http://www.w3.org/1999/02/22-rdf-syntax-ns#">
   <cc:Work>
    <dc:type rdf:resource="http://purl.org/dc/dcmitype/StillImage"/>
    <dc:date>2021-06-10T12:40:25.570885</dc:date>
    <dc:format>image/svg+xml</dc:format>
    <dc:creator>
     <cc:Agent>
      <dc:title>Matplotlib v3.3.3, https://matplotlib.org/</dc:title>
     </cc:Agent>
    </dc:creator>
   </cc:Work>
  </rdf:RDF>
 </metadata>
 <defs>
  <style type="text/css">*{stroke-linecap:butt;stroke-linejoin:round;}</style>
 </defs>
 <g id="figure_1">
  <g id="patch_1">
   <path d="M 0 360 
L 504 360 
L 504 0 
L 0 0 
z
" style="fill:none;"/>
  </g>
  <g id="axes_1">
   <g id="patch_2">
    <path d="M 63 315 
L 453.6 315 
L 453.6 43.2 
L 63 43.2 
z
" style="fill:#eaeaf2;"/>
   </g>
   <g id="matplotlib.axis_1">
    <g id="xtick_1">
     <g id="line2d_1">
      <path clip-path="url(#p4c35d95ab1)" d="M 80.754545 315 
L 80.754545 43.2 
" style="fill:none;stroke:#ffffff;stroke-linecap:round;"/>
     </g>
     <g id="text_1">
      <!-- 0 -->
      <g style="fill:#262626;" transform="translate(77.69603 332.373594)scale(0.11 -0.11)">
       <defs>
        <path d="M 4.15625 35.296875 
Q 4.15625 48 6.765625 55.734375 
Q 9.375 63.484375 14.515625 67.671875 
Q 19.671875 71.875 27.484375 71.875 
Q 33.25 71.875 37.59375 69.546875 
Q 41.9375 67.234375 44.765625 62.859375 
Q 47.609375 58.5 49.21875 52.21875 
Q 50.828125 45.953125 50.828125 35.296875 
Q 50.828125 22.703125 48.234375 14.96875 
Q 45.65625 7.234375 40.5 3 
Q 35.359375 -1.21875 27.484375 -1.21875 
Q 17.140625 -1.21875 11.234375 6.203125 
Q 4.15625 15.140625 4.15625 35.296875 
z
M 13.1875 35.296875 
Q 13.1875 17.671875 17.3125 11.828125 
Q 21.4375 6 27.484375 6 
Q 33.546875 6 37.671875 11.859375 
Q 41.796875 17.71875 41.796875 35.296875 
Q 41.796875 52.984375 37.671875 58.78125 
Q 33.546875 64.59375 27.390625 64.59375 
Q 21.34375 64.59375 17.71875 59.46875 
Q 13.1875 52.9375 13.1875 35.296875 
z
" id="ArialMT-48"/>
       </defs>
       <use xlink:href="#ArialMT-48"/>
      </g>
     </g>
    </g>
    <g id="xtick_2">
     <g id="line2d_2">
      <path clip-path="url(#p4c35d95ab1)" d="M 130.072727 315 
L 130.072727 43.2 
" style="fill:none;stroke:#ffffff;stroke-linecap:round;"/>
     </g>
     <g id="text_2">
      <!-- 10 -->
      <g style="fill:#262626;" transform="translate(123.955696 332.373594)scale(0.11 -0.11)">
       <defs>
        <path d="M 37.25 0 
L 28.46875 0 
L 28.46875 56 
Q 25.296875 52.984375 20.140625 49.953125 
Q 14.984375 46.921875 10.890625 45.40625 
L 10.890625 53.90625 
Q 18.265625 57.375 23.78125 62.296875 
Q 29.296875 67.234375 31.59375 71.875 
L 37.25 71.875 
z
" id="ArialMT-49"/>
       </defs>
       <use xlink:href="#ArialMT-49"/>
       <use x="55.615234" xlink:href="#ArialMT-48"/>
      </g>
     </g>
    </g>
    <g id="xtick_3">
     <g id="line2d_3">
      <path clip-path="url(#p4c35d95ab1)" d="M 179.390909 315 
L 179.390909 43.2 
" style="fill:none;stroke:#ffffff;stroke-linecap:round;"/>
     </g>
     <g id="text_3">
      <!-- 20 -->
      <g style="fill:#262626;" transform="translate(173.273878 332.373594)scale(0.11 -0.11)">
       <defs>
        <path d="M 50.34375 8.453125 
L 50.34375 0 
L 3.03125 0 
Q 2.9375 3.171875 4.046875 6.109375 
Q 5.859375 10.9375 9.828125 15.625 
Q 13.8125 20.3125 21.34375 26.46875 
Q 33.015625 36.03125 37.109375 41.625 
Q 41.21875 47.21875 41.21875 52.203125 
Q 41.21875 57.421875 37.46875 61 
Q 33.734375 64.59375 27.734375 64.59375 
Q 21.390625 64.59375 17.578125 60.78125 
Q 13.765625 56.984375 13.71875 50.25 
L 4.6875 51.171875 
Q 5.609375 61.28125 11.65625 66.578125 
Q 17.71875 71.875 27.9375 71.875 
Q 38.234375 71.875 44.234375 66.15625 
Q 50.25 60.453125 50.25 52 
Q 50.25 47.703125 48.484375 43.546875 
Q 46.734375 39.40625 42.65625 34.8125 
Q 38.578125 30.21875 29.109375 22.21875 
Q 21.1875 15.578125 18.9375 13.203125 
Q 16.703125 10.84375 15.234375 8.453125 
z
" id="ArialMT-50"/>
       </defs>
       <use xlink:href="#ArialMT-50"/>
       <use x="55.615234" xlink:href="#ArialMT-48"/>
      </g>
     </g>
    </g>
    <g id="xtick_4">
     <g id="line2d_4">
      <path clip-path="url(#p4c35d95ab1)" d="M 228.709091 315 
L 228.709091 43.2 
" style="fill:none;stroke:#ffffff;stroke-linecap:round;"/>
     </g>
     <g id="text_4">
      <!-- 30 -->
      <g style="fill:#262626;" transform="translate(222.59206 332.373594)scale(0.11 -0.11)">
       <defs>
        <path d="M 4.203125 18.890625 
L 12.984375 20.0625 
Q 14.5 12.59375 18.140625 9.296875 
Q 21.78125 6 27 6 
Q 33.203125 6 37.46875 10.296875 
Q 41.75 14.59375 41.75 20.953125 
Q 41.75 27 37.796875 30.921875 
Q 33.84375 34.859375 27.734375 34.859375 
Q 25.25 34.859375 21.53125 33.890625 
L 22.515625 41.609375 
Q 23.390625 41.5 23.921875 41.5 
Q 29.546875 41.5 34.03125 44.421875 
Q 38.53125 47.359375 38.53125 53.46875 
Q 38.53125 58.296875 35.25 61.46875 
Q 31.984375 64.65625 26.8125 64.65625 
Q 21.6875 64.65625 18.265625 61.421875 
Q 14.84375 58.203125 13.875 51.765625 
L 5.078125 53.328125 
Q 6.6875 62.15625 12.390625 67.015625 
Q 18.109375 71.875 26.609375 71.875 
Q 32.46875 71.875 37.390625 69.359375 
Q 42.328125 66.84375 44.9375 62.5 
Q 47.5625 58.15625 47.5625 53.265625 
Q 47.5625 48.640625 45.0625 44.828125 
Q 42.578125 41.015625 37.703125 38.765625 
Q 44.046875 37.3125 47.5625 32.6875 
Q 51.078125 28.078125 51.078125 21.140625 
Q 51.078125 11.765625 44.234375 5.25 
Q 37.40625 -1.265625 26.953125 -1.265625 
Q 17.53125 -1.265625 11.296875 4.34375 
Q 5.078125 9.96875 4.203125 18.890625 
z
" id="ArialMT-51"/>
       </defs>
       <use xlink:href="#ArialMT-51"/>
       <use x="55.615234" xlink:href="#ArialMT-48"/>
      </g>
     </g>
    </g>
    <g id="xtick_5">
     <g id="line2d_5">
      <path clip-path="url(#p4c35d95ab1)" d="M 278.027273 315 
L 278.027273 43.2 
" style="fill:none;stroke:#ffffff;stroke-linecap:round;"/>
     </g>
     <g id="text_5">
      <!-- 40 -->
      <g style="fill:#262626;" transform="translate(271.910241 332.373594)scale(0.11 -0.11)">
       <defs>
        <path d="M 32.328125 0 
L 32.328125 17.140625 
L 1.265625 17.140625 
L 1.265625 25.203125 
L 33.9375 71.578125 
L 41.109375 71.578125 
L 41.109375 25.203125 
L 50.78125 25.203125 
L 50.78125 17.140625 
L 41.109375 17.140625 
L 41.109375 0 
z
M 32.328125 25.203125 
L 32.328125 57.46875 
L 9.90625 25.203125 
z
" id="ArialMT-52"/>
       </defs>
       <use xlink:href="#ArialMT-52"/>
       <use x="55.615234" xlink:href="#ArialMT-48"/>
      </g>
     </g>
    </g>
    <g id="xtick_6">
     <g id="line2d_6">
      <path clip-path="url(#p4c35d95ab1)" d="M 327.345455 315 
L 327.345455 43.2 
" style="fill:none;stroke:#ffffff;stroke-linecap:round;"/>
     </g>
     <g id="text_6">
      <!-- 50 -->
      <g style="fill:#262626;" transform="translate(321.228423 332.373594)scale(0.11 -0.11)">
       <defs>
        <path d="M 4.15625 18.75 
L 13.375 19.53125 
Q 14.40625 12.796875 18.140625 9.390625 
Q 21.875 6 27.15625 6 
Q 33.5 6 37.890625 10.78125 
Q 42.28125 15.578125 42.28125 23.484375 
Q 42.28125 31 38.0625 35.34375 
Q 33.84375 39.703125 27 39.703125 
Q 22.75 39.703125 19.328125 37.765625 
Q 15.921875 35.84375 13.96875 32.765625 
L 5.71875 33.84375 
L 12.640625 70.609375 
L 48.25 70.609375 
L 48.25 62.203125 
L 19.671875 62.203125 
L 15.828125 42.96875 
Q 22.265625 47.46875 29.34375 47.46875 
Q 38.71875 47.46875 45.15625 40.96875 
Q 51.609375 34.46875 51.609375 24.265625 
Q 51.609375 14.546875 45.953125 7.46875 
Q 39.0625 -1.21875 27.15625 -1.21875 
Q 17.390625 -1.21875 11.203125 4.25 
Q 5.03125 9.71875 4.15625 18.75 
z
" id="ArialMT-53"/>
       </defs>
       <use xlink:href="#ArialMT-53"/>
       <use x="55.615234" xlink:href="#ArialMT-48"/>
      </g>
     </g>
    </g>
    <g id="xtick_7">
     <g id="line2d_7">
      <path clip-path="url(#p4c35d95ab1)" d="M 376.663636 315 
L 376.663636 43.2 
" style="fill:none;stroke:#ffffff;stroke-linecap:round;"/>
     </g>
     <g id="text_7">
      <!-- 60 -->
      <g style="fill:#262626;" transform="translate(370.546605 332.373594)scale(0.11 -0.11)">
       <defs>
        <path d="M 49.75 54.046875 
L 41.015625 53.375 
Q 39.84375 58.546875 37.703125 60.890625 
Q 34.125 64.65625 28.90625 64.65625 
Q 24.703125 64.65625 21.53125 62.3125 
Q 17.390625 59.28125 14.984375 53.46875 
Q 12.59375 47.65625 12.5 36.921875 
Q 15.671875 41.75 20.265625 44.09375 
Q 24.859375 46.4375 29.890625 46.4375 
Q 38.671875 46.4375 44.84375 39.96875 
Q 51.03125 33.5 51.03125 23.25 
Q 51.03125 16.5 48.125 10.71875 
Q 45.21875 4.9375 40.140625 1.859375 
Q 35.0625 -1.21875 28.609375 -1.21875 
Q 17.625 -1.21875 10.6875 6.859375 
Q 3.765625 14.9375 3.765625 33.5 
Q 3.765625 54.25 11.421875 63.671875 
Q 18.109375 71.875 29.4375 71.875 
Q 37.890625 71.875 43.28125 67.140625 
Q 48.6875 62.40625 49.75 54.046875 
z
M 13.875 23.1875 
Q 13.875 18.65625 15.796875 14.5 
Q 17.71875 10.359375 21.1875 8.171875 
Q 24.65625 6 28.46875 6 
Q 34.03125 6 38.03125 10.484375 
Q 42.046875 14.984375 42.046875 22.703125 
Q 42.046875 30.125 38.078125 34.390625 
Q 34.125 38.671875 28.125 38.671875 
Q 22.171875 38.671875 18.015625 34.390625 
Q 13.875 30.125 13.875 23.1875 
z
" id="ArialMT-54"/>
       </defs>
       <use xlink:href="#ArialMT-54"/>
       <use x="55.615234" xlink:href="#ArialMT-48"/>
      </g>
     </g>
    </g>
    <g id="xtick_8">
     <g id="line2d_8">
      <path clip-path="url(#p4c35d95ab1)" d="M 425.981818 315 
L 425.981818 43.2 
" style="fill:none;stroke:#ffffff;stroke-linecap:round;"/>
     </g>
     <g id="text_8">
      <!-- 70 -->
      <g style="fill:#262626;" transform="translate(419.864787 332.373594)scale(0.11 -0.11)">
       <defs>
        <path d="M 4.734375 62.203125 
L 4.734375 70.65625 
L 51.078125 70.65625 
L 51.078125 63.8125 
Q 44.234375 56.546875 37.515625 44.484375 
Q 30.8125 32.421875 27.15625 19.671875 
Q 24.515625 10.6875 23.78125 0 
L 14.75 0 
Q 14.890625 8.453125 18.0625 20.40625 
Q 21.234375 32.375 27.171875 43.484375 
Q 33.109375 54.59375 39.796875 62.203125 
z
" id="ArialMT-55"/>
       </defs>
       <use xlink:href="#ArialMT-55"/>
       <use x="55.615234" xlink:href="#ArialMT-48"/>
      </g>
     </g>
    </g>
    <g id="text_9">
     <!-- Tenure (months) -->
     <g style="fill:#262626;" transform="translate(211.41375 353.295469)scale(0.12 -0.12)">
      <defs>
       <path d="M 23.390625 0 
L 23.390625 59.46875 
L 2.15625 59.46875 
L 2.15625 71.578125 
L 59.03125 71.578125 
L 59.03125 59.46875 
L 37.84375 59.46875 
L 37.84375 0 
z
" id="Arial-BoldMT-84"/>
       <path d="M 37.203125 16.5 
L 50.875 14.203125 
Q 48.25 6.6875 42.546875 2.75 
Q 36.859375 -1.171875 28.328125 -1.171875 
Q 14.796875 -1.171875 8.296875 7.671875 
Q 3.171875 14.75 3.171875 25.53125 
Q 3.171875 38.421875 9.90625 45.71875 
Q 16.65625 53.03125 26.953125 53.03125 
Q 38.53125 53.03125 45.21875 45.390625 
Q 51.90625 37.75 51.609375 21.96875 
L 17.234375 21.96875 
Q 17.390625 15.875 20.5625 12.46875 
Q 23.734375 9.078125 28.46875 9.078125 
Q 31.6875 9.078125 33.875 10.828125 
Q 36.078125 12.59375 37.203125 16.5 
z
M 37.984375 30.375 
Q 37.84375 36.328125 34.90625 39.421875 
Q 31.984375 42.53125 27.78125 42.53125 
Q 23.296875 42.53125 20.359375 39.265625 
Q 17.4375 35.984375 17.484375 30.375 
z
" id="Arial-BoldMT-101"/>
       <path d="M 54.34375 0 
L 40.625 0 
L 40.625 26.46875 
Q 40.625 34.859375 39.75 37.328125 
Q 38.875 39.796875 36.890625 41.15625 
Q 34.90625 42.53125 32.125 42.53125 
Q 28.5625 42.53125 25.734375 40.578125 
Q 22.90625 38.625 21.84375 35.390625 
Q 20.796875 32.171875 20.796875 23.484375 
L 20.796875 0 
L 7.078125 0 
L 7.078125 51.859375 
L 19.828125 51.859375 
L 19.828125 44.234375 
Q 26.609375 53.03125 36.921875 53.03125 
Q 41.453125 53.03125 45.203125 51.390625 
Q 48.96875 49.75 50.890625 47.203125 
Q 52.828125 44.671875 53.578125 41.453125 
Q 54.34375 38.234375 54.34375 32.234375 
z
" id="Arial-BoldMT-110"/>
       <path d="M 41.3125 0 
L 41.3125 7.765625 
Q 38.484375 3.609375 33.859375 1.21875 
Q 29.25 -1.171875 24.125 -1.171875 
Q 18.890625 -1.171875 14.734375 1.125 
Q 10.59375 3.421875 8.734375 7.5625 
Q 6.890625 11.71875 6.890625 19.046875 
L 6.890625 51.859375 
L 20.609375 51.859375 
L 20.609375 28.03125 
Q 20.609375 17.09375 21.359375 14.625 
Q 22.125 12.15625 24.125 10.71875 
Q 26.125 9.28125 29.203125 9.28125 
Q 32.71875 9.28125 35.5 11.203125 
Q 38.28125 13.140625 39.296875 15.984375 
Q 40.328125 18.84375 40.328125 29.984375 
L 40.328125 51.859375 
L 54.046875 51.859375 
L 54.046875 0 
z
" id="Arial-BoldMT-117"/>
       <path d="M 20.3125 0 
L 6.59375 0 
L 6.59375 51.859375 
L 19.34375 51.859375 
L 19.34375 44.484375 
Q 22.609375 49.703125 25.21875 51.359375 
Q 27.828125 53.03125 31.15625 53.03125 
Q 35.84375 53.03125 40.1875 50.4375 
L 35.9375 38.484375 
Q 32.46875 40.71875 29.5 40.71875 
Q 26.609375 40.71875 24.609375 39.125 
Q 22.609375 37.546875 21.453125 33.390625 
Q 20.3125 29.25 20.3125 16.015625 
z
" id="Arial-BoldMT-114"/>
       <path id="Arial-BoldMT-32"/>
       <path d="M 29.9375 -21.046875 
L 20.515625 -21.046875 
Q 13.03125 -9.765625 9.125 2.390625 
Q 5.21875 14.546875 5.21875 25.921875 
Q 5.21875 40.046875 10.0625 52.640625 
Q 14.265625 63.578125 20.703125 72.796875 
L 30.078125 72.796875 
Q 23.390625 58.015625 20.875 47.625 
Q 18.359375 37.25 18.359375 25.640625 
Q 18.359375 17.625 19.84375 9.21875 
Q 21.34375 0.828125 23.921875 -6.734375 
Q 25.640625 -11.71875 29.9375 -21.046875 
z
" id="Arial-BoldMT-40"/>
       <path d="M 6.15625 51.859375 
L 18.796875 51.859375 
L 18.796875 44.78125 
Q 25.59375 53.03125 34.96875 53.03125 
Q 39.9375 53.03125 43.59375 50.96875 
Q 47.265625 48.921875 49.609375 44.78125 
Q 53.03125 48.921875 56.984375 50.96875 
Q 60.9375 53.03125 65.4375 53.03125 
Q 71.140625 53.03125 75.09375 50.703125 
Q 79.046875 48.390625 81 43.890625 
Q 82.421875 40.578125 82.421875 33.15625 
L 82.421875 0 
L 68.703125 0 
L 68.703125 29.640625 
Q 68.703125 37.359375 67.28125 39.59375 
Q 65.375 42.53125 61.421875 42.53125 
Q 58.546875 42.53125 56 40.765625 
Q 53.46875 39.015625 52.34375 35.625 
Q 51.21875 32.234375 51.21875 24.90625 
L 51.21875 0 
L 37.5 0 
L 37.5 28.421875 
Q 37.5 35.984375 36.765625 38.171875 
Q 36.03125 40.375 34.484375 41.453125 
Q 32.953125 42.53125 30.328125 42.53125 
Q 27.15625 42.53125 24.609375 40.8125 
Q 22.078125 39.109375 20.96875 35.890625 
Q 19.875 32.671875 19.875 25.203125 
L 19.875 0 
L 6.15625 0 
z
" id="Arial-BoldMT-109"/>
       <path d="M 4 26.65625 
Q 4 33.5 7.375 39.890625 
Q 10.75 46.296875 16.921875 49.65625 
Q 23.09375 53.03125 30.71875 53.03125 
Q 42.484375 53.03125 50 45.390625 
Q 57.515625 37.75 57.515625 26.078125 
Q 57.515625 14.3125 49.921875 6.5625 
Q 42.328125 -1.171875 30.8125 -1.171875 
Q 23.6875 -1.171875 17.21875 2.046875 
Q 10.75 5.28125 7.375 11.5 
Q 4 17.71875 4 26.65625 
z
M 18.0625 25.921875 
Q 18.0625 18.21875 21.71875 14.109375 
Q 25.390625 10.015625 30.765625 10.015625 
Q 36.140625 10.015625 39.765625 14.109375 
Q 43.40625 18.21875 43.40625 26.03125 
Q 43.40625 33.640625 39.765625 37.734375 
Q 36.140625 41.84375 30.765625 41.84375 
Q 25.390625 41.84375 21.71875 37.734375 
Q 18.0625 33.640625 18.0625 25.921875 
z
" id="Arial-BoldMT-111"/>
       <path d="M 30.953125 51.859375 
L 30.953125 40.921875 
L 21.578125 40.921875 
L 21.578125 20.015625 
Q 21.578125 13.671875 21.84375 12.625 
Q 22.125 11.578125 23.078125 10.890625 
Q 24.03125 10.203125 25.390625 10.203125 
Q 27.296875 10.203125 30.90625 11.53125 
L 32.078125 0.875 
Q 27.296875 -1.171875 21.234375 -1.171875 
Q 17.53125 -1.171875 14.546875 0.0625 
Q 11.578125 1.3125 10.1875 3.296875 
Q 8.796875 5.28125 8.25 8.640625 
Q 7.8125 11.03125 7.8125 18.3125 
L 7.8125 40.921875 
L 1.515625 40.921875 
L 1.515625 51.859375 
L 7.8125 51.859375 
L 7.8125 62.15625 
L 21.578125 70.171875 
L 21.578125 51.859375 
z
" id="Arial-BoldMT-116"/>
       <path d="M 20.84375 71.578125 
L 20.84375 45.265625 
Q 27.484375 53.03125 36.71875 53.03125 
Q 41.453125 53.03125 45.265625 51.265625 
Q 49.078125 49.515625 51 46.78125 
Q 52.9375 44.046875 53.640625 40.71875 
Q 54.34375 37.40625 54.34375 30.421875 
L 54.34375 0 
L 40.625 0 
L 40.625 27.390625 
Q 40.625 35.546875 39.84375 37.734375 
Q 39.0625 39.9375 37.078125 41.234375 
Q 35.109375 42.53125 32.125 42.53125 
Q 28.71875 42.53125 26.03125 40.859375 
Q 23.34375 39.203125 22.09375 35.859375 
Q 20.84375 32.515625 20.84375 25.984375 
L 20.84375 0 
L 7.125 0 
L 7.125 71.578125 
z
" id="Arial-BoldMT-104"/>
       <path d="M 2.34375 14.796875 
L 16.109375 16.890625 
Q 17 12.890625 19.671875 10.8125 
Q 22.359375 8.734375 27.203125 8.734375 
Q 32.515625 8.734375 35.203125 10.6875 
Q 37.015625 12.0625 37.015625 14.359375 
Q 37.015625 15.921875 36.03125 16.9375 
Q 35.015625 17.921875 31.453125 18.75 
Q 14.84375 22.40625 10.40625 25.4375 
Q 4.25 29.640625 4.25 37.109375 
Q 4.25 43.84375 9.5625 48.4375 
Q 14.890625 53.03125 26.078125 53.03125 
Q 36.71875 53.03125 41.890625 49.5625 
Q 47.078125 46.09375 49.03125 39.3125 
L 36.078125 36.921875 
Q 35.25 39.9375 32.921875 41.546875 
Q 30.609375 43.171875 26.3125 43.171875 
Q 20.90625 43.171875 18.5625 41.65625 
Q 17 40.578125 17 38.875 
Q 17 37.40625 18.359375 36.375 
Q 20.21875 35.015625 31.171875 32.515625 
Q 42.140625 30.03125 46.484375 26.421875 
Q 50.78125 22.75 50.78125 16.21875 
Q 50.78125 9.078125 44.828125 3.953125 
Q 38.875 -1.171875 27.203125 -1.171875 
Q 16.609375 -1.171875 10.421875 3.125 
Q 4.25 7.421875 2.34375 14.796875 
z
" id="Arial-BoldMT-115"/>
       <path d="M 3.375 -21.046875 
Q 7.421875 -12.359375 9.078125 -7.71875 
Q 10.75 -3.078125 12.15625 2.96875 
Q 13.578125 9.03125 14.25 14.46875 
Q 14.9375 19.921875 14.9375 25.640625 
Q 14.9375 37.25 12.453125 47.625 
Q 9.96875 58.015625 3.265625 72.796875 
L 12.59375 72.796875 
Q 19.96875 62.3125 24.046875 50.53125 
Q 28.125 38.765625 28.125 26.65625 
Q 28.125 16.453125 24.90625 4.78125 
Q 21.234375 -8.296875 12.84375 -21.046875 
z
" id="Arial-BoldMT-41"/>
      </defs>
      <use xlink:href="#Arial-BoldMT-84"/>
      <use x="53.708984" xlink:href="#Arial-BoldMT-101"/>
      <use x="109.324219" xlink:href="#Arial-BoldMT-110"/>
      <use x="170.408203" xlink:href="#Arial-BoldMT-117"/>
      <use x="231.492188" xlink:href="#Arial-BoldMT-114"/>
      <use x="270.408203" xlink:href="#Arial-BoldMT-101"/>
      <use x="326.023438" xlink:href="#Arial-BoldMT-32"/>
      <use x="353.806641" xlink:href="#Arial-BoldMT-40"/>
      <use x="387.107422" xlink:href="#Arial-BoldMT-109"/>
      <use x="476.023438" xlink:href="#Arial-BoldMT-111"/>
      <use x="537.107422" xlink:href="#Arial-BoldMT-110"/>
      <use x="598.191406" xlink:href="#Arial-BoldMT-116"/>
      <use x="631.492188" xlink:href="#Arial-BoldMT-104"/>
      <use x="692.576172" xlink:href="#Arial-BoldMT-115"/>
      <use x="748.191406" xlink:href="#Arial-BoldMT-41"/>
     </g>
    </g>
   </g>
   <g id="matplotlib.axis_2">
    <g id="ytick_1">
     <g id="line2d_9">
      <path clip-path="url(#p4c35d95ab1)" d="M 63 298.363392 
L 453.6 298.363392 
" style="fill:none;stroke:#ffffff;stroke-linecap:round;"/>
     </g>
     <g id="text_10">
      <!-- 0.4 -->
      <g style="fill:#262626;" transform="translate(38.21 302.300189)scale(0.11 -0.11)">
       <defs>
        <path d="M 9.078125 0 
L 9.078125 10.015625 
L 19.09375 10.015625 
L 19.09375 0 
z
" id="ArialMT-46"/>
       </defs>
       <use xlink:href="#ArialMT-48"/>
       <use x="55.615234" xlink:href="#ArialMT-46"/>
       <use x="83.398438" xlink:href="#ArialMT-52"/>
      </g>
     </g>
    </g>
    <g id="ytick_2">
     <g id="line2d_10">
      <path clip-path="url(#p4c35d95ab1)" d="M 63 257.895251 
L 453.6 257.895251 
" style="fill:none;stroke:#ffffff;stroke-linecap:round;"/>
     </g>
     <g id="text_11">
      <!-- 0.5 -->
      <g style="fill:#262626;" transform="translate(38.21 261.832048)scale(0.11 -0.11)">
       <use xlink:href="#ArialMT-48"/>
       <use x="55.615234" xlink:href="#ArialMT-46"/>
       <use x="83.398438" xlink:href="#ArialMT-53"/>
      </g>
     </g>
    </g>
    <g id="ytick_3">
     <g id="line2d_11">
      <path clip-path="url(#p4c35d95ab1)" d="M 63 217.42711 
L 453.6 217.42711 
" style="fill:none;stroke:#ffffff;stroke-linecap:round;"/>
     </g>
     <g id="text_12">
      <!-- 0.6 -->
      <g style="fill:#262626;" transform="translate(38.21 221.363907)scale(0.11 -0.11)">
       <use xlink:href="#ArialMT-48"/>
       <use x="55.615234" xlink:href="#ArialMT-46"/>
       <use x="83.398438" xlink:href="#ArialMT-54"/>
      </g>
     </g>
    </g>
    <g id="ytick_4">
     <g id="line2d_12">
      <path clip-path="url(#p4c35d95ab1)" d="M 63 176.958969 
L 453.6 176.958969 
" style="fill:none;stroke:#ffffff;stroke-linecap:round;"/>
     </g>
     <g id="text_13">
      <!-- 0.7 -->
      <g style="fill:#262626;" transform="translate(38.21 180.895766)scale(0.11 -0.11)">
       <use xlink:href="#ArialMT-48"/>
       <use x="55.615234" xlink:href="#ArialMT-46"/>
       <use x="83.398438" xlink:href="#ArialMT-55"/>
      </g>
     </g>
    </g>
    <g id="ytick_5">
     <g id="line2d_13">
      <path clip-path="url(#p4c35d95ab1)" d="M 63 136.490828 
L 453.6 136.490828 
" style="fill:none;stroke:#ffffff;stroke-linecap:round;"/>
     </g>
     <g id="text_14">
      <!-- 0.8 -->
      <g style="fill:#262626;" transform="translate(38.21 140.427625)scale(0.11 -0.11)">
       <defs>
        <path d="M 17.671875 38.8125 
Q 12.203125 40.828125 9.5625 44.53125 
Q 6.9375 48.25 6.9375 53.421875 
Q 6.9375 61.234375 12.546875 66.546875 
Q 18.171875 71.875 27.484375 71.875 
Q 36.859375 71.875 42.578125 66.421875 
Q 48.296875 60.984375 48.296875 53.171875 
Q 48.296875 48.1875 45.671875 44.5 
Q 43.0625 40.828125 37.75 38.8125 
Q 44.34375 36.671875 47.78125 31.875 
Q 51.21875 27.09375 51.21875 20.453125 
Q 51.21875 11.28125 44.71875 5.03125 
Q 38.234375 -1.21875 27.640625 -1.21875 
Q 17.046875 -1.21875 10.546875 5.046875 
Q 4.046875 11.328125 4.046875 20.703125 
Q 4.046875 27.6875 7.59375 32.390625 
Q 11.140625 37.109375 17.671875 38.8125 
z
M 15.921875 53.71875 
Q 15.921875 48.640625 19.1875 45.40625 
Q 22.46875 42.1875 27.6875 42.1875 
Q 32.765625 42.1875 36.015625 45.375 
Q 39.265625 48.578125 39.265625 53.21875 
Q 39.265625 58.0625 35.90625 61.359375 
Q 32.5625 64.65625 27.59375 64.65625 
Q 22.5625 64.65625 19.234375 61.421875 
Q 15.921875 58.203125 15.921875 53.71875 
z
M 13.09375 20.65625 
Q 13.09375 16.890625 14.875 13.375 
Q 16.65625 9.859375 20.171875 7.921875 
Q 23.6875 6 27.734375 6 
Q 34.03125 6 38.125 10.046875 
Q 42.234375 14.109375 42.234375 20.359375 
Q 42.234375 26.703125 38.015625 30.859375 
Q 33.796875 35.015625 27.4375 35.015625 
Q 21.234375 35.015625 17.15625 30.90625 
Q 13.09375 26.8125 13.09375 20.65625 
z
" id="ArialMT-56"/>
       </defs>
       <use xlink:href="#ArialMT-48"/>
       <use x="55.615234" xlink:href="#ArialMT-46"/>
       <use x="83.398438" xlink:href="#ArialMT-56"/>
      </g>
     </g>
    </g>
    <g id="ytick_6">
     <g id="line2d_14">
      <path clip-path="url(#p4c35d95ab1)" d="M 63 96.022687 
L 453.6 96.022687 
" style="fill:none;stroke:#ffffff;stroke-linecap:round;"/>
     </g>
     <g id="text_15">
      <!-- 0.9 -->
      <g style="fill:#262626;" transform="translate(38.21 99.959483)scale(0.11 -0.11)">
       <defs>
        <path d="M 5.46875 16.546875 
L 13.921875 17.328125 
Q 14.984375 11.375 18.015625 8.6875 
Q 21.046875 6 25.78125 6 
Q 29.828125 6 32.875 7.859375 
Q 35.9375 9.71875 37.890625 12.8125 
Q 39.84375 15.921875 41.15625 21.1875 
Q 42.484375 26.46875 42.484375 31.9375 
Q 42.484375 32.515625 42.4375 33.6875 
Q 39.796875 29.5 35.234375 26.875 
Q 30.671875 24.265625 25.34375 24.265625 
Q 16.453125 24.265625 10.296875 30.703125 
Q 4.15625 37.15625 4.15625 47.703125 
Q 4.15625 58.59375 10.578125 65.234375 
Q 17 71.875 26.65625 71.875 
Q 33.640625 71.875 39.421875 68.109375 
Q 45.21875 64.359375 48.21875 57.390625 
Q 51.21875 50.4375 51.21875 37.25 
Q 51.21875 23.53125 48.234375 15.40625 
Q 45.265625 7.28125 39.375 3.03125 
Q 33.5 -1.21875 25.59375 -1.21875 
Q 17.1875 -1.21875 11.859375 3.4375 
Q 6.546875 8.109375 5.46875 16.546875 
z
M 41.453125 48.140625 
Q 41.453125 55.71875 37.421875 60.15625 
Q 33.40625 64.59375 27.734375 64.59375 
Q 21.875 64.59375 17.53125 59.8125 
Q 13.1875 55.03125 13.1875 47.40625 
Q 13.1875 40.578125 17.3125 36.296875 
Q 21.4375 32.03125 27.484375 32.03125 
Q 33.59375 32.03125 37.515625 36.296875 
Q 41.453125 40.578125 41.453125 48.140625 
z
" id="ArialMT-57"/>
       </defs>
       <use xlink:href="#ArialMT-48"/>
       <use x="55.615234" xlink:href="#ArialMT-46"/>
       <use x="83.398438" xlink:href="#ArialMT-57"/>
      </g>
     </g>
    </g>
    <g id="ytick_7">
     <g id="line2d_15">
      <path clip-path="url(#p4c35d95ab1)" d="M 63 55.554545 
L 453.6 55.554545 
" style="fill:none;stroke:#ffffff;stroke-linecap:round;"/>
     </g>
     <g id="text_16">
      <!-- 1.0 -->
      <g style="fill:#262626;" transform="translate(38.21 59.491342)scale(0.11 -0.11)">
       <use xlink:href="#ArialMT-49"/>
       <use x="55.615234" xlink:href="#ArialMT-46"/>
       <use x="83.398438" xlink:href="#ArialMT-48"/>
      </g>
     </g>
    </g>
    <g id="text_17">
     <!-- Survival probability -->
     <g style="fill:#262626;" transform="translate(25.684375 234.778125)rotate(-90)scale(0.12 -0.12)">
      <defs>
       <path d="M 3.609375 23.296875 
L 17.671875 24.65625 
Q 18.953125 17.578125 22.828125 14.25 
Q 26.703125 10.9375 33.296875 10.9375 
Q 40.28125 10.9375 43.8125 13.890625 
Q 47.359375 16.84375 47.359375 20.796875 
Q 47.359375 23.34375 45.875 25.125 
Q 44.390625 26.90625 40.671875 28.21875 
Q 38.140625 29.109375 29.109375 31.34375 
Q 17.484375 34.234375 12.796875 38.421875 
Q 6.203125 44.34375 6.203125 52.828125 
Q 6.203125 58.296875 9.296875 63.0625 
Q 12.40625 67.828125 18.234375 70.3125 
Q 24.078125 72.796875 32.328125 72.796875 
Q 45.796875 72.796875 52.609375 66.890625 
Q 59.421875 60.984375 59.765625 51.125 
L 45.3125 50.484375 
Q 44.390625 56 41.328125 58.421875 
Q 38.28125 60.84375 32.171875 60.84375 
Q 25.875 60.84375 22.3125 58.25 
Q 20.015625 56.59375 20.015625 53.8125 
Q 20.015625 51.265625 22.171875 49.46875 
Q 24.90625 47.171875 35.453125 44.671875 
Q 46 42.1875 51.046875 39.515625 
Q 56.109375 36.859375 58.953125 32.25 
Q 61.8125 27.640625 61.8125 20.84375 
Q 61.8125 14.703125 58.390625 9.328125 
Q 54.984375 3.953125 48.734375 1.34375 
Q 42.484375 -1.265625 33.15625 -1.265625 
Q 19.578125 -1.265625 12.296875 5 
Q 5.03125 11.28125 3.609375 23.296875 
z
" id="Arial-BoldMT-83"/>
       <path d="M 21.4375 0 
L 0.53125 51.859375 
L 14.9375 51.859375 
L 24.703125 25.390625 
L 27.546875 16.546875 
Q 28.65625 19.921875 28.953125 21 
Q 29.640625 23.1875 30.421875 25.390625 
L 40.28125 51.859375 
L 54.390625 51.859375 
L 33.796875 0 
z
" id="Arial-BoldMT-118"/>
       <path d="M 7.171875 58.890625 
L 7.171875 71.578125 
L 20.90625 71.578125 
L 20.90625 58.890625 
z
M 7.171875 0 
L 7.171875 51.859375 
L 20.90625 51.859375 
L 20.90625 0 
z
" id="Arial-BoldMT-105"/>
       <path d="M 17.4375 36.03125 
L 4.984375 38.28125 
Q 7.078125 45.796875 12.203125 49.40625 
Q 17.328125 53.03125 27.4375 53.03125 
Q 36.625 53.03125 41.109375 50.859375 
Q 45.609375 48.6875 47.4375 45.34375 
Q 49.265625 42 49.265625 33.0625 
L 49.125 17.046875 
Q 49.125 10.203125 49.78125 6.953125 
Q 50.4375 3.71875 52.25 0 
L 38.671875 0 
Q 38.140625 1.375 37.359375 4.046875 
Q 37.015625 5.28125 36.859375 5.671875 
Q 33.34375 2.25 29.34375 0.53125 
Q 25.34375 -1.171875 20.796875 -1.171875 
Q 12.796875 -1.171875 8.171875 3.171875 
Q 3.5625 7.515625 3.5625 14.15625 
Q 3.5625 18.5625 5.65625 22 
Q 7.765625 25.4375 11.546875 27.265625 
Q 15.328125 29.109375 22.46875 30.46875 
Q 32.078125 32.28125 35.796875 33.84375 
L 35.796875 35.203125 
Q 35.796875 39.15625 33.84375 40.84375 
Q 31.890625 42.53125 26.46875 42.53125 
Q 22.796875 42.53125 20.75 41.09375 
Q 18.703125 39.65625 17.4375 36.03125 
z
M 35.796875 24.90625 
Q 33.15625 24.03125 27.4375 22.796875 
Q 21.734375 21.578125 19.96875 20.40625 
Q 17.28125 18.5 17.28125 15.578125 
Q 17.28125 12.703125 19.421875 10.59375 
Q 21.578125 8.5 24.90625 8.5 
Q 28.609375 8.5 31.984375 10.9375 
Q 34.46875 12.796875 35.25 15.484375 
Q 35.796875 17.234375 35.796875 22.171875 
z
" id="Arial-BoldMT-97"/>
       <path d="M 7.171875 0 
L 7.171875 71.578125 
L 20.90625 71.578125 
L 20.90625 0 
z
" id="Arial-BoldMT-108"/>
       <path d="M 6.78125 51.859375 
L 19.578125 51.859375 
L 19.578125 44.234375 
Q 22.078125 48.140625 26.3125 50.578125 
Q 30.5625 53.03125 35.75 53.03125 
Q 44.78125 53.03125 51.078125 45.953125 
Q 57.375 38.875 57.375 26.21875 
Q 57.375 13.234375 51.015625 6.03125 
Q 44.671875 -1.171875 35.640625 -1.171875 
Q 31.34375 -1.171875 27.84375 0.53125 
Q 24.359375 2.25 20.515625 6.390625 
L 20.515625 -19.734375 
L 6.78125 -19.734375 
z
M 20.359375 26.8125 
Q 20.359375 18.0625 23.828125 13.890625 
Q 27.296875 9.71875 32.28125 9.71875 
Q 37.0625 9.71875 40.234375 13.546875 
Q 43.40625 17.390625 43.40625 26.125 
Q 43.40625 34.28125 40.125 38.234375 
Q 36.859375 42.1875 32.03125 42.1875 
Q 27 42.1875 23.671875 38.296875 
Q 20.359375 34.421875 20.359375 26.8125 
z
" id="Arial-BoldMT-112"/>
       <path d="M 6.59375 0 
L 6.59375 71.578125 
L 20.3125 71.578125 
L 20.3125 45.796875 
Q 26.65625 53.03125 35.359375 53.03125 
Q 44.828125 53.03125 51.03125 46.171875 
Q 57.234375 39.3125 57.234375 26.46875 
Q 57.234375 13.1875 50.90625 6 
Q 44.578125 -1.171875 35.546875 -1.171875 
Q 31.109375 -1.171875 26.78125 1.046875 
Q 22.46875 3.265625 19.34375 7.625 
L 19.34375 0 
z
M 20.21875 27.046875 
Q 20.21875 19 22.75 15.140625 
Q 26.3125 9.671875 32.234375 9.671875 
Q 36.765625 9.671875 39.96875 13.546875 
Q 43.171875 17.4375 43.171875 25.78125 
Q 43.171875 34.671875 39.9375 38.59375 
Q 36.71875 42.53125 31.6875 42.53125 
Q 26.765625 42.53125 23.484375 38.6875 
Q 20.21875 34.859375 20.21875 27.046875 
z
" id="Arial-BoldMT-98"/>
       <path d="M 0.6875 51.859375 
L 15.28125 51.859375 
L 27.6875 15.046875 
L 39.796875 51.859375 
L 54 51.859375 
L 35.6875 1.953125 
L 32.421875 -7.078125 
Q 30.609375 -11.625 28.96875 -14.015625 
Q 27.34375 -16.40625 25.21875 -17.890625 
Q 23.09375 -19.390625 19.984375 -20.21875 
Q 16.890625 -21.046875 12.984375 -21.046875 
Q 9.03125 -21.046875 5.21875 -20.21875 
L 4 -9.46875 
Q 7.234375 -10.109375 9.8125 -10.109375 
Q 14.59375 -10.109375 16.890625 -7.296875 
Q 19.1875 -4.5 20.40625 -0.140625 
z
" id="Arial-BoldMT-121"/>
      </defs>
      <use xlink:href="#Arial-BoldMT-83"/>
      <use x="66.699219" xlink:href="#Arial-BoldMT-117"/>
      <use x="127.783203" xlink:href="#Arial-BoldMT-114"/>
      <use x="166.699219" xlink:href="#Arial-BoldMT-118"/>
      <use x="222.314453" xlink:href="#Arial-BoldMT-105"/>
      <use x="250.097656" xlink:href="#Arial-BoldMT-118"/>
      <use x="305.712891" xlink:href="#Arial-BoldMT-97"/>
      <use x="361.328125" xlink:href="#Arial-BoldMT-108"/>
      <use x="389.111328" xlink:href="#Arial-BoldMT-32"/>
      <use x="416.894531" xlink:href="#Arial-BoldMT-112"/>
      <use x="477.978516" xlink:href="#Arial-BoldMT-114"/>
      <use x="516.894531" xlink:href="#Arial-BoldMT-111"/>
      <use x="577.978516" xlink:href="#Arial-BoldMT-98"/>
      <use x="639.0625" xlink:href="#Arial-BoldMT-97"/>
      <use x="694.677734" xlink:href="#Arial-BoldMT-98"/>
      <use x="755.761719" xlink:href="#Arial-BoldMT-105"/>
      <use x="783.544922" xlink:href="#Arial-BoldMT-108"/>
      <use x="811.328125" xlink:href="#Arial-BoldMT-105"/>
      <use x="839.111328" xlink:href="#Arial-BoldMT-116"/>
      <use x="872.412109" xlink:href="#Arial-BoldMT-121"/>
     </g>
    </g>
   </g>
   <g id="PolyCollection_1">
    <defs>
     <path d="M 80.754545 -304.445455 
L 80.754545 -304.445455 
L 85.686364 -304.445455 
L 85.686364 -280.706473 
L 90.618182 -280.706473 
L 90.618182 -272.619443 
L 95.55 -272.619443 
L 95.55 -266.547656 
L 100.481818 -266.547656 
L 100.481818 -261.738328 
L 105.413636 -261.738328 
L 105.413636 -258.418453 
L 110.345455 -258.418453 
L 110.345455 -256.442615 
L 115.277273 -256.442615 
L 115.277273 -254.841484 
L 120.209091 -254.841484 
L 120.209091 -253.411772 
L 125.140909 -253.411772 
L 125.140909 -250.081599 
L 130.072727 -250.081599 
L 130.072727 -248.397131 
L 135.004545 -248.397131 
L 135.004545 -247.326807 
L 139.936364 -247.326807 
L 139.936364 -245.150195 
L 144.868182 -245.150195 
L 144.868182 -243.377129 
L 149.8 -243.377129 
L 149.8 -242.472313 
L 154.731818 -242.472313 
L 154.731818 -240.636875 
L 159.663636 -240.636875 
L 159.663636 -239.244317 
L 164.595455 -239.244317 
L 164.595455 -238.307859 
L 169.527273 -238.307859 
L 169.527273 -236.406847 
L 174.459091 -236.406847 
L 174.459091 -235.681406 
L 179.390909 -235.681406 
L 179.390909 -235.189878 
L 184.322727 -235.189878 
L 184.322727 -234.196505 
L 189.254545 -234.196505 
L 189.254545 -231.178693 
L 194.186364 -231.178693 
L 194.186364 -230.924061 
L 199.118182 -230.924061 
L 199.118182 -229.365031 
L 204.05 -229.365031 
L 204.05 -228.56741 
L 208.981818 -228.56741 
L 208.981818 -228.297066 
L 213.913636 -228.297066 
L 213.913636 -227.743362 
L 218.845455 -227.743362 
L 218.845455 -227.743362 
L 223.777273 -227.743362 
L 223.777273 -226.882102 
L 228.709091 -226.882102 
L 228.709091 -225.708082 
L 233.640909 -225.708082 
L 233.640909 -224.511697 
L 238.572727 -224.511697 
L 238.572727 -224.511697 
L 243.504545 -224.511697 
L 243.504545 -224.203169 
L 248.436364 -224.203169 
L 248.436364 -223.575069 
L 253.368182 -223.575069 
L 253.368182 -222.616031 
L 258.3 -222.616031 
L 258.3 -222.288471 
L 263.231818 -222.288471 
L 263.231818 -221.287197 
L 268.163636 -221.287197 
L 268.163636 -219.927077 
L 273.095455 -219.927077 
L 273.095455 -218.205977 
L 278.027273 -218.205977 
L 278.027273 -216.805669 
L 282.959091 -216.805669 
L 282.959091 -215.733173 
L 287.890909 -215.733173 
L 287.890909 -214.63591 
L 292.822727 -214.63591 
L 292.822727 -213.512638 
L 297.754545 -213.512638 
L 297.754545 -212.744463 
L 302.686364 -212.744463 
L 302.686364 -211.961633 
L 307.618182 -211.961633 
L 307.618182 -210.758659 
L 312.55 -210.758659 
L 312.55 -210.758659 
L 317.481818 -210.758659 
L 317.481818 -209.49242 
L 322.413636 -209.49242 
L 322.413636 -208.189286 
L 327.345455 -208.189286 
L 327.345455 -208.189286 
L 332.277273 -208.189286 
L 332.277273 -207.72964 
L 337.209091 -207.72964 
L 337.209091 -207.256235 
L 342.140909 -207.256235 
L 342.140909 -205.7698 
L 347.072727 -205.7698 
L 347.072727 -204.242407 
L 352.004545 -204.242407 
L 352.004545 -203.185749 
L 356.936364 -203.185749 
L 356.936364 -203.185749 
L 361.868182 -203.185749 
L 361.868182 -201.477405 
L 366.8 -201.477405 
L 366.8 -200.285535 
L 371.731818 -200.285535 
L 371.731818 -199.666205 
L 376.663636 -199.666205 
L 376.663636 -199.021218 
L 381.595455 -199.021218 
L 381.595455 -199.021218 
L 386.527273 -199.021218 
L 386.527273 -199.021218 
L 391.459091 -199.021218 
L 391.459091 -199.021218 
L 396.390909 -199.021218 
L 396.390909 -197.400662 
L 401.322727 -197.400662 
L 401.322727 -195.690981 
L 406.254545 -195.690981 
L 406.254545 -193.892246 
L 411.186364 -193.892246 
L 411.186364 -192.894883 
L 416.118182 -192.894883 
L 416.118182 -191.778605 
L 421.05 -191.778605 
L 421.05 -190.473841 
L 425.981818 -190.473841 
L 425.981818 -187.516761 
L 430.913636 -187.516761 
L 430.913636 -185.582604 
L 435.845455 -185.582604 
L 435.845455 -179.495908 
L 435.845455 -203.577863 
L 435.845455 -203.577863 
L 435.845455 -206.615094 
L 430.913636 -206.615094 
L 430.913636 -207.78448 
L 425.981818 -207.78448 
L 425.981818 -209.749988 
L 421.05 -209.749988 
L 421.05 -210.645279 
L 416.118182 -210.645279 
L 416.118182 -211.44813 
L 411.186364 -211.44813 
L 411.186364 -212.187554 
L 406.254545 -212.187554 
L 406.254545 -213.553713 
L 401.322727 -213.553713 
L 401.322727 -214.860597 
L 396.390909 -214.860597 
L 396.390909 -216.108615 
L 391.459091 -216.108615 
L 391.459091 -216.108615 
L 386.527273 -216.108615 
L 386.527273 -216.108615 
L 381.595455 -216.108615 
L 381.595455 -216.108615 
L 376.663636 -216.108615 
L 376.663636 -216.632651 
L 371.731818 -216.632651 
L 371.731818 -217.139548 
L 366.8 -217.139548 
L 366.8 -218.120813 
L 361.868182 -218.120813 
L 361.868182 -219.535346 
L 356.936364 -219.535346 
L 356.936364 -219.535346 
L 352.004545 -219.535346 
L 352.004545 -220.420797 
L 347.072727 -220.420797 
L 347.072727 -221.706053 
L 342.140909 -221.706053 
L 342.140909 -222.958817 
L 337.209091 -222.958817 
L 337.209091 -223.360395 
L 332.277273 -223.360395 
L 332.277273 -223.752074 
L 327.345455 -223.752074 
L 327.345455 -223.752074 
L 322.413636 -223.752074 
L 322.413636 -224.872031 
L 317.481818 -224.872031 
L 317.481818 -225.9629 
L 312.55 -225.9629 
L 312.55 -225.9629 
L 307.618182 -225.9629 
L 307.618182 -227.005984 
L 302.686364 -227.005984 
L 302.686364 -227.686235 
L 297.754545 -227.686235 
L 297.754545 -228.354874 
L 292.822727 -228.354874 
L 292.822727 -229.334994 
L 287.890909 -229.334994 
L 287.890909 -230.294109 
L 282.959091 -230.294109 
L 282.959091 -231.233169 
L 278.027273 -231.233169 
L 278.027273 -232.460604 
L 273.095455 -232.460604 
L 273.095455 -233.968947 
L 268.163636 -233.968947 
L 268.163636 -235.159823 
L 263.231818 -235.159823 
L 263.231818 -236.037162 
L 258.3 -236.037162 
L 258.3 -236.324676 
L 253.368182 -236.324676 
L 253.368182 -237.168696 
L 248.436364 -237.168696 
L 248.436364 -237.722198 
L 243.504545 -237.722198 
L 243.504545 -237.994597 
L 238.572727 -237.994597 
L 238.572727 -237.994597 
L 233.640909 -237.994597 
L 233.640909 -239.054477 
L 228.709091 -239.054477 
L 228.709091 -240.095377 
L 223.777273 -240.095377 
L 223.777273 -240.860165 
L 218.845455 -240.860165 
L 218.845455 -240.860165 
L 213.913636 -240.860165 
L 213.913636 -241.353864 
L 208.981818 -241.353864 
L 208.981818 -241.595567 
L 204.05 -241.595567 
L 204.05 -242.309765 
L 199.118182 -242.309765 
L 199.118182 -243.707694 
L 194.186364 -243.707694 
L 194.186364 -243.936335 
L 189.254545 -243.936335 
L 189.254545 -246.644146 
L 184.322727 -246.644146 
L 184.322727 -247.534308 
L 179.390909 -247.534308 
L 179.390909 -247.974893 
L 174.459091 -247.974893 
L 174.459091 -248.625972 
L 169.527273 -248.625972 
L 169.527273 -250.332757 
L 164.595455 -250.332757 
L 164.595455 -251.173412 
L 159.663636 -251.173412 
L 159.663636 -252.422741 
L 154.731818 -252.422741 
L 154.731818 -254.067845 
L 149.8 -254.067845 
L 149.8 -254.878628 
L 144.868182 -254.878628 
L 144.868182 -256.468413 
L 139.936364 -256.468413 
L 139.936364 -258.418626 
L 135.004545 -258.418626 
L 135.004545 -259.377241 
L 130.072727 -259.377241 
L 130.072727 -260.885833 
L 125.140909 -260.885833 
L 125.140909 -263.860466 
L 120.209091 -263.860466 
L 120.209091 -265.135509 
L 115.277273 -265.135509 
L 115.277273 -266.563483 
L 110.345455 -266.563483 
L 110.345455 -268.323011 
L 105.413636 -268.323011 
L 105.413636 -271.269385 
L 100.481818 -271.269385 
L 100.481818 -275.511026 
L 95.55 -275.511026 
L 95.55 -280.808009 
L 90.618182 -280.808009 
L 90.618182 -287.722407 
L 85.686364 -287.722407 
L 85.686364 -304.445455 
L 80.754545 -304.445455 
z
" id="m0300d49fba" style="stroke:#4c72b0;stroke-opacity:0.25;"/>
    </defs>
    <g clip-path="url(#p4c35d95ab1)">
     <use style="fill:#4c72b0;fill-opacity:0.25;stroke:#4c72b0;stroke-opacity:0.25;" x="0" xlink:href="#m0300d49fba" y="360"/>
    </g>
   </g>
   <g id="PolyCollection_2">
    <defs>
     <path d="M 80.754545 -304.445455 
L 80.754545 -304.445455 
L 85.686364 -304.445455 
L 85.686364 -274.14727 
L 90.618182 -274.14727 
L 90.618182 -263.824888 
L 95.55 -263.824888 
L 95.55 -255.972289 
L 100.481818 -255.972289 
L 100.481818 -248.198335 
L 105.413636 -248.198335 
L 105.413636 -242.091099 
L 110.345455 -242.091099 
L 110.345455 -237.945541 
L 115.277273 -237.945541 
L 115.277273 -232.204705 
L 120.209091 -232.204705 
L 120.209091 -227.582715 
L 125.140909 -227.582715 
L 125.140909 -223.515317 
L 130.072727 -223.515317 
L 130.072727 -218.074957 
L 135.004545 -218.074957 
L 135.004545 -214.825941 
L 139.936364 -214.825941 
L 139.936364 -210.954841 
L 144.868182 -210.954841 
L 144.868182 -206.458144 
L 149.8 -206.458144 
L 149.8 -203.442039 
L 154.731818 -203.442039 
L 154.731818 -199.649749 
L 159.663636 -199.649749 
L 159.663636 -196.588278 
L 164.595455 -196.588278 
L 164.595455 -193.341776 
L 169.527273 -193.341776 
L 169.527273 -191.001452 
L 174.459091 -191.001452 
L 174.459091 -188.470388 
L 179.390909 -188.470388 
L 179.390909 -186.083633 
L 184.322727 -186.083633 
L 184.322727 -183.994478 
L 189.254545 -183.994478 
L 189.254545 -181.5636 
L 194.186364 -181.5636 
L 194.186364 -179.593018 
L 199.118182 -179.593018 
L 199.118182 -176.763591 
L 204.05 -176.763591 
L 204.05 -173.735887 
L 208.981818 -173.735887 
L 208.981818 -171.364034 
L 213.913636 -171.364034 
L 213.913636 -169.475747 
L 218.845455 -169.475747 
L 218.845455 -167.391871 
L 223.777273 -167.391871 
L 223.777273 -165.287511 
L 228.709091 -165.287511 
L 228.709091 -163.33785 
L 233.640909 -163.33785 
L 233.640909 -161.358797 
L 238.572727 -161.358797 
L 238.572727 -157.890951 
L 243.504545 -157.890951 
L 243.504545 -155.666573 
L 248.436364 -155.666573 
L 248.436364 -153.789691 
L 253.368182 -153.789691 
L 253.368182 -151.500081 
L 258.3 -151.500081 
L 258.3 -149.753598 
L 263.231818 -149.753598 
L 263.231818 -147.406521 
L 268.163636 -147.406521 
L 268.163636 -145.623512 
L 273.095455 -145.623512 
L 273.095455 -143.816861 
L 278.027273 -143.816861 
L 278.027273 -141.991834 
L 282.959091 -141.991834 
L 282.959091 -139.726832 
L 287.890909 -139.726832 
L 287.890909 -137.424167 
L 292.822727 -137.424167 
L 292.822727 -134.878494 
L 297.754545 -134.878494 
L 297.754545 -134.015679 
L 302.686364 -134.015679 
L 302.686364 -133.358471 
L 307.618182 -133.358471 
L 307.618182 -131.342527 
L 312.55 -131.342527 
L 312.55 -128.138621 
L 317.481818 -128.138621 
L 317.481818 -126.741601 
L 322.413636 -126.741601 
L 322.413636 -123.90047 
L 327.345455 -123.90047 
L 327.345455 -121.479233 
L 332.277273 -121.479233 
L 332.277273 -119.74035 
L 337.209091 -119.74035 
L 337.209091 -117.952418 
L 342.140909 -117.952418 
L 342.140909 -115.586712 
L 347.072727 -115.586712 
L 347.072727 -112.889135 
L 352.004545 -112.889135 
L 352.004545 -110.949033 
L 356.936364 -110.949033 
L 356.936364 -108.66841 
L 361.868182 -108.66841 
L 361.868182 -107.173203 
L 366.8 -107.173203 
L 366.8 -104.405419 
L 371.731818 -104.405419 
L 371.731818 -102.502823 
L 376.663636 -102.502823 
L 376.663636 -100.865377 
L 381.595455 -100.865377 
L 381.595455 -98.450498 
L 386.527273 -98.450498 
L 386.527273 -96.640385 
L 391.459091 -96.640385 
L 391.459091 -95.118815 
L 396.390909 -95.118815 
L 396.390909 -94.313456 
L 401.322727 -94.313456 
L 401.322727 -91.253939 
L 406.254545 -91.253939 
L 406.254545 -86.039847 
L 411.186364 -86.039847 
L 411.186364 -81.459835 
L 416.118182 -81.459835 
L 416.118182 -76.973406 
L 421.05 -76.973406 
L 421.05 -72.619245 
L 425.981818 -72.619245 
L 425.981818 -66.273907 
L 430.913636 -66.273907 
L 430.913636 -62.12065 
L 435.845455 -62.12065 
L 435.845455 -57.354545 
L 435.845455 -79.57799 
L 435.845455 -79.57799 
L 435.845455 -83.29298 
L 430.913636 -83.29298 
L 430.913636 -86.818957 
L 425.981818 -86.818957 
L 425.981818 -92.337985 
L 421.05 -92.337985 
L 421.05 -96.177712 
L 416.118182 -96.177712 
L 416.118182 -100.178541 
L 411.186364 -100.178541 
L 411.186364 -104.301301 
L 406.254545 -104.301301 
L 406.254545 -109.012633 
L 401.322727 -109.012633 
L 401.322727 -111.795849 
L 396.390909 -111.795849 
L 396.390909 -112.535988 
L 391.459091 -112.535988 
L 391.459091 -113.944343 
L 386.527273 -113.944343 
L 386.527273 -115.628392 
L 381.595455 -115.628392 
L 381.595455 -117.884735 
L 376.663636 -117.884735 
L 376.663636 -119.42204 
L 371.731818 -119.42204 
L 371.731818 -121.212517 
L 366.8 -121.212517 
L 366.8 -123.821253 
L 361.868182 -123.821253 
L 361.868182 -125.23252 
L 356.936364 -125.23252 
L 356.936364 -127.393998 
L 352.004545 -127.393998 
L 352.004545 -129.235437 
L 347.072727 -129.235437 
L 347.072727 -131.798781 
L 342.140909 -131.798781 
L 342.140909 -134.048635 
L 337.209091 -134.048635 
L 337.209091 -135.751619 
L 332.277273 -135.751619 
L 332.277273 -137.410677 
L 327.345455 -137.410677 
L 327.345455 -139.723523 
L 322.413636 -139.723523 
L 322.413636 -142.43861 
L 317.481818 -142.43861 
L 317.481818 -143.773914 
L 312.55 -143.773914 
L 312.55 -146.836708 
L 307.618182 -146.836708 
L 307.618182 -148.764529 
L 302.686364 -148.764529 
L 302.686364 -149.393846 
L 297.754545 -149.393846 
L 297.754545 -150.220907 
L 292.822727 -150.220907 
L 292.822727 -152.662375 
L 287.890909 -152.662375 
L 287.890909 -154.870145 
L 282.959091 -154.870145 
L 282.959091 -157.042068 
L 278.027273 -157.042068 
L 278.027273 -158.792383 
L 273.095455 -158.792383 
L 273.095455 -160.524752 
L 268.163636 -160.524752 
L 268.163636 -162.23466 
L 263.231818 -162.23466 
L 263.231818 -164.485332 
L 258.3 -164.485332 
L 258.3 -166.15918 
L 253.368182 -166.15918 
L 253.368182 -168.354307 
L 248.436364 -168.354307 
L 248.436364 -170.154194 
L 243.504545 -170.154194 
L 243.504545 -172.287127 
L 238.572727 -172.287127 
L 238.572727 -175.611442 
L 233.640909 -175.611442 
L 233.640909 -177.507969 
L 228.709091 -177.507969 
L 228.709091 -179.376679 
L 223.777273 -179.376679 
L 223.777273 -181.39319 
L 218.845455 -181.39319 
L 218.845455 -183.389361 
L 213.913636 -183.389361 
L 213.913636 -185.19793 
L 208.981818 -185.19793 
L 208.981818 -187.469483 
L 204.05 -187.469483 
L 204.05 -190.366424 
L 199.118182 -190.366424 
L 199.118182 -193.071516 
L 194.186364 -193.071516 
L 194.186364 -194.955066 
L 189.254545 -194.955066 
L 189.254545 -197.278274 
L 184.322727 -197.278274 
L 184.322727 -199.273706 
L 179.390909 -199.273706 
L 179.390909 -201.552355 
L 174.459091 -201.552355 
L 174.459091 -203.966475 
L 169.527273 -203.966475 
L 169.527273 -206.198103 
L 164.595455 -206.198103 
L 164.595455 -209.291103 
L 159.663636 -209.291103 
L 159.663636 -212.204739 
L 154.731818 -212.204739 
L 154.731818 -215.809113 
L 149.8 -215.809113 
L 149.8 -218.671063 
L 144.868182 -218.671063 
L 144.868182 -222.929772 
L 139.936364 -222.929772 
L 139.936364 -226.587822 
L 135.004545 -226.587822 
L 135.004545 -229.652616 
L 130.072727 -229.652616 
L 130.072727 -234.770251 
L 125.140909 -234.770251 
L 125.140909 -238.586689 
L 120.209091 -238.586689 
L 120.209091 -242.910558 
L 115.277273 -242.910558 
L 115.277273 -248.260244 
L 110.345455 -248.260244 
L 110.345455 -252.106951 
L 105.413636 -252.106951 
L 105.413636 -257.747693 
L 100.481818 -257.747693 
L 100.481818 -264.873486 
L 95.55 -264.873486 
L 95.55 -271.999927 
L 90.618182 -271.999927 
L 90.618182 -281.22198 
L 85.686364 -281.22198 
L 85.686364 -304.445455 
L 80.754545 -304.445455 
z
" id="mb2f98e788c" style="stroke:#dd8452;stroke-opacity:0.25;"/>
    </defs>
    <g clip-path="url(#p4c35d95ab1)">
     <use style="fill:#dd8452;fill-opacity:0.25;stroke:#dd8452;stroke-opacity:0.25;" x="0" xlink:href="#mb2f98e788c" y="360"/>
    </g>
   </g>
   <g id="PolyCollection_3">
    <defs>
     <path d="M 80.754545 -304.445455 
L 80.754545 -304.445455 
L 85.686364 -304.445455 
L 85.686364 -284.583973 
L 90.618182 -284.583973 
L 90.618182 -282.640973 
L 95.55 -282.640973 
L 95.55 -280.642386 
L 100.481818 -280.642386 
L 100.481818 -279.618629 
L 105.413636 -279.618629 
L 105.413636 -278.214801 
L 110.345455 -278.214801 
L 110.345455 -277.857877 
L 115.277273 -277.857877 
L 115.277273 -276.759434 
L 120.209091 -276.759434 
L 120.209091 -275.640959 
L 125.140909 -275.640959 
L 125.140909 -274.876228 
L 130.072727 -274.876228 
L 130.072727 -274.876228 
L 135.004545 -274.876228 
L 135.004545 -273.274015 
L 139.936364 -273.274015 
L 139.936364 -272.459375 
L 144.868182 -272.459375 
L 144.868182 -272.459375 
L 149.8 -272.459375 
L 149.8 -272.459375 
L 154.731818 -272.459375 
L 154.731818 -270.704524 
L 159.663636 -270.704524 
L 159.663636 -269.806512 
L 164.595455 -269.806512 
L 164.595455 -269.349054 
L 169.527273 -269.349054 
L 169.527273 -268.881286 
L 174.459091 -268.881286 
L 174.459091 -268.881286 
L 179.390909 -268.881286 
L 179.390909 -268.390033 
L 184.322727 -268.390033 
L 184.322727 -268.390033 
L 189.254545 -268.390033 
L 189.254545 -268.390033 
L 194.186364 -268.390033 
L 194.186364 -268.390033 
L 199.118182 -268.390033 
L 199.118182 -268.390033 
L 204.05 -268.390033 
L 204.05 -267.271112 
L 208.981818 -267.271112 
L 208.981818 -267.271112 
L 213.913636 -267.271112 
L 213.913636 -267.271112 
L 218.845455 -267.271112 
L 218.845455 -267.271112 
L 223.777273 -267.271112 
L 223.777273 -267.271112 
L 228.709091 -267.271112 
L 228.709091 -266.642719 
L 233.640909 -266.642719 
L 233.640909 -266.004263 
L 238.572727 -266.004263 
L 238.572727 -266.004263 
L 243.504545 -266.004263 
L 243.504545 -265.345003 
L 248.436364 -265.345003 
L 248.436364 -265.345003 
L 253.368182 -265.345003 
L 253.368182 -265.345003 
L 258.3 -265.345003 
L 258.3 -265.345003 
L 263.231818 -265.345003 
L 263.231818 -265.345003 
L 268.163636 -265.345003 
L 268.163636 -265.345003 
L 273.095455 -265.345003 
L 273.095455 -265.345003 
L 278.027273 -265.345003 
L 278.027273 -265.345003 
L 282.959091 -265.345003 
L 282.959091 -265.345003 
L 287.890909 -265.345003 
L 287.890909 -265.345003 
L 292.822727 -265.345003 
L 292.822727 -265.345003 
L 297.754545 -265.345003 
L 297.754545 -265.345003 
L 302.686364 -265.345003 
L 302.686364 -264.4237 
L 307.618182 -264.4237 
L 307.618182 -264.4237 
L 312.55 -264.4237 
L 312.55 -264.4237 
L 317.481818 -264.4237 
L 317.481818 -264.4237 
L 322.413636 -264.4237 
L 322.413636 -264.4237 
L 327.345455 -264.4237 
L 327.345455 -264.4237 
L 332.277273 -264.4237 
L 332.277273 -264.4237 
L 337.209091 -264.4237 
L 337.209091 -264.4237 
L 342.140909 -264.4237 
L 342.140909 -261.890951 
L 347.072727 -261.890951 
L 347.072727 -261.890951 
L 352.004545 -261.890951 
L 352.004545 -261.890951 
L 356.936364 -261.890951 
L 356.936364 -259.063508 
L 361.868182 -259.063508 
L 361.868182 -259.063508 
L 366.8 -259.063508 
L 366.8 -259.063508 
L 371.731818 -259.063508 
L 371.731818 -257.43639 
L 376.663636 -257.43639 
L 376.663636 -257.43639 
L 381.595455 -257.43639 
L 381.595455 -255.659508 
L 386.527273 -255.659508 
L 386.527273 -255.659508 
L 391.459091 -255.659508 
L 391.459091 -255.659508 
L 396.390909 -255.659508 
L 396.390909 -255.659508 
L 401.322727 -255.659508 
L 401.322727 -255.659508 
L 406.254545 -255.659508 
L 406.254545 -255.659508 
L 411.186364 -255.659508 
L 411.186364 -255.659508 
L 416.118182 -255.659508 
L 416.118182 -255.659508 
L 421.05 -255.659508 
L 421.05 -255.659508 
L 425.981818 -255.659508 
L 425.981818 -255.659508 
L 430.913636 -255.659508 
L 430.913636 -255.659508 
L 435.845455 -255.659508 
L 435.845455 -255.659508 
L 435.845455 -271.977279 
L 435.845455 -271.977279 
L 435.845455 -271.977279 
L 430.913636 -271.977279 
L 430.913636 -271.977279 
L 425.981818 -271.977279 
L 425.981818 -271.977279 
L 421.05 -271.977279 
L 421.05 -271.977279 
L 416.118182 -271.977279 
L 416.118182 -271.977279 
L 411.186364 -271.977279 
L 411.186364 -271.977279 
L 406.254545 -271.977279 
L 406.254545 -271.977279 
L 401.322727 -271.977279 
L 401.322727 -271.977279 
L 396.390909 -271.977279 
L 396.390909 -271.977279 
L 391.459091 -271.977279 
L 391.459091 -271.977279 
L 386.527273 -271.977279 
L 386.527273 -271.977279 
L 381.595455 -271.977279 
L 381.595455 -272.951488 
L 376.663636 -272.951488 
L 376.663636 -272.951488 
L 371.731818 -272.951488 
L 371.731818 -273.859474 
L 366.8 -273.859474 
L 366.8 -273.859474 
L 361.868182 -273.859474 
L 361.868182 -273.859474 
L 356.936364 -273.859474 
L 356.936364 -275.491653 
L 352.004545 -275.491653 
L 352.004545 -275.491653 
L 347.072727 -275.491653 
L 347.072727 -275.491653 
L 342.140909 -275.491653 
L 342.140909 -276.9685 
L 337.209091 -276.9685 
L 337.209091 -276.9685 
L 332.277273 -276.9685 
L 332.277273 -276.9685 
L 327.345455 -276.9685 
L 327.345455 -276.9685 
L 322.413636 -276.9685 
L 322.413636 -276.9685 
L 317.481818 -276.9685 
L 317.481818 -276.9685 
L 312.55 -276.9685 
L 312.55 -276.9685 
L 307.618182 -276.9685 
L 307.618182 -276.9685 
L 302.686364 -276.9685 
L 302.686364 -277.567349 
L 297.754545 -277.567349 
L 297.754545 -277.567349 
L 292.822727 -277.567349 
L 292.822727 -277.567349 
L 287.890909 -277.567349 
L 287.890909 -277.567349 
L 282.959091 -277.567349 
L 282.959091 -277.567349 
L 278.027273 -277.567349 
L 278.027273 -277.567349 
L 273.095455 -277.567349 
L 273.095455 -277.567349 
L 268.163636 -277.567349 
L 268.163636 -277.567349 
L 263.231818 -277.567349 
L 263.231818 -277.567349 
L 258.3 -277.567349 
L 258.3 -277.567349 
L 253.368182 -277.567349 
L 253.368182 -277.567349 
L 248.436364 -277.567349 
L 248.436364 -277.567349 
L 243.504545 -277.567349 
L 243.504545 -278.043835 
L 238.572727 -278.043835 
L 238.572727 -278.043835 
L 233.640909 -278.043835 
L 233.640909 -278.507466 
L 228.709091 -278.507466 
L 228.709091 -278.963759 
L 223.777273 -278.963759 
L 223.777273 -278.963759 
L 218.845455 -278.963759 
L 218.845455 -278.963759 
L 213.913636 -278.963759 
L 213.913636 -278.963759 
L 208.981818 -278.963759 
L 208.981818 -278.963759 
L 204.05 -278.963759 
L 204.05 -279.798657 
L 199.118182 -279.798657 
L 199.118182 -279.798657 
L 194.186364 -279.798657 
L 194.186364 -279.798657 
L 189.254545 -279.798657 
L 189.254545 -279.798657 
L 184.322727 -279.798657 
L 184.322727 -279.798657 
L 179.390909 -279.798657 
L 179.390909 -280.176166 
L 174.459091 -280.176166 
L 174.459091 -280.176166 
L 169.527273 -280.176166 
L 169.527273 -280.539084 
L 164.595455 -280.539084 
L 164.595455 -280.895045 
L 159.663636 -280.895045 
L 159.663636 -281.594387 
L 154.731818 -281.594387 
L 154.731818 -282.958546 
L 149.8 -282.958546 
L 149.8 -282.958546 
L 144.868182 -282.958546 
L 144.868182 -282.958546 
L 139.936364 -282.958546 
L 139.936364 -283.598566 
L 135.004545 -283.598566 
L 135.004545 -284.853838 
L 130.072727 -284.853838 
L 130.072727 -284.853838 
L 125.140909 -284.853838 
L 125.140909 -285.455506 
L 120.209091 -285.455506 
L 120.209091 -286.335958 
L 115.277273 -286.335958 
L 115.277273 -287.198692 
L 110.345455 -287.198692 
L 110.345455 -287.479479 
L 105.413636 -287.479479 
L 105.413636 -288.5823 
L 100.481818 -288.5823 
L 100.481818 -289.385727 
L 95.55 -289.385727 
L 95.55 -290.947608 
L 90.618182 -290.947608 
L 90.618182 -292.4552 
L 85.686364 -292.4552 
L 85.686364 -304.445455 
L 80.754545 -304.445455 
z
" id="md5d8d1d3c4" style="stroke:#55a868;stroke-opacity:0.25;"/>
    </defs>
    <g clip-path="url(#p4c35d95ab1)">
     <use style="fill:#55a868;fill-opacity:0.25;stroke:#55a868;stroke-opacity:0.25;" x="0" xlink:href="#md5d8d1d3c4" y="360"/>
    </g>
   </g>
   <g id="line2d_16">
    <path clip-path="url(#p4c35d95ab1)" d="M 80.754545 55.554545 
L 85.686364 55.554545 
L 85.686364 75.487115 
L 90.618182 75.487115 
L 90.618182 82.993558 
L 95.55 82.993558 
L 95.55 88.682416 
L 100.481818 88.682416 
L 100.481818 93.211347 
L 105.413636 93.211347 
L 105.413636 96.346734 
L 110.345455 96.346734 
L 110.345455 98.215707 
L 115.277273 98.215707 
L 115.277273 99.731229 
L 120.209091 99.731229 
L 120.209091 101.08433 
L 125.140909 101.08433 
L 125.140909 104.238241 
L 130.072727 104.238241 
L 130.072727 105.835539 
L 135.004545 105.835539 
L 135.004545 106.850431 
L 139.936364 106.850431 
L 139.936364 108.914599 
L 144.868182 108.914599 
L 144.868182 110.596568 
L 149.8 110.596568 
L 149.8 111.454579 
L 154.731818 111.454579 
L 154.731818 113.195222 
L 159.663636 113.195222 
L 159.663636 114.516443 
L 164.595455 114.516443 
L 164.595455 115.405182 
L 169.527273 115.405182 
L 169.527273 117.209398 
L 174.459091 117.209398 
L 174.459091 117.897746 
L 179.390909 117.897746 
L 179.390909 118.363829 
L 184.322727 118.363829 
L 184.322727 119.305626 
L 189.254545 119.305626 
L 189.254545 122.168582 
L 194.186364 122.168582 
L 194.186364 122.410231 
L 199.118182 122.410231 
L 199.118182 123.888681 
L 204.05 123.888681 
L 204.05 124.644517 
L 208.981818 124.644517 
L 208.981818 124.900498 
L 213.913636 124.900498 
L 213.913636 125.424051 
L 223.777273 125.424051 
L 223.777273 126.236701 
L 228.709091 126.236701 
L 228.709091 127.343575 
L 233.640909 127.343575 
L 233.640909 128.471069 
L 243.504545 128.471069 
L 243.504545 128.761327 
L 248.436364 128.761327 
L 248.436364 129.351664 
L 253.368182 129.351664 
L 253.368182 130.252438 
L 258.3 130.252438 
L 258.3 130.559686 
L 263.231818 130.559686 
L 263.231818 131.498043 
L 268.163636 131.498043 
L 268.163636 132.772221 
L 273.095455 132.772221 
L 273.095455 134.385343 
L 278.027273 134.385343 
L 278.027273 135.697933 
L 282.959091 135.697933 
L 282.959091 136.702695 
L 287.890909 136.702695 
L 287.890909 137.729785 
L 292.822727 137.729785 
L 292.822727 138.780294 
L 297.754545 138.780294 
L 297.754545 139.497829 
L 302.686364 139.497829 
L 302.686364 140.228439 
L 307.618182 140.228439 
L 307.618182 141.349961 
L 317.481818 141.349961 
L 317.481818 142.526662 
L 322.413636 142.526662 
L 322.413636 143.736215 
L 332.277273 143.736215 
L 332.277273 144.161047 
L 337.209091 144.161047 
L 337.209091 144.597615 
L 342.140909 144.597615 
L 342.140909 145.964014 
L 347.072727 145.964014 
L 347.072727 147.367014 
L 352.004545 147.367014 
L 352.004545 148.335649 
L 361.868182 148.335649 
L 361.868182 149.892555 
L 366.8 149.892555 
L 366.8 150.975778 
L 371.731818 150.975778 
L 371.731818 151.537049 
L 376.663636 151.537049 
L 376.663636 152.1195 
L 396.390909 152.1195 
L 396.390909 153.545965 
L 401.322727 153.545965 
L 401.322727 155.045671 
L 406.254545 155.045671 
L 406.254545 156.618817 
L 411.186364 156.618817 
L 411.186364 157.481366 
L 416.118182 157.481366 
L 416.118182 158.433424 
L 421.05 158.433424 
L 421.05 159.522964 
L 425.981818 159.522964 
L 425.981818 161.957887 
L 430.913636 161.957887 
L 430.913636 163.487518 
L 435.845455 163.487518 
L 435.845455 167.949901 
L 435.845455 167.949901 
" style="fill:none;stroke:#4c72b0;stroke-linecap:round;stroke-width:1.5;"/>
   </g>
   <g id="line2d_17">
    <path clip-path="url(#p4c35d95ab1)" d="M 80.754545 55.554545 
L 85.686364 55.554545 
L 85.686364 82.088889 
L 90.618182 82.088889 
L 90.618182 91.869694 
L 95.55 91.869694 
L 95.55 99.365519 
L 100.481818 99.365519 
L 100.481818 106.821519 
L 105.413636 106.821519 
L 105.413636 112.700367 
L 110.345455 112.700367 
L 110.345455 116.699784 
L 115.277273 116.699784 
L 115.277273 122.249642 
L 120.209091 122.249642 
L 120.209091 126.726282 
L 125.140909 126.726282 
L 125.140909 130.671474 
L 130.072727 130.671474 
L 130.072727 135.954787 
L 135.004545 135.954787 
L 135.004545 139.114303 
L 139.936364 139.114303 
L 139.936364 142.881975 
L 144.868182 142.881975 
L 144.868182 147.2633 
L 149.8 147.2633 
L 149.8 150.204773 
L 154.731818 150.204773 
L 154.731818 153.906196 
L 159.663636 153.906196 
L 159.663636 156.896237 
L 164.595455 156.896237 
L 164.595455 160.068615 
L 169.527273 160.068615 
L 169.527273 162.356476 
L 174.459091 162.356476 
L 174.459091 164.831072 
L 179.390909 164.831072 
L 179.390909 167.165673 
L 184.322727 167.165673 
L 184.322727 169.209618 
L 189.254545 169.209618 
L 189.254545 171.58858 
L 194.186364 171.58858 
L 194.186364 173.517182 
L 199.118182 173.517182 
L 199.118182 176.286624 
L 204.05 176.286624 
L 204.05 179.251292 
L 208.981818 179.251292 
L 208.981818 181.574851 
L 213.913636 181.574851 
L 213.913636 183.424744 
L 218.845455 183.424744 
L 218.845455 185.466376 
L 223.777273 185.466376 
L 223.777273 187.528436 
L 228.709091 187.528436 
L 228.709091 189.439126 
L 233.640909 189.439126 
L 233.640909 191.378426 
L 238.572727 191.378426 
L 238.572727 194.777157 
L 243.504545 194.777157 
L 243.504545 196.957517 
L 248.436364 196.957517 
L 248.436364 198.797339 
L 253.368182 198.797339 
L 253.368182 201.041447 
L 258.3 201.041447 
L 258.3 202.752929 
L 263.231818 202.752929 
L 263.231818 205.053597 
L 268.163636 205.053597 
L 268.163636 206.801421 
L 273.095455 206.801421 
L 273.095455 208.572315 
L 278.027273 208.572315 
L 278.027273 210.361393 
L 282.959091 210.361393 
L 282.959091 212.581603 
L 287.890909 212.581603 
L 287.890909 214.838602 
L 292.822727 214.838602 
L 292.822727 217.334168 
L 297.754545 217.334168 
L 297.754545 218.179779 
L 302.686364 218.179779 
L 302.686364 218.823546 
L 307.618182 218.823546 
L 307.618182 220.796944 
L 312.55 220.796944 
L 312.55 223.932722 
L 317.481818 223.932722 
L 317.481818 225.299953 
L 322.413636 225.299953 
L 322.413636 228.080261 
L 327.345455 228.080261 
L 327.345455 230.449197 
L 332.277273 230.449197 
L 332.277273 232.149522 
L 337.209091 232.149522 
L 337.209091 233.896354 
L 342.140909 233.896354 
L 342.140909 236.205942 
L 347.072727 236.205942 
L 347.072727 238.838492 
L 352.004545 238.838492 
L 352.004545 240.730778 
L 356.936364 240.730778 
L 356.936364 242.953616 
L 361.868182 242.953616 
L 361.868182 244.407982 
L 366.8 244.407982 
L 366.8 247.098358 
L 371.731818 247.098358 
L 371.731818 248.946372 
L 376.663636 248.946372 
L 376.663636 250.535016 
L 381.595455 250.535016 
L 381.595455 252.872447 
L 386.527273 252.872447 
L 386.527273 254.620874 
L 391.459091 254.620874 
L 391.459091 256.086935 
L 396.390909 256.086935 
L 396.390909 256.860227 
L 401.322727 256.860227 
L 401.322727 259.783492 
L 406.254545 259.783492 
L 406.254545 264.749657 
L 411.186364 264.749657 
L 411.186364 269.10455 
L 416.118182 269.10455 
L 416.118182 273.351914 
L 421.05 273.351914 
L 421.05 277.452818 
L 425.981818 277.452818 
L 425.981818 283.39162 
L 430.913636 283.39162 
L 430.913636 287.236062 
L 435.845455 287.236062 
L 435.845455 291.481459 
L 435.845455 291.481459 
" style="fill:none;stroke:#dd8452;stroke-linecap:round;stroke-width:1.5;"/>
   </g>
   <g id="line2d_18">
    <path clip-path="url(#p4c35d95ab1)" d="M 80.754545 55.554545 
L 85.686364 55.554545 
L 85.686364 70.996336 
L 90.618182 70.996336 
L 90.618182 72.721179 
L 95.55 72.721179 
L 95.55 74.50013 
L 100.481818 74.50013 
L 100.481818 75.412754 
L 105.413636 75.412754 
L 105.413636 76.664212 
L 110.345455 76.664212 
L 110.345455 76.982529 
L 115.277273 76.982529 
L 115.277273 77.961048 
L 120.209091 77.961048 
L 120.209091 78.958287 
L 125.140909 78.958287 
L 125.140909 79.639748 
L 135.004545 79.639748 
L 135.004545 81.063869 
L 139.936364 81.063869 
L 139.936364 81.788863 
L 154.731818 81.788863 
L 154.731818 83.341467 
L 159.663636 83.341467 
L 159.663636 84.136603 
L 164.595455 84.136603 
L 164.595455 84.541446 
L 169.527273 84.541446 
L 169.527273 84.954751 
L 179.390909 84.954751 
L 179.390909 85.386605 
L 204.05 85.386605 
L 204.05 86.355208 
L 228.709091 86.355208 
L 228.709091 86.891623 
L 233.640909 86.891623 
L 233.640909 87.436651 
L 243.504545 87.436651 
L 243.504545 87.998096 
L 302.686364 87.998096 
L 302.686364 88.742571 
L 342.140909 88.742571 
L 342.140909 90.687563 
L 356.936364 90.687563 
L 356.936364 92.848665 
L 371.731818 92.848665 
L 371.731818 94.073289 
L 381.595455 94.073289 
L 381.595455 95.399965 
L 435.845455 95.399965 
L 435.845455 95.399965 
" style="fill:none;stroke:#55a868;stroke-linecap:round;stroke-width:1.5;"/>
   </g>
   <g id="patch_3">
    <path d="M 63 315 
L 63 43.2 
" style="fill:none;stroke:#ffffff;stroke-linecap:square;stroke-linejoin:miter;stroke-width:1.25;"/>
   </g>
   <g id="patch_4">
    <path d="M 453.6 315 
L 453.6 43.2 
" style="fill:none;stroke:#ffffff;stroke-linecap:square;stroke-linejoin:miter;stroke-width:1.25;"/>
   </g>
   <g id="patch_5">
    <path d="M 63 315 
L 453.6 315 
" style="fill:none;stroke:#ffffff;stroke-linecap:square;stroke-linejoin:miter;stroke-width:1.25;"/>
   </g>
   <g id="patch_6">
    <path d="M 63 43.2 
L 453.6 43.2 
" style="fill:none;stroke:#ffffff;stroke-linecap:square;stroke-linejoin:miter;stroke-width:1.25;"/>
   </g>
   <g id="text_18">
    <!-- Survival curves, stratified by InternetService -->
    <g style="fill:#262626;" transform="translate(131.584688 33.2)scale(0.12 -0.12)">
     <defs>
      <path d="M 52.390625 36.53125 
L 38.875 34.078125 
Q 38.1875 38.140625 35.765625 40.1875 
Q 33.34375 42.234375 29.5 42.234375 
Q 24.359375 42.234375 21.3125 38.6875 
Q 18.265625 35.15625 18.265625 26.859375 
Q 18.265625 17.625 21.359375 13.8125 
Q 24.46875 10.015625 29.6875 10.015625 
Q 33.59375 10.015625 36.078125 12.234375 
Q 38.578125 14.453125 39.59375 19.875 
L 53.078125 17.578125 
Q 50.984375 8.296875 45.015625 3.5625 
Q 39.0625 -1.171875 29.046875 -1.171875 
Q 17.671875 -1.171875 10.90625 6 
Q 4.15625 13.1875 4.15625 25.875 
Q 4.15625 38.71875 10.9375 45.875 
Q 17.71875 53.03125 29.296875 53.03125 
Q 38.765625 53.03125 44.359375 48.953125 
Q 49.953125 44.875 52.390625 36.53125 
z
" id="Arial-BoldMT-99"/>
      <path d="M 6.84375 13.71875 
L 20.5625 13.71875 
L 20.5625 3.90625 
Q 20.5625 -2.046875 19.53125 -5.484375 
Q 18.5 -8.9375 15.640625 -11.671875 
Q 12.796875 -14.40625 8.40625 -15.96875 
L 5.71875 -10.296875 
Q 9.859375 -8.9375 11.609375 -6.546875 
Q 13.375 -4.15625 13.484375 0 
L 6.84375 0 
z
" id="Arial-BoldMT-44"/>
      <path d="M 1.171875 51.859375 
L 8.796875 51.859375 
L 8.796875 55.765625 
Q 8.796875 62.3125 10.1875 65.53125 
Q 11.578125 68.75 15.3125 70.765625 
Q 19.046875 72.796875 24.75 72.796875 
Q 30.609375 72.796875 36.234375 71.046875 
L 34.375 61.46875 
Q 31.109375 62.25 28.078125 62.25 
Q 25.09375 62.25 23.796875 60.859375 
Q 22.515625 59.46875 22.515625 55.515625 
L 22.515625 51.859375 
L 32.765625 51.859375 
L 32.765625 41.0625 
L 22.515625 41.0625 
L 22.515625 0 
L 8.796875 0 
L 8.796875 41.0625 
L 1.171875 41.0625 
z
" id="Arial-BoldMT-102"/>
      <path d="M 54.734375 0 
L 42 0 
L 42 7.625 
Q 38.8125 3.171875 34.484375 1 
Q 30.171875 -1.171875 25.78125 -1.171875 
Q 16.84375 -1.171875 10.46875 6.03125 
Q 4.109375 13.234375 4.109375 26.125 
Q 4.109375 39.3125 10.296875 46.171875 
Q 16.5 53.03125 25.984375 53.03125 
Q 34.671875 53.03125 41.015625 45.796875 
L 41.015625 71.578125 
L 54.734375 71.578125 
z
M 18.109375 27.046875 
Q 18.109375 18.75 20.40625 15.046875 
Q 23.734375 9.671875 29.6875 9.671875 
Q 34.421875 9.671875 37.734375 13.6875 
Q 41.0625 17.71875 41.0625 25.734375 
Q 41.0625 34.671875 37.84375 38.59375 
Q 34.625 42.53125 29.59375 42.53125 
Q 24.703125 42.53125 21.40625 38.640625 
Q 18.109375 34.765625 18.109375 27.046875 
z
" id="Arial-BoldMT-100"/>
      <path d="M 6.84375 0 
L 6.84375 71.578125 
L 21.296875 71.578125 
L 21.296875 0 
z
" id="Arial-BoldMT-73"/>
     </defs>
     <use xlink:href="#Arial-BoldMT-83"/>
     <use x="66.699219" xlink:href="#Arial-BoldMT-117"/>
     <use x="127.783203" xlink:href="#Arial-BoldMT-114"/>
     <use x="166.699219" xlink:href="#Arial-BoldMT-118"/>
     <use x="222.314453" xlink:href="#Arial-BoldMT-105"/>
     <use x="250.097656" xlink:href="#Arial-BoldMT-118"/>
     <use x="305.712891" xlink:href="#Arial-BoldMT-97"/>
     <use x="361.328125" xlink:href="#Arial-BoldMT-108"/>
     <use x="389.111328" xlink:href="#Arial-BoldMT-32"/>
     <use x="416.894531" xlink:href="#Arial-BoldMT-99"/>
     <use x="472.509766" xlink:href="#Arial-BoldMT-117"/>
     <use x="533.59375" xlink:href="#Arial-BoldMT-114"/>
     <use x="572.509766" xlink:href="#Arial-BoldMT-118"/>
     <use x="628.125" xlink:href="#Arial-BoldMT-101"/>
     <use x="683.740234" xlink:href="#Arial-BoldMT-115"/>
     <use x="739.355469" xlink:href="#Arial-BoldMT-44"/>
     <use x="767.138672" xlink:href="#Arial-BoldMT-32"/>
     <use x="794.921875" xlink:href="#Arial-BoldMT-115"/>
     <use x="850.537109" xlink:href="#Arial-BoldMT-116"/>
     <use x="883.837891" xlink:href="#Arial-BoldMT-114"/>
     <use x="922.753906" xlink:href="#Arial-BoldMT-97"/>
     <use x="978.369141" xlink:href="#Arial-BoldMT-116"/>
     <use x="1011.669922" xlink:href="#Arial-BoldMT-105"/>
     <use x="1039.453125" xlink:href="#Arial-BoldMT-102"/>
     <use x="1072.753906" xlink:href="#Arial-BoldMT-105"/>
     <use x="1100.537109" xlink:href="#Arial-BoldMT-101"/>
     <use x="1156.152344" xlink:href="#Arial-BoldMT-100"/>
     <use x="1217.236328" xlink:href="#Arial-BoldMT-32"/>
     <use x="1245.019531" xlink:href="#Arial-BoldMT-98"/>
     <use x="1306.103516" xlink:href="#Arial-BoldMT-121"/>
     <use x="1361.71875" xlink:href="#Arial-BoldMT-32"/>
     <use x="1389.501953" xlink:href="#Arial-BoldMT-73"/>
     <use x="1417.285156" xlink:href="#Arial-BoldMT-110"/>
     <use x="1478.369141" xlink:href="#Arial-BoldMT-116"/>
     <use x="1511.669922" xlink:href="#Arial-BoldMT-101"/>
     <use x="1567.285156" xlink:href="#Arial-BoldMT-114"/>
     <use x="1606.201172" xlink:href="#Arial-BoldMT-110"/>
     <use x="1667.285156" xlink:href="#Arial-BoldMT-101"/>
     <use x="1722.900391" xlink:href="#Arial-BoldMT-116"/>
     <use x="1756.201172" xlink:href="#Arial-BoldMT-83"/>
     <use x="1822.900391" xlink:href="#Arial-BoldMT-101"/>
     <use x="1878.515625" xlink:href="#Arial-BoldMT-114"/>
     <use x="1917.431641" xlink:href="#Arial-BoldMT-118"/>
     <use x="1973.046875" xlink:href="#Arial-BoldMT-105"/>
     <use x="2000.830078" xlink:href="#Arial-BoldMT-99"/>
     <use x="2056.445312" xlink:href="#Arial-BoldMT-101"/>
    </g>
   </g>
   <g id="legend_1">
    <g id="patch_7">
     <path d="M 70.7 309.5 
L 157.249375 309.5 
Q 159.449375 309.5 159.449375 307.3 
L 159.449375 261.720469 
Q 159.449375 259.520469 157.249375 259.520469 
L 70.7 259.520469 
Q 68.5 259.520469 68.5 261.720469 
L 68.5 307.3 
Q 68.5 309.5 70.7 309.5 
z
" style="fill:#eaeaf2;opacity:0.8;stroke:#cccccc;stroke-linejoin:miter;"/>
    </g>
    <g id="line2d_19">
     <path d="M 72.9 267.944062 
L 94.9 267.944062 
" style="fill:none;stroke:#4c72b0;stroke-linecap:round;stroke-width:1.5;"/>
    </g>
    <g id="line2d_20"/>
    <g id="text_19">
     <!-- DSL -->
     <g style="fill:#262626;" transform="translate(103.7 271.794062)scale(0.11 -0.11)">
      <defs>
       <path d="M 7.71875 0 
L 7.71875 71.578125 
L 32.375 71.578125 
Q 40.71875 71.578125 45.125 70.5625 
Q 51.265625 69.140625 55.609375 65.4375 
Q 61.28125 60.640625 64.078125 53.1875 
Q 66.890625 45.75 66.890625 36.1875 
Q 66.890625 28.03125 64.984375 21.734375 
Q 63.09375 15.4375 60.109375 11.296875 
Q 57.125 7.171875 53.578125 4.796875 
Q 50.046875 2.4375 45.046875 1.21875 
Q 40.046875 0 33.546875 0 
z
M 17.1875 8.453125 
L 32.46875 8.453125 
Q 39.546875 8.453125 43.578125 9.765625 
Q 47.609375 11.078125 50 13.484375 
Q 53.375 16.84375 55.25 22.53125 
Q 57.125 28.21875 57.125 36.328125 
Q 57.125 47.5625 53.4375 53.59375 
Q 49.75 59.625 44.484375 61.671875 
Q 40.671875 63.140625 32.234375 63.140625 
L 17.1875 63.140625 
z
" id="ArialMT-68"/>
       <path d="M 4.5 23 
L 13.421875 23.78125 
Q 14.0625 18.40625 16.375 14.96875 
Q 18.703125 11.53125 23.578125 9.40625 
Q 28.46875 7.28125 34.578125 7.28125 
Q 39.984375 7.28125 44.140625 8.890625 
Q 48.296875 10.5 50.3125 13.296875 
Q 52.34375 16.109375 52.34375 19.4375 
Q 52.34375 22.796875 50.390625 25.3125 
Q 48.4375 27.828125 43.953125 29.546875 
Q 41.0625 30.671875 31.203125 33.03125 
Q 21.34375 35.40625 17.390625 37.5 
Q 12.25 40.1875 9.734375 44.15625 
Q 7.234375 48.140625 7.234375 53.078125 
Q 7.234375 58.5 10.296875 63.203125 
Q 13.375 67.921875 19.28125 70.359375 
Q 25.203125 72.796875 32.421875 72.796875 
Q 40.375 72.796875 46.453125 70.234375 
Q 52.546875 67.671875 55.8125 62.6875 
Q 59.078125 57.71875 59.328125 51.421875 
L 50.25 50.734375 
Q 49.515625 57.515625 45.28125 60.984375 
Q 41.0625 64.453125 32.8125 64.453125 
Q 24.21875 64.453125 20.28125 61.296875 
Q 16.359375 58.15625 16.359375 53.71875 
Q 16.359375 49.859375 19.140625 47.359375 
Q 21.875 44.875 33.421875 42.265625 
Q 44.96875 39.65625 49.265625 37.703125 
Q 55.515625 34.8125 58.484375 30.390625 
Q 61.46875 25.984375 61.46875 20.21875 
Q 61.46875 14.5 58.203125 9.4375 
Q 54.9375 4.390625 48.796875 1.578125 
Q 42.671875 -1.21875 35.015625 -1.21875 
Q 25.296875 -1.21875 18.71875 1.609375 
Q 12.15625 4.4375 8.421875 10.125 
Q 4.6875 15.828125 4.5 23 
z
" id="ArialMT-83"/>
       <path d="M 7.328125 0 
L 7.328125 71.578125 
L 16.796875 71.578125 
L 16.796875 8.453125 
L 52.046875 8.453125 
L 52.046875 0 
z
" id="ArialMT-76"/>
      </defs>
      <use xlink:href="#ArialMT-68"/>
      <use x="72.216797" xlink:href="#ArialMT-83"/>
      <use x="138.916016" xlink:href="#ArialMT-76"/>
     </g>
    </g>
    <g id="line2d_21">
     <path d="M 72.9 283.503906 
L 94.9 283.503906 
" style="fill:none;stroke:#dd8452;stroke-linecap:round;stroke-width:1.5;"/>
    </g>
    <g id="line2d_22"/>
    <g id="text_20">
     <!-- Fiber optic -->
     <g style="fill:#262626;" transform="translate(103.7 287.353906)scale(0.11 -0.11)">
      <defs>
       <path d="M 8.203125 0 
L 8.203125 71.578125 
L 56.5 71.578125 
L 56.5 63.140625 
L 17.671875 63.140625 
L 17.671875 40.96875 
L 51.265625 40.96875 
L 51.265625 32.515625 
L 17.671875 32.515625 
L 17.671875 0 
z
" id="ArialMT-70"/>
       <path d="M 6.640625 61.46875 
L 6.640625 71.578125 
L 15.4375 71.578125 
L 15.4375 61.46875 
z
M 6.640625 0 
L 6.640625 51.859375 
L 15.4375 51.859375 
L 15.4375 0 
z
" id="ArialMT-105"/>
       <path d="M 14.703125 0 
L 6.546875 0 
L 6.546875 71.578125 
L 15.328125 71.578125 
L 15.328125 46.046875 
Q 20.90625 53.03125 29.546875 53.03125 
Q 34.328125 53.03125 38.59375 51.09375 
Q 42.875 49.171875 45.625 45.671875 
Q 48.390625 42.1875 49.953125 37.25 
Q 51.515625 32.328125 51.515625 26.703125 
Q 51.515625 13.375 44.921875 6.09375 
Q 38.328125 -1.171875 29.109375 -1.171875 
Q 19.921875 -1.171875 14.703125 6.5 
z
M 14.59375 26.3125 
Q 14.59375 17 17.140625 12.84375 
Q 21.296875 6.0625 28.375 6.0625 
Q 34.125 6.0625 38.328125 11.0625 
Q 42.53125 16.0625 42.53125 25.984375 
Q 42.53125 36.140625 38.5 40.96875 
Q 34.46875 45.796875 28.765625 45.796875 
Q 23 45.796875 18.796875 40.796875 
Q 14.59375 35.796875 14.59375 26.3125 
z
" id="ArialMT-98"/>
       <path d="M 42.09375 16.703125 
L 51.171875 15.578125 
Q 49.03125 7.625 43.21875 3.21875 
Q 37.40625 -1.171875 28.375 -1.171875 
Q 17 -1.171875 10.328125 5.828125 
Q 3.65625 12.84375 3.65625 25.484375 
Q 3.65625 38.578125 10.390625 45.796875 
Q 17.140625 53.03125 27.875 53.03125 
Q 38.28125 53.03125 44.875 45.953125 
Q 51.46875 38.875 51.46875 26.03125 
Q 51.46875 25.25 51.421875 23.6875 
L 12.75 23.6875 
Q 13.234375 15.140625 17.578125 10.59375 
Q 21.921875 6.0625 28.421875 6.0625 
Q 33.25 6.0625 36.671875 8.59375 
Q 40.09375 11.140625 42.09375 16.703125 
z
M 13.234375 30.90625 
L 42.1875 30.90625 
Q 41.609375 37.453125 38.875 40.71875 
Q 34.671875 45.796875 27.984375 45.796875 
Q 21.921875 45.796875 17.796875 41.75 
Q 13.671875 37.703125 13.234375 30.90625 
z
" id="ArialMT-101"/>
       <path d="M 6.5 0 
L 6.5 51.859375 
L 14.40625 51.859375 
L 14.40625 44 
Q 17.4375 49.515625 20 51.265625 
Q 22.5625 53.03125 25.640625 53.03125 
Q 30.078125 53.03125 34.671875 50.203125 
L 31.640625 42.046875 
Q 28.421875 43.953125 25.203125 43.953125 
Q 22.3125 43.953125 20.015625 42.21875 
Q 17.71875 40.484375 16.75 37.40625 
Q 15.28125 32.71875 15.28125 27.15625 
L 15.28125 0 
z
" id="ArialMT-114"/>
       <path id="ArialMT-32"/>
       <path d="M 3.328125 25.921875 
Q 3.328125 40.328125 11.328125 47.265625 
Q 18.015625 53.03125 27.640625 53.03125 
Q 38.328125 53.03125 45.109375 46.015625 
Q 51.90625 39.015625 51.90625 26.65625 
Q 51.90625 16.65625 48.90625 10.90625 
Q 45.90625 5.171875 40.15625 2 
Q 34.421875 -1.171875 27.640625 -1.171875 
Q 16.75 -1.171875 10.03125 5.8125 
Q 3.328125 12.796875 3.328125 25.921875 
z
M 12.359375 25.921875 
Q 12.359375 15.96875 16.703125 11.015625 
Q 21.046875 6.0625 27.640625 6.0625 
Q 34.1875 6.0625 38.53125 11.03125 
Q 42.875 16.015625 42.875 26.21875 
Q 42.875 35.84375 38.5 40.796875 
Q 34.125 45.75 27.640625 45.75 
Q 21.046875 45.75 16.703125 40.8125 
Q 12.359375 35.890625 12.359375 25.921875 
z
" id="ArialMT-111"/>
       <path d="M 6.59375 -19.875 
L 6.59375 51.859375 
L 14.59375 51.859375 
L 14.59375 45.125 
Q 17.4375 49.078125 21 51.046875 
Q 24.5625 53.03125 29.640625 53.03125 
Q 36.28125 53.03125 41.359375 49.609375 
Q 46.4375 46.1875 49.015625 39.953125 
Q 51.609375 33.734375 51.609375 26.3125 
Q 51.609375 18.359375 48.75 11.984375 
Q 45.90625 5.609375 40.453125 2.21875 
Q 35.015625 -1.171875 29 -1.171875 
Q 24.609375 -1.171875 21.109375 0.6875 
Q 17.625 2.546875 15.375 5.375 
L 15.375 -19.875 
z
M 14.546875 25.640625 
Q 14.546875 15.625 18.59375 10.84375 
Q 22.65625 6.0625 28.421875 6.0625 
Q 34.28125 6.0625 38.453125 11.015625 
Q 42.625 15.96875 42.625 26.375 
Q 42.625 36.28125 38.546875 41.203125 
Q 34.46875 46.140625 28.8125 46.140625 
Q 23.1875 46.140625 18.859375 40.890625 
Q 14.546875 35.640625 14.546875 25.640625 
z
" id="ArialMT-112"/>
       <path d="M 25.78125 7.859375 
L 27.046875 0.09375 
Q 23.34375 -0.6875 20.40625 -0.6875 
Q 15.625 -0.6875 12.984375 0.828125 
Q 10.359375 2.34375 9.28125 4.8125 
Q 8.203125 7.28125 8.203125 15.1875 
L 8.203125 45.015625 
L 1.765625 45.015625 
L 1.765625 51.859375 
L 8.203125 51.859375 
L 8.203125 64.703125 
L 16.9375 69.96875 
L 16.9375 51.859375 
L 25.78125 51.859375 
L 25.78125 45.015625 
L 16.9375 45.015625 
L 16.9375 14.703125 
Q 16.9375 10.9375 17.40625 9.859375 
Q 17.875 8.796875 18.921875 8.15625 
Q 19.96875 7.515625 21.921875 7.515625 
Q 23.390625 7.515625 25.78125 7.859375 
z
" id="ArialMT-116"/>
       <path d="M 40.4375 19 
L 49.078125 17.875 
Q 47.65625 8.9375 41.8125 3.875 
Q 35.984375 -1.171875 27.484375 -1.171875 
Q 16.84375 -1.171875 10.375 5.78125 
Q 3.90625 12.75 3.90625 25.734375 
Q 3.90625 34.125 6.6875 40.421875 
Q 9.46875 46.734375 15.15625 49.875 
Q 20.84375 53.03125 27.546875 53.03125 
Q 35.984375 53.03125 41.359375 48.75 
Q 46.734375 44.484375 48.25 36.625 
L 39.703125 35.296875 
Q 38.484375 40.53125 35.375 43.15625 
Q 32.28125 45.796875 27.875 45.796875 
Q 21.234375 45.796875 17.078125 41.03125 
Q 12.9375 36.28125 12.9375 25.984375 
Q 12.9375 15.53125 16.9375 10.796875 
Q 20.953125 6.0625 27.390625 6.0625 
Q 32.5625 6.0625 36.03125 9.234375 
Q 39.5 12.40625 40.4375 19 
z
" id="ArialMT-99"/>
      </defs>
      <use xlink:href="#ArialMT-70"/>
      <use x="61.083984" xlink:href="#ArialMT-105"/>
      <use x="83.300781" xlink:href="#ArialMT-98"/>
      <use x="138.916016" xlink:href="#ArialMT-101"/>
      <use x="194.53125" xlink:href="#ArialMT-114"/>
      <use x="227.832031" xlink:href="#ArialMT-32"/>
      <use x="255.615234" xlink:href="#ArialMT-111"/>
      <use x="311.230469" xlink:href="#ArialMT-112"/>
      <use x="366.845703" xlink:href="#ArialMT-116"/>
      <use x="394.628906" xlink:href="#ArialMT-105"/>
      <use x="416.845703" xlink:href="#ArialMT-99"/>
     </g>
    </g>
    <g id="line2d_23">
     <path d="M 72.9 299.06375 
L 94.9 299.06375 
" style="fill:none;stroke:#55a868;stroke-linecap:round;stroke-width:1.5;"/>
    </g>
    <g id="line2d_24"/>
    <g id="text_21">
     <!-- No -->
     <g style="fill:#262626;" transform="translate(103.7 302.91375)scale(0.11 -0.11)">
      <defs>
       <path d="M 7.625 0 
L 7.625 71.578125 
L 17.328125 71.578125 
L 54.9375 15.375 
L 54.9375 71.578125 
L 64.015625 71.578125 
L 64.015625 0 
L 54.296875 0 
L 16.703125 56.25 
L 16.703125 0 
z
" id="ArialMT-78"/>
      </defs>
      <use xlink:href="#ArialMT-78"/>
      <use x="72.216797" xlink:href="#ArialMT-111"/>
     </g>
    </g>
   </g>
  </g>
 </g>
 <defs>
  <clipPath id="p4c35d95ab1">
   <rect height="271.8" width="390.6" x="63" y="43.2"/>
  </clipPath>
 </defs>
</svg>
