<?xml version="1.0" encoding="utf-8" standalone="no"?>
<!DOCTYPE svg PUBLIC "-//W3C//DTD SVG 1.1//EN"
  "http://www.w3.org/Graphics/SVG/1.1/DTD/svg11.dtd">
<!-- Created with matplotlib (https://matplotlib.org/) -->
<svg height="360pt" version="1.1" viewBox="0 0 504 360" width="504pt" xmlns="http://www.w3.org/2000/svg" xmlns:xlink="http://www.w3.org/1999/xlink">
 <metadata>
  <rdf:RDF xmlns:cc="http://creativecommons.org/ns#" xmlns:dc="http://purl.org/dc/elements/1.1/" xmlns:rdf="http://www.w3.org/1999/02/22-rdf-syntax-ns#">
   <cc:Work>
    <dc:type rdf:resource="http://purl.org/dc/dcmitype/StillImage"/>
    <dc:date>2021-06-10T12:40:26.340187</dc:date>
    <dc:format>image/svg+xml</dc:format>
    <dc:creator>
     <cc:Agent>
      <dc:title>Matplotlib v3.3.3, https://matplotlib.org/</dc:title>
     </cc:Agent>
    </dc:creator>
   </cc:Work>
  </rdf:RDF>
 </metadata>
 <defs>
  <style type="text/css">*{stroke-linecap:butt;stroke-linejoin:round;}</style>
 </defs>
 <g id="figure_1">
  <g id="patch_1">
   <path d="M 0 360 
L 504 360 
L 504 0 
L 0 0 
z
" style="fill:none;"/>
  </g>
  <g id="axes_1">
   <g id="patch_2">
    <path d="M 63 315 
L 453.6 315 
L 453.6 43.2 
L 63 43.2 
z
" style="fill:#eaeaf2;"/>
   </g>
   <g id="matplotlib.axis_1">
    <g id="xtick_1">
     <g id="line2d_1">
      <path clip-path="url(#p06c3c5b87d)" d="M 80.754545 315 
L 80.754545 43.2 
" style="fill:none;stroke:#ffffff;stroke-linecap:round;"/>
     </g>
     <g id="text_1">
      <!-- 0 -->
      <g style="fill:#262626;" transform="translate(77.69603 332.373594)scale(0.11 -0.11)">
       <defs>
        <path d="M 4.15625 35.296875 
Q 4.15625 48 6.765625 55.734375 
Q 9.375 63.484375 14.515625 67.671875 
Q 19.671875 71.875 27.484375 71.875 
Q 33.25 71.875 37.59375 69.546875 
Q 41.9375 67.234375 44.765625 62.859375 
Q 47.609375 58.5 49.21875 52.21875 
Q 50.828125 45.953125 50.828125 35.296875 
Q 50.828125 22.703125 48.234375 14.96875 
Q 45.65625 7.234375 40.5 3 
Q 35.359375 -1.21875 27.484375 -1.21875 
Q 17.140625 -1.21875 11.234375 6.203125 
Q 4.15625 15.140625 4.15625 35.296875 
z
M 13.1875 35.296875 
Q 13.1875 17.671875 17.3125 11.828125 
Q 21.4375 6 27.484375 6 
Q 33.546875 6 37.671875 11.859375 
Q 41.796875 17.71875 41.796875 35.296875 
Q 41.796875 52.984375 37.671875 58.78125 
Q 33.546875 64.59375 27.390625 64.59375 
Q 21.34375 64.59375 17.71875 59.46875 
Q 13.1875 52.9375 13.1875 35.296875 
z
" id="ArialMT-48"/>
       </defs>
       <use xlink:href="#ArialMT-48"/>
      </g>
     </g>
    </g>
    <g id="xtick_2">
     <g id="line2d_2">
      <path clip-path="url(#p06c3c5b87d)" d="M 130.072727 315 
L 130.072727 43.2 
" style="fill:none;stroke:#ffffff;stroke-linecap:round;"/>
     </g>
     <g id="text_2">
      <!-- 10 -->
      <g style="fill:#262626;" transform="translate(123.955696 332.373594)scale(0.11 -0.11)">
       <defs>
        <path d="M 37.25 0 
L 28.46875 0 
L 28.46875 56 
Q 25.296875 52.984375 20.140625 49.953125 
Q 14.984375 46.921875 10.890625 45.40625 
L 10.890625 53.90625 
Q 18.265625 57.375 23.78125 62.296875 
Q 29.296875 67.234375 31.59375 71.875 
L 37.25 71.875 
z
" id="ArialMT-49"/>
       </defs>
       <use xlink:href="#ArialMT-49"/>
       <use x="55.615234" xlink:href="#ArialMT-48"/>
      </g>
     </g>
    </g>
    <g id="xtick_3">
     <g id="line2d_3">
      <path clip-path="url(#p06c3c5b87d)" d="M 179.390909 315 
L 179.390909 43.2 
" style="fill:none;stroke:#ffffff;stroke-linecap:round;"/>
     </g>
     <g id="text_3">
      <!-- 20 -->
      <g style="fill:#262626;" transform="translate(173.273878 332.373594)scale(0.11 -0.11)">
       <defs>
        <path d="M 50.34375 8.453125 
L 50.34375 0 
L 3.03125 0 
Q 2.9375 3.171875 4.046875 6.109375 
Q 5.859375 10.9375 9.828125 15.625 
Q 13.8125 20.3125 21.34375 26.46875 
Q 33.015625 36.03125 37.109375 41.625 
Q 41.21875 47.21875 41.21875 52.203125 
Q 41.21875 57.421875 37.46875 61 
Q 33.734375 64.59375 27.734375 64.59375 
Q 21.390625 64.59375 17.578125 60.78125 
Q 13.765625 56.984375 13.71875 50.25 
L 4.6875 51.171875 
Q 5.609375 61.28125 11.65625 66.578125 
Q 17.71875 71.875 27.9375 71.875 
Q 38.234375 71.875 44.234375 66.15625 
Q 50.25 60.453125 50.25 52 
Q 50.25 47.703125 48.484375 43.546875 
Q 46.734375 39.40625 42.65625 34.8125 
Q 38.578125 30.21875 29.109375 22.21875 
Q 21.1875 15.578125 18.9375 13.203125 
Q 16.703125 10.84375 15.234375 8.453125 
z
" id="ArialMT-50"/>
       </defs>
       <use xlink:href="#ArialMT-50"/>
       <use x="55.615234" xlink:href="#ArialMT-48"/>
      </g>
     </g>
    </g>
    <g id="xtick_4">
     <g id="line2d_4">
      <path clip-path="url(#p06c3c5b87d)" d="M 228.709091 315 
L 228.709091 43.2 
" style="fill:none;stroke:#ffffff;stroke-linecap:round;"/>
     </g>
     <g id="text_4">
      <!-- 30 -->
      <g style="fill:#262626;" transform="translate(222.59206 332.373594)scale(0.11 -0.11)">
       <defs>
        <path d="M 4.203125 18.890625 
L 12.984375 20.0625 
Q 14.5 12.59375 18.140625 9.296875 
Q 21.78125 6 27 6 
Q 33.203125 6 37.46875 10.296875 
Q 41.75 14.59375 41.75 20.953125 
Q 41.75 27 37.796875 30.921875 
Q 33.84375 34.859375 27.734375 34.859375 
Q 25.25 34.859375 21.53125 33.890625 
L 22.515625 41.609375 
Q 23.390625 41.5 23.921875 41.5 
Q 29.546875 41.5 34.03125 44.421875 
Q 38.53125 47.359375 38.53125 53.46875 
Q 38.53125 58.296875 35.25 61.46875 
Q 31.984375 64.65625 26.8125 64.65625 
Q 21.6875 64.65625 18.265625 61.421875 
Q 14.84375 58.203125 13.875 51.765625 
L 5.078125 53.328125 
Q 6.6875 62.15625 12.390625 67.015625 
Q 18.109375 71.875 26.609375 71.875 
Q 32.46875 71.875 37.390625 69.359375 
Q 42.328125 66.84375 44.9375 62.5 
Q 47.5625 58.15625 47.5625 53.265625 
Q 47.5625 48.640625 45.0625 44.828125 
Q 42.578125 41.015625 37.703125 38.765625 
Q 44.046875 37.3125 47.5625 32.6875 
Q 51.078125 28.078125 51.078125 21.140625 
Q 51.078125 11.765625 44.234375 5.25 
Q 37.40625 -1.265625 26.953125 -1.265625 
Q 17.53125 -1.265625 11.296875 4.34375 
Q 5.078125 9.96875 4.203125 18.890625 
z
" id="ArialMT-51"/>
       </defs>
       <use xlink:href="#ArialMT-51"/>
       <use x="55.615234" xlink:href="#ArialMT-48"/>
      </g>
     </g>
    </g>
    <g id="xtick_5">
     <g id="line2d_5">
      <path clip-path="url(#p06c3c5b87d)" d="M 278.027273 315 
L 278.027273 43.2 
" style="fill:none;stroke:#ffffff;stroke-linecap:round;"/>
     </g>
     <g id="text_5">
      <!-- 40 -->
      <g style="fill:#262626;" transform="translate(271.910241 332.373594)scale(0.11 -0.11)">
       <defs>
        <path d="M 32.328125 0 
L 32.328125 17.140625 
L 1.265625 17.140625 
L 1.265625 25.203125 
L 33.9375 71.578125 
L 41.109375 71.578125 
L 41.109375 25.203125 
L 50.78125 25.203125 
L 50.78125 17.140625 
L 41.109375 17.140625 
L 41.109375 0 
z
M 32.328125 25.203125 
L 32.328125 57.46875 
L 9.90625 25.203125 
z
" id="ArialMT-52"/>
       </defs>
       <use xlink:href="#ArialMT-52"/>
       <use x="55.615234" xlink:href="#ArialMT-48"/>
      </g>
     </g>
    </g>
    <g id="xtick_6">
     <g id="line2d_6">
      <path clip-path="url(#p06c3c5b87d)" d="M 327.345455 315 
L 327.345455 43.2 
" style="fill:none;stroke:#ffffff;stroke-linecap:round;"/>
     </g>
     <g id="text_6">
      <!-- 50 -->
      <g style="fill:#262626;" transform="translate(321.228423 332.373594)scale(0.11 -0.11)">
       <defs>
        <path d="M 4.15625 18.75 
L 13.375 19.53125 
Q 14.40625 12.796875 18.140625 9.390625 
Q 21.875 6 27.15625 6 
Q 33.5 6 37.890625 10.78125 
Q 42.28125 15.578125 42.28125 23.484375 
Q 42.28125 31 38.0625 35.34375 
Q 33.84375 39.703125 27 39.703125 
Q 22.75 39.703125 19.328125 37.765625 
Q 15.921875 35.84375 13.96875 32.765625 
L 5.71875 33.84375 
L 12.640625 70.609375 
L 48.25 70.609375 
L 48.25 62.203125 
L 19.671875 62.203125 
L 15.828125 42.96875 
Q 22.265625 47.46875 29.34375 47.46875 
Q 38.71875 47.46875 45.15625 40.96875 
Q 51.609375 34.46875 51.609375 24.265625 
Q 51.609375 14.546875 45.953125 7.46875 
Q 39.0625 -1.21875 27.15625 -1.21875 
Q 17.390625 -1.21875 11.203125 4.25 
Q 5.03125 9.71875 4.15625 18.75 
z
" id="ArialMT-53"/>
       </defs>
       <use xlink:href="#ArialMT-53"/>
       <use x="55.615234" xlink:href="#ArialMT-48"/>
      </g>
     </g>
    </g>
    <g id="xtick_7">
     <g id="line2d_7">
      <path clip-path="url(#p06c3c5b87d)" d="M 376.663636 315 
L 376.663636 43.2 
" style="fill:none;stroke:#ffffff;stroke-linecap:round;"/>
     </g>
     <g id="text_7">
      <!-- 60 -->
      <g style="fill:#262626;" transform="translate(370.546605 332.373594)scale(0.11 -0.11)">
       <defs>
        <path d="M 49.75 54.046875 
L 41.015625 53.375 
Q 39.84375 58.546875 37.703125 60.890625 
Q 34.125 64.65625 28.90625 64.65625 
Q 24.703125 64.65625 21.53125 62.3125 
Q 17.390625 59.28125 14.984375 53.46875 
Q 12.59375 47.65625 12.5 36.921875 
Q 15.671875 41.75 20.265625 44.09375 
Q 24.859375 46.4375 29.890625 46.4375 
Q 38.671875 46.4375 44.84375 39.96875 
Q 51.03125 33.5 51.03125 23.25 
Q 51.03125 16.5 48.125 10.71875 
Q 45.21875 4.9375 40.140625 1.859375 
Q 35.0625 -1.21875 28.609375 -1.21875 
Q 17.625 -1.21875 10.6875 6.859375 
Q 3.765625 14.9375 3.765625 33.5 
Q 3.765625 54.25 11.421875 63.671875 
Q 18.109375 71.875 29.4375 71.875 
Q 37.890625 71.875 43.28125 67.140625 
Q 48.6875 62.40625 49.75 54.046875 
z
M 13.875 23.1875 
Q 13.875 18.65625 15.796875 14.5 
Q 17.71875 10.359375 21.1875 8.171875 
Q 24.65625 6 28.46875 6 
Q 34.03125 6 38.03125 10.484375 
Q 42.046875 14.984375 42.046875 22.703125 
Q 42.046875 30.125 38.078125 34.390625 
Q 34.125 38.671875 28.125 38.671875 
Q 22.171875 38.671875 18.015625 34.390625 
Q 13.875 30.125 13.875 23.1875 
z
" id="ArialMT-54"/>
       </defs>
       <use xlink:href="#ArialMT-54"/>
       <use x="55.615234" xlink:href="#ArialMT-48"/>
      </g>
     </g>
    </g>
    <g id="xtick_8">
     <g id="line2d_8">
      <path clip-path="url(#p06c3c5b87d)" d="M 425.981818 315 
L 425.981818 43.2 
" style="fill:none;stroke:#ffffff;stroke-linecap:round;"/>
     </g>
     <g id="text_8">
      <!-- 70 -->
      <g style="fill:#262626;" transform="translate(419.864787 332.373594)scale(0.11 -0.11)">
       <defs>
        <path d="M 4.734375 62.203125 
L 4.734375 70.65625 
L 51.078125 70.65625 
L 51.078125 63.8125 
Q 44.234375 56.546875 37.515625 44.484375 
Q 30.8125 32.421875 27.15625 19.671875 
Q 24.515625 10.6875 23.78125 0 
L 14.75 0 
Q 14.890625 8.453125 18.0625 20.40625 
Q 21.234375 32.375 27.171875 43.484375 
Q 33.109375 54.59375 39.796875 62.203125 
z
" id="ArialMT-55"/>
       </defs>
       <use xlink:href="#ArialMT-55"/>
       <use x="55.615234" xlink:href="#ArialMT-48"/>
      </g>
     </g>
    </g>
    <g id="text_9">
     <!-- Tenure (months) -->
     <g style="fill:#262626;" transform="translate(211.41375 353.295469)scale(0.12 -0.12)">
      <defs>
       <path d="M 23.390625 0 
L 23.390625 59.46875 
L 2.15625 59.46875 
L 2.15625 71.578125 
L 59.03125 71.578125 
L 59.03125 59.46875 
L 37.84375 59.46875 
L 37.84375 0 
z
" id="Arial-BoldMT-84"/>
       <path d="M 37.203125 16.5 
L 50.875 14.203125 
Q 48.25 6.6875 42.546875 2.75 
Q 36.859375 -1.171875 28.328125 -1.171875 
Q 14.796875 -1.171875 8.296875 7.671875 
Q 3.171875 14.75 3.171875 25.53125 
Q 3.171875 38.421875 9.90625 45.71875 
Q 16.65625 53.03125 26.953125 53.03125 
Q 38.53125 53.03125 45.21875 45.390625 
Q 51.90625 37.75 51.609375 21.96875 
L 17.234375 21.96875 
Q 17.390625 15.875 20.5625 12.46875 
Q 23.734375 9.078125 28.46875 9.078125 
Q 31.6875 9.078125 33.875 10.828125 
Q 36.078125 12.59375 37.203125 16.5 
z
M 37.984375 30.375 
Q 37.84375 36.328125 34.90625 39.421875 
Q 31.984375 42.53125 27.78125 42.53125 
Q 23.296875 42.53125 20.359375 39.265625 
Q 17.4375 35.984375 17.484375 30.375 
z
" id="Arial-BoldMT-101"/>
       <path d="M 54.34375 0 
L 40.625 0 
L 40.625 26.46875 
Q 40.625 34.859375 39.75 37.328125 
Q 38.875 39.796875 36.890625 41.15625 
Q 34.90625 42.53125 32.125 42.53125 
Q 28.5625 42.53125 25.734375 40.578125 
Q 22.90625 38.625 21.84375 35.390625 
Q 20.796875 32.171875 20.796875 23.484375 
L 20.796875 0 
L 7.078125 0 
L 7.078125 51.859375 
L 19.828125 51.859375 
L 19.828125 44.234375 
Q 26.609375 53.03125 36.921875 53.03125 
Q 41.453125 53.03125 45.203125 51.390625 
Q 48.96875 49.75 50.890625 47.203125 
Q 52.828125 44.671875 53.578125 41.453125 
Q 54.34375 38.234375 54.34375 32.234375 
z
" id="Arial-BoldMT-110"/>
       <path d="M 41.3125 0 
L 41.3125 7.765625 
Q 38.484375 3.609375 33.859375 1.21875 
Q 29.25 -1.171875 24.125 -1.171875 
Q 18.890625 -1.171875 14.734375 1.125 
Q 10.59375 3.421875 8.734375 7.5625 
Q 6.890625 11.71875 6.890625 19.046875 
L 6.890625 51.859375 
L 20.609375 51.859375 
L 20.609375 28.03125 
Q 20.609375 17.09375 21.359375 14.625 
Q 22.125 12.15625 24.125 10.71875 
Q 26.125 9.28125 29.203125 9.28125 
Q 32.71875 9.28125 35.5 11.203125 
Q 38.28125 13.140625 39.296875 15.984375 
Q 40.328125 18.84375 40.328125 29.984375 
L 40.328125 51.859375 
L 54.046875 51.859375 
L 54.046875 0 
z
" id="Arial-BoldMT-117"/>
       <path d="M 20.3125 0 
L 6.59375 0 
L 6.59375 51.859375 
L 19.34375 51.859375 
L 19.34375 44.484375 
Q 22.609375 49.703125 25.21875 51.359375 
Q 27.828125 53.03125 31.15625 53.03125 
Q 35.84375 53.03125 40.1875 50.4375 
L 35.9375 38.484375 
Q 32.46875 40.71875 29.5 40.71875 
Q 26.609375 40.71875 24.609375 39.125 
Q 22.609375 37.546875 21.453125 33.390625 
Q 20.3125 29.25 20.3125 16.015625 
z
" id="Arial-BoldMT-114"/>
       <path id="Arial-BoldMT-32"/>
       <path d="M 29.9375 -21.046875 
L 20.515625 -21.046875 
Q 13.03125 -9.765625 9.125 2.390625 
Q 5.21875 14.546875 5.21875 25.921875 
Q 5.21875 40.046875 10.0625 52.640625 
Q 14.265625 63.578125 20.703125 72.796875 
L 30.078125 72.796875 
Q 23.390625 58.015625 20.875 47.625 
Q 18.359375 37.25 18.359375 25.640625 
Q 18.359375 17.625 19.84375 9.21875 
Q 21.34375 0.828125 23.921875 -6.734375 
Q 25.640625 -11.71875 29.9375 -21.046875 
z
" id="Arial-BoldMT-40"/>
       <path d="M 6.15625 51.859375 
L 18.796875 51.859375 
L 18.796875 44.78125 
Q 25.59375 53.03125 34.96875 53.03125 
Q 39.9375 53.03125 43.59375 50.96875 
Q 47.265625 48.921875 49.609375 44.78125 
Q 53.03125 48.921875 56.984375 50.96875 
Q 60.9375 53.03125 65.4375 53.03125 
Q 71.140625 53.03125 75.09375 50.703125 
Q 79.046875 48.390625 81 43.890625 
Q 82.421875 40.578125 82.421875 33.15625 
L 82.421875 0 
L 68.703125 0 
L 68.703125 29.640625 
Q 68.703125 37.359375 67.28125 39.59375 
Q 65.375 42.53125 61.421875 42.53125 
Q 58.546875 42.53125 56 40.765625 
Q 53.46875 39.015625 52.34375 35.625 
Q 51.21875 32.234375 51.21875 24.90625 
L 51.21875 0 
L 37.5 0 
L 37.5 28.421875 
Q 37.5 35.984375 36.765625 38.171875 
Q 36.03125 40.375 34.484375 41.453125 
Q 32.953125 42.53125 30.328125 42.53125 
Q 27.15625 42.53125 24.609375 40.8125 
Q 22.078125 39.109375 20.96875 35.890625 
Q 19.875 32.671875 19.875 25.203125 
L 19.875 0 
L 6.15625 0 
z
" id="Arial-BoldMT-109"/>
       <path d="M 4 26.65625 
Q 4 33.5 7.375 39.890625 
Q 10.75 46.296875 16.921875 49.65625 
Q 23.09375 53.03125 30.71875 53.03125 
Q 42.484375 53.03125 50 45.390625 
Q 57.515625 37.75 57.515625 26.078125 
Q 57.515625 14.3125 49.921875 6.5625 
Q 42.328125 -1.171875 30.8125 -1.171875 
Q 23.6875 -1.171875 17.21875 2.046875 
Q 10.75 5.28125 7.375 11.5 
Q 4 17.71875 4 26.65625 
z
M 18.0625 25.921875 
Q 18.0625 18.21875 21.71875 14.109375 
Q 25.390625 10.015625 30.765625 10.015625 
Q 36.140625 10.015625 39.765625 14.109375 
Q 43.40625 18.21875 43.40625 26.03125 
Q 43.40625 33.640625 39.765625 37.734375 
Q 36.140625 41.84375 30.765625 41.84375 
Q 25.390625 41.84375 21.71875 37.734375 
Q 18.0625 33.640625 18.0625 25.921875 
z
" id="Arial-BoldMT-111"/>
       <path d="M 30.953125 51.859375 
L 30.953125 40.921875 
L 21.578125 40.921875 
L 21.578125 20.015625 
Q 21.578125 13.671875 21.84375 12.625 
Q 22.125 11.578125 23.078125 10.890625 
Q 24.03125 10.203125 25.390625 10.203125 
Q 27.296875 10.203125 30.90625 11.53125 
L 32.078125 0.875 
Q 27.296875 -1.171875 21.234375 -1.171875 
Q 17.53125 -1.171875 14.546875 0.0625 
Q 11.578125 1.3125 10.1875 3.296875 
Q 8.796875 5.28125 8.25 8.640625 
Q 7.8125 11.03125 7.8125 18.3125 
L 7.8125 40.921875 
L 1.515625 40.921875 
L 1.515625 51.859375 
L 7.8125 51.859375 
L 7.8125 62.15625 
L 21.578125 70.171875 
L 21.578125 51.859375 
z
" id="Arial-BoldMT-116"/>
       <path d="M 20.84375 71.578125 
L 20.84375 45.265625 
Q 27.484375 53.03125 36.71875 53.03125 
Q 41.453125 53.03125 45.265625 51.265625 
Q 49.078125 49.515625 51 46.78125 
Q 52.9375 44.046875 53.640625 40.71875 
Q 54.34375 37.40625 54.34375 30.421875 
L 54.34375 0 
L 40.625 0 
L 40.625 27.390625 
Q 40.625 35.546875 39.84375 37.734375 
Q 39.0625 39.9375 37.078125 41.234375 
Q 35.109375 42.53125 32.125 42.53125 
Q 28.71875 42.53125 26.03125 40.859375 
Q 23.34375 39.203125 22.09375 35.859375 
Q 20.84375 32.515625 20.84375 25.984375 
L 20.84375 0 
L 7.125 0 
L 7.125 71.578125 
z
" id="Arial-BoldMT-104"/>
       <path d="M 2.34375 14.796875 
L 16.109375 16.890625 
Q 17 12.890625 19.671875 10.8125 
Q 22.359375 8.734375 27.203125 8.734375 
Q 32.515625 8.734375 35.203125 10.6875 
Q 37.015625 12.0625 37.015625 14.359375 
Q 37.015625 15.921875 36.03125 16.9375 
Q 35.015625 17.921875 31.453125 18.75 
Q 14.84375 22.40625 10.40625 25.4375 
Q 4.25 29.640625 4.25 37.109375 
Q 4.25 43.84375 9.5625 48.4375 
Q 14.890625 53.03125 26.078125 53.03125 
Q 36.71875 53.03125 41.890625 49.5625 
Q 47.078125 46.09375 49.03125 39.3125 
L 36.078125 36.921875 
Q 35.25 39.9375 32.921875 41.546875 
Q 30.609375 43.171875 26.3125 43.171875 
Q 20.90625 43.171875 18.5625 41.65625 
Q 17 40.578125 17 38.875 
Q 17 37.40625 18.359375 36.375 
Q 20.21875 35.015625 31.171875 32.515625 
Q 42.140625 30.03125 46.484375 26.421875 
Q 50.78125 22.75 50.78125 16.21875 
Q 50.78125 9.078125 44.828125 3.953125 
Q 38.875 -1.171875 27.203125 -1.171875 
Q 16.609375 -1.171875 10.421875 3.125 
Q 4.25 7.421875 2.34375 14.796875 
z
" id="Arial-BoldMT-115"/>
       <path d="M 3.375 -21.046875 
Q 7.421875 -12.359375 9.078125 -7.71875 
Q 10.75 -3.078125 12.15625 2.96875 
Q 13.578125 9.03125 14.25 14.46875 
Q 14.9375 19.921875 14.9375 25.640625 
Q 14.9375 37.25 12.453125 47.625 
Q 9.96875 58.015625 3.265625 72.796875 
L 12.59375 72.796875 
Q 19.96875 62.3125 24.046875 50.53125 
Q 28.125 38.765625 28.125 26.65625 
Q 28.125 16.453125 24.90625 4.78125 
Q 21.234375 -8.296875 12.84375 -21.046875 
z
" id="Arial-BoldMT-41"/>
      </defs>
      <use xlink:href="#Arial-BoldMT-84"/>
      <use x="53.708984" xlink:href="#Arial-BoldMT-101"/>
      <use x="109.324219" xlink:href="#Arial-BoldMT-110"/>
      <use x="170.408203" xlink:href="#Arial-BoldMT-117"/>
      <use x="231.492188" xlink:href="#Arial-BoldMT-114"/>
      <use x="270.408203" xlink:href="#Arial-BoldMT-101"/>
      <use x="326.023438" xlink:href="#Arial-BoldMT-32"/>
      <use x="353.806641" xlink:href="#Arial-BoldMT-40"/>
      <use x="387.107422" xlink:href="#Arial-BoldMT-109"/>
      <use x="476.023438" xlink:href="#Arial-BoldMT-111"/>
      <use x="537.107422" xlink:href="#Arial-BoldMT-110"/>
      <use x="598.191406" xlink:href="#Arial-BoldMT-116"/>
      <use x="631.492188" xlink:href="#Arial-BoldMT-104"/>
      <use x="692.576172" xlink:href="#Arial-BoldMT-115"/>
      <use x="748.191406" xlink:href="#Arial-BoldMT-41"/>
     </g>
    </g>
   </g>
   <g id="matplotlib.axis_2">
    <g id="ytick_1">
     <g id="line2d_9">
      <path clip-path="url(#p06c3c5b87d)" d="M 63 300.486902 
L 453.6 300.486902 
" style="fill:none;stroke:#ffffff;stroke-linecap:round;"/>
     </g>
     <g id="text_10">
      <!-- 0.3 -->
      <g style="fill:#262626;" transform="translate(38.21 304.423699)scale(0.11 -0.11)">
       <defs>
        <path d="M 9.078125 0 
L 9.078125 10.015625 
L 19.09375 10.015625 
L 19.09375 0 
z
" id="ArialMT-46"/>
       </defs>
       <use xlink:href="#ArialMT-48"/>
       <use x="55.615234" xlink:href="#ArialMT-46"/>
       <use x="83.398438" xlink:href="#ArialMT-51"/>
      </g>
     </g>
    </g>
    <g id="ytick_2">
     <g id="line2d_10">
      <path clip-path="url(#p06c3c5b87d)" d="M 63 265.496565 
L 453.6 265.496565 
" style="fill:none;stroke:#ffffff;stroke-linecap:round;"/>
     </g>
     <g id="text_11">
      <!-- 0.4 -->
      <g style="fill:#262626;" transform="translate(38.21 269.433362)scale(0.11 -0.11)">
       <use xlink:href="#ArialMT-48"/>
       <use x="55.615234" xlink:href="#ArialMT-46"/>
       <use x="83.398438" xlink:href="#ArialMT-52"/>
      </g>
     </g>
    </g>
    <g id="ytick_3">
     <g id="line2d_11">
      <path clip-path="url(#p06c3c5b87d)" d="M 63 230.506229 
L 453.6 230.506229 
" style="fill:none;stroke:#ffffff;stroke-linecap:round;"/>
     </g>
     <g id="text_12">
      <!-- 0.5 -->
      <g style="fill:#262626;" transform="translate(38.21 234.443025)scale(0.11 -0.11)">
       <use xlink:href="#ArialMT-48"/>
       <use x="55.615234" xlink:href="#ArialMT-46"/>
       <use x="83.398438" xlink:href="#ArialMT-53"/>
      </g>
     </g>
    </g>
    <g id="ytick_4">
     <g id="line2d_12">
      <path clip-path="url(#p06c3c5b87d)" d="M 63 195.515892 
L 453.6 195.515892 
" style="fill:none;stroke:#ffffff;stroke-linecap:round;"/>
     </g>
     <g id="text_13">
      <!-- 0.6 -->
      <g style="fill:#262626;" transform="translate(38.21 199.452689)scale(0.11 -0.11)">
       <use xlink:href="#ArialMT-48"/>
       <use x="55.615234" xlink:href="#ArialMT-46"/>
       <use x="83.398438" xlink:href="#ArialMT-54"/>
      </g>
     </g>
    </g>
    <g id="ytick_5">
     <g id="line2d_13">
      <path clip-path="url(#p06c3c5b87d)" d="M 63 160.525555 
L 453.6 160.525555 
" style="fill:none;stroke:#ffffff;stroke-linecap:round;"/>
     </g>
     <g id="text_14">
      <!-- 0.7 -->
      <g style="fill:#262626;" transform="translate(38.21 164.462352)scale(0.11 -0.11)">
       <use xlink:href="#ArialMT-48"/>
       <use x="55.615234" xlink:href="#ArialMT-46"/>
       <use x="83.398438" xlink:href="#ArialMT-55"/>
      </g>
     </g>
    </g>
    <g id="ytick_6">
     <g id="line2d_14">
      <path clip-path="url(#p06c3c5b87d)" d="M 63 125.535219 
L 453.6 125.535219 
" style="fill:none;stroke:#ffffff;stroke-linecap:round;"/>
     </g>
     <g id="text_15">
      <!-- 0.8 -->
      <g style="fill:#262626;" transform="translate(38.21 129.472016)scale(0.11 -0.11)">
       <defs>
        <path d="M 17.671875 38.8125 
Q 12.203125 40.828125 9.5625 44.53125 
Q 6.9375 48.25 6.9375 53.421875 
Q 6.9375 61.234375 12.546875 66.546875 
Q 18.171875 71.875 27.484375 71.875 
Q 36.859375 71.875 42.578125 66.421875 
Q 48.296875 60.984375 48.296875 53.171875 
Q 48.296875 48.1875 45.671875 44.5 
Q 43.0625 40.828125 37.75 38.8125 
Q 44.34375 36.671875 47.78125 31.875 
Q 51.21875 27.09375 51.21875 20.453125 
Q 51.21875 11.28125 44.71875 5.03125 
Q 38.234375 -1.21875 27.640625 -1.21875 
Q 17.046875 -1.21875 10.546875 5.046875 
Q 4.046875 11.328125 4.046875 20.703125 
Q 4.046875 27.6875 7.59375 32.390625 
Q 11.140625 37.109375 17.671875 38.8125 
z
M 15.921875 53.71875 
Q 15.921875 48.640625 19.1875 45.40625 
Q 22.46875 42.1875 27.6875 42.1875 
Q 32.765625 42.1875 36.015625 45.375 
Q 39.265625 48.578125 39.265625 53.21875 
Q 39.265625 58.0625 35.90625 61.359375 
Q 32.5625 64.65625 27.59375 64.65625 
Q 22.5625 64.65625 19.234375 61.421875 
Q 15.921875 58.203125 15.921875 53.71875 
z
M 13.09375 20.65625 
Q 13.09375 16.890625 14.875 13.375 
Q 16.65625 9.859375 20.171875 7.921875 
Q 23.6875 6 27.734375 6 
Q 34.03125 6 38.125 10.046875 
Q 42.234375 14.109375 42.234375 20.359375 
Q 42.234375 26.703125 38.015625 30.859375 
Q 33.796875 35.015625 27.4375 35.015625 
Q 21.234375 35.015625 17.15625 30.90625 
Q 13.09375 26.8125 13.09375 20.65625 
z
" id="ArialMT-56"/>
       </defs>
       <use xlink:href="#ArialMT-48"/>
       <use x="55.615234" xlink:href="#ArialMT-46"/>
       <use x="83.398438" xlink:href="#ArialMT-56"/>
      </g>
     </g>
    </g>
    <g id="ytick_7">
     <g id="line2d_15">
      <path clip-path="url(#p06c3c5b87d)" d="M 63 90.544882 
L 453.6 90.544882 
" style="fill:none;stroke:#ffffff;stroke-linecap:round;"/>
     </g>
     <g id="text_16">
      <!-- 0.9 -->
      <g style="fill:#262626;" transform="translate(38.21 94.481679)scale(0.11 -0.11)">
       <defs>
        <path d="M 5.46875 16.546875 
L 13.921875 17.328125 
Q 14.984375 11.375 18.015625 8.6875 
Q 21.046875 6 25.78125 6 
Q 29.828125 6 32.875 7.859375 
Q 35.9375 9.71875 37.890625 12.8125 
Q 39.84375 15.921875 41.15625 21.1875 
Q 42.484375 26.46875 42.484375 31.9375 
Q 42.484375 32.515625 42.4375 33.6875 
Q 39.796875 29.5 35.234375 26.875 
Q 30.671875 24.265625 25.34375 24.265625 
Q 16.453125 24.265625 10.296875 30.703125 
Q 4.15625 37.15625 4.15625 47.703125 
Q 4.15625 58.59375 10.578125 65.234375 
Q 17 71.875 26.65625 71.875 
Q 33.640625 71.875 39.421875 68.109375 
Q 45.21875 64.359375 48.21875 57.390625 
Q 51.21875 50.4375 51.21875 37.25 
Q 51.21875 23.53125 48.234375 15.40625 
Q 45.265625 7.28125 39.375 3.03125 
Q 33.5 -1.21875 25.59375 -1.21875 
Q 17.1875 -1.21875 11.859375 3.4375 
Q 6.546875 8.109375 5.46875 16.546875 
z
M 41.453125 48.140625 
Q 41.453125 55.71875 37.421875 60.15625 
Q 33.40625 64.59375 27.734375 64.59375 
Q 21.875 64.59375 17.53125 59.8125 
Q 13.1875 55.03125 13.1875 47.40625 
Q 13.1875 40.578125 17.3125 36.296875 
Q 21.4375 32.03125 27.484375 32.03125 
Q 33.59375 32.03125 37.515625 36.296875 
Q 41.453125 40.578125 41.453125 48.140625 
z
" id="ArialMT-57"/>
       </defs>
       <use xlink:href="#ArialMT-48"/>
       <use x="55.615234" xlink:href="#ArialMT-46"/>
       <use x="83.398438" xlink:href="#ArialMT-57"/>
      </g>
     </g>
    </g>
    <g id="ytick_8">
     <g id="line2d_16">
      <path clip-path="url(#p06c3c5b87d)" d="M 63 55.554545 
L 453.6 55.554545 
" style="fill:none;stroke:#ffffff;stroke-linecap:round;"/>
     </g>
     <g id="text_17">
      <!-- 1.0 -->
      <g style="fill:#262626;" transform="translate(38.21 59.491342)scale(0.11 -0.11)">
       <use xlink:href="#ArialMT-49"/>
       <use x="55.615234" xlink:href="#ArialMT-46"/>
       <use x="83.398438" xlink:href="#ArialMT-48"/>
      </g>
     </g>
    </g>
    <g id="text_18">
     <!-- Survival probability -->
     <g style="fill:#262626;" transform="translate(25.684375 234.778125)rotate(-90)scale(0.12 -0.12)">
      <defs>
       <path d="M 3.609375 23.296875 
L 17.671875 24.65625 
Q 18.953125 17.578125 22.828125 14.25 
Q 26.703125 10.9375 33.296875 10.9375 
Q 40.28125 10.9375 43.8125 13.890625 
Q 47.359375 16.84375 47.359375 20.796875 
Q 47.359375 23.34375 45.875 25.125 
Q 44.390625 26.90625 40.671875 28.21875 
Q 38.140625 29.109375 29.109375 31.34375 
Q 17.484375 34.234375 12.796875 38.421875 
Q 6.203125 44.34375 6.203125 52.828125 
Q 6.203125 58.296875 9.296875 63.0625 
Q 12.40625 67.828125 18.234375 70.3125 
Q 24.078125 72.796875 32.328125 72.796875 
Q 45.796875 72.796875 52.609375 66.890625 
Q 59.421875 60.984375 59.765625 51.125 
L 45.3125 50.484375 
Q 44.390625 56 41.328125 58.421875 
Q 38.28125 60.84375 32.171875 60.84375 
Q 25.875 60.84375 22.3125 58.25 
Q 20.015625 56.59375 20.015625 53.8125 
Q 20.015625 51.265625 22.171875 49.46875 
Q 24.90625 47.171875 35.453125 44.671875 
Q 46 42.1875 51.046875 39.515625 
Q 56.109375 36.859375 58.953125 32.25 
Q 61.8125 27.640625 61.8125 20.84375 
Q 61.8125 14.703125 58.390625 9.328125 
Q 54.984375 3.953125 48.734375 1.34375 
Q 42.484375 -1.265625 33.15625 -1.265625 
Q 19.578125 -1.265625 12.296875 5 
Q 5.03125 11.28125 3.609375 23.296875 
z
" id="Arial-BoldMT-83"/>
       <path d="M 21.4375 0 
L 0.53125 51.859375 
L 14.9375 51.859375 
L 24.703125 25.390625 
L 27.546875 16.546875 
Q 28.65625 19.921875 28.953125 21 
Q 29.640625 23.1875 30.421875 25.390625 
L 40.28125 51.859375 
L 54.390625 51.859375 
L 33.796875 0 
z
" id="Arial-BoldMT-118"/>
       <path d="M 7.171875 58.890625 
L 7.171875 71.578125 
L 20.90625 71.578125 
L 20.90625 58.890625 
z
M 7.171875 0 
L 7.171875 51.859375 
L 20.90625 51.859375 
L 20.90625 0 
z
" id="Arial-BoldMT-105"/>
       <path d="M 17.4375 36.03125 
L 4.984375 38.28125 
Q 7.078125 45.796875 12.203125 49.40625 
Q 17.328125 53.03125 27.4375 53.03125 
Q 36.625 53.03125 41.109375 50.859375 
Q 45.609375 48.6875 47.4375 45.34375 
Q 49.265625 42 49.265625 33.0625 
L 49.125 17.046875 
Q 49.125 10.203125 49.78125 6.953125 
Q 50.4375 3.71875 52.25 0 
L 38.671875 0 
Q 38.140625 1.375 37.359375 4.046875 
Q 37.015625 5.28125 36.859375 5.671875 
Q 33.34375 2.25 29.34375 0.53125 
Q 25.34375 -1.171875 20.796875 -1.171875 
Q 12.796875 -1.171875 8.171875 3.171875 
Q 3.5625 7.515625 3.5625 14.15625 
Q 3.5625 18.5625 5.65625 22 
Q 7.765625 25.4375 11.546875 27.265625 
Q 15.328125 29.109375 22.46875 30.46875 
Q 32.078125 32.28125 35.796875 33.84375 
L 35.796875 35.203125 
Q 35.796875 39.15625 33.84375 40.84375 
Q 31.890625 42.53125 26.46875 42.53125 
Q 22.796875 42.53125 20.75 41.09375 
Q 18.703125 39.65625 17.4375 36.03125 
z
M 35.796875 24.90625 
Q 33.15625 24.03125 27.4375 22.796875 
Q 21.734375 21.578125 19.96875 20.40625 
Q 17.28125 18.5 17.28125 15.578125 
Q 17.28125 12.703125 19.421875 10.59375 
Q 21.578125 8.5 24.90625 8.5 
Q 28.609375 8.5 31.984375 10.9375 
Q 34.46875 12.796875 35.25 15.484375 
Q 35.796875 17.234375 35.796875 22.171875 
z
" id="Arial-BoldMT-97"/>
       <path d="M 7.171875 0 
L 7.171875 71.578125 
L 20.90625 71.578125 
L 20.90625 0 
z
" id="Arial-BoldMT-108"/>
       <path d="M 6.78125 51.859375 
L 19.578125 51.859375 
L 19.578125 44.234375 
Q 22.078125 48.140625 26.3125 50.578125 
Q 30.5625 53.03125 35.75 53.03125 
Q 44.78125 53.03125 51.078125 45.953125 
Q 57.375 38.875 57.375 26.21875 
Q 57.375 13.234375 51.015625 6.03125 
Q 44.671875 -1.171875 35.640625 -1.171875 
Q 31.34375 -1.171875 27.84375 0.53125 
Q 24.359375 2.25 20.515625 6.390625 
L 20.515625 -19.734375 
L 6.78125 -19.734375 
z
M 20.359375 26.8125 
Q 20.359375 18.0625 23.828125 13.890625 
Q 27.296875 9.71875 32.28125 9.71875 
Q 37.0625 9.71875 40.234375 13.546875 
Q 43.40625 17.390625 43.40625 26.125 
Q 43.40625 34.28125 40.125 38.234375 
Q 36.859375 42.1875 32.03125 42.1875 
Q 27 42.1875 23.671875 38.296875 
Q 20.359375 34.421875 20.359375 26.8125 
z
" id="Arial-BoldMT-112"/>
       <path d="M 6.59375 0 
L 6.59375 71.578125 
L 20.3125 71.578125 
L 20.3125 45.796875 
Q 26.65625 53.03125 35.359375 53.03125 
Q 44.828125 53.03125 51.03125 46.171875 
Q 57.234375 39.3125 57.234375 26.46875 
Q 57.234375 13.1875 50.90625 6 
Q 44.578125 -1.171875 35.546875 -1.171875 
Q 31.109375 -1.171875 26.78125 1.046875 
Q 22.46875 3.265625 19.34375 7.625 
L 19.34375 0 
z
M 20.21875 27.046875 
Q 20.21875 19 22.75 15.140625 
Q 26.3125 9.671875 32.234375 9.671875 
Q 36.765625 9.671875 39.96875 13.546875 
Q 43.171875 17.4375 43.171875 25.78125 
Q 43.171875 34.671875 39.9375 38.59375 
Q 36.71875 42.53125 31.6875 42.53125 
Q 26.765625 42.53125 23.484375 38.6875 
Q 20.21875 34.859375 20.21875 27.046875 
z
" id="Arial-BoldMT-98"/>
       <path d="M 0.6875 51.859375 
L 15.28125 51.859375 
L 27.6875 15.046875 
L 39.796875 51.859375 
L 54 51.859375 
L 35.6875 1.953125 
L 32.421875 -7.078125 
Q 30.609375 -11.625 28.96875 -14.015625 
Q 27.34375 -16.40625 25.21875 -17.890625 
Q 23.09375 -19.390625 19.984375 -20.21875 
Q 16.890625 -21.046875 12.984375 -21.046875 
Q 9.03125 -21.046875 5.21875 -20.21875 
L 4 -9.46875 
Q 7.234375 -10.109375 9.8125 -10.109375 
Q 14.59375 -10.109375 16.890625 -7.296875 
Q 19.1875 -4.5 20.40625 -0.140625 
z
" id="Arial-BoldMT-121"/>
      </defs>
      <use xlink:href="#Arial-BoldMT-83"/>
      <use x="66.699219" xlink:href="#Arial-BoldMT-117"/>
      <use x="127.783203" xlink:href="#Arial-BoldMT-114"/>
      <use x="166.699219" xlink:href="#Arial-BoldMT-118"/>
      <use x="222.314453" xlink:href="#Arial-BoldMT-105"/>
      <use x="250.097656" xlink:href="#Arial-BoldMT-118"/>
      <use x="305.712891" xlink:href="#Arial-BoldMT-97"/>
      <use x="361.328125" xlink:href="#Arial-BoldMT-108"/>
      <use x="389.111328" xlink:href="#Arial-BoldMT-32"/>
      <use x="416.894531" xlink:href="#Arial-BoldMT-112"/>
      <use x="477.978516" xlink:href="#Arial-BoldMT-114"/>
      <use x="516.894531" xlink:href="#Arial-BoldMT-111"/>
      <use x="577.978516" xlink:href="#Arial-BoldMT-98"/>
      <use x="639.0625" xlink:href="#Arial-BoldMT-97"/>
      <use x="694.677734" xlink:href="#Arial-BoldMT-98"/>
      <use x="755.761719" xlink:href="#Arial-BoldMT-105"/>
      <use x="783.544922" xlink:href="#Arial-BoldMT-108"/>
      <use x="811.328125" xlink:href="#Arial-BoldMT-105"/>
      <use x="839.111328" xlink:href="#Arial-BoldMT-116"/>
      <use x="872.412109" xlink:href="#Arial-BoldMT-121"/>
     </g>
    </g>
   </g>
   <g id="PolyCollection_1">
    <defs>
     <path d="M 80.754545 -304.445455 
L 80.754545 -304.445455 
L 85.686364 -304.445455 
L 85.686364 -270.588335 
L 90.618182 -270.588335 
L 90.618182 -259.237997 
L 95.55 -259.237997 
L 95.55 -250.470553 
L 100.481818 -250.470553 
L 100.481818 -242.214711 
L 105.413636 -242.214711 
L 105.413636 -236.117564 
L 110.345455 -236.117564 
L 110.345455 -232.22978 
L 115.277273 -232.22978 
L 115.277273 -227.378387 
L 120.209091 -227.378387 
L 120.209091 -223.748567 
L 125.140909 -223.748567 
L 125.140909 -219.231706 
L 130.072727 -219.231706 
L 130.072727 -214.515345 
L 135.004545 -214.515345 
L 135.004545 -211.578914 
L 139.936364 -211.578914 
L 139.936364 -208.095812 
L 144.868182 -208.095812 
L 144.868182 -204.177478 
L 149.8 -204.177478 
L 149.8 -201.484031 
L 154.731818 -201.484031 
L 154.731818 -197.973842 
L 159.663636 -197.973842 
L 159.663636 -194.813498 
L 164.595455 -194.813498 
L 164.595455 -192.549769 
L 169.527273 -192.549769 
L 169.527273 -189.846546 
L 174.459091 -189.846546 
L 174.459091 -187.775659 
L 179.390909 -187.775659 
L 179.390909 -185.673991 
L 184.322727 -185.673991 
L 184.322727 -183.971111 
L 189.254545 -183.971111 
L 189.254545 -181.527276 
L 194.186364 -181.527276 
L 194.186364 -180.064835 
L 199.118182 -180.064835 
L 199.118182 -177.378775 
L 204.05 -177.378775 
L 204.05 -174.954532 
L 208.981818 -174.954532 
L 208.981818 -172.804137 
L 213.913636 -172.804137 
L 213.913636 -171.38783 
L 218.845455 -171.38783 
L 218.845455 -170.108217 
L 223.777273 -170.108217 
L 223.777273 -168.147907 
L 228.709091 -168.147907 
L 228.709091 -166.143256 
L 233.640909 -166.143256 
L 233.640909 -163.928061 
L 238.572727 -163.928061 
L 238.572727 -160.974451 
L 243.504545 -160.974451 
L 243.504545 -159.027677 
L 248.436364 -159.027677 
L 248.436364 -157.405254 
L 253.368182 -157.405254 
L 253.368182 -155.19083 
L 258.3 -155.19083 
L 258.3 -153.490916 
L 263.231818 -153.490916 
L 263.231818 -151.200413 
L 268.163636 -151.200413 
L 268.163636 -149.45197 
L 273.095455 -149.45197 
L 273.095455 -147.678516 
L 278.027273 -147.678516 
L 278.027273 -146.068972 
L 282.959091 -146.068972 
L 282.959091 -144.20508 
L 287.890909 -144.20508 
L 287.890909 -141.863107 
L 292.822727 -141.863107 
L 292.822727 -139.258378 
L 297.754545 -139.258378 
L 297.754545 -137.927737 
L 302.686364 -137.927737 
L 302.686364 -137.01814 
L 307.618182 -137.01814 
L 307.618182 -135.39108 
L 312.55 -135.39108 
L 312.55 -132.989424 
L 317.481818 -132.989424 
L 317.481818 -131.763584 
L 322.413636 -131.763584 
L 322.413636 -128.49056 
L 327.345455 -128.49056 
L 327.345455 -126.665187 
L 332.277273 -126.665187 
L 332.277273 -125.590663 
L 337.209091 -125.590663 
L 337.209091 -124.198544 
L 342.140909 -124.198544 
L 342.140909 -121.883335 
L 347.072727 -121.883335 
L 347.072727 -119.481279 
L 352.004545 -119.481279 
L 352.004545 -117.601028 
L 356.936364 -117.601028 
L 356.936364 -115.315043 
L 361.868182 -115.315043 
L 361.868182 -113.250969 
L 366.8 -113.250969 
L 366.8 -111.440402 
L 371.731818 -111.440402 
L 371.731818 -109.537183 
L 376.663636 -109.537183 
L 376.663636 -107.135564 
L 381.595455 -107.135564 
L 381.595455 -104.994504 
L 386.527273 -104.994504 
L 386.527273 -103.150624 
L 391.459091 -103.150624 
L 391.459091 -101.689991 
L 396.390909 -101.689991 
L 396.390909 -100.642539 
L 401.322727 -100.642539 
L 401.322727 -98.350408 
L 406.254545 -98.350408 
L 406.254545 -91.478316 
L 411.186364 -91.478316 
L 411.186364 -90.067807 
L 416.118182 -90.067807 
L 416.118182 -84.453299 
L 421.05 -84.453299 
L 421.05 -77.987225 
L 425.981818 -77.987225 
L 425.981818 -73.461657 
L 430.913636 -73.461657 
L 430.913636 -67.420859 
L 435.845455 -67.420859 
L 435.845455 -57.354545 
L 435.845455 -83.434629 
L 435.845455 -83.434629 
L 435.845455 -89.803063 
L 430.913636 -89.803063 
L 430.913636 -94.279687 
L 425.981818 -94.279687 
L 425.981818 -97.877314 
L 421.05 -97.877314 
L 421.05 -103.205013 
L 416.118182 -103.205013 
L 416.118182 -107.892431 
L 411.186364 -107.892431 
L 411.186364 -109.092939 
L 406.254545 -109.092939 
L 406.254545 -115.033195 
L 401.322727 -115.033195 
L 401.322727 -117.023857 
L 396.390909 -117.023857 
L 396.390909 -117.946773 
L 391.459091 -117.946773 
L 391.459091 -119.248718 
L 386.527273 -119.248718 
L 386.527273 -120.903178 
L 381.595455 -120.903178 
L 381.595455 -122.842084 
L 376.663636 -122.842084 
L 376.663636 -125.032754 
L 371.731818 -125.032754 
L 371.731818 -126.776387 
L 366.8 -126.776387 
L 366.8 -128.443116 
L 361.868182 -128.443116 
L 361.868182 -130.352362 
L 356.936364 -130.352362 
L 356.936364 -132.476293 
L 352.004545 -132.476293 
L 352.004545 -134.228345 
L 347.072727 -134.228345 
L 347.072727 -136.473437 
L 342.140909 -136.473437 
L 342.140909 -138.641399 
L 337.209091 -138.641399 
L 337.209091 -139.948614 
L 332.277273 -139.948614 
L 332.277273 -140.960816 
L 327.345455 -140.960816 
L 327.345455 -142.683916 
L 322.413636 -142.683916 
L 322.413636 -145.778115 
L 317.481818 -145.778115 
L 317.481818 -146.937818 
L 312.55 -146.937818 
L 312.55 -149.211064 
L 307.618182 -149.211064 
L 307.618182 -150.753818 
L 302.686364 -150.753818 
L 302.686364 -151.617365 
L 297.754545 -151.617365 
L 297.754545 -152.882875 
L 292.822727 -152.882875 
L 292.822727 -155.361382 
L 287.890909 -155.361382 
L 287.890909 -157.589358 
L 282.959091 -157.589358 
L 282.959091 -159.364415 
L 278.027273 -159.364415 
L 278.027273 -160.899621 
L 273.095455 -160.899621 
L 273.095455 -162.592377 
L 268.163636 -162.592377 
L 268.163636 -164.261181 
L 263.231818 -164.261181 
L 263.231818 -166.447564 
L 258.3 -166.447564 
L 258.3 -168.069181 
L 253.368182 -168.069181 
L 253.368182 -170.183164 
L 248.436364 -170.183164 
L 248.436364 -171.733199 
L 243.504545 -171.733199 
L 243.504545 -173.593844 
L 238.572727 -173.593844 
L 238.572727 -176.416399 
L 233.640909 -176.416399 
L 233.640909 -178.532982 
L 228.709091 -178.532982 
L 228.709091 -180.448911 
L 223.777273 -180.448911 
L 223.777273 -182.323621 
L 218.845455 -182.323621 
L 218.845455 -183.548303 
L 213.913636 -183.548303 
L 213.913636 -184.904526 
L 208.981818 -184.904526 
L 208.981818 -186.965652 
L 204.05 -186.965652 
L 204.05 -189.288373 
L 199.118182 -189.288373 
L 199.118182 -191.860839 
L 194.186364 -191.860839 
L 194.186364 -193.261928 
L 189.254545 -193.261928 
L 189.254545 -195.603657 
L 184.322727 -195.603657 
L 184.322727 -197.23493 
L 179.390909 -197.23493 
L 179.390909 -199.247857 
L 174.459091 -199.247857 
L 174.459091 -201.231043 
L 169.527273 -201.231043 
L 169.527273 -203.820383 
L 164.595455 -203.820383 
L 164.595455 -205.987924 
L 159.663636 -205.987924 
L 159.663636 -209.011387 
L 154.731818 -209.011387 
L 154.731818 -212.365649 
L 149.8 -212.365649 
L 149.8 -214.936967 
L 144.868182 -214.936967 
L 144.868182 -218.673763 
L 139.936364 -218.673763 
L 139.936364 -221.991403 
L 135.004545 -221.991403 
L 135.004545 -224.785919 
L 130.072727 -224.785919 
L 130.072727 -229.266396 
L 125.140909 -229.266396 
L 125.140909 -233.548928 
L 120.209091 -233.548928 
L 120.209091 -236.984098 
L 115.277273 -236.984098 
L 115.277273 -241.565187 
L 110.345455 -241.565187 
L 110.345455 -245.22617 
L 105.413636 -245.22617 
L 105.413636 -250.948505 
L 100.481818 -250.948505 
L 100.481818 -258.650652 
L 95.55 -258.650652 
L 95.55 -266.764778 
L 90.618182 -266.764778 
L 90.618182 -277.133062 
L 85.686364 -277.133062 
L 85.686364 -304.445455 
L 80.754545 -304.445455 
z
" id="mb82e8cc6fe" style="stroke:#4c72b0;stroke-opacity:0.25;"/>
    </defs>
    <g clip-path="url(#p06c3c5b87d)">
     <use style="fill:#4c72b0;fill-opacity:0.25;stroke:#4c72b0;stroke-opacity:0.25;" x="0" xlink:href="#mb82e8cc6fe" y="360"/>
    </g>
   </g>
   <g id="PolyCollection_2">
    <defs>
     <path d="M 80.754545 -304.445455 
L 80.754545 -304.445455 
L 85.686364 -304.445455 
L 85.686364 -299.4974 
L 90.618182 -299.4974 
L 90.618182 -296.990062 
L 95.55 -296.990062 
L 95.55 -295.348552 
L 100.481818 -295.348552 
L 100.481818 -294.124927 
L 105.413636 -294.124927 
L 105.413636 -292.899331 
L 110.345455 -292.899331 
L 110.345455 -291.878737 
L 115.277273 -291.878737 
L 115.277273 -290.652996 
L 120.209091 -290.652996 
L 120.209091 -289.008418 
L 125.140909 -289.008418 
L 125.140909 -287.771487 
L 130.072727 -287.771487 
L 130.072727 -286.531414 
L 135.004545 -286.531414 
L 135.004545 -285.908037 
L 139.936364 -285.908037 
L 139.936364 -284.239563 
L 144.868182 -284.239563 
L 144.868182 -282.774696 
L 149.8 -282.774696 
L 149.8 -282.141901 
L 154.731818 -282.141901 
L 154.731818 -280.872197 
L 159.663636 -280.872197 
L 159.663636 -280.44629 
L 164.595455 -280.44629 
L 164.595455 -278.732555 
L 169.527273 -278.732555 
L 169.527273 -278.08569 
L 174.459091 -278.08569 
L 174.459091 -277.215951 
L 179.390909 -277.215951 
L 179.390909 -276.77905 
L 184.322727 -276.77905 
L 184.322727 -275.679618 
L 189.254545 -275.679618 
L 189.254545 -273.468443 
L 194.186364 -273.468443 
L 194.186364 -272.800427 
L 199.118182 -272.800427 
L 199.118182 -271.673884 
L 204.05 -271.673884 
L 204.05 -270.52927 
L 208.981818 -270.52927 
L 208.981818 -270.298448 
L 213.913636 -270.298448 
L 213.913636 -269.365158 
L 218.845455 -269.365158 
L 218.845455 -268.42077 
L 223.777273 -268.42077 
L 223.777273 -267.70919 
L 228.709091 -267.70919 
L 228.709091 -266.991378 
L 233.640909 -266.991378 
L 233.640909 -266.506239 
L 238.572727 -266.506239 
L 238.572727 -266.015376 
L 243.504545 -266.015376 
L 243.504545 -265.519039 
L 248.436364 -265.519039 
L 248.436364 -264.766284 
L 253.368182 -264.766284 
L 253.368182 -264.005228 
L 258.3 -264.005228 
L 258.3 -263.747094 
L 263.231818 -263.747094 
L 263.231818 -262.961552 
L 268.163636 -262.961552 
L 268.163636 -261.900454 
L 273.095455 -261.900454 
L 273.095455 -260.559327 
L 278.027273 -260.559327 
L 278.027273 -259.210421 
L 282.959091 -259.210421 
L 282.959091 -257.851064 
L 287.890909 -257.851064 
L 287.890909 -257.025676 
L 292.822727 -257.025676 
L 292.822727 -256.1868 
L 297.754545 -256.1868 
L 297.754545 -256.1868 
L 302.686364 -256.1868 
L 302.686364 -255.898316 
L 307.618182 -255.898316 
L 307.618182 -254.421117 
L 312.55 -254.421117 
L 312.55 -253.220526 
L 317.481818 -253.220526 
L 317.481818 -251.996344 
L 322.413636 -251.996344 
L 322.413636 -251.372936 
L 327.345455 -251.372936 
L 327.345455 -250.421989 
L 332.277273 -250.421989 
L 332.277273 -249.122897 
L 337.209091 -249.122897 
L 337.209091 -248.126166 
L 342.140909 -248.126166 
L 342.140909 -246.751529 
L 347.072727 -246.751529 
L 347.072727 -245.00045 
L 352.004545 -245.00045 
L 352.004545 -243.924934 
L 356.936364 -243.924934 
L 356.936364 -243.55729 
L 361.868182 -243.55729 
L 361.868182 -242.792613 
L 366.8 -242.792613 
L 366.8 -240.439196 
L 371.731818 -240.439196 
L 371.731818 -239.635896 
L 376.663636 -239.635896 
L 376.663636 -239.635896 
L 381.595455 -239.635896 
L 381.595455 -238.770646 
L 386.527273 -238.770646 
L 386.527273 -238.320129 
L 391.459091 -238.320129 
L 391.459091 -237.847652 
L 396.390909 -237.847652 
L 396.390909 -236.851364 
L 401.322727 -236.851364 
L 401.322727 -234.208821 
L 406.254545 -234.208821 
L 406.254545 -233.089197 
L 411.186364 -233.089197 
L 411.186364 -228.298428 
L 416.118182 -228.298428 
L 416.118182 -226.987465 
L 421.05 -226.987465 
L 421.05 -226.247697 
L 425.981818 -226.247697 
L 425.981818 -220.553649 
L 430.913636 -220.553649 
L 430.913636 -218.60125 
L 435.845455 -218.60125 
L 435.845455 -215.765751 
L 435.845455 -234.544595 
L 435.845455 -234.544595 
L 435.845455 -236.406678 
L 430.913636 -236.406678 
L 430.913636 -237.846409 
L 425.981818 -237.846409 
L 425.981818 -242.194551 
L 421.05 -242.194551 
L 421.05 -242.765434 
L 416.118182 -242.765434 
L 416.118182 -243.805105 
L 411.186364 -243.805105 
L 411.186364 -247.643295 
L 406.254545 -247.643295 
L 406.254545 -248.544177 
L 401.322727 -248.544177 
L 401.322727 -250.683608 
L 396.390909 -250.683608 
L 396.390909 -251.495481 
L 391.459091 -251.495481 
L 391.459091 -251.883972 
L 386.527273 -251.883972 
L 386.527273 -252.257586 
L 381.595455 -252.257586 
L 381.595455 -252.979639 
L 376.663636 -252.979639 
L 376.663636 -252.979639 
L 371.731818 -252.979639 
L 371.731818 -253.658236 
L 366.8 -253.658236 
L 366.8 -255.646372 
L 361.868182 -255.646372 
L 361.868182 -256.292591 
L 356.936364 -256.292591 
L 356.936364 -256.60508 
L 352.004545 -256.60508 
L 352.004545 -257.521686 
L 347.072727 -257.521686 
L 347.072727 -259.014661 
L 342.140909 -259.014661 
L 342.140909 -260.185649 
L 337.209091 -260.185649 
L 337.209091 -261.037117 
L 332.277273 -261.037117 
L 332.277273 -262.147901 
L 327.345455 -262.147901 
L 327.345455 -262.962 
L 322.413636 -262.962 
L 322.413636 -263.496126 
L 317.481818 -263.496126 
L 317.481818 -264.545714 
L 312.55 -264.545714 
L 312.55 -265.575151 
L 307.618182 -265.575151 
L 307.618182 -266.840549 
L 302.686364 -266.840549 
L 302.686364 -267.08808 
L 297.754545 -267.08808 
L 297.754545 -267.08808 
L 292.822727 -267.08808 
L 292.822727 -267.810599 
L 287.890909 -267.810599 
L 287.890909 -268.521854 
L 282.959091 -268.521854 
L 282.959091 -269.692122 
L 278.027273 -269.692122 
L 278.027273 -270.850539 
L 273.095455 -270.850539 
L 273.095455 -271.998948 
L 268.163636 -271.998948 
L 268.163636 -272.906043 
L 263.231818 -272.906043 
L 263.231818 -273.577193 
L 258.3 -273.577193 
L 258.3 -273.797925 
L 253.368182 -273.797925 
L 253.368182 -274.449637 
L 248.436364 -274.449637 
L 248.436364 -275.093956 
L 243.504545 -275.093956 
L 243.504545 -275.518774 
L 238.572727 -275.518774 
L 238.572727 -275.939058 
L 233.640909 -275.939058 
L 233.640909 -276.354637 
L 228.709091 -276.354637 
L 228.709091 -276.969805 
L 223.777273 -276.969805 
L 223.777273 -277.579167 
L 218.845455 -277.579167 
L 218.845455 -278.386399 
L 213.913636 -278.386399 
L 213.913636 -279.183305 
L 208.981818 -279.183305 
L 208.981818 -279.380378 
L 204.05 -279.380378 
L 204.05 -280.356758 
L 199.118182 -280.356758 
L 199.118182 -281.316605 
L 194.186364 -281.316605 
L 194.186364 -281.885135 
L 189.254545 -281.885135 
L 189.254545 -283.7594 
L 184.322727 -283.7594 
L 184.322727 -284.686267 
L 179.390909 -284.686267 
L 179.390909 -285.053867 
L 174.459091 -285.053867 
L 174.459091 -285.784246 
L 169.527273 -285.784246 
L 169.527273 -286.326502 
L 164.595455 -286.326502 
L 164.595455 -287.757132 
L 159.663636 -287.757132 
L 159.663636 -288.111262 
L 154.731818 -288.111262 
L 154.731818 -289.163733 
L 149.8 -289.163733 
L 149.8 -289.685966 
L 144.868182 -289.685966 
L 144.868182 -290.889652 
L 139.936364 -290.889652 
L 139.936364 -292.248546 
L 135.004545 -292.248546 
L 135.004545 -292.75278 
L 130.072727 -292.75278 
L 130.072727 -293.750223 
L 125.140909 -293.750223 
L 125.140909 -294.736023 
L 120.209091 -294.736023 
L 120.209091 -296.030833 
L 115.277273 -296.030833 
L 115.277273 -296.983304 
L 110.345455 -296.983304 
L 110.345455 -297.766217 
L 105.413636 -297.766217 
L 105.413636 -298.692162 
L 100.481818 -298.692162 
L 100.481818 -299.599387 
L 95.55 -299.599387 
L 95.55 -300.780842 
L 90.618182 -300.780842 
L 90.618182 -302.472874 
L 85.686364 -302.472874 
L 85.686364 -304.445455 
L 80.754545 -304.445455 
z
" id="mbbcc8b1e2e" style="stroke:#dd8452;stroke-opacity:0.25;"/>
    </defs>
    <g clip-path="url(#p06c3c5b87d)">
     <use style="fill:#dd8452;fill-opacity:0.25;stroke:#dd8452;stroke-opacity:0.25;" x="0" xlink:href="#mbbcc8b1e2e" y="360"/>
    </g>
   </g>
   <g id="PolyCollection_3">
    <defs>
     <path d="M 80.754545 -304.445455 
L 80.754545 -304.445455 
L 85.686364 -304.445455 
L 85.686364 -287.272441 
L 90.618182 -287.272441 
L 90.618182 -285.592448 
L 95.55 -285.592448 
L 95.55 -283.864391 
L 100.481818 -283.864391 
L 100.481818 -282.979211 
L 105.413636 -282.979211 
L 105.413636 -281.765406 
L 110.345455 -281.765406 
L 110.345455 -281.456795 
L 115.277273 -281.456795 
L 115.277273 -280.507039 
L 120.209091 -280.507039 
L 120.209091 -279.539962 
L 125.140909 -279.539962 
L 125.140909 -278.878746 
L 130.072727 -278.878746 
L 130.072727 -278.878746 
L 135.004545 -278.878746 
L 135.004545 -277.49341 
L 139.936364 -277.49341 
L 139.936364 -276.78904 
L 144.868182 -276.78904 
L 144.868182 -276.78904 
L 149.8 -276.78904 
L 149.8 -276.78904 
L 154.731818 -276.78904 
L 154.731818 -275.271727 
L 159.663636 -275.271727 
L 159.663636 -274.495271 
L 164.595455 -274.495271 
L 164.595455 -274.099735 
L 169.527273 -274.099735 
L 169.527273 -273.695285 
L 174.459091 -273.695285 
L 174.459091 -273.695285 
L 179.390909 -273.695285 
L 179.390909 -273.270527 
L 184.322727 -273.270527 
L 184.322727 -273.270527 
L 189.254545 -273.270527 
L 189.254545 -273.270527 
L 194.186364 -273.270527 
L 194.186364 -273.270527 
L 199.118182 -273.270527 
L 199.118182 -273.270527 
L 204.05 -273.270527 
L 204.05 -272.303065 
L 208.981818 -272.303065 
L 208.981818 -272.303065 
L 213.913636 -272.303065 
L 213.913636 -272.303065 
L 218.845455 -272.303065 
L 218.845455 -272.303065 
L 223.777273 -272.303065 
L 223.777273 -272.303065 
L 228.709091 -272.303065 
L 228.709091 -271.759732 
L 233.640909 -271.759732 
L 233.640909 -271.207698 
L 238.572727 -271.207698 
L 238.572727 -271.207698 
L 243.504545 -271.207698 
L 243.504545 -270.637675 
L 248.436364 -270.637675 
L 248.436364 -270.637675 
L 253.368182 -270.637675 
L 253.368182 -270.637675 
L 258.3 -270.637675 
L 258.3 -270.637675 
L 263.231818 -270.637675 
L 263.231818 -270.637675 
L 268.163636 -270.637675 
L 268.163636 -270.637675 
L 273.095455 -270.637675 
L 273.095455 -270.637675 
L 278.027273 -270.637675 
L 278.027273 -270.637675 
L 282.959091 -270.637675 
L 282.959091 -270.637675 
L 287.890909 -270.637675 
L 287.890909 -270.637675 
L 292.822727 -270.637675 
L 292.822727 -270.637675 
L 297.754545 -270.637675 
L 297.754545 -270.637675 
L 302.686364 -270.637675 
L 302.686364 -269.841081 
L 307.618182 -269.841081 
L 307.618182 -269.841081 
L 312.55 -269.841081 
L 312.55 -269.841081 
L 317.481818 -269.841081 
L 317.481818 -269.841081 
L 322.413636 -269.841081 
L 322.413636 -269.841081 
L 327.345455 -269.841081 
L 327.345455 -269.841081 
L 332.277273 -269.841081 
L 332.277273 -269.841081 
L 337.209091 -269.841081 
L 337.209091 -269.841081 
L 342.140909 -269.841081 
L 342.140909 -267.651167 
L 347.072727 -267.651167 
L 347.072727 -267.651167 
L 352.004545 -267.651167 
L 352.004545 -267.651167 
L 356.936364 -267.651167 
L 356.936364 -265.20645 
L 361.868182 -265.20645 
L 361.868182 -265.20645 
L 366.8 -265.20645 
L 366.8 -265.20645 
L 371.731818 -265.20645 
L 371.731818 -263.79958 
L 376.663636 -263.79958 
L 376.663636 -263.79958 
L 381.595455 -263.79958 
L 381.595455 -262.263218 
L 386.527273 -262.263218 
L 386.527273 -262.263218 
L 391.459091 -262.263218 
L 391.459091 -262.263218 
L 396.390909 -262.263218 
L 396.390909 -262.263218 
L 401.322727 -262.263218 
L 401.322727 -262.263218 
L 406.254545 -262.263218 
L 406.254545 -262.263218 
L 411.186364 -262.263218 
L 411.186364 -262.263218 
L 416.118182 -262.263218 
L 416.118182 -262.263218 
L 421.05 -262.263218 
L 421.05 -262.263218 
L 425.981818 -262.263218 
L 425.981818 -262.263218 
L 430.913636 -262.263218 
L 430.913636 -262.263218 
L 435.845455 -262.263218 
L 435.845455 -262.263218 
L 435.845455 -276.3722 
L 435.845455 -276.3722 
L 435.845455 -276.3722 
L 430.913636 -276.3722 
L 430.913636 -276.3722 
L 425.981818 -276.3722 
L 425.981818 -276.3722 
L 421.05 -276.3722 
L 421.05 -276.3722 
L 416.118182 -276.3722 
L 416.118182 -276.3722 
L 411.186364 -276.3722 
L 411.186364 -276.3722 
L 406.254545 -276.3722 
L 406.254545 -276.3722 
L 401.322727 -276.3722 
L 401.322727 -276.3722 
L 396.390909 -276.3722 
L 396.390909 -276.3722 
L 391.459091 -276.3722 
L 391.459091 -276.3722 
L 386.527273 -276.3722 
L 386.527273 -276.3722 
L 381.595455 -276.3722 
L 381.595455 -277.21454 
L 376.663636 -277.21454 
L 376.663636 -277.21454 
L 371.731818 -277.21454 
L 371.731818 -277.99962 
L 366.8 -277.99962 
L 366.8 -277.99962 
L 361.868182 -277.99962 
L 361.868182 -277.99962 
L 356.936364 -277.99962 
L 356.936364 -279.410866 
L 352.004545 -279.410866 
L 352.004545 -279.410866 
L 347.072727 -279.410866 
L 347.072727 -279.410866 
L 342.140909 -279.410866 
L 342.140909 -280.687806 
L 337.209091 -280.687806 
L 337.209091 -280.687806 
L 332.277273 -280.687806 
L 332.277273 -280.687806 
L 327.345455 -280.687806 
L 327.345455 -280.687806 
L 322.413636 -280.687806 
L 322.413636 -280.687806 
L 317.481818 -280.687806 
L 317.481818 -280.687806 
L 312.55 -280.687806 
L 312.55 -280.687806 
L 307.618182 -280.687806 
L 307.618182 -280.687806 
L 302.686364 -280.687806 
L 302.686364 -281.205594 
L 297.754545 -281.205594 
L 297.754545 -281.205594 
L 292.822727 -281.205594 
L 292.822727 -281.205594 
L 287.890909 -281.205594 
L 287.890909 -281.205594 
L 282.959091 -281.205594 
L 282.959091 -281.205594 
L 278.027273 -281.205594 
L 278.027273 -281.205594 
L 273.095455 -281.205594 
L 273.095455 -281.205594 
L 268.163636 -281.205594 
L 268.163636 -281.205594 
L 263.231818 -281.205594 
L 263.231818 -281.205594 
L 258.3 -281.205594 
L 258.3 -281.205594 
L 253.368182 -281.205594 
L 253.368182 -281.205594 
L 248.436364 -281.205594 
L 248.436364 -281.205594 
L 243.504545 -281.205594 
L 243.504545 -281.617582 
L 238.572727 -281.617582 
L 238.572727 -281.617582 
L 233.640909 -281.617582 
L 233.640909 -282.018456 
L 228.709091 -282.018456 
L 228.709091 -282.412984 
L 223.777273 -282.412984 
L 223.777273 -282.412984 
L 218.845455 -282.412984 
L 218.845455 -282.412984 
L 213.913636 -282.412984 
L 213.913636 -282.412984 
L 208.981818 -282.412984 
L 208.981818 -282.412984 
L 204.05 -282.412984 
L 204.05 -283.13487 
L 199.118182 -283.13487 
L 199.118182 -283.13487 
L 194.186364 -283.13487 
L 194.186364 -283.13487 
L 189.254545 -283.13487 
L 189.254545 -283.13487 
L 184.322727 -283.13487 
L 184.322727 -283.13487 
L 179.390909 -283.13487 
L 179.390909 -283.461279 
L 174.459091 -283.461279 
L 174.459091 -283.461279 
L 169.527273 -283.461279 
L 169.527273 -283.775072 
L 164.595455 -283.775072 
L 164.595455 -284.08285 
L 159.663636 -284.08285 
L 159.663636 -284.687528 
L 154.731818 -284.687528 
L 154.731818 -285.867033 
L 149.8 -285.867033 
L 149.8 -285.867033 
L 144.868182 -285.867033 
L 144.868182 -285.867033 
L 139.936364 -285.867033 
L 139.936364 -286.42042 
L 135.004545 -286.42042 
L 135.004545 -287.505777 
L 130.072727 -287.505777 
L 130.072727 -287.505777 
L 125.140909 -287.505777 
L 125.140909 -288.026002 
L 120.209091 -288.026002 
L 120.209091 -288.787276 
L 115.277273 -288.787276 
L 115.277273 -289.53323 
L 110.345455 -289.53323 
L 110.345455 -289.776009 
L 105.413636 -289.776009 
L 105.413636 -290.729551 
L 100.481818 -290.729551 
L 100.481818 -291.424225 
L 95.55 -291.424225 
L 95.55 -292.774688 
L 90.618182 -292.774688 
L 90.618182 -294.078212 
L 85.686364 -294.078212 
L 85.686364 -304.445455 
L 80.754545 -304.445455 
z
" id="mccfc038d3c" style="stroke:#55a868;stroke-opacity:0.25;"/>
    </defs>
    <g clip-path="url(#p06c3c5b87d)">
     <use style="fill:#55a868;fill-opacity:0.25;stroke:#55a868;stroke-opacity:0.25;" x="0" xlink:href="#mccfc038d3c" y="360"/>
    </g>
   </g>
   <g id="line2d_17">
    <path clip-path="url(#p06c3c5b87d)" d="M 80.754545 55.554545 
L 85.686364 55.554545 
L 85.686364 85.972224 
L 90.618182 85.972224 
L 90.618182 96.839085 
L 95.55 96.839085 
L 95.55 105.285717 
L 100.481818 105.285717 
L 100.481818 113.270168 
L 105.413636 113.270168 
L 105.413636 119.184013 
L 110.345455 119.184013 
L 110.345455 122.961006 
L 115.277273 122.961006 
L 115.277273 127.680525 
L 120.209091 127.680525 
L 120.209091 131.215459 
L 125.140909 131.215459 
L 125.140909 135.618168 
L 130.072727 135.618168 
L 130.072727 140.219721 
L 135.004545 140.219721 
L 135.004545 143.08716 
L 139.936364 143.08716 
L 139.936364 146.489838 
L 144.868182 146.489838 
L 144.868182 150.319996 
L 149.8 150.319996 
L 149.8 152.954163 
L 154.731818 152.954163 
L 154.731818 156.388723 
L 159.663636 156.388723 
L 159.663636 159.48275 
L 164.595455 159.48275 
L 164.595455 161.699917 
L 169.527273 161.699917 
L 169.527273 164.348022 
L 174.459091 164.348022 
L 174.459091 166.376428 
L 179.390909 166.376428 
L 179.390909 168.435109 
L 184.322727 168.435109 
L 184.322727 170.103304 
L 189.254545 170.103304 
L 189.254545 172.497696 
L 194.186364 172.497696 
L 194.186364 173.930416 
L 199.118182 173.930416 
L 199.118182 176.56141 
L 204.05 176.56141 
L 204.05 178.936471 
L 208.981818 178.936471 
L 208.981818 181.043647 
L 213.913636 181.043647 
L 213.913636 182.430823 
L 218.845455 182.430823 
L 218.845455 183.683784 
L 223.777273 183.683784 
L 223.777273 185.602522 
L 228.709091 185.602522 
L 228.709091 187.564057 
L 233.640909 187.564057 
L 233.640909 189.731326 
L 238.572727 189.731326 
L 238.572727 192.62128 
L 243.504545 192.62128 
L 243.504545 194.526246 
L 248.436364 194.526246 
L 248.436364 196.113525 
L 253.368182 196.113525 
L 253.368182 198.279156 
L 258.3 198.279156 
L 258.3 199.941018 
L 263.231818 199.941018 
L 263.231818 202.180984 
L 268.163636 202.180984 
L 268.163636 203.89079 
L 273.095455 203.89079 
L 273.095455 205.625115 
L 278.027273 205.625115 
L 278.027273 207.198602 
L 282.959091 207.198602 
L 282.959091 209.01935 
L 287.890909 209.01935 
L 287.890909 211.305937 
L 292.822727 211.305937 
L 292.822727 213.849412 
L 297.754545 213.849412 
L 297.754545 215.148453 
L 302.686364 215.148453 
L 302.686364 216.035677 
L 307.618182 216.035677 
L 307.618182 217.621748 
L 312.55 217.621748 
L 312.55 219.960928 
L 317.481818 219.960928 
L 317.481818 221.154602 
L 322.413636 221.154602 
L 322.413636 224.340697 
L 327.345455 224.340697 
L 327.345455 226.116356 
L 332.277273 226.116356 
L 332.277273 227.160557 
L 337.209091 227.160557 
L 337.209091 228.511295 
L 342.140909 228.511295 
L 342.140909 230.754675 
L 347.072727 230.754675 
L 347.072727 233.080175 
L 352.004545 233.080175 
L 352.004545 234.897867 
L 356.936364 234.897867 
L 356.936364 237.104744 
L 361.868182 237.104744 
L 361.868182 239.093167 
L 366.8 239.093167 
L 366.8 240.833384 
L 371.731818 240.833384 
L 371.731818 242.65849 
L 376.663636 242.65849 
L 376.663636 244.956834 
L 381.595455 244.956834 
L 381.595455 246.998833 
L 386.527273 246.998833 
L 386.527273 248.749762 
L 391.459091 248.749762 
L 391.459091 250.132481 
L 396.390909 250.132481 
L 396.390909 251.118674 
L 401.322727 251.118674 
L 401.322727 253.262275 
L 406.254545 253.262275 
L 406.254545 259.67665 
L 411.186364 259.67665 
L 411.186364 260.984105 
L 416.118182 260.984105 
L 416.118182 266.143884 
L 421.05 266.143884 
L 421.05 272.054176 
L 425.981818 272.054176 
L 425.981818 276.127573 
L 430.913636 276.127573 
L 430.913636 281.406362 
L 435.845455 281.406362 
L 435.845455 289.676465 
L 435.845455 289.676465 
" style="fill:none;stroke:#4c72b0;stroke-linecap:round;stroke-width:1.5;"/>
   </g>
   <g id="line2d_18">
    <path clip-path="url(#p06c3c5b87d)" d="M 80.754545 55.554545 
L 85.686364 55.554545 
L 85.686364 58.680233 
L 90.618182 58.680233 
L 90.618182 60.784041 
L 95.55 60.784041 
L 95.55 62.197363 
L 100.481818 62.197363 
L 100.481818 63.263942 
L 105.413636 63.263942 
L 105.413636 64.340587 
L 110.345455 64.340587 
L 110.345455 65.243014 
L 115.277273 65.243014 
L 115.277273 66.332864 
L 120.209091 66.332864 
L 120.209091 67.803325 
L 125.140909 67.803325 
L 125.140909 68.91525 
L 130.072727 68.91525 
L 130.072727 70.034572 
L 135.004545 70.034572 
L 135.004545 70.598625 
L 139.936364 70.598625 
L 139.936364 72.112968 
L 144.868182 72.112968 
L 144.868182 73.447874 
L 149.8 73.447874 
L 149.8 74.025618 
L 154.731818 74.025618 
L 154.731818 75.187179 
L 159.663636 75.187179 
L 159.663636 75.57734 
L 164.595455 75.57734 
L 164.595455 77.150072 
L 169.527273 77.150072 
L 169.527273 77.744832 
L 174.459091 77.744832 
L 174.459091 78.545109 
L 179.390909 78.545109 
L 179.390909 78.947463 
L 184.322727 78.947463 
L 184.322727 79.960841 
L 189.254545 79.960841 
L 189.254545 82.004137 
L 194.186364 82.004137 
L 194.186364 82.622596 
L 199.118182 82.622596 
L 199.118182 83.666019 
L 204.05 83.666019 
L 204.05 84.726639 
L 208.981818 84.726639 
L 208.981818 84.940602 
L 213.913636 84.940602 
L 213.913636 85.805696 
L 218.845455 85.805696 
L 218.845455 86.681456 
L 223.777273 86.681456 
L 223.777273 87.341904 
L 228.709091 87.341904 
L 228.709091 88.008348 
L 233.640909 88.008348 
L 233.640909 88.458631 
L 238.572727 88.458631 
L 238.572727 88.91409 
L 243.504545 88.91409 
L 243.504545 89.374517 
L 248.436364 89.374517 
L 248.436364 90.072787 
L 253.368182 90.072787 
L 253.368182 90.778873 
L 258.3 90.778873 
L 258.3 91.018173 
L 263.231818 91.018173 
L 263.231818 91.746042 
L 268.163636 91.746042 
L 268.163636 92.729465 
L 273.095455 92.729465 
L 273.095455 93.973413 
L 278.027273 93.973413 
L 278.027273 95.226368 
L 282.959091 95.226368 
L 282.959091 96.490555 
L 287.890909 96.490555 
L 287.890909 97.258493 
L 292.822727 97.258493 
L 292.822727 98.038745 
L 302.686364 98.038745 
L 302.686364 98.306532 
L 307.618182 98.306532 
L 307.618182 99.67652 
L 312.55 99.67652 
L 312.55 100.790478 
L 317.481818 100.790478 
L 317.481818 101.926237 
L 322.413636 101.926237 
L 322.413636 102.504393 
L 327.345455 102.504393 
L 327.345455 103.385926 
L 332.277273 103.385926 
L 332.277273 104.5894 
L 337.209091 104.5894 
L 337.209091 105.512309 
L 342.140909 105.512309 
L 342.140909 106.783265 
L 347.072727 106.783265 
L 347.072727 108.402976 
L 352.004545 108.402976 
L 352.004545 109.39758 
L 356.936364 109.39758 
L 356.936364 109.737098 
L 361.868182 109.737098 
L 361.868182 110.441196 
L 366.8 110.441196 
L 366.8 112.607781 
L 371.731818 112.607781 
L 371.731818 113.347301 
L 381.595455 113.347301 
L 381.595455 114.138929 
L 386.527273 114.138929 
L 386.527273 114.549816 
L 391.459091 114.549816 
L 391.459091 114.978884 
L 396.390909 114.978884 
L 396.390909 115.879594 
L 401.322727 115.879594 
L 401.322727 118.260995 
L 406.254545 118.260995 
L 406.254545 119.266939 
L 411.186364 119.266939 
L 411.186364 123.562488 
L 416.118182 123.562488 
L 416.118182 124.732179 
L 421.05 124.732179 
L 421.05 125.383514 
L 425.981818 125.383514 
L 425.981818 130.372117 
L 430.913636 130.372117 
L 430.913636 132.054599 
L 435.845455 132.054599 
L 435.845455 134.371576 
L 435.845455 134.371576 
" style="fill:none;stroke:#dd8452;stroke-linecap:round;stroke-width:1.5;"/>
   </g>
   <g id="line2d_19">
    <path clip-path="url(#p06c3c5b87d)" d="M 80.754545 55.554545 
L 85.686364 55.554545 
L 85.686364 68.906121 
L 90.618182 68.906121 
L 90.618182 70.397488 
L 95.55 70.397488 
L 95.55 71.935639 
L 100.481818 71.935639 
L 100.481818 72.724729 
L 105.413636 72.724729 
L 105.413636 73.806788 
L 110.345455 73.806788 
L 110.345455 74.082017 
L 115.277273 74.082017 
L 115.277273 74.928083 
L 120.209091 74.928083 
L 120.209091 75.790335 
L 125.140909 75.790335 
L 125.140909 76.379553 
L 135.004545 76.379553 
L 135.004545 77.610904 
L 139.936364 77.610904 
L 139.936364 78.237762 
L 154.731818 78.237762 
L 154.731818 79.580204 
L 159.663636 79.580204 
L 159.663636 80.26771 
L 164.595455 80.26771 
L 164.595455 80.617753 
L 169.527273 80.617753 
L 169.527273 80.975113 
L 179.390909 80.975113 
L 179.390909 81.348511 
L 204.05 81.348511 
L 204.05 82.186003 
L 228.709091 82.186003 
L 228.709091 82.649807 
L 233.640909 82.649807 
L 233.640909 83.12106 
L 243.504545 83.12106 
L 243.504545 83.606507 
L 302.686364 83.606507 
L 302.686364 84.25021 
L 342.140909 84.25021 
L 342.140909 85.931926 
L 356.936364 85.931926 
L 356.936364 87.800499 
L 371.731818 87.800499 
L 371.731818 88.859357 
L 381.595455 88.859357 
L 381.595455 90.006453 
L 435.845455 90.006453 
L 435.845455 90.006453 
" style="fill:none;stroke:#55a868;stroke-linecap:round;stroke-width:1.5;"/>
   </g>
   <g id="patch_3">
    <path d="M 63 315 
L 63 43.2 
" style="fill:none;stroke:#ffffff;stroke-linecap:square;stroke-linejoin:miter;stroke-width:1.25;"/>
   </g>
   <g id="patch_4">
    <path d="M 453.6 315 
L 453.6 43.2 
" style="fill:none;stroke:#ffffff;stroke-linecap:square;stroke-linejoin:miter;stroke-width:1.25;"/>
   </g>
   <g id="patch_5">
    <path d="M 63 315 
L 453.6 315 
" style="fill:none;stroke:#ffffff;stroke-linecap:square;stroke-linejoin:miter;stroke-width:1.25;"/>
   </g>
   <g id="patch_6">
    <path d="M 63 43.2 
L 453.6 43.2 
" style="fill:none;stroke:#ffffff;stroke-linecap:square;stroke-linejoin:miter;stroke-width:1.25;"/>
   </g>
   <g id="text_19">
    <!-- Survival curves, stratified by OnlineSecurity -->
    <g style="fill:#262626;" transform="translate(132.5925 33.2)scale(0.12 -0.12)">
     <defs>
      <path d="M 52.390625 36.53125 
L 38.875 34.078125 
Q 38.1875 38.140625 35.765625 40.1875 
Q 33.34375 42.234375 29.5 42.234375 
Q 24.359375 42.234375 21.3125 38.6875 
Q 18.265625 35.15625 18.265625 26.859375 
Q 18.265625 17.625 21.359375 13.8125 
Q 24.46875 10.015625 29.6875 10.015625 
Q 33.59375 10.015625 36.078125 12.234375 
Q 38.578125 14.453125 39.59375 19.875 
L 53.078125 17.578125 
Q 50.984375 8.296875 45.015625 3.5625 
Q 39.0625 -1.171875 29.046875 -1.171875 
Q 17.671875 -1.171875 10.90625 6 
Q 4.15625 13.1875 4.15625 25.875 
Q 4.15625 38.71875 10.9375 45.875 
Q 17.71875 53.03125 29.296875 53.03125 
Q 38.765625 53.03125 44.359375 48.953125 
Q 49.953125 44.875 52.390625 36.53125 
z
" id="Arial-BoldMT-99"/>
      <path d="M 6.84375 13.71875 
L 20.5625 13.71875 
L 20.5625 3.90625 
Q 20.5625 -2.046875 19.53125 -5.484375 
Q 18.5 -8.9375 15.640625 -11.671875 
Q 12.796875 -14.40625 8.40625 -15.96875 
L 5.71875 -10.296875 
Q 9.859375 -8.9375 11.609375 -6.546875 
Q 13.375 -4.15625 13.484375 0 
L 6.84375 0 
z
" id="Arial-BoldMT-44"/>
      <path d="M 1.171875 51.859375 
L 8.796875 51.859375 
L 8.796875 55.765625 
Q 8.796875 62.3125 10.1875 65.53125 
Q 11.578125 68.75 15.3125 70.765625 
Q 19.046875 72.796875 24.75 72.796875 
Q 30.609375 72.796875 36.234375 71.046875 
L 34.375 61.46875 
Q 31.109375 62.25 28.078125 62.25 
Q 25.09375 62.25 23.796875 60.859375 
Q 22.515625 59.46875 22.515625 55.515625 
L 22.515625 51.859375 
L 32.765625 51.859375 
L 32.765625 41.0625 
L 22.515625 41.0625 
L 22.515625 0 
L 8.796875 0 
L 8.796875 41.0625 
L 1.171875 41.0625 
z
" id="Arial-BoldMT-102"/>
      <path d="M 54.734375 0 
L 42 0 
L 42 7.625 
Q 38.8125 3.171875 34.484375 1 
Q 30.171875 -1.171875 25.78125 -1.171875 
Q 16.84375 -1.171875 10.46875 6.03125 
Q 4.109375 13.234375 4.109375 26.125 
Q 4.109375 39.3125 10.296875 46.171875 
Q 16.5 53.03125 25.984375 53.03125 
Q 34.671875 53.03125 41.015625 45.796875 
L 41.015625 71.578125 
L 54.734375 71.578125 
z
M 18.109375 27.046875 
Q 18.109375 18.75 20.40625 15.046875 
Q 23.734375 9.671875 29.6875 9.671875 
Q 34.421875 9.671875 37.734375 13.6875 
Q 41.0625 17.71875 41.0625 25.734375 
Q 41.0625 34.671875 37.84375 38.59375 
Q 34.625 42.53125 29.59375 42.53125 
Q 24.703125 42.53125 21.40625 38.640625 
Q 18.109375 34.765625 18.109375 27.046875 
z
" id="Arial-BoldMT-100"/>
      <path d="M 4.34375 35.359375 
Q 4.34375 46.296875 7.625 53.71875 
Q 10.0625 59.1875 14.28125 63.53125 
Q 18.5 67.875 23.53125 69.96875 
Q 30.21875 72.796875 38.96875 72.796875 
Q 54.78125 72.796875 64.28125 62.984375 
Q 73.78125 53.171875 73.78125 35.6875 
Q 73.78125 18.359375 64.359375 8.5625 
Q 54.9375 -1.21875 39.15625 -1.21875 
Q 23.1875 -1.21875 13.765625 8.515625 
Q 4.34375 18.265625 4.34375 35.359375 
z
M 19.234375 35.84375 
Q 19.234375 23.6875 24.84375 17.40625 
Q 30.46875 11.140625 39.109375 11.140625 
Q 47.75 11.140625 53.296875 17.359375 
Q 58.84375 23.578125 58.84375 36.03125 
Q 58.84375 48.34375 53.4375 54.390625 
Q 48.046875 60.453125 39.109375 60.453125 
Q 30.171875 60.453125 24.703125 54.3125 
Q 19.234375 48.1875 19.234375 35.84375 
z
" id="Arial-BoldMT-79"/>
     </defs>
     <use xlink:href="#Arial-BoldMT-83"/>
     <use x="66.699219" xlink:href="#Arial-BoldMT-117"/>
     <use x="127.783203" xlink:href="#Arial-BoldMT-114"/>
     <use x="166.699219" xlink:href="#Arial-BoldMT-118"/>
     <use x="222.314453" xlink:href="#Arial-BoldMT-105"/>
     <use x="250.097656" xlink:href="#Arial-BoldMT-118"/>
     <use x="305.712891" xlink:href="#Arial-BoldMT-97"/>
     <use x="361.328125" xlink:href="#Arial-BoldMT-108"/>
     <use x="389.111328" xlink:href="#Arial-BoldMT-32"/>
     <use x="416.894531" xlink:href="#Arial-BoldMT-99"/>
     <use x="472.509766" xlink:href="#Arial-BoldMT-117"/>
     <use x="533.59375" xlink:href="#Arial-BoldMT-114"/>
     <use x="572.509766" xlink:href="#Arial-BoldMT-118"/>
     <use x="628.125" xlink:href="#Arial-BoldMT-101"/>
     <use x="683.740234" xlink:href="#Arial-BoldMT-115"/>
     <use x="739.355469" xlink:href="#Arial-BoldMT-44"/>
     <use x="767.138672" xlink:href="#Arial-BoldMT-32"/>
     <use x="794.921875" xlink:href="#Arial-BoldMT-115"/>
     <use x="850.537109" xlink:href="#Arial-BoldMT-116"/>
     <use x="883.837891" xlink:href="#Arial-BoldMT-114"/>
     <use x="922.753906" xlink:href="#Arial-BoldMT-97"/>
     <use x="978.369141" xlink:href="#Arial-BoldMT-116"/>
     <use x="1011.669922" xlink:href="#Arial-BoldMT-105"/>
     <use x="1039.453125" xlink:href="#Arial-BoldMT-102"/>
     <use x="1072.753906" xlink:href="#Arial-BoldMT-105"/>
     <use x="1100.537109" xlink:href="#Arial-BoldMT-101"/>
     <use x="1156.152344" xlink:href="#Arial-BoldMT-100"/>
     <use x="1217.236328" xlink:href="#Arial-BoldMT-32"/>
     <use x="1245.019531" xlink:href="#Arial-BoldMT-98"/>
     <use x="1306.103516" xlink:href="#Arial-BoldMT-121"/>
     <use x="1361.71875" xlink:href="#Arial-BoldMT-32"/>
     <use x="1389.501953" xlink:href="#Arial-BoldMT-79"/>
     <use x="1467.285156" xlink:href="#Arial-BoldMT-110"/>
     <use x="1528.369141" xlink:href="#Arial-BoldMT-108"/>
     <use x="1556.152344" xlink:href="#Arial-BoldMT-105"/>
     <use x="1583.935547" xlink:href="#Arial-BoldMT-110"/>
     <use x="1645.019531" xlink:href="#Arial-BoldMT-101"/>
     <use x="1700.634766" xlink:href="#Arial-BoldMT-83"/>
     <use x="1767.333984" xlink:href="#Arial-BoldMT-101"/>
     <use x="1822.949219" xlink:href="#Arial-BoldMT-99"/>
     <use x="1878.564453" xlink:href="#Arial-BoldMT-117"/>
     <use x="1939.648438" xlink:href="#Arial-BoldMT-114"/>
     <use x="1978.564453" xlink:href="#Arial-BoldMT-105"/>
     <use x="2006.347656" xlink:href="#Arial-BoldMT-116"/>
     <use x="2039.648438" xlink:href="#Arial-BoldMT-121"/>
    </g>
   </g>
   <g id="legend_1">
    <g id="patch_7">
     <path d="M 70.7 309.5 
L 197.600469 309.5 
Q 199.800469 309.5 199.800469 307.3 
L 199.800469 261.720469 
Q 199.800469 259.520469 197.600469 259.520469 
L 70.7 259.520469 
Q 68.5 259.520469 68.5 261.720469 
L 68.5 307.3 
Q 68.5 309.5 70.7 309.5 
z
" style="fill:#eaeaf2;opacity:0.8;stroke:#cccccc;stroke-linejoin:miter;"/>
    </g>
    <g id="line2d_20">
     <path d="M 72.9 267.944062 
L 94.9 267.944062 
" style="fill:none;stroke:#4c72b0;stroke-linecap:round;stroke-width:1.5;"/>
    </g>
    <g id="line2d_21"/>
    <g id="text_20">
     <!-- No -->
     <g style="fill:#262626;" transform="translate(103.7 271.794062)scale(0.11 -0.11)">
      <defs>
       <path d="M 7.625 0 
L 7.625 71.578125 
L 17.328125 71.578125 
L 54.9375 15.375 
L 54.9375 71.578125 
L 64.015625 71.578125 
L 64.015625 0 
L 54.296875 0 
L 16.703125 56.25 
L 16.703125 0 
z
" id="ArialMT-78"/>
       <path d="M 3.328125 25.921875 
Q 3.328125 40.328125 11.328125 47.265625 
Q 18.015625 53.03125 27.640625 53.03125 
Q 38.328125 53.03125 45.109375 46.015625 
Q 51.90625 39.015625 51.90625 26.65625 
Q 51.90625 16.65625 48.90625 10.90625 
Q 45.90625 5.171875 40.15625 2 
Q 34.421875 -1.171875 27.640625 -1.171875 
Q 16.75 -1.171875 10.03125 5.8125 
Q 3.328125 12.796875 3.328125 25.921875 
z
M 12.359375 25.921875 
Q 12.359375 15.96875 16.703125 11.015625 
Q 21.046875 6.0625 27.640625 6.0625 
Q 34.1875 6.0625 38.53125 11.03125 
Q 42.875 16.015625 42.875 26.21875 
Q 42.875 35.84375 38.5 40.796875 
Q 34.125 45.75 27.640625 45.75 
Q 21.046875 45.75 16.703125 40.8125 
Q 12.359375 35.890625 12.359375 25.921875 
z
" id="ArialMT-111"/>
      </defs>
      <use xlink:href="#ArialMT-78"/>
      <use x="72.216797" xlink:href="#ArialMT-111"/>
     </g>
    </g>
    <g id="line2d_22">
     <path d="M 72.9 283.503906 
L 94.9 283.503906 
" style="fill:none;stroke:#dd8452;stroke-linecap:round;stroke-width:1.5;"/>
    </g>
    <g id="line2d_23"/>
    <g id="text_21">
     <!-- Yes -->
     <g style="fill:#262626;" transform="translate(103.7 287.353906)scale(0.11 -0.11)">
      <defs>
       <path d="M 27.875 0 
L 27.875 30.328125 
L 0.296875 71.578125 
L 11.8125 71.578125 
L 25.921875 50 
Q 29.828125 43.953125 33.203125 37.890625 
Q 36.421875 43.5 41.015625 50.53125 
L 54.890625 71.578125 
L 65.921875 71.578125 
L 37.359375 30.328125 
L 37.359375 0 
z
" id="ArialMT-89"/>
       <path d="M 42.09375 16.703125 
L 51.171875 15.578125 
Q 49.03125 7.625 43.21875 3.21875 
Q 37.40625 -1.171875 28.375 -1.171875 
Q 17 -1.171875 10.328125 5.828125 
Q 3.65625 12.84375 3.65625 25.484375 
Q 3.65625 38.578125 10.390625 45.796875 
Q 17.140625 53.03125 27.875 53.03125 
Q 38.28125 53.03125 44.875 45.953125 
Q 51.46875 38.875 51.46875 26.03125 
Q 51.46875 25.25 51.421875 23.6875 
L 12.75 23.6875 
Q 13.234375 15.140625 17.578125 10.59375 
Q 21.921875 6.0625 28.421875 6.0625 
Q 33.25 6.0625 36.671875 8.59375 
Q 40.09375 11.140625 42.09375 16.703125 
z
M 13.234375 30.90625 
L 42.1875 30.90625 
Q 41.609375 37.453125 38.875 40.71875 
Q 34.671875 45.796875 27.984375 45.796875 
Q 21.921875 45.796875 17.796875 41.75 
Q 13.671875 37.703125 13.234375 30.90625 
z
" id="ArialMT-101"/>
       <path d="M 3.078125 15.484375 
L 11.765625 16.84375 
Q 12.5 11.625 15.84375 8.84375 
Q 19.1875 6.0625 25.203125 6.0625 
Q 31.25 6.0625 34.171875 8.515625 
Q 37.109375 10.984375 37.109375 14.3125 
Q 37.109375 17.28125 34.515625 19 
Q 32.71875 20.171875 25.53125 21.96875 
Q 15.875 24.421875 12.140625 26.203125 
Q 8.40625 27.984375 6.46875 31.125 
Q 4.546875 34.28125 4.546875 38.09375 
Q 4.546875 41.546875 6.125 44.5 
Q 7.71875 47.46875 10.453125 49.421875 
Q 12.5 50.921875 16.03125 51.96875 
Q 19.578125 53.03125 23.640625 53.03125 
Q 29.734375 53.03125 34.34375 51.265625 
Q 38.96875 49.515625 41.15625 46.5 
Q 43.359375 43.5 44.1875 38.484375 
L 35.59375 37.3125 
Q 35.015625 41.3125 32.203125 43.546875 
Q 29.390625 45.796875 24.265625 45.796875 
Q 18.21875 45.796875 15.625 43.796875 
Q 13.03125 41.796875 13.03125 39.109375 
Q 13.03125 37.40625 14.109375 36.03125 
Q 15.1875 34.625 17.484375 33.6875 
Q 18.796875 33.203125 25.25 31.453125 
Q 34.578125 28.953125 38.25 27.359375 
Q 41.9375 25.78125 44.03125 22.75 
Q 46.140625 19.734375 46.140625 15.234375 
Q 46.140625 10.84375 43.578125 6.953125 
Q 41.015625 3.078125 36.171875 0.953125 
Q 31.34375 -1.171875 25.25 -1.171875 
Q 15.140625 -1.171875 9.84375 3.03125 
Q 4.546875 7.234375 3.078125 15.484375 
z
" id="ArialMT-115"/>
      </defs>
      <use xlink:href="#ArialMT-89"/>
      <use x="57.574219" xlink:href="#ArialMT-101"/>
      <use x="113.189453" xlink:href="#ArialMT-115"/>
     </g>
    </g>
    <g id="line2d_24">
     <path d="M 72.9 299.06375 
L 94.9 299.06375 
" style="fill:none;stroke:#55a868;stroke-linecap:round;stroke-width:1.5;"/>
    </g>
    <g id="line2d_25"/>
    <g id="text_22">
     <!-- No internet service -->
     <g style="fill:#262626;" transform="translate(103.7 302.91375)scale(0.11 -0.11)">
      <defs>
       <path id="ArialMT-32"/>
       <path d="M 6.640625 61.46875 
L 6.640625 71.578125 
L 15.4375 71.578125 
L 15.4375 61.46875 
z
M 6.640625 0 
L 6.640625 51.859375 
L 15.4375 51.859375 
L 15.4375 0 
z
" id="ArialMT-105"/>
       <path d="M 6.59375 0 
L 6.59375 51.859375 
L 14.5 51.859375 
L 14.5 44.484375 
Q 20.21875 53.03125 31 53.03125 
Q 35.6875 53.03125 39.625 51.34375 
Q 43.5625 49.65625 45.515625 46.921875 
Q 47.46875 44.1875 48.25 40.4375 
Q 48.734375 37.984375 48.734375 31.890625 
L 48.734375 0 
L 39.9375 0 
L 39.9375 31.546875 
Q 39.9375 36.921875 38.90625 39.578125 
Q 37.890625 42.234375 35.28125 43.8125 
Q 32.671875 45.40625 29.15625 45.40625 
Q 23.53125 45.40625 19.453125 41.84375 
Q 15.375 38.28125 15.375 28.328125 
L 15.375 0 
z
" id="ArialMT-110"/>
       <path d="M 25.78125 7.859375 
L 27.046875 0.09375 
Q 23.34375 -0.6875 20.40625 -0.6875 
Q 15.625 -0.6875 12.984375 0.828125 
Q 10.359375 2.34375 9.28125 4.8125 
Q 8.203125 7.28125 8.203125 15.1875 
L 8.203125 45.015625 
L 1.765625 45.015625 
L 1.765625 51.859375 
L 8.203125 51.859375 
L 8.203125 64.703125 
L 16.9375 69.96875 
L 16.9375 51.859375 
L 25.78125 51.859375 
L 25.78125 45.015625 
L 16.9375 45.015625 
L 16.9375 14.703125 
Q 16.9375 10.9375 17.40625 9.859375 
Q 17.875 8.796875 18.921875 8.15625 
Q 19.96875 7.515625 21.921875 7.515625 
Q 23.390625 7.515625 25.78125 7.859375 
z
" id="ArialMT-116"/>
       <path d="M 6.5 0 
L 6.5 51.859375 
L 14.40625 51.859375 
L 14.40625 44 
Q 17.4375 49.515625 20 51.265625 
Q 22.5625 53.03125 25.640625 53.03125 
Q 30.078125 53.03125 34.671875 50.203125 
L 31.640625 42.046875 
Q 28.421875 43.953125 25.203125 43.953125 
Q 22.3125 43.953125 20.015625 42.21875 
Q 17.71875 40.484375 16.75 37.40625 
Q 15.28125 32.71875 15.28125 27.15625 
L 15.28125 0 
z
" id="ArialMT-114"/>
       <path d="M 21 0 
L 1.265625 51.859375 
L 10.546875 51.859375 
L 21.6875 20.796875 
Q 23.484375 15.765625 25 10.359375 
Q 26.171875 14.453125 28.265625 20.21875 
L 39.796875 51.859375 
L 48.828125 51.859375 
L 29.203125 0 
z
" id="ArialMT-118"/>
       <path d="M 40.4375 19 
L 49.078125 17.875 
Q 47.65625 8.9375 41.8125 3.875 
Q 35.984375 -1.171875 27.484375 -1.171875 
Q 16.84375 -1.171875 10.375 5.78125 
Q 3.90625 12.75 3.90625 25.734375 
Q 3.90625 34.125 6.6875 40.421875 
Q 9.46875 46.734375 15.15625 49.875 
Q 20.84375 53.03125 27.546875 53.03125 
Q 35.984375 53.03125 41.359375 48.75 
Q 46.734375 44.484375 48.25 36.625 
L 39.703125 35.296875 
Q 38.484375 40.53125 35.375 43.15625 
Q 32.28125 45.796875 27.875 45.796875 
Q 21.234375 45.796875 17.078125 41.03125 
Q 12.9375 36.28125 12.9375 25.984375 
Q 12.9375 15.53125 16.9375 10.796875 
Q 20.953125 6.0625 27.390625 6.0625 
Q 32.5625 6.0625 36.03125 9.234375 
Q 39.5 12.40625 40.4375 19 
z
" id="ArialMT-99"/>
      </defs>
      <use xlink:href="#ArialMT-78"/>
      <use x="72.216797" xlink:href="#ArialMT-111"/>
      <use x="127.832031" xlink:href="#ArialMT-32"/>
      <use x="155.615234" xlink:href="#ArialMT-105"/>
      <use x="177.832031" xlink:href="#ArialMT-110"/>
      <use x="233.447266" xlink:href="#ArialMT-116"/>
      <use x="261.230469" xlink:href="#ArialMT-101"/>
      <use x="316.845703" xlink:href="#ArialMT-114"/>
      <use x="350.146484" xlink:href="#ArialMT-110"/>
      <use x="405.761719" xlink:href="#ArialMT-101"/>
      <use x="461.376953" xlink:href="#ArialMT-116"/>
      <use x="489.160156" xlink:href="#ArialMT-32"/>
      <use x="516.943359" xlink:href="#ArialMT-115"/>
      <use x="566.943359" xlink:href="#ArialMT-101"/>
      <use x="622.558594" xlink:href="#ArialMT-114"/>
      <use x="655.859375" xlink:href="#ArialMT-118"/>
      <use x="705.859375" xlink:href="#ArialMT-105"/>
      <use x="728.076172" xlink:href="#ArialMT-99"/>
      <use x="778.076172" xlink:href="#ArialMT-101"/>
     </g>
    </g>
   </g>
  </g>
 </g>
 <defs>
  <clipPath id="p06c3c5b87d">
   <rect height="271.8" width="390.6" x="63" y="43.2"/>
  </clipPath>
 </defs>
</svg>
